<svg version="1.2" xmlns="http://www.w3.org/2000/svg" viewBox="0 0 347 467" width="347" height="467">
	<title>balloon-svg</title>
	<style>
		.s0 { fill: #bed63a;stroke: #515c19;stroke-width: 2.5 } 
		.s1 { fill: #d6e584 } 
	</style>
	<g id="Layer">
		<path id="Layer" class="s0" d="m187.1 461.7c0 0-9.6-11.5-9.6-33.2h-8.3c0 21.7-9.6 33.2-9.6 33.2"/>
		<path id="Layer" class="s0" d="m345.4 186c0 129.1-97.5 242.8-172.1 242.8-71.6 0-172-103.3-172-242.8 0-102 70-184.7 172-184.7 102 0 172.1 82.7 172.1 184.7z"/>
		<path id="Layer" class="s0" d="m173.3 465.5c-7.6 0-13.7-1.7-13.7-3.8 0-2.1 6.1-3.8 13.7-3.8 7.6 0 13.8 1.7 13.8 3.8 0 2.1-6.2 3.8-13.8 3.8z"/>
	</g>
	<path id="Layer" class="s1" d="m180.6 29.5c0 0 139.5 68.1 96 286.7-23.3 116.9 63.5-103.3 32.8-188.2-33.5-92.7-128.8-98.5-128.8-98.5z"/>
</svg>