<svg version="1.2" xmlns="http://www.w3.org/2000/svg" viewBox="0 0 343 480" width="343" height="480"><style>.a{fill:#010101}.b{fill:#b97b57}.c{fill:#ffd9b3}.d{fill:#fff}</style><path class="a" d="m20 211c-27.2 9-10.6 44.8-9.1 64 0.8 9.9-0.2 22.7 4 31.9 2.4 5.4 8.8 6.7 14.1 7.1 0 19.8-0.7 42 5.3 61 6.9 21.3 19.9 35.7 34.6 52 12.9 14.2 27 32.3 45.1 40.1 9.4 4.1 18.3 3.8 28 5.7 9.4 1.8 19.4 4.3 29 2.8 22.7-3.6 38.9-19.9 57-32.9 15.8-11.3 32.1-21.5 42-38.7 5.2-9.1 9.1-21.4 9.9-32 0.7-9.3-0.1-22.3 3.8-30.9 1.8-3.8 7-4 10.3-6.1 4.2-2.6 6.8-6.7 8.9-11 12.7-26 13.9-53.5 20.4-81 7.3-30.9 17-60.3 14.6-93-1-14-5.4-30.6-13.6-42-5.1-7.1-14.9-13.9-18-22-1.5-4 0.3-8.8-0.9-13-2-6.5-6.8-10.9-7.3-18-0.4-4.9 2.1-15.4-1.1-19.4-4.9-6.2-14.1 4.4-16 8.4-17.2-12.4-32.5-26.1-53-33.8-15.2-5.6-31-5.2-47-5.2-24.1 0-50.9-0.7-74 7.3-20.1 7.1-34 24.7-48.1 39.7-10.7 11.5-25.1 20.5-33.4 34-4.8 7.8-4.6 16.5-7.1 25-9.2 30.5-11.9 69.7 1.6 100z"/><path class="b" d="m31 236h1c5.5-9.7 3.9-21.5 8.9-31 6.3-12 18.3-20.8 22.7-34 3.7-10.7-1-24.8 5.7-34 8-11.1 17.8-22.1 30.7-27.4 3.4-1.4 11.1-5.8 13.5-0.7 2 4.3-2.8 12.6-3.5 17.1 13.2-5.6 21.7-13.3 37-14 4-0.1 12.3-0.4 13.1 5.1 0.9 6.8-12.3 16.3-14.1 23.9 8-1.9 16.8-4.5 23-10.1 2.9-2.6 7.4-10.6 11.9-10 4.7 0.7 5.9 9.5 7.1 13.1 9-1.9 17.2-4.6 24-11.1 3.1-2.9 8-11.6 12.9-11 3.7 0.5 3.9 5.3 4.3 8.1 1 8 1.8 15.9 1.8 24h1c3.3-5.6 4.4-18.6 9.4-22.3 7.2-5.3 15.1 15.5 15.6 20.3h1c1.8-4.1 1.7-18.3 7.1-19.1 3.4-0.5 5.2 4.8 6.5 7.1 4.4 7.9 8.8 15.6 12.1 24 6.1 15.4 0.2 29.5 1.7 45 0.9 9.1 10 16.9 12.1 26 2.8 12.5-1.5 26.3-1.5 39 5.3-3 13.6-7.2 17-12.5 4.6-7.2 7.3-22 9.4-30.5 7.5-30.7 13.1-68.9 0.6-99-5.4-12.9-17.8-20.2-24.4-32-2.5-4.3 0.1-9.3-1-14-2.8-11.5-7.6-18.4-7.6-31-3 3.6-3.1 13-10 9.8-5.7-2.6-8.8-9.3-13.3-13.4-6.8-6.3-16.6-11.2-24.7-15.7-27-15-56-13.4-86-12.7-17.9 0.4-40.4 2.1-56 11.4-15.1 9-25.8 23.4-38 35.6-9.2 9.2-20.6 17.3-28.2 28-5.6 7.8-4.9 16.2-7.4 25-2.2 7.5-6.4 14.1-7.2 22-3.7 34.6 9.1 67.1 11.8 101z"/><path class="c" d="m268 139h-1c-0.7 4.4-11.5 25.5-17 17.7-3.8-5.5-0.4-16.7-4-23.7h-1c-3.6 11.1-10.4 18.3-16.4 28-1.3 2.2-4.2 9.8-8 6.3-3-2.8 0.4-9.1 1.2-12.3 2.7-10.2 0.3-20.7 0.2-31-11.7 8.2-34.3 29.8-43 8h-1c-7.8 9.7-18.6 13-30 16.7-3 1-9.8 4.1-11.8 0-3.8-7.5 9.7-22.7 12.8-28.7-15 0.3-25.8 5.6-37 15.3-2.6 2.2-8.5 9.4-12.4 6-5.5-4.6 3.1-18.9 4.4-24.3-11.1 2-26.6 16-29.6 27-4 15-0.3 26.8-9.8 41-5 7.6-12.9 14.7-16.7 23-3.6 8-2.9 17.7-6.4 26-2.3 5.6-7.9 10.1-9.2 16-4.4 19.7 2.6 41.5 4.5 61 1.8 17.8-0.9 36.5 3.1 54 5.8 25.6 22.2 41.9 38.8 61 10.1 11.6 22.2 26 36.3 32.7 8.8 4.2 16.7 4.4 26 5.7 15.8 2.3 29.7 5.8 45-1.3 14-6.5 26.4-19.1 39-28.1 24.1-17.2 46.2-34.7 47-67 0.8-34.9 16-68.2 16-103 0-12.2 4.2-27.2 1.6-39-1.8-8.5-11.3-15.2-12.5-23-1.6-11.4 2.7-24.2 1.8-36-0.7-9.9-6-19.6-10.9-28z"/><path class="d" d="m109 126l1 1z"/><path class="a" d="m65 230l33-7 43 9c-0.8-16.7-12.9-21.9-28-22-18.6-0.1-36.6 3.8-48 20z"/><path class="b" d="m76 224l30-3.8 32 8.8c-6.3-22.2-48.9-21.7-62-5z"/><path class="c" d="m20 219c-16 14.8-2 46.2-0.2 65 0.8 7.8-1.2 19.5 8.2 22-2.4-18.6-4-36.2-4-55 0-9 0.7-24.1-4-32z"/><path class="a" d="m190 236l35 0.5 30 6.4 21 9.1c2-9.9-8.6-16-16-20.4-15.9-9.4-61.9-20.8-70 4.4z"/><path class="d" d="m75 224l1 1z"/><path class="b" d="m195 234c28.6-1.2 53.4 1.4 79 15-10.1-21.8-62.8-35.9-79-15z"/><path class="a" d="m174 286h3c0.7-9.1 0.6-27.7 6.4-34.9 6.8-8.3 23.7-9.2 33.6-11.1-3.3-5-14-0.5-19 0.7-6 1.3-13.3 2.8-17.4 7.8-6 7.2-6.2 28.2-6.6 37.5zm-102.4-41c-6.6 5.2 10.8 10.4 13.4 11.4 13.3 5 25.8 7.2 40 5 3.5-0.5 9.7-0.5 12.4-3.1 3.1-3.1-0.1-6-3.4-6.2-7.3-0.5-14.7 2.6-22 2.6-7.7 0-14.8-2.9-22-5.4-4.1-1.4-14.3-7.5-18.4-4.3zm83.4-1l-9.7 43-6.3 23h2c5.2-16 10-31.4 13.2-48 1-5.3 4.2-13.4 0.8-18zm39.6 14c-6.5 5 10.6 11.8 13.4 13 13.1 5.4 25.2 4.9 39 3.9 3.7-0.3 11.6 0.1 14.4-2.6 4.8-4.8-3.3-6.3-6.4-6.3-14.4 0.3-27 4-41-1.6-4.2-1.7-15.1-9.6-19.4-6.4z"/><path class="d" d="m312 262l1 1z"/><path class="c" d="m311 263l-14.7 11.4-3.1 16.6-8.2 39c17.4-5.2 19.9-35.3 22.8-50 1.1-5.3 5.1-11.8 3.2-17z"/><path fill-rule="evenodd" class="a" d="m122.9 320l9.1 10c-14.6-2.6-14.1-14.2-8-25zm73.1-8c0.5 11.3 2.3 27.7-15 24v-1l11.2-5.4 1.8-17.6zm-44 22h-3c-1.4-9.3-7.4-11.3-16-12 6.7-10.2 18.4 4.7 19 12zm34-8v3l-24 6c3-10.6 15.1-9 24-9zm-59 50.4c21.8 7.3 43.4 6 66 3.8 2.8-0.3 16.6-0.1 10.4 6.1-3.8 3.7-15.4 2.5-20.4 2.8-22.1 1.6-41.8 0.7-63-6.1-6.2-2-14.4-3.8-19.9-7.4-2.1-1.3-4.1-4.5-1.5-6.5 5-4 22.9 5.4 28.4 7.3zm15 31.1c8.7 2.9 18.2 1.5 27-0.6 4.4-1.1 10.9-4.4 14 0.1-20.5 4.3-48.9 10.8-65-8 7.6-0.9 16.6 6.1 24 8.5z"/></svg>