<svg version="1.2" xmlns="http://www.w3.org/2000/svg" viewBox="0 0 1320 1320" width="1320" height="1320">
	<title>baby-diapers-publicdomainvectors</title>
	<style>
		.s0 { fill: #bed8e9 } 
		.s1 { fill: #b2cbdd } 
		.s2 { fill: #daeefa } 
		.s3 { fill: #eef8fd } 
		.s4 { fill: #a0c0d5 } 
		.s5 { fill: #5998d1 } 
		.s6 { fill: #7699b0 } 
		.s7 { fill: #c5dcee } 
		.s8 { fill: #8bb0c6 } 
		.s9 { fill: #466b82 } 
	</style>
	<g id="_Artboards_">
	</g>
	<g id="publicdomainvectors.org">
		<g id="&lt;Group&gt;">
			<path id="&lt;Path&gt;" class="s0" d="m185.3 813c15.7-2.6 69.9-13.2 80.5-21 12.2-9 14.1-17.6 33.4-14.5 16.4 2.7 26.8 3.3 35.3-12.6 7.2-13.6 5.6-20.1 24.6-23 1.6-0.2 3.3-0.4 5-0.5 22.1-1.7 26-9.2 35-28.4 8.2-17.4 11.3-26.3 27.9-37.1 18.2-11.5 19.3-16.3 21.5-37.8 1.3-12.4 6-19.1 13.6-28 19.4-21.9 11.2-26.2 17.2-50.7 2.6-10.6 4.9-20.8 6.9-31.6q194 44.5 388 89c-8.3 5.8-20.3 13.5-24.7 22.8-9.2 19.4-9.7 22.1-30.4 28.9-35.6 13.1-1.9 47.8-32 67.8-19.2 12.8-19.8 17.3-20.2 41-0.5 11.8-2.5 10.3-0.4 24.1 6.6 41.2-31 22.8-22 68.8 2.5 13.1 0.4 17.5-1.3 30q-1.2 8.4-2.3 16.9-148.3 50.9-296.7 101.8-129.4-102.9-258.9-205.9z"/>
			<path id="&lt;Path&gt;" class="s1" d="m823.4 594.7c-81.3 77.6-120.5 176.8-125.2 287.2q-7.7 32.4-15.3 64.8c-117.1-32.8-242.2-69.5-359.3-102.2 117-64.7 189.8-158.5 188.9-310.7 96.9 19.5 214.1 41.5 310.9 60.9z"/>
			<path id="&lt;Path&gt;" class="s2" d="m303.1 886.2c124.9-81.7 215.3-192.7 228.3-369.5q134.9 27.8 269.8 55.7c-63.2 109.3-113.4 229.2-136.6 371.4q-180.7-28.8-361.5-57.6z"/>
			<path id="&lt;Path&gt;" class="s3" d="m524.9 948.1c67.7-29.7 110.6-103.7 132.5-173.5 12-40.2 25.4-128.1-31.4-144.7-45-13.2-77.2 29.2-96 62.1-31.8 55.9-40 63-82.9 108.8-29.8 31.8-60.5 95.8-18.7 136.3l6.7 5.9c27.9 21.4 61.4 15.3 89.8 5.1z"/>
			<path id="&lt;Path&gt;" class="s2" d="m336 211.3c252.5-55.7 502.4-12.9 749.4 148 31.9 20.7 44.6 61.3 29.4 94q-43.2 93-86.4 186.1c-15.7 33.9-56.1 46.9-91.2 29.5-163.2-81.2-404.2-111-537.3-108.5-36.4 0.7-69.2-26.9-75.9-63.9q-18.7-103.7-37.5-207.3c-6.6-36.8 14.6-70.2 49.5-77.9z"/>
			<path id="&lt;Path&gt;" class="s0" d="m508.1 188.8c120.7-4.7 240.9 14.4 360.3 59.3l-75.8 366.2c-90.5-26-187.1-41.6-270.4-49z"/>
			<path id="&lt;Compound Path&gt;" class="s4" d="m508.1 188.8q37.4-1.4 74.7 0.2h0.1l-0.4 307.9c0 35.4-23.8 63.3-57.9 68.1l-2.4 0.3zm284.7 34.4q37.9 10.7 75.6 25l-75.9 366.1-6-5.1c-35.4-30-51.5-73.5-43.5-117.2z"/>
			<path id="&lt;Path&gt;" class="s4" d="m264.6 263.4l104.9-8.4 38.2 254.3-104.8 8.4-7.6-50.8-49.9 4-23-152.7 49.9-4z"/>
			<path id="&lt;Path&gt;" class="s0" d="m233.1 328.2c-48.5-0.7-89.6 12.4-121.7 42.4q9.8 64.9 19.5 129.8c39.4-28.2 79.8-44.1 121.7-42.4q-9.8-64.9-19.5-129.8z"/>
			<path id="&lt;Path&gt;" class="s5" d="m142.4 348.3c-11.1 6-21.4 13.4-31 22.3q9.8 64.9 19.5 129.8c10.4-7.5 20.9-14.1 31.5-19.7z"/>
			<path id="&lt;Path&gt;" class="s4" d="m1157.8 450.1l-97.2-50.4-100.3 225.5 97.2 50.4 20.1-45.1 46.2 24 60.2-135.4-46.2-24z"/>
			<path id="&lt;Path&gt;" class="s0" d="m1169.1 523.4c46.1 18.9 81.7 48 104.6 89.4q-25.6 57.5-51.1 115c-30.3-42.5-64.5-74-104.6-89.4q25.5-57.5 51.1-115z"/>
			<path id="&lt;Path&gt;" class="s5" d="m1250 579c9 10.2 16.9 21.5 23.7 33.8q-25.6 57.5-51.1 115c-8-11.2-16.3-21.7-24.9-31.3z"/>
			<path id="&lt;Compound Path&gt;" fill-rule="evenodd" class="s6" d="m593.6 195.5l10.3 0.9-2.9 175.5-10.3-0.9zm179.7 30.8l10.1 2.7-31.5 170.4-10.1-2.7zm-14.9-5q-13.7 85.5-27.5 171.1-5-1.2-10.1-2.4 13.8-85.6 27.5-171.2 5 1.2 10.1 2.5zm-35.9-7.6q5 1.1 10.1 2.2-11.7 85.9-23.3 171.8-5.1-1.1-10.2-2.2 11.7-85.9 23.4-171.8zm-16.7-2.9q-9.6 86.3-19.3 172.6-5-1-10.1-1.9 9.6-86.3 19.3-172.6 5 1 10.1 1.9zm-35.8-6.3q5.1 0.8 10.1 1.7-7.5 86.6-15.1 173.3-5.1-0.9-10.2-1.7 7.6-86.6 15.2-173.3zm-14.4-2.6q-5.5 87-11 174-5.1-0.7-10.2-1.4 5.5-87 11.1-174 5.1 0.7 10.1 1.4zm-35.7-5.1q5.1 0.6 10.2 1.2-3.5 87.4-7 174.8-5.1-0.6-10.2-1.2 3.5-87.4 7-174.8z"/>
			<path id="&lt;Path&gt;" class="s2" d="m214.4 918.7q0.9 4.3 1.8 8.6c16.9 79.2 71.1 141.2 147 168 56.9 20.1 115.4 31.9 175.3 35.9 74.2 5 137.7-23.8 180.6-81.9q8.8-12 17.6-23.9-22.6-38.7-45.3-77.4-222.6-35.4-445.2-70.9-15.9 20.8-31.8 41.6z"/>
			<path id="&lt;Path&gt;" class="s7" d="m305.3 1065.2c17.4 12.5 36.8 22.7 57.9 30.1 56.9 20.1 115.4 31.9 175.3 35.9 74.2 5 137.7-23.8 180.6-81.9q8.8-12 17.6-23.9l-31.4-53.6-430.2-18.8c92.9 72.2 197.2 101.3 308.6 101.2 31.2 0 50.8 30.9 11.6 38.1-97.4 17.9-193.5 14.8-290-27.1z"/>
			<path id="&lt;Path&gt;" class="s4" d="m163.6 678.2c124 198.3 369.1 261.8 760.5 162.7q-6 60.7-11.9 121.5c-5 51.1-28.9 91.6-70.1 119-29.8 19.8-64.3 34.1-101.7 45.2-12.1 3.6-24.2 2.1-35.8-4.5-11.6-6.7-19.5-16.6-23.4-29.3q-13.1-42.4-26.1-84.8c-150.8 38-281 12.6-394.5-64.5q-19.2 19.3-38.4 38.6c-10.2 10.2-23.6 14.2-38.4 11.4-14.7-2.8-26.7-11.7-34.2-25.2-13.4-24.1-23.9-49.9-30.7-77.8-8.9-36-7.4-68.5 4.7-101.9q20-55.2 40-110.4z"/>
			<path id="&lt;Path&gt;" class="s8" d="m915.1 932.2l-2.9 30.2c-5 51.1-28.9 91.6-70.1 119-29.8 19.8-64.3 34.1-101.7 45.2-12.1 3.6-24.2 2.1-35.8-4.5-11.6-6.7-19.5-16.6-23.4-29.3l-1.4-4.6c65.9-0.2 90.1-4.5 151.2-43 37.6-23.7 60.3-46.5 76.3-89.1q4.3-11.8 7.8-23.9z"/>
			<path id="&lt;Path&gt;" class="s9" d="m280.1 938.8c113.8 72.7 234.6 85.8 358.7 57.1l-9-94c-41 1.3-82.3 0.1-123.3-4.8-72.2-8.5-142.8-28.3-206-65.1z"/>
		</g>
	</g>
</svg>