<svg version="1.2" xmlns="http://www.w3.org/2000/svg" viewBox="0 0 601 1295" width="601" height="1295"><style>.a{fill:#dbb9a9;stroke:#000;stroke-width:6.3}.b{fill:none;stroke:#000;stroke-width:6.3}.c{fill:#9b5f00;stroke:#000;stroke-width:6.3}.d{fill:#fff;stroke:#000;stroke-width:6.3}</style><path class="a" d="m85.8 255.2c15.1-98.7 61.9-180.9 63.2-188.5 0 0 48 10.1 131.5 17.7 82.2 8.8 104.9 5.1 142.9 2.5 36.6-3.8 84.7-10.1 84.7-10.1 0 0 15.2 30.4 16.4 60.7 3.8 64.5 27.8 344 30.3 418.6 0 0 10.2 44.3 10.2 153.1 0 118.9 32.8 360.4 32.8 489.5l-32.8 6.3c0 0-179.6 13.9-179.6-10.1 0-26.5-10.1-336.4 16.4-523.6 0 0-6.3-36.7-16.4-68.3-10.1-30.4-54.4-125.2-54.4-145.4 0 0-70.8 199.7-74.6 233.9-3.8 31.7-13.9 476.8-20.2 513.6 0 0-102.4 78.4-116.4 86-13.9 6.3-112.5-41.8-115-54.4-3.8-13.9 10.1-164.4 56.9-412.4 17.7-88.5 7.6-104.9 7.6-128.9 0-24.1 1.2-341.5 16.4-440.2z"/><path class="b" d="m256.4 691.6c-7.5 27.8-20.2 54.4-44.2 72.1"/><path class="b" d="m178 97c-3.8 16.5-27.8 91.1-88.5 135.4"/><path class="b" d="m266.5 111c-13.9 44.2-68.3 282-78.4 564.1"/><path class="b" d="m184.3 763.7c-2.5 26.5-16.4 223.9-20.2 258"/><path class="b" d="m154 1059.6c-6.3 13.9-34.1 129-34.1 231.5"/><path class="b" d="m520.7 844.6c-2.5 24-12.7 194.7 44.2 347.8"/><path class="b" d="m334.9 123.6c-3.8 27.9-10.1 207.5-10.1 221.4 0 13.9 20.2 34.1 30.3 37.9 0 0-20.2 6.4-24 74.7"/><path class="b" d="m280.4 296.9c-3.8 21.5-24 106.3-37.9 140.4"/><path class="b" d="m405.6 121.2c0 0 60.7 12.6 64.5 0 0 0 20.2 366.8 48 570.4"/><path class="b" d="m379.1 167.9c0 24-7.6 204.9-7.6 204.9"/><path class="b" d="m401.9 399.3c0 0 24 34.2 17.7 50.6"/><path class="b" d="m198.3 100.9c20.2 6.3 37.9 10.1 37.9 10.1"/><path class="b" d="m300.7 131.2c-3.8 10.2-7.6 57-7.6 57"/><path class="b" d="m401.9 671.3c7.5 10.1 17.7 24.1 10.1 54.4"/><path class="c" d="m140.1 64.2c0 0 0-40.4 15.1-60.7 0 0 43 8.9 103.7 15.2 62 6.3 111.3 11.4 156.8 6.3 45.6-5 92.4-16.4 92.4-16.4 0 0 12.6 59.4 6.3 68.3 0 0-49.4 10.1-103.7 12.6-55.7 3.8-148-5.1-179.6-10.1-41.7-5-78.4-12.7-91-15.2z"/><path class="d" d="m179.2 69.2l7.6-60.7 12.7 1.3-2.6 63.2z"/><path class="d" d="m453.7 18.6l1.3 68.3 15.1-2.5-1.2-69.6z"/><path class="d" d="m258.9 18.6l-5 65.8h8.8l8.9-65.8z"/></svg>