<svg version="1.2" xmlns="http://www.w3.org/2000/svg" viewBox="0 0 744 921" width="744" height="921"><defs><linearGradient id="P" gradientUnits="userSpaceOnUse"/><linearGradient id="g1" x1="-129.5" y1="-4.6" x2="623.1" y2="473.3" href="#P"><stop stop-color="#5d7d52" stop-opacity="1"/><stop offset="1" stop-color="#5d7d52" stop-opacity="0"/></linearGradient><linearGradient id="g2" x1="-12.8" y1="437.3" x2="260.1" y2="423" href="#P"><stop stop-color="#f0f" stop-opacity="0"/><stop offset="1" stop-color="#f0f" stop-opacity="0"/></linearGradient><filter x="-50%" y="-50%" width="200%" height="200%" id="f1"> <feGaussianBlur stdDeviation="4.2"/> </filter><radialGradient id="g3" cx="337.2" cy="211.1" r="192.7" href="#P"><stop stop-color="#fffff4"/><stop offset="1" stop-color="#ff0"/></radialGradient><linearGradient id="g4" x1="559.2" y1="154.5" x2="133.6" y2="273.7" href="#P"><stop stop-color="#ffe9ef"/><stop offset="1" stop-color="#ffe904"/></linearGradient><linearGradient id="g5" x1="-196.3" y1="813.4" x2="185.3" y2="728.5" href="#P"><stop stop-color="#5d7d52" stop-opacity="1"/><stop offset="1" stop-color="#5d7d52" stop-opacity="0"/></linearGradient><linearGradient id="g6" x1="-196.2" y1="813.4" x2="263.8" y2="946.9" href="#P"><stop stop-color="#e415ed" stop-opacity=".07"/><stop offset="1" stop-color="#e400d5" stop-opacity="0"/></linearGradient></defs><style>.a{fill:#619a56}.b{fill:#69b051}.c{fill:url(#g1);stroke:url(#g2);stroke-opacity:0;stroke-width:.4}.d{filter:url(#f1);fill:url(#g3);stroke:#fff;stroke-width:15}.e{fill:#e2494a;stroke:url(#g4);stroke-opacity:.8;stroke-width:5}.f{fill:#f2f2f2}.g{fill:#fff}.h{fill:#f3a84a;stroke:#000;stroke-width:.4}.i{fill:#fbd07b;stroke:#000;stroke-opacity:0;stroke-width:1.5}.j{fill:url(#g5);stroke:url(#g6);stroke-width:.4}</style><path class="a" d="m43.4 34.2l12.7 123 7.2 34.2q-3.3 67.1-5.4 134.3c-2.5 75.2-3.9 150.4-7.3 225.5q-0.8 18.2-1.8 36.4l18.1 77.4 3.6 41-12.6 45.6-46.5 126.2 32 24.1 7.2 9.1 32.5-18.3 50.5-6.8h48.7 57.7l18 2.3 18.5-18.5 23 13.9 32.4 2.3 37.9-4.5q29.8 0.3 59.5 2.2 26.2 1.7 52.3 4.6l46.9-9.1 31.2 19.4 54.1 2.3 50.7 7.7 42.5-13.5 27.7-22.8c2.5-51 2.4-102-0.1-152.9-1.5-30.4-3.9-60.7-5.7-91q-1.9-31.4-2.9-62.9l-9.1-47c-1.4-47.2-4-94.4-7.9-141.4q-2.2-25.5-4.8-51c1.8-53.6 2.3-107.2 1.5-160.8q-0.9-63.7-4.3-127.3l-24.9-26.6-115.5 34.3c-27.6 2-55.3 2.7-83 2.3-24.6-0.4-49.3-1.7-73.9-2.3-27.1-0.6-54.1-0.5-81.2 0q-63.1 1.2-126.2 4.6l-63.1-2.3-22.8 12.5-29.5-17.1z"/><path class="b" d="m4.9 7.1l12.6 123 7.2 34.1q-3.2 67.2-5.4 134.4c-2.4 75.1-3.8 150.3-7.2 225.4q-0.8 18.2-1.8 36.5l18 77.4 3.6 41-12.6 45.5-3.6 82-10.8 68.3 7.2 9.1 32.4-18.2 50.5-6.8h48.7 57.7l18 2.2 18.5-18.4 23 13.9 32.5 2.3 37.8-4.6q29.8 0.4 59.6 2.3 26.1 1.7 52.2 4.5l46.9-9.1q27.1 1.1 54.1 2.3 23.5 1.1 46.9 2.3l37.9-2.3 39.6 13.7h16.3c-4.1-48.5-6.5-97.1-7.2-145.8-0.6-37.9-0.2-75.9 0-113.8q0.1-36.5 0-72.9l10.8-45.5-3.6-145.8-9-52.4 7.2-159.4-7.2-122.9-65 9.1q-44.1-1.3-88.3 0c-27.7 0.8-55.3 2.4-83 2.3-24.6-0.2-49.2-1.6-73.9-2.3-27-0.8-54.1-0.5-81.1 0q-63.2 1.2-126.3 4.5l-63.1-2.2-22.7 12.5-29.6-17.1z"/><path class="c" d="m4.7 8.8l36.8 8.5 31.2 17.5 22.9-13.1 516.7-2.6-71.6 734.1-523.5-368.9 8-214-18-128z"/><path fill-rule="evenodd" class="d" d="m185.9 246.7c-4.6-22.2-4.9-44.9-0.8-67.2 4.1-22.2 12.4-43.4 24.6-62.4 12.1-19.1 27.8-35.6 46.2-48.7 18.4-13 39.2-22.4 61.2-27.6 22-5.2 44.8-6.1 67.1-2.6 22.3 3.5 43.7 11.3 63.1 22.9 19.4 11.6 36.3 26.9 49.9 44.9 13.5 18.1 23.5 38.6 29.2 60.4 5.8 21.9 7.3 44.6 4.4 67-2.9 22.4-10.1 44.1-21.2 63.7-11.1 19.7-25.9 37-43.6 51.1-17.6 14-37.9 24.5-59.6 30.9-21.6 6.3-44.3 8.4-66.8 6.1-22.5-2.2-44.3-8.8-64.2-19.4-20-10.6-37.7-24.9-52.2-42.2-14.6-17.3-25.6-37.3-32.5-58.8"/><path class="e" d="m213.7 116.8c-9.9 3.4-19.5 8.1-26.5 15.8-7.4 8-11.4 18.7-14.3 29.2-8 29.5-9.2 60.6-5 90.8 2.9 20.5 8.2 40.7 15.8 60l27.8-21.5c20.2-9.1 41.7-15.4 63.6-18.5 34.3-4.9 69.3-2.1 103.6 3.5 37.2 6.1 75 15.5 112.1 8.6 17.9-3.3 35-10.4 50-20.7 3.4-25.8 2.9-52.2-1.4-77.9-3.7-21.7-10.3-43.3-22.9-61.4q-3.6-5.2-7.8-10c-1.5 7-6 13.4-12.2 17.1-6.6 4-14.5 5-22.1 5.8-18.5 1.8-37.2 3.2-55.7 1.4-18.2-1.8-35.9-6.8-53.6-11.4-19.6-5.2-39.3-10.1-59.3-13.6-30.6-5.3-62.7-7.1-92.1 2.8z"/><path class="f" d="m302.8 197q-6.4 0-10.8-3.5-4.3-3.5-4.3-8.9 0-6.7 7.3-13.4 1.3-1.2 1.9-1.2 0.7 0 0.7 0.5 0 1.3-1.7 2.1-6 5.7-6 11.5 0 4.2 3.2 7.2 3.2 2.7 8 2.7 10.4 0 19.6-11.9 4.8-6.2 4.8-14.4 0-8.1-5.1-12.1-4.3-3.5-11.5-3.5-10.4 0-20.9 6.2-13 7.5-23.5 23.4-10.4 15.8-10.4 30.4 0 11.6 6.6 18 6.6 6.2 16.4 6.2 11.1 0 21.8-6.5 8.2-5.1 14.2-13 1.7-2.3 2.6-2.3 0.6 0 0.6 1.4 0 1.3-1.1 2.7-5.6 7.1-16.3 13.7-13 8.3-26.3 8.3-13.2 0-19.6-10.4-4.4-6.9-4.4-16.4 0-4.2 0.9-9.1 2.8-16.2 15-31.6 8.9-11.1 21-17.2 12.1-6.2 22.9-6.2 5.7 0 10 1.6 11.5 4.3 11.5 17.4 0 8-3.9 13.9-9.8 14.4-23.2 14.4z"/><path class="f" d="m347.6 231.8q-6.2 0-6.2-8.7 0-5 2.8-11 3-6.1 7.2-14.2-13.5 8.1-24.6 24-6.1 11.1-7.2 11.1-3.1 0-3.1-2.2 0-1.1 1.3-4.1 10.3-22 15.6-32.1 12.6-24.3 17.8-26.4 0.2-0.1 0.5-0.1 1.3 0 1.9 2.7-0.4 2.6-11.1 19.3-11.1 16.9-12.6 22.1 3.9-3.4 13.7-11.5 10.5-8.8 13.9-8.8 3.4 0 3.4 3.2 0 0.5-0.1 0.7 0 0.2-7.3 12-7.4 11.8-7.4 17.4 0 2.9 1.8 2.9 5.8-0.2 17.2-16.5 1-1.1 1.4-1.1 0.5 0 0.5 0.7 0 2.6-10.5 13.8-6.5 6.8-8.9 6.8z"/><path class="f" d="m385.5 180.4q1.6 0 3 1.3 1.5 1.2 1.5 2.8 0 1.7-1.4 2.9-1.3 1.2-2.9 1.2-1.6 0-2.9-1.4-1.3-1.4-1.3-3.2 0-3.6 4-3.6zm-19.2 53.3q-5.4 0-5.4-8.4 0-6.8 6.2-18.9 6.3-12.2 10.1-12.4 1.1 0 2.4 1.1 1.3 1 1.3 2-0.5 0.9-1.2 2-0.8 1.1-1.6 2.3-0.9 1.3-2.4 3.7-1.4 2.3-2.8 4.5-8 12.3-8 17 0 4.6 2.7 4.6 2.2 0 6-2.9 8.9-6.6 14.1-14.5 2-3 2.6-3 0.7 0 0.7 1.1 0 1-2.4 4-2.5 3.1-3.9 4.9-1.4 1.7-1.9 2.4-0.6 0.5-2.1 2.1-1.3 1.6-2.1 2.2-0.7 0.6-2.1 1.9-1.4 1.3-2.5 1.9-1 0.5-2.4 1.3-2.2 1.1-5.3 1.1z"/><path fill-rule="evenodd" class="f" d="m426.5 203.6q0 10.3-9.8 19.6-9.8 9.1-17 9.1-4.8 0-7-0.7-2.1-0.8-4.8-4.6-1.8 1.8-4.9 9-3.1 7.4-3.1 12.6 0 2.4 2.1 6.4 0.2 0.6-0.4 1-0.5 0.5-0.7 0.5-0.3 0-0.5-0.1-4.5-2.9-4.5-11.5 0-8.4 11.7-29.1 11.8-20.9 16.2-22.6 1.1-0.3 1.4-0.3 1.8 0 1.8 4.7 1.1-1.3 4.4-2.4 4-1.3 5.7-1.3 3.8 0 6.6 2.7 2.8 2.5 2.8 7zm-5.4-1.3q0-4.8-4.7-4.8-4.8 0-8.7 2.4-1.9 1-10 11.2-8.2 10.2-8.2 13.1 0 2.3 2.9 3.4 2.9 1.2 5.9 1.2 5.8 0 14.3-7.9 8.5-8 8.5-18.6z"/><path fill-rule="evenodd" class="f" d="m446.1 230.4q-3.1 2.2-7.7 2.2-4.4 0-6.9-3.6-2.3-3.5-4-11.3-1.9 2.3-2.7 2.3-0.5 0-0.5-0.9 0-0.9 0.5-1.5 3.5-5.2 11.9-15l13.4-15q5.7-6.5 6.8-6.5 3.4 0 3.4 3 0 1.6-1.1 3.1-0.9 1.4-1.4 2.3-0.5 0.7-1 1.5-1.9 3.9-3.9 16.3-1.9 12.3-3 17.2 8.8-0.2 18.2-13.8 1-1.3 1.5-1.3 0.6 0 0.6 0.9 0 0.8-1 2.2-6.1 8.6-11.4 12.1-3.2 1.9-8.3 3.2zm-14.4-14.2q0 4.4 2.4 7.2 2.4 2.6 5.4 2.6 3 0 4.6-1.4 2.1-1.4 4.1-11.7 2.1-10.3 2.5-18.2l0.5-4.3q-5.9 5.2-12.6 13.5-6.5 8.3-6.8 10.9-0.1 0.8-0.1 1.4z"/><path class="g" d="m503.3 831.9v5.4h-30.3q-0.1-2 0.7-3.9 1.1-3.1 3.6-6.1 2.6-3 7.4-6.9 7.5-6.1 10.1-9.7 2.6-3.6 2.6-6.8 0-3.3-2.4-5.6-2.3-2.3-6.2-2.3-4.1 0-6.5 2.4-2.4 2.5-2.5 6.8l-5.7-0.6q0.6-6.5 4.4-9.9 3.9-3.4 10.4-3.4 6.6 0 10.5 3.7 3.8 3.6 3.8 9 0 2.8-1.1 5.4-1.1 2.7-3.8 5.6-2.6 3-8.6 8.1-5.1 4.3-6.5 5.8-1.5 1.5-2.4 3z"/><path fill-rule="evenodd" class="g" d="m518 812.5q-3.5-1.3-5.2-3.7-1.7-2.4-1.7-5.7 0-5 3.6-8.4 3.6-3.4 9.6-3.4 6 0 9.6 3.5 3.7 3.5 3.7 8.5 0 3.2-1.7 5.6-1.6 2.3-5.1 3.6 4.3 1.4 6.5 4.4 2.2 3.1 2.2 7.3 0 5.9-4.2 9.9-4.1 4-10.9 4-6.8 0-11-4-4.1-4-4.1-10 0-4.5 2.2-7.5 2.3-3 6.5-4.1zm-1.1-9.6q0 3.3 2.1 5.4 2.1 2 5.4 2 3.3 0 5.3-2 2.1-2.1 2.1-5 0-3.1-2.1-5.2-2.2-2.2-5.4-2.2-3.2 0-5.3 2.1-2.1 2.1-2.1 4.9zm-1.8 21.2q0 2.4 1.1 4.7 1.1 2.2 3.4 3.5 2.2 1.2 4.8 1.2 4.1 0 6.7-2.6 2.6-2.6 2.6-6.6 0-4.1-2.7-6.7-2.7-2.7-6.8-2.7-3.9 0-6.5 2.6-2.6 2.7-2.6 6.6z"/><path fill-rule="evenodd" class="g" d="m545 814.7q0-8.1 1.6-13 1.7-5 5-7.7 3.3-2.7 8.3-2.7 3.7 0 6.5 1.5 2.8 1.5 4.6 4.3 1.8 2.8 2.8 6.8 1 4 1 10.8 0 8.1-1.6 13.1-1.7 4.9-5 7.6-3.3 2.7-8.3 2.7-6.6 0-10.4-4.7-4.5-5.8-4.5-18.7zm5.8 0q0 11.3 2.6 15.1 2.6 3.7 6.5 3.7 3.9 0 6.5-3.8 2.7-3.7 2.7-15 0-11.3-2.7-15-2.6-3.7-6.6-3.7-3.8 0-6.1 3.3-2.9 4.1-2.9 15.4z"/><path fill-rule="evenodd" class="g" d="m581.1 840.1l5.5 0.8q0.3 2.5 1.9 3.7 2.1 1.5 5.7 1.5 3.9 0 6-1.5 2.2-1.6 2.9-4.4 0.5-1.7 0.4-7.2-3.7 4.3-9.2 4.3-6.8 0-10.6-4.9-3.7-5-3.7-11.9 0-4.7 1.7-8.7 1.7-4 5-6.2 3.3-2.2 7.7-2.2 5.8 0 9.7 4.7v-4h5.1v28.7q0 7.8-1.5 11-1.6 3.2-5 5.1-3.5 1.9-8.5 1.9-5.9 0-9.5-2.7-3.7-2.7-3.6-8zm4.7-20q0 6.6 2.6 9.6 2.6 3 6.5 3 3.8 0 6.5-3 2.6-3 2.6-9.4 0-6.1-2.7-9.2-2.7-3.1-6.5-3.1-3.8 0-6.4 3.1-2.6 3-2.6 9z"/><path fill-rule="evenodd" class="f" d="m417.8 806.4v-15.5h4.3q1.1 0 1.7 0.1 0.9 0.2 1.4 0.8 0.6 0.5 1 1.5 0.3 0.9 0.3 2.1 0 2-0.9 3.3-1 1.4-3.4 1.4h-2.9v6.3zm1.5-8.1h3q1.4 0 2-0.8 0.7-0.7 0.7-2.1 0-0.9-0.4-1.6-0.4-0.7-1-0.9-0.3-0.2-1.4-0.2h-2.9z"/><path class="f" d="m428.5 806.4v-15.5h8.2v1.8h-6.7v4.8h6.3v1.8h-6.3v5.3h7v1.8z"/><path class="f" d="m438.6 801.4l1.4-0.1q0.1 1.1 0.5 1.9 0.3 0.7 1.1 1.2 0.8 0.4 1.8 0.4 0.8 0 1.5-0.3 0.7-0.4 1-1 0.3-0.6 0.3-1.3 0-0.7-0.3-1.3-0.3-0.5-1-0.9-0.5-0.2-2.1-0.7-1.5-0.6-2.2-1-0.8-0.6-1.2-1.5-0.4-0.8-0.4-1.9 0-1.2 0.5-2.2 0.5-1 1.4-1.5 1-0.6 2.1-0.6 1.3 0 2.3 0.6 0.9 0.5 1.5 1.6 0.5 1.1 0.5 2.5l-1.4 0.1q-0.1-1.5-0.8-2.2-0.7-0.8-2-0.8-1.4 0-2 0.7-0.6 0.7-0.6 1.7 0 0.8 0.4 1.3 0.4 0.6 2.3 1.2 1.8 0.5 2.5 0.9 1 0.7 1.5 1.6 0.5 1 0.5 2.2 0 1.3-0.5 2.4-0.6 1.1-1.6 1.7-0.9 0.6-2.2 0.6-1.5 0-2.6-0.6-1-0.7-1.6-1.9-0.6-1.2-0.6-2.8z"/><path fill-rule="evenodd" class="f" d="m449.3 798.9q0-3.9 1.5-6.1 1.5-2.2 4-2.2 1.5 0 2.8 1.1 1.3 1 2 2.8 0.6 1.8 0.6 4.2 0 2.3-0.7 4.2-0.7 1.9-2 2.8-1.3 1-2.8 1-1.6 0-2.8-1.1-1.3-1-2-2.9-0.6-1.8-0.6-3.8zm1.5 0q0 2.8 1.1 4.4 1.2 1.6 2.8 1.6 1.8 0 2.9-1.6 1.1-1.6 1.1-4.6 0-1.9-0.5-3.3-0.5-1.5-1.4-2.2-0.9-0.8-2-0.8-1.6 0-2.8 1.5-1.2 1.5-1.2 5z"/><path class="f" d="m417.9 832.4v-15.5h1.5l6 12.2v-12.2h1.5v15.5h-1.6l-6-12.2v12.2z"/><path class="f" d="m429.5 832.4v-15.5h8.3v1.8h-6.8v4.8h6.3v1.8h-6.3v5.3h7v1.8z"/><path class="f" d="m443 832.4v-13.7h-3.8v-1.8h9.1v1.8h-3.8v13.7z"/><path fill-rule="evenodd" class="f" d="m449.1 824.9q0-3.9 1.6-6.1 1.5-2.2 3.9-2.2 1.6 0 2.9 1.1 1.3 1 1.9 2.8 0.7 1.8 0.7 4.2 0 2.3-0.7 4.2-0.7 1.9-2 2.8-1.3 1-2.8 1-1.6 0-2.9-1.1-1.2-1-1.9-2.9-0.7-1.8-0.7-3.8zm1.6 0q0 2.8 1.1 4.4 1.1 1.6 2.8 1.6 1.7 0 2.8-1.6 1.1-1.6 1.1-4.6 0-1.9-0.4-3.3-0.5-1.5-1.4-2.2-0.9-0.8-2.1-0.8-1.6 0-2.7 1.5-1.2 1.5-1.2 5z"/><path class="h" d="m392.7 730.4l36.1-113.1c2.3-8.3 6.8-15.8 12.8-21 5.9-5.1 13.3-7.8 20.6-7.6 9.7 0.2 19.1 5.5 25.8 13.8 6.8 8.4 10.9 19.5 12.2 31.1 1.2 11.5-0.3 23.4-3.9 34.2-3.6 10.8-9.1 20.6-15.7 29-11 14.1-25 24.8-40.3 30.6-15.3 5.9-31.9 6.9-47.6 3z"/><path class="i" d="m336.2 761.6c-15.3 1.3-30.8-1-45.1-7.6-14.3-6.5-27.2-17.6-36.4-32.2-9.3-14.7-14.6-33.1-14-51.5 0.5-18.4 7.1-36.6 18.5-48.9 12.1-12.9 28.6-18.6 44.7-18.7 16.2-0.1 32 5 47.3 11.4 9 3.8 18 8 27.4 10.4 9.4 2.3 19.4 2.6 28.4-1.4 5.8-2.6 11-7 16.1-11.2l21.2-17.7 5.2-2.9c5.1 40.4-4.4 83.1-25.6 115-21.2 31.9-53.8 52.5-87.7 55.3z"/><path class="j" d="m10.5 561.1l19.8 78.8 3 39-13 44-6 88-9 64 8 9 32-18 47-5 111-2 16.9 3 19.1-18-40-53-24.6-69.1-73-63.7-32.5-40.2-19.6-37.3z"/><path class="g" d="m219 482.6l5.5-0.6-0.1 1.5q0 2.5 1.1 4.5 1.1 2.1 3.7 3.2 2.6 1.1 6.1 1.1 5 0 7.6-2.2 2.7-2.3 2.7-5.1 0-2-1.4-3.7-1.4-1.6-7.8-4.4-4.9-2.2-6.7-3.3-2.8-1.9-4.2-4.1-1.3-2.2-1.3-5.1 0-3.3 1.8-5.9 1.7-2.6 5.1-4 3.4-1.4 7.7-1.4 5.1 0 8.6 1.7 3.5 1.8 5.1 4.7 1.6 2.9 1.6 5.5 0 0.3 0 0.9l-5.4 0.4q0-1.8-0.3-2.8-0.6-1.8-1.8-3-1.2-1.2-3.3-1.9-2.1-0.8-4.7-0.8-4.6 0-7.1 2.1-1.9 1.6-1.9 4.2 0 1.6 0.8 2.8 0.8 1.3 2.9 2.4 1.4 0.9 7 3.4 4.5 2 6.2 3.2 2.3 1.5 3.5 3.7 1.2 2.2 1.2 5 0 3.4-2 6.3-2.1 2.9-5.7 4.5-3.7 1.6-8.4 1.6-7.1 0-11.6-3.1-4.5-3.2-4.5-11.3z"/><path fill-rule="evenodd" class="g" d="m256.7 484.6q0-9 5.2-14.9 4.3-4.9 11.3-4.9 5.5 0 8.8 3.5 3.4 3.5 3.4 9.4 0 5.3-2.1 9.9-2.1 4.5-6 7-3.9 2.4-8.2 2.4-3.5 0-6.4-1.5-2.9-1.6-4.5-4.4-1.5-2.8-1.5-6.5zm5.2-0.5q0 4.3 2 6.6 2.1 2.2 5.3 2.2 1.6 0 3.2-0.6 1.7-0.7 3.1-2.1 1.3-1.4 2.3-3.2 1-1.8 1.6-3.8 0.9-2.9 0.9-5.5 0-4.2-2.1-6.5-2-2.3-5.2-2.3-2.4 0-4.4 1.2-2 1.1-3.6 3.4-1.6 2.2-2.4 5.3-0.7 3-0.7 5.3z"/><path class="g" d="m309 490.7q-5.5 6.3-11.2 6.3-3.5 0-5.6-2-2.2-2.1-2.2-5 0-2 1-6.7l3.6-17.8h5.2l-4.1 19.7q-0.5 2.5-0.5 3.8 0 1.8 1.1 2.8 1 0.9 3 0.9 2.2 0 4.3-1.1 2-1 3.5-2.9 1.5-1.8 2.5-4.3 0.6-1.6 1.4-5.6l2.8-13.3h5.1l-6.3 30.8h-4.8z"/><path class="g" d="m320.8 496.3l6.3-30.8h4.6l-1.3 6.3q2.3-3.6 4.6-5.3 2.2-1.7 4.5-1.7 1.6 0 3.8 1.1l-2.1 4.9q-1.3-1-2.9-1-2.7 0-5.6 3.1-2.8 3.1-4.4 11.1l-2.6 12.3z"/><path class="g" d="m377.4 485.1l5.1 0.5q-1.9 5.8-5.5 8.6-3.6 2.8-8.1 2.8-5 0-8-3.2-3.1-3.3-3.1-9.1 0-5.1 2-9.9 1.9-4.9 5.6-7.4 3.7-2.6 8.4-2.6 4.8 0 7.7 2.8 2.8 2.8 2.8 7.4l-5 0.4q-0.1-3-1.7-4.6-1.6-1.7-4.3-1.7-3.1 0-5.4 2-2.3 2-3.6 6.1-1.3 4.1-1.3 7.9 0 3.9 1.7 5.9 1.7 1.9 4.2 1.9 2.6 0 4.8-1.9 2.3-1.9 3.7-5.9z"/><path class="g" d="m385.6 496.3l6.4-30.8h4.5l-1.3 6.3q2.4-3.6 4.6-5.3 2.3-1.7 4.6-1.7 1.5 0 3.8 1.1l-2.1 4.9q-1.4-1-3-1-2.7 0-5.5 3.1-2.9 3.1-4.5 11.1l-2.6 12.3z"/><path fill-rule="evenodd" class="g" d="m427.4 485.8l5 0.6q-1.1 3.8-5 7.2-3.9 3.4-9.3 3.4-3.3 0-6.2-1.6-2.7-1.6-4.2-4.6-1.5-3-1.5-6.8 0-5.1 2.3-9.8 2.3-4.8 6-7.1 3.6-2.3 7.8-2.3 5.5 0 8.7 3.4 3.2 3.5 3.2 9.4 0 2.2-0.4 4.6h-22.3q-0.1 0.9-0.1 1.6 0 4.4 2 6.7 1.9 2.2 4.8 2.2 2.6 0 5.2-1.8 2.5-1.7 4-5.1zm-15-7.6h17q0-0.8 0-1.1 0-4-1.9-6.1-2-2.1-5-2.1-3.3 0-6.1 2.3-2.7 2.3-4 7z"/><path fill-rule="evenodd" class="g" d="m458 492.5q-2.7 2.3-5.1 3.4-2.5 1.1-5.3 1.1-4.2 0-6.8-2.5-2.6-2.5-2.6-6.4 0-2.6 1.2-4.6 1.2-2 3.1-3.2 1.9-1.2 4.6-1.7 1.8-0.4 6.6-0.6 4.9-0.2 7-1 0.6-2.2 0.6-3.6 0-1.8-1.3-2.8-1.8-1.5-5.3-1.5-3.2 0-5.3 1.5-2 1.4-3 4.1l-5.2-0.4q1.6-4.6 5.1-7 3.4-2.5 8.7-2.5 5.6 0 8.9 2.7 2.5 2.1 2.5 5.3 0 2.5-0.7 5.7l-1.7 7.7q-0.8 3.6-0.8 5.9 0 1.5 0.6 4.2h-5.2q-0.4-1.5-0.6-3.8zm1.9-11.8q-1 0.4-2.3 0.7-1.2 0.2-4.1 0.5-4.5 0.4-6.4 1-1.8 0.6-2.8 2-0.9 1.3-0.9 3 0 2.2 1.5 3.6 1.5 1.4 4.2 1.4 2.6 0 5-1.3 2.3-1.4 3.7-3.9 1.4-2.4 2.1-7z"/><path class="g" d="m470.1 496.3l6.3-30.8h5.2l-1.1 5.1q2.9-3.3 5.1-4.5 2.3-1.3 5-1.3 2.8 0 4.7 1.6 1.9 1.5 2.5 4.2 2.3-2.9 4.8-4.3 2.6-1.5 5.4-1.5 3.8 0 5.7 1.8 1.9 1.9 1.9 5.2 0 1.4-0.7 4.7l-4 19.8h-5.2l4.2-20.3q0.5-2.5 0.5-3.6 0-1.5-0.9-2.4-1-0.9-2.7-0.9-2.3 0-4.7 1.5-2.4 1.4-3.7 3.7-1.3 2.3-2.3 7.1l-3.1 14.9h-5.2l4.3-20.8q0.5-2.1 0.5-3 0-1.5-1-2.4-0.9-1-2.4-1-2.2 0-4.6 1.5-2.4 1.4-3.9 3.9-1.5 2.6-2.5 7.3l-3 14.5z"/><path fill-rule="evenodd" class="g" d="m243.9 566.4q-3.6 3-6.1 4-2.6 1.1-5.7 1.1-5.7 0-9.1-3.4-3.5-3.4-3.5-8.6 0-3.4 1.3-5.9 1.3-2.6 3.8-4.7 2-1.6 5.9-3.4-1.5-3.3-1.8-4.4-0.4-1.6-0.4-3.5 0-2.4 1.3-4.9 1.3-2.5 3.8-4 2.4-1.4 5.3-1.4 4 0 6.5 2.4 2.5 2.4 2.5 5.8 0 2.8-2.1 5.7-2.1 2.8-8.3 5.9 3.7 6.9 7.1 11.3 2.1-2.6 4-6l4.5 2.3q-1.9 4-5.2 7.9 1.9 2.4 4.8 5.8l-3.9 3.2q-2.9-2.6-4.7-5.2zm-8.5-23.2q4.2-2.1 6-4.4 1.2-1.6 1.2-3.2 0-1.7-1.1-2.9-1.2-1.2-2.8-1.2-2 0-3.6 1.7-1.5 1.6-1.5 3.9 0 2.7 1.8 6.1zm5.5 19.2q-5.4-7.1-8.3-12.8-3.9 1.9-5.6 3.6-2.3 2.5-2.3 5.7 0 3.3 2.2 5.6 2.2 2.2 5.4 2.2 4.3 0 8.6-4.3z"/><path fill-rule="evenodd" class="g" d="m275.4 552.7q0-11.3 6.4-18.3 6.5-7.1 15.7-7.1 7.8 0 12.7 5.2 4.9 5.2 4.9 13.9 0 6.2-2.4 11.5-1.9 3.9-4.7 6.8-2.8 2.9-6 4.5-4.3 2.1-9.1 2.1-5 0-9.2-2.5-4.1-2.4-6.2-6.7-2.1-4.4-2.1-9.4zm5.5 0.3q0 3.8 1.5 6.9 1.5 3.1 4.6 4.9 3 1.8 6.3 1.8 3.2 0 6.1-1.6 3-1.5 5.2-4.3 2.3-2.8 3.7-6.8 1.3-4.1 1.3-8 0-6.3-3.5-10.1-3.5-3.8-8.6-3.8-6.6 0-11.6 5.7-5 5.7-5 15.3z"/><path class="g" d="m317.4 570.5l6.3-30.8h4.7l-1.1 5.4q3-3.1 5.7-4.6 2.6-1.4 5.4-1.4 3.6 0 5.7 2 2.1 2 2.1 5.4 0 1.7-0.7 5.4l-3.9 18.6h-5.1l4-19.5q0.6-2.8 0.6-4.2 0-1.5-1-2.5-1.1-0.9-3-0.9-4 0-7.1 2.9-3.1 2.9-4.5 9.9l-3 14.3z"/><path class="g" d="m357.2 534l1.2-6h5.1l-1.2 6zm-7.5 36.5l6.3-30.8h5.2l-6.4 30.8z"/><path fill-rule="evenodd" class="g" d="m363.8 558.9q0-9.1 5.2-15 4.3-4.8 11.3-4.8 5.4 0 8.8 3.4 3.3 3.5 3.3 9.4 0 5.3-2.1 9.9-2.1 4.6-6 7-3.9 2.4-8.2 2.4-3.5 0-6.4-1.5-2.9-1.5-4.4-4.3-1.5-2.9-1.5-6.5zm5.1-0.6q0 4.4 2.1 6.7 2 2.2 5.2 2.2 1.6 0 3.3-0.7 1.6-0.7 3-2.1 1.4-1.4 2.3-3.1 1-1.8 1.6-3.9 0.9-2.9 0.9-5.5 0-4.2-2.1-6.5-2-2.3-5.1-2.3-2.5 0-4.5 1.2-2 1.2-3.6 3.4-1.6 2.3-2.3 5.3-0.8 3-0.8 5.3z"/><path class="g" d="m395.3 570.5l6.4-30.8h4.6l-1.1 5.4q3.1-3.1 5.7-4.6 2.7-1.4 5.4-1.4 3.7 0 5.8 2 2.1 2 2.1 5.4 0 1.7-0.7 5.4l-3.9 18.6h-5.1l4-19.5q0.6-2.8 0.6-4.2 0-1.5-1.1-2.5-1-0.9-3-0.9-3.9 0-7 2.9-3.1 2.9-4.6 9.9l-2.9 14.3z"/></svg>