<svg version="1.2" xmlns="http://www.w3.org/2000/svg" viewBox="0 0 1286 1325" width="1286" height="1325"><style>.a{fill:#f2f2f2}.b{fill:#e6e6e6}.c{fill:#ccc}.d{fill:#b3b3b3}.e{fill:#00a1e5}</style><path fill-rule="evenodd" d="m477.2 38.1l767.2 442.9v531.5l-767.2-442.9z"/><path fill-rule="evenodd" class="a" d="m1244.4 1012.5l-460.3 265.7-767.2-442.9 460.3-265.7z"/><path fill-rule="evenodd" class="b" d="m16.9 835.3v35.4l767.2 443v-35.5z"/><path fill-rule="evenodd" class="c" d="m784.1 1313.7l460.3-265.8v-35.4l-460.3 265.7z"/><path fill-rule="evenodd" class="b" d="m1244.4 481l30.7-17.7-767.2-443-30.7 17.8z"/><path fill-rule="evenodd" class="d" d="m477.2 605l705.8 407.5-245.5 141.7-705.8-407.5z"/><path fill-rule="evenodd" class="d" d="m477.2 923.9l153.5 88.6-122.8 70.8-153.4-88.5z"/><path fill-rule="evenodd" class="e" d="m507.9 91.2l705.8 407.5v460.6l-705.8-407.5z"/><path fill-rule="evenodd" class="c" d="m1244.4 481l30.7-17.7v566.9l-30.7 17.7z"/></svg>