<?xml version="1.0" encoding="utf-8"?>

<!DOCTYPE svg PUBLIC "-//W3C//DTD SVG 1.1//EN" "http://www.w3.org/Graphics/SVG/1.1/DTD/svg11.dtd">
<svg version="1.1" id="Layer_1" xmlns="http://www.w3.org/2000/svg" xmlns:xlink="http://www.w3.org/1999/xlink" x="0px" y="0px"
	 viewBox="0 0 1280.89 1652.547" enable-background="new 0 0 1280.89 1652.547" xml:space="preserve">
<g>
	<path fill="#1B1515" stroke="#1B1515" d="M356.534,72.041c38.819-15.348,81.039-19.488,122.468-19.541
		c42.827,1.793,88.502-2.532,127.479,18.908c16.139,8.36,31.092,18.803,45.306,30.063c6.276,5.195,14.979,4.219,22.336,6.777
		c17.801,5.854,32.568,17.985,46.572,30.063c11.366,9.652,20.992,21.414,33.782,29.351c17.827,11.366,36.234,23.286,48.312,41.113
		c7.78,10.628,10.311,24.314,19.673,33.913c27.373,32.569,45.543,75,40.876,118.143c-3.112,20.833-0.396,42.247-5.802,62.79
		c-2.98,14.926-10.417,28.27-16.719,41.93c-6.725,15.295-10.812,31.698-18.882,46.414c-7.279,12.104-17.616,22.943-31.118,27.927
		c-15.77,5.828-32.12,11.129-45.359,21.967c1.503-9.045,2.242-18.196,3.376-27.268l-2.769,0.237
		c5.723-3.165,11.129-6.857,16.456-10.654c-3.824,7.12-7.806,14.188-11.181,21.545c15.164-5.512,26.82-17.115,38.845-27.4
		c36.709-37.869,59.494-89.188,61.999-141.983c2.954-40.137-6.25-82.358-30.802-114.847c-19.066-27.268-48.312-47.099-80.169-56.303
		c11.867,19.014,24.868,37.421,33.913,58.017c28.349,56.461,34.072,123.154,17.88,184.019c-3.771,12.052-4.8,26.028-14.32,35.285
		c1.793-7.12,3.85-14.293,4.061-21.677c-13.318-5.353-27.927-5.248-42.036-6.197c9.784-14.715,28.164-16.798,44.356-16.983
		c1.292-8.65,3.27-17.748-0.343-26.134c-5.986-14.873-5.432-31.487-2.954-47.046c3.692-12.685,7.49-29.035-2.663-39.689
		c-18.302-17.669-29.826-41.034-38.581-64.61c-8.782,6.751-18.117,13.133-28.771,16.535c-13.608,4.905-28.718,4.193-41.878,10.575
		c-16.007,7.516-27.294,22.574-33.307,38.898c-5.221,14.293-7.41,29.483-11.762,44.066c10.311,1.925,20.86,4.509,29.457,10.812
		c11.419,7.806,18.644,20.121,23.681,32.727c-9.836-5.38-20.332-9.23-31.171-12.078c-8.149-6.909-15.823-14.531-25.475-19.409
		c-4.668,12.896-9.52,25.791-16.139,37.816c-2.663,4.747-5.538,9.362-8.36,14.003c12.21,5.353,26.028,9.256,35.759,18.697
		c-1.925,2.901-4.114,5.591-6.197,8.386c-1.45-11.893-13.66-16.377-23.391-19.778c-3.27-1.187-6.672-1.899-9.995-2.769
		c-0.818,1.319-2.452,3.956-3.27,5.274c-3.455,5.96-4.905,12.816-8.017,18.935c-5.485,2.716-11.762,3.27-17.484,5.301
		c-13.871,11.05-32.305,9.705-47.89,16.192c-14.161,11.366-29.061,22.969-47.337,26.609c-28.428,6.672-56.303-4.694-83.94-9.678
		c-18.539-3.428-37.632-3.085-56.118,0.448c5.274-3.56,10.997-6.276,16.878-8.597c14.953-6.25,27.031-17.273,39.399-27.4
		c-0.738,6.646-2.584,13.107-5.142,19.277c35.733-4.299,61.841-32.911,79.193-62.315c5.432,20.596-3.033,41.034-10.759,59.784
		c13.238-1.872,23.655-11.102,31.25-21.572c8.571-10.97,12.605-24.446,17.695-37.184c2.875,19.699-2.769,39.188-1.978,58.913
		c17.168-2.558,33.755-10.812,45.464-23.708c6.909-7.437,9.705-17.405,13.344-26.609c8.386,3.718,12.975,11.366,13.845,20.385
		c38.001-42.431,59.125-102.505,46.783-159.177c-17.642,24.13-36.788,50.527-66.851,59.467c1.213-13.186,3.797-26.319,2.822-39.61
		c-0.976-19.805-7.015-39.082-15.876-56.725c-8.782,13.449-12.975,29.219-21.44,42.853c-10.707,17.695-22.257,35.812-39.24,48.154
		c10.944-25.765,16.086-54.219,11.287-82.068c-1.266-3.402,0.185-9.045-3.639-10.786c-7.41,11.92-10.997,25.765-17.352,38.265
		c-21.071,44.858-48.339,90.137-92.194,115.928c-12.526,6.567-25.369,14.531-39.953,14.689
		c27.927-25.185,51.134-61.05,46.203-100.237c-18.223,25.29-35.786,51.371-58.017,73.444
		c-13.528,11.234-26.951,23.075-42.906,30.775c-9.757,5.195-20.675,7.358-30.802,11.603c16.64,8.993,35.839,3.956,51.134-5.195
		c0.448,15.454-12.236,25.87-17.062,39.478c16.64,3.059,33.017-1.002,48.233-7.595c0.396,15.005-7.832,28.376-20.28,36.287
		c3.586,0.949,7.173,1.925,10.786,2.927c-14.293,4.8-25.87,16.904-27.294,32.331c-10.153-6.435-20.148-13.634-32.041-16.456
		c-5.011,12.685,1.899,25.686,5.169,37.922c4.246,11.102,5.142,23.418,10.891,33.913c5.485,7.015,14.082,0.211,20.042-2.347
		c5.854,22.416,6.118,46.071,14.056,67.959c5.09,14.952,19.515,25.844,19.91,42.537c1.108,25.686-16.983,46.176-32.041,64.979
		c11.208,31.83,25.659,62.817,32.068,96.15c3.138,16.113,3.244,34.625-8.492,47.495c29.14,35.865,50.475,79.325,53.797,125.923
		c1.793,30.696-0.554,61.656,3.877,92.194c2.031,12.5,6.065,25.026,14.082,35.047c6.461,6.962,15.454,11.261,21.097,19.014
		c5.011,7.068,4.061,16.086,2.98,24.209c27.664,5.617,48.286,27.268,62.263,50.633c6.566,12.183,20.517,16.64,30.854,24.842
		c30.96,20.596,59.072,47.679,72.706,83.017c6.145,18.328,9.256,37.579,9.573,56.909c0.079,5.222,0.343,10.443,0.58,15.717
		c4.826,2.663,9.546,5.485,14.188,8.465c0.527,0.343,1.609,1.055,2.162,1.398c6.039,3.877,11.999,7.938,17.722,12.342
		c1.081,0.923,2.162,1.899,3.217,2.927c2.453,2.479,4.905,5.037,7.331,7.595c1.529,1.635,3.059,3.297,4.562,5.011
		c6.197,7.015,11.788,14.504,16.957,22.284c1.081,1.661,2.136,3.349,3.191,5.09c2.69,4.43,5.195,8.94,7.674,13.555
		c0.844,1.661,1.688,3.349,2.584,5.09c1.793,3.534,3.745,7.015,5.564,10.601c0.448,1.108,1.345,3.323,1.793,4.43
		c3.929,9.415,7.7,18.908,10.944,28.587c1.081,3.138,2.189,6.276,3.244,9.467c0.501,1.556,1.45,4.694,1.925,6.25
		c2.136,7.49,4.246,15.005,6.118,22.6c1.371,4.219,1.081,10.311,6.303,11.867c13.529,6.619,26.266,15.216,35.97,26.872
		c2.664,3.244,5.09,6.646,7.727,9.968c-2.11,0.079-6.355,0.237-8.465,0.317c-11.181-13.37-24.763-24.552-40.375-32.384
		c-1.45,10.839-2.162,21.783-1.872,32.753c-3.692,0-7.41,0.026-11.102,0.053c-2.189-10.364-3.112-21.044-0.554-31.408
		c-3.428-1.029-6.856-2.031-10.285-3.006c-3.191-1.055-6.355-2.215-9.467-3.349c-5.248-2.031-10.443-4.167-15.454-6.646
		c-1.846-0.949-5.538-2.848-7.384-3.797c-2.927-1.582-5.802-3.244-8.65-4.905c-0.738-0.501-2.268-1.503-3.033-2.031
		c-0.897-0.475-2.743-1.424-3.639-1.899l-1.793-1.213c-4.219-2.875-8.571-5.617-12.816-8.386c-0.923-0.659-2.769-1.925-3.692-2.584
		c-0.58-0.396-1.714-1.213-2.294-1.609c-0.712-0.527-2.136-1.556-2.848-2.083c-2.505-1.82-4.984-3.586-7.49-5.327
		c-0.87-0.58-2.584-1.74-3.455-2.294l-2.795-2.162c0.686,9.098-0.132,18.249-2.663,27.057l1.951,1.661
		c0.712,0.554,2.11,1.635,2.822,2.189c1.846,1.371,3.718,2.769,5.564,4.193l2.294,1.872c3.771,3.085,7.463,6.276,10.997,9.678
		c1.028,1.055,3.059,3.112,4.088,4.14c1.239,1.266,2.505,2.584,3.745,3.929c2.611,2.848,5.169,5.775,7.648,8.808
		c2.268,2.822,4.404,5.696,6.593,8.65c2.558,3.534,5.063,7.094,7.674,10.654l-1.582,0.053c-46.255-0.554-92.537-0.053-138.792-0.185
		c-0.897-17.669,2.743-35.891,14.188-49.842c13.212,15.322,25.949,32.147,43.671,42.51c-10.944-42.985-32.278-83.729-63.739-115.269
		c-18.064-15.585-36.814-31.171-58.887-40.717c-3.85,19.409-6.83,39.056-11.709,58.228c-0.897,6.619-9.863,6.619-14.636,4.483
		c-13.08-9.125-20.807-23.655-29.51-36.603c-17.669-27.031-32.463-56.092-53.085-81.092c-0.396,9.151,0.343,18.328,0.949,27.479
		c0.185,32.226-3.481,64.689-13.133,95.517c-5.221,15.744-12.421,31.962-26.028,42.247c-14.478,10.733-35.997,7.094-48.602-4.905
		c-12.21-10.522-18.671-26.002-22.257-41.377c-8.307-45.016-0.554-91.113,11.287-134.784c3.244-13.581,9.731-26.108,13.054-39.663
		c-25.185,27.057-43.829,59.309-61.234,91.693c-15.163,31.54-27.954,64.346-35.285,98.655c-8.703-0.527-17.774-0.343-25.791,3.586
		c-12.131,4.905-20.728,15.058-30.432,23.365c-2.294-5.353-4.694-10.654-6.461-16.166c-3.797-50.448,6.83-100.58,7.463-150.976
		c-0.105-20.464-4.219-40.586-6.909-60.786c-8.175-56.83-11.788-114.346-10.338-171.756c0.026-1.45,0.079-4.351,0.105-5.828
		c2.136-40.427,4.72-82.252,21.756-119.647c-28.982-27.189-62.896-49.182-100.105-63.291c-0.264-13.423-0.158-26.82,0.026-40.216
		c14.531-8.65,29.088-17.431,44.963-23.471c-4.114-81.962-2.004-164.636,12.474-245.57c1.951-15.823,8.333-30.564,11.366-46.123
		c11.181-54.43,2.663-110.97,16.06-165.111c6.962-30.591,19.568-60.127,38.528-85.258c6.197-7.938,14.847-14.768,16.482-25.343
		c9.573-36.999,30.063-69.726,50.923-101.292c7.331-10.601,6.092-24.182,10.522-35.918c15.585-49.367,52.505-87.711,88.713-123.049
		C308.486,96.382,331.587,81.667,356.534,72.041 M284.092,223.228c-17.352,35.733-26.503,77.426-14.873,116.35
		c14.214,0.923,28.956,1.055,42.484-4.035c23.681-8.623,44.831-23.022,63.476-39.821c18.618-14.504,33.623-32.832,48.813-50.712
		c-26.371,2.558-55.432,7.041-79.351-7.516c-22.257-12.737-29.615-39.873-31.909-63.739
		C300.996,188.919,292.821,206.297,284.092,223.228 M163.866,419.14c-16.508,64.478-23.681,130.986-27.057,197.31
		c-0.264,43.935-1.055,87.948,0.87,131.883c7.542-11.893,11.023-25.712,16.271-38.634c18.592-47.943,30.222-98.233,38.634-148.84
		c10.311,2.057,17.326,10.654,23.813,18.249c6.065,10.549,7.437,22.917,8.492,34.837c14.953-26.292,23.391-56.698,24.446-86.973
		c-1.635-18.275-4.114-38.766-16.799-52.954c-10.865,10.549-17.326,24.71-20.622,39.346c-2.004-3.692-4.008-7.41-5.485-11.34
		C196.487,472.516,182.457,444.193,163.866,419.14 M194.166,673.966c-19.62,24.763-34.81,53.402-42.722,84.045
		c-16.35,66.218-2.426,135.997,23.154,197.969c5.696,11.814,9.626,24.604,17.458,35.285c-0.818-9.52-4.747-18.328-6.804-27.584
		c-13.555-51.029-19.066-107.41,0.976-157.463c1.134,50.791,11.129,102.189,36.076,146.941c4.589,7.621,7.964,16.192,14.504,22.468
		c-0.105-11.814-3.956-23.101-5.854-34.678c-4.984-29.773-10.258-59.599-12.368-89.742c0.079-14.03-3.877-27.901-1.688-41.904
		c1.793-12.447,0.712-25.185,3.56-37.474c12.5-45.543,19.436-92.88,20.227-140.032C222.832,643.059,208.697,658.908,194.166,673.966
		 M213.707,1067.584c-14.953,42.115-24.182,86.392-26.556,131.013c34.52-7.832,60.258-35.944,74.525-67.141
		c2.769-6.013,9.256-1.398,12.816,1.266c14.9,11.366,17.642,31.039,21.862,48.048c5.96-10.364,3.692-22.838,4.404-34.256
		c1.398-28.745-6.224-56.804-13.977-84.203c-9.863-26.45-19.119-53.138-29.668-79.325
		C237.442,1008.064,225.416,1038.18,213.707,1067.584 M154.609,1211.73c-22.943,27.374-35.759,64.241-29.773,99.974
		c6.909,40.638,29.114,76.714,53.745,109.019c0.554-11.893-5.011-22.785-7.437-34.177c-6.461-28.613-12.737-57.463-14.03-86.867
		c-4.299-30.933,0.316-62.052,3.534-92.827C158.512,1208.328,156.508,1209.937,154.609,1211.73 M272.146,1233.724
		c-1.767,37.236-1.134,75.791,11.498,111.287c6.224,19.62,19.858,36.392,36.841,47.732c21.308,10.628,47.046,12.737,69.858,6.118
		c-12.605-9.388-27.083-16.113-39.082-26.398c-6.039-5.432-12.632-10.258-18.565-15.823c-16.456-18.697-32.358-38.634-40.849-62.368
		C282.932,1274.863,279.135,1253.74,272.146,1233.724 M430.691,1253.977c3.534,22.099,21.097,38.001,37.368,51.714
		c23.233,18.592,47.442,36.023,69.304,56.276c13.291,12.869,25.158,27.242,34.362,43.354c0-20.754-7.569-40.77-17.247-58.834
		C527.341,1300.469,478.185,1274.309,430.691,1253.977 M589.235,1473.597c4.167-1.398,5.802-5.775,8.412-8.887
		c-0.053,1.529-0.158,4.536-0.211,6.039l-0.712-2.004c-1.029,1.793-3.086,5.327-4.114,7.12c-0.818,1.319-2.453,4.009-3.27,5.353
		c-0.686,4.958-1.108,9.969-1.187,15.032c1.055,6.83,2.242,13.713,4.536,20.306l0.554,3.85c1.793,3.191,3.534,6.408,5.432,9.599
		c0.396,0.976,1.16,2.927,1.53,3.903c1.846,2.822,3.666,5.67,5.485,8.571c2.532,3.006,5.037,6.118,7.437,9.283
		c9.072,9.889,19.989,17.695,30.274,26.213c1.16,0.501,3.507,1.451,4.668,1.952c2.901,1.846,5.854,3.692,8.861,5.485
		c1.424,0.818,4.246,2.505,5.67,3.349l-0.106,0.211c8.623,4.984,18.539,7.331,26.793,12.975c-4.035-16.667-6.356-33.703-12.79-49.71
		c-1.688-3.797-3.323-7.595-4.905-11.366c-1.002-2.479-1.978-4.932-2.954-7.358c-1.134-2.321-2.242-4.589-3.323-6.857l-0.185,1.266
		c-1.846-3.85-3.956-7.489-6.092-11.129l-0.58-1.952c-1.451-1.609-2.901-3.191-4.351-4.72c-1.714-2.848-3.481-5.644-5.195-8.439
		c-3.191-4.088-6.54-8.017-9.968-11.867c-2.083-2.321-4.14-4.615-6.171-6.909c-2.11-2.083-4.246-4.167-6.382-6.197l0.185-0.422
		c-1.292-1.187-3.903-3.534-5.195-4.72c-6.355-4.009-11.287-12.315-19.304-12.263c-0.369-4.14-4.299-5.802-7.12-8.043
		C592.347,1458.513,590.448,1465.976,589.235,1473.597z"/>
	<path fill="#321E13" stroke="#321E13" d="M284.092,223.228c8.729-16.93,16.904-34.309,28.639-49.473
		c2.294,23.866,9.652,51.002,31.909,63.739c23.919,14.557,52.98,10.074,79.351,7.516c-15.19,17.88-30.195,36.208-48.813,50.712
		c-18.645,16.799-39.794,31.197-63.476,39.821c-13.529,5.09-28.27,4.958-42.484,4.035
		C257.589,300.654,266.74,258.961,284.092,223.228z"/>
	<path fill="#321E13" stroke="#321E13" d="M741.213,205.19c31.857,9.204,61.102,29.035,80.169,56.303
		c24.552,32.489,33.755,74.71,30.802,114.847c-2.505,52.795-25.29,104.114-61.999,141.983c-12.025,10.285-23.681,21.888-38.845,27.4
		c3.375-7.358,7.358-14.425,11.181-21.545c-0.026-5.09-0.396-10.153-1.16-15.164c8.518-6.777,13.107-16.772,17.326-26.503
		c9.52-9.256,10.549-23.233,14.32-35.285c16.192-60.865,10.469-127.558-17.88-184.019
		C766.081,242.611,753.08,224.204,741.213,205.19z"/>
	<path fill="#321E13" stroke="#321E13" d="M464.604,293.085c6.355-12.5,9.942-26.345,17.352-38.265
		c3.824,1.741,2.373,7.384,3.639,10.786c4.8,27.848-0.343,56.303-11.287,82.068c16.983-12.342,28.534-30.459,39.24-48.154
		c8.465-13.634,12.658-29.404,21.44-42.853c8.861,17.642,14.9,36.92,15.876,56.725c0.976,13.291-1.609,26.424-2.822,39.61
		c30.063-8.94,49.209-35.338,66.851-59.467c12.342,56.672-8.782,116.746-46.783,159.177c-0.87-9.019-5.459-16.667-13.845-20.385
		c-3.639,9.204-6.435,19.172-13.344,26.609c-11.709,12.896-28.296,21.15-45.464,23.708c-0.791-19.726,4.852-39.214,1.978-58.913
		c-5.09,12.737-9.124,26.213-17.695,37.184c-7.595,10.469-18.012,19.699-31.25,21.572c7.727-18.75,16.192-39.188,10.759-59.784
		c-17.352,29.404-43.46,58.017-79.193,62.315c2.558-6.171,4.404-12.632,5.142-19.277c-12.368,10.127-24.446,21.15-39.399,27.4
		c-5.881,2.321-11.603,5.037-16.878,8.597c-3.059,1.134-6.145,2.242-9.177,3.455c-3.613-1.002-7.199-1.978-10.786-2.927
		c12.447-7.911,20.675-21.282,20.28-36.287c-15.216,6.593-31.593,10.654-48.233,7.595c4.826-13.608,17.511-24.024,17.062-39.478
		c-15.295,9.151-34.494,14.188-51.134,5.195c10.127-4.246,21.044-6.408,30.802-11.603c15.955-7.7,29.378-19.541,42.906-30.775
		c22.231-22.073,39.794-48.154,58.017-73.444c4.931,39.188-18.275,75.053-46.203,100.237c14.583-0.158,27.426-8.122,39.953-14.689
		C416.265,383.223,443.533,337.943,464.604,293.085z"/>
	<path fill="#F7D1BA" stroke="#F7D1BA" d="M711.756,276.709c10.654-3.402,19.989-9.784,28.771-16.535
		c8.755,23.576,20.28,46.941,38.581,64.61c10.153,10.654,6.355,27.004,2.663,39.689c-2.479,15.559-3.033,32.173,2.954,47.046
		c3.613,8.386,1.635,17.484,0.343,26.134c-16.192,0.185-34.573,2.268-44.356,16.983c14.109,0.949,28.718,0.844,42.036,6.197
		c-0.211,7.384-2.268,14.557-4.061,21.677c-4.219,9.731-8.808,19.726-17.326,26.503c-5.538-17.352-25.396-20.57-40.849-23.444
		c0.58,12.395,2.347,24.71,4.509,36.92c1.424,9.441,12.368,14.32,21.044,12.342l2.769-0.237c-1.134,9.072-1.872,18.222-3.376,27.268
		c-1.582,6.566-3.745,13.001-5.723,19.488c-35.417,1.081-70.042,13.291-99.288,33.043c0.211-12.764,6.118-24.209,10.338-35.944
		c-15.401,7.437-20.807,25.633-17.774,41.561c-19.963,15.796-36.946,35.338-50.079,57.147c-7.199,12.025-0.501,25.633,5.986,36.261
		c-0.132,0.976-0.396,2.901-0.527,3.85c0.738-0.844,2.215-2.558,2.954-3.428c4.536,14.056,11.788,27.057,15.823,41.271
		c0.29,0.923,0.87,2.743,1.187,3.666c4.43,8.36,8.65,16.825,12.342,25.554c-0.923,1.688-1.846,3.402-2.769,5.116
		c0.791,0.079,2.347,0.237,3.138,0.29c9.467,12.869,10.759,29.984,21.123,42.22c-0.343,0.897-0.976,2.664-1.319,3.56
		c0.369,0.765,1.081,2.321,1.424,3.085c1.108,2.189,2.215,4.404,3.349,6.646c-6.777,15.796-18.882,29.852-35.364,35.891
		c-26.266,9.942-55.169,3.323-80.485-6.355c-7.252,21.202-8.544,43.724-12.21,65.691c-3.85,27.558-15.48,54.035-13.66,82.305
		c1.055,15.664,3.244,32.621,12.737,45.57c-0.844,20.28-12.658,37.922-23.365,54.457c-7.832,13.555-14.504,29.694-29.536,36.814
		c-22.099,10.417-46.73,4.298-69.99,3.217c-8.017-10.021-12.052-22.547-14.082-35.047c-4.43-30.538-2.083-61.498-3.877-92.194
		c-3.323-46.598-24.657-90.058-53.797-125.923c11.735-12.869,11.63-31.382,8.492-47.495c-6.408-33.333-20.86-64.32-32.068-96.15
		c15.058-18.803,33.149-39.293,32.041-64.979c-0.396-16.693-14.821-27.584-19.91-42.537c-7.938-21.888-8.201-45.543-14.056-67.959
		c-5.96,2.558-14.557,9.362-20.042,2.347c-5.749-10.496-6.646-22.811-10.891-33.913c-3.27-12.236-10.179-25.237-5.169-37.922
		c11.893,2.822,21.888,10.021,32.041,16.456c1.424-15.427,13.001-27.532,27.294-32.331c3.033-1.213,6.118-2.321,9.177-3.455
		c18.486-3.534,37.579-3.877,56.118-0.448c27.637,4.984,55.512,16.35,83.94,9.678c18.275-3.639,33.175-15.243,47.337-26.609
		c15.585-6.487,34.019-5.142,47.89-16.192c4.641,2.215,9.283,4.509,14.161,6.197c15.401,6.593,32.384,6.777,48.866,6.145
		c0.237,1.134,0.738,3.402,0.976,4.536c10.733-12.025,17.405-31.461,7.779-46.018c-6.751-10.865-19.409-15.005-30.828-18.908
		c6.619-12.025,11.472-24.921,16.139-37.816c9.652,4.879,17.326,12.5,25.475,19.409c10.839,2.848,21.334,6.698,31.171,12.078
		c-5.037-12.606-12.263-24.921-23.681-32.727c-8.597-6.303-19.146-8.887-29.457-10.812c4.351-14.583,6.54-29.773,11.762-44.066
		c6.013-16.324,17.3-31.382,33.307-38.898C683.038,280.902,698.148,281.614,711.756,276.709 M379.662,753.054
		c-0.211,3.428-0.396,6.883-0.58,10.364c-1.952,0.396-5.881,1.16-7.832,1.556c21.835,20.359,46.704,37.184,69.91,55.96
		c22.495,16.667,45.622,32.727,70.543,45.622c2.98,1.872,6.487,2.4,9.942,2.901c-9.124-7.7-19.752-13.291-29.404-20.227
		c-25.976-18.592-51.266-38.291-74.42-60.338C404.029,778.133,393.085,764.235,379.662,753.054z"/>
	<path fill="#321E13" stroke="#321E13" d="M163.866,419.14c18.592,25.053,32.621,53.376,42.563,82.885
		c1.477,3.929,3.481,7.648,5.485,11.34c3.296-14.636,9.757-28.797,20.622-39.346c12.685,14.188,15.163,34.678,16.799,52.954
		c-1.055,30.274-9.494,60.68-24.446,86.973c-1.055-11.92-2.426-24.288-8.492-34.837c-6.487-7.595-13.502-16.192-23.813-18.249
		c-8.412,50.607-20.042,100.897-38.634,148.84c-5.248,12.922-8.729,26.74-16.271,38.634c-1.925-43.935-1.134-87.948-0.87-131.883
		C140.184,550.127,147.357,483.618,163.866,419.14z"/>
	<path fill="#EDBBA4" stroke="#EDBBA4" d="M596.803,434.119c2.822-4.641,5.696-9.256,8.36-14.003
		c11.419,3.903,24.077,8.043,30.828,18.908c9.626,14.557,2.954,33.993-7.779,46.018c-0.237-1.134-0.738-3.402-0.976-4.536
		c-1.292-6.355-1.609-12.869-0.87-19.304c2.083-2.795,4.272-5.485,6.197-8.386C622.832,443.375,609.013,439.473,596.803,434.119z"/>
	<path fill="#577338" stroke="#577338" d="M589.71,443.929c0.818-1.319,2.452-3.956,3.27-5.274c3.323,0.87,6.725,1.582,9.995,2.769
		c-0.897,0.343-2.637,1.055-3.534,1.424c-2.11,7.542-1.688,16.06-7.542,22.231C591.345,457.985,590.659,450.944,589.71,443.929z"/>
	<path fill="#FFFFFF" stroke="#FFFFFF" d="M599.441,442.848c0.897-0.369,2.637-1.081,3.534-1.424
		c9.731,3.402,21.941,7.885,23.391,19.778c-0.738,6.435-0.422,12.948,0.87,19.304c-16.482,0.633-33.465,0.448-48.866-6.145
		c4.773-2.69,9.388-5.696,13.529-9.283C597.753,458.908,597.331,450.39,599.441,442.848z"/>
	<path fill="#48583A" stroke="#48583A" d="M581.693,462.864c3.112-6.118,4.562-12.975,8.017-18.935
		c0.949,7.015,1.635,14.056,2.189,21.15c-4.14,3.587-8.755,6.593-13.529,9.283c-4.879-1.688-9.52-3.982-14.161-6.197
		C569.931,466.134,576.207,465.58,581.693,462.864z"/>
	<path stroke="#000000" d="M720.511,485.57c15.454,2.875,35.311,6.092,40.849,23.444c0.765,5.011,1.134,10.074,1.16,15.164
		c-5.327,3.797-10.733,7.489-16.456,10.654c-8.676,1.978-19.62-2.901-21.044-12.342C722.858,510.28,721.091,497.964,720.511,485.57
		 M722.911,490.132c0.158,9.863-0.58,20.069,3.507,29.351c-3.797,6.857,5.907,12.526,11.709,10.654
		c9.467-4.931,12.685-17.616,9.916-27.347c-3.877-8.333-14.425-9.494-22.363-11.155l-0.369-1.108
		C724.704,490.422,723.518,490.237,722.911,490.132z"/>
	<path fill="#246E51" stroke="#246E51" d="M722.911,490.132c0.607,0.106,1.793,0.29,2.4,0.396l0.369,1.108
		c3.903,8.861,6.25,19.04,0.738,27.848C722.331,510.2,723.069,499.995,722.911,490.132z"/>
	<path fill="#FFFFFF" stroke="#FFFFFF" d="M726.418,519.483c5.512-8.808,3.165-18.987-0.738-27.848
		c7.938,1.661,18.486,2.822,22.363,11.155c2.769,9.731-0.448,22.416-9.916,27.347C732.326,532.01,722.621,526.34,726.418,519.483z"
		/>
	<path fill="#BC829A" stroke="#BC829A" d="M790.817,539.894c13.502-4.984,23.84-15.823,31.118-27.927
		c1.899,19.805,0.738,39.715,1.029,59.546c-0.369,18.724,1.081,37.526-1.213,56.197c-7.753-9.151-2.611-22.126-7.569-32.331
		c-3.138-5.538-9.652-7.753-15.48-9.151c-19.383-3.797-39.214-5.617-58.966-4.879c1.978-6.487,4.14-12.922,5.723-19.488
		C758.697,551.023,775.047,545.723,790.817,539.894z"/>
	<path fill="#EDBBA4" stroke="#EDBBA4" d="M633.011,620.011c-3.033-15.928,2.373-34.125,17.774-41.561
		c-4.219,11.735-10.127,23.18-10.338,35.944c-1.767,1.239-3.481,2.532-5.195,3.85L633.011,620.011z"/>
	<path fill="#F8F8F6" stroke="#F8F8F6" d="M640.448,614.393c29.246-19.752,63.871-31.962,99.288-33.043
		c19.752-0.738,39.583,1.081,58.966,4.879c5.828,1.398,12.342,3.613,15.48,9.151c4.958,10.206-0.185,23.18,7.569,32.331
		c0.158,1.925,0.501,5.775,0.659,7.7c-6.857-8.966-8.65-20.833-15.454-29.641c-12.104-4.008-25.106-2.584-37.606-1.793
		c7.859,16.772,15.928,33.465,23.813,50.237c12.869,0.738,25.58,3.086,38.397,4.562c7.279,6.013,9.151,15.823,11.814,24.393
		c-13.027-0.712-26.055-1.213-39.082-1.846c7.806,16.93,15.955,33.676,23.919,50.527c12.869,1.635,25.765,3.191,38.66,4.879
		c3.349,7.832,6.303,15.849,9.942,23.576c-12.579-0.026-25.158-0.923-37.711-1.451c7.991,18.17,16.034,36.287,23.919,54.483
		c12.289,2.057,24.631,3.745,36.893,6.013c3.376,12.553,9.151,24.288,12.737,36.788c2.479,7.384-1.266,14.794-2.769,21.994
		c-2.927,3.982-5.881,7.964-8.993,11.841c-5.828,7.094-13.08,12.764-20.464,18.17c6.804-12.078,19.937-19.779,23.787-33.623
		c4.509-9.889-3.033-21.598-13.159-23.787c-19.541-5.512-40.295-2.532-59.81,1.661c-33.201,7.753-65.216,21.334-93.486,40.48
		c-7.49-8.149-9.098-19.541-13.924-29.167c7.41-5.538,15.005-10.759,22.574-16.06c-7.911-17.379-16.166-34.599-24.209-51.899
		c-6.408,3.956-12.816,7.911-18.961,12.315c-4.43-9.177-5.67-19.488-10.1-28.666c6.356-4.615,12.79-9.098,19.225-13.608
		c-7.99-17.352-16.192-34.599-24.235-51.899c-4.852,3.006-9.705,6.013-14.425,9.23c-3.534-8.465-6.962-16.983-10.311-25.527
		c4.905-3.481,9.837-6.962,14.768-10.39c-7.173-16.324-14.451-32.621-21.862-48.84c-3.481,2.189-6.962,4.351-10.39,6.593
		c-5.723-7.938-7.595-17.642-10.654-26.714C636.967,616.925,638.681,615.633,640.448,614.393 M685.147,619.852
		c6.408,17.115,14.188,33.676,20.886,50.686c19.963-5.986,39.9-12.052,60.258-16.561c-6.883-16.667-14.135-33.175-21.282-49.736
		C724.441,606.667,704.583,612.785,685.147,619.852 M719.826,698.861c7.489,16.825,13.634,34.256,21.967,50.712
		c19.383-7.12,39.478-11.999,59.467-17.01c-7.12-16.535-14.082-33.122-21.413-49.578
		C759.198,685.464,739.182,691.345,719.826,698.861 M755.321,781.35c7.49,16.588,14.214,33.492,21.387,50.211
		c19.779-6.435,39.821-11.92,60.047-16.825c-6.883-16.587-14.214-32.938-21.097-49.499
		C794.905,767.584,774.546,773.254,755.321,781.35z"/>
	<path fill="#1B1515" stroke="#1B1515" d="M685.147,619.852c19.436-7.067,39.293-13.186,59.863-15.612
		c7.147,16.561,14.399,33.07,21.282,49.736c-20.359,4.509-40.295,10.575-60.258,16.561
		C699.335,653.528,691.556,636.967,685.147,619.852 M689.63,621.619c6.065,14.952,12.685,29.668,18.486,44.726
		c17.801-4.615,35.285-10.522,53.296-14.452c-5.934-14.768-12.632-29.219-18.539-44.014
		C724.572,609.884,706.851,615.264,689.63,621.619z"/>
	<path fill="#1B1515" stroke="#1B1515" d="M769.351,603.977c12.5-0.791,25.501-2.215,37.606,1.793
		c6.804,8.808,8.597,20.675,15.454,29.641l0.501,0.844c0.132,0.211,0.396,0.659,0.527,0.897l0.501,0.897
		c1.239,4.72,2.611,9.415,3.771,14.135c-8.122-13.238-12.922-28.191-20.543-41.667c-9.863-5.063-21.967-3.56-32.78-3.692
		c7.041,14.531,14.926,28.639,22.416,42.932c10.97,1.477,21.994,4.246,33.149,2.769c0.396,1.556,1.213,4.668,1.609,6.25
		c-12.816-1.477-25.527-3.824-38.397-4.562C785.279,637.442,777.21,620.749,769.351,603.977z"/>
	<path fill="#F8F8F6" stroke="#F8F8F6" d="M689.63,621.619c17.22-6.356,34.942-11.735,53.244-13.74
		c5.907,14.794,12.605,29.246,18.539,44.014c-18.012,3.929-35.496,9.837-53.296,14.452
		C702.315,651.287,695.696,636.572,689.63,621.619z"/>
	<path fill="#FAFAFA" stroke="#FAFAFA" d="M774.388,606.825c10.812,0.132,22.917-1.371,32.78,3.692
		c7.621,13.476,12.421,28.428,20.543,41.667c-1.16-4.721-2.532-9.415-3.771-14.135c3.191,4.272,5.142,9.23,6.013,14.478
		c-11.155,1.477-22.178-1.292-33.149-2.769C789.314,635.464,781.429,621.356,774.388,606.825z"/>
	<path fill="#F2F2F2" stroke="#F2F2F2" d="M633.011,620.011l2.242-1.767c3.059,9.072,4.931,18.776,10.654,26.714
		c-12.21,7.727-23.26,17.115-33.201,27.558c7.226,15.981,13.819,32.226,21.414,48.022c9.573-7.885,19.119-15.823,29.272-22.943
		c3.349,8.544,6.777,17.062,10.311,25.527c-10.68,7.199-20.411,15.691-29.219,25.053c7.885,16.93,15.691,33.887,23.418,50.897
		c8.518-6.435,16.64-13.37,25.237-19.673c4.43,9.177,5.67,19.488,10.1,28.666c-8.94,6.435-17.089,13.898-24.684,21.862
		c7.859,16.983,15.717,33.966,23.47,51.002c7.305-5.696,14.425-11.603,21.809-17.22c4.826,9.625,6.435,21.018,13.924,29.167
		c-15.691,12.078-33.65,25.264-38.423,45.649c-0.897,10.443,8.914,16.588,17.326,19.99c-0.897,0.686-2.716,2.057-3.613,2.769
		c-8.465-1.635-17.642-5.142-21.862-13.212c-5.353-10.127-9.177-20.939-14.056-31.303c3.086-6.356,6.25-12.685,9.467-18.987
		c-7.094-18.012-14.188-36.023-21.255-54.061c-3.85,6.355-7.727,12.711-11.656,19.014c-2.664-5.854-5.222-11.735-8.043-17.484
		c-1.134-2.242-2.242-4.457-3.349-6.646c2.795-7.7,7.885-14.821,9.546-22.758c-6.329-16.983-13.66-33.623-20.833-50.264
		c-3.507,6.224-6.936,12.474-10.311,18.75c-3.692-8.729-7.911-17.194-12.342-25.554c3.296-7.094,9.625-13.133,10.786-20.965
		c-4.483-15.032-10.68-29.536-16.271-44.225c-4.536,6.672-9.362,13.186-13.95,19.831c-6.487-10.628-13.186-24.235-5.986-36.261
		C596.065,655.348,613.048,635.807,633.011,620.011z"/>
	<path fill="#321E13" stroke="#321E13" d="M194.166,673.966c14.531-15.058,28.666-30.907,46.519-42.168
		c-0.791,47.152-7.727,94.488-20.227,140.032c-2.848,12.289-1.767,25.026-3.56,37.474c-2.189,14.003,1.767,27.875,1.688,41.904
		c2.11,30.142,7.384,59.968,12.368,89.742c1.899,11.577,5.749,22.864,5.854,34.678c-6.54-6.276-9.916-14.847-14.504-22.468
		c-24.947-44.752-34.942-96.15-36.076-146.941c-20.042,50.053-14.531,106.435-0.976,157.463c2.057,9.256,5.986,18.064,6.804,27.584
		c-7.832-10.68-11.762-23.47-17.458-35.285c-25.58-61.973-39.504-131.751-23.154-197.969
		C159.356,727.368,174.546,698.729,194.166,673.966z"/>
	<path fill="#E3E9CD" stroke="#E3E9CD" d="M822.911,636.255c0.132,0.211,0.396,0.659,0.527,0.897
		C823.307,636.915,823.043,636.466,822.911,636.255z"/>
	<path fill="#1B1515" stroke="#1B1515" d="M645.907,644.958c3.428-2.241,6.909-4.404,10.39-6.593
		c7.41,16.218,14.689,32.516,21.862,48.84c-4.931,3.428-9.863,6.909-14.768,10.39c-10.153,7.12-19.699,15.058-29.272,22.943
		c-7.595-15.796-14.188-32.041-21.414-48.022C622.647,662.073,633.697,652.685,645.907,644.958 M616.582,672.806
		c5.934,13.898,11.472,28.086,18.46,41.482c13.581-8.439,25.686-19.594,39.188-28.455c-6.672-14.188-12.605-28.745-19.515-42.827
		C640.923,651.471,628.001,661.308,616.582,672.806z"/>
	<path fill="#F4F4F2" stroke="#F4F4F2" d="M616.582,672.806c11.419-11.498,24.341-21.334,38.133-29.799
		c6.909,14.082,12.843,28.639,19.515,42.827c-13.502,8.861-25.607,20.016-39.188,28.455
		C628.053,700.891,622.516,686.704,616.582,672.806z"/>
	<path fill="#F7D1BA" stroke="#F7D1BA" d="M919.746,650.206c8.228-3.56,19.198-2.584,24.446,5.459
		c11.181,17.326,15.084,37.948,22.416,56.936c9.441-5.274,22.89-9.863,31.461-0.475c13.898,15.48,12.896,38.001,22.205,55.881
		c2.426,10.997,4.984,21.967,7.437,32.964c1.029,9.705,11.313,14.583,13.37,23.84c3.164,11.208-1.635,22.6-0.422,33.914
		c0.765,8.861,1.978,17.88-0.158,26.661c-2.795,14.372-11.894,26.16-20.227,37.737c-11.788,14.979-15.295,34.124-21.677,51.635
		c-4.852,15.48-11.445,30.301-18.012,45.121c-5.696,16.324-6.725,33.94-13.238,50.079c-5.538,13.396-3.824,28.112-2.954,42.194
		c1.398,21.572,7.991,42.273,11.92,63.423c3.745,20.675,6.566,41.508,9.124,62.368c2.347,16.192,3.666,32.542,5.512,48.813
		c-18.776,19.515-47.917,22.337-73.55,22.6c-15.375-1.108-33.492-0.448-45.57-11.471c-4.351-10.68-5.538-22.389-8.439-33.518
		c-9.784-42.299-22.152-83.94-36.05-125.053c-5.169-16.983-15.454-32.015-19.066-49.552c-3.059-10.628-0.448-22.864-7.542-32.12
		c-18.565-29.852-33.07-65.796-24.209-101.345c21.677-5.037,42.431-13.344,62.605-22.653c14.241-7.674,29.167-14.61,41.297-25.501
		c7.384-5.406,14.636-11.076,20.464-18.17c1.951,9.599,3.877,19.858,0.343,29.404c-7.542,20.86-25.053,35.997-34.388,55.854
		c14.61-10.891,23.101-28.481,39.821-36.973c3.534,0.791,7.094,1.582,10.68,2.373c-7.7-19.989-8.149-41.403-7.463-62.5
		c1.503-7.199,5.248-14.61,2.769-21.994c-3.586-12.5-9.362-24.235-12.737-36.788c-6.988-19.937-14.478-39.742-23.101-59.045
		c-3.639-7.727-6.593-15.744-9.942-23.576c-7.595-17.959-16.957-35.179-23.497-53.56c-2.664-8.571-4.536-18.381-11.814-24.393
		c-0.396-1.582-1.213-4.694-1.609-6.25c7.727,2.69,15.955,5.169,22.046,10.944c6.487,5.828,10.311,13.818,14.32,21.44
		C885.517,675.469,899.889,658.434,919.746,650.206 M918.428,728.186c-13.608,8.703-28.982,18.012-35.812,33.281
		c14.109-7.621,25.844-18.935,40.137-26.292c10.496-6.171,21.361-11.709,31.857-17.88
		C941.951,718.006,929.768,722.806,918.428,728.186 M905.796,781.799c-4.826,5.854-7.911,14.979-2.98,21.73
		c1.319-6.461,1.371-13.792,6.118-18.908c6.619-5.907,16.113-4.852,24.314-4.984c15.823,0.659,31.725,0.211,47.521,1.688
		c11.577,0.554,22.574,8.676,26.055,19.779c2.242,23.629-2.664,47.257-1.239,70.86c5.063-23.26,5.749-47.231,6.751-70.912
		c1.187-12.922-9.889-27.901-23.734-26.635c-17.616,0.053-35.232,1.556-52.875,0.923
		C925.627,775.575,913.602,773.914,905.796,781.799 M928.818,828.054c2.004,10.918-1.424,21.994-8.201,30.617
		c5.485-1.661,11.129-3.296,16.957-2.373c-0.976,7.094-0.633,14.32,2.057,21.044c1.055-6.857,1.239-14.109,4.72-20.306
		c3.481-7.674,11.603-11.181,18.038-15.875C950.416,838.998,937.468,837.679,928.818,828.054z"/>
	<path fill="#1F1A17" stroke="#1F1A17" d="M804.293,681.324c13.027,0.633,26.055,1.134,39.082,1.846
		c6.54,18.381,15.902,35.601,23.497,53.56c-12.896-1.688-25.791-3.244-38.66-4.879C820.248,715,812.099,698.254,804.293,681.324
		 M809.251,684.409c6.672,14.504,13.159,29.114,20.438,43.328c11.208,0.923,22.336,2.532,33.518,3.639
		c-7.173-15.295-14.662-30.406-21.862-45.675C830.638,685.227,819.957,684.779,809.251,684.409z"/>
	<path fill="#1B1515" stroke="#1B1515" d="M719.826,698.861c19.357-7.516,39.372-13.397,60.021-15.875
		c7.331,16.456,14.293,33.043,21.413,49.578c-19.989,5.011-40.084,9.889-59.467,17.01
		C733.46,733.117,727.315,715.686,719.826,698.861 M724.546,700.364c6.461,15.032,12.131,30.459,19.383,45.121
		c17.168-6.013,34.81-10.549,52.452-14.926c-6.171-14.662-12.605-29.193-18.645-43.908
		C759.435,688.497,741.767,694.035,724.546,700.364z"/>
	<path fill="#FAFAFA" stroke="#FAFAFA" d="M809.251,684.409c10.707,0.369,21.387,0.818,32.094,1.292
		c7.199,15.269,14.689,30.38,21.862,45.675c-11.181-1.108-22.31-2.716-33.518-3.639C822.41,713.523,815.923,698.914,809.251,684.409
		z"/>
	<path fill="#F8F8F6" stroke="#F8F8F6" d="M724.546,700.364c17.22-6.329,34.889-11.867,53.191-13.713
		c6.039,14.715,12.474,29.246,18.645,43.908c-17.642,4.378-35.285,8.914-52.452,14.926
		C736.677,730.823,731.007,715.396,724.546,700.364z"/>
	<path fill="#1B1515" stroke="#1B1515" d="M602.869,693.586c5.591,14.689,11.788,29.193,16.271,44.225
		c-1.16,7.832-7.489,13.871-10.786,20.965c-0.316-0.923-0.897-2.743-1.187-3.666c2.901-5.67,8.386-10.601,9.256-17.036
		c-3.771-13.344-9.573-26.029-13.845-39.24c-3.692,5.037-7.252,10.179-11.234,15.005c-0.738,0.87-2.215,2.584-2.954,3.428
		c0.132-0.949,0.396-2.874,0.527-3.85C593.507,706.772,598.333,700.258,602.869,693.586z"/>
	<path fill="#F2F2F2" stroke="#F2F2F2" d="M591.345,713.84c3.982-4.826,7.542-9.968,11.234-15.005
		c4.272,13.212,10.074,25.897,13.845,39.24c-0.87,6.435-6.355,11.366-9.256,17.036C603.133,740.897,595.88,727.896,591.345,713.84z"
		/>
	<path fill="#1B1515" stroke="#1B1515" d="M673.702,723.122c4.72-3.217,9.573-6.224,14.425-9.23
		c8.043,17.3,16.245,34.546,24.235,51.899c-6.435,4.509-12.869,8.993-19.225,13.608c-8.597,6.303-16.719,13.238-25.237,19.673
		c-7.727-17.009-15.533-33.966-23.418-50.897C653.291,738.813,663.022,730.322,673.702,723.122 M648.28,748.703
		c7.437,14.61,12.817,30.802,21.519,44.462c12.869-9.494,25.264-19.647,38.581-28.586c-7.147-15.243-14.478-30.406-21.334-45.754
		C672.568,726.498,659.673,736.941,648.28,748.703z"/>
	<path fill="#EEBEA6" stroke="#EEBEA6" d="M918.428,728.186c11.34-5.38,23.523-10.179,36.181-10.891
		c-10.496,6.171-21.361,11.709-31.857,17.88c-14.293,7.358-26.029,18.671-40.137,26.292
		C889.446,746.197,904.82,736.888,918.428,728.186z"/>
	<path fill="#F4F4F2" stroke="#F4F4F2" d="M648.28,748.703c11.392-11.762,24.288-22.205,38.766-29.879
		c6.857,15.348,14.188,30.512,21.334,45.754c-13.317,8.94-25.712,19.093-38.581,28.586
		C661.097,779.504,655.717,763.312,648.28,748.703z"/>
	<path fill="#EDBBA4" stroke="#EDBBA4" d="M379.662,753.054c13.423,11.181,24.367,25.079,38.159,35.839
		c23.154,22.046,48.444,41.746,74.42,60.338c9.652,6.936,20.28,12.526,29.404,20.227c-3.455-0.501-6.962-1.028-9.942-2.901
		c-24.921-12.896-48.049-28.956-70.543-45.622c-23.207-18.776-48.075-35.601-69.91-55.96c1.951-0.396,5.881-1.16,7.832-1.556
		C379.267,759.937,379.451,756.482,379.662,753.054z"/>
	<path fill="#1B1515" stroke="#1B1515" d="M839.103,758.855c12.553,0.527,25.132,1.424,37.711,1.451
		c8.623,19.304,16.113,39.109,23.101,59.045c-12.263-2.268-24.604-3.956-36.893-6.013
		C855.137,795.142,847.094,777.025,839.103,758.855 M843.982,762.099c6.988,16.06,14.583,31.857,21.229,48.075
		c10.786,2.057,21.704,3.138,32.569,4.694c-6.672-17.141-14.32-33.861-20.992-51.002
		C865.87,762.811,854.899,762.627,843.982,762.099z"/>
	<path fill="#1B1515" stroke="#1B1515" d="M755.321,781.35c19.225-8.096,39.583-13.766,60.338-16.113
		c6.883,16.561,14.214,32.911,21.097,49.499c-20.227,4.905-40.269,10.39-60.047,16.825
		C769.536,814.842,762.811,797.938,755.321,781.35 M760.306,782.326c5.775,15.295,12.368,30.248,18.803,45.279
		c17.405-5.723,35.1-10.549,52.874-14.952c-6.857-14.399-11.63-30.327-19.779-43.75
		C794.351,770.828,777.157,776.392,760.306,782.326z"/>
	<path fill="#FAFAFA" stroke="#FAFAFA" d="M843.982,762.099c10.918,0.527,21.888,0.712,32.806,1.767
		c6.672,17.141,14.32,33.861,20.992,51.002c-10.865-1.556-21.783-2.637-32.569-4.694
		C858.565,793.956,850.97,778.159,843.982,762.099z"/>
	<path fill="#1B1515" stroke="#1B1515" d="M631.007,765.58c7.173,16.64,14.504,33.281,20.833,50.264
		c-1.661,7.938-6.751,15.058-9.546,22.758c-0.343-0.765-1.055-2.321-1.424-3.085c0.343-0.897,0.976-2.664,1.319-3.56
		c2.347-5.195,4.826-10.311,7.305-15.454c-5.986-14.953-12.289-29.8-18.17-44.805c-3.877,5.749-7.199,11.841-10.258,18.038
		c-0.791-0.053-2.347-0.211-3.138-0.29c0.923-1.714,1.846-3.428,2.769-5.116C624.071,778.054,627.5,771.804,631.007,765.58z"/>
	<path fill="#F8F8F6" stroke="#F8F8F6" d="M760.306,782.326c16.851-5.934,34.045-11.498,51.899-13.423
		c8.149,13.423,12.922,29.351,19.779,43.75c-17.774,4.404-35.469,9.23-52.874,14.952
		C772.674,812.574,766.081,797.621,760.306,782.326z"/>
	<path fill="#F2F2F2" stroke="#F2F2F2" d="M621.065,789.736c3.059-6.197,6.382-12.289,10.258-18.038
		c5.881,15.005,12.184,29.852,18.17,44.805c-2.479,5.142-4.958,10.258-7.305,15.454
		C631.825,819.721,630.532,802.605,621.065,789.736z"/>
	<path fill="#EDBBA4" stroke="#EDBBA4" d="M905.796,781.799c7.806-7.885,19.831-6.224,29.931-6.461
		c17.642,0.633,35.258-0.87,52.875-0.923c13.845-1.266,24.921,13.713,23.734,26.635c-1.002,23.681-1.688,47.653-6.751,70.912
		c-1.424-23.602,3.481-47.231,1.239-70.86c-3.481-11.102-14.478-19.225-26.055-19.779c-15.796-1.477-31.698-1.029-47.521-1.688
		c-8.201,0.132-17.695-0.923-24.314,4.984c-4.747,5.116-4.799,12.447-6.118,18.908C897.885,796.777,900.97,787.653,905.796,781.799z
		"/>
	<path fill="#1B1515" stroke="#1B1515" d="M703.238,808.064c6.145-4.404,12.553-8.36,18.961-12.315
		c8.043,17.3,16.298,34.52,24.209,51.899c-7.569,5.301-15.164,10.522-22.574,16.06c-7.384,5.617-14.504,11.524-21.809,17.22
		c-7.753-17.036-15.612-34.019-23.47-51.002C686.149,821.962,694.298,814.499,703.238,808.064 M682.352,830.454
		c6.936,15.137,13.792,30.327,21.018,45.332c12.632-10.311,25.659-20.121,39.082-29.378c-7.305-15.348-14.32-30.828-21.809-46.071
		C706.745,808.829,693.639,818.666,682.352,830.454z"/>
	<path fill="#F4F4F2" stroke="#F4F4F2" d="M682.352,830.454c11.287-11.788,24.393-21.625,38.291-30.116
		c7.489,15.243,14.504,30.723,21.809,46.071c-13.423,9.256-26.45,19.066-39.082,29.378
		C696.144,860.781,689.288,845.591,682.352,830.454z"/>
	<path fill="#EDBBA4" stroke="#EDBBA4" d="M928.818,828.054c8.65,9.625,21.598,10.944,33.571,13.107
		c-6.435,4.694-14.557,8.201-18.038,15.875c-3.481,6.197-3.666,13.449-4.72,20.306c-2.69-6.725-3.033-13.95-2.057-21.044
		c-5.828-0.923-11.471,0.712-16.957,2.373C927.394,850.047,930.822,838.971,928.818,828.054z"/>
	<path fill="#1B1515" stroke="#1B1515" d="M653.686,862.732c3.929-6.303,7.806-12.658,11.656-19.014
		c7.068,18.038,14.161,36.05,21.255,54.061c-3.217,6.303-6.382,12.632-9.467,18.987c4.879,10.364,8.703,21.176,14.056,31.303
		c4.219,8.07,13.397,11.577,21.862,13.212c21.176,3.797,42.801-0.026,63.476-4.984c-8.861,35.549,5.643,71.493,24.209,101.345
		c7.094,9.256,4.483,21.493,7.542,32.12c3.613,17.537,13.898,32.569,19.066,49.552c13.898,41.113,26.266,82.753,36.05,125.053
		c-1.82-0.026-5.459-0.079-7.279-0.105c0.791-0.448,2.347-1.371,3.138-1.82c-28.507-49.578-52.426-102.927-92.062-144.99
		c11.392,38.318,23.602,76.424,35.048,114.742c3.165,15.084,19.33,21.282,27.532,33.149c3.112,4.615,5.406,9.942,9.837,13.555
		c-1.688,12.157-6.646,23.919-5.67,36.392c0.976,16.166,5.67,33.281,18.012,44.594c6.988,7.146,17.273,8.914,25.659,13.898
		c-1.002,0.053-3.006,0.132-3.982,0.185c0.527,3.639,1.055,7.305,1.582,10.971c-8.993,0.396-18.196,0.844-26.688,4.088
		c-10.417,3.586-18.249,11.814-27.98,16.693c-18.671,9.942-35.469,24.446-45.016,43.592c-4.562-9.995-4.826-23.655-15.717-29.246
		c-5.775-3.903-11.155-8.333-16.034-13.265c-17.985-18.645-28.059-43.618-31.883-68.961c-1.213-6.487-0.897-14.082-6.83-18.354
		c-53.745-51.239-95.992-115.48-116.904-187.025c-16.957-3.059-35.39-7.384-47.126-21.018
		c-10.759-11.946-11.287-28.929-18.565-42.669c-1.45-0.106-4.351-0.316-5.802-0.422c-9.494-12.948-11.683-29.905-12.737-45.57
		c-1.82-28.27,9.81-54.747,13.66-82.305c3.666-21.967,4.958-44.488,12.21-65.691c25.316,9.678,54.219,16.297,80.485,6.355
		c16.482-6.039,28.587-20.095,35.364-35.891C648.465,850.997,651.023,856.878,653.686,862.732 M655.269,866.82
		c7.199,15.111,12.579,31.144,20.912,45.728c2.584-5.301,5.116-10.628,7.463-16.007c-6.435-15.163-12.104-30.643-17.985-46.018
		C661.044,855.137,658.169,861.044,655.269,866.82z"/>
	<path fill="#DEDEDC" stroke="#DEDEDC" d="M831.244,852.395c19.515-4.193,40.269-7.173,59.81-1.661
		c10.127,2.189,17.669,13.898,13.159,23.787c-3.85,13.845-16.983,21.545-23.787,33.623c-12.131,10.891-27.057,17.827-41.297,25.501
		c-20.174,9.309-40.928,17.616-62.605,22.653c-20.675,4.958-42.3,8.782-63.476,4.984c0.897-0.712,2.716-2.083,3.613-2.769
		c-8.412-3.402-18.223-9.546-17.326-19.99c4.773-20.385,22.732-33.571,38.423-45.649
		C766.028,873.729,798.043,860.148,831.244,852.395z"/>
	<path fill="#F2F2F2" stroke="#F2F2F2" d="M655.269,866.82c2.901-5.775,5.775-11.682,10.39-16.297
		c5.881,15.374,11.551,30.854,17.985,46.018c-2.347,5.38-4.879,10.707-7.463,16.007C667.848,897.964,662.468,881.93,655.269,866.82z
		"/>
	<path fill="#EEC0A8" stroke="#EEC0A8" d="M900.891,889.974c3.112-3.877,6.065-7.859,8.993-11.841
		c-0.686,21.097-0.237,42.511,7.463,62.5c-3.586-0.791-7.147-1.582-10.68-2.373c-16.719,8.492-25.211,26.081-39.821,36.973
		c9.335-19.858,26.846-34.995,34.388-55.854C904.768,909.831,902.842,899.573,900.891,889.974z"/>
	<path fill="#B8DC7C" stroke="#B8DC7C" d="M998.597,974.757c6.382-17.511,9.889-36.656,21.677-51.635
		c1.661,17.3,0.633,34.678,0.87,52.004c0.132,82.173-0.264,164.32,0.211,246.493c-7.964,3.507-14.873,8.887-20.596,15.401
		c-4.404-0.501-8.782-1.081-13.159-1.45l-2.162,2.373c-2.558-20.86-5.38-41.693-9.124-62.368
		c-3.929-21.15-10.522-41.851-11.92-63.423c-0.87-14.082-2.584-28.798,2.954-42.194c6.514-16.139,7.542-33.755,13.238-50.079
		C987.152,1005.058,993.744,990.237,998.597,974.757z"/>
	<path fill="#321E13" stroke="#321E13" d="M213.707,1067.584c11.709-29.404,23.734-59.52,43.407-84.599
		c10.549,26.187,19.805,52.874,29.668,79.325c7.753,27.4,15.374,55.459,13.977,84.203c-0.712,11.419,1.556,23.892-4.404,34.256
		c-4.219-17.009-6.962-36.682-21.862-48.048c-3.56-2.664-10.047-7.278-12.816-1.266c-14.267,31.197-40.005,59.309-74.525,67.141
		C189.525,1153.977,198.755,1109.699,213.707,1067.584z"/>
	<path fill="#F8F8F6" stroke="#F8F8F6" d="M0.205,1007.379c37.21,14.109,71.123,36.102,100.105,63.291
		c-17.036,37.395-19.62,79.219-21.756,119.647c-2.189-6.54-3.718-13.291-4.378-20.148c-4.589-37.5-17.3-74.921-41.746-104.193
		c-8.623-10.259-18.724-19.409-30.485-25.923c0,2.268-0.053,6.83-0.079,9.098c7.938,10.417,19.541,17.484,27.083,28.323
		c27.453,36.524,39.109,82.173,45.754,126.661c1.266-2.664,2.558-5.327,3.745-7.991c-1.45,57.41,2.162,114.926,10.338,171.756
		c2.69,20.2,6.804,40.322,6.909,60.786c-0.633,50.396-11.261,100.527-7.463,150.976c-3.27-3.771-6.329-7.753-8.571-12.21
		c-12.21-24.156-26.16-47.389-40.849-70.121c-3.006-4.852-6.25-9.81-6.804-15.612c-5.09-49.657-15.665-98.787-31.461-146.123
		C-0.322,1226.208,0.733,1116.767,0.205,1007.379 M2.13,1085.675c-0.818,3.824,0,7.78,3.428,10.1
		c11.419,10.522,23.049,21.334,30.775,34.995c10.39,18.011,17.748,37.764,21.704,58.149c6.593,29.325,5.96,59.573,9.019,89.32
		c1.767-43.196,5.248-88.476-11.577-129.404C45.564,1122.542,25.865,1100.338,2.13,1085.675 M2.341,1104.425
		c-1.213,11.366,0.237,22.758-0.448,34.151c-1.292,9.678,5.011,17.774,8.412,26.319c10.654,25.105,16.429,52.162,18.513,79.325
		c0.316,3.402,1.081,6.725,2.321,9.942c3.138-6.461,2.004-13.792,2.057-20.701c-0.844-21.176-3.982-42.405-10.918-62.474
		c-2.874-8.465-6.962-16.482-9.335-25.105c2.347,2.373,4.773,4.747,6.171,7.885c15.823,32.885,19.699,69.963,19.752,106.039
		c0.211,9.678-1.503,19.647,1.45,29.087c9.388-37.183,10.206-76.951-0.158-114.003C32.405,1149.283,20.168,1124.52,2.341,1104.425z"
		/>
	<path fill="#DEDEDC" stroke="#DEDEDC" d="M1.946,1040.053c11.762,6.514,21.862,15.665,30.485,25.923
		c24.446,29.272,37.157,66.693,41.746,104.193c0.659,6.857,2.189,13.608,4.378,20.148c-0.026,1.477-0.079,4.378-0.105,5.828
		c-1.187,2.664-2.479,5.327-3.745,7.991c-6.646-44.489-18.302-90.137-45.754-126.661c-7.542-10.839-19.146-17.906-27.083-28.323
		C1.893,1046.883,1.946,1042.321,1.946,1040.053z"/>
	<path fill="#F8F8F6" stroke="#F8F8F6" d="M516.661,1068.349c1.45,0.106,4.351,0.316,5.802,0.422
		c7.279,13.739,7.806,30.723,18.565,42.669c11.735,13.634,30.169,17.959,47.126,21.018
		c20.912,71.545,63.159,135.786,116.904,187.025c5.934,4.272,5.617,11.867,6.83,18.354c-4.246-0.659-9.441-2.373-12.474,1.872
		c-7.885,9.098-12.658,20.359-19.277,30.327c3.481,1.002,7.015,2.083,10.522,3.112c1.081,10.443-2.98,19.963-6.593,29.457
		c-0.633,12.526,1.609,25,2.004,37.526c-0.527,1.371-1.582,4.088-2.11,5.432c-4.193-11.577-1.002-24.314-4.773-36.076
		c-4.905,17.906-10.68,35.601-14.821,53.718c6.092-5.643,11.946-11.63,18.961-16.139c-6.303,17.326-13.792,34.335-23.365,50.132
		c-5.169-7.779-10.76-15.269-16.957-22.284c8.386-17.774,16.192-35.97,21.176-55.037c-7.727,4.246-15.533,9.441-19.884,17.352
		c-2.242,10.839-2.875,21.967-5.854,32.674c-2.426-2.558-4.879-5.116-7.331-7.595c6.883-26.661,14.399-53.323,16.086-80.96
		c5.67-2.268,11.34-4.589,17.01-6.936c-12.869-6.593-27.479-12.685-42.194-9.283c-8.017,1.424-13.107,9.625-20.992,10.839
		c-6.725-2.031-11.867-7.278-17.352-11.419c-13.634-35.337-41.746-62.421-72.706-83.017c-10.338-8.201-24.288-12.658-30.854-24.842
		c-13.977-23.365-34.599-45.016-62.263-50.633c1.081-8.122,2.031-17.141-2.98-24.209c-5.643-7.753-14.636-12.052-21.097-19.014
		c23.26,1.081,47.89,7.199,69.99-3.217c15.032-7.12,21.704-23.26,29.536-36.814C504.003,1106.271,515.817,1088.629,516.661,1068.349
		 M665.527,1427.896c-4.483,14.768-10.707,28.903-16.746,43.091c3.244-1.108,6.487-2.189,9.757-3.244
		c5.907-18.064,11.392-36.313,15.796-54.799C668.481,1415.686,667.399,1422.358,665.527,1427.896z"/>
	<path fill="#DEDEDC" stroke="#DEDEDC" d="M2.13,1085.675c23.734,14.662,43.434,36.867,53.349,63.159
		c16.825,40.928,13.344,86.208,11.577,129.404c-3.059-29.747-2.426-59.995-9.019-89.32c-3.956-20.385-11.313-40.137-21.704-58.149
		c-7.727-13.66-19.357-24.473-30.775-34.995C2.13,1093.455,1.313,1089.499,2.13,1085.675z"/>
	<path fill="#DEDEDC" stroke="#DEDEDC" d="M2.341,1104.425c17.827,20.095,30.063,44.858,37.816,70.464
		c10.364,37.052,9.546,76.82,0.158,114.003c-2.954-9.441-1.239-19.409-1.45-29.087c-0.053-36.076-3.929-73.154-19.752-106.039
		c-1.398-3.138-3.824-5.512-6.171-7.885c2.373,8.623,6.461,16.64,9.335,25.105c6.936,20.069,10.074,41.297,10.918,62.474
		c-0.053,6.909,1.081,14.24-2.057,20.701c-1.239-3.217-2.004-6.54-2.321-9.942c-2.083-27.162-7.859-54.219-18.513-79.325
		c-3.402-8.545-9.705-16.64-8.412-26.319C2.579,1127.183,1.128,1115.791,2.341,1104.425z"/>
	<path fill="#F8F8F6" stroke="#F8F8F6" d="M767.188,1117.453c39.636,42.062,63.555,95.411,92.062,144.99
		c-0.791,0.448-2.347,1.371-3.138,1.82c-6.171,3.903-14.161,7.015-16.508,14.636c-4.43-3.613-6.725-8.94-9.837-13.555
		c-8.201-11.867-24.367-18.064-27.532-33.149C790.791,1193.877,778.581,1155.77,767.188,1117.453z"/>
	<path fill="#321E13" stroke="#321E13" d="M154.609,1211.73c1.899-1.793,3.903-3.402,6.039-4.879
		c-3.217,30.775-7.832,61.894-3.534,92.827c1.292,29.404,7.569,58.254,14.03,86.867c2.426,11.392,7.991,22.284,7.437,34.177
		c-24.631-32.305-46.835-68.381-53.745-109.019C118.85,1275.971,131.666,1239.103,154.609,1211.73z"/>
	<path stroke="#000000" d="M1021.355,1221.619c14.056-1.028,24.288,11.392,29.747,22.864c8.333,26.609,11.814,54.668,10.786,82.542
		c-0.053,4.51-0.026,9.072-0.132,13.634c-0.343,8.993-0.791,18.012-1.213,27.031c-0.818,5.037-2.505,9.942-4.8,14.504
		c-4.958,1.846-10.206,3.217-15.506,2.11c-8.439-2.268-17.009-4.061-25.712-4.694c-21.519-0.396-45.438-2.031-64.109,10.575
		c-10.68,3.375-21.994-0.185-32.068-4.035c-3.534,2.136-6.962,4.404-10.522,6.461c-4.035,0.264-8.281,1.477-12.104-0.29
		c-8.782-2.927-11.946-12.553-18.117-18.539c-8.386-4.984-18.671-6.751-25.659-13.898c-12.342-11.313-17.036-28.428-18.012-44.594
		c-0.976-12.474,3.982-24.235,5.67-36.392c2.347-7.621,10.338-10.733,16.508-14.636c1.82,0.026,5.459,0.079,7.279,0.105
		c2.901,11.129,4.088,22.838,8.439,33.518c12.078,11.023,30.195,10.364,45.57,11.471c25.633-0.264,54.773-3.085,73.55-22.6
		c-1.846-16.271-3.165-32.621-5.512-48.813l2.162-2.373c4.378,0.369,8.755,0.949,13.159,1.45
		C1006.482,1230.506,1013.391,1225.127,1021.355,1221.619 M944.852,1327.579c10.496,11.999,20.359,26.424,18.038,43.275
		c22.811-3.455,45.57-7.516,68.46-10.549c-8.492-18.75-11.102-39.372-11.445-59.757
		C997.99,1316.503,971.645,1324.942,944.852,1327.579 M850.021,1304.742c-0.475,15.269-3.613,31.514,2.822,46.018
		c4.061,9.177,14.689,13.159,24.183,11.92c-0.949-13.74-0.053-27.505,0.316-41.218
		C866.819,1318.375,858.671,1311.018,850.021,1304.742z"/>
	<path fill="#321E13" stroke="#321E13" d="M272.146,1233.724c6.988,20.016,10.786,41.139,19.699,60.549
		c8.492,23.734,24.393,43.671,40.849,62.368c5.934,5.564,12.526,10.39,18.565,15.823c11.999,10.285,26.477,17.01,39.082,26.398
		c-22.811,6.619-48.55,4.51-69.858-6.118c-16.983-11.34-30.617-28.112-36.841-47.732
		C271.012,1309.515,270.379,1270.96,272.146,1233.724z"/>
	<path fill="#F8F8F6" stroke="#F8F8F6" d="M430.691,1253.977c47.495,20.332,96.651,46.493,123.787,92.511
		c-6.276,4.483-12.025,9.678-17.115,15.48c-21.862-20.253-46.071-37.684-69.304-56.276
		C451.788,1291.978,434.224,1276.076,430.691,1253.977z"/>
	<path fill="#96251F" stroke="#96251F" d="M944.852,1327.579c26.793-2.637,53.138-11.076,75.053-27.031
		c0.343,20.385,2.954,41.007,11.445,59.757c-22.89,3.033-45.649,7.094-68.46,10.549
		C965.211,1354.003,955.348,1339.578,944.852,1327.579z"/>
	<path fill="#96251F" stroke="#96251F" d="M850.021,1304.742c8.65,6.276,16.798,13.634,27.321,16.719
		c-0.369,13.713-1.266,27.479-0.316,41.218c-9.494,1.239-20.121-2.743-24.183-11.92
		C846.408,1336.255,849.546,1320.011,850.021,1304.742z"/>
	<path fill="#DA251C" stroke="#DA251C" d="M1061.888,1327.025c8.043-0.659,16.403,0.396,23.101,5.274
		c20.385,13.845,34.678,34.441,49.103,53.982c5.037,7.938,15.454,7.595,23.339,10.812c17.721,6.408,35.522,13.792,50.712,25.132
		c-15.454,1.081-31.435,0.343-45.886-5.696c-10.997-4.14-20.279-11.445-29.404-18.618c-26.503,4.272-54.246-1.82-77.11-15.717
		c2.294-4.562,3.982-9.467,4.8-14.504c8.492,2.004,17.563,3.481,24.736,8.861c5.142,3.587,9.441,8.333,14.979,11.366
		c5.881,2.663,12.289,0.422,18.249-0.844c-8.228-15.137-17.089-31.276-32.384-40.295c-7.305-4.562-16.06-5.142-24.367-6.118
		C1061.861,1336.097,1061.835,1331.535,1061.888,1327.025z"/>
	<path fill="#F7D1BA" stroke="#F7D1BA" d="M0.548,1335.596c15.796,47.336,26.371,96.466,31.461,146.123
		c0.554,5.802,3.797,10.76,6.804,15.612c14.689,22.732,28.639,45.965,40.849,70.121c2.242,4.457,5.301,8.439,8.571,12.21
		c1.767,5.512,4.167,10.812,6.461,16.166c7.621,18.882,16.086,37.447,23.47,56.461c-39.32-0.079-78.639-0.026-117.932-0.026
		C0.443,1546.698-0.217,1441.134,0.548,1335.596z"/>
	<path fill="#F19ABD" stroke="#F19ABD" d="M699.414,1339.71c3.033-4.246,8.228-2.532,12.474-1.872
		c3.824,25.343,13.898,50.317,31.883,68.961c-4.088,26.292,7.252,51.582,21.018,73.233c-2.532,8.913-5.063,17.853-6.909,26.951
		c5.063-4.272,9.942-8.808,14.109-14.003c14.662,23.022,28.692,46.44,43.486,69.356c1.688,13.027,3.244,26.081,5.802,39.003
		c-15.744,22.574-38.792,38.687-63.08,50.87c-1.292-0.158-3.903-0.475-5.195-0.633c-2.637-3.323-5.063-6.725-7.727-9.968
		c11.683-6.988,23.523-13.713,35.549-20.095c4.826-2.189,6.197-10.074,1.213-12.816c-8.175-4.114-18.434-2.795-25.923-8.412
		c-7.991-9.916-4.351-23.919-0.211-34.731c4.984-12.078,7.727-25.554,4.668-38.476c-2.795-5.01-10.074-2.901-14.742-2.611
		c-8.597,2.716-17.458,4.035-26.45,4.43c-5.09-0.633-7.331,4.246-10.232,7.41c0.765-9.573,0.976-19.198,1.582-28.771
		c4.351-29.219,4.641-58.914,2.716-88.318c-1.451-9.441,3.217-20.069-2.769-28.402c-0.237-0.422-0.686-1.292-0.923-1.741
		c-1.055,5.485-1.82,10.997-2.453,16.561c-3.296,6.303-4.879,13.239-6.672,20.069l-4.984,0.818
		c3.059-9.837,5.907-19.752,7.674-29.905c-4.984,1.661-5.459,7.199-6.857,11.524c-2.769,10.865-6.566,21.44-10.39,31.988
		c-0.396-12.526-2.637-25-2.004-37.526c3.613-9.494,7.674-19.014,6.593-29.457c-3.507-1.028-7.041-2.11-10.522-3.112
		C686.756,1360.068,691.529,1348.808,699.414,1339.71z"/>
	<path fill="#BC829A" stroke="#BC829A" d="M1061.756,1340.659c8.307,0.976,17.062,1.556,24.367,6.118
		c15.295,9.019,24.156,25.158,32.384,40.295c-5.96,1.266-12.368,3.507-18.249,0.844c-5.538-3.033-9.836-7.78-14.979-11.366
		c-7.173-5.38-16.245-6.856-24.736-8.861C1060.965,1358.671,1061.413,1349.652,1061.756,1340.659z"/>
	<path fill="#F19ABD" stroke="#F19ABD" d="M554.477,1346.487c9.678,18.064,17.247,38.08,17.247,58.834
		c-9.204-16.113-21.071-30.485-34.362-43.354C542.452,1356.166,548.201,1350.971,554.477,1346.487z"/>
	<path fill="#F19ABD" stroke="#F19ABD" d="M583.671,1364.552c5.485,4.14,10.628,9.388,17.352,11.419
		c7.885-1.213,12.975-9.415,20.992-10.839c14.715-3.402,29.325,2.69,42.194,9.283c-5.67,2.347-11.34,4.668-17.01,6.936
		c-0.026-2.136-0.053-6.435-0.053-8.597c-1.108,3.876-2.162,7.753-3.191,11.682c-4.483,6.883-8.228,14.188-12.078,21.44
		c-5.09,0.87-10.179,1.74-15.295,2.584c1.266-11.735,3.296-23.497,2.11-35.311c-7.832,12.474-10.812,28.85-23.629,37.5
		c-0.659,3.56-1.345,7.173-1.82,10.812C592.927,1402.131,589.815,1382.88,583.671,1364.552z"/>
	<path fill="#F8F8F6" stroke="#F8F8F6" d="M618.692,1373.149c1.187,11.814-0.844,23.576-2.11,35.311
		c5.116-0.844,10.206-1.714,15.295-2.584c-8.175,13.106-13.977,27.795-23.866,39.768c-4.641-2.98-9.362-5.802-14.188-8.465
		c-0.237-5.274-0.501-10.496-0.58-15.717c0.475-3.639,1.16-7.252,1.82-10.812C607.879,1401.999,610.859,1385.622,618.692,1373.149
		 M613.101,1391.319c-3.112,5.327-5.591,10.997-7.859,16.746c2.083-0.185,6.224-0.58,8.307-0.791
		C613.892,1401.946,615.026,1396.435,613.101,1391.319z"/>
	<path stroke="#000000" d="M643.955,1384.436c1.028-3.93,2.083-7.806,3.191-11.682c0,2.162,0.026,6.461,0.053,8.597
		c-1.688,27.637-9.204,54.299-16.086,80.96c-1.055-1.029-2.136-2.004-3.217-2.927l2.268-0.712
		c5.538-23.418,12.975-46.545,14.346-70.754c-12.896,18.776-21.493,40.243-34.335,59.124c-0.554-0.343-1.635-1.055-2.162-1.398
		c9.889-11.973,15.691-26.661,23.866-39.768C635.728,1398.624,639.472,1391.319,643.955,1384.436z"/>
	<path fill="#FFF500" stroke="#FFF500" d="M873.623,1373.966c0.976-0.053,2.98-0.132,3.982-0.185
		c6.171,5.986,9.335,15.612,18.117,18.539c3.824,1.767,8.07,0.554,12.104,0.29c32.226,2.927,64.794,7.41,97.178,2.769
		c11.261-1.398,22.547-3.112,33.465-6.25c-0.923,2.558-1.767,5.195-2.743,7.78c-5.749,10.285-13.318,20.411-24.314,25.422
		c-6.936,3.349-14.768,3.534-22.257,4.246c-9.784-1.872-19.304-4.852-28.481-8.597c-19.515-10.496-41.508-14.926-63.397-16.825
		l1.213,3.165c-2.426-2.453-5.406-3.956-8.887-4.483c-1.266,36.129,7.384,71.73,18.803,105.775
		c7.648,24.288,38.634,37.817,35.074,66.166c-23.049-23.26-39.873-52.162-51.45-82.674c-11.498-31.039-14.241-64.32-17.774-96.967
		c-20.701,6.276-41.06,14.662-58.439,27.743c-6.065,4.826-13.924,8.94-16.034,17.009c-3.929,11.683-8.254,23.286-13.924,34.256
		c-4.061,7.595-8.65,14.952-13.871,21.835c-4.167,5.195-9.045,9.731-14.109,14.003c1.846-9.098,4.378-18.038,6.909-26.951
		c2.927-10.443,6.092-20.886,10.733-30.723c9.546-19.146,26.345-33.65,45.016-43.592c9.731-4.879,17.563-13.107,27.98-16.693
		c8.491-3.244,17.695-3.692,26.688-4.088C874.678,1381.271,874.15,1377.605,873.623,1373.966z"/>
	<path fill="#321E13" stroke="#321E13" d="M186.202,1470.222c17.405-32.384,36.05-64.636,61.234-91.693
		c-3.323,13.555-9.81,26.081-13.054,39.663c-11.841,43.671-19.594,89.768-11.287,134.784c3.586,15.375,10.047,30.854,22.257,41.377
		c12.605,11.999,34.124,15.638,48.602,4.905c13.608-10.285,20.807-26.503,26.028-42.247c9.652-30.828,13.318-63.291,13.133-95.517
		c-0.607-9.151-1.345-18.328-0.949-27.479c20.622,25,35.417,54.061,53.085,81.092c8.703,12.948,16.429,27.479,29.51,36.603
		c4.773,2.136,13.739,2.136,14.636-4.483c4.879-19.172,7.859-38.819,11.709-58.228c22.073,9.546,40.823,25.132,58.887,40.717
		c31.461,31.54,52.795,72.284,63.739,115.269c-17.722-10.364-30.459-27.189-43.671-42.51c-11.445,13.95-15.084,32.173-14.188,49.842
		c-4.299,0-8.571,0.132-12.843-0.185c-14.953-6.777-15.981-24.71-16.561-38.924c-9.415,13.159-14.636,29.879-28.586,39.267
		c-22.89-0.527-45.781-0.053-68.671-0.184c-7.463-14.742-11.603-30.828-14.504-47.02c-10.786,13.713-11.946,31.698-18.961,47.178
		c-36.34-0.607-72.627-0.264-108.94-0.211c-3.112-7.568-5.116-16.324-11.92-21.572c-12.605-9.784-30.274-11.445-44.963-5.538
		c-15.454,4.8-25.132,18.882-39.531,25.527c0.527-6.777,0.686-13.581-0.448-20.28c5.037-20.227,5.617-41.324,10.97-61.498
		C158.249,1534.568,171.039,1501.762,186.202,1470.222z"/>
	<path fill="#F7D1BA" stroke="#F7D1BA" d="M950.416,1390.185c18.671-12.606,42.59-10.971,64.109-10.575
		c-3.112,5.301-6.303,10.522-9.52,15.77c-32.384,4.641-64.953,0.158-97.178-2.769c3.56-2.057,6.988-4.325,10.522-6.461
		C928.423,1390,939.736,1393.56,950.416,1390.185z"/>
	<path fill="#DA251C" stroke="#DA251C" d="M1014.525,1379.61c8.703,0.633,17.273,2.426,25.712,4.694
		c-0.448,1.187-1.318,3.613-1.767,4.826c-10.918,3.138-22.205,4.852-33.465,6.25
		C1008.222,1390.132,1011.413,1384.91,1014.525,1379.61z"/>
	<path stroke="#000000" d="M709.752,1389.077c0.237,0.448,0.686,1.319,0.923,1.741c0,8.518-0.053,17.062,0.237,25.607
		c-1.055-3.244-2.11-6.461-3.138-9.678c-8.492,30.169-16.719,60.496-27.215,90.058c-2.611,7.964-6.698,15.612-7.147,24.13
		c-0.897-1.74-1.74-3.428-2.584-5.09c3.982-6.171,6.224-13.186,8.333-20.148c7.806-23.101,14.715-46.519,21.466-69.99
		c1.793-6.83,3.376-13.766,6.672-20.069C707.932,1400.074,708.697,1394.562,709.752,1389.077z"/>
	<path fill="#F3A8C7" stroke="#F3A8C7" d="M613.101,1391.319c1.925,5.116,0.791,10.628,0.448,15.955
		c-2.083,0.211-6.224,0.607-8.307,0.791C607.51,1402.315,609.989,1396.646,613.101,1391.319z"/>
	<path fill="#F8F8F6" stroke="#F8F8F6" d="M610.174,1447.041c12.843-18.882,21.44-40.348,34.335-59.124
		c-1.371,24.209-8.808,47.336-14.346,70.754l-2.268,0.712C622.173,1454.979,616.213,1450.918,610.174,1447.041z"/>
	<path fill="#F8F8F6" stroke="#F8F8F6" d="M710.675,1390.818c5.986,8.333,1.319,18.961,2.769,28.402l-3.244-1.793
		c0.106,8.149-1.846,16.166-1.767,24.341c2.532,18.275,1.081,36.841-0.422,55.195c-2.004-12.183-1.899-24.525-3.006-36.788
		c-9.256,24.868-13.476,51.45-24.235,75.791c-0.448-1.108-1.345-3.323-1.793-4.43c5.696-13.449,10.074-27.426,12.975-41.719
		c-3.877,2.189-7.7,4.483-11.392,6.988c10.496-29.562,18.724-59.889,27.215-90.058c1.029,3.217,2.083,6.435,3.138,9.678
		C710.622,1407.88,710.675,1399.335,710.675,1390.818z"/>
	<path fill="#1B1515" stroke="#1B1515" d="M815.817,1419.879c17.379-13.08,37.737-21.466,58.439-27.743
		c3.534,32.648,6.276,65.928,17.774,96.967c11.577,30.511,28.402,59.414,51.45,82.674c3.56-28.349-27.426-41.878-35.074-66.166
		c-11.419-34.045-20.069-69.647-18.803-105.775c3.481,0.527,6.461,2.031,8.887,4.483c1.609,4.193,3.217,8.412,4.905,12.605
		c2.294,5.723,4.509,11.471,6.725,17.273c27.927,71.15,50.448,144.304,70.912,217.906c-49.525,0.317-99.024,0.211-148.55,0.132
		c-4.008-16.904-7.99-33.834-11.208-50.897c-2.558-12.922-4.114-25.976-5.802-39.003c-1.635-16.403-2.162-32.885-2.242-49.367
		c0.765-5.432-4.088-8.861-7.015-12.685c-7.99-8.808-14.32-18.935-20.359-29.14c5.67-10.971,9.995-22.574,13.924-34.256
		C801.893,1428.818,809.752,1424.705,815.817,1419.879z"/>
	<path fill="#7B7A95" stroke="#7B7A95" d="M696.461,1408.144c1.398-4.325,1.872-9.863,6.857-11.524
		c-1.767,10.153-4.615,20.068-7.674,29.905c-8.465,23.47-18.012,46.598-29.43,68.829c-1.055,2.268-2.083,4.589-3.059,6.936
		c-1.055-1.74-2.11-3.428-3.191-5.09c9.573-15.796,17.062-32.806,23.365-50.132c0.158-0.369,0.475-1.108,0.633-1.503
		c0.527-1.345,1.582-4.061,2.11-5.432C689.894,1429.583,693.692,1419.008,696.461,1408.144z"/>
	<path fill="#F7D1BA" stroke="#F7D1BA" d="M1011.413,1422.331c10.997-5.011,18.565-15.137,24.314-25.422
		c3.745,7.147,6.909,14.61,9.705,22.178c29.641,76.661,59.045,153.639,80.274,233.122c-48.207-0.026-96.44,0.211-144.673-0.105
		c-20.464-73.602-42.985-146.756-70.912-217.906c26.503,2.453,53.797,1.793,79.035-7.621
		C996.645,1425.865,1004.477,1425.68,1011.413,1422.331z"/>
	<path fill="#F7D1BA" stroke="#F7D1BA" d="M897.278,1401.155c21.888,1.899,43.882,6.329,63.397,16.825
		c-19.093,2.215-38.265,0.712-57.279-1.055c-1.688-4.193-3.296-8.412-4.905-12.605L897.278,1401.155z"/>
	<path fill="#F8F8F6" stroke="#F8F8F6" d="M743.771,1406.799c4.879,4.931,10.258,9.362,16.034,13.265
		c10.891,5.591,11.155,19.251,15.717,29.246c-4.641,9.836-7.806,20.28-10.733,30.723
		C751.023,1458.381,739.683,1433.091,743.771,1406.799z"/>
	<path fill="#F19ABD" stroke="#F19ABD" d="M679.187,1409.489c3.771,11.761,0.58,24.499,4.773,36.076
		c-0.158,0.395-0.475,1.134-0.633,1.503c-7.015,4.509-12.869,10.496-18.961,16.139
		C668.507,1445.09,674.282,1427.395,679.187,1409.489z"/>
	<path fill="#F2A6C5" stroke="#F2A6C5" d="M665.527,1427.896c1.872-5.538,2.954-12.21,8.808-14.953
		c-4.404,18.486-9.889,36.735-15.796,54.799c-3.27,1.055-6.514,2.136-9.757,3.244
		C654.82,1456.799,661.044,1442.663,665.527,1427.896z"/>
	<path fill="#DA251C" stroke="#DA251C" d="M903.396,1416.925c19.014,1.767,38.186,3.27,57.279,1.055
		c9.177,3.745,18.697,6.725,28.481,8.597c-25.237,9.415-52.532,10.074-79.035,7.621
		C907.906,1428.397,905.691,1422.648,903.396,1416.925z"/>
	<path fill="#F19ABD" stroke="#F19ABD" d="M644.298,1437.231c4.351-7.911,12.157-13.106,19.884-17.352
		c-4.984,19.066-12.79,37.263-21.176,55.037c-1.503-1.714-3.033-3.376-4.562-5.011
		C641.424,1459.198,642.057,1448.07,644.298,1437.231z"/>
	<path fill="#837091" stroke="#837091" d="M710.2,1417.426l3.244,1.793c1.925,29.404,1.635,59.098-2.716,88.318
		c-1.582,9.573-3.877,19.014-5.274,28.639c-0.659,3.692-1.345,7.384-2.057,11.129c-3.428,8.676-6.672,17.511-8.439,26.714
		c-1.055-3.191-2.162-6.329-3.244-9.467c9.52-21.282,12.711-44.752,16.297-67.59c1.503-18.354,2.954-36.92,0.422-55.195
		C708.354,1433.592,710.306,1425.575,710.2,1417.426z"/>
	<path fill="#F8F8F6" stroke="#F8F8F6" d="M695.643,1426.524l4.984-0.818c-6.751,23.47-13.66,46.888-21.466,69.99
		c-4.351-0.158-8.623-0.237-12.948-0.343C677.631,1473.122,687.178,1449.995,695.643,1426.524z"/>
	<path fill="#F19ABD" stroke="#F19ABD" d="M589.235,1473.597c1.213-7.621,3.112-15.084,5.723-22.337
		c2.822,2.242,6.751,3.903,7.12,8.043c8.017-0.053,12.948,8.254,19.304,12.263c-11.973,13.212-18.671,30.301-28.692,44.989
		c-2.294-6.593-3.481-13.476-4.536-20.306c4.035-8.043,9.599-16.113,9.283-25.501c0.053-1.503,0.158-4.51,0.211-6.039
		C595.037,1467.822,593.402,1472.199,589.235,1473.597z"/>
	<path fill="#F19ABD" stroke="#F19ABD" d="M705.005,1460.174c1.108,12.263,1.002,24.604,3.006,36.788
		c-3.586,22.838-6.777,46.308-16.297,67.59c-3.244-9.678-7.015-19.172-10.944-28.587
		C691.529,1511.625,695.749,1485.042,705.005,1460.174z"/>
	<path fill="#FAFAFA" stroke="#FAFAFA" d="M596.724,1468.745l0.712,2.004c0.316,9.388-5.248,17.458-9.283,25.501
		c0.079-5.063,0.501-10.074,1.187-15.032c0.818-1.345,2.453-4.035,3.27-5.353C593.639,1474.072,595.696,1470.538,596.724,1468.745z"
		/>
	<path fill="#FAFAFA" stroke="#FAFAFA" d="M592.69,1516.556c10.021-14.689,16.719-31.777,28.692-44.989l0.607,4.404
		c-0.765,1.345-2.347,3.982-3.112,5.301c-9.467,12.447-15.506,27.162-25.633,39.135L592.69,1516.556z"/>
	<path fill="#736688" stroke="#736688" d="M621.382,1471.567c1.292,1.187,3.903,3.534,5.195,4.72l-0.185,0.422
		c-8.412,19.198-15.401,39.135-26.187,57.199c-0.369-0.976-1.134-2.927-1.53-3.903c6.857-16.192,16.218-31.461,20.2-48.734
		c0.765-1.319,2.347-3.956,3.112-5.301L621.382,1471.567z"/>
	<path fill="#F8F8F6" stroke="#F8F8F6" d="M771.988,1492.98c5.222-6.883,9.81-14.241,13.871-21.835
		c6.039,10.206,12.368,20.332,20.359,29.14c2.927,3.824,7.779,7.252,7.015,12.685c0.079,16.482,0.607,32.964,2.242,49.367
		C800.68,1539.42,786.65,1516.002,771.988,1492.98z"/>
	<path fill="#C88FB1" stroke="#C88FB1" d="M618.876,1481.271c0.765-1.319,2.347-3.956,3.112-5.301
		C621.223,1477.315,619.641,1479.953,618.876,1481.271z"/>
	<path fill="#F19ABD" stroke="#F19ABD" d="M600.205,1533.908c10.786-18.064,17.774-38.001,26.187-57.199
		c2.136,2.031,4.272,4.114,6.382,6.197c-2.215,7.226-4.404,14.452-6.54,21.704c-2.584,1.055-5.142,2.136-7.727,3.244
		c0.818,3.165,1.635,6.408,2.453,9.652c-4.694,8.544-9.837,16.851-15.269,24.974C603.871,1539.578,602.051,1536.73,600.205,1533.908
		z"/>
	<path fill="#E79ABB" stroke="#E79ABB" d="M593.243,1520.406c10.127-11.973,16.166-26.688,25.633-39.135
		c-3.982,17.273-13.344,32.542-20.2,48.734C596.777,1526.814,595.037,1523.597,593.243,1520.406z"/>
	<path fill="#F8F8F6" stroke="#F8F8F6" d="M632.774,1482.906c2.031,2.294,4.088,4.589,6.171,6.909
		c-2.268,5.564-4.536,11.155-6.672,16.825c5.802-0.686,11.366-2.479,16.64-4.958c1.714,2.795,3.481,5.591,5.195,8.439
		c-6.725,11.287-13.74,22.416-20.491,33.729c0.343-5.037,1.767-9.889,3.428-14.61c-4.536-1.82-9.045-3.666-13.581-5.459
		c-3.56,9.256-7.173,18.539-10.337,27.98c-2.4-3.164-4.905-6.276-7.437-9.283c5.432-8.122,10.575-16.429,15.269-24.974
		c-0.818-3.244-1.635-6.487-2.453-9.652c2.584-1.108,5.142-2.189,7.727-3.244C628.37,1497.358,630.559,1490.132,632.774,1482.906z"
		/>
	<path fill="#F19ABD" stroke="#F19ABD" d="M638.945,1489.815c3.428,3.85,6.777,7.78,9.968,11.867
		c-5.274,2.479-10.839,4.272-16.64,4.958C634.409,1500.971,636.677,1495.38,638.945,1489.815z"/>
	<path fill="#F5C4D9" stroke="#F5C4D9" d="M680.559,1496.804c3.692-2.505,7.516-4.8,11.392-6.988
		c-2.901,14.293-7.278,28.27-12.975,41.719c-1.82-3.586-3.771-7.068-5.564-10.601
		C673.86,1512.416,677.948,1504.768,680.559,1496.804z"/>
	<path fill="#F19ABD" stroke="#F19ABD" d="M663.154,1502.289c0.976-2.347,2.004-4.668,3.059-6.936
		c4.325,0.105,8.597,0.185,12.948,0.343c-2.11,6.962-4.351,13.977-8.333,20.148C668.349,1511.229,665.844,1506.719,663.154,1502.289
		z"/>
	<path fill="#F8F8F6" stroke="#F8F8F6" d="M705.453,1536.176c1.398-9.626,3.692-19.066,5.274-28.639
		c-0.607,9.573-0.818,19.198-1.582,28.771c2.901-3.165,5.142-8.043,10.232-7.41c8.993-0.396,17.853-1.714,26.45-4.43
		c4.668-0.29,11.946-2.4,14.742,2.611c3.059,12.922,0.316,26.398-4.668,38.476c-4.14,10.812-7.78,24.815,0.211,34.731
		c7.489,5.617,17.748,4.299,25.923,8.412c4.984,2.743,3.613,10.628-1.213,12.816c-12.025,6.382-23.866,13.107-35.549,20.095
		c-9.705-11.656-22.442-20.253-35.97-26.872c-5.222-1.556-4.931-7.648-6.303-11.867
		C706.825,1581.007,712.31,1557.985,705.453,1536.176z"/>
	<path fill="#74728F" stroke="#74728F" d="M654.108,1510.121c1.45,1.53,2.901,3.112,4.351,4.72c-3.191-0.026-5.169,1.661-5.96,5.063
		c-7.859,13.608-15.164,28.006-25.712,39.742l-3.639,0.949c3.402-5.644,7.12-11.102,10.469-16.746
		C640.369,1532.537,647.384,1521.408,654.108,1510.121z"/>
	<path fill="#ECD4DF" stroke="#ECD4DF" d="M652.5,1519.905c0.791-3.402,2.769-5.09,5.96-5.063l0.58,1.952
		C657.405,1517.584,654.135,1519.114,652.5,1519.905z"/>
	<path fill="#F19ABD" stroke="#F19ABD" d="M652.5,1519.905c1.635-0.791,4.905-2.321,6.54-3.112
		c2.136,3.639,4.246,7.278,6.092,11.129c-1.266,10.258-6.092,19.541-10.39,28.771c-6.118,5.591-10.997,12.737-11.34,21.281
		c-10.285-8.518-21.202-16.324-30.274-26.213c3.164-9.441,6.777-18.724,10.337-27.98c4.536,1.793,9.045,3.639,13.581,5.459
		c-1.661,4.72-3.085,9.573-3.428,14.61c-3.349,5.643-7.068,11.102-10.469,16.746l3.639-0.949
		C637.336,1547.911,644.641,1533.513,652.5,1519.905z"/>
	<path fill="#6F6B87" stroke="#6F6B87" d="M665.132,1527.922l0.185-1.266c1.081,2.268,2.189,4.536,3.323,6.857
		c-6.804,15.48-12.368,31.54-20.57,46.414c-1.16-0.501-3.507-1.451-4.668-1.952c5.591-6.013,8.439-13.766,11.34-21.281
		C659.04,1547.463,663.866,1538.18,665.132,1527.922z"/>
	<path fill="#F19ABD" stroke="#F19ABD" d="M648.069,1579.926c8.201-14.873,13.766-30.934,20.57-46.414
		c0.976,2.426,1.952,4.879,2.954,7.358c-4.562,14.953-9.546,29.773-14.662,44.541
		C653.924,1583.618,650.97,1581.772,648.069,1579.926z"/>
	<path fill="#F4B4CF" stroke="#F4B4CF" d="M703.396,1547.305c0.712-3.745,1.398-7.437,2.057-11.129
		c6.856,21.809,1.371,44.831-2.453,66.693c-1.872-7.595-3.982-15.111-6.118-22.6c2.373-6.487,4.325-13.106,5.881-19.805
		c0.633,0.396,1.925,1.134,2.584,1.503C707.563,1557.168,707.457,1551.076,703.396,1547.305z"/>
	<path fill="#FBDDE9" stroke="#FBDDE9" d="M656.93,1585.411c5.116-14.768,10.1-29.589,14.662-44.541
		c1.582,3.771,3.217,7.569,4.905,11.366c-3.877,12.447-8.202,24.763-13.898,36.524
		C661.176,1587.917,658.354,1586.229,656.93,1585.411z"/>
	<path fill="#EEA0C0" stroke="#EEA0C0" d="M694.957,1574.019c1.767-9.203,5.011-18.038,8.439-26.714
		c-0.369,4.351-0.554,8.755-0.633,13.159c-1.556,6.698-3.507,13.318-5.881,19.805
		C696.408,1578.713,695.459,1575.575,694.957,1574.019z"/>
	<path fill="#FDF4F8" stroke="#FDF4F8" d="M703.396,1547.305c4.061,3.771,4.167,9.863,1.952,14.663
		c-0.659-0.369-1.952-1.108-2.584-1.503C702.842,1556.06,703.027,1551.656,703.396,1547.305z"/>
	<path fill="#F19ABD" stroke="#F19ABD" d="M676.498,1552.236c6.435,16.007,8.755,33.043,12.79,49.71
		c-8.254-5.644-18.17-7.991-26.793-12.975l0.106-0.211C668.296,1576.999,672.621,1564.684,676.498,1552.236z"/>
	<path fill="#F0DBE6" stroke="#F0DBE6" d="M643.401,1577.975c0.343-8.544,5.222-15.691,11.34-21.281
		C651.84,1564.209,648.992,1571.962,643.401,1577.975z"/>
	<path fill="#F8F8F6" stroke="#F8F8F6" d="M125.126,1572.463c8.017-3.929,17.089-4.114,25.791-3.586
		c-5.353,20.174-5.934,41.271-10.97,61.498c-3.138,7.173-6.224,14.399-9.072,21.704c-4.246,0.079-8.492,0.132-12.711,0.211
		c-7.384-19.014-15.849-37.579-23.47-56.461C104.398,1587.521,112.995,1577.368,125.126,1572.463z"/>
	<path fill="#E69EBC" stroke="#E69EBC" d="M595.538,1569.615l2.795,2.162c0,1.767,0,5.301,0,7.068
		c0.87-1.213,2.584-3.586,3.455-4.773c2.505,1.741,4.984,3.507,7.49,5.327c-4.747,6.355-9.573,12.685-14.451,18.935l-1.951-1.661
		C595.406,1587.864,596.223,1578.713,595.538,1569.615z"/>
	<path fill="#FFFFFF" stroke="#FFFFFF" d="M598.333,1571.777c0.87,0.554,2.584,1.714,3.455,2.294
		c-0.87,1.187-2.584,3.56-3.455,4.773C598.333,1577.078,598.333,1573.544,598.333,1571.777z"/>
	<path fill="#6B6182" stroke="#6B6182" d="M609.277,1579.399c0.712,0.527,2.136,1.556,2.848,2.083
		c-4.747,6.382-9.573,12.737-14.478,19.04c-0.712-0.554-2.11-1.635-2.822-2.189C599.704,1592.083,604.53,1585.754,609.277,1579.399z
		"/>
	<path fill="#DB92B2" stroke="#DB92B2" d="M612.125,1581.482c0.58,0.396,1.714,1.213,2.294,1.609
		c-4.114,6.988-8.149,14.082-11.208,21.625c-1.846-1.424-3.718-2.822-5.564-4.193
		C602.552,1594.219,607.378,1587.864,612.125,1581.482z"/>
	<path fill="#FFFFFF" stroke="#FFFFFF" d="M614.419,1583.091c0.923,0.659,2.769,1.925,3.692,2.584
		c-4.852,6.566-8.834,13.687-12.605,20.912l-2.294-1.872C606.271,1597.173,610.306,1590.079,614.419,1583.091z"/>
	<path fill="#F19ABD" stroke="#F19ABD" d="M605.506,1606.588c3.771-7.226,7.753-14.346,12.605-20.912
		c4.246,2.769,8.597,5.511,12.816,8.386c-4.668,7.489-9.757,14.715-14.425,22.205
		C612.969,1612.864,609.277,1609.673,605.506,1606.588z"/>
	<path fill="#F8F8F6" stroke="#F8F8F6" d="M630.928,1594.061l1.793,1.213c0.158,1.24,0.475,3.745,0.633,4.984l-2.242,0.475
		c-0.369,1.213-1.108,3.639-1.503,4.852c-2.611,5.169-5.723,10.047-9.019,14.821c-1.028-1.028-3.059-3.085-4.088-4.14
		C621.171,1608.776,626.26,1601.551,630.928,1594.061z"/>
	<path fill="#C58BA5" stroke="#C58BA5" d="M632.721,1595.274c0.897,0.475,2.743,1.424,3.639,1.899
		c-0.738,0.791-2.242,2.321-3.006,3.085C633.196,1599.019,632.879,1596.514,632.721,1595.274z"/>
	<path fill="#6E6181" stroke="#6E6181" d="M636.36,1597.173c0.765,0.527,2.294,1.53,3.033,2.031
		c-5.353,8.175-10.179,16.667-15.058,25.132c-1.239-1.345-2.505-2.664-3.745-3.929c3.296-4.773,6.408-9.652,9.019-14.821
		c0.949-1.345,2.822-4.008,3.745-5.327C634.119,1599.494,635.622,1597.964,636.36,1597.173z"/>
	<path fill="#DE9BBB" stroke="#DE9BBB" d="M631.113,1600.733l2.242-0.475c-0.923,1.319-2.795,3.982-3.745,5.327
		C630.005,1604.372,630.743,1601.946,631.113,1600.733z"/>
	<path fill="#F19ABD" stroke="#F19ABD" d="M624.335,1624.335c4.879-8.465,9.705-16.957,15.058-25.132
		c2.848,1.661,5.723,3.323,8.65,4.905c-5.485,9.599-10.628,19.409-16.06,29.035C629.504,1630.111,626.946,1627.184,624.335,1624.335
		z"/>
	<path fill="#F8F8F6" stroke="#F8F8F6" d="M758.196,1652.21c24.288-12.184,47.336-28.296,63.08-50.87
		c3.217,17.062,7.199,33.993,11.208,50.897C807.721,1652.236,782.958,1652.263,758.196,1652.21z"/>
	<path fill="#1B1515" stroke="#1B1515" d="M345.749,1652.447c7.015-15.48,8.175-33.465,18.961-47.178
		c2.901,16.192,7.041,32.278,14.504,47.02C368.059,1652.421,356.904,1652.395,345.749,1652.447z"/>
	<path fill="#F6C3D9" stroke="#F6C3D9" d="M631.983,1633.144c5.432-9.626,10.575-19.436,16.06-29.035
		c1.846,0.949,5.538,2.848,7.384,3.797c-4.193,11.92-8.993,23.84-16.851,33.887C636.387,1638.84,634.251,1635.965,631.983,1633.144z
		"/>
	<path fill="#F19ABD" stroke="#F19ABD" d="M655.427,1607.906c5.011,2.479,10.206,4.615,15.454,6.646
		c-6.355,13.502-12.896,28.27-24.631,37.896c-2.611-3.56-5.116-7.12-7.674-10.654
		C646.434,1631.746,651.234,1619.826,655.427,1607.906z"/>
	<path fill="#1B1515" stroke="#1B1515" d="M447.885,1652.474c13.95-9.388,19.172-26.108,28.586-39.267
		c0.58,14.214,1.609,32.147,16.561,38.924C478.001,1652.5,462.943,1651.973,447.885,1652.474z"/>
	<path fill="#746383" stroke="#746383" d="M670.88,1614.552c3.112,1.134,6.276,2.294,9.467,3.349
		c-1.319-0.132-3.929-0.369-5.248-0.475c-7.067,11.656-13.608,23.681-21.493,34.837c-2.242,0.053-6.698,0.185-8.94,0.237
		l1.582-0.053C657.985,1642.822,664.525,1628.054,670.88,1614.552z"/>
	<path fill="#F19ABD" stroke="#F19ABD" d="M653.607,1652.263c7.885-11.155,14.425-23.18,21.493-34.837
		c1.319,0.105,3.929,0.343,5.248,0.475c3.428,0.976,6.857,1.978,10.285,3.006c-2.558,10.364-1.635,21.044,0.554,31.408
		C678.66,1652.368,666.134,1652.21,653.607,1652.263 M676.181,1651.946c8.571-6.303,11.155-18.566,12.078-28.745
		C682.299,1631.825,679.715,1642.215,676.181,1651.946z"/>
	<path fill="#1B1515" stroke="#1B1515" d="M179.926,1625.127c14.689-5.907,32.358-4.246,44.963,5.538
		c6.804,5.248,8.808,14.003,11.92,21.572c-35.311-0.158-70.649,0.475-105.934-0.158c2.848-7.305,5.934-14.531,9.072-21.704
		c1.134,6.698,0.976,13.502,0.448,20.28C154.794,1644.009,164.472,1629.926,179.926,1625.127z"/>
	<path fill="#F8F8F6" stroke="#F8F8F6" d="M704.161,1619.509c15.612,7.832,29.193,19.014,40.375,32.384
		c-14.082-0.29-28.165,0.659-42.247,0.369C701.999,1641.292,702.711,1630.348,704.161,1619.509z"/>
	<path fill="#FAFAFA" stroke="#FAFAFA" d="M676.181,1651.946c3.534-9.731,6.118-20.121,12.078-28.745
		C687.336,1633.381,684.752,1645.644,676.181,1651.946z"/>
</g>
</svg>
