<svg version="1.2" xmlns="http://www.w3.org/2000/svg" viewBox="0 0 1110 1099" width="1110" height="1099"><style>.a{fill:#7cbcc6}.b{fill:#42a8b9}.c{fill:#2a8c9f}.d{fill:#2796a9}.e{fill:#1f7987}.f{fill:#fefefe}.g{fill:#d6eff5}.h{fill:#b1e0ea}.i{fill:#278292}.j{fill:#fdffef}.k{fill:#fdffef;stroke:#989990;paint-order:stroke fill markers;stroke-linejoin:round;stroke-width:2}.l{fill:#8c381d}</style><path class="a" d="m803.8 1088c159.3 0 289.3-27.9 289.3-62.2 0-34.2-130-62.2-289.3-62.2-159.3 0-289.2 28-289.2 62.2 0 34.3 129.9 62.2 289.2 62.2z"/><path class="b" d="m122.5 13.3l578.9 167.6-103.7 217.4-579-167.6z"/><path class="c" d="m18.7 230.7l114 70.7 579 167.6-114-70.7z"/><path class="d" d="m701.4 180.9l-103.7 217.4 181.7-71.1z"/><path class="e" d="m779.4 327.2l-181.7 71.1 114 70.7 181.7-71.1z"/><path class="b" d="m779.4 327.2l-78-146.3 114.1 70.7 77.9 146.3z"/><path class="f" d="m295.1 63.3l239.8 69.4-103.8 217.4-114.8-22.9-125-46.6z"/><path class="g" d="m191.3 280.6l114 70.8 239.8 69.4-114-70.7z"/><path class="f" d="m746.4 394.5c25.4-10 49.2-9.9 53.2 0.3l9.8 24.9-91.9 36.3-9.8-25c-4-10.1 13.3-26.5 38.7-36.5z"/><path class="g" d="m756.2 419.4c25.4-10 49.2-9.8 53.2 0.3 4 10.2-13.3 26.5-38.7 36.5-25.4 10-49.2 9.9-53.2-0.2-4-10.2 13.3-26.5 38.7-36.6z"/><path class="b" d="m978.7 1018.8c-17.3 27.2-125.4 48.1-256.3 48.1-130.8 0-239-20.9-256.3-48.1-44.5-32.7-114.3-108.2-114.3-179.1h370.6 370.7c0 70.9-69.9 146.4-114.3 179.1z"/><path class="h" d="m722.4 919.4c204.2 0 370.7-35.8 370.7-79.7 0-43.9-166.5-79.7-370.7-79.7-204.1 0-370.6 35.8-370.6 79.7 0 43.9 166.5 79.7 370.6 79.7z"/><path class="i" d="m722.4 910.6c188.1 0 341.4-31.9 341.4-70.9 0-39.1-153.3-70.9-341.4-70.9-188 0-341.4 31.8-341.4 70.9 0 39 153.4 70.9 341.4 70.9z"/><path class="j" d="m1016.3 875.8c-59.4 20.8-168.8 34.8-293.9 34.8-125.1 0-234.4-14-293.9-34.8 59.5-20.9 168.8-34.9 293.9-34.9 125.1 0 234.5 14 293.9 34.9z"/><path class="k" d="m758.4 424.9c17.8-7 34.5-6.9 37.3 0.2q0.3 0.6 0.4 1.3l13.3 51.2c9.5 36.2 10.2 119.4 13 179.5 2.9 62.5 4.3 186.1 2.4 195.2-18.1 17.5-54.9 17.9-74.5-1.7 0.8-12.3 0.2-85.6 0.6-126.2 0.8-67.7 0.2-124.4-2.3-173.4-2.6-49-3.8-62.7-10.8-82.1l-6.6-18.3c-2.8-7.2 9.4-18.6 27.2-25.7z"/><path fill-rule="evenodd" class="l" d="m825.8 867.8c6.4 0 12.3 0.9 16.7 2.4 6.1 2 9.8 5.4 9.8 9.7 0 4.4-3.7 7.8-9.8 9.8-4.3 1.5-10.3 2.4-16.7 2.4-6.5 0-12.4-0.9-16.8-2.4-6-2-9.7-5.4-9.7-9.8 0-4.3 3.7-7.7 9.7-9.7 4.4-1.5 10.3-2.4 16.8-2.4zm13.6 11.8c-3.4-1.1-8.2-1.8-13.6-1.8-5.5 0-10.3 0.7-13.7 1.8-1.7 0.6-2.8-0.1-2.8 0.3 0 0.5 1.1-0.2 2.8 0.3 3.5 1.2 8.3 1.9 13.7 1.9 5.4 0 10.2-0.7 13.6-1.9 1.8-0.5 2.9 0.2 2.9-0.3 0-0.4-1.1 0.3-2.9-0.3z"/><path  d="m250.5 222.2l45.3-94.2 61.6 18.7-5.1 10.7-47.2-14.3-13.3 27.8 42.6 12.9-5.2 10.7-42.6-12.9-21.6 45zm84.7 25.7l45.3-94.2 14.5 4.4-45.2 94.2zm43.4 13.1l45.2-94.2 14.5 4.5-40.1 83.4 52.3 15.9-5.1 10.7z"/><path fill-rule="evenodd" class="l" d="m564.8 867.8c6.4 0 12.4 0.9 16.8 2.4 6 2 9.7 5.4 9.7 9.7 0 4.4-3.7 7.8-9.7 9.8-4.4 1.5-10.3 2.4-16.8 2.4-6.5 0-12.4-0.9-16.8-2.4-6-2-9.7-5.4-9.7-9.8 0-4.3 3.7-7.7 9.7-9.7 4.4-1.5 10.4-2.4 16.8-2.4zm13.6 11.8c-3.4-1.1-8.2-1.8-13.6-1.8-5.5 0-10.3 0.7-13.7 1.8-1.7 0.6-2.8-0.1-2.8 0.3 0 0.5 1.1-0.2 2.8 0.3 3.5 1.2 8.3 1.9 13.7 1.9 5.4 0 10.2-0.7 13.6-1.9 1.8-0.5 2.9 0.2 2.9-0.3 0-0.4-1.1 0.3-2.9-0.3z"/><path fill-rule="evenodd" class="l" d="m648.2 851.5c6.4 0 12.3 0.9 16.7 2.4 6.1 2 9.8 5.4 9.8 9.7 0 4.4-3.7 7.8-9.8 9.8-4.3 1.5-10.3 2.4-16.7 2.4-6.5 0-12.4-0.9-16.8-2.4-6-2-9.7-5.4-9.7-9.8 0-4.3 3.7-7.7 9.7-9.7 4.4-1.5 10.3-2.4 16.8-2.4zm13.6 11.8c-3.4-1.1-8.2-1.8-13.6-1.8-5.5 0-10.3 0.7-13.7 1.8-1.7 0.6-2.8-0.1-2.8 0.3 0 0.5 1-0.2 2.8 0.3 3.4 1.2 8.3 1.9 13.7 1.9 5.4 0 10.2-0.7 13.6-1.9 1.8-0.5 2.9 0.2 2.9-0.3 0-0.4-1.1 0.3-2.9-0.3z"/><path fill-rule="evenodd" class="l" d="m695.3 886.9c6.4 0 12.4 0.9 16.8 2.4 6 1.9 9.7 5.4 9.7 9.7 0 4.4-3.7 7.8-9.7 9.8-4.4 1.5-10.3 2.4-16.8 2.4-6.5 0-12.4-0.9-16.8-2.4-6-2-9.7-5.4-9.7-9.8 0-4.3 3.7-7.8 9.7-9.7 4.4-1.5 10.3-2.4 16.8-2.4zm13.6 11.8c-3.4-1.1-8.2-1.8-13.6-1.8-5.5 0-10.3 0.7-13.7 1.8-1.7 0.6-2.8-0.1-2.8 0.3 0 0.4 1.1-0.2 2.8 0.3 3.5 1.2 8.3 1.9 13.7 1.9 5.4 0 10.2-0.7 13.6-1.9 1.8-0.5 2.9 0.1 2.9-0.3 0-0.4-1.1 0.3-2.9-0.3z"/></svg>