<svg version="1.2" xmlns="http://www.w3.org/2000/svg" viewBox="0 0 944 820" width="944" height="820"><style>.a{fill:#313033}.b{fill:#fff}.c{fill:#e2f5ee}.d{fill:#4d4c50}.e{fill:#666569}.f{fill:#cde6dd}</style><path class="a" d="m635.9 649.1c0 48 12.6 95.2 36.6 136.8 5.1 8.7 15.4 13 25.1 10.4 9.8-2.6 16.6-11.5 16.6-21.6 0-45.5 12-90.3 34.7-129.8 12.5-21.5 10.1-48.5-5.9-67.5-15.9-19-42.1-26-65.4-17.5-23.3 8.5-38.8 30.6-38.8 55.5z"/><path class="a" d="m274.2 649.1c0 48 12.6 95.2 36.7 136.8 5 8.7 15.3 13 25.1 10.4 9.7-2.6 16.5-11.5 16.5-21.6 0-45.5 12-90.3 34.8-129.8 12.4-21.5 10-48.5-5.9-67.5-16-19-42.1-26-65.4-17.5-23.4 8.5-38.9 30.6-38.9 55.5z"/><path class="b" d="m722 233.3c39.1-0.1 70.9 31.7 70.9 70.8q0 2.8-0.2 5.5c42.7 14.3 73.5 54.6 73.5 102.1 0 45.3-28.1 84.1-67.8 99.9 11.5 14.2 18.3 32.3 18.3 52 0 45.7-37 82.8-82.8 82.8-5.6 0-11.1-0.6-16.4-1.6-6 51.6-49.9 91.7-103.1 91.7-37 0-69.4-19.3-87.8-48.3-17.2 18-41.5 29.3-68.4 29.3-19.9 0-38.4-6.2-53.7-16.7-13.8 8.3-30.1 13-47.4 13-32.9 0-61.8-17.1-78.2-43-21.3 26.3-53.9 43-90.4 43-64.3 0-116.5-52.1-116.5-116.5 0-13.2 2.2-25.8 6.2-37.7-33-24.1-54.5-63-54.5-107 0-42.9 20.4-80.9 51.9-105.2-2.3-7.5-3.6-15.6-3.6-24 0-39.4 28.3-72.2 65.8-79 11.6-45.1 52.5-78.4 101.2-78.4 7.9 0 15.6 0.9 23 2.5 19.1-23.5 48.2-38.6 80.8-38.6 43.4 0 80.6 26.6 96.1 64.4 18.7-17.6 43.9-28.3 71.6-28.3 26.4 0 50.4 9.7 68.8 25.8 14.1-15.9 34.7-25.8 57.6-25.8 39.4 0 71.9 29.6 76.5 67.8q4.2-0.5 8.6-0.6z"/><path class="c" d="m798.4 511.6c11.5 14.2 18.3 32.3 18.3 52 0 45.7-37 82.8-82.8 82.8-5.6 0-11.1-0.6-16.4-1.6-6 51.6-49.9 91.7-103.1 91.7-37 0-69.4-19.3-87.8-48.3-17.2 18-41.5 29.3-68.4 29.3-19.9 0-38.4-6.2-53.7-16.7-13.8 8.3-30.1 13-47.4 13-32.9 0-61.8-17.1-78.2-43-21.3 26.3-53.9 43-90.4 43-64.3 0-116.5-52.1-116.5-116.5 0-13.2 2.2-25.8 6.2-37.7-33-24.1-54.5-63-54.5-107 0-42.9 20.4-80.9 51.9-105.2-51.9 85.8 38.8 182.4 97.9 156.5-9 62 110.5 67.3 129.8 14.4 1.6 67.2 85.3 59.5 91.9 3.6 8.6 101.7 142.2 61.8 141.2-15.6 14.2 63.5 141.5 60.9 160-13.2 0 78.2 96.8 63.2 102 18.5z"/><path class="d" d="m134.8 649.1c0 48 12.7 95.2 36.7 136.8 5 8.7 15.3 13 25.1 10.4 9.8-2.6 16.5-11.5 16.5-21.6 0-45.5 12-90.3 34.8-129.8 12.4-21.5 10.1-48.5-5.9-67.5-15.9-19-42.1-26-65.4-17.5-23.3 8.5-38.9 30.6-38.9 55.5z"/><path class="d" d="m500.1 649.1c0 48 12.6 95.2 36.6 136.8 5.1 8.7 15.4 13 25.2 10.4 9.7-2.6 16.5-11.5 16.5-21.6 0-45.5 12-90.3 34.8-129.8 12.4-21.5 10-48.5-5.9-67.5-16-19-42.1-26-65.5-17.5-23.3 8.5-38.8 30.6-38.8 55.5z"/><path class="d" d="m554.5 188l71.2 31.7-56 125.7c-8.7 19.6-31.8 28.5-51.4 19.8-19.5-8.7-28.4-31.9-19.7-51.4z"/><path class="d" d="m798.6 127.7l-44 64.3 113.6 77.6c17.7 12.1 42.1 7.5 54.1-10.1 12.1-17.7 7.5-42.1-10.1-54.2z"/><path class="e" d="m581.8 210l253-56 32.2 145.5c15.4 69.6-28.9 139.1-98.5 154.5-69.6 15.4-139.1-29-154.5-98.5z"/><path class="c" d="m842.3 42c44.5 6.7 75.2 48.1 68.5 92.6-4.7 31.5-26.9 56.1-55.3 65.4-19.5 39.6-63 63.8-109 56.9q-7.4-1.1-14.4-3.2c-21.5 15.6-48.9 23.1-77.2 18.8-8-1.2-15.7-3.2-22.9-6.1-18.2 18.6-44.7 28.4-72.3 24.3-45.7-6.9-77.2-49.5-70.4-95.2 4.6-30.7 25.3-54.9 52.2-65.5l0.1-0.8c5-33.4 34.8-56.8 67.9-54.5 16.1-36.5 55-59.3 96.4-53.1 8.5 1.3 16.6 3.7 24 7.1 13.5-8.3 29.9-12.1 46.8-9.5 16.8 2.5 31.4 10.9 41.9 22.8q11.6-1.8 23.7 0z"/><path class="f" d="m901 82.2c8.8 15.3 12.6 33.6 9.8 52.4-4.7 31.5-26.9 56.1-55.3 65.4-19.5 39.6-63 63.8-109 56.9q-7.4-1.1-14.4-3.2c-21.5 15.6-48.9 23.1-77.2 18.8-8-1.2-15.7-3.2-22.9-6.1-18.2 18.6-44.7 28.4-72.3 24.3-41.2-6.2-70.8-41.3-71.3-81.6 19.3 52.2 116.8 44.1 136.4-8.6 7.8 38.5 97.2 32.8 99-12.5 22.2 43.6 108.2 14 120.9-28.8 49.9 4.3 67-35.2 56.3-77z"/><path class="a" d="m725.2 412c-1.8-1.6-1.9-4.3-0.3-6.1 1.6-1.8 4.3-1.9 6.1-0.3 3.8 3.4 8.3 5.6 12.9 6.3 4.4 0.8 9 0.1 13.1-2 4-2.1 7.2-5.5 9-9.4 1.8-4 2.4-8.5 1.4-13l-2-9.1c-0.5-2.4 1-4.7 3.3-5.2 2.3-0.5 4.7 1 5.2 3.3l2.2 9.3c1 4.5 3.4 8.2 6.7 11 3.3 2.8 7.5 4.5 12 4.7 4.6 0.2 9-1.1 12.7-3.6 3.9-2.6 7.1-6.5 9.1-11.2 0.9-2.2 3.4-3.3 5.6-2.3 2.2 0.9 3.3 3.4 2.3 5.6-2.6 6.3-6.9 11.5-12.1 15-5.2 3.6-11.4 5.5-17.9 5.2-6.6-0.3-12.5-2.8-17.3-6.8q-1.1-1-2.2-2.1-0.5 1.4-1.2 2.8c-2.6 5.7-7 10.5-12.9 13.5-5.7 3-12.1 3.9-18.4 2.9-6.2-1-12.2-3.9-17.3-8.5z"/><path class="a" d="m788.7 288.2c9.2-2 18.8 5.4 21.3 16.5 2.4 11.2-3.1 21.9-12.4 24-9.3 2-18.8-5.3-21.3-16.5-2.5-11.2 3.1-21.9 12.4-24z"/><path class="a" d="m714.8 304.6c9.3-2.1 18.8 5.3 21.3 16.5 2.4 11.2-3.1 21.9-12.4 23.9-9.3 2.1-18.8-5.3-21.3-16.5-2.5-11.1 3.1-21.9 12.4-23.9z"/><path class="a" d="m765.2 357.4c9.3-2.1 16.2-4.3 18.6 6.9 2.5 11.2-3 21.9-12.3 23.9-9.3 2.1-18.8-5.3-21.3-16.5-2.5-11.1 5.7-12.3 15-14.3z"/></svg>