<?xml version="1.0" encoding="UTF-8"?>
<!DOCTYPE svg PUBLIC "-//W3C//DTD SVG 1.1//EN" "http://www.w3.org/Graphics/SVG/1.1/DTD/svg11.dtd">
<svg version="1.1" xmlns="http://www.w3.org/2000/svg" xmlns:xlink="http://www.w3.org/1999/xlink" x="0" y="0" width="1296" height="969" viewBox="0, 0, 1296, 969">
  <g id="Layer_1">
    <path d="M1238.14,614.103 C1249.51,625.599 1269.12,637.177 1270.14,631.107 C1271.9,620.736 1264.07,587.138 1266.14,570.099 C1256.14,568.099 1242.57,565.248 1232.14,561.099 C1212.3,553.212 1202.21,533.872 1186.37,518.951 C1146.8,481.693 1075.01,490.357 1025.57,494.052 C987.314,496.904 910.791,514.318 929.018,570.326 C935.279,589.576 986.635,614.337 1004.58,621.287 C1078.98,650.083 1105.38,606.884 1174,608.935 C1197.97,613.81 1213.23,620.091 1238.14,614.103" fill="#D39052"/>
    <path d="M1238.14,614.103 C1249.51,625.599 1269.12,637.177 1270.14,631.107 C1271.9,620.736 1264.07,587.138 1266.14,570.099 C1256.14,568.099 1242.57,565.248 1232.14,561.099 C1212.3,553.212 1202.21,533.872 1186.37,518.951 C1146.8,481.693 1075.01,490.357 1025.57,494.052 C987.314,496.904 910.791,514.318 929.018,570.326 C935.279,589.576 986.635,614.337 1004.58,621.287 C1078.98,650.083 1105.38,606.884 1174,608.935 C1197.97,613.81 1213.23,620.091 1238.14,614.103 z" fill-opacity="0" stroke="#AF7542" stroke-width="11.339" stroke-linecap="round" stroke-linejoin="round"/>
    <path d="M40.728,668.388 C36.498,720.38 74.044,795.748 92.572,861.287 C97.47,878.607 87.111,906.533 90.876,919.724 C101.092,955.505 163.881,965.267 199.799,963.029 C240.713,960.474 260.697,925.248 285.15,890.501 C344.572,806.091 387.92,771.111 436.518,746.287 C469.107,729.638 472.002,688.271 437.115,650.021 C417.768,628.794 425.326,675.466 399.682,666.232 C349.307,648.091 342.791,724.724 301.377,748.49 C268.482,780.943 233.631,842.97 194.377,851.83 C208.033,802.365 231.498,780.193 210.193,726.31" fill="#AF825F"/>
    <path d="M40.728,668.388 C36.498,720.38 74.044,795.748 92.572,861.287 C97.47,878.607 87.111,906.533 90.876,919.724 C101.092,955.505 163.881,965.267 199.799,963.029 C240.713,960.474 260.697,925.248 285.15,890.501 C344.572,806.091 387.92,771.111 436.518,746.287 C469.107,729.638 472.002,688.271 437.115,650.021 C417.768,628.794 425.326,675.466 399.682,666.232 C349.307,648.091 342.791,724.724 301.377,748.49 C268.482,780.943 233.631,842.97 194.377,851.83 C208.033,802.365 231.498,780.193 210.193,726.31" fill-opacity="0" stroke="#8F674E" stroke-width="11.339" stroke-linecap="round" stroke-linejoin="round"/>
    <path d="M475.916,809.568 C494.432,835.396 501.018,846.888 503.162,874.498 C507.475,930.232 561.639,936.56 600.557,915.505 C619.432,905.302 622.627,887.802 619.342,867.083 C615.381,842.033 599.752,835.142 582.174,820.49 C559.674,801.72 536.971,766.037 523.377,739.787 C504.549,703.451 505.682,673.576 495.779,652.49 C466.799,590.736 378.779,618.13 367.857,683.005 C363.557,708.58 380.42,723.919 398.947,738.544 C427.295,760.939 454.447,779.63 475.916,809.568" fill="#AF825F"/>
    <path d="M475.916,809.568 C494.432,835.396 501.018,846.888 503.162,874.498 C507.475,930.232 561.639,936.56 600.557,915.505 C619.432,905.302 622.627,887.802 619.342,867.083 C615.381,842.033 599.752,835.142 582.174,820.49 C559.674,801.72 536.971,766.037 523.377,739.787 C504.549,703.451 505.682,673.576 495.779,652.49 C466.799,590.736 378.779,618.13 367.857,683.005 C363.557,708.58 380.42,723.919 398.947,738.544 C427.295,760.939 454.447,779.63 475.916,809.568 z" fill-opacity="0" stroke="#8F674E" stroke-width="11.339" stroke-linecap="round" stroke-linejoin="round"/>
    <g>
      <path d="M93.146,764.146 C9.31,740.923 -16.53,632.513 25.482,529.892 C63.755,436.435 129.803,379.279 245.197,374.365 C311.33,371.56 383.256,352.013 416.963,407.853 C437.783,442.353 437.068,480.076 445.096,518.748 C452.494,554.365 499.459,610.958 485.537,646.716 C475.787,671.771 433.025,737.372 390.291,752.154 C365.982,760.576 315.549,775.248 285.299,770.115 C240.123,762.466 203.502,755.474 177.064,768.552" fill="#AF825F"/>
      <path d="M93.146,764.146 C9.31,740.923 -16.53,632.513 25.482,529.892 C63.755,436.435 129.803,379.279 245.197,374.365 C311.33,371.56 383.256,352.013 416.963,407.853 C437.783,442.353 437.068,480.076 445.096,518.748 C452.494,554.365 499.459,610.958 485.537,646.716 C475.787,671.771 433.025,737.372 390.291,752.154 C365.982,760.576 315.549,775.248 285.299,770.115 C240.123,762.466 203.502,755.474 177.064,768.552" fill-opacity="0" stroke="#8F674E" stroke-width="11.339" stroke-linecap="round" stroke-linejoin="round"/>
    </g>
    <path d="M57.134,584.103 C61.001,537.544 68.455,430.142 89.138,350.103 C110.439,267.646 145.354,212.662 175.6,173.857 C207.041,133.54 270.756,114.037 319.529,140.447 C380.033,173.22 373.697,278.767 354.299,332.095 C349.354,345.677 345.475,360.396 339.463,373.615 C325.408,404.544 335.572,404.888 317.467,433.224 C304.518,453.49 289.01,546.474 320.361,575.513" fill="#AF825F"/>
    <path d="M57.134,584.103 C61.001,537.544 68.455,430.142 89.138,350.103 C110.439,267.646 145.354,212.662 175.6,173.857 C207.041,133.54 270.756,114.037 319.529,140.447 C380.033,173.22 373.697,278.767 354.299,332.095 C349.354,345.677 345.475,360.396 339.463,373.615 C325.408,404.544 335.572,404.888 317.467,433.224 C304.518,453.49 289.01,546.474 320.361,575.513" fill-opacity="0" stroke="#8F674E" stroke-width="11.339" stroke-linecap="round" stroke-linejoin="round"/>
    <path d="M140.572,856.49 C169.717,834.861 235.131,840.107 229.131,896.103" fill="#AF825F"/>
    <path d="M140.572,856.49 C169.717,834.861 235.131,840.107 229.131,896.103 M171.779,647.685 C167.537,679.302 208.541,715.326 229.131,730.099" fill-opacity="0" stroke="#8F674E" stroke-width="11.339" stroke-linecap="round" stroke-linejoin="round"/>
    <path d="M386.174,116.482 C405.369,125.287 415.447,187.04 416.572,198.083 C429.369,198.083 439.74,141.876 435.779,134.88" fill="#80573C"/>
    <path d="M386.174,116.482 C405.369,125.287 415.447,187.04 416.572,198.083 C429.369,198.083 439.74,141.876 435.779,134.88" fill-opacity="0" stroke="#1A1919" stroke-width="10.885" stroke-linecap="round" stroke-linejoin="round"/>
    <path d="M1103.47,389.9 C1121.91,414.603 1134.72,417.13 1162.86,430.341 C1184.89,440.693 1183.78,458.841 1184.65,481.646 C1181.8,473.81 1174.96,466.646 1167.14,462.38 C1167.13,471.896 1167.39,481.494 1166.92,490.974 C1165.09,487.447 1158.44,482.853 1156.36,479.583 C1150.96,488.853 1149.88,497.771 1144.3,506.138 C1122.5,484.505 1105.15,470.009 1082.95,447.615 C1057.37,421.798 1020.46,373.634 1012.76,336.173 C1057.12,327.462 1080.29,358.826 1103.47,389.9" fill="#866744"/>
    <path d="M1103.47,389.9 C1121.91,414.603 1134.72,417.13 1162.86,430.341 C1184.89,440.693 1183.78,458.841 1184.65,481.646 C1181.8,473.81 1174.96,466.646 1167.14,462.38 C1167.13,471.896 1167.39,481.494 1166.92,490.974 C1165.09,487.447 1158.44,482.853 1156.36,479.583 C1150.96,488.853 1149.88,497.771 1144.3,506.138 C1122.5,484.505 1105.15,470.009 1082.95,447.615 C1057.37,421.798 1020.46,373.634 1012.76,336.173 C1057.12,327.462 1080.29,358.826 1103.47,389.9 z" fill-opacity="0" stroke="#604B34" stroke-width="11.339" stroke-linecap="round" stroke-linejoin="round"/>
    <path d="M553.951,915.814 C567.533,926.22 585.885,926.724 604.643,916.037 C634.424,899.06 664.717,866.919 681.354,837.224 C686.564,827.912 720.252,730.552 704.986,728.263 C680.549,724.599 648.533,724.482 626.537,737.337 C611.408,746.197 603.994,761.56 597.053,776.888 C588.807,795.076 619.998,793.037 605.596,804.017 C581.244,822.556 533.322,865.189 542.947,896.9 C546.756,909.427 546.041,909.744 553.951,915.814" fill="#D39052"/>
    <path d="M553.951,915.814 C567.533,926.22 585.885,926.724 604.643,916.037 C634.424,899.06 664.717,866.919 681.354,837.224 C686.564,827.912 720.252,730.552 704.986,728.263 C680.549,724.599 648.533,724.482 626.537,737.337 C611.408,746.197 603.994,761.56 597.053,776.888 C588.807,795.076 619.998,793.037 605.596,804.017 C581.244,822.556 533.322,865.189 542.947,896.9 C546.756,909.427 546.041,909.744 553.951,915.814 z" fill-opacity="0" stroke="#AF7542" stroke-width="11.339" stroke-linecap="round" stroke-linejoin="round"/>
    <path d="M879.252,753.65 C853.236,759.298 834.615,760.095 813.4,784.962 C767.15,839.162 690.24,812.103 653.537,764.759 C644.971,753.708 639.967,741.333 628.084,732.861 C625.436,730.966 596.104,718.306 595.924,721.001 C598.225,687.537 618.494,671.595 634.752,645.978 C660.018,606.146 622.025,552.158 668.697,520.388 C681.322,511.798 697.67,508.365 708.861,497.958 C720.885,486.767 728.936,490.857 741.674,480.017 C758.775,465.439 778.385,463.896 795.674,449.779 C813.83,434.943 823.471,396.927 836.467,367.072 C849.341,337.498 874.178,310.916 905.994,299.591 C945.158,285.646 999.244,290.576 1030.98,318.251 C1075.25,356.888 1041.77,407.646 1063.89,453.767 C1079.83,487.001 1096.87,547.365 1063.36,575.595 C1041.5,593.998 1007.1,569.685 994.135,595.107 C987.135,634.107 988.287,669.24 966.471,699.927 C947.744,726.251 921.498,742.677 890.611,750.919 C886.666,751.974 882.885,752.865 879.252,753.65" fill="#D39052"/>
    <path d="M879.252,753.65 C853.236,759.298 834.615,760.095 813.4,784.962 C767.15,839.162 690.24,812.103 653.537,764.759 C644.971,753.708 639.967,741.333 628.084,732.861 C625.436,730.966 596.104,718.306 595.924,721.001 C598.225,687.537 618.494,671.595 634.752,645.978 C660.018,606.146 622.025,552.158 668.697,520.388 C681.322,511.798 697.67,508.365 708.861,497.958 C720.885,486.767 728.936,490.857 741.674,480.017 C758.775,465.439 778.385,463.896 795.674,449.779 C813.83,434.943 823.471,396.927 836.467,367.072 C849.341,337.498 874.178,310.916 905.994,299.591 C945.158,285.646 999.244,290.576 1030.98,318.251 C1075.25,356.888 1041.77,407.646 1063.89,453.767 C1079.83,487.001 1096.87,547.365 1063.36,575.595 C1041.5,593.998 1007.1,569.685 994.135,595.107 C987.135,634.107 988.287,669.24 966.471,699.927 C947.744,726.251 921.498,742.677 890.611,750.919 C886.666,751.974 882.885,752.865 879.252,753.65 z" fill-opacity="0" stroke="#AF7542" stroke-width="11.339" stroke-linecap="round" stroke-linejoin="round"/>
    <path d="M715.412,740.876 C676.107,791.537 639.104,824.654 625.033,862.341 C616.307,885.693 601.916,910.302 619.881,933.79 C636.252,955.193 674.772,945.345 696.311,935.783 C727.135,922.095 754.588,898.306 769.752,866.666 C783.978,836.966 797.092,820.681 800.092,787.611" fill="#D39052"/>
    <path d="M715.412,740.876 C676.107,791.537 639.104,824.654 625.033,862.341 C616.307,885.693 601.916,910.302 619.881,933.79 C636.252,955.193 674.772,945.345 696.311,935.783 C727.135,922.095 754.588,898.306 769.752,866.666 C783.978,836.966 797.092,820.681 800.092,787.611" fill-opacity="0" stroke="#AF7542" stroke-width="11.339" stroke-linecap="round" stroke-linejoin="round"/>
    <path d="M704.947,883.939 C718.025,839.759 761.9,826.845 802.037,822.263 C833.678,818.662 846.978,821.701 852.287,787.259 C855.896,763.904 849.408,738.865 854.256,716.619" fill="#D39052"/>
    <path d="M704.947,883.939 C718.025,839.759 761.9,826.845 802.037,822.263 C833.678,818.662 846.978,821.701 852.287,787.259 C855.896,763.904 849.408,738.865 854.256,716.619" fill-opacity="0" stroke="#AF7542" stroke-width="11.339" stroke-linecap="round" stroke-linejoin="round"/>
    <path d="M769.744,533.783 C768.525,514.623 753.08,527.994 745.377,513.04 C735.018,492.912 738.217,474.333 724.318,454.775 C674.537,384.779 563.275,442.341 539.326,511.611 C531.193,535.119 525.545,563.548 521.197,586.537 C516.1,613.458 495.217,692.263 488.127,712.892 C481.6,731.853 468.479,748.939 466.244,769.212 C462.549,802.751 481.322,827.49 513.502,834.091 C542.971,840.146 574.314,837.162 600.189,820.986 C636.416,798.369 631.834,795.673 642.311,756.498 C646.728,739.939 658.037,719.595 672.549,708.978 C683.596,700.896 725.33,690.576 737.139,681.275 C766.088,658.435 759.92,636.662 762.744,600.529 C763.674,588.732 764.279,592.916 763.525,581.103" fill="#D39052"/>
    <path d="M769.744,533.783 C768.525,514.623 753.08,527.994 745.377,513.04 C735.018,492.912 738.217,474.333 724.318,454.775 C674.537,384.779 563.275,442.341 539.326,511.611 C531.193,535.119 525.545,563.548 521.197,586.537 C516.1,613.458 495.217,692.263 488.127,712.892 C481.6,731.853 468.479,748.939 466.244,769.212 C462.549,802.751 481.322,827.49 513.502,834.091 C542.971,840.146 574.314,837.162 600.189,820.986 C636.416,798.369 631.834,795.673 642.311,756.498 C646.728,739.939 658.037,719.595 672.549,708.978 C683.596,700.896 725.33,690.576 737.139,681.275 C766.088,658.435 759.92,636.662 762.744,600.529 C763.674,588.732 764.279,592.916 763.525,581.103" fill-opacity="0" stroke="#AF7542" stroke-width="11.339" stroke-linecap="round" stroke-linejoin="round"/>
    <path d="M629.58,457.025 C627.451,414.931 622.6,372.146 618.568,330.224 C576.689,330.611 555.193,372.826 569.068,403.259 C576.588,419.759 605.002,443.783 588.916,465.568" fill="#D39052"/>
    <path d="M629.58,457.025 C627.451,414.931 622.6,372.146 618.568,330.224 C576.689,330.611 555.193,372.826 569.068,403.259 C576.588,419.759 605.002,443.783 588.916,465.568" fill-opacity="0" stroke="#AF7542" stroke-width="11.339" stroke-linecap="round" stroke-linejoin="round"/>
    <path d="M711.721,396.005 C691.135,400.107 671.643,400.943 655.916,413.302 C658.854,404.943 660.498,393.865 655.768,385.775 C643.846,390.978 614.232,449.779 621.275,470.888 C640.154,460.576 651.627,463.427 658.482,454.869 C657.826,465.146 657.545,475.482 656.994,485.771 C658.643,476.794 671.279,472.095 676.869,464.9 C676.752,474.38 670.459,492.767 676.869,499.458 C691.998,495.134 696.311,484.333 704.947,480.017 C709.272,495.134 696.146,508.798 703.6,524.314 C722.525,513.978 763.463,499.099 773.682,479.083 C783.861,459.134 741.228,436.216 733.061,449.712 C738.728,440.173 753.111,428.185 763.272,423.861 C746.643,417.814 699.334,420.943 683.35,428.173 C692.83,416.466 700.682,406.802 711.721,396.005" fill="#866744"/>
    <path d="M711.721,396.005 C691.135,400.107 671.643,400.943 655.916,413.302 C658.854,404.943 660.498,393.865 655.768,385.775 C643.846,390.978 614.232,449.779 621.275,470.888 C640.154,460.576 651.627,463.427 658.482,454.869 C657.826,465.146 657.545,475.482 656.994,485.771 C658.643,476.794 671.279,472.095 676.869,464.9 C676.752,474.38 670.459,492.767 676.869,499.458 C691.998,495.134 696.311,484.333 704.947,480.017 C709.272,495.134 696.146,508.798 703.6,524.314 C722.525,513.978 763.463,499.099 773.682,479.083 C783.861,459.134 741.228,436.216 733.061,449.712 C738.728,440.173 753.111,428.185 763.272,423.861 C746.643,417.814 699.334,420.943 683.35,428.173 C692.83,416.466 700.682,406.802 711.721,396.005 z" fill-opacity="0" stroke="#604B34" stroke-width="11.339" stroke-linecap="round" stroke-linejoin="round"/>
    <path d="M722.232,521.056 C737.924,489.794 794.947,446.248 826.928,440.919 C833.467,467.435 844.518,516.115 818.111,532.412 C801.01,542.947 753.264,543.029 732.721,543.486 C732.85,546.404 731.525,546.146 730.025,547.33" fill="#D39052"/>
    <path d="M722.232,521.056 C737.924,489.794 794.947,446.248 826.928,440.919 C833.467,467.435 844.518,516.115 818.111,532.412 C801.01,542.947 753.264,543.029 732.721,543.486 C732.85,546.404 731.525,546.146 730.025,547.33" fill-opacity="0" stroke="#AF7542" stroke-width="11.339" stroke-linecap="round" stroke-linejoin="round"/>
    <path d="M995.471,599.927 C1024.48,624.927 1072.34,606.568 1081.07,589.376 C1063.04,622.279 1044.57,713.248 1093.76,726.369 C1136.26,737.712 1155.9,696.064 1169.14,666.091 C1145.2,659.994 1109.18,665.29 1120.44,626.169 C1128.92,596.689 1169.9,585.509 1178.1,553.552 C1190.67,504.552 1122.69,491.052 1105.89,454.259 C1082.75,403.568 1072.16,326.658 1016,307.216" fill="#D39052"/>
    <path d="M995.471,599.927 C1024.48,624.927 1072.34,606.568 1081.07,589.376 C1063.04,622.279 1044.57,713.248 1093.76,726.369 C1136.26,737.712 1155.9,696.064 1169.14,666.091 C1145.2,659.994 1109.18,665.29 1120.44,626.169 C1128.92,596.689 1169.9,585.509 1178.1,553.552 C1190.67,504.552 1122.69,491.052 1105.89,454.259 C1082.75,403.568 1072.16,326.658 1016,307.216" fill-opacity="0" stroke="#AF7542" stroke-width="11.339" stroke-linecap="round" stroke-linejoin="round"/>
    <path d="M983.596,441.134 C1009.14,526.107 992.471,623.927 982.471,667.927" fill="#D39052"/>
    <path d="M983.596,441.134 C1009.14,526.107 992.471,623.927 982.471,667.927" fill-opacity="0" stroke="#AF7542" stroke-width="11.339" stroke-linecap="round" stroke-linejoin="round"/>
    <path d="M523.51,581.537 C528.943,603.654 554.631,593.103 562.389,581.537" fill-opacity="0" stroke="#1A1919" stroke-width="2.449" stroke-linecap="round" stroke-linejoin="round"/>
    <path d="M642.471,653.927 C633.506,644.876 633.135,623.349 638.76,623.599 C635.385,638.853 653.197,649.087 672.471,651.927 C662.471,667.927 645.682,657.173 642.471,653.927" fill="#1A1919"/>
    <path d="M491.139,776.103 C491.139,791.021 488.607,799.166 477.135,810.107 M544.764,836.326 C543.334,823.177 543.24,809.091 555.334,800.08" fill-opacity="0" stroke="#AF7542" stroke-width="11.339" stroke-linecap="round" stroke-linejoin="round"/>
    <path d="M1115.35,730.583 C1111.04,711.138 1145.6,665.779 1145.6,665.779 C1145.6,665.779 1167.2,657.134 1182.32,667.939 C1175.83,689.544 1169.35,702.498 1165.04,732.74 C1148.48,733.927 1135.04,737.15 1115.35,730.583" fill="#B5906A"/>
    <path d="M1115.35,730.583 C1111.04,711.138 1145.6,665.779 1145.6,665.779 C1145.6,665.779 1167.2,657.134 1182.32,667.939 C1175.83,689.544 1169.35,702.498 1165.04,732.74 C1148.48,733.927 1135.04,737.15 1115.35,730.583 z" fill-opacity="0" stroke="#745B44" stroke-width="11.339" stroke-linecap="round" stroke-linejoin="round"/>
    <path d="M1288.14,577.107 C1293.31,596.333 1288.14,627.099 1282.14,644.103 C1276.52,647.232 1261.14,638.103 1252.14,626.103 C1257.65,604.236 1258.14,590.103 1261.14,569.103 C1279.98,571.154 1284.14,575.103 1288.14,577.107" fill="#B5906A"/>
    <path d="M1288.14,577.107 C1293.31,596.333 1288.14,627.099 1282.14,644.103 C1276.52,647.232 1261.14,638.103 1252.14,626.103 C1257.65,604.236 1258.14,590.103 1261.14,569.103 C1279.98,571.154 1284.14,575.103 1288.14,577.107 z" fill-opacity="0" stroke="#745B44" stroke-width="11.339" stroke-linecap="round" stroke-linejoin="round"/>
    <path d="M301.799,92.427 C333.744,95.188 380.748,74.751 409.131,90.103 C442.295,108.044 429.275,157.029 445.705,188.388 C462.369,220.212 504.92,289.517 492.041,329.4 C492.592,370.517 515.439,436.31 537.135,472.107 C575.135,512.103 592.502,540.115 591.135,572.103 C590.369,589.818 585.439,614.357 571.131,632.103 C543.971,665.794 493.525,686.478 447.522,670.115 C412.084,691.33 376.365,660.419 363.932,632.021 C349.713,599.576 350.291,592.396 336.463,555.154 C327.268,530.388 311.572,503.99 293.088,496.248 C273.674,488.13 241.674,486.533 225.275,471.486 C205.096,452.994 203.432,414.322 210.088,361.896" fill="#AF825F"/>
    <path d="M301.799,92.427 C333.744,95.188 380.748,74.751 409.131,90.103 C442.295,108.044 429.275,157.029 445.705,188.388 C462.369,220.212 504.92,289.517 492.041,329.4 C492.592,370.517 515.439,436.31 537.135,472.107 C575.135,512.103 592.502,540.115 591.135,572.103 C590.369,589.818 585.439,614.357 571.131,632.103 C543.971,665.794 493.525,686.478 447.522,670.115 C412.084,691.33 376.365,660.419 363.932,632.021 C349.713,599.576 350.291,592.396 336.463,555.154 C327.268,530.388 311.572,503.99 293.088,496.248 C273.674,488.13 241.674,486.533 225.275,471.486 C205.096,452.994 203.432,414.322 210.088,361.896" fill-opacity="0" stroke="#8F674E" stroke-width="11.339" stroke-linecap="round" stroke-linejoin="round"/>
    <path d="M305.578,306.026 C284.944,297.773 269.579,333.025 292.079,343.525 C314.368,353.927 328.077,315.026 305.578,306.026" fill="#1A1919"/>
    <path d="M401.104,114.939 C401.947,94.868 409.061,66.642 419.115,49.653 C428.936,33.067 446.83,22.274 458.002,5.813 C472.272,19.009 476.189,57.767 473.982,77.517 C471.252,101.806 455.607,128.447 432.85,139.197" fill="#AF825F"/>
    <path d="M401.104,114.939 C401.947,94.868 409.061,66.642 419.115,49.653 C428.936,33.067 446.83,22.274 458.002,5.813 C472.272,19.009 476.189,57.767 473.982,77.517 C471.252,101.806 455.607,128.447 432.85,139.197" fill-opacity="0" stroke="#8F674E" stroke-width="11.339" stroke-linecap="round" stroke-linejoin="round"/>
    <path d="M509.139,580.107 C510.451,584.49 523.131,612.107 513.135,618.107 C500.127,625.916 486.943,614.232 479.467,602.888 C470.865,589.833 470.455,572.876 475.131,566.103 C486.275,550.037 502.272,557.103 509.139,580.107" fill="#8D664B"/>
    <path d="M509.139,580.107 C510.451,584.49 523.131,612.107 513.135,618.107 C500.127,625.916 486.943,614.232 479.467,602.888 C470.865,589.833 470.455,572.876 475.131,566.103 C486.275,550.037 502.272,557.103 509.139,580.107 z" fill-opacity="0" stroke="#795840" stroke-width="11.339" stroke-linecap="round" stroke-linejoin="round"/>
    <path d="M549.439,538.404 C541.74,539.986 559.041,592.416 563.514,597.9 C574.619,586.134 574.564,533.236 549.439,538.404" fill="#8D664B"/>
    <path d="M549.439,538.404 C541.74,539.986 559.041,592.416 563.514,597.9 C574.619,586.134 574.564,533.236 549.439,538.404 z" fill-opacity="0" stroke="#795840" stroke-width="11.339" stroke-linecap="round" stroke-linejoin="round"/>
    <path d="M447.522,670.115 C408.604,645.287 383.645,609.894 386.573,567.013" fill-opacity="0" stroke="#8F674E" stroke-width="11.339" stroke-linecap="round" stroke-linejoin="round"/>
    <path d="M441.877,410.896 C430.857,390.509 420.791,372.72 416.291,350.583 C411.314,326.103 396.898,330.675 386.574,307.526 C381.136,295.351 386.139,264.048 380.268,252.9 C364.408,222.744 347.467,193.494 345.135,156.103 C343.072,122.994 340.111,79.825 375.135,86.102 C403.564,91.188 406.318,140.498 411.135,166.103 C413.654,179.525 424.33,211.802 423.135,226.103 C421.127,250.126 436.867,261.957 446.57,283.527 C460.445,314.352 448.506,361.154 467.139,394.107 C477.932,413.193 488.725,429.943 495.135,450.099 C500.377,466.615 511.248,484.857 488.174,478.748 C469.143,473.708 450.182,426.228 441.877,410.896" fill="#FFFFFE"/>
    <path d="M440.471,81.927 C454.193,93.403 474.678,125.455 477.471,144.927 C478.791,154.146 478.471,185.927 459.471,206.927 C448.479,195.572 435.135,174.103 431.139,144.103 C436.071,201.032 422.573,219.53 395.573,223.53 C407.675,202.135 401.678,173.351 397.073,153.034 C396.303,149.62 383.307,126.724 375.135,124.103 C373.307,174.724 352.075,250.529 301.078,235.53 C301.722,231.498 319.107,192.337 320.197,188.365 C314.666,192.97 305.299,196.47 296.314,192.751 C296.814,182.005 297.756,171.111 298.869,160.349 C287.588,167.009 274.846,174.728 262.189,176.06 C284.579,124.536 221.869,115.876 190.377,130.333 C161.104,143.767 161.502,215.634 173.959,240.478 C167.291,238.736 159.557,239.869 153.166,237.177 C149.666,263.587 153.287,297.037 165.377,320.482 C149.373,335.685 134.979,326.083 131.842,309.392 C122.678,318.244 120.713,347.892 120.58,359.685 C120.24,386.787 128.127,403.818 143.022,427.685 C127.576,428.935 111.357,421.294 102.76,408.556 C94.166,395.818 96.943,391.232 88.74,373.705 C82.763,374.849 71.103,443.326 68.47,447.927 C35.47,434.927 46.927,389.818 50.947,366.716 C37.74,367.88 23.369,372.583 9.802,368.935 C13.962,353.38 31.713,352.529 42.521,342.341 C52.345,333.072 61.673,318.88 65.47,305.927 C73.298,279.212 72.978,263.357 81.47,236.927 C88.447,215.205 95.736,182.017 104.041,160.767 C113.584,136.31 124.9,119.033 139.471,97.927 C155.139,75.235 181.74,55.892 210.943,51.095 C230.139,47.931 250.061,55.142 269.197,55.981 C292.799,57.024 297.217,47.435 314.959,41.001 C359.408,24.876 407.588,54.427 440.471,81.927" fill="#80573C"/>
    <path d="M440.471,81.927 C454.193,93.403 474.678,125.455 477.471,144.927 C478.791,154.146 478.471,185.927 459.471,206.927 C448.479,195.572 435.135,174.103 431.139,144.103 C436.071,201.032 422.573,219.53 395.573,223.53 C407.675,202.135 401.678,173.351 397.073,153.034 C396.303,149.62 383.307,126.724 375.135,124.103 C373.307,174.724 352.075,250.529 301.078,235.53 C301.722,231.498 319.107,192.337 320.197,188.365 C314.666,192.97 305.299,196.47 296.314,192.751 C296.814,182.005 297.756,171.111 298.869,160.349 C287.588,167.009 274.846,174.728 262.189,176.06 C284.579,124.536 221.869,115.876 190.377,130.333 C161.104,143.767 161.502,215.634 173.959,240.478 C167.291,238.736 159.557,239.869 153.166,237.177 C149.666,263.587 153.287,297.037 165.377,320.482 C149.373,335.685 134.979,326.083 131.842,309.392 C122.678,318.244 120.713,347.892 120.58,359.685 C120.24,386.787 128.127,403.818 143.022,427.685 C127.576,428.935 111.357,421.294 102.76,408.556 C94.166,395.818 96.943,391.232 88.74,373.705 C82.763,374.849 71.103,443.326 68.47,447.927 C35.47,434.927 46.927,389.818 50.947,366.716 C37.74,367.88 23.369,372.583 9.802,368.935 C13.962,353.38 31.713,352.529 42.521,342.341 C52.345,333.072 61.673,318.88 65.47,305.927 C73.298,279.212 72.978,263.357 81.47,236.927 C88.447,215.205 95.736,182.017 104.041,160.767 C113.584,136.31 124.9,119.033 139.471,97.927 C155.139,75.235 181.74,55.892 210.943,51.095 C230.139,47.931 250.061,55.142 269.197,55.981 C292.799,57.024 297.217,47.435 314.959,41.001 C359.408,24.876 407.588,54.427 440.471,81.927 z" fill-opacity="0" stroke="#6D4933" stroke-width="11.339" stroke-linecap="round" stroke-linejoin="round"/>
    <path d="M238.213,134.22 C192.768,119.568 169.182,55.7 128.572,31.403 C114.662,58.743 129.51,143.728 150.275,164.4 C177.1,191.107 200.772,201.279 235.65,195.416" fill="#AF825F"/>
    <path d="M238.213,134.22 C192.768,119.568 169.182,55.7 128.572,31.403 C114.662,58.743 129.51,143.728 150.275,164.4 C177.1,191.107 200.772,201.279 235.65,195.416" fill-opacity="0" stroke="#8F674E" stroke-width="11.339" stroke-linecap="round" stroke-linejoin="round"/>
  </g>
</svg>
