<svg version="1.2" xmlns="http://www.w3.org/2000/svg" viewBox="0 0 916 1110" width="916" height="1110"><style>.a{fill:#b9d431}.b{fill:#a7bf38}.c{fill:#cb3727}.d{fill:#4d4441}.e{fill:#332d2a}.f{fill:#cf7c53}.g{fill:#f39e72}.h{fill:#981a1e}.i{fill:#b23024}.j{fill:#f0f5d5}.k{fill:#f9faec}</style><path class="a" d="m457.5 1099.3c246.3 0 447.1-45 447.1-100.1 0-55.2-200.8-100.1-447.1-100.1-246.2 0-447 44.9-447 100.1 0 55.1 200.8 100.1 447 100.1z"/><path class="b" d="m405.5 1046.4c72.2 0 131.1-17.1 131.1-38.2 0-21-58.9-38.2-131.1-38.2-72.2 0-131.1 17.2-131.1 38.2 0 21.1 58.9 38.2 131.1 38.2z"/><path class="b" d="m306.4 1058.1c15.6 0 28.3-3.8 28.3-8.3 0-4.5-12.7-8.2-28.3-8.2-15.6 0-28.3 3.7-28.3 8.2 0 4.5 12.7 8.3 28.3 8.3z"/><path class="c" d="m557.6 948.6c-71 85-55.9 20-96.9 62.2-29.3 30 50.8 29.1 54.5 27.9 29-9.7 68.5-13.6 72.5-41.1 4.8-33.7 7-52.9-30.1-49z"/><path class="c" d="m445.6 932.9c4 10.9 49 106.4 26 108.2-42.6 3.4-101.2-49.8-66.5-99.7 12.9-18.5 32.1-8.4 40.6-9.7z"/><path class="d" d="m475.9 444.8c-12.8 27.1-20.6 52.4-20.7 77.6 0 24.7 13.7 45.9 12 70.5-4.1 58-2.2 69.6-23.5 124.6-9.1 23.6-44.6 88.7-49.9 113.1-9.7 45.3-7.7 86.5 16.5 127.4 12 20.3 41.9 18.3 57.5 0 30.5-36 19.4-72.2 27.3-116.4 1.6-9.3 9.9-73.3 12.3-82.4 18.3-69.4 32.8-97.4 54.8-166 0.4 53.3 6 106.9 1.1 160-6.1 66.8-47.9 132.9-34.1 198.8 5.1 24.5 42 36.4 59.7 16.9 36.5-40.3 41.4-82.6 48.1-133.6 3.2-24.3 1.5-58.6 2.5-83.1 4-93.8 28.7-187.7 19.4-281.2-3.2-32.1-19.4-78.3-55.8-83.5-47.1-6.8-108.1 16.6-127.2 57.2z"/><path fill-rule="evenodd" class="e" d="m570.4 387.3q0 0 0.1 0-0.1 0-0.1 0zm-68.5 210.9c0 86.2-134 248.9-12.7 299.1q0.6 0.3 1.2 0.6c-1.8 20.9-6 40.5-22.6 60.1-15.6 18.3-45.5 20.3-57.5 0-24.2-40.9-26.2-82.1-16.5-127.4 5.3-24.4 40.8-89.5 49.9-113.1 21.3-55 19.4-66.6 23.5-124.6 1.7-24.6-12-45.8-12-70.5 0.1-25.2 7.9-50.5 20.7-77.7 14.9-31.6 55.1-52.8 94.5-57.4-18.8 2.5-68.5 151.7-68.5 210.9zm60.3-5c3.3-4.2 16.3-19.5 26.3-41 11.3-24 50.5-12.3 31.2 35.7-22.8 56.6-13.4 188.6-58.7 273.7-21.9 41.3 0.1 79.1 26.5 108.7-18.2 17.5-53.3 5.6-58.3-18.3-13.8-65.9 28-132 34.1-198.8 4.9-53.1-0.7-106.7-1.1-160z"/><path class="f" d="m747.7 84.1c2.4-2.8 21.1-32.5 2.6-32.4-14.7 0.1-16.9 5.4-13.8 25.3 0.6 4 10.5 7.9 11.2 7.1z"/><path class="f" d="m680.6 208.1c25.4-3.9 47-22.3 70.2-34.7 8.3-4.4 21.1-24.9 20.5-33.7-2.3-33.7-14.1-46.4-31-74.4-4-6.6-27.1-9.6-23.8-2 14.6 33.5-9.6 51.6-0.2 66.7 7.4 11.8-68.2 25.3-79.8 52-7.3 16.8 26.3 28.9 44.1 26.1z"/><path class="g" d="m436 80.6c-6.3 5.8-1.6 22.3-0.6 30.8 0.5 4.7 6.4 12.1 7.2 16.7 1.1 6.7 2.1 16.2 6.4 21.4 16.1 19.5 28.7 43.4 53.9 44.6 18.4 0.8 27.1-27.4 31.6-45.2 3.7-14.8-1.4-31.5-9-44.7-8.8-15-20.8-32.4-37.9-36-16.2-3.5-39.3 1.2-51.6 12.4z"/><path class="d" d="m433 95.7c-8.9-2.4-9.4-17.3-8.2-26.4 0.8-6.6 8.3-16.7 13.5-11.5 2.1 2.2 2-10.4 4.9-11 30.7-6.7 67-6.8 86.8 14.8 21 23.1 14.9 61.9 11.5 92.9-1.2 10.6-9.4-20.1-14.9-29.3-6.4-10.7-10.7-23-20.9-30.2-5.7-4-0.2 2.6-6.8 0.2-10.4-3.7-12.5-21.9-23.4-23.4-11.2-1.5-31.5 26.8-42.5 23.9z"/><path class="f" d="m684.1 70c5.2 0 9.4-3.3 9.4-7.4 0-4.1-4.2-7.4-9.4-7.4-5.1 0-9.3 3.3-9.3 7.4 0 4.1 4.2 7.4 9.3 7.4z"/><path class="h" d="m584 195.7c19.1-15.3 41.3-42.5 64.5-34.8 25.1 8.3 46.6 43.6 39.2 69-7.6 25.8-44.4 33.8-70.8 38.6-55.1 10.2-75.9-38.4-32.9-72.8z"/><path class="c" d="m459.9 261.5c-1.1-24.2 16-49.6 36.1-63.1 25.4-17 59.1-26 89.2-20.7 25.1 4.4 52.4 22.7 60.4 46.9 17.3 51.9 12.4 109.3 9.9 164-0.6 12.8-7.3 27.9-18.9 33.4-29.8 13.9-63.7 18.2-96.4 20.7-12.6 0.9-31.1 0.7-36.1-10.8-9.9-22.6 5.3-50.1-0.9-73.9-8.8-34.1-41.7-61.3-43.3-96.5z"/><path class="i" d="m459.9 261.5c-1.1-24.2 16-49.6 36.1-63.1q3.4-2.2 6.9-4.3c-3 8.9-4.7 18.6-4.4 28.5 1.4 40.9 30.6 78.1 38.5 119 5.5 28.7-7.9 57.6 0.8 85.4 2.3 7.4 7.9 11.9 14.3 14.7q-6 0.6-11.9 1c-12.6 0.9-31.1 0.7-36.1-10.8-9.9-22.6 5.3-50.1-0.9-73.9-8.8-34.1-41.7-61.3-43.3-96.5z"/><path class="h" d="m450 198.4c14.2-19.8 28.3-52 52.7-50.9 26.5 1.2 56.7 29.4 56.4 55.9-0.3 26.9-33.6 44.5-57.7 56.3-50.3 24.7-83.4-16.5-51.4-61.3z"/><path class="g" d="m497.2 164.5c12.7-18.4 43.2-16.2 62.8-27.1 6.1-3.3 7.8-11.5 13.6-15.1 27.9-17.4 63.6-25.2 87.1-47.8 5.5-5.2 23 13.2 20.6 22.3-9.5 35.6-41.4 47.3-65.9 70.2-3.9 3.6-12.9 5.4-17.7 7.8-23.3 11.9-36.2 39.5-65.2 41.9-23.4 1.9-47.4-34.6-35.3-52.2z"/><path class="d" d="m769.1 58.9l-343.4-33.3c-22.9-2.2-47.7 27.4-50.5 46.9-2.8 19.4 23.8 38.2 39.7 28.8 15.9-9.4 9-40.3 13.5-60.4l335.3 28z"/><path class="g" d="m661.3 76.9c-5.3-7.2-15.5-10.6-18-19.6-1.6-5.6-4.7-17.8 8.1-19.9 14.8-2.3 39.7-7.7 44.8 8.2 3.3 10-11 8.7-11.9 15.5-0.9 7.1 7.2 12.7 7.3 19.8 0.3 15.1-8.9 20.5-16.9 19.4-8.1-1.1-8.1-16.2-13.4-23.4z"/><path class="g" d="m512.4 126.9c8.4 0 15.2-9.3 15.2-20.7 0-11.4-6.8-20.7-15.2-20.7-8.3 0-15.1 9.3-15.1 20.7 0 11.4 6.8 20.7 15.1 20.7z"/><path class="g" d="m706.7 67c0.2-1.6 4.1-22.6 6.4-24.3 12.9-9.2 62.1-0.2 42.5 20.9-15.1 16.3-9.2 21.2-44.6 9.2-2.8-1-4.7-3.4-4.3-5.8z"/><path class="j" d="m333.9 1054.3c14.2 0 25.7-11.6 25.7-25.7 0-14.2-11.5-25.8-25.7-25.8-14.2 0-25.7 11.6-25.7 25.8 0 14.1 11.5 25.7 25.7 25.7z"/><path class="k" d="m337.3 1006.9c-7.6 0-11.9 6.1-9.7 13.6 2.2 7.6 10.1 13.7 17.7 13.7 7.5 0 11.8-6.1 9.6-13.7-2.2-7.5-10.1-13.6-17.6-13.6z"/></svg>