<svg version="1.2" xmlns="http://www.w3.org/2000/svg" viewBox="0 0 955 1059" width="955" height="1059"><style>.a{fill:#5c250c}.b{fill:#ec6f7d}.c{fill:#d45967}.d{fill:#9b4021}.e{fill:#85341a}.f{fill:#a54724}.g{fill:#cd662a}.h{fill:#af4e25}.i{fill:#984121}.j{fill:#de7333}.k{fill:#38190d}.l{fill:#ede8e6}</style><path class="a" d="m441.2 214.4l-24.6-9.7c-38.5-15.1-64-52.2-64.3-93.6-0.3-41.4 24.6-78.8 62.9-94.5 38.3-15.7 82.3-6.6 111.2 23.2 28.8 29.7 36.7 73.9 19.9 111.7l-24.2 4.8c-34.2 6.7-63.7 27.9-80.9 58.1z"/><path class="b" d="m530.2 154.7l-8.1 1.6c-27.4 5.4-51.7 20-69.2 41.2l-9.6-3.8c-25.3-9.9-42-34.2-42.2-61.4-0.2-27.2 16.2-51.8 41.3-62.1 25.2-10.3 54.1-4.3 73 15.2 17.9 18.4 23.5 45.4 14.8 69.3z"/><path class="c" d="m485.4 170c-12.3 7.1-23.4 16.4-32.5 27.5l-9.6-3.8c-25.3-9.9-42-34.2-42.2-61.4-0.1-12.8 3.5-25 9.9-35.4 15.3 34.3 42 60.8 74.4 73.1z"/><path class="a" d="m72.3 798.9c205.5 0 372.2 55.8 372.2 124.7 0 68.9-166.7 124.8-372.2 124.8z"/><path class="a" d="m336.5 779.8c-128.5 52.7-231.2-92.1-105.7-151.5 48.4-23 221.8-202.7 282.4-143 39.5 39-23.3 231.7-176.7 294.5z"/><path class="d" d="m547.3 443.9c162.3 0 283.9 148.2 272.8 310.5-11 162.4-151.6 294-313.9 294-162.4 0-326.7-149.4-238.4-302.3 88.4-152.8 117.1-302.2 279.5-302.2z"/><path class="e" d="m669.8 474.6c96.5 51.7 158.3 162 150.3 279.8-11 162.4-151.6 294-313.9 294-70.7 0-141.8-28.4-192.2-72.9 43.5 7.7 88.5 3.8 130.5-11.6l40.5-14.9c0-87.2 70.7-157.8 157.8-157.8h25c6.2-38.4 6.2-77.5 0-115.8l-8.4-51.8c-83.7 15.7-161.9-36.6-182.9-77.4z"/><path class="f" d="m605.1 91.1c128.1 0 223.9 116.8 215.2 244.8-8.7 128.1-119.6 231.8-247.6 231.8-128 0-224.7-103.7-216-231.8 8.7-128 120.4-244.8 248.4-244.8z"/><path class="g" d="m610.2 1048.4c68.7 0 124.7-56.1 124.7-124.8 0-68.7-56-124.7-124.7-124.7-68.7 0-124.8 56-124.8 124.7 0 68.7 56.1 124.8 124.8 124.8z"/><path class="d" d="m72.3 798.9c26.8 0 48.6 55.8 48.6 124.7 0 68.9-21.8 124.8-48.6 124.8-90.1 0-89.8-249.5 0-249.5z"/><path class="h" d="m945.6 810.8c9.9 138.6-159.8 190.9-177 53.1-6.7-53.2-123.2-274.1-47.6-312.9 49.5-25.4 212.8 94.5 224.6 259.8z"/><path class="i" d="m945.9 827c-3.8 126.3-160.8 169.2-177.3 36.9-4.3-33.7-52.6-134.9-68.2-214.3l10.7 25.2c15.5 36.4 35.3 70.8 59.2 102.5 11.5 15.2 21.1 31.9 28.6 49.5 12.5 29.5 41.5 48.7 73.5 48.7 32 0 60.9-19.1 73.5-48.5z"/><path fill-rule="evenodd" class="a" d="m610.2 911.1c39.8 0 72.1 25 72.1 55.8 0 30.8-32.3 55.7-72.1 55.7-39.9 0-72.1-24.9-72.1-55.7 0-30.8 32.2-55.8 72.1-55.8zm-49.4-16.9c0 12.3-10 22.2-22.3 22.2-12.3 0-22.3-9.9-22.3-22.2 0-12.3 10-22.3 22.3-22.3 12.3 0 22.3 10 22.3 22.3zm143.3 0c0 12.3-10 22.2-22.2 22.2-12.3 0-22.3-9.9-22.3-22.2 0-12.3 10-22.3 22.3-22.3 12.2 0 22.2 10 22.2 22.3zm-93.9-67.1c17.5 0 31.7 14.2 31.7 31.7 0 17.6-14.2 31.8-31.7 31.8-17.6 0-31.8-14.2-31.8-31.8 0-17.5 14.2-31.7 31.8-31.7z"/><path fill-rule="evenodd" class="a" d="m51.7 911.1c17.7 0 32 25 32 55.8 0 30.8-14.3 55.7-32 55.7-17.7 0-32-24.9-32-55.7 0-30.8 14.3-55.8 32-55.8zm-22-16.9c0 12.3-4.4 22.2-9.8 22.2-5.5 0-9.9-9.9-9.9-22.2 0-12.3 4.4-22.3 9.9-22.3 5.4 0 9.8 10 9.8 22.3zm63.7 0c0 12.3-4.4 22.2-9.9 22.2-5.4 0-9.8-9.9-9.8-22.2 0-12.3 4.4-22.3 9.8-22.3 5.5 0 9.9 10 9.9 22.3zm-41.7-67.1c7.8 0 14.1 14.2 14.1 31.7 0 17.6-6.3 31.8-14.1 31.8-7.8 0-14.1-14.2-14.1-31.8 0-17.5 6.3-31.7 14.1-31.7z"/><path class="h" d="m440 599.4c45.5 20.2 77.3 104.3 46.1 174.6-31.2 70.4-113.7 100.4-159.2 80.2-45.5-20.2-36.9-83-5.7-153.3 31.2-70.4 73.3-121.7 118.8-101.5z"/><path class="j" d="m524.7 319.5c71.5 8.9 129.4 58 129.4 109.8 0 51.8-57.9 86.7-129.4 77.8-71.5-8.9-129.4-58-129.4-109.8 0-51.8 57.9-86.6 129.4-77.8z"/><path class="a" d="m500.1 340c27.7 0 52.3 16.1 54.7 35.9 2.5 19.8-18.1 35.9-45.8 35.9-27.8 0-52.3-16.1-54.8-35.9-2.5-19.8 18.1-35.9 45.9-35.9z"/><path class="g" d="m631.5 373.6c14.3 16.8 22.6 36.1 22.6 55.7 0 51.8-57.9 86.7-129.4 77.8-63-7.8-115.4-46.9-127-91.5 23.3 27.6 62.5 48.6 106.8 54.1 71.5 8.9 129.4-26 129.4-77.8 0-6.1-0.8-12.3-2.4-18.3z"/><path class="k" d="m642.8 340c19.8 0 36-16.1 36-35.9 0-19.8-16.2-35.9-36-35.9-19.7 0-35.9 16.1-35.9 35.9 0 19.8 16.2 35.9 35.9 35.9z"/><path class="l" d="m650.5 278c8.4 0 15.9 6.8 16.8 15.2 0.8 8.4-5.3 15.2-13.7 15.2-8.4 0-15.9-6.8-16.8-15.2-0.9-8.4 5.3-15.2 13.7-15.2z"/><path class="k" d="m479 304.1c19.8 0 35.9-16.2 35.9-35.9 0-19.8-16.1-36-35.9-36-19.8 0-35.9 16.2-35.9 36 0 19.7 16.1 35.9 35.9 35.9z"/><path class="l" d="m486.6 242c8.4 0 15.9 6.9 16.8 15.3 0.9 8.4-5.3 15.2-13.7 15.2-8.4 0-15.9-6.8-16.7-15.2-0.9-8.4 5.2-15.3 13.6-15.3z"/><path class="f" d="m723.1 163.1l9.4-24.7c14.7-38.7 51.5-64.5 92.9-65.3 41.4-0.8 79.1 23.7 95.2 61.8 16.1 38.2 7.5 82.3-21.9 111.4-29.4 29.2-73.6 37.6-111.6 21.2l-5-24.2c-7.1-34-28.6-63.3-59-80.2z"/><path class="b" d="m783.8 251.4l-1.7-8.1c-5.7-27.2-20.6-51.4-42-68.7l3.7-9.6c9.6-25.4 33.8-42.4 61-42.9 27.1-0.5 51.9 15.6 62.5 40.6 10.6 25.1 4.9 54-14.4 73.2-18.2 18.1-45.1 24-69.1 15.5z"/><path class="c" d="m768 206.9c-7.3-12.3-16.7-23.2-27.9-32.3l3.7-9.6c9.6-25.4 33.8-42.4 61-42.9 12.7-0.2 25 3.2 35.4 9.5-34.1 15.7-60.3 42.7-72.2 75.3z"/></svg>