<svg version="1.2" xmlns="http://www.w3.org/2000/svg" viewBox="0 0 818 810" width="818" height="810">
	<title>old-man</title>
	<style>
		.s0 { fill: #231f20 } 
		.s1 { fill: #656263 } 
		.s2 { fill: #cfa550 } 
		.s3 { fill: #a4835b } 
		.s4 { fill: #785f42 } 
		.s5 { fill: #627078 } 
		.s6 { fill: #a9c4d0 } 
		.s7 { fill: #fbca8e } 
		.s8 { fill: #d3d2d2 } 
		.s9 { fill: #ffffff } 
	</style>
	<g id="Layer_1">
		<g id="Layer">
			<path id="Layer" fill-rule="evenodd" class="s0" d="m554.4 810c-29.3-6-78.1-26-97.2-46.8-2.2 0.4-3.2 1.5-4.7 2.7-21.8 8-172.5 15.2-122.5-23.9 18.9-7.4 36.1-17.9 55.8-24.3 0.1-1.6-0.8-3.7-1.1-7.3 25-12.5 20.2-31.5 11.8-54.7-4.8-7.2-9.1-14.4-10.3-21-20.1-58.1-79.4-121.6-63.8-183.8-2.9-16.3-0.4-12.9-1.1-21.8-8.8-10.1-12-25.9-12.2-36.1 7.9-5.5 7.8-37.7 19.3-44-5.8-10.8 30.3-35 25.6-43.2-8.8 24.4-19.3 3.3-21.2-10.5-4.2-2.6-6.6 20.9-16.4 17.3-1.8-5.5-1.3-8.3-1-12.2-4.2 1-8 6.3-13 7.6-6.1-4.5 3.9-18 5.2-23.3-4.7 0.8-17.2 16.3-18.8 4.5 6.7-19.3 20.7-27.7 21.2-47.9h-1.2c-1.3 2.1-3.5 3.7-5.6 3.9-3.2-4-0.1-9 1.2-12.4-3.7 0-6.4 3.9-9.6 3.9-0.4-0.4-0.7-0.8-1-1 4.7-8.6 9.1-18.7 16.7-24.3-26.9-10.1-47.2-48-13.3-62.5 4.8-4.4 9.5-8.9 13-14.3 0-7.2-10.5-38.4 2.8-38.4 3.1 3.6 3.1 3.6 5.2 6.8 8.5-8 3-22.2 3.2-33.6-9.1 0-17.5 20.4-21 20.4-0.7-0.6-0.7-0.6-1.3-2.5-18.5-3 4.5-38.9 20.9-25.2 0.7 3.3 0.7 3.3 1.3 3.7 0.6-0.4 8.4-22 9-24.7-3.2 0.4-3.3 1-5.2 2.6-1.2-0.2-2.5-0.3-3.7-0.4-0.7-6.1 10.6-4.2 16.5-12.7-1.4-0.1-2.9-0.3-4.3-0.3-0.3-0.2-0.4-0.4-0.5-0.7 1.9-2.8 32.7-21.7 35.7-23.3 38.1-12.9 59.4-2.7 88.8 25.6 0.8 0.9 3.1 4.5 5.7 5.1 0.2 1.2 0.9 2.1 2.9 4.1 17.3-12.2 53-16 71.1-2.9 0 1.2 0.1 2.4 0.2 3.7-1.9 1.4-3.1 1.6-4.6 2v1.6c8.6 3.3 25.4 12.9 24 26-3.1 1.5-3.9 1.1-6.7 0.7 4.9 8.9 10.8 22.1 7.6 33.6-3.1 1.8-10.6-1.6-13.2-2.1 0.4 2.7 2.5 9.4-1 11.8 1 6.9 5.7 13.7 5.7 23.1-2.4 1.8-4.9 0.2-6.3-0.4 0.3 6.2 0.8 12.7 0.2 19.8-1.1 0.2-2 0.4-3 0.6-1.7-1-1.7-0.8-3.1-0.6-0.2 5.6-0.3 14.3-3.2 20.3-1.3 0.1-2.3 0.2-3.4 0.4-1.3 6.7-1.4 20.7-11.3 17.3-1.1 4.5-3.5 9-6.1 13.6-1.5 0.3-3.1 0.5-4.5 0.8-0.1 0.6-0.2 1.2-0.4 1.9 26.4 0 55.6 55 65.7 76.9 1 7.4 11.9 21.4 7.7 28.2 0 9.1 4.5 18.3 6.9 28.4 2.4 22.4-2.6 51 9.3 70.8 0.5 5.2-20.8 38.6-28.1 41.6-1.5 19.7 1.4 68.7-11.2 85.5-4.5 18.8-7.2 49.1-20.2 65-9.6 29.1 1.9 53.3-7.2 82.2 0 0.8 0 1.9 0.1 2.8 6.5 3.2 9.9 26.9 3.6 33.3 0.7 4.3 10.3 11.7 14.8 16.1 6.1 9 7.4 17.1 12.8 26.5 8.3 2 16 20.2 16 29.7-2.9 8.9-16.6 10-24 10.7zm-233.5-695.4c0.1 0.1 0.3 0.2 0.4 0.4 0.3-0.3 0.7-0.6 1-0.8 0.3-2.8 0.4-9.3 1.1-10.6h-1.9c-3.3 4.8-2.6 4.2-0.6 11zm-7.7 14.1c7-5.2 1.4-18.9-0.4-25.1-0.7-0.1-1.4-0.2-2-0.3-0.4 7.7-0.6 17.1 2.4 25.4z"/>
			<path id="Layer" class="s1" d="m553.4 803.4c-26.8-2.6-53.9-17.7-74.9-31.6v-1.7c26.4 15.3 61.7 32.6 93.9 26.6 0 4.2-16 6.2-19 6.7z"/>
			<path id="Layer" class="s2" d="m555.9 792.9c-33.3-2.9-67.8-21-92.3-40.9-2.7-0.9-5.3-1.8-8.1-2.6 4.2-16.6 55.3-29.8 71.3-18-4 4-39.4 14.3-45.7 16.8 22.5 0 44.1-25.1 64.3-2.2 2.4 4.1 8.7 13 8 19.5-10.5-0.6-25.9-0.5-33.4 5.4 0 1.2 0 1.2 0.7 1.8 23.1-4 37-10.1 47.9 14.4 0 6.5-8.4 5.7-12.7 5.8z"/>
			<path id="Layer" class="s1" d="m386.1 767.8c-15-3.5-51.6 2.8-61.1-11.5 11.7 0 75.9 13.2 81.3 6.2 15.1-0.8 29.9-5.4 45.7-6.6 0 11.6-60.9 11.8-65.9 11.9z"/>
			<path id="Layer" class="s1" d="m463.6 761.8q-1.2-0.8-2.5-1.2c1.1-1 1.8-0.9 3.4 0.3-0.4 0.3-0.6 0.5-0.9 0.9z"/>
			<path id="Layer" class="s2" d="m386.1 758.6c-6.3-0.3-56.5-1.6-58.5-9.9 16-19.3 33.3 2.3 47.3-0.5 0-3-16.5-9.4-18.7-10.4v-2.1c8.7-6.2 14.8-11.3 25.5-13.4-0.1 0.6-0.1 1.4-0.1 2.1 4.7 1.6 17.6 9 23.1 8.4-7.2-5.3-13.5-8.3-20.3-11.3 0.1-0.3 0.3-0.5 0.4-0.6 15.4 0 43.7 22.7 59.3 29.5-7 7-47.2 7.9-58 8.2z"/>
			<path id="Layer" class="s3" d="m449 745.7c0-16.5-17.1-13.7-4.5-37.1 4.3-16.4-26.8-69.5-33.9-83.4-6.3-18-8.7-59-31.1-62.1-4.1-3.2-5.1-7.4-9.2-7.4-0.8 0.9-0.8 0.9-0.9 2.7 0.7 0.5 10.1 9.4 9.8 11.6-2.6-0.5-8.8-1.9-8.1 2.1 4.2 2.2 13.2 3.7 18.8 5.7v1.6c-3.8 1.6-8.2 2.8-11.2 5.7 0.2 0.2 0.5 0.7 0.8 1 4.7-1 8.7-2.6 14.7-2.2 6 16.8 7.2 32.3 15.5 50.2 11 12.3 8.4 26 20.2 39.3 0.9 1.9 11.8 33.1 11.6 33.2-9.3 24.1-1.7 14.4 2 37.2-0.2 0.1-0.4 0.3-0.6 0.4-10.3-6.6-52.3-24.8-52.3-32.8 11.7-10.3 11.7-10.3 13.3-11.2 16-24.3-39.1-121.1-48.5-140.9-11.8-14.5-36.6-81-26.4-96.4 0.5 8.4-3.8 18.7 9.6 18.7 12.9-4.1 4.4-12.4 2.5-20.3 0.9 0 19.5 14.2 23.1 16.6 1.3 15.5-3.1 23.4 5.3 37.4 0.4-0.1 0.9-0.2 1.4-0.2-2.3-12.4-3.1-22.4-1.6-33.6 5.4 0 13.4 4.3 20 6.3 11.3 2.5 34 4.7 46.4 9.9 0.5 3.4 0.3 7.1 2.8 10.9 1.9-1.2 1.9-9.1 2.1-10.9 1 0 2.1 0 3.2 0.1 1.7 2.6 0.3 5.8 3.2 9.6 2.1-1.2 2-8.1 2-9.7 5.1-0.2 22-4.1 26.8-3.2-6 8.3-27.6 22.3-8.6 29.3 16.2 0 13.8-16.1 21.9-26.3 6.9 1.3 12.9 15.2 14.4 22.9 10 12.6 26.7-3 17-11.4v-1.6q0.4-0.6 1.2-1.2c-0.2-0.9-0.3-2-0.4-2.8-5.5-3.1-5.5-3.1-15.9-10.8 3.6-3 24.8-17 29.1-17 1 2.9 1.5 5.9 4 9.6 5.3-5.2-7.4-16.4 4.9-18.1 2.6 4.2 1.2 9.9 6.1 15.7 0.2-0.3 0.6-0.6 0.9-0.8-0.6-7.7-3.4-14.5-4-20.7 4.9-6.8 9.4-14.7 11.5-22.2h1.2c11.7 53-6.8 95.2-16.9 148.1-6.6 20.1-16 25.1-16 49.3 3.7 13.3 6 26.6 2.2 41.1-0.4-0.1-0.8-0.1-1.2-0.1-10.5-10.6-56.1-14.7-56.1-2.9 4.4 3.5 30.5-3.3 44 2.2 4.9 3.2 4.9 3.2 6.1 3.4 0.7 3.3 2.5 7.7 2.5 9-1.6 1-7-1.4-7.4-2-20.7-5.8-35.9-0.9-52.2 11-0.1 0.6-0.2 1.2-0.2 1.9 11 0 39.4-20.1 53.6-6 12.4 3.1 17.2 13.2 13.1 27.8-26.8 1.5-32.5-3.5-58.5 8.7-7.9 4.8-14.8 11.4-23.1 15.1z"/>
			<path id="Layer" class="s0" d="m537.2 565.5c-16.7-5-32.8-17.5-41.6-30.6 1-3.1 1.2-2.2 4.4-2.6 5.6 7.2 40.3 32.6 40.3 32.6-0.6 0.6-0.6 0.6-3.1 0.6z"/>
			<path id="Layer" class="s4" d="m511 520.5q-0.8-0.1-1.2-0.3c-2.5-4.9 0-6.5 2.1-10 8.6 0 7.4 10.3-0.9 10.3z"/>
			<path id="Layer" class="s4" d="m469.3 519.7c-4.4-1.6-4.2-3.7-4.2-6.6 3.2-4.7 15.3 4.2 4.2 6.6z"/>
			<path id="Layer" class="s5" d="m476.9 509.2c-0.3-0.5-0.3-0.5-2.7-1.2 0-11.7 12.5-15.7 7.9-29.7-12.4-74.3-11.1-166.5 8.9-239.1 5.6-12.5 12-6.6 7.8-23.4 5-1.5 5.6 0.1 11.8 2.8 0 4.6-4.3 12.5-6.3 17.4-23.4 68.3-19.5 143.5-19.5 215.9 2.8 35.1 2.5 32.5 27.8 52.6-10.3 10.3-15.6-13.6-23.9-14.7-5.4 5.5-7 13.5-11.4 19.7-0.1-0.2-0.2-0.3-0.4-0.3z"/>
			<path id="Layer" class="s0" d="m380 507.2c-14.5-5.7-3.9-35.6 8.7-10.3 0.5 5.8-1.7 10.3-8.7 10.3z"/>
			<path id="Layer" class="s4" d="m380 503.2c-3.2-3.1-3.1-12.1 0.5-12.6 2.2 3.3 8.3 11.8-0.5 12.6z"/>
			<path id="Layer" class="s6" d="m441 491.7c-27.8-2.5-103-14.5-103-52.6 7.5-46.8 42.5-82.7 55.1-126.2 0.8-1.7 8-15.4 7.8-15.8l-0.6 0.4c0-0.9 0-0.9 6.4-9.9 9.1 1 16.6 9.6 22.3-4.7 26.5 0 40.7-22.7 48.4-44.6 1.7-0.6 1.7-0.6 8.6-0.7-9.1 47.6-16.6 94.7-16.6 144 1.7 35.6 6.1 70.9 9 107.3-11.1 4-26.4 2.8-37.4 2.8z"/>
			<path id="Layer" class="s6" d="m498.1 486.8c-0.2-1.2-2-3.3-4.4-9.3-10.3-74.4-8.9-177.6 19.4-249.6 5.5-10 3.2-8.5 12.9-3.1 16.9 17 43.2 56.1 46.2 80.8-10.8 14.6-28.2 24.4-45.8 25.8 0.8-4.4 4.2-10.4 4.2-13.3-0.4-0.3-0.7-0.6-1.1-0.8-3 4-5.5 8.4-7.8 13.3-0.4-0.7-0.4-0.7 0.4-20.6-0.7-0.1-1.4-0.2-2.1-0.2-5.6 9.6-8.2 31.4 1.9 40.3 31.7 54 50.4 86-2.3 127.8-8.2 2.2-12.4 8.1-21.5 8.9z"/>
			<path id="Layer" class="s4" d="m335.9 477.2c-3.1-1.9-2.3-4.5-2.3-6.2 5.9-3.2 6.6 0.9 6.9 5.8-0.6 0.4-0.6 0.4-4.6 0.4z"/>
			<path id="Layer" class="s5" d="m335.1 464.7c-24.5-16.2 20.7-102.4 34.2-117.4 8.2-14.2 12.9-29.4 19.8-43.7 4.8-6.2 4.8-6.2 5.1-7.4h1.2c-17.9 51.7-54.7 96.1-62.6 150.8 1.7 7.4 3.9 7.3 3.2 17.5-0.6 0.5-0.6 0.5-0.9 0.2z"/>
			<path id="Layer" class="s7" d="m566.8 446.1c-3.8-12-7-25-10.7-35.4q0.3-0.3 0.6-0.3c1.8 1.3 4.7 4.5 8.5 4.5l0.3-0.6c-3.4-4.7-9.1-9.1-12.9-11.2-7-15.5-23.3-43.2-24.2-52.2 10-2.9 47.4-27.7 47.8-27.5 11.7 28.4 11.6 54.5 8.2 85.8 13.6 11.6-7.8 36.9-17.6 36.9z"/>
			<path id="Layer" class="s7" d="m324.2 422c-7.3-10.2-9.6-15.3-9.3-27.3 0.1-4.1 3.8-8.1 3.8-8.1 8.4-13 1.1-25.8 16.3-38.1l7 4.2c1.9 1.9 3 4.2 6.4 5.5 0 3.6-9.4 23.7-16.4 38.3-9.6 3-12.6 5.4-1.9 3.5-2.1 4.3-4.1 8.6-5 10.4-1.3 6.9 0 3.4-2.4 10.2z"/>
			<path id="Layer" class="s6" d="m327 419.2c0.4-1.5 0.8-3 1.2-4.4 0.1 0.1 0.3 0.2 0.6 0.4-0.3 1.2-0.5 2.4-0.8 3.6-0.3 0.2-0.8 0.3-1 0.4z"/>
			<path id="Layer" class="s6" d="m329 414.1c0-12.8 18-45.6 26.4-57.9 0.2 0.3 0.5 0.7 0.8 1.2-9.8 16.7-20.9 37.3-26.6 56.6-0.2 0-0.5 0-0.6 0.1z"/>
			<path id="Layer" class="s6" d="m357.4 355.6c-0.3-0.4-0.6-0.7-0.8-1 8.4-17 13.1-36.7 23.2-52.3 2.2-1.8 2.7-3.2 3.4-5.3 1.1-0.4 2.2-0.8 3.3-1.1-0.2-0.5-0.3-0.8-0.4-1.2-0.8 0.4-1.6 0.7-2.2 1.2-0.1-0.5-0.2-0.8-0.3-1.2 0.3-0.2 0.7-0.4 1.2-0.5q-0.7-0.2-1.2-0.3c-0.3-2.5-0.5-4.9-0.7-7.3 2.2 0.4 4.7 2.9 7.3 5.2-0.9 4.8-9.4 16.7-11.7 21.1-5.5 14.5-10.4 30-21.1 42.7z"/>
			<path id="Layer" class="s6" d="m351.3 354.3c-5.9-3.2-13.1-9.2-17.7-11.7 0-13.7 20.1 1.6 21.1 8-0.1 0.2-2.6 4.4-3.4 3.7z"/>
			<path id="Layer" class="s6" d="m333.2 350.9c-0.4-0.8-0.5-1.7-0.6-2.5 0.8 0.2 1.5 0.3 2.2 0.4-0.1 0.7-0.2 1.4-0.3 2.1z"/>
			<path id="Layer" class="s0" d="m442.9 348.6c-10.8-8.6-37.3 1.1-49.6-7.1 4.9-4 38.6 1.6 41.7 1.8l0.3-0.6c-8.3-6.6-25.4-3.2-32.7-7.5v-1.3c5.5-3.6 46.6 6.1 42.2 14.5-0.7 0-1.3 0-1.9 0.2z"/>
			<path id="Layer" class="s6" d="m356.6 344.9c-4.8-4.8-8.9-7.5-13.3-10.6l-2.3-2.5c5.4-5.2 19.6-22.3 25.2-28.4 0.6-0.6 4.2-1.9 5-2.3 0.1-0.6 0.3-1.1 0.5-1.5q0.2 0.1 0.6 0.3c0.1-0.6 0.2-1 0.3-1.5 9.4 0-0.4 10.7-2.1 13.7-1.7 5.8-10.3 30.6-13.6 33.1z"/>
			<path id="Layer" class="s6" d="m526 344.6c-0.7-0.1-1.2-0.1-1.7-0.1 0-3.3-0.3-4.6 0.5-6.9 17.2-2.4 32.4-8.8 46.1-20.9 0.3 0 0.7 0.1 1.2 0.2-9.7 11.9-31.2 26.2-46.1 27.7z"/>
			<path id="Layer" class="s8" d="m342.3 311.8c-4.1-5.3-5.7-42-11.9-23.2-9.7 16.2-9.7 16.2-10.8 17 0-6.7 2.9-14.1-2.7-15.7-2.8 3.4-7.4 9.8-11.3 11.2 0-6.8 14.5-24 4.5-25.3-3.9 3.4-11.9 11.5-16.7 12.4 3.4-13.6 18.4-34.3 27.6-45h1.6c1 3.8 1.4 5.8 6.4 5.8 3-3.2 4.3-7.3 5.7-10.7h1.2c1.1 1.4 3.2 4.3 6.1 4.3 1.4-1.8 3-3.7 3.8-5.8 0.4-0.1 0.9-0.2 1.4-0.2 2.5 3.4 2.7 5.7 8.4 5.7 3-3 3.6-4.9 4.9-8.4 8.9 2.3 25.3 16.5 23.1-6.5 5.6 1.4 25.7 8.1 23.6-5.6-2.3-3.6-2.3-3.6-2.5-4.8 10.3 0 19.9-0.9 15.7-13.9 13.7-0.7 11.5-6.4 20.6-11.8 0-6.7-1.9-8.1-7.7-9.6 0.1-0.4 0.2-0.8 0.4-1.1 5.8-1 12-2.2 17.4-6.3 0-5.2-2.6-6-3-9.2 6.4-5.5 16.8-5.1 10.4-16.9 0-15.1-3-14.1 8.5-22.2 0-4.1-1.3-5.9-2.4-8.2 0.3-5 12.2-17.1 18.4-16.3-3.8 11.4-3.8 11.4-4.6 12.3-1.3-1.4-1.9-1-3-1.1-0.1 0.6-0.2 1.3-0.2 1.9 3.3 2.7 8.2 1.1 13.2 4.4-2.1 1.9-2.1 1.9-10.5 7 0 0.7 0.1 1.4 0.2 2.2 4.8 1.1 10.9 0.4 16.7 1.3-0.6 4.6-5.7 7.2-6.3 13 3.8 3.7 10.6 1.7 15.4 5.2 0 7.6-11.4 9-11.4 16.6 3.2 2.7 11 3.5 16.5 5.4 3.7 8.6-10.9 10-11.6 17.3 3.4 3.5 7 1.9 10.1 8.9 1.2 12-6.9 13.8-15.9 14.7-0.9 1.5-0.9 1.5-1.1 4.3 18.7 18.6-18.4 22.1-29.4 9.9-1-0.1-2.1-0.3-3.1-0.4-3.5 2.3 1.7 15 1.3 21.8-7.1 2.5-23.7-17-14.5 2.7 4.8 28.1-12.8 10.7-22.8 10.7-5.3 5.4 13.7 33.5-10.1 24.6-12.4-9.9-10.5-23.7-13.5 1.5-13.3 6.6-11.7-10.5-20-12.4-1.8 5.7 2.8 18.1 0 22.4-10.9 0-5-16-13.7-15.7-2.8 2.7 2.5 16.7-3 24.4-0.6 0-1.1 0-1.5 0.2-7.7-7.8-3.5-18.6-10.6-19.5-2.9 3.7 4.6 26.7-7.3 26.7z"/>
			<path id="Layer" class="s9" d="m368.7 298.4v-3.7c0.8 0.2 2.2 0 2.2 2.4-0.8 0.3-1.5 0.8-2.2 1.3z"/>
			<path id="Layer" class="s7" d="m431.6 277.8c-1.1-0.5-2.3-0.9-3.4-1.3-0.4-3-0.7-5.7-1-8.5 17.9 4.6 24.5 0.9 22.3-17.9 17.2 1 14.4 3.6 13.4-16.6 2.8 0.7 3.9 1.5 8.5 2.5 0 18.2-22 40.7-39.8 41.8z"/>
			<path id="Layer" class="s8" d="m313.2 246.5c0.6-7.7 0.6-7.7 1.8-13.4-1.3-2-2.8-1.3-3.7-1.4-1.3 2.5-3.3 4.6-5 6.3-0.3-5.6 3.9-8.9 3.2-13-3.5-0.5-7.5 4.8-10 6.6 0-19.8 28.5-18.4 40.9-24.5 20.4-14.2 10.5-33.2 41.6-25.2 2.1 2.1 4.8 1.6 6.1 6.4 1.1-0.2 2.1-0.4 3.2-0.4 5.4-8.1 8.5-7.1 18.3-8.4 0.5 1.1 0.7 1.9 0.5 4.7 0.8 0.9 1.7 1.8 2.5 2.8 4.5-1.3 8.7-3.5 14.3-3.5 2.1 3.7 2.6 3.4 8.1 4.1 0.6 0.9-6 9.2-9.1 10.4-3.2 0-16-2.4-16.4-2.1-0.1 1.2-0.1 2.4-0.1 3.7 2.7 2.2 7.9 3.5 7.9 9.6-7.7 5.1-14.8 1.8-21.9 1.8-1.2 1.3-0.9 1.5-1.1 3.6 2.4 1.9 8.3 5 8 9.8-9.1 2.2-17-0.3-22.8-6-8.6 1.4 2.4 9.2-0.6 16.8-13.9 4.6-14.3-11.6-20.8-11.6-2.6 3.7 1 9.8-4.5 14-4.4-2.8-3.9-8.5-6-11.4-5 3.3-3.1 3.6-6.2 10.2-0.5 0-1 0-1.5 0.2-2.3-4.1-1.7-6.8-2-10.7-9.7 0-3.3 11-10.5 18.1-2.8-1.6-0.7-9.5-2.4-12h-2.4c-3.3 4.1-3.9 9.9-9.4 14.5z"/>
			<path id="Layer" class="s7" d="m316.2 206.6c-4.7-1.2-9.3-2.3-13.9-3.2-0.3-0.4-0.5-0.7-0.8-1.1 28.3 0 50.4 2.5 45.1-35.1 1.9-24.5 31.6-20.2 21.9-3.6-3.2 2.8-29 17.3-16 22.2-9.3 15.7-18.9 20.8-36.3 20.8z"/>
			<path id="Layer" class="s7" d="m315.2 199.8c-19.5-2.8-23.4-14.9-26.3-31.4-7.6 3.8 3.5 21.8 4.2 27.1-0.4 0.1-0.6 0.4-1 0.6-8.5-13.8-14.2-22.7-4.1-36.1 20.2-16.1 38.3-32.5 41-58.4 11.3 1.4 4.8 32.1 24.3 32.1 9.2-3.9 18.3 4.3 24-11.9 5.7 0 10.2 4.8 18.9 4.3 0.2-0.7 0.5-1.5 0.7-2.3-7.6-0.3-16.1-3.1-20.9-7.1 2-2 21.3 5.2 27.5-4.2-6.4 1.1-25.9 4.3-27.9-1.9-4.9 0.3-9.7 0.5-14.6 0.9-0.8-2.2-0.8-3.1 0-4.5 26.9-6.1 53.5-12.1 80.4-18-1.7 4.5-14.6 35.9 4.9 27 1.4-1.4 3.5-5.4 6-4.8 1.8 7.6 7.4 4.4 8.2 11.8-5.7 5.7-11.4 3.9-7.2 13.9 0.2 2.5 0.5 3.6-1 6.2-0.4 0-0.8 0.1-1.2 0.2 0.3 3.7 4.2 6.5 4.2 10.6-6.3 4.9-22.4 4.4-9.4 16.4 0 0.5 0 1.2 0.1 1.8-6.2 3.7-12.8 3.6-18.8 3.7-6.8 8.2-15.1-0.6-21.7-0.8-27.7 5.2-23.1-2.2-31.9-24.8-9-10.4-22.8-2.8-28.9 6.6-0.9 3.5-0.9 3.5-1.5 3.9-4.2-3.9-9.1-8-13.7-8q-0.8 0.8-1.2 1.6c24.6 19.6 18.5 41.8-13.1 45.5z"/>
			<path id="Layer" class="s8" d="m512.1 200c0-6.8-2.7-11-6.9-13.9-0.1-0.4-0.1-0.8-0.1-1.2 4.3-3.4 4.2-3 10.4-3 0.2 0.3 0.4 0.8 0.8 1.3-3.6 1.6 1.1 14.2-4.2 16.8z"/>
			<path id="Layer" class="s8" d="m521.5 190.7c-0.8-4.6-3.1-7.5-3.5-9.8 2.9-1.5 4.6-4.5 7.1-5.7-0.1 2.3 0.7 14.4-3.6 15.5z"/>
			<path id="Layer" class="s7" d="m378.7 177.1c-7.2-1.2-12.8-0.8-19.4-0.7 0.6-2 12.6-9.2 14.9-8.8 1.1 2.3 4.5 6.1 5.6 9.4-0.7 0.3-0.7 0.3-1.1 0.1z"/>
			<path id="Layer" class="s7" d="m514.6 175.2c0-10.3-7.6-10.8-15.8-12.5 4.1-7.1 14.3-11.6 5.8-19 0-13 16.8-3.5-1.1-25.1-2.8-29.6 29.7-6.1 13.3 23.4-2.5 2.8-4.7 3.5-4.2 8 21.3 0 14.6-42.3 2.9-51-3.7-0.5-3.7-0.5-11.3-0.3-4.7 6.6-9.7 14.3-4.4 22.8 2.2 2.1 7.7 5.7 7.7 10.5-4.3 2.9-6.2 5.4-9 9.4-3.7 0-3.7 0-5.1-0.6 0.5-4.1 3.8-6.7 6.4-10-1-8.2-10-3.3-13.5-5.7 2.8-2 6.1-3.8 8.1-6.6-3.2-4.2-5.6-3.6-9.3-4.3 1-14.1 16.7-33.3 31.9-25.8 22.7 20.2 16.1 64.3-1.4 86.4-0.4 0.2-0.7 0.3-1 0.4z"/>
			<path id="Layer" class="s8" d="m530.3 171.3c-3.5-4.5-1.4-8.7 1.7-12.6 0 3.8 0.5 7.5-0.7 12.1-0.4 0.2-0.7 0.3-1 0.5z"/>
			<path id="Layer" class="s8" d="m537.2 151.5c-1.5-0.8-1.5-0.8-3.2-0.9 0.7-4.2 1.5-8.1 2.2-12.1 0.4-0.2 0.9-0.3 1.5-0.4 0.2 4.4 0.6 8.8 1 13.3-0.5 0-1 0-1.5 0.1z"/>
			<path id="Layer" class="s8" d="m542.5 131.8c-1.9-0.8-1.9-0.8-5.3-1v-13c3.4 3.7 5.9 7.3 5.9 13.8-0.3 0-0.5 0.1-0.6 0.2z"/>
			<path id="Layer" class="s7" d="m365.4 129.7c-2.2-0.4-4.4-0.7-6.4-1 3.1-12.6-2.4-11.9 10.9-14.1 0 2.2 3.9 2.6 6.1 6-4.1 4.2-5.1 6.7-10.6 9.1z"/>
			<path id="Layer" class="s7" d="m350.1 128.8c-16.2-12.1-16.5-62.6-0.5-42.5 0 9.6-7.5 20.3-7.5 29.9 3.1 2.1 5 1.3 9.4 1.6 0.3 2 0.3 4.3 3.8 4.8-0.4 4.1-1 5.8-5.2 6.2z"/>
			<path id="Layer" class="s7" d="m348.9 113.6c0-7.6 0.4-13.5 2.8-20.1h1.2c0.8 1.7 4 15.9 2.4 19.2-2.2 0.2-4.3 0.4-6.4 0.9z"/>
			<path id="Layer" class="s8" d="m441.4 112.3c0-11.9 11-28.2 9.4-33.2-6-0.7-11.8 5.8-17.5 3.5-0.1-0.5-0.2-0.9-0.2-1.2 9.2-12.1 17.8-9.3 27.1-15.5 1.2-9.4 4.6-14.4 11.3-19.7v-3.3c16.4-7.2 39.3-14.2 57.3-3.9-6.2 4.2-11.3-1.6-12.4 5.1 6.4 7.4 31.1 4.4 34 22.3-4.8 0-7.3-1.4-10.3 0.4-0.1 0.9-0.3 1.9-0.3 2.8 9.6 8.8 12.4 16.7 13 30.3-5.5 5.5-18.4-13.9-13.7 7.9-0.1 0.9-0.2 1.9-0.2 2.8-1 0.3-2 0.5-2.9 0.9-11-17.6-7.9-31.2-31.1-30-4.9 2.9-19.4 16.3-21.1 16.6-14.6-3.4-15.1 10-25.4 12.1 1.7-27-10.3 1-17 2.1z"/>
			<path id="Layer" class="s7" d="m360.2 103.9c-3.1-14.7-1.7-26.2-18.2-27.6-9.1 4-8.1 11.1-8.8 20.3-16-1.9-2.2-50.7 3.9-57.3 8.8-2.5 14.5-2.3 23.4-2.3 0.3-0.3 0.5-0.7 0.9-1-3.7-4.3-16.7-1.5-21-0.8 10.4-18 12.6-0.2 28.7-2.3-3.1-4.6-14.8-7.5-19-8.2 1.2-5.3 12.9-10.4 17.3-12.9 43.2-16.9 61.3 2.9 92.2 31.3 1.3 0.7 2.8 1.5 4.3 2.3 0 23-38 17.9-35 41.8-20.1 6-48.7 16.7-68.7 16.7z"/>
			<path id="Layer" class="s8" d="m299.1 83.9c-10.9-8.7 18.6-31.4 15.9-16.2-7 5.8-9.9 8.9-14.7 16.2z"/>
			<path id="Layer" class="s0" d="m362.2 80c-1-0.8-1.8-1.6-2.6-2.3-3.8-13.3-12.2-10.7-19.7-16.3 0-26.6 31.6-13.9 38.6 6.7 0 5-12.5 11.6-16.3 11.9z"/>
			<path id="Layer" class="s8" d="m364.7 72.4c-4.9-5.6-18.6-13.5-18.9-16.1 0.4-1.8 0.9-3.3 1.4-4.9 10.8-0.9 22.5 4.3 25.2 16.3-2.3 1.3-6.1 5-7.7 4.7z"/>
		</g>
	</g>
</svg>