<svg version="1.2" xmlns="http://www.w3.org/2000/svg" viewBox="0 0 868 1146" width="868" height="1146"><style>.a{fill:#fff}.b{fill:#eaeced}.c{fill:#bababa}</style><path fill-rule="evenodd" class="a" d="m849.8 1063.9c-0.5 13.4-9.5 29.8-32.3 37.7q0.1 2 0.1 3.9c-0.3 7.4-4.2 31.9-42.4 36.8-10.3 1.3-19.6 1.9-28.2 1.9-36.1 0-57.5-10.8-72.5-24.8l-59.6 22.1v0.3c-74.1 0.4-137.3 0.7-189.4 0.7-115.1 0-176.3-1.2-182.6-3.5-19.7-7.2-30.2-17.9-31.2-31.7-1.6-20.8 20.3-37.9 39.7-48.8-2-3.4-8.5-10.8-25.1-18.8q-14.4-7-27.2-15.2l-11.5 13.3 0.3 25.1-24.3 6.9-13.6 20.5-23.1-6.5-20.2 11.6-17.9-14.4-22.6 3.4-11.7-19.8-22.7-5.2-3.1-23.3-19.4-14.7 7-18.1-12.5-16.6 14.1-15.3-5.2-20.2 18.7-8.8 2.3-20.2 20.2-1.8 8.7-18.3 19.8 5 15.1-14.6 13.4 9.9q-4.2-20.3-3.6-41.7c2.8-103.2 87.6-204.6 216.1-258.4 107-44.7 130.6-111.1 134.1-178.5-159.3-79.1-223.4-224.8-215.7-338l1-14 14.1-0.1q0.8 0 1.6 0c40.5 0 77.6 12 110.5 31.9-0.4-37.5 5.9-68.4 18.2-87.1l6.1-9.2 10.6 3c110 30.8 149.1 183.4 147.8 269.7l0.7-0.2 16.7-40.1-2.4 34.4 19.4-7.7 19.9-8.1c6.5-2.8 13.2-5.3 19.6-8.5-5.8 4.3-11.9 8-17.9 11.9l-18.1 11.4-9.3 5.7 101.3-13.1-76.2 19.7c50.7 7 103.5 22.8 126.3 47.9 34.3 37.8 119.6 159.6 128.9 223.6 4.5 30.6-8.6 45.1-19.7 50.3-7.9 9-30.6 31-66.1 36.8l-2.6 0.5c-10.9 1.8-36.5 6.2-67 6.2q-0.7 0-1.5 0c2.1 8.6 7.5 18 15.3 31 12.1 20.1 27.1 45.1 31.6 81.1 3.2 25.9 1 41.4-1.6 53.4 0 8.8-1.4 20.2-4.5 32.8 0 0.6 0 1.1 0 1.7 8.9 100.2 40.4 165.3 65.6 170.5 24.1 4.8 40.5 22.4 39.7 42.7zm-234.6 64.9h-0.4v0.2z"/><path fill-rule="evenodd" class="b" d="m720.5 766.6c3.2 25.5 0.3 37.7-2.6 49.4-2 8.6-4.1 17.4-3.9 29.6-3.5 11.9-8.7 24.7-15.9 36.1-2.7-15.3-4.9-30.6-6.5-46q-1.7-16.8-2.6-33.6-0.4-8.5-0.5-16.9l-0.2-8.5c0-3 0.2-5.2-0.1-8.9-0.1-6.8-2.2-13.3-4.8-19.2-2.8-5.7-6.1-10.8-9.4-15.5-6.7-9.4-13.1-18.2-17.3-28.4-7.7-18.2-7.2-39.1-3.5-59.2 1.3 0.3 2.6 0.7 3.9 1v0.1c5.2 0.9 10.4 1.6 15.6 2.2 1.8 17.4 10.8 32.6 20.3 48.5 11.2 18.5 23.8 39.6 27.5 69.3zm-549.5 236.7l-8.7 4.9 4.2 7.6-9.4 10.9 0.2 13.3-12.7 3.6-7.7 11.5-14-3.9-13.3 7.6-12.2-9.8-15.5 2.4-7.9-13.5-14.9-3.4-2-15-11.3-8.5 4.9-12.6-7.4-9.8 8.2-8.9-3.1-11.7 11.2-5.3 1.4-12.5 12.7-1.2 5.6-11.5 12.1 3.1 8.7-8.4 9.2 6.8 10-3.3 1.2 2.5 1.6-0.7c10.8 24.6 27.3 46.8 48.9 65.8zm358.3-542.4c-1.3-20.9 2.6-43.1 13.4-60.7 5.8-8.4 14.3-15 23.7-19.2 9.6-4 20.1-5.9 30.7-5.8 21.3 0.1 42.5 6.7 61.4 17.1 9.4 5.2 18.3 11.4 25.9 19.1 7.6 7.6 14.1 16.8 16.5 27.5-0.3 0-0.7 0.1-1 0.1-5.9-8-15.4-13.3-26.1-13.3-18 0-32.6 14.6-32.6 32.5 0 18 14.6 32.5 32.6 32.5q1.1 0 2.1 0 0.2 0 0.5-0.1 0.9 0 1.8-0.2 0.1 0 0.2 0c4.3-0.6 8.3-2.1 11.9-4.2l-13.8 64.1c-8.7 0.6-17.4 2-25.9 3.8l8.1-1.1 4-0.5 4-0.2 8.1-0.6 1.4-0.1-4.6 21c-10 0.9-20.1 2.4-29.9 4.5 5.6-0.6 11.1-1.7 16.8-2 2.8-0.3 5.6-0.6 8.4-0.8l4.4-0.3-1.2 5.9c-4.6 0.9-9.2 1.4-13.8 1.4-21.5 0.3-42.6-6.7-61.1-17.2-3.1-1.8-6-3.8-9-5.8l-35.3-35.1c-0.5-0.9-1.1-1.7-1.7-2.5-11.5-17.9-18.6-38.6-19.9-59.8zm292 122.3l-1.6 2.1c-0.1 0.3-18.3 23.7-49.8 28.8l-2.5 0.4-33.2-10.1-4.9-11q6 0.2 12 0.6 8.3 0.5 16.6 1.2c5.5 0.4 11 1 16.6 1.7-11-2.1-22-3.5-33.1-4.5q-6.5-0.5-13-0.8l-0.1-0.4q-0.2-1.8-0.3-3.6-0.1-0.5-0.1-1-0.1-1.5-0.2-3 0-0.7 0-1.5-0.1-1.3-0.1-2.6 0-1 0-1.9 0.1-1.2 0.1-2.3 0-0.3 0-0.6 7.6 0.6 15.2 1.4 8.4 0.8 16.8 2c5.6 0.7 11.2 1.6 16.7 2.5-11-2.7-22.1-4.6-33.3-6.1q-7.6-0.9-15.2-1.6 0.1-0.9 0.2-1.8 0.1-1.2 0.3-2.3 0.1-0.9 0.3-1.8 0.2-1.3 0.6-2.6 0.1-0.7 0.3-1.4 0.6-2 1.4-3.9 0.8-2.1 2-3.9 7.2 1.1 14.3 2.5l7.9 1.7c2.7 0.6 5.3 1.2 7.9 1.9 5.3 1.2 10.5 2.7 15.7 4.3-10.1-4-20.6-6.9-31.2-9.4-4.5-1-9-1.8-13.5-2.6 5.2-7 13.9-10.7 23.1-10.8 11.3-0.6 23.1 2.5 33.8 7.4 8.6 4.1 16.9 9.3 23.4 16.7 1.8 6.4 4.4 12.3 6.9 16.3zm-233.3 275.6c5.3 18.8 15 60.1 9.9 95.4-0.8 5.5-2.4 10.8-4.5 15.8-5 10.4-11.4 20-19 28.6-11.1 12.6-24.8 23.5-40.1 33.4-15.1 10-31.6 18.9-49.1 28.7-4 0.7-8 1.3-12 1.4q-1.6 0-3.2 0-1.1 0-2.1-0.1-0.5 0-0.9 0c-6-0.4-12-1.7-17.7-3.9l-5.4-10.8c31.1-3.2 61.5-18.1 84.9-40.9q0.3-0.3 0.6-0.6 1.2-1.1 2.3-2.3 0.5-0.4 0.9-0.9 1-1.1 2-2.1 0.6-0.6 1.2-1.3 0.8-0.9 1.7-1.9 0.6-0.8 1.3-1.5 0.8-0.9 1.5-1.9 0.7-0.8 1.4-1.7 0.7-0.8 1.4-1.7 0.7-1 1.4-1.9 0.7-0.9 1.3-1.7 0.8-1 1.5-2.1 0.6-0.8 1.1-1.6 0.8-1.2 1.6-2.4 0.5-0.7 0.9-1.3 1.2-1.9 2.4-3.9 4.9-7.9 9-16.5c1.4-2.8 2.5-5.7 3.8-8.6 1.2-3 2.3-6.3 3.2-9.4 3.9-12.8 5.1-25.8 5-38.6q-0.1-3.6-0.3-7.2 0-0.5 0-1.1-0.3-3.6-0.7-7.2 0-0.2 0-0.4c-1.7-15.4-5.5-30.5-11.1-44.8 10.7 2.4 12.5 13.8 25.1 14.4z"/><path fill-rule="evenodd" class="c" d="m639.3 1075c6.9 14.1 10.1 30.7 10.9 46.8l-8.6 3.8c-0.7-7.9-2-15.3-3.9-23.1-2.6-10.6-6.5-21.1-12.5-30.9-5.8-9.5-14.3-18.2-24.6-23.5 7.6 0.4 14.9 2.4 21.1 6.4 7.6 4.8 13.4 12.2 17.6 20.5zm-17.4 59.1h0.5l-0.5 0.2zm-214.9-1012.1c-1.7-29.9 1.1-56.2 7.6-73.2 77.9 31.4 110.2 145.4 113.7 219.5-17.9-62.3-85.6-130.1-121.3-146.3zm387.4 987.8c-0.1 3.5-6.5 6.6-15.8 7.8q-0.2 0-0.4 0 0 0-0.1-0.1c-2.1-5.5-5.1-10.5-8.7-14.9-7.2-8.8-17.8-14.7-28.4-15.3 10.2 3.2 17.9 10.7 22 19.5 1.9 3.8 3.1 7.9 3.8 11.9-47.7 3.5-63.6-12.6-74.8-27.6 0.1 0-0.1-0.3-0.1-0.3-0.3-0.4-0.6-0.7-0.9-1.1-0.7-0.9-3.4-4.9-5.5-12l-4.1-15.2c-2.7-10.4-5.5-21-8.6-31.5-5.4-18.7-9.4-36.9-17.9-54.7-1.9-4.8-6.3-14.5-11.9-26.3-5-12.3-11.7-27.1-19.9-40.4-15-29.7-29.8-57.3-31-55.7l2.3 7.7c-12.5-0.7-14.4-12-25.1-14.5q-2.5-6.5-5.5-12.8c-4.1-8.5-8.9-16.7-14.3-24.5q0-0.3 0-0.5c-0.9-8.6-2.7-17.1-4.9-25.4-4.3-16.7-10.3-32.7-15.1-48.8-5-16.1-8.9-32.5-8.5-48.9 0.3-16.5 7-32.5 18.4-45.3-6.7 5.3-12.4 12-16.7 19.7-4.2 7.7-6.6 16.4-7.5 25.2-1.9 17.7 2.2 35.1 7 51.5 5.1 16.4 11.4 32.3 16.9 48.2 1.9 5.6 3.6 11.3 5 17-8-10.2-17.2-19.5-27.6-27.5-20.3-15.8-44.9-26.1-69.9-29.2-25.1-3.4-50.1-0.2-73.2 6.7-23.1 7.2-44.6 17.7-64.1 30.9 22.4-7.2 44.7-13.7 67.2-16.5 22.5-3.2 44.9-2.7 65.9 2 20.9 5.1 40.1 14.7 56.1 28.3 16 13.6 28.9 31 38 50.2 9.1 19.2 14.9 40.4 16.1 61.4 0.7 10.5 0 21-2.1 30.8-0.6 2.5-1.2 4.8-1.9 7.3-0.9 2.5-1.7 5.1-2.7 7.6-1.9 5.1-3.9 10.1-6.3 15-9.5 19.4-23 37.1-40.1 51.4-17 14.5-37.2 26-59.8 32.4q5.7-0.1 11.4-0.6l5.4 10.8c-1.5-0.6-3-1.1-4.5-1.8 8.3 5.4 18.1 8.7 28.2 9.6 10.1 1.1 20.3 0 30.2-1.7 19.7-3.5 39-10.4 56.9-11.2 17.8-1.1 30.9 9.2 37.7 24.3 4.6 10.1 6.8 22.3 7.2 34.2q-3.3 0-6.6 0c-0.6-3.5-1.4-7-2.7-10.2-3.5-8.5-9.2-15.7-16-21.3-6.8-5.5-14.7-9.5-23.2-11.1-8.3-1.6-17.3-0.5-24.3 3.8 7.6-3.2 16.1-2.8 23.4-0.1 7.3 2.6 13.8 7.3 18.9 12.9 5.1 5.7 8.7 12.4 10.4 19.4 0.5 2.2 0.7 4.5 0.8 6.7-130.3 0.7-314.1 0.8-333.6-1.5-6.3-2.4-9-4.5-10-5.5 1.7-3.8 10.3-12.1 25.7-20.5 9.4-5.2 14.9-14.4 14.6-24.7 0-1.9-0.3-3.7-0.7-5.6 15.3-5.3 29.9-12.7 42.6-23.4 7.3-6.5 14.5-14.6 16.4-25.2 1.2-5.2-0.2-10.7-2.2-15.3-1.5-2.1-2.9-4.2-4.5-6.1q-2.7-2.5-5.4-4.8 1.9 3.2 3.8 6c1 2.1 1.8 4.3 2.6 6.3 0.9 4.3 1.4 8.6-0.1 12.6-2.5 8-8.7 14.9-15.5 20.8-6.9 6-14.6 11.2-22.4 16.4l-15.9 10.4c-4.2-14.3-18.6-28-41.7-39.1-67.4-32.6-103.6-86.2-101.9-151 2.5-91.2 80-182 197.5-231.1 153.4-64.1 154.8-175.8 154.8-224.8-153.5-67.4-219.2-197.9-218.3-303 103.3 7.8 180.6 106.6 212.4 205 12.3 21.9 22.8 45.3 30.2 70.3 2.1-21 2-42.6 0.2-64.2 46.5-9.3 166 8.2 194.9 40 32 35.3 90.2 120.9 112.7 178.2-3.3 2.3-5.8 5.2-7 7.1-3.6 5.8-3.6 14.5-1.8 23-5-7-12-12.7-19.4-17-11.1-6.3-23.7-10.1-37-9.7-6.5 0.4-13.3 1.9-19.2 5.7-4.3 2.9-7.9 7-10.3 11.6q-5.9-0.9-11.8-1.6c-10.8-1.1-21.7-1.4-32.6-1q-3.2 0.1-6.4 0.3l13.8-64.1c2.9-1.6 5.4-3.8 7.6-6.2q1.1-1.2 2.1-2.5c0.3 0 0.6 0.1 0.9 0.1 10.7 0 19.3-8.7 19.3-19.3 0-10.6-8.6-19.3-19.3-19.3-1.6-10.9-7.6-20.8-15-28.8-7.4-8.3-16.2-15.1-25.6-20.9-18.9-11.4-40.6-18.8-63-19.6-11.2-0.4-22.7 1.1-33.4 5.5-10.5 4.5-20 11.7-26.7 21.3-12.4 19.6-16.3 42.6-15.3 65 0.8 15.1 4.8 29.9 11 43.7 3 6.7 6.5 13.2 10.5 19.3 6.3 9.3 13.1 18.2 21.5 25.8 8.3 7.5 17.6 13.9 27.4 19.1q4.8 2.4 9.6 4.5c17.1 7.6 35.7 12.2 54.6 11.3 11.1-0.6 22.2-3.5 31.9-8.9q2.4-1.3 4.7-2.8c5.3 0 10.7 0 16.1 0.3q7.3 0.2 14.6 0.7c0.5 5.9 2 11.6 3.9 17.1q-9.8-0.5-19.6-0.6c-11.2 0-22.3 0.4-33.4 1.4-11.1 1-22.1 2.8-33 5.1 5.5-0.6 11-1.6 16.5-2 2.8-0.3 5.6-0.7 8.3-0.9l8.3-0.6c11.1-0.7 22.2-1.2 33.3-1 6.7 0 13.4 0.1 20.2 0.4q0.2 0.5 0.3 1 0-0.5-0.1-1 0.4 0 0.8 0l5 11.1-2.5-0.7c0 0 8 6.3 17.4 13.6-21.2 2.8-54.3 5.4-86.6-0.6-7-0.8-14-1.9-20.9-3.2-10.8-2-21.4-4.5-31.8-7.9-16.9-5.6-33.2-13.4-47.4-24.2-14.2-10.8-26.1-24.8-34.2-41.2-8.1-16.4-12.5-34.9-14.1-53.7-0.9 18.8 0.9 38.1 7.1 56.6 6.2 18.4 17.1 35.6 31.2 49.6 14.1 14.2 31 25.3 48.8 33.9 16.5 8 33.7 14 51.3 18.7-2.7 8.7-5 17.6-5.7 26.9-1.3 11.5-0.7 23.5 2.7 35 3.3 11.5 9.3 22.1 14.7 31.9 2.8 4.9 5.2 9.8 6.9 14.5 1.4 4.8 2.4 9.5 1.9 14.1 0 2.1-0.6 5.5-0.8 8.2l-0.8 8.7q-0.8 8.6-1.4 17.3-1 17.4-1.2 34.8c-0.1 23.3 0.9 46.6 3.3 69.9 12.6 79.4 43.2 167.8 91.4 177.6 14.6 3 23.9 14.1 23.7 20.2zm-58.9-512.9q-0.1-0.2-0.1-0.3l0.2 0.3q-0.1 0-0.1 0zm-2.9-34.5c-1.6 5.2-2.1 10.5-1.8 15.6q-7.2-0.6-14.4-0.9-6.8-0.2-13.6-0.2c6.6-4.8 12.2-10.9 16.7-17.5-5.6 6.9-12.2 13-19.8 17.5q-8.7 0.2-17.3 0.8c-1.2 0-2.4 0.2-3.6 0.3l4.5-21 6.8-0.2c2.7-0.1 5.4 0 8.1 0.1 2.7 0 5.4 0 8.1 0.2l8 0.5c2.7 0.1 5.4 0.5 8.1 0.7 3.7 0.4 7.5 0.8 11.2 1.3q-0.6 1.4-1 2.8zm-54.1 17l4-0.2q6.9-0.3 13.8-0.4c-0.6 0.3-1.2 0.7-1.8 0.9q-2 1-4.1 1.9-0.1 0-0.2 0c-4.2 1.7-8.5 2.9-13 3.7zm-19 513c0.2 0.8 0.5 1.7 0.7 2.5l-0.8-1c-2.4-8.3-5.6-16.6-10.1-24.3-5.4-9.3-13-18-22.8-23.3-9.8-5.4-21.2-6.9-31.7-5.9-1.7 0.2-3.5 0.4-5.2 0.7 35-10.5 59.9 0 65.4 19.6q0.4 3.3 0.8 6.7l2.2 16.3c0.4 2.8 0.9 5.6 1.5 8.7zm-173.1-704.7c-1-24.5-6.5-48.8-14.9-72-8.4-23.3-19.7-45.6-33.5-66.2-13.8-20.7-30.4-39.7-49.7-55.9-19.3-16-42.1-29.3-67.8-33.8l-8-1.4 0.2 7.6c0.2 9.2 2.8 15.6 5.3 22.4 2.6 6.6 5.6 13 8.6 19.3 6.1 12.5 12.9 24.6 19.8 36.5 14 23.8 28.9 47 44.9 69.4-12.6-24.5-25.2-48.9-37.3-73.5-6-12.3-11.8-24.7-17.1-37.1-2.7-6.3-5.2-12.5-7.2-18.8-1-2.9-1.9-6-2.6-8.9 18.7 6 36.2 16.8 51.6 29.8 18.1 15.1 33.8 33.1 47.9 52.3 13.9 19.3 26.1 40 36.2 61.8 10.1 21.8 18.3 44.6 23.6 68.5zm-197 578.2c-8.7-3.2-17.2-6.4-25-10.8-7.8-4.3-14.7-9.6-20.6-15.7-11.7-12.2-18.5-28.1-19.9-44.8-1.6-16.7 1.9-34 9.2-49.5 7.4-15.5 19.1-29.4 35.6-38.2-18.7 2.7-35.6 15.9-45.9 32.4-10.6 16.5-15.6 36.7-13.9 56.6 1 10 3.6 19.9 8.1 28.9 4.7 8.9 11 17.1 18.8 23.3 7.7 6.4 16.6 10.9 25.7 13.8 9.2 2.8 18.6 4.1 27.9 4zm537.3 102.2c-0.2 3.9-5.3 8.5-14.9 11.1-8.7-9.3-21-16.5-35.1-19.3-20.4-4.2-48.8-54.8-64.1-133.9 5.8-5.5 10.9-11.7 15.4-18.2 12.5 70.6 39.2 139.5 83.3 148.4 10.2 2.1 15.5 7.7 15.4 11.9zm-268.6-539.6l35.3 35.1c-6-3.9-11.7-8.1-16.9-12.9-7-6.4-13-14.2-18.4-22.2z"/><path fill-rule="evenodd" d="m849.8 1063.9c-0.5 13.4-9.5 29.8-32.3 37.7q0.1 2 0.1 3.9c-0.3 7.4-4.2 31.9-42.4 36.8-10.3 1.3-19.6 1.9-28.2 1.9-36.1 0-57.5-10.8-72.5-24.8l-59.6 22.1v0.3c-74.1 0.4-137.3 0.7-189.4 0.7-115.1 0-176.3-1.2-182.6-3.5-19.7-7.2-30.2-17.9-31.2-31.7-1.6-20.8 20.3-37.9 39.7-48.8-2-3.4-8.5-10.8-25.1-18.8q-14.4-7-27.2-15.2l-11.5 13.3 0.3 25.1-24.3 6.9-13.6 20.5-23.1-6.5-20.2 11.6-17.9-14.4-22.6 3.4-11.7-19.8-22.7-5.2-3.1-23.3-19.4-14.7 7-18.1-12.5-16.6 14.1-15.3-5.2-20.2 18.7-8.8 2.3-20.2 20.2-1.8 8.7-18.3 19.8 5 15.1-14.6 13.4 9.9q-4.2-20.3-3.6-41.7c2.8-103.2 87.6-204.6 216.1-258.4 107-44.7 130.6-111.1 134.1-178.5-159.3-79.1-223.4-224.8-215.7-338l1-14 14.1-0.1q0.8 0 1.6 0c40.5 0 77.6 12 110.5 31.9-0.4-37.5 5.9-68.4 18.2-87.1l6.1-9.2 10.6 3c110 30.8 149.1 183.4 147.8 269.7l0.7-0.2 16.7-40.1-2.4 34.4 19.4-7.7 19.9-8.1c6.5-2.8 13.2-5.3 19.6-8.5-5.8 4.3-11.9 8-17.9 11.9l-18.1 11.4-9.3 5.7 101.3-13.1-76.2 19.7c50.7 7 103.5 22.8 126.3 47.9 34.3 37.8 119.6 159.6 128.9 223.6 4.5 30.6-8.6 45.1-19.7 50.3-7.9 9-30.6 31-66.1 36.8l-2.6 0.5c-10.9 1.8-36.5 6.2-67 6.2q-0.7 0-1.5 0c2.1 8.6 7.5 18 15.3 31 12.1 20.1 27.1 45.1 31.6 81.1 3.2 25.9 1 41.4-1.6 53.4 0 8.8-1.4 20.2-4.5 32.8 0 0.6 0 1.1 0 1.7 8.9 100.2 40.4 165.3 65.6 170.5 24.1 4.8 40.5 22.4 39.7 42.7zm-62.5 40.5c0.2-6.1-9.2-17.2-23.8-20.2-48.2-9.7-78.8-98.1-91.3-177.6q-3.6-34.9-3.3-69.9 0.1-17.4 1.2-34.8 0.5-8.7 1.3-17.3l0.9-8.7c0.2-2.7 0.8-6.1 0.7-8.2 0.6-4.6-0.4-9.3-1.9-14-1.7-4.8-4-9.6-6.8-14.6-5.4-9.8-11.5-20.4-14.8-31.9-3.4-11.5-3.9-23.5-2.7-35 0.8-9.3 3.1-18.2 5.7-26.9-17.5-4.7-34.8-10.7-51.2-18.6-17.8-8.7-34.8-19.8-48.9-33.9-14.1-14.1-24.9-31.3-31.1-49.7-6.3-18.4-8-37.8-7.1-56.6 1.6 18.8 5.9 37.3 14.1 53.7 8.1 16.4 20 30.4 34.2 41.2 14.2 10.8 30.4 18.6 47.4 24.2 10.4 3.4 21 6 31.8 7.9 6.9 1.3 13.9 2.4 20.9 3.2 32.2 6 65.3 3.4 86.6 0.6-9.5-7.3-17.4-13.6-17.4-13.6l2.4 0.7 33.2 10.1 2.5-0.4c31.5-5.1 49.7-28.5 49.8-28.8l1.6-2.1c-2.5-4-5.1-9.9-6.9-16.3-6.5-7.3-14.8-12.6-23.4-16.7-10.7-4.9-22.5-8-33.8-7.4-9.2 0.1-17.9 3.8-23.1 10.8 4.5 0.7 9 1.6 13.5 2.6 10.6 2.5 21.1 5.4 31.2 9.4-5.2-1.6-10.4-3.1-15.7-4.3-2.6-0.7-5.2-1.3-7.9-1.9l-7.9-1.7q-7.1-1.4-14.3-2.5-1.2 1.8-2 3.9-0.8 1.9-1.4 3.9c-0.1 0.4-0.2 0.9-0.3 1.4q-0.4 1.3-0.6 2.6-0.2 0.9-0.3 1.8-0.2 1.1-0.3 2.3-0.1 0.9-0.2 1.8c5 0.5 10.1 1 15.2 1.7 11.2 1.4 22.3 3.3 33.3 6-5.5-0.9-11.1-1.8-16.7-2.5q-8.4-1.2-16.8-2-7.6-0.8-15.1-1.4-0.1 0.3-0.1 0.6 0 1.1-0.1 2.3 0 0.9 0 1.9 0 1.3 0.1 2.6 0 0.8 0 1.5 0.1 1.5 0.2 3 0 0.5 0.1 1 0.1 1.8 0.3 3.6 0 0.2 0 0.4 0.1 0 0.1 0 6.5 0.3 13 0.8c11.1 1 22.1 2.4 33.1 4.5-5.6-0.7-11.1-1.3-16.6-1.7q-8.3-0.7-16.6-1.2-6-0.4-12-0.6-0.4 0-0.8-0.1 0 0.5 0.1 1-0.2-0.5-0.4-1c-6.7-0.2-13.4-0.4-20.2-0.4-11.1-0.2-22.2 0.3-33.2 1l-8.3 0.6c-2.8 0.2-5.5 0.6-8.3 0.9-5.5 0.4-11 1.4-16.5 2.1 10.8-2.4 21.9-4.2 33-5.1 11-1 22.2-1.5 33.3-1.5q9.8 0.1 19.6 0.6c-1.8-5.4-3.3-11.2-3.8-17q-7.3-0.5-14.7-0.8c-5.3-0.2-10.7-0.3-16.1-0.3-1.5 1-3.1 2-4.7 2.8-9.7 5.4-20.8 8.3-31.9 8.9-18.8 0.9-37.4-3.7-54.6-11.2-3.2-1.5-6.4-3-9.5-4.6-9.9-5.2-19.1-11.5-27.4-19.1-8.5-7.5-15.3-16.5-21.5-25.7-4-6.2-7.5-12.6-10.6-19.4-6.1-13.7-10.1-28.5-11-43.7-1-22.4 3-45.4 15.3-65 6.8-9.6 16.2-16.8 26.8-21.3 10.6-4.3 22.1-5.9 33.3-5.5 22.5 0.9 44.1 8.3 63 19.6 9.4 5.9 18.3 12.7 25.6 20.9 7.5 8.1 13.5 18 15.1 28.8-2.4-10.7-8.9-19.9-16.5-27.5-7.6-7.7-16.5-13.9-25.9-19.1-18.9-10.4-40.1-17-61.4-17.1-10.6-0.1-21.1 1.8-30.7 5.8-9.4 4.2-17.9 10.8-23.7 19.2-10.8 17.6-14.7 39.8-13.4 60.7 1.3 21.2 8.4 41.9 19.9 59.8 0.6 0.8 1.2 1.6 1.7 2.5 5.5 8 11.4 15.7 18.4 22.1 5.2 4.9 11 9 16.9 13 3 2 5.9 4 9 5.8 18.5 10.5 39.6 17.5 61.1 17.2 9.1-0.1 18.3-1.6 26.8-5.1q0.1 0 0.1 0 2.1-0.8 4.2-1.8 0.9-0.5 1.8-1-6.9 0.2-13.9 0.4l-4 0.2-4.4 0.3c-2.8 0.2-5.6 0.5-8.4 0.8-5.7 0.3-11.2 1.4-16.8 2 9.8-2.1 19.9-3.6 29.9-4.5 1.2-0.1 2.4-0.2 3.7-0.3q8.6-0.6 17.3-0.7c7.5-4.6 14.1-10.7 19.7-17.6-4.5 6.6-10.1 12.7-16.6 17.6q6.8-0.1 13.5 0.1 7.2 0.4 14.4 0.9c-0.2-5.1 0.2-10.3 1.8-15.5q0.5-1.5 1.1-2.8-5.6-0.8-11.2-1.3c-2.7-0.3-5.4-0.6-8.1-0.8l-8.1-0.5c-2.7-0.2-5.4-0.1-8.1-0.2-2.7 0-5.4-0.1-8.1 0l-6.7 0.1-1.4 0.1-8.1 0.6-4 0.2-4 0.5-8.1 1.1c8.5-1.8 17.2-3.2 25.9-3.8q3.2-0.3 6.4-0.4c10.8-0.4 21.7 0 32.6 1.1q5.9 0.6 11.8 1.5c2.3-4.6 5.9-8.7 10.3-11.5 5.8-3.9 12.7-5.4 19.2-5.8 13.2-0.4 25.9 3.4 36.9 9.7 7.5 4.3 14.4 10 19.4 17-1.7-8.5-1.8-17.2 1.9-23 1.1-1.9 3.6-4.8 6.9-7.1-22.4-57.2-80.7-142.9-112.7-178.1-28.8-31.9-148.4-49.4-194.9-40.1 1.9 21.7 2 43.2-0.1 64.2-7.5-25-17.9-48.4-30.3-70.3-31.7-98.4-109-197.2-212.4-205-0.8 105.1 64.9 235.6 218.3 303 0.1 49.1-1.3 160.7-154.7 224.8-117.5 49.2-195.1 139.9-197.5 231.2-1.8 64.7 34.4 118.3 101.9 150.9 23.1 11.1 37.4 24.8 41.6 39.2l16-10.4c7.7-5.3 15.5-10.5 22.3-16.5 6.9-5.9 13.1-12.8 15.6-20.8 1.4-4 1-8.2 0.1-12.6-0.9-2-1.6-4.2-2.7-6.3q-1.9-2.8-3.7-6 2.7 2.3 5.4 4.9c1.6 1.8 2.9 3.9 4.4 6 2 4.6 3.5 10.1 2.2 15.3-1.9 10.7-9.1 18.7-16.3 25.2-12.8 10.7-27.4 18.1-42.7 23.4 0.4 1.9 0.7 3.7 0.8 5.6 0.2 10.3-5.2 19.6-14.7 24.7-15.3 8.4-23.9 16.8-25.6 20.5 0.9 1 3.6 3.1 10 5.5 19.5 2.4 203.2 2.2 333.6 1.5-0.1-2.2-0.3-4.4-0.9-6.7-1.6-6.9-5.3-13.7-10.4-19.4-5-5.6-11.5-10.3-18.9-12.9-7.3-2.7-15.7-3.1-23.4 0.1 7.1-4.3 16-5.4 24.4-3.8 8.4 1.6 16.4 5.6 23.2 11.1 6.7 5.6 12.4 12.8 15.9 21.4 1.4 3.2 2.2 6.6 2.8 10.1q3.3 0 6.6 0c-0.5-11.9-2.7-24.1-7.2-34.1-6.8-15.1-20-25.5-37.7-24.3-18 0.7-37.2 7.6-56.9 11.1-9.9 1.7-20.1 2.8-30.2 1.8-10.1-1-19.9-4.3-28.2-9.7 7 3.3 14.5 5.2 22.1 5.7q0.4 0 0.9 0 1 0.1 2.1 0.1 1.6 0 3.2 0c4-0.1 8-0.7 12-1.4 17.5-9.8 34-18.7 49.1-28.7 15.3-9.9 29-20.8 40.1-33.4 7.5-8.5 14.5-18 19-28.6 2.1-5 3.7-10.3 4.5-15.8 5.1-35.3-4.6-76.6-9.9-95.4-1.8-6.5-3.1-10.3-3.1-10.3 1.3-1.6 16.1 26 31.1 55.8 7 13.9 14.1 28.2 19.8 40.3 5.7 11.8 10.1 21.5 11.9 26.4 8.6 17.8 12.5 36 18 54.6 3.1 10.5 5.8 21.1 8.6 31.5l4.1 15.2c2 7.2 4.7 11.1 5.5 12 0.3 0.4 0.6 0.8 0.8 1.1 0 0.1 0.2 0.3 0.2 0.3 11.2 15 27.1 31.2 74.8 27.7-0.7-4.1-1.9-8.1-3.8-12-4.2-8.8-11.9-16.3-22-19.5 10.6 0.7 21.2 6.5 28.3 15.3 3.6 4.4 6.6 9.4 8.8 14.9q0 0.1 0 0.1 0.2 0 0.4 0c9.4-1.2 15.7-4.3 15.9-7.8zm-213.3-209.1q0.2 3.6 0.3 7.2c0.1 12.8-1.1 25.8-5 38.6-0.9 3.1-2 6.4-3.2 9.4-1.3 2.9-2.4 5.8-3.8 8.6q-4.1 8.6-9 16.5-1.2 2-2.4 3.9-0.4 0.6-0.9 1.3-0.8 1.2-1.6 2.4-0.5 0.8-1.1 1.6-0.7 1.1-1.5 2.1-0.6 0.8-1.3 1.7-0.7 0.9-1.4 1.9-0.7 0.9-1.4 1.7-0.7 0.9-1.4 1.7-0.7 1-1.5 1.9-0.7 0.7-1.3 1.5-0.9 1-1.7 1.9-0.6 0.7-1.2 1.3-1 1-2 2.1-0.4 0.5-0.9 0.9-1.1 1.2-2.3 2.3-0.3 0.3-0.6 0.6c-23.4 22.8-53.8 37.7-84.9 40.9q-5.7 0.6-11.4 0.6c22.6-6.4 42.8-17.9 59.8-32.3 17.2-14.3 30.7-32.1 40.1-51.5 2.5-4.8 4.5-9.9 6.3-15 1-2.5 1.8-5.1 2.7-7.6 0.8-2.4 1.4-4.8 2-7.3 2.1-9.8 2.7-20.3 2.1-30.8-1.2-21-7-42.1-16.2-61.3-9.1-19.3-22-36.6-37.9-50.3-16-13.6-35.2-23.2-56.1-28.2-21-4.8-43.5-5.3-65.9-2.1-22.5 2.9-44.9 9.3-67.3 16.6 19.5-13.3 41.1-23.8 64.1-31 23.1-6.9 48.1-10.1 73.2-6.7 25.1 3.1 49.7 13.4 70 29.2 10.3 8 19.5 17.3 27.5 27.6-1.4-5.8-3-11.5-5-17.1-5.5-15.9-11.7-31.7-16.8-48.2-4.9-16.4-9-33.8-7.1-51.5 1-8.8 3.4-17.4 7.5-25.2 4.3-7.6 10-14.4 16.7-19.7-11.3 12.8-18.1 28.8-18.4 45.3-0.4 16.5 3.6 32.9 8.5 48.9 4.8 16.1 10.9 32.1 15.2 48.8 2.1 8.3 4 16.8 4.8 25.4q0 0.3 0 0.5c5.5 7.8 10.3 16.1 14.4 24.6q2.9 6.3 5.5 12.8c5.6 14.3 9.4 29.4 11.1 44.8q0 0.2 0 0.4 0.4 3.6 0.7 7.2 0 0.6 0 1.1zm-109.7-585c8.4 23.2 13.9 47.6 14.9 72-5.3-23.8-13.5-46.6-23.5-68.4-10.2-21.8-22.3-42.5-36.3-61.9-14.1-19.1-29.8-37.2-47.9-52.2-15.4-13-32.8-23.9-51.6-29.9 0.7 3 1.6 6 2.6 8.9 2.1 6.3 4.6 12.6 7.2 18.8q8.1 18.8 17.1 37.2c12.1 24.6 24.7 49 37.4 73.4-16.1-22.4-31-45.5-44.9-69.4-7-11.9-13.8-24-19.8-36.5-3.1-6.3-6-12.6-8.6-19.2-2.5-6.8-5.2-13.2-5.4-22.5l-0.2-7.5 8 1.4c25.8 4.5 48.6 17.7 67.9 33.7 19.3 16.2 35.8 35.2 49.6 55.9 13.8 20.7 25.1 43 33.5 66.2zm228.7 387c-9.5-15.9-18.5-31.1-20.3-48.5-5.2-0.6-10.4-1.3-15.6-2.3-1.3-0.3-2.6-0.7-3.9-1-3.7 20.1-4.2 41 3.5 59.2 4.2 10.2 10.6 19 17.3 28.4 3.3 4.7 6.6 9.8 9.4 15.5 2.6 5.9 4.7 12.4 4.8 19.2 0.3 3.7 0.1 5.9 0.1 8.9l0.2 8.5q0.1 8.4 0.5 16.9 0.9 16.8 2.6 33.6c1.6 15.4 3.8 30.7 6.5 46 7.2-11.4 12.4-24.2 15.9-36.1-0.2-12.2 1.9-21 3.9-29.6 2.9-11.7 5.8-23.9 2.6-49.4-3.7-29.7-16.3-50.8-27.5-69.3zm-293.2-580.7c35.8 16.3 103.5 84 121.4 146.3-3.5-74.1-35.9-188.1-113.8-219.5-6.5 17.1-9.2 43.3-7.6 73.2zm-237.5 891.6l8.7-4.9c-21.6-19-38.1-41.2-48.9-65.8l-1.6 0.7-1.2-2.5-10 3.3-9.2-6.8-8.7 8.4-12.1-3.1-5.6 11.5-12.7 1.2-1.4 12.5-11.2 5.3 3.1 11.7-8.2 8.9 7.4 9.8-4.9 12.6 11.3 8.5 2 15 14.9 3.4 7.9 13.5 15.5-2.4 12.2 9.8 13.3-7.6 14 3.9 7.7-11.5 12.7-3.6-0.2-13.3 9.4-10.9zm453 120.6h-0.5v0.2zm27.8-12.4c-0.8-16-3.9-32.6-10.9-46.7-4.2-8.3-10-15.8-17.6-20.6-6.2-3.9-13.5-5.9-21.1-6.3 10.4 5.3 18.8 14 24.6 23.5 6.1 9.8 9.9 20.3 12.5 30.9 1.9 7.7 3.2 15.1 3.9 23.1zm9.9-26.9c-0.2-0.8-0.4-1.7-0.6-2.5-0.7-3.1-1.1-5.9-1.6-8.7l-2.1-16.3q-0.5-3.3-0.9-6.7c-5.4-19.5-30.3-30.1-65.4-19.6 1.8-0.2 3.5-0.5 5.3-0.7 10.4-1 21.8 0.5 31.6 5.9 9.9 5.4 17.4 14 22.8 23.3 4.5 7.7 7.7 16 10.2 24.4zm-395.8-139.8c7.8 4.3 16.2 7.6 25 10.8-9.3 0.1-18.7-1.3-27.9-4-9.2-2.9-18-7.5-25.7-13.8-7.8-6.2-14.1-14.4-18.8-23.3-4.5-9-7.1-18.9-8.2-28.9-1.6-19.9 3.4-40.1 14-56.6 10.3-16.5 27.1-29.7 45.8-32.4-16.5 8.8-28.1 22.7-35.5 38.1-7.3 15.6-10.9 32.9-9.2 49.6 1.4 16.7 8.2 32.6 19.9 44.8 5.9 6.1 12.8 11.4 20.6 15.7zm562.3 113c0.1-4.2-5.2-9.8-15.4-11.9-44.1-8.9-70.8-77.8-83.3-148.5-4.6 6.6-9.7 12.7-15.4 18.2 15.3 79.2 43.7 129.8 64.1 133.9 14.1 2.9 26.4 10 35 19.4 9.6-2.7 14.8-7.2 15-11.1zm-137.9-604.5c0 10.3 8.1 18.6 18.3 19.1q-1 1.3-2.1 2.5 0 0 0 0.1c-2.2 2.4-4.7 4.5-7.5 6.2-3.6 2.1-7.7 3.6-12 4.2q-0.1 0.1-0.2 0.1-0.9 0.1-1.8 0.2-0.2 0-0.4 0-1.1 0.1-2.2 0.1c-18 0-32.5-14.6-32.5-32.5 0-18 14.5-32.6 32.5-32.6 10.8 0 20.2 5.3 26.2 13.4-10.2 0.5-18.3 8.8-18.3 19.2z"/></svg>