<svg version="1.2" xmlns="http://www.w3.org/2000/svg" viewBox="0 0 1757 1584" width="1757" height="1584">
	<title>1276475020-svg</title>
	<style>
		.s0 { fill: #826354;stroke: #000000 } 
		.s1 { fill: #5d463a;stroke: #000000 } 
		.s2 { fill: #000000 } 
	</style>
	<path id="path2826" class="s0" d="m500.1 0.5l57.2 191.6c50.6 129.1 67 229.1-2.9 308.9l-84.2 143.8c-70.9 102.8-39.7 190.4 37.3 271.2 92.6 77.7 206.2 103.2 265 222.3 15 30.3 69.4 97.1 89.5 131.2 65 100 99.3 154.1 190.4 221.2 14.5 9.1 26.9 20.7 40.9 30.3 13.6 9.3 25.7 20.7 41.7 26.5 5.3 1.8 12.2 2.7 16.6 2.6h14.6c8.5 2.2 18.4 0.4 24.8 6.8 15.2 8.6 29.4 20.9 46.7 24.8 18.3 2.8 37 1.4 55.4 1.4 8.5 0 12.8-8.6 17.5-14.6 2.5-15.2 10.3-3.3 10.2-2.9 2.2 2.9 5.5 5.4 8.8 7.3 8.1 4.8 17 8.2 26.2 10.2 15.4 2.2 31.1 1.2 46.7 0 6.3-1.5 12.2-4.9 17.5-8.7 2.2-1.6 3.5-3.9 5.8-5.9 0.4-0.2 9.1 0 10.2 0h21.9c9.2-0.3 18.8 0.1 27.4-3.1 2.3-0.9 4.4-2.4 6.2-4.1 3.5-5.5 8.7-9.5 14.1-13.1 2.9-1.6 6.3-2.1 9.2-3.7 6.2-3.6 11.4-8.6 16.9-13.3 4-3.7 5.9-6.4 10.8-12.2 1.4-2.7 1.6-5.8 1.7-8.8 0.3-5.4 0.4-9.4-1.7-16-2.8-3.1-5.7-6-8.8-8.8-1.9-2-3.9-3.8-5.8-5.8-2.7-3-2.4-8.6-1.4-12.2 2.6-4.5 8.4-6.8 13.1-8.2 0 0 7-0.1 10.2-1.5 5.1-2.1 9-6.5 13.1-10.2 4.4-4 8.5-8.3 12.1-12.9 3.2-4.2 7.4-9.1 8.3-13.3l2.9-19v-13.1c0.1-7.9-1.5-15.6-2.9-23.4-1.8-6.5-4.5-12.8-7.2-18.9-0.2-2.5-2-4.9-3.9-6.6-1.9-2.1-2.8-2.1-3.5-2.2-1-0.1-2.9 0-4.3 0h-7.3-4.4-14.6-2.3l-15.2-1.4h-4.4c-3.7-1.1-5.5-2.7-10.2-3.5-4.9-1.6-6.2-1.6-10.2-2.4-4.7-1.8-7.8-5.3-12.7-7.7-6.8-3.2-6.7-2.6-10.2-3.3-4-0.7-8.2-0.6-12.1-0.6-6.6-2.6-11.8-7.3-18-10.3l-40.1-24.6c-16.5-10.6-37.3-20.4-55.5-27.8l-12.3-3.8-3.6-1.1c-25.9-70.6-41.2-119.8-52.8-200.5-10.5-72.5-39.6-172.6-69.4-237.1-46.4-108.6-55.5-240.1-84.1-403.8-16-122.1-30.8-272.6-42.7-409.6h-582.2z"/>
	<path id="path2820" class="s1" d="m692.4 473.7c-9.9 26.4-6 85.9-6.3 111.4-0.6 58.6 11.9 79.4 36.8 115.8 16.2 23.6 45.6 62.8 51.9 51.3-46.5-79.2-74.4-171.8-82.4-278.5z"/>
	<path id="⬆" class="s2" d="m288.3 727.9v-49.6l92.3 92.3-92.3 92.3v-49.6h-188.2v-85.4z"/>
</svg>