<svg version="1.2" xmlns="http://www.w3.org/2000/svg" viewBox="0 0 1200 1200" width="1200" height="1200">
	<title>earth-crack-publicdomainvectors</title>
	<style>
		.s0 { fill: #000000 } 
		.s1 { fill: #1a1a1a } 
		.s2 { fill: #333333 } 
		.s3 { fill: #4d4d4d } 
	</style>
	<g id="_Artboards_">
	</g>
	<g id="publicdomainvectors.org">
		<g id="&lt;Group&gt;">
			<path id="&lt;Path&gt;" class="s0" d="m768.1 520.7l-166-29.2 22.8-31-51.3-28 45.2-31.6 76.2 0.9 80.3-30.6-87.5 26-68-2.8-26.6-39.3 10.2 40.6-63.7 33.7-82.7-18.4 39.8-23.7-85.6-7.7 59.3 10-43.5 25.5 114.2 26.3 36 23.3-37.5 31.4-108.9 36.1-10.7-42.2-92.8-16.9 66 23.8 1.8 50.6-30.4 30.7-112.4 6.9-19.6-45.3-103.6-9.9 82.8 16.4 6.5 47.2-69.6 32.2-110.7-1.5 114.7 15.9 110.2-39.7 107.1-4.6 42.8 35.3-96.3 15.3 21.4 40.7-75 26.8 98.2-21.5-14.3-38.3 85.7-9.2 96.4 27.6-50 29.9 55.3 33.7-83.9 17.7-8.9 54.4 25.4-49.8 94.2-11.5 45.6 25.9 20.5 56.5-132.1 14.2 149.9-7.7-3.6-59.8 78.6-10.7 73.1 30.6-66-40.6-87.5 6.1-91-55.9 53.5-28.4 128.6-10.7 53.5 7.6-4 29.3 48.6 25.9-32.1-27.6 11.6-34.3-50.9-11.7 48.2-36 76.8-3.1 44.6 37.6 78.5-10 7.2 35.3 37.5 36.8-23.6-39.1 0.4-36 74.5-16 61.1 21.3-60.2-28.7-89.7 14.1-67.8 4.7-28.6-27.7 41.1-18.4 74.9 8.5-76.3-16-68.3 21.3-87.4 0.8-12.5-65.9 114.2-18.4 64.3 12.2 83.9-1.5-83.2-3.5-51.4-17.1 24.3-34 99.6-2.1-101.8-2.9-13.8-29.9-56.2 3.2 48.6 1.2 5.4 27-28.6 33.6z"/>
			<path id="&lt;Path&gt;" class="s1" d="m395.1 547.5l-30.4 30.7v17.8l5.4-0.2 25 20.6z"/>
			<path id="&lt;Path&gt;" class="s2" d="m548.6 748.4l12.5-1.5 45.6 25.9 20.5 56.5-132.1 14.2 149.9-7.7-3.6-59.8 78.6-10.7 73.1 30.6-66-40.6-87.5 6.1-91-55.9z"/>
			<path id="&lt;Path&gt;" class="s1" d="m768.2 647.5l32.5-24.2-0.4-18.3-12.5-65.9 105.3-17v-15.2l-124.9 13.8z"/>
			<path id="&lt;Path&gt;" class="s2" d="m624.9 495.5l-22.8-4 22.8-31-51.3-28v29.9l3.6 2.3-3.6 3v224.5l28.5-15.1 22.8-1.9z"/>
			<path id="&lt;Path&gt;" class="s1" d="m577.2 464.7l-37.5 31.4v253.4l8.9-1.1v-42.9l28.6-15.2z"/>
			<path id="&lt;Path&gt;" class="s2" d="m539.7 496.1l-108.9 36.1v112.9l1.8-0.2 96.4 27.6-50 29.9 55.3 33.7v14l5.4-0.6z"/>
			<path id="&lt;Path&gt;" class="s3" d="m768.1 520.7l-166-29.2v185.6l128.6-10.7 37.5 5.3v-13.6l-10.8-2.5 10.8-8.1z"/>
			<path id="&lt;Path&gt;" class="s2" d="m757.4 670.2l26.8 3.8-4 29.3 48.6 25.9-32.1-27.6 11.6-34.3-50.9-11.7z"/>
		</g>
	</g>
</svg>