<svg version="1.2" xmlns="http://www.w3.org/2000/svg" viewBox="0 0 1056 1087" width="1056" height="1087"><style>.a{fill:#fbb03b}.b{fill:#fff}</style><path class="a" d="m230.6 82.4q-11.2 7.4-21.9 15.6c3.2 3.1 7.8 3.5 12.3 2.5 3.4-0.6 6.5-1.4 9.5-2.2-1.2-5.2-1.3-10.7 0.1-15.9z"/><path class="a" d="m197.6 106.9c-18.4 15.3-35.4 32.4-50.8 51 5.4 1.4 9.8-0.7 14.3-3.5 8.2-5.4 15-11.7 21.9-18.1 0.4-0.4 2.6-2.4 3-2.8 4.3-4.1 9.2-7.6 14.5-10.2-2.4-5.1-3.7-10.8-2.9-16.4z"/><path class="a" d="m378.1 33c29.3-12.1 63-14 93.3-4.2 5.2 1.7 10.3 3 14.5-2 5.4 3.6 6 11.2 4.4 17-2.4 8.2-7 16.1-12.8 23.4 100.8-2.6 200.7 54.8 254.6 140.7 20.2 31 35.4 65 46.2 100.3 7.9 25.4 9.3 52.8 7.3 78.6-2.6 36.9-12.1 71.2-13.1 105.7q0 1.7-0.1 3.3c4.9 4.4 10.2 6.9 15.8 9.7 6.7 3.1 13.5 6.1 20.3 9q3.4-10.8 6.1-21.9c50.6-205-75.1-412.9-280.2-463.5-30.6-7.5-61.4-11.2-91.6-11.2-70.3 0-138 19.6-196.5 54.5 1.9 3.9 5.7 5.9 10 6.6 8.2 1.5 15.2 1.5 22.7 3.6 9.8 2.8 18.6 9.3 24.3 17q0.8 1.2 1.6 2.4 0.4-1.1 0.8-2.3c12-32 41.7-54.5 72.4-66.7z"/><path class="a" d="m325.8 142.2q0.3-0.1 0.5-0.3 0.1-0.1 0.2-0.3-0.4 0.3-0.7 0.6z"/><path class="a" d="m110.8 591.5c26 45.4 61.2 85.4 103.8 117 8.4-13.8 13.3-29.9 4.6-44.9-5.4-9.9-14-18.4-22.6-26.4-9.2-8.6-19.2-17.1-29.1-26.4-15.3-14.4-31.2-31.8-40.9-51.8-3.4-7.1-6.2-14.6-8.2-22.3-0.2 9.9 0 19.8-0.6 29.6-0.4 7.9-2 18.1-7 25.2z"/><path class="a" d="m252.2 179.2c-4.3 2.1-8.6 4.9-12.8 8 7.8-3.1 16.1-5 25.1-5.2-11.1 6.4-20 14.6-26.9 24.2 8.1-8.3 17.8-15.2 28.3-20.5-8 10-15.3 20.6-20.1 32 8.6-12.7 17.6-25.4 25.7-38.2-6.7-0.6-13.1-0.9-19.3-0.3z"/><path class="a" d="m435.9 783.9c16.2 0.3 32.3-0.4 48.1-2.2q-0.2-0.1-0.3-0.2c-15.1-12.4-30.7-24.2-46-36.3 1.4 13.1 0.8 26.1-1.8 38.7z"/><path class="a" d="m235.5 696.2c-3.9 6.5-8.9 12.1-14.4 17.1q4.4 3.1 9 6.2 1.6-2 3.1-4.1c14.6-19.9 19.4-40.9 8.1-63.5-2.1-4.2-4.5-8.4-7.2-12.5 9 17.9 12.7 37.7 1.4 56.8z"/><path class="a" d="m129.3 403.9q-2.1 0.7-4.2 1.3 1.2 0.1 2.5 0.4 0.8-0.9 1.7-1.7z"/><path class="a" d="m540.6 300c19.7 23.2 24.3 55.7 21.1 85.8-1.4 14.8-4.1 29.1-7.3 43.3q3.1-3.7 6.3-7.2 1.7 5.3 3 10.6c0.5-13.4 1-26.7 1.1-40.5 0.1-20.4-0.7-41-5.6-60.8-2.8-10.6-6.6-20.9-11.2-30.7q1.4 3.7 2.7 7.3-5.1-3.9-10.1-7.8z"/><path class="a" d="m480.6 424.9q-7.6 10.4-18.2 18l-0.5 24.6q0.7 1.6 1.4 3.2c5.7-15.3 11.7-30.5 17.3-45.8z"/><path class="a" d="m496.8 369.9c1.4-8.2 1.9-15.8 1.3-21.8-0.8-10.3-5.8-18-14.7-23.2q-1.1-0.6-2.2-1.3 1.6 2.6 3.1 5.2c7.2 12.4 11.6 26.7 12.5 41.1z"/><path class="a" d="m706.4 678.6q-1-0.4-2.1-0.9 0.8 0.7 1.6 1.4 0.3-0.3 0.5-0.5z"/><path class="a" d="m152.9 222.7c-9.4-1.4-21.5-5.7-24.7-15.7 4.9-1.8 7.7-4.4 10.2-6.9 5.6-6 10.5-12.3 15.9-18-6-3.6-11.8-10.3-13-17.3-32.5 41.4-57 90.1-70.4 144.5-5.7 23-9.1 46-10.5 68.8q4.6-3 9.4-5.6c16.7-9 38.4-13.6 54.3-21.8 20.3-9.7 25.1-24.4 24.3-46.5-0.4-10.2-2.8-21-2.1-31.3 0.6-17.9 6.9-35.2 16.6-49.8q-4.9 0.2-10-0.4z"/><path class="a" d="m301.1 684.3c-2.2-5-3.8-9.7-5.6-14.1q-2.2-5.9-4.8-11.5-2-2.5-3.8-5.1-0.5 0.2-1 0.3c-3.9 1.2-8.2 1.8-12.4 1.7 1.4 16.3-1.8 32.6-12.4 47.1-6.3 8.7-14.4 16-23.3 21.8 34 21.6 72 38.2 113.3 48.3 14.6 3.6 29.3 6.3 43.9 8.2-2.1-19-9.9-35.1-21.7-49.5-11.7-14.2-26.5-26.1-42.1-36.2-1.2-0.9-4-2.7-5.3-3.7-6.6-4.6-12.9-9.6-18.9-15.1-1.7 2.7-3.7 5.3-5.9 7.8z"/><path class="a" d="m96.2 563.5c-1.1-3.3-2.2-6.6-3.2-9.8q-0.2-0.9-0.5-1.7-0.4 0.9-0.7 1.7 2.1 5 4.4 9.8z"/><path class="a" d="m212.4 539.5q0-2.5 0.3-5-2.1-0.6-4.2-1.4 0.7 1.3 1.3 2.3 1.3 2.1 2.6 4.1z"/><path class="b" d="m720.7 339.3c3.8 20 5 40.3 5.1 60.5 0.5-20.6-0.2-40.9-5.1-60.5z"/><path class="b" d="m654.5 211.6c-29.6-36.3-66.7-65.9-111.2-84.7-36.3-15.4-76.1-23.5-115.6-22q-0.9 0.4-1.7 0.7c-19 7.8-39.5 12.6-58.9 18.2-11.4 3.1-21.5 5.8-30.4 10.6q-2.7 2.4-5.3 5.1c43.7-20.6 92.6-31.9 138.7-21.5v1.2c69.9 6.7 136.4 41 184.4 92.4z"/><path class="b" d="m748.6 551c-16-22.8-22.5-51.1-23.9-78.7 0.2 19.9 2 37.7 9.7 56.1 3.7 8.3 8.5 15.8 14.2 22.6z"/><path class="b" d="m785.6 386.8c2-25.8 0.6-53.2-7.3-78.6-10.8-35.3-26-69.3-46.2-100.3-53.9-85.9-153.8-143.3-254.6-140.7-2.8 3.6-6 7.1-9.4 10.4 59.3-0.4 119.2 20.1 167 54.7 56.2 40.5 96.1 99.9 119.2 164.4 7.1 18.9 12.6 39.4 13.5 59.5 2.6 38.1-5.7 75.3-8.3 112.3-1.8 24.8-0.1 50.6 11.6 72.9q2.6 5.1 5.8 9.9c-7.3-16.8-13.7-41.2-5.1-56.1q0.3 0.3 0.6 0.6 0.1-1.6 0.1-3.3c1-34.5 10.5-68.8 13.1-105.7z"/><path class="b" d="m1019.1 776.6c-17.1 7.1-36.5 5.4-54.2 0.1-6-1.8-11.7-4.3-17.1-7.2q0.6 2 1.1 4 0.4 1.6 0.8 3.3c4.3 1.9 8.8 3.4 13.4 4.5 18.8 4.6 39 5.3 56.5-3.4 5.4-2.8 11-7.8 11.6-14.1-1.1 6-6.6 10.4-12.1 12.8z"/><path class="b" d="m900.7 673.9q-0.3 0-1.1-0.1c-0.7-0.1-1.7-0.2-2.8-0.3-4.2-0.3-8.4-0.5-12.7-0.8 5.3 3 10.5 6.5 15.4 10.4q1.9 1.5 3.7 3.1-0.4-3-0.9-5.9c-0.5-2.4-0.9-4.6-1.6-6.4z"/><path class="b" d="m768.1 639.9c8.5 5.6 16.8 11.6 24.9 17.8q7.2-1 14.4-1.5-6.5-2.3-12.9-4.8c-8.8-3.5-17.7-7.3-26.4-11.5z"/><path class="b" d="m925.9 653.2q-1.4-0.1-2.8-0.2c1.6 1.9 3 4.1 4 6.5 4.9 11.9 3.8 23.9 3.8 36.1-0.4 7.2-0.5 16.1 1.1 23.1 4.2 20.5 19.2 36.3 37.8 45.7 15.5 7.7 39.8 14.4 55.8 5.6 2.4-1.4 4.4-3.5 5.6-6.2-2.8 5.2-8.3 7.1-13.7 7.9-15.9 1.8-32.5-4.1-45.8-11.9-21.2-12.6-34.4-33.5-31.3-57.9l0.2-2.1 0.3-4.5c1.1-14.4 1.6-29.9-4.3-42.3q-5.4 0.3-10.7 0.2z"/><path class="b" d="m900.1 673.1q0.2 0.2 0.3 0.4c-0.1-0.3-0.2-0.7-0.4-0.9-0.2-0.2-0.2 0.1 0.1 0.5z"/><path class="b" d="m604.5 248.3c12.3 16.9 22.3 35.5 29.5 55.1 21.7 58.1 12.8 124.1 13.7 183.4 1.2 53 14.4 86.7 59.6 116.5 4 2.6 7.9 5.1 12.1 7.5q2.5 1.3 4.9 2.7c-20-15.3-37.1-33.9-48.3-57.1-28.1-56.3-13.9-121.1-16.5-181-1.1-26.1-5.8-52.1-16.8-75.9-32.2-70.1-98.7-125.3-173.4-146.7l-0.1 3.8c53.8 14.5 103.6 47.6 135.3 91.7z"/><path class="b" d="m750.8 554.2c-0.8-1.1-1.5-2.1-2.2-3.2-5.7-6.8-10.5-14.3-14.2-22.6-7.7-18.4-9.5-36.2-9.7-56.1q-0.1-2.1-0.2-4.1c-1-22.6 0.8-45.6 1.3-68.4-0.1-20.2-1.3-40.5-5.1-60.5-1.2-4.9-2.6-9.7-4.4-14.5-14.1-41.1-34.8-79.9-61.8-113.2-48-51.4-114.5-85.7-184.4-92.4l-0.3 8.8c82.5 11.8 161.9 64.9 204 135.7 35.8 58.5 35.6 116 32.9 180.8-3.3 74.2 8.8 115.9 74.7 154.4 21.2 12 43.6 23 66.9 30.9-14.4-8.5-27.6-18.9-39.1-31-22.6-10-43.5-24.5-58.4-44.6z"/><path class="b" d="m865.1 885.5c8.6-20.1 14.6-41.7 16.3-64.7q0.2-3.4 0.3-6.8-1.1-1.2-2.2-2.5c0.2 25.2-5.9 50.9-14.4 74z"/><path class="b" d="m825.4 744.4c-31.3-27.3-69.4-45.7-106.3-64.6-10.5-5.4-21.6-10.4-32.4-16 5.8 4.5 11.6 9 17.3 13.7q0.1 0.1 0.3 0.2 1.1 0.5 2.1 0.9 0.8 0.3 1.5 0.7c29.8 12.6 59.1 26.6 85.6 45 10 5.8 19.2 12.5 27.6 20.3 12.5 11.4 22.1 25.9 28.3 41.7 13.9 28.6 17.8 61.5 15.7 99.2 6-54.6 4.6-103.1-39.7-141.1z"/><path class="b" d="m543.7 290.7c1.5 3.1 3 6.4 4.3 9.8 4.6 9.8 8.4 20.1 11.2 30.7 4.9 19.8 5.7 40.4 5.6 60.8-0.1 13.8-0.6 27.1-1.1 40.5 10.3 40.4 8.2 82.7 20.8 121.8 5.7 18.1 15.5 33.2 27.5 46.7-15.2-22.3-25.1-47.9-29.5-76.1-7.4-44.2-2.6-89.2-2.8-132.8-0.1-19.4-1.3-39.4-5.5-58.1-9.3-38.1-30-71.4-57.7-97.8 7.3 10.2 12.8 21.5 15 33.3 4.5 6.7 8.6 13.7 12.2 21.2z"/><path class="b" d="m724.3 613.5q-2.4-1.4-4.9-2.7c-4.2-2.4-8.1-4.9-12.1-7.5-45.2-29.8-58.4-63.5-59.6-116.5-0.9-59.3 8-125.3-13.7-183.4-7.2-19.6-17.2-38.2-29.5-55.1-31.7-44.1-81.5-77.2-135.3-91.7l-0.2 8.6c66.9 21.4 125.6 72.2 150.3 138.4 6.4 16.9 10.4 35.3 12.6 53 5.3 43.2 0.5 88.7 1.8 130.9 0.7 19.3 2.7 38.3 8.2 56.4 11.3 38.9 41.2 67 76.4 86.9 6.8 3.9 14.4 8.5 21 12.6 27.8 17.3 59.2 36.9 85.3 60.6-10.6-12.7-21.9-25.3-31.8-39.6q-4.8-2.7-10-5.3 3.3 0 6.5 0.1-0.3-0.4-0.6-0.8 2.2-0.4 4.3-0.7c-8.1-6.2-16.4-12.2-24.9-17.8-15.3-7.4-30.2-16.2-43.8-26.4z"/><path class="b" d="m888.4 1031.2c-23.3-16.3-39.3-41.1-51-66.6-17-38.2-25.4-78.6-30.9-119.5-0.8-6.1-1.3-12.6-2.4-18.7-2.6-15.2-9.8-28.3-21.7-38.1-7.8-6.5-17.6-11.7-28.4-16.1-5-2-10.2-3.8-15.4-5.5q3.4 2 6.7 4.1c12 8 22.9 17.7 31.1 31.7 8.4 7.9 13.4 17.9 15.3 31 6.4 46.4 16.5 91.6 37.4 134.3 13.2 26.3 30.8 51.3 56.1 67.4 24.2 16 55.7 19.5 82.6 10-26.6 7.1-56.7 2.5-79.4-14z"/><path class="b" d="m505.1 572.7c0.3 8.1 1.9 13.7 4.8 20.7q1.2 3.2 2.5 6.2c-3.8-11.1-6.2-22.3-7.2-33.5q-0.1 3.3-0.1 6.6z"/><path class="b" d="m513.6 705.5c13.1 7.1 26.8 10.3 41.3 13.5 7.5 1.5 15.1 2.9 22.7 4.2-33.4-13.7-63.9-33-86.4-62.2 3.7 10.7 7.1 21.4 9.4 32.9q6.6 5.8 13 11.6z"/><path class="b" d="m481.2 323.6q1.1 0.7 2.2 1.3c8.9 5.2 13.9 12.9 14.7 23.2 0.6 6 0.1 13.6-1.3 21.8 0.8 12.9-1.1 25.8-6.2 37.5-2.7 6.4-6.1 12.2-10 17.5-5.6 15.3-11.6 30.5-17.3 45.8 4.6 11.2 5.3 23.6 4.6 35.8 5.7-18.9 12.5-37.2 19.1-55.7 8.4-23.9 17.4-48.2 21.9-72.5 4.5-24.2 4.1-49.4-18.8-62.1-8.1-4.5-16.2-8.9-24.4-13.3v0.9c5.8 6.1 11 12.6 15.5 19.8z"/><path class="b" d="m561.8 385.8c3.1-30.1-1.4-62.6-21.2-85.8-7.5-5.7-14.9-11.4-22.4-17-12.4-2.3-24.7-3.8-37-5.5q10.5 4.3 21 8.8c31.9 13.2 46.6 41.8 47.2 75.1 0.2 35.8-9.9 70.3-20.3 104 7.3-12.9 15.8-25.1 25.3-36.3 3.2-14.2 5.9-28.5 7.4-43.3z"/><path class="b" d="m821.1 744.6c-8.4-7.8-17.6-14.5-27.6-20.3-21.9-12.8-47.1-21.4-73.1-28.6-7.6 2.1-15.1 3.6-22.7 4.6-6.2 0.8-12.5 1.3-18.8 1.5 59.5 14.6 118.1 28.1 148.6 72.9 10.8 16.3 16.1 35.7 16.9 54.9l0.2 2.5 0.3 9.6c1.2 25.7 3.6 51.3 8.2 76.5 7.1 36.4 18 74.6 44.8 101.4 18.4 18.3 43.9 26.2 69.9 25.6-13.5-0.9-26.5-3.4-37.8-8.6-13.9-6-25.5-15.8-34.4-27.8-29.4-40.8-34.6-99.6-37.1-149.2-0.6-11.1-0.5-23.1-0.8-34.2-0.5-13.3-3.3-26.6-8.3-39.1-6.2-15.8-15.8-30.3-28.3-41.7z"/><path class="b" d="m341.3 89.5c28-21.3 62.6-30.6 96-39.9 13.7-4 28-6.4 40.7-12.5 4.1-2.1 7.5-5.5 7.9-10.3 0.9 2.4 1 5.2 0.1 7.9-6.9 19.6-65.1 37.7-85 44.6-33.3 11.5-83.5 30.6-89 70.1q6.8-3.7 13.8-7.2 0.3-0.3 0.7-0.6c11.1-23.1 35-38.6 58.2-48.3 26.7-10.6 55-15.5 83.4-15.7 3.4-3.3 6.6-6.8 9.4-10.4 5.8-7.3 10.4-15.2 12.8-23.4 1.6-5.8 1-13.4-4.4-17-4.2 5-9.3 3.7-14.5 2-30.3-9.8-64-7.9-93.3 4.2-30.7 12.2-60.4 34.7-72.4 66.7q-0.4 1.2-0.8 2.3c4.4 6.8 7.1 14.2 8.2 21.9 5.5-13.8 16.6-25.9 28.2-34.4z"/><path class="b" d="m426 105.6q0.8-0.3 1.7-0.7c-3.9 0.1-7.8 0.3-11.7 0.7-27.7 2.8-58 10.1-79.3 28.8 8.9-4.8 19-7.5 30.4-10.6 19.4-5.6 39.9-10.4 58.9-18.2z"/><path class="b" d="m467.8 213c25.5 13.3 47.4 32.4 63.7 56.5-2.2-11.8-7.7-23.1-15-33.3-14.4-13.8-30.7-25.8-48.4-35.6z"/><path class="b" d="m467 250.1l-0.5 21.5q7.3 2.9 14.7 5.9c12.3 1.7 24.6 3.2 37 5.5-16.3-12.2-33-23.6-51.2-32.9z"/><path class="b" d="m723.8 694.7c-4.1 0.2-8.2 0.2-12.3 0.1-20.2-0.1-40.9-2.9-60.5-8-57.8-14.3-112.3-52.7-124.1-114.7-10.1-53 10-104.2 33.8-150.2q-3.2 3.5-6.3 7.2c-9.5 11.3-18 23.4-25.3 36.3-3.8 12.5-7.7 24.8-11.2 37.1-5.9 20.5-12 42.9-12.7 63.6 1 11.2 3.4 22.4 7.2 33.5 29.9 67.5 98.8 85.6 166.5 102.2 6.3-0.2 12.6-0.7 18.8-1.5 7.6-1 15.1-2.5 22.7-4.6q1.7-0.5 3.4-1z"/><path class="b" d="m563.7 432.5q-1.3-5.3-3-10.6c3.6 75.2-20.6 146.4 45.6 202.7 23.2 20.4 52.7 36.1 80.2 50.6 12.6 6.4 24.9 12.4 37.3 19.4-5.3-5.3-11-9.9-16.7-14.6q-0.6-0.5-1.2-0.9-0.8-0.7-1.6-1.4-0.2-0.1-0.3-0.2c-5.7-4.7-11.5-9.2-17.3-13.7-9.4-4.8-18.7-9.9-27.2-15.9-19.3-13-35.2-28.8-47.5-46.9-12-13.5-21.8-28.6-27.5-46.7-12.6-39.1-10.5-81.4-20.8-121.8z"/><path class="b" d="m895.6 789.6c-6.4-10.8-11.5-21.4-17.4-32.2-22-41.7-45.8-70.4-85.4-93 9.9 14.3 21.2 26.9 31.8 39.6 16.5 14.8 30.8 31.3 40.8 49.9 9.9 17.9 14 37.6 14.1 57.6q1.1 1.3 2.2 2.5c6.1 6.9 13.2 12.8 21.1 17.5 14.3 8.5 32.1 13.1 48.5 8.5q2.9-0.8 5.6-2.1c-25.6-3.8-44.2-19.4-61.3-48.3z"/><path class="b" d="m947.8 769.5c-23.4-13-40-36.2-42.6-64-0.6-6.1-1.2-12.9-2-19.3q-1.8-1.6-3.7-3.1c-4.9-3.9-10.1-7.4-15.4-10.4-6.1-0.4-12.2-0.9-18.2-1.7-20.1-2.7-39.6-8-58.5-14.8q-7.2 0.5-14.4 1.5-2.1 0.3-4.3 0.7 0.3 0.4 0.6 0.8c50.9 2.6 92 39.1 116.6 82.5 12.2 20.3 20.8 42.5 34.4 60.3 7.9 10.8 18.5 17 29.9 22.1-1.5-1-2.9-2-4.1-3.1-7.3-5.9-10.8-16.1-12.4-24.4-1.4-6.5-2.5-13.2-4-19.8q-0.4-1.7-0.9-3.3-0.4-2-1-4z"/><path class="b" d="m480.6 424.9c3.9-5.3 7.3-11.1 10-17.5 5.1-11.7 7-24.6 6.2-37.5-0.9-14.4-5.3-28.7-12.5-41.1q-1.5-2.6-3.1-5.2c-4.5-7.2-9.7-13.7-15.5-19.8l-0.9 37.4c21 31.5 18.1 70.2-2.3 100.7l-0.1 1q10.6-7.6 18.2-18z"/><path class="b" d="m715 841.6c8.7 16.6 14 35.5 17.6 54.4q0-0.3 0-0.6c1.4-21.5 4.9-53.9-12-69.9-9.7-8.9-23.6-15.5-36.3-21.2 12.8 9.6 23.3 22.7 30.7 37.3z"/><path class="b" d="m739.8 948.9q0.4 2.9 0.7 5.6c3.6 1.5 7.7 1.9 11.3 1-4.3-0.6-8.7-2.8-12-6.6z"/><path class="b" d="m595.4 777c10-2.3 20.6 0.2 29.6 5.3q3.3 2 6.4 4.4 5.4-0.2 10.6 0.4-3.1-1.2-6.1-2.4c-21.8-8.9-52-20.2-78.1-35.3q5.3 6.2 10.2 12.7c9.8 3.2 19.1 8.3 27.4 14.9z"/><path class="b" d="m745.3 770.8q-3.3-2.1-6.7-4.1c-18.5-5.9-38-10-57.2-14.2-33.9-7.2-70.3-15.4-103.8-29.3-7.6-1.3-15.2-2.6-22.7-4.2-14.5-3.2-28.2-6.4-41.3-13.5q6.1 5.4 11.9 10.8c21.1 13.5 48.3 21.1 71.1 28.1 40.7 12.4 83.2 21.5 121.8 41 18.6 9.8 35.2 22.7 41.4 44.7 9.9 32.1-3.1 64.4-12 93.3-2.5 9-5.5 19-0.1 27.4 1.1 1.7 2.5 3.3 4.1 4.7-1.9-3.8-2.8-7.3-2.2-11.2 0.8-3.9 3-7 5.1-10.3l6.2-9.1c13.2-19.6 23.7-40 26.5-65 2.2-18.7-1.2-39.3-10.4-56.2q-0.3-0.6-0.6-1.2c-8.2-14-19.1-23.7-31.1-31.7z"/><path class="b" d="m614.1 907.3c-2.8-6.5-4.9-13.2-6.6-20.1 0.3 14.7 0.1 29 2.6 42.9 8.4 5.7 18.4 9.1 28.5 7.6 2.9-0.5 5.6-1.2 8.3-2.5-7.2-0.6-14.4-4.1-19.9-9.1-5.6-5.2-9.8-11.9-12.9-18.8z"/><path class="b" d="m624.3 787.3q3.6-0.5 7.1-0.6-3.1-2.4-6.4-4.4c-9-5.1-19.6-7.6-29.6-5.3 10.7 8.6 19.7 19.6 25.5 31.9 12.7 24.6 13.6 55.7 13.4 80.9 0.1 9.7 0.1 19.7 3.1 29.1 2 6.1 5.1 10.9 9.5 16.3-0.4-3.1-0.9-5.6-1.1-8.1-0.7-7.7 0.9-15.3 4.4-22q0.8-1.8 1.7-3.7 0-0.4 0-0.9c-0.1-50.4 3-70-27.6-113.2z"/><path class="b" d="m703 1017.9c-13.5-22.5-19.9-49.6-22.7-74.9-5.6-42.2 0-88.4-24.9-124.8-8.2-12-19.3-21.9-31.1-30.9 30.6 43.2 27.5 62.8 27.6 113.2q0 0.5 0 0.9c-0.2 39.7 4.4 85.2 26.9 120.9 23.6 39.2 69.6 64.6 115.4 58.8-37-7.3-71.9-29.8-91.2-63.2z"/><path class="b" d="m739.8 948.8c-11.1-13.6-8.1-36.7-7.2-52.8-3.6-18.9-8.9-37.8-17.6-54.4-7.4-14.6-17.9-27.7-30.7-37.3q-1.2-0.6-2.3-1.1c-12.9-5.6-26.4-10.8-40-16.1q-5.2-0.6-10.6-0.4-3.5 0.1-7.1 0.6c41.2 8.3 66.6 38.5 76.8 78.1 6.6 24 8.3 49.9 11.2 73.8 6.9 68.3 27.7 101.6 81.9 141.9-37-52.5-46.5-70.5-53.7-126.6q-0.3-2.7-0.7-5.6 0 0 0-0.1z"/><path class="b" d="m969.3 631.3c-58.2 10.2-125.3-31.2-163.8-72.1-13.8-15-35.9-42.8-33.7-64-8.6 14.9-2.2 39.3 5.1 56.1 17 25.9 44.7 44.8 71.7 60.7-9.1-2.1-18-4.8-26.8-8.1q-6.4-2.3-12.6-5.1c11.5 12.1 24.7 22.5 39.1 31 13 4.4 26.2 7.8 39.7 9.9 2.8 0.3 10.6 1.6 13.5 2.2 8.1 1.3 16.3 4.8 21.6 11.1q1.4 0.1 2.8 0.2 5.3 0.1 10.7-0.2c19.2-1.2 39-7.1 53.2-20.4 5.6-5.4 10-11.9 12-19.1-8 9.6-20.3 15.3-32.5 17.8z"/><path class="b" d="m808.5 514.5c-6.8-2.9-13.6-5.9-20.3-9-5.6-2.8-10.9-5.3-15.8-9.7q-0.3-0.3-0.6-0.6c6.8 16.8 33.6 36.5 48.2 47.9 40.6 29.6 98.4 68.8 148.4 74.6 11.3 1.1 22.5-0.1 33.4-4.2-15-0.9-25.1-5.1-34.3-9.8-9.1-4.7-17.3-10.1-25.5-15.3-34.3-22.4-68.8-44-106.9-61.9-8.2-4-16.8-7.7-25.4-11.5q-0.6-0.2-1.2-0.5z"/><path class="b" d="m396.1 829.9c13.7-27.9 16.3-60.4 3.9-88.9-9.6-22.6-26.9-41.7-46-57.1-2.7-2.2-11.3-8.7-14.3-10.9-8.1-6.3-15.9-13.2-22.7-21-1.4 6.7-3.7 13.2-6.9 19.3q-1.4 2.7-3.1 5.2c6 5.5 12.3 10.5 18.9 15.1 1.3 1 4.1 2.8 5.3 3.7 15.6 10.1 30.4 22 42.1 36.2 11.8 14.4 19.6 30.5 21.7 49.5q0 0.6 0.1 1.3 0.1 0.8 0.2 1.6c2 26.6-7.5 57.3-24.2 79.3q-1.8 2.4-4.1 4.6c13-9.6 22-23.7 29.1-37.9z"/><path class="b" d="m288 653.3q-0.6 0.1-1.1 0.3 1.8 2.6 3.8 5.1-1.3-2.8-2.7-5.4z"/><path class="b" d="m435.9 783.9c2.6-12.6 3.2-25.6 1.8-38.7-7.2-5.6-14.3-11.3-21.4-17.1q1.2 3 2.2 6.1c11.2 33.4 4.5 71.4-15.2 99.8-4.8 7-10.1 13.5-16.1 19.3-6.1 5.7-12.6 11.2-20.2 14.5 8.4-2 16-6.8 23-11.8 24.3-18.4 39.7-43.4 45.7-70.7q0.1-0.7 0.2-1.4z"/><path class="b" d="m586.1 938.9c-12.4-27.6-14.1-60.3-24.1-87.2-6-17.7-14.9-33.6-26.4-47.8-11.9-14.8-26-27.2-40.5-39.6-38.4-32.8-80.9-62.5-114.5-101.2-10.8-12.4-20-25.8-26.5-39.9-4.8 2.6-10.7 5.8-17 9.2 6 7.8 13.8 15.6 23.9 23.6 23.5 19.5 44.4 43.2 55.3 72.1 7.1 5.8 14.2 11.5 21.4 17.1 15.3 12.1 30.8 23.9 46 36.3q0.1 0.1 0.3 0.2 0.8 0.7 1.6 1.3c12.8 10.8 25.2 21 36.3 33.4 16.8 18.5 27.4 41.8 34.6 66.5 6 19.8 10.7 41.1 21.3 60.3 11.1 20.7 29.7 35.7 52 42.7 10.1 3.3 20.3 5.1 30.5 5.9-9.8-2.1-19.6-5-29-9.2-19.8-8.4-36.5-23.9-45.2-43.7z"/><path class="b" d="m598.9 843.2c-7.3-36.5-21.2-56.5-44.9-84.4 4.7 0.7 9.4 1.8 13.9 3.3q-4.8-6.5-10.1-12.7c-22-12.7-41.1-28.2-49.7-47.2 5 5.4 10.9 10 17.4 14.1q-5.8-5.4-11.9-10.8-6.4-5.8-13-11.6 0.6 2.5 1 5.1c-12.3-0.5-24.3-2.9-35.8-6.8 17.6 15.1 35.5 30.1 52.6 45.9 9.4 8.7 19 17.9 27.7 27.6 12.7 14.2 23.5 30.3 31.3 47.7 13.3 28.8 16 61 18.8 91.8 2 19 5.4 37.3 17.2 52.5 11.9 15.6 29.3 25.7 46.9 34.1-8.5-5.6-16.8-11.3-24-17.7-13.3-11.3-23.3-26.5-26.1-43.6q-0.1-0.2-0.1-0.4c-2.5-13.9-2.3-28.2-2.6-42.9-3.7-14.6-5.5-29.7-8.6-44z"/><path class="b" d="m463.3 470.7q-0.7-1.6-1.4-3.2l-0.7 27.1c0.4 23.4-1.5 70.4-23.4 86.2 3.2 27.5 19.4 52.6 34.8 75.7 6.2 9.2 13 18.6 19.3 27.9 3.3 4.6 6.6 9.4 9.7 14.6q-0.4-2.6-1-5.1c-2.3-11.5-5.7-22.2-9.4-32.9-11.9-15.1-21.1-32-27.7-49.8-4.7-11.5-7.4-25.5-7.3-37.3-0.2-16.4 2.4-31.2 5.7-45.2q2.7-11.2 6-22.2c0.7-12.2 0-24.6-4.6-35.8z"/><path class="b" d="m407.6 595.2q-9.6 4.8-19.1 9.7 2.5 5.9 5.9 11.5c9.2 15.4 22 29.4 34.9 42.4 11.7 11.5 24 22.5 36.6 33.4 11.4 3.9 23.4 6.3 35.7 6.8-10.8-4.8-20.9-10.8-30.6-17.5-32.2-22.6-56.4-52.7-63.4-86.3z"/><path class="b" d="m280.4 169.1c-3.6-3.8-7.6-7.3-12-10.3 3.7 3.6 6.8 7.7 9.4 12.1q1.3-0.9 2.6-1.8z"/><path class="b" d="m177.8 161.3q2.2-0.9 4.3-2 4-2.5 8.1-4.8 0.9-0.5 1.8-1 3.2-2.3 6.1-4.9c4.4-4.2 9.5-7.8 15.1-10-2.7-2.1-5.3-4.5-7.5-7.2-2-2.4-3.8-5.2-5.2-8.1-5.3 2.6-10.2 6.1-14.5 10.2-0.4 0.4-2.6 2.4-3 2.8-6.9 6.4-13.7 12.7-21.9 18.1-4.5 2.8-8.9 4.9-14.3 3.5q-0.7-0.2-1.5-0.5-1.4-0.4-2.8-1.2c7.6 12.2 23.9 9.5 35.3 5.1z"/><path class="b" d="m141.3 164.8c1.2 7 6.9 13.7 13 17.3q1.6-1.7 3.3-3.3 2.7-2.6 5.5-5.1c-5.8-0.9-11.2-3.1-15.8-7.2-2.7-2.8-4.6-6.5-4.8-10.3-1 2.1-1.5 4.3-1.4 6.5q0 1 0.2 2.1z"/><path class="b" d="m293 159.9c-0.5-0.6-1.3-1.4-2.1-2.3q0.5 2 0.9 3.9 0.8-0.5 1.7-1.1-0.2-0.3-0.5-0.5z"/><path class="b" d="m208.5 102.4c3.9 5.8 10.8 8.6 17.4 10.4 3.9 1 7.9 1.5 11.9 1.6q-0.8-1.1-1.6-2.3c-2.6-4.2-4.6-8.9-5.7-13.8-3 0.8-6.1 1.6-9.5 2.2-4.5 1-9.1 0.6-12.3-2.5q-0.5-0.5-1-1-0.7-0.9-1.2-1.9c-0.1 2.9 0.7 5.3 2 7.3z"/><path class="b" d="m197.6 106.9c-0.8 5.6 0.5 11.3 2.9 16.4 1.4 2.9 3.2 5.7 5.2 8.1 2.2 2.7 4.8 5.1 7.5 7.2 26-10.8 57.9 4.4 69.9 28.6q2.1-1.4 4.2-2.8c-9.5-15.4-24-33.8-40-34.5-9 0.6-18.2-0.5-26.3-4.6-8.3-4.1-16.7-11.7-17.4-21.6-0.2-3.1 0.8-6.4 2.9-8.6-4.3 1.2-7.2 5.2-8.4 9.5q-0.1 0.3-0.2 0.7-0.2 0.8-0.3 1.6z"/><path class="b" d="m244.5 76.1c2.7 10.8 13.5 17.7 23 21.9 5.2 2.1 11 3.3 15.4 6.7 5.4 4 9.2 9 12 14.2 5.2 9.7 8.4 23.8 7.3 36.1q3.9-2.3 7.9-4.5c-1.9-9.2-0.5-18.2 3-26.6-1.1-7.7-3.8-15.1-8.2-21.9q-0.8-1.2-1.6-2.4c-5.7-7.7-14.5-14.2-24.3-17-7.5-2.1-14.5-2.1-22.7-3.6-4.3-0.7-8.1-2.7-10-6.6q-0.3-0.6-0.6-1.3-0.3-1.1-0.5-2.2c-0.9 2.3-1.2 4.8-0.7 7.2z"/><path class="b" d="m230.6 82.4c-1.4 5.2-1.3 10.7-0.1 15.9 1.1 4.9 3.1 9.6 5.7 13.8q0.8 1.2 1.6 2.3 2.6 0.1 5.2 0c5-0.5 10.3 0 14.9 1.7 16.8 6.3 28.6 23.7 33 41.5 0.8 0.9 1.6 1.7 2.1 2.3q0.3 0.2 0.5 0.5 1.9-1.2 3.7-2.3c-0.6-2-1.2-3.9-1.9-5.8-4.7-12.4-10.3-26.9-21.3-34.8-4-2.6-8.8-3.2-13-5.6-12.8-6.4-25.7-21.1-21.3-36.4 1-2.8 2.9-5.3 5.5-6.6-6.7-0.5-11.9 5.3-14 11.3q-0.1 0.5-0.3 0.9-0.2 0.6-0.3 1.3z"/><path class="b" d="m138.5 211.9c-3.8-0.7-7.7-2.3-10.3-4.9 3.2 10 15.3 14.3 24.7 15.7q5.1 0.6 10 0.4c3.8-5.5 8-10.7 12.6-15.4q4.9-4.9 10.2-9.2c-4.3 2.8-8.8 5.4-13.7 7.4-10.2 4.6-22 8-33.5 6z"/><path class="b" d="m271.5 179.5q1-1.6 2-3.2c-23.9-10.7-40.9-11-65.3 6.1-3.2 2.2-6.3 4.5-9.4 6.8 10.2-6.2 21.2-11 32.8-13.9 10.2-2.3 21.7-4.1 31.4 0.4-3.5 0.5-7.2 1.8-10.8 3.5 6.2-0.6 12.6-0.3 19.3 0.3z"/><path class="b" d="m128.2 207c3.6 0.6 7 0.1 10.3-0.6 16.1-4.7 29.8-15.1 43.4-24.7 11.8-8.8 24.3-17.7 38.7-22.1 20.3-6.6 39.8 0.4 54.7 13.8q0.1-0.1 0.2-0.2l0.5-1 0.7-0.5q0.5-0.4 1.1-0.8c-2.6-4.4-5.7-8.5-9.4-12.1-14.7-10.1-33.2-14.6-49.9-7.7-6.3 2.5-10.6 7.7-15.9 11.5-10.4 7.6-25.9 13.1-39.5 11.1q-2.8 2.5-5.5 5.1-1.7 1.6-3.3 3.3c-5.4 5.7-10.3 12-15.9 18-2.5 2.5-5.3 5.1-10.2 6.9z"/><path class="b" d="m182.1 159.3q5.2-2.5 9.9-5.8-0.9 0.5-1.8 1-4.1 2.3-8.1 4.8z"/><path class="b" d="m37.1 505.2c-21.6-33.3-17-74.9 10.7-103.3 25.7-26.4 51.5-26 81.5-40 25.5-11.8 32.8-31.9 30.8-58.9-0.6-10-3.3-20-2.8-30.2 0.3-22.5 10-43.6 24.6-60 14-15.6 31.6-27.5 51.2-34.3 9.5-3.1 20.1-5.8 29.9-2.8-9.7-4.5-21.2-2.7-31.4-0.4-11.6 2.9-22.6 7.7-32.8 13.9-4.3 3.2-8.6 6.4-13.1 9.3q-5.3 4.3-10.2 9.2c-4.6 4.7-8.8 9.9-12.6 15.4-9.7 14.6-16 31.9-16.6 49.8-0.7 10.3 1.7 21.1 2.1 31.3 0.8 22.1-4 36.8-24.3 46.5-15.9 8.2-37.6 12.8-54.3 21.8q-4.8 2.6-9.4 5.6-0.7 0.5-1.3 1c-39 26.9-56 78.4-28.3 120.5 2.8 4.3 6.1 8.4 9.6 12.1q-0.4-1.4-0.8-2.8-1.3-1.8-2.5-3.7z"/><path class="b" d="m236.3 185.4c-22.9 14.3-43.8 37.1-51.6 62.2-2.5 8.1-3.6 16.5-3.1 24.9q0 1 0.1 2c3.2-36.4 24.1-73.9 57.7-87.3 4.2-3.1 8.5-5.9 12.8-8 3.6-1.7 7.3-3 10.8-3.5-9.8 0.1-18.5 4.9-26.7 9.7z"/><path class="b" d="m179.8 355c6.1-7.8 9.5-16.4 7.1-26.3q-0.3-1.2-0.6-2.4c-1.8 14.7-7 28.8-17.1 40-15.4 17.3-37.3 24.8-58.1 30.3-9.1 2.5-17.8 4.4-26.4 7.9-16 6.5-30 17.8-38.9 32.8-8.2 13.7-11.1 30.3-9.4 46.3q0.1-1.8 0.2-3.6c1.6-22.8 13.3-44.6 31.3-58.6 16.3-12.5 37-19.1 57.2-16.2q2.1-0.6 4.2-1.3c17.5-17.4 35.9-30.9 50.5-48.9z"/><path class="b" d="m103.8 582.1c0.4-9.7-2.6-19.7-4.8-29.4-1.4-6-2.9-12.2-4.1-18.5 0.1 2.3 0 4.7-0.2 7.1-0.2 3.9-1 7.4-2.2 10.7q0.3 0.8 0.5 1.7c1 3.2 2.1 6.5 3.2 9.8 0.9 2.8 1.7 5.6 2.4 8.5 0.9 3.2 1.5 6.3 1.8 9.5 1.2 10.5-7.3 14.9-16.2 18 2.6-0.5 5.2-1.2 7.5-2.1 7.1-2.5 11.8-7.8 12.1-15.3z"/><path class="b" d="m215 251.3c2.5-17.7 10.8-33 22.6-45.1 6.9-9.6 15.8-17.8 26.9-24.2-36.5 15.4-54.6 53.9-52.7 91.8q0.9-1.9 2-3.8c-0.2-6.3 0.2-12.5 1.2-18.7z"/><path class="b" d="m110.8 591.5c5-7.1 6.6-17.3 7-25.2 0.6-9.8 0.4-19.7 0.6-29.6-4.5-17-5-35.1-0.1-52.2 1.6-5.7 3.9-11.3 6.7-16.6-9.9 15.5-14.1 33.8-14.1 52.3-0.3 15.1 1.9 31 2.1 46.5 0.4 14.8-2.9 31.2-20.8 32.8-2.7 0.3-5.3 0.2-8 0 5.7 1.2 11.4 1.5 17.1-0.6 3.5-1.2 6.3-3.4 8.5-6.1q0.5-0.6 1-1.3z"/><path class="b" d="m191.3 348.7c-1.4-10.7 0.1-22.3 3.4-34.2-2.6-11.4-3.9-23.1-3.8-34.7 0.2-44.3 27-91.3 73.6-97.8-9 0.2-17.3 2.1-25.1 5.2-33.6 13.4-54.5 50.9-57.7 87.3 0.9 8.8 3.5 17.2 4.4 26 1.1 8.4 1.3 17.2 0.2 25.8q0.3 1.2 0.6 2.4c2.4 9.9-1 18.5-7.1 26.3-14.6 18-33 31.5-50.5 48.9q-0.9 0.8-1.7 1.7 2.5 0.4 5 1c-15.8 17.3-31.8 34.7-39.4 56.6-5.1 14.2-5.5 29.4-2.2 44.1q0.6 2.4 1.1 4.9c-3.4-59.2 37.1-92.5 78.4-129.4 9.1-8.5 17.6-16.8 22.9-26.2-0.9-2.6-1.6-5.3-2.1-7.9z"/><path class="b" d="m236.8 231.3q4.4-6.8 9-13.6c4.8-11.4 12.1-22 20.1-32-12.6 13-24.2 28-29.1 45.6z"/><path class="b" d="m265.9 185.7c-10.5 5.3-20.2 12.2-28.3 20.5-11.8 12.1-20.1 27.4-22.6 45.1-1 6.2-1.4 12.4-1.2 18.7q3.3-6.2 6.7-12c1.3-31.1 17.8-54.6 45.4-72.3z"/><path class="b" d="m219.4 704.6c8.3-13 11.7-28.5 4.9-42.8-5.2-11.3-13.6-20.5-22.2-29.5-8.9-9.2-18.7-18-28.1-27.6-19.9-20-38.4-42.3-44.9-71-3.5-15-3.8-30.6 0.6-45.5 8.2-28.1 32.8-48.4 53.2-66.3q1.7-1.5 3.3-2.9c4.5-6.8 8.7-13.7 12.2-20.8 1.2-2.6 2.4-5.1 3.3-7.6-11.1 12.2-24.5 22.9-36.1 33.3-14.9 12.9-29.3 26.4-39.8 42.7q-0.4 0.6-0.8 1.3c-2.8 5.3-5.1 10.9-6.7 16.6-4.9 17.1-4.4 35.2 0.1 52.2 2 7.7 4.8 15.2 8.2 22.3 9.7 20 25.5 37.4 40.9 51.8 9.9 9.3 19.9 17.8 29.1 26.4 8.6 8 17.2 16.5 22.6 26.4 8.7 15 3.8 31.1-4.6 44.9q-0.4 0.7-0.8 1.3-0.5 0.8-1.1 1.6c-3.5 5.5-7.5 10.7-11.7 16 6.9-7.1 13.3-14.5 18.4-22.8z"/><path class="b" d="m221.1 713.3c5.5-5 10.5-10.6 14.4-17.1 11.3-19.1 7.6-38.9-1.4-56.8-10.4-15.9-24.8-30.8-37.7-44.9-13-14.4-26.8-28.5-36.1-46.6-11-21-7-42.2 6-62.1q2.1-3.2 4.5-6.3-2.7-1.2-4.7-2.9c-4.9 6.2-8.7 12.6-11 19.6-7.3 22-1.1 45.2 10.9 65 13.5 22.1 31.8 40 48.3 60.4 18.4 22.6 33.5 50 15.5 77.8-7.4 11.5-17.8 20.3-28.8 28 6.7-3.8 13.1-8.1 18.9-13.2q0.6-0.4 1.2-0.9z"/><path class="b" d="m245.3 701.1c23.1-42.2-16.1-81.9-42.1-112.1-14.6-17.3-37.1-39.3-39.4-63.2-1-12.1 4.6-24.8 10.9-34.4q3-4.5 6.4-8.7c-2.4-0.6-4.8-1.2-7.2-2q-1.7-0.6-3.1-1.2-2.4 3.1-4.5 6.3c-13 19.9-17 41.1-6 62.1 9.3 18.1 23.1 32.2 36.1 46.6 12.9 14.1 27.3 29 37.7 44.9 2.7 4.1 5.1 8.3 7.2 12.5 11.3 22.6 6.5 43.6-8.1 63.5q-1.5 2.1-3.1 4.1-0.4 0.6-0.9 1.2c-4 5-8.5 10-13.2 14.9 11.4-10.2 22.1-21 29.3-34.5z"/><path class="b" d="m212.5 541.4q-0.1-1-0.1-1.9-1.3-2-2.6-4.1-0.6-1-1.3-2.3c-3.6-1.3-7.2-3-10.5-5.4q-1.8-1.3-3.2-2.9c0.7 5.1 4.3 11 7.2 15.8 2.8 4.5 5.9 8.9 9 13.2q1-2.3 2.3-4.4-0.7-4-0.8-8z"/><path class="b" d="m237.8 724.5c8.9-5.8 17-13.1 23.3-21.8 10.6-14.5 13.8-30.8 12.4-47.1q-2.9-0.1-5.8-0.8c2.1 15.8-0.2 31.9-9.8 46.2-10 15.5-25.6 26.6-41.9 34.6 7-2.8 13.9-6.2 20.4-10.3q0.7-0.4 1.4-0.8z"/><path class="b" d="m70.8 552.6c0.3-4.5-1.7-7.6-3.9-12.4-1.7-3.4-3.6-6.9-5.6-10.5-11.5-19.6-15.8-41.8-9.6-63.9 9.5-35.1 45.1-60.1 80.9-59.1q-2.5-0.7-5-1.1-1.3-0.3-2.5-0.4c-20.2-2.9-40.9 3.7-57.2 16.2-18 14-29.7 35.8-31.3 58.6q-0.1 1.8-0.2 3.6 0.4 3.9 1.2 7.7c1.9 8.9 4.9 17.4 8.5 25.9-2.3-2.7-4.5-5.4-6.5-8.3q0.4 1.4 0.8 2.8c1.7 5.1 3.7 10.1 6.3 14.7 3.3 5.5 7.7 11.5 11.5 16.3 2.1 2.6 3.9 4.7 5.5 5.4 0.8 0.5 1.8 0.6 2.6 1.3 3 4.1-4.6 11.7-7.2 15.3 4.4-3.3 10.4-6.7 11.7-12.1z"/><path class="b" d="m91.8 553.7q0.3-0.8 0.7-1.7c1.2-3.3 2-6.8 2.2-10.7 0.2-2.4 0.3-4.8 0.2-7.1-0.8-4.3-1.5-8.6-2-13-0.3-3.1-0.6-6.1-0.8-9q-0.5-2.5-1.1-4.9c-3.3-14.7-2.9-29.9 2.2-44.1 7.6-21.9 23.6-39.3 39.4-56.5-37.5 24.1-67.4 58.6-52.2 104.9 1 3.1 2 6.2 2.8 9.3 4.1 14 8.1 37.3-9.8 43.2-5.1 1.6-9.8 1.4-14.3 0.6 14.1 6.9 25.9 1.8 31.8-9.2q0.5-0.9 0.9-1.8z"/><path class="b" d="m212.4 539.5q0 0.9 0.1 1.9 0.1 4 0.8 8c2.3-3.8 5.2-7.4 8-10.8q-0.1-0.9-0.1-1.9c-2.9-0.7-5.7-1.4-8.5-2.2q-0.3 2.5-0.3 5z"/><path class="b" d="m295.5 670.2c1.8 4.4 3.4 9.1 5.6 14.1-1.6-12-3.5-23-6.7-33.5-2.1 0.8-4.2 1.7-6.4 2.5q1.4 2.6 2.7 5.4 2.6 5.6 4.8 11.5z"/><path class="b" d="m301.1 684.3c2.2-2.5 4.2-5.1 5.9-7.8q1.7-2.5 3.1-5.2c3.2-6.1 5.5-12.6 6.9-19.3q-2.5-2.8-4.9-5.9-0.8 0.5-1.6 0.9c-0.1 12.9-3.2 25.7-9.4 37.3z"/><path fill-rule="evenodd" class="b" d="m469 165.2c-49.1-15.6-102.5-15.5-150.2 5.8 51.3-6.8 104.5 4.5 149.3 29.6l-0.3 12.4c-17.3-9.1-36.3-15.6-56.1-19.1-35.1-7.1-70.4-5.5-104.2-17.6 22.6 30 62.7 38.7 96.3 49.3 21.5 6.5 42 13.6 61.8 23.8q0.7 0.4 1.4 0.7l-0.5 21.5c-20.6-8.1-41.2-15.8-61.7-23.8-29.9-12.3-83.7-30.8-96.5-61.9 5.5 26.6 32 45 53.3 59.3 33.7 21.5 69.1 39.1 104.1 57.7v0.9l-0.9 37.4q-0.2-0.3-0.3-0.6c-26.9-40.3-76.3-60.1-113.8-85.3-21.6-14.1-39.1-31.5-46.9-56.9-10 59.7 53.9 96.1 95.8 124.6 51.7 34.4 68.5 58.8 61.6 120.8q0.6-0.9 1.3-1.9l-0.1 1-0.6 24.6-0.6 27.1c-1 20.5-5.1 64.7-23.8 80.3-0.3-5 0-10.1 0.7-15.3 2-14.7 8.1-30.8 13.1-45.7 5.6-16.6 11.2-35.1 6.9-52.7-8.2 22-23.3 37.8-35.3 58-14.7 23.9-19.3 47.4-16.3 69.5q-10.3 4.5-20.5 9.3c-4.4-13.9-4.3-28.4 2.5-42.2 15.3-29.6 32.3-55.9 44.2-88.4 13.3-36.1 11.4-71.2-15.9-100.4-14.1-15.5-32.5-25.7-48.5-38.9-38.9-30.5-74.2-66.9-70.3-120-9.4 30.8-1.7 62.9 15.2 89.5 11 17.7 25 33.3 39.7 47.9 24.4 24.5 60.1 45 53.7 84.6-2.8 17.1-11.2 33.9-19.6 49.7-10 18.6-21.4 36.8-31.6 55.5-14.7 27.6-14.2 54.7-4.7 79.9q-9.5 4.8-18.9 9.5c-29.9-48.9 12.1-95 37.4-151.8 9.3-21.1 15.8-46 8.9-69.3-4-14.2-13-27.2-23.3-36.9-5.9-5.6-12.6-10.9-18.6-16.3-17.3-15.5-34-32.4-45.5-52.5-22.8-39.4-5.5-73.2 4-113.2-10.9 22.3-24.4 44.1-28.5 69.3-6.2 35.6 12.9 69.8 35 96.1 8.2 9.8 16.9 19 26 27.8 7.7 6.9 15.7 15.4 19.9 24.5 9.2 18.8 2.7 39.8-5.7 58.2-13.7 29.7-33.1 57.3-43.6 89.3-9.3 27-9.3 57.8 5.5 83q1.4 2.5 3 4.9-1.7 0.8-3.3 1.7c-1.8-0.9-4.1-1-5.9-0.6-9.5 2.6-20.2 8.6-29.3 4.1-4-2.1-8.1-5.5-8.7-10.1-0.8-4.5 0.6-11.3 0.4-18.4-0.1-3.6-0.6-7.4-1.4-10.9-1.7-7.1-5.3-13.5-9.1-19.3-3.9-6.1-8.5-12-14.8-16.1-3.3-2.2-7-3.6-9.3-4.7-1.2-0.6-2-1.1-2.9-1.8 0.1-0.3 0.2-0.8 0.4-1.2 3.3-7.6 10.9-14.6 15.5-21.5 1-1.7 1.6-2.3 1.8-5.3 0.1-0.9-0.4-2.6-0.8-3.4-1.1-2.1-3.1-3.3-5.1-4.1 7.9 1.3 15.6 3 22.7 6.3q-3.3 2.4-6.5 4.7c-3 2-7 5.5-10.2 7 4.2-0.3 8.1-2.5 11.9-4.1 4.9-2.2 9.7-5 14.4-7.7-4.6-3.5-9.9-6.5-15.3-8.1-10.6-3-21.7-3.6-32.6-2.3-1.7-0.5-3.4-1-5.1-1.7-3.5-1.4-6.6-2.7-8.6-5.3-1.4-2.5-0.9-4.6 0.1-8.2 0.8-2.7 2.1-5.6 3.2-9.2 7-22-13.5-25.7-29.4-30.1-1.5-0.5-3-1.3-3.4-1.7 0.3-3.5 3.1-8.1 5.1-11.8 12.1-21.9 42.6-56.3 37-82.3-0.9-4.1-3.1-8.3-6-11.4-1.8-1.9-3.3-4-4.4-6.3-3.5-7.6-3.4-16.1-2.2-24.7 3.1-18.4 10.9-35.7 19.3-52.5 11.6-22.7 25.2-44.5 39.1-66.1 6-9.4 14.9-22.3 20.2-32.4q4.5-3.5 9.3-6.9c51-35.3 114.4-63.3 177.7-53.4v1.2l-0.3 8.8c-49.5-7-100.3 0.8-144.6 28.8 47-17.7 97.2-17.5 144.1-4l-0.1 3.8zm-255.2 232.7c21.4 13.6 55 9.9 77.3 0-15.1 1.3-30.6 3.2-46 3.3 3.8-3.6 6.7-7.9 9.7-12.1 3-4.3 5.8-8.7 8.3-13.3 13 3 27.9 7.6 35.1 19.6-2.4-11.8-14.4-18.8-24.9-22.6-3.7-1.3-7.3-2.3-11.3-3l-3.2 2.5c0-0.2 0.1-0.4 0.1-0.6 0 0.2-0.2 0.6-0.3 0.7-0.8 1.7-2.5 4.9-3.4 6.7-3.9 7.3-7.2 14.8-11 22.1-10.3 0-20.4-0.9-30.4-3.3zm16.1 76.3c6.1-4 9.4-14.3 2.7-19.5-3.6-2.9-9-2.7-12.6-0.4 7.2 2 11.9 4.2 10.9 12.4-0.2 2.3-0.7 4.7-1 7.5zm-11.5-3.2c2.2 0.1 4.3-0.3 6.4 0.9-0.3-2.8-3.4-4.4-5.7-5.2-7.1-2.2-15-1.3-21.3 2.7 6.8 2.1 13.6 1.8 20.6 1.6zm69.1-117.7c-8.2-5.4-16.6-10.8-26.9-11.1-10.3-0.1-19.5 5.8-25.7 13.5 14.2-6.8 23-10.5 38.7-5.6 4.4 1.2 9.1 2.7 13.9 3.2z"/><path class="b" d="m222 562.2v-0.1q0 0.1 0 0.1z"/><path fill-rule="evenodd" d="m1031.2 763.8c-1.1 6-6.6 10.4-12.1 12.8-17.1 7.1-36.5 5.3-54.2 0.1-6-1.8-11.7-4.3-17.1-7.3-23.4-12.9-40-36.1-42.6-63.9-0.6-6.1-1.2-12.9-2-19.3q-0.4-3-0.9-5.9c-0.5-2.4-0.9-4.6-1.6-6.4q-0.3 0-1.1-0.1c-0.7-0.1-1.7-0.2-2.8-0.3-4.2-0.3-8.4-0.5-12.7-0.8-6.1-0.4-12.2-0.9-18.2-1.7-20.1-2.7-39.6-8-58.5-14.8q-6.5-2.3-12.9-4.8c-8.8-3.5-17.7-7.3-26.4-11.5-15.3-7.4-30.2-16.2-43.8-26.4-20-15.3-37.1-33.9-48.3-57.1-28.1-56.3-13.9-121.1-16.5-181-1.1-26.1-5.8-52.1-16.8-75.9-32.2-70.1-98.7-125.3-173.4-146.7-46.9-13.5-97.1-13.7-144.1 4 44.3-28 95.1-35.8 144.6-28.8 82.5 11.8 161.9 64.9 204 135.7 35.8 58.5 35.6 116 32.9 180.8-3.3 74.2 8.8 115.9 74.7 154.4 21.2 12 43.6 23 66.9 30.9 12.9 4.4 26.2 7.8 39.7 9.9 2.8 0.3 10.6 1.6 13.5 2.2 8.1 1.3 16.3 4.8 21.6 11.1 1.6 1.9 3 4.1 4 6.5 4.9 11.9 3.8 23.9 3.8 36.1-0.4 7.2-0.5 16.1 1.1 23.1 4.2 20.5 19.2 36.3 37.8 45.7 15.5 7.7 39.8 14.4 55.8 5.6 2.4-1.4 4.4-3.5 5.6-6.2zm-370.9 228c-9.8-2.1-19.6-5-29-9.2-19.8-8.4-36.5-23.9-45.2-43.7-12.4-27.6-14.1-60.3-24.1-87.2-6-17.7-14.9-33.6-26.4-47.8-11.9-14.8-26-27.2-40.5-39.6-38.4-32.8-80.9-62.5-114.5-101.2-10.8-12.4-20-25.8-26.5-39.9-4.8 2.6-10.7 5.8-17 9.2 6 7.8 13.8 15.6 23.9 23.6 23.5 19.5 44.4 43.2 55.3 72.1q1.2 3 2.2 6.1c11.2 33.4 4.5 71.4-15.2 99.8-4.8 7-10.1 13.5-16.1 19.3-6.1 5.7-12.6 11.2-20.2 14.5 13-9.6 22-23.7 29.1-37.9 13.7-27.9 16.3-60.4 3.9-88.9-9.6-22.6-26.9-41.7-46-57.1-2.7-2.2-11.3-8.7-14.3-10.9-8.1-6.3-15.9-13.2-22.7-21q-2.5-2.8-4.9-5.9-0.8 0.5-1.6 0.9c-0.1 12.9-3.2 25.7-9.4 37.3-1.6-12-3.5-23-6.7-33.5-2.1 0.8-4.2 1.7-6.4 2.5q-0.6 0.1-1.1 0.3-0.5 0.2-1 0.3c-3.9 1.2-8.2 1.8-12.4 1.7q-2.9-0.1-5.8-0.8c2.1 15.8-0.2 31.9-9.8 46.2-10 15.5-25.6 26.6-41.9 34.6 11.4-10.2 22.1-21 29.3-34.5 23.1-42.2-16.1-81.8-42.1-112.1-14.6-17.3-37.1-39.3-39.4-63.2-1-12.1 4.6-24.8 10.9-34.4q3-4.5 6.4-8.7c-2.4-0.6-4.8-1.2-7.2-2q-1.7-0.6-3.1-1.2-2.7-1.2-4.7-2.9c-4.9 6.2-8.7 12.6-11 19.6-7.3 22-1.1 45.2 10.9 65 13.5 22.1 31.8 40 48.3 60.4 18.4 22.6 33.5 50 15.5 77.8-7.4 11.5-17.8 20.3-28.8 28 6.9-7.1 13.3-14.5 18.4-22.8 8.3-13 11.7-28.5 4.9-42.8-5.2-11.3-13.6-20.5-22.2-29.5-8.9-9.2-18.7-18-28.1-27.6-19.9-20-38.4-42.3-44.9-71-3.5-15-3.8-30.6 0.6-45.5 8.2-28.1 32.8-48.4 53.2-66.3q1.7-1.5 3.3-2.9c4.5-6.8 8.7-13.7 12.2-20.8 1.2-2.6 2.4-5.1 3.3-7.6-11.1 12.2-24.5 22.9-36.1 33.3-14.9 12.9-29.3 26.4-39.8 42.7q-0.4 0.6-0.8 1.3c-9.9 15.5-14.1 33.8-14.1 52.3-0.3 15.1 1.9 31 2.1 46.5 0.4 14.8-2.9 31.2-20.8 32.8-2.7 0.3-5.3 0.2-8 0 2.6-0.5 5.2-1.2 7.5-2.1 7.1-2.5 11.8-7.8 12.1-15.3 0.4-9.7-2.6-19.7-4.8-29.4-1.4-6-2.9-12.2-4.1-18.5-0.8-4.3-1.5-8.6-2-13-0.3-3.1-0.6-6.1-0.8-9-3.4-59.2 37.1-92.5 78.4-129.4 9.1-8.5 17.6-16.8 22.9-26.2-1-2.6-1.6-5.3-2.1-7.9-1.4-10.7 0.1-22.3 3.4-34.2-2.6-11.4-3.9-23.1-3.8-34.7 0.2-44.3 27-91.3 73.6-97.8-36.5 15.4-54.6 53.9-52.7 91.8q0.9-1.9 1.9-3.8 3.4-6.2 6.8-12c1.3-31.1 17.8-54.6 45.4-72.3-12.6 13-24.2 28-29.1 45.6q4.4-6.8 9-13.6c8.6-12.7 17.6-25.4 25.7-38.2q1-1.6 2-3.2c-23.9-10.7-40.9-11-65.3 6.1-3.2 2.2-6.3 4.5-9.4 6.8-4.3 3.2-8.6 6.4-13.1 9.3-4.3 2.8-8.8 5.4-13.7 7.4-10.2 4.6-22 8-33.5 6-3.8-0.7-7.7-2.3-10.3-4.9 3.6 0.6 7 0.1 10.3-0.6 16.1-4.7 29.8-15.1 43.4-24.7 11.8-8.8 24.3-17.7 38.7-22.1 20.3-6.6 39.8 0.4 54.7 13.8q0.1-0.1 0.2-0.2l0.5-1 0.7-0.5q0.5-0.4 1.1-0.8 1.3-0.9 2.6-1.8c-3.6-3.8-7.6-7.3-12-10.3-14.7-10.1-33.2-14.6-49.9-7.7-6.3 2.5-10.6 7.7-15.9 11.5-10.4 7.6-25.9 13.1-39.5 11.1-5.8-0.9-11.2-3.1-15.8-7.2-2.7-2.8-4.6-6.5-4.8-10.3 7.6 12.2 23.9 9.5 35.3 5.1q2.2-0.9 4.3-2 5.2-2.5 9.9-5.8 3.2-2.3 6.1-4.9c4.4-4.2 9.5-7.8 15.1-10 26-10.8 57.9 4.4 69.9 28.6q2.1-1.4 4.2-2.8c-9.5-15.4-24-33.8-40-34.5-9 0.6-18.2-0.5-26.3-4.6-8.3-4.1-16.7-11.7-17.4-21.6-0.2-3.1 0.8-6.4 2.9-8.6-0.1 2.9 0.7 5.3 2 7.3 3.9 5.8 10.8 8.6 17.4 10.4 3.9 1 7.9 1.5 11.9 1.6q2.6 0.1 5.2 0c5-0.5 10.3 0 14.9 1.7 16.8 6.3 28.6 23.7 33 41.5q0.5 2 0.9 3.9 0.8-0.5 1.7-1.1 1.9-1.2 3.7-2.3c-0.6-2-1.2-3.9-1.9-5.8-4.7-12.4-10.3-26.9-21.2-34.8-4.1-2.6-8.9-3.2-13.1-5.6-12.8-6.4-25.7-21.1-21.3-36.4 1-2.8 2.9-5.3 5.5-6.6-0.9 2.3-1.2 4.8-0.7 7.2 2.7 10.8 13.5 17.7 23 21.9 5.2 2.1 11 3.3 15.4 6.7 5.4 4 9.2 9 12 14.2 5.2 9.7 8.4 23.8 7.3 36.1q3.9-2.3 7.9-4.5c-1.9-9.2-0.5-18.2 3-26.6 5.5-13.8 16.6-25.9 28.2-34.4 28-21.3 62.7-30.6 96-39.9 13.7-4 28-6.4 40.7-12.5 4.1-2.1 7.5-5.5 7.9-10.3 0.9 2.4 1 5.2 0.1 7.9-6.9 19.6-65.1 37.7-85 44.6-33.3 11.5-83.5 30.6-89 70.1q6.8-3.7 13.8-7.2 0.3-0.1 0.5-0.3 0.1-0.1 0.2-0.3c11.1-23.1 35-38.6 58.2-48.3 26.7-10.6 55-15.5 83.4-15.7 59.3-0.4 119.2 20.1 167 54.7 56.2 40.5 96.1 99.9 119.2 164.4 7.1 18.9 12.6 39.4 13.5 59.5 2.6 38.1-5.7 75.3-8.3 112.3-1.8 24.8-0.1 50.6 11.6 72.9q2.6 5.1 5.8 9.9c17 25.9 44.7 44.8 71.7 60.7-9.1-2.1-18-4.8-26.8-8.1q-6.4-2.3-12.6-5.1c-22.6-10-43.5-24.5-58.4-44.6-0.8-1.1-1.5-2.1-2.2-3.2-16-22.8-22.5-51.1-23.9-78.7q-0.1-2.1-0.2-4.1c-1-22.6 0.8-45.6 1.3-68.4 0.5-20.6-0.2-40.9-5.1-60.5-1.2-4.9-2.6-9.7-4.4-14.5-14.1-41.1-34.8-79.9-61.8-113.2-29.6-36.3-66.7-65.9-111.2-84.7-36.3-15.4-76.1-23.5-115.6-22-3.9 0.1-7.8 0.3-11.7 0.7-27.7 2.8-58 10.1-79.3 28.8q-2.7 2.4-5.3 5.1c43.7-20.6 92.6-31.9 138.7-21.5-63.3-9.9-126.7 18.1-177.7 53.4q-4.8 3.4-9.3 6.9c-5.3 10.1-14.2 23-20.2 32.4-13.9 21.6-27.5 43.4-39.1 66.1-8.4 16.8-16.2 34.1-19.2 52.5-1.3 8.6-1.4 17.1 2.1 24.7 1.1 2.3 2.6 4.4 4.4 6.3 2.9 3.1 5.1 7.3 6 11.4 5.6 26-24.9 60.4-37 82.3-2 3.7-4.8 8.3-5.1 11.8 0.4 0.4 1.9 1.2 3.4 1.7 15.9 4.4 36.4 8.1 29.4 30.1-1.1 3.6-2.4 6.5-3.2 9.2-1 3.6-1.5 5.7-0.1 8.2 2 2.6 5.1 3.9 8.6 5.3q2.6 1 5.1 1.7c10.9-1.3 22-0.7 32.6 2.3 5.4 1.6 10.7 4.6 15.3 8.1-4.7 2.7-9.5 5.5-14.4 7.7-3.8 1.6-7.7 3.8-11.9 4.1 3.2-1.5 7.2-5 10.2-7q3.2-2.3 6.5-4.7c-7.1-3.3-14.8-5-22.7-6.3 2 0.8 4 2 5.1 4.1 0.4 0.8 0.9 2.5 0.8 3.4-0.2 3-0.8 3.6-1.8 5.3-4.6 6.9-12.2 13.9-15.5 21.5-0.2 0.4-0.3 0.9-0.4 1.2 0.9 0.7 1.7 1.2 2.9 1.8 2.3 1.1 6 2.5 9.3 4.7 6.3 4.1 10.9 10 14.8 16.1 3.8 5.8 7.4 12.2 9.1 19.3 0.8 3.5 1.3 7.3 1.4 10.9 0.2 7.1-1.2 13.9-0.4 18.4 0.6 4.6 4.7 8 8.7 10.1 9.1 4.5 19.8-1.5 29.3-4.1 1.8-0.4 4.1-0.3 5.9 0.6q1.6-0.9 3.3-1.7-1.6-2.4-3-4.9c-14.8-25.2-14.8-56-5.5-83 10.5-32 29.9-59.6 43.6-89.3 8.4-18.4 14.9-39.4 5.7-58.2-4.2-9.1-12.2-17.6-19.9-24.5-9.1-8.8-17.8-18-26-27.8-22.1-26.3-41.2-60.5-35-96.1 4.1-25.2 17.6-47 28.5-69.3-9.5 40-26.8 73.8-4 113.2 11.5 20.1 28.2 37 45.5 52.5 6 5.4 12.7 10.7 18.6 16.3 10.3 9.7 19.3 22.7 23.3 36.9 6.9 23.3 0.4 48.2-8.9 69.3-25.3 56.8-67.3 102.9-37.4 151.8q9.4-4.7 18.9-9.5c-9.5-25.2-10-52.3 4.7-79.9 10.2-18.7 21.6-36.9 31.6-55.5 8.4-15.8 16.8-32.6 19.6-49.7 6.4-39.6-29.3-60.1-53.7-84.6-14.7-14.6-28.7-30.2-39.7-47.9-16.9-26.6-24.6-58.7-15.2-89.5-3.9 53.1 31.4 89.5 70.3 120 16 13.2 34.4 23.4 48.5 38.9 27.3 29.2 29.2 64.3 15.9 100.4-11.9 32.5-28.9 58.8-44.2 88.4-6.8 13.8-6.9 28.3-2.5 42.2q10.2-4.8 20.5-9.3c-3-22.1 1.6-45.6 16.3-69.5 12-20.2 27.1-36 35.3-58 4.3 17.6-1.3 36.1-6.9 52.7-5 14.9-11.1 31-13.1 45.7-0.7 5.2-1 10.3-0.7 15.3 18.7-15.6 22.8-59.8 23.8-80.3 0.4 23.4-1.5 70.4-23.4 86.2 3.2 27.5 19.4 52.6 34.8 75.7 6.2 9.2 13 18.6 19.3 27.9 3.3 4.6 6.6 9.4 9.7 14.6-10.8-4.8-20.9-10.8-30.6-17.5-32.2-22.6-56.4-52.7-63.4-86.3q-9.6 4.8-19.1 9.7 2.5 5.9 5.9 11.5c9.2 15.4 22 29.4 34.9 42.4 11.7 11.5 24 22.5 36.6 33.4 17.5 15.1 35.4 30.1 52.5 45.9 9.4 8.7 19 17.9 27.7 27.6 12.7 14.2 23.5 30.3 31.3 47.7 13.3 28.8 16 61 18.8 91.8 2 19 5.4 37.3 17.2 52.5 11.9 15.6 29.3 25.7 46.9 34.1zm-451.6-893.8q-0.5-0.5-1-1 11.4-8.8 23.5-16.8-0.2 0.5-0.3 0.9-0.2 0.6-0.3 1.3-11.2 7.4-21.9 15.6zm-61.9 59.9q-0.7-0.2-1.5-0.5c15.7-19.2 33.4-36.9 52.8-52.8q-0.1 0.3-0.2 0.7-0.2 0.8-0.3 1.6c-18.4 15.3-35.4 32.4-50.8 51zm82.4 562.8q-4.7-3.2-9.3-6.5 0.6-0.4 1.2-0.9 4.4 3.1 9 6.2-0.4 0.6-0.9 1.2zm-130.6-148.7q-4-8.2-7.7-16.5 0.5-0.9 0.9-1.8 2.1 5 4.4 9.8c0.9 2.8 1.7 5.6 2.4 8.5zm147.7-499.6q-0.3-0.6-0.6-1.3c87.5-52.3 190.1-67.6 289-43.2 99.7 24.5 183.8 86.5 236.9 174.3 53.1 87.8 68.8 191.1 44.3 290.7-1.9 7.5-4 14.9-6.2 22.1q-0.6-0.2-1.2-0.5 3.4-10.8 6.1-21.9c50.6-205-75.1-412.9-280.2-463.5-30.6-7.5-61.4-11.2-91.6-11.2-70.3 0-138 19.6-196.5 54.5zm387.4 415.1c0.7 19.3 2.7 38.3 8.2 56.4 11.3 38.9 41.2 67 76.4 86.9 6.8 3.9 14.3 8.5 21 12.6 27.8 17.3 59.2 36.9 85.3 60.6 16.5 14.8 30.8 31.3 40.8 49.9 9.9 17.9 14 37.6 14.1 57.6 0.2 25.2-5.9 50.9-14.4 74 6-54.6 4.6-103.1-39.7-141.1-31.3-27.3-69.4-45.7-106.3-64.6-10.5-5.4-21.6-10.4-32.4-16-9.4-4.8-18.7-9.9-27.2-15.9-19.3-13-35.2-28.8-47.5-46.9-15.2-22.3-25.1-47.9-29.5-76.1-7.4-44.2-2.6-89.2-2.8-132.8-0.1-19.4-1.3-39.4-5.5-58.1-9.3-38.1-30-71.4-57.7-97.8-14.4-13.8-30.7-25.8-48.4-35.6-44.8-25.1-98-36.4-149.3-29.6 47.7-21.3 101.1-21.4 150.2-5.8 66.9 21.4 125.6 72.2 150.3 138.4 6.4 16.9 10.4 35.3 12.6 53 5.3 43.2 0.5 88.7 1.8 130.9zm-419.9 222.3c-39.7-29.4-73.6-66.5-99.9-110.1q-2.1-3.4-4.1-6.9 0.5-0.6 1-1.3c26 45.4 61.2 85.4 103.8 117q-0.4 0.7-0.8 1.3zm-153.4-331.7q-0.7 0.5-1.3 1c1.3-23.4 4.8-46.9 10.6-70.1 13.3-54.2 37.8-103.8 71.4-146.3q0 1 0.2 2.1c-32.5 41.4-57 90.1-70.4 144.5-5.7 23-9.1 46-10.5 68.8zm-22.8 113.2c1.9 8.9 4.9 17.4 8.5 25.9-2.3-2.7-4.5-5.4-6.5-8.3q-1.3-1.8-2.5-3.7c-21.6-33.3-17-74.9 10.7-103.3 25.7-26.4 51.5-26 81.5-40 25.5-11.8 32.8-31.9 30.8-58.9-0.6-10-3.3-20-2.8-30.2 0.3-22.5 10-43.6 24.6-60 14-15.6 31.6-27.5 51.2-34.3 9.5-3.1 20.1-5.8 29.9-2.8-9.8 0.1-18.5 4.9-26.7 9.7-22.9 14.3-43.8 37.1-51.6 62.2-2.5 8.1-3.6 16.5-3.1 24.9q0 1 0.1 2c0.9 8.8 3.5 17.2 4.4 26 1.1 8.4 1.3 17.2 0.2 25.8-1.8 14.7-7 28.8-17.1 40-15.4 17.3-37.3 24.8-58.1 30.3-9.1 2.5-17.8 4.4-26.4 7.9-16 6.5-30 17.8-38.9 32.8-8.2 13.7-11.1 30.3-9.4 46.3q0.4 3.9 1.2 7.7zm35.8 72.8c-5.1 1.6-9.8 1.4-14.3 0.6 4.4-3.3 10.4-6.7 11.7-12.1 0.3-4.5-1.7-7.6-3.9-12.4-1.7-3.4-3.6-6.9-5.6-10.5-11.5-19.6-15.8-41.8-9.6-63.9 9.5-35.1 45.1-60.1 80.9-59.2-37.5 24.2-67.4 58.7-52.2 105 1 3.1 2 6.2 2.8 9.3 4.1 14 8.1 37.3-9.8 43.2zm181.4-175c-3 4.2-5.9 8.5-9.7 12.1 15.4 0 30.9-1.9 46-3.3-22.3 10-55.9 13.7-77.3 0.1 9.9 2.4 20.1 3.2 30.4 3.2 3.8-7.3 7.1-14.8 11-22 0.9-1.8 2.6-5 3.4-6.8 0.1-0.1 0.3-0.5 0.3-0.6 0 0.1-0.1 0.4-0.1 0.5l3.2-2.4c4 0.6 7.6 1.6 11.3 2.9 10.5 3.9 22.5 10.9 24.9 22.7-7.2-12-22.1-16.7-35.1-19.7q0 0.1 0 0.1c-2.5 4.5-5.3 9-8.3 13.2zm5.8-46.8c10.3 0.3 18.7 5.6 26.9 11.1-4.8-0.6-9.5-2-13.9-3.2-15.7-4.9-24.5-1.2-38.7 5.5 6.2-7.7 15.4-13.6 25.7-13.4zm-41.5 124.4c2.3 0.9 5.4 2.5 5.7 5.2-2.1-1.2-4.2-0.8-6.4-0.8-7 0.1-13.8 0.5-20.6-1.7 6.3-4 14.2-4.9 21.3-2.7zm11.8 0c1-8.1-3.7-10.3-10.9-12.4 3.6-2.2 9-2.4 12.6 0.5 6.7 5.2 3.4 15.4-2.7 19.4 0.3-2.8 0.8-5.2 1-7.5zm736.9 578.5c-26.6 7.1-56.7 2.5-79.4-14-23.3-16.3-39.3-41.1-51-66.6-17-38.2-25.4-78.6-30.9-119.5-0.8-6.1-1.3-12.6-2.4-18.7-2.6-15.2-9.8-28.3-21.7-38.1-7.8-6.5-17.6-11.7-28.4-16.1-5-2-10.2-3.8-15.4-5.5-18.5-5.9-38-10-57.2-14.2-33.9-7.2-70.3-15.4-103.8-29.3-33.4-13.7-63.9-33-86.4-62.2-11.9-15.1-21.1-32-27.7-49.8-4.7-11.5-7.4-25.5-7.3-37.3-0.2-16.4 2.4-31.2 5.7-45.2q2.7-11.3 6-22.2c5.7-18.9 12.5-37.2 19.1-55.7 8.4-23.9 17.4-48.2 21.9-72.5 4.5-24.2 4.1-49.4-18.8-62.1-8.1-4.5-16.2-8.9-24.4-13.3-35-18.6-70.4-36.2-104.1-57.7-21.3-14.3-47.8-32.7-53.3-59.3 12.8 31.1 66.6 49.6 96.5 61.9 20.5 8 41.1 15.7 61.7 23.8q7.3 2.9 14.7 5.9 10.5 4.3 21 8.8c31.9 13.2 46.6 41.8 47.2 75.1 0.2 35.8-9.9 70.3-20.3 104-3.8 12.5-7.7 24.8-11.2 37.1-5.9 20.5-12 42.9-12.7 63.6q-0.1 3.3-0.1 6.6c0.3 8.1 1.9 13.7 4.8 20.7q1.2 3.2 2.5 6.2c29.9 67.5 98.8 85.6 166.5 102.2 59.5 14.6 118.1 28.1 148.6 72.9 10.8 16.3 16.1 35.7 16.9 54.9l0.1 2.5 0.4 9.6c1.2 25.7 3.6 51.3 8.2 76.5 7.1 36.4 18 74.6 44.8 101.4 18.4 18.3 43.9 26.2 69.9 25.6zm2.4-221.1c8.9 3.9 18.4 7.3 27.6 11.6-15.5 3.2-29 4-40.9 2.2-25.6-3.8-44.2-19.4-61.3-48.3-6.4-10.8-11.5-21.4-17.4-32.2-22-41.6-45.8-70.4-85.4-93q-4.8-2.7-10-5.3 3.3 0 6.5 0.1c50.9 2.6 92 39.1 116.6 82.5 12.2 20.3 20.8 42.5 34.4 60.3 7.9 10.8 18.5 17 29.9 22.1zm-486.2-42.4q0.8 0.7 1.6 1.3-21 2.4-42.1 2.4-3.9 0-7.8-0.1 0.1-0.7 0.2-1.4c16.2 0.3 32.3-0.4 48.1-2.2zm122.3-157.1c23.2 20.4 52.7 36.1 80.2 50.6 12.6 6.4 24.9 12.4 37.3 19.5-4.1 0.2-8.2 0.2-12.3 0.1-20.2-0.1-40.9-2.9-60.5-8-57.8-14.3-112.2-52.7-124.1-114.7-10.1-53 10-104.2 33.8-150.2 3.6 75.2-20.6 146.4 45.6 202.7zm-62.6-333.9c1.5 3.1 3 6.4 4.3 9.8q1.4 3.7 2.7 7.3-5.1-3.9-10.1-7.8c-7.5-5.7-14.9-11.4-22.4-17-16.3-12.2-33-23.6-51.2-32.9q-0.7-0.3-1.4-0.7c-19.8-10.2-40.3-17.3-61.8-23.8-33.6-10.6-73.7-19.3-96.3-49.3 33.8 12.1 69.1 10.5 104.2 17.6 19.8 3.5 38.8 10 56.1 19.1 25.5 13.3 47.4 32.4 63.7 56.5 4.5 6.7 8.6 13.7 12.2 21.2zm164.2 388.6q-0.4 0.3-0.8 0.7-0.6-0.5-1.2-0.9 0.3-0.3 0.5-0.5 0.8 0.3 1.5 0.7zm192.5-5.8c-0.1-0.3-0.2-0.7-0.4-0.9-0.2-0.2-0.2 0.1 0.1 0.5q0.2 0.2 0.3 0.4zm-439.2-229.7c6.9-62-9.9-86.4-61.6-120.8-41.9-28.5-105.8-64.9-95.8-124.6 7.8 25.4 25.3 42.8 46.9 56.9 37.5 25.2 86.9 45 113.8 85.3q0.1 0.3 0.3 0.6c21 31.5 18.1 70.2-2.3 100.7q-0.7 1-1.3 1.9zm286.6 479.6c-2.5 9-5.5 19-0.1 27.4 1.1 1.7 2.5 3.3 4.1 4.7-4.3-0.6-8.7-2.8-12-6.6q0 0 0-0.1c-11.1-13.6-8.1-36.7-7.2-52.8q0-0.3 0-0.6c1.4-21.5 4.9-53.9-12-69.9-9.7-8.9-23.6-15.5-36.3-21.2q-1.2-0.6-2.3-1.1c-12.9-5.6-26.4-10.8-40-16.1q-3.1-1.2-6.1-2.4c-21.8-8.9-52-20.2-78.1-35.3-22-12.7-41.1-28.2-49.7-47.2 5 5.4 10.9 10 17.4 14.1 21.1 13.5 48.3 21.1 71.1 28.1 40.7 12.4 83.2 21.5 121.8 41 18.6 9.8 35.2 22.7 41.4 44.7 9.9 32.1-3.1 64.4-12 93.3zm-113.5-33.6c0.1 9.7 0.1 19.7 3.1 29.1 2 6.1 5.1 10.9 9.5 16.3-7.2-0.6-14.4-4.1-19.9-9.1-5.6-5.2-9.8-11.9-12.9-18.8-2.8-6.5-4.9-13.2-6.6-20.1-3.7-14.6-5.5-29.7-8.6-44-7.3-36.5-21.2-56.5-44.9-84.4 4.7 0.7 9.4 1.8 14 3.3 9.8 3.2 19.1 8.3 27.4 14.9 10.7 8.6 19.7 19.6 25.5 31.9 12.7 24.6 13.6 55.7 13.4 80.9zm159.9 191.3c-37-7.3-71.9-29.8-91.2-63.2-13.5-22.5-19.9-49.6-22.7-74.9-5.6-42.2 0-88.4-24.9-124.8-8.2-12-19.3-21.9-31.1-30.9 41.2 8.3 66.6 38.5 76.8 78.1 6.6 24 8.3 49.9 11.2 73.8 6.9 68.3 27.7 101.6 81.9 141.9zm25.8-538c40.6 29.6 98.4 68.8 148.4 74.6 11.3 1.1 22.5-0.1 33.4-4.2-8 9.6-20.3 15.3-32.5 17.8-58.2 10.2-125.3-31.2-163.8-72.1-13.8-15-35.9-42.8-33.7-64 6.8 16.8 33.6 36.5 48.2 47.9zm-424.9 239.2q-22.2-2.8-44.3-8.2c-41.1-10.2-79.6-26.7-114.4-48.8q0.7-0.4 1.4-0.8c34 21.6 72 38.2 113.3 48.3 14.6 3.6 29.3 6.3 43.9 8.2q0 0.6 0.1 1.3zm-184.1-228.5q1-2.3 2.3-4.4c2.3-3.8 5.2-7.4 8-10.8q-0.1-0.9-0.1-1.9c-2.9-0.7-5.7-1.4-8.5-2.2q-2.1-0.6-4.2-1.4c-3.6-1.3-7.2-3-10.5-5.4q-1.8-1.3-3.2-2.9c0.7 5.1 4.3 11 7.2 15.8 2.8 4.5 5.9 8.8 9 13.2z"/></svg>