<svg version="1.2" xmlns="http://www.w3.org/2000/svg" viewBox="0 0 403 379" width="362" height="340">
	<title>15721665201551993337-svg</title>
	<defs>
		<linearGradient id="g1" x1="65.1" y1="213.1" x2="424.7" y2="221.8" gradientUnits="userSpaceOnUse">
			<stop offset="0" stop-color="#192f35"/>
			<stop offset="1" stop-color="#000a12"/>
		</linearGradient>
		<linearGradient id="g2" x1="75.9" y1="213" x2="413.4" y2="221.2" gradientUnits="userSpaceOnUse">
			<stop offset="0" stop-color="#b8b6af"/>
			<stop offset=".006" stop-color="#b8b6af"/>
			<stop offset=".534" stop-color="#e6ded1"/>
			<stop offset="1" stop-color="#f5ecde"/>
		</linearGradient>
		<linearGradient id="g3" x1="79.4" y1="152.7" x2="437.6" y2="161.4" gradientUnits="userSpaceOnUse">
			<stop offset="0" stop-color="#192f35"/>
			<stop offset="1" stop-color="#000a12"/>
		</linearGradient>
		<clipPath clipPathUnits="userSpaceOnUse" id="cp1">
			<path d="m383.7 204.31c-20.42 73.22-114.6 110.93-210.35 84.22-95.75-26.71-156.81-107.72-136.39-180.94 20.42-73.22 114.6-110.93 210.35-84.22 95.75 26.71 156.82 107.72 136.39 180.94z"/>
		</clipPath>
		<linearGradient id="g4" x1="79.4" y1="152.7" x2="437.7" y2="161.4" gradientUnits="userSpaceOnUse">
			<stop offset="0" stop-color="#030d12"/>
			<stop offset="1" stop-color="#000a12"/>
		</linearGradient>
		<linearGradient id="g5" x1="77.7" y1="152.1" x2="438.4" y2="160.8" gradientUnits="userSpaceOnUse">
			<stop offset="0" stop-color="#030d12"/>
			<stop offset="1" stop-color="#000a12"/>
		</linearGradient>
		<linearGradient id="g6" x1="76.4" y1="145.7" x2="424.1" y2="154.1" gradientUnits="userSpaceOnUse">
			<stop offset="0" stop-color="#030d12"/>
			<stop offset="1" stop-color="#000a12"/>
		</linearGradient>
		<linearGradient id="g7" x1="74.3" y1="150.8" x2="422" y2="159.2" gradientUnits="userSpaceOnUse">
			<stop offset="0" stop-color="#030d12"/>
			<stop offset="1" stop-color="#000a12"/>
		</linearGradient>
		<linearGradient id="g8" x1="75.3" y1="157.3" x2="422.9" y2="165.7" gradientUnits="userSpaceOnUse">
			<stop offset="0" stop-color="#030d12"/>
			<stop offset="1" stop-color="#000a12"/>
		</linearGradient>
		<linearGradient id="g9" x1="80.3" y1="142.4" x2="428" y2="150.8" gradientUnits="userSpaceOnUse">
			<stop offset="0" stop-color="#030d12"/>
			<stop offset="1" stop-color="#000a12"/>
		</linearGradient>
		<linearGradient id="g10" x1="85.7" y1="142.6" x2="433.4" y2="151.1" gradientUnits="userSpaceOnUse">
			<stop offset="0" stop-color="#030d12"/>
			<stop offset="1" stop-color="#000a12"/>
		</linearGradient>
		<linearGradient id="g11" x1="89.6" y1="158.4" x2="435.1" y2="166.8" gradientUnits="userSpaceOnUse">
			<stop offset="0" stop-color="#030d12"/>
			<stop offset="1" stop-color="#000a12"/>
		</linearGradient>
		<linearGradient id="g12" x1="85.2" y1="161.8" x2="430.8" y2="170.2" gradientUnits="userSpaceOnUse">
			<stop offset="0" stop-color="#030d12"/>
			<stop offset="1" stop-color="#000a12"/>
		</linearGradient>
		<linearGradient id="g13" x1="79.2" y1="161.6" x2="424.8" y2="170" gradientUnits="userSpaceOnUse">
			<stop offset="0" stop-color="#030d12"/>
			<stop offset="1" stop-color="#000a12"/>
		</linearGradient>
		<linearGradient id="g14" x1="92" y1="153" x2="437.5" y2="161.4" gradientUnits="userSpaceOnUse">
			<stop offset="0" stop-color="#030d12"/>
			<stop offset="1" stop-color="#000a12"/>
		</linearGradient>
		<linearGradient id="g15" x1="91" y1="146.3" x2="436.5" y2="154.7" gradientUnits="userSpaceOnUse">
			<stop offset="0" stop-color="#030d12"/>
			<stop offset="1" stop-color="#000a12"/>
		</linearGradient>
	</defs>
	<style>
		.s0 { fill: #1a1919 } 
		.s1 { fill: url(#g1) } 
		.s2 { fill: url(#g2) } 
		.s3 { fill: url(#g3) } 
		.s4 { fill: url(#g4) } 
		.s5 { fill: url(#g5) } 
		.s6 { fill: url(#g6) } 
		.s7 { fill: url(#g7) } 
		.s8 { fill: url(#g8) } 
		.s9 { fill: url(#g9) } 
		.s10 { fill: url(#g10) } 
		.s11 { fill: url(#g11) } 
		.s12 { fill: url(#g12) } 
		.s13 { fill: url(#g13) } 
		.s14 { fill: url(#g14) } 
		.s15 { fill: url(#g15) } 
	</style>
	<g id="Layer_1">
		<path id="Layer" class="s0" d="m363.8 275.7c-20.4 73.2-114.6 110.9-210.4 84.2-95.7-26.7-156.8-107.7-136.4-180.9 20.5-73.2 114.6-110.9 210.4-84.2 95.8 26.7 156.8 107.7 136.4 180.9z"/>
		<path id="Layer" class="s1" d="m238.7 348.5c-25.4 2.1-52.6-0.2-79.9-7.8-91.5-25.6-151.3-100.7-138.6-171.2q0.1-0.5 0.2-1 0.4-2.5 1-4.9 0.4-1.7 0.9-3.4 0.1-0.3 0.1-0.5 1-3.5 2.2-6.9 0.1-0.3 0.2-0.6 1.6-4.4 3.5-8.5c-1.6 14.6-0.2 29.3 3.9 43.7 0.1 59.8 53 119.3 130.1 140.8 25.3 7.1 50.5 9.3 74 7.2 48.2-4.1 89.3-26 110.2-60.3 10.9-10.2 19.8-22.1 25.9-35.5q-0.9 8.5-3.2 16.8-1.4 4.9-3.2 9.5c-17.9 47-67.7 77.4-127.3 82.6z"/>
		<path id="Layer" class="s2" d="m236.3 335.4c-23.5 2.1-48.7-0.1-74-7.2-77.1-21.5-130-81-130.1-140.8 15 52.9 66.2 101 135.8 120.4 27.3 7.6 54.4 10 79.8 7.8 39.3-3.4 74.3-17.7 98.7-40.5-20.9 34.3-62 56.2-110.2 60.3z"/>
		<path id="Layer" class="s0" d="m378.3 223.6c-20.4 73.2-114.6 110.9-210.3 84.2-95.8-26.7-156.8-107.7-136.4-180.9 20.4-73.3 114.6-111 210.3-84.3 95.8 26.7 156.9 107.7 136.4 181z"/>
		<path id="Layer" fill-rule="evenodd" class="s3" d="m251.9 296.4q-4.2 0.4-8.5 0.5l-0.4-10q4.1-0.2 8.1-0.5zm4.3-0.4l-1-10q4.1-0.4 8.1-0.9l1.4 9.9q-4.2 0.6-8.5 1zm-17.1 1.1q-4.3 0-8.6 0l0.2-10.1q4.2 0.1 8.2 0zm29.8-2.7l-1.6-9.9q4-0.7 8-1.5l2.1 9.8q-4.2 0.9-8.5 1.6zm-42.6 2.6q-4.3-0.2-8.6-0.5l0.8-10.1q4.1 0.4 8.1 0.5zm55.3-5.1l-2.3-9.7q4-1 7.8-2.1l2.8 9.7q-4.1 1.1-8.3 2.1zm-68.1 4.2q-4.2-0.4-8.5-1l1.4-9.9q4.1 0.5 8.1 0.9zm80.5-7.6l-3-9.6q3.9-1.2 7.6-2.5l3.5 9.4q-4 1.4-8.1 2.7zm-93.2 6q-4.2-0.6-8.5-1.5l1.9-9.8q4.1 0.7 8.1 1.4zm105.3-10.3l-3.7-9.3q3.8-1.5 7.5-3.2l4.1 9.2q-3.9 1.7-7.9 3.3zm-118 7.9q-4.1-0.8-8.3-1.9l2.4-9.7q4 1 8 1.8zm129.8-13.1l-4.5-9q3.7-1.8 7.2-3.7l4.8 8.7q-3.7 2.1-7.5 4zm-142.2 10.1q-1.1-0.3-2.3-0.6-3-0.8-6-1.8l3-9.6q2.8 0.9 5.7 1.7 1.1 0.3 2.2 0.6zm-88.9-66.4c-22.6-23.1-36.6-50.4-39-77.9-0.9-11.2 0-22.4 3.1-33.4 6.4-23.1 21.3-42.2 41.9-56.2 20.6-14 46.9-22.9 75.8-25.4q0 0 0.1 0c23.7-2 49.2 0.2 74.8 7.4 36.7 10.2 67.9 28.9 90.5 51.9 22.7 23.1 36.6 50.4 39 77.9 1 11.2 0 22.4-3.1 33.4-6.4 23.1-21.3 42.2-41.9 56.2-20.6 14-46.9 22.9-75.8 25.4q0 0 0 0c-23.8 2-49.3-0.2-74.9-7.4-36.7-10.2-67.9-28.9-90.5-51.9zm168.9 20.6c6.2 10.6 13.3 14.9 17.7 14.6 5.5-0.5 6.6-8.4-4-20.4 21.2-6.7 19-18.1 5.8-17-3.9 0.4-8.9 1.8-14.5 4.9-6.1-10.6-13.3-14.9-17.7-14.6-5.4 0.5-6.6 8.3 4 20.4-21.1 6.7-18.9 18.1-5.8 17 4-0.4 8.9-1.8 14.5-4.9zm-68.8-5.2c6.1 10.6 13.3 15 17.6 14.6 5.5-0.5 6.7-8.3-3.9-20.4 21.1-6.7 18.9-18.1 5.8-17-4 0.4-8.9 1.9-14.5 4.9-6.2-10.6-13.4-14.9-17.7-14.5-5.5 0.4-6.6 8.3 4 20.3-21.2 6.7-19 18.1-5.9 17 4-0.3 9-1.8 14.6-4.9zm130.4-27.5c6.1 10.6 13.3 14.9 17.7 14.5 5.4-0.4 6.6-8.3-4-20.3 21.2-6.8 19-18.1 5.8-17-4 0.3-8.9 1.8-14.5 4.9-6.2-10.6-13.3-15-17.7-14.6-5.5 0.5-6.6 8.3 4 20.4-21.2 6.7-19 18.1-5.8 17 3.9-0.4 8.9-1.9 14.5-4.9zm-192-3.7c6.1 10.6 13.3 14.9 17.6 14.6 5.5-0.5 6.6-8.4-4-20.4 21.2-6.7 19-18.1 5.9-17-4 0.4-9 1.8-14.6 4.9-6.1-10.6-13.3-14.9-17.6-14.6-5.5 0.5-6.7 8.4 3.9 20.4-21.1 6.7-18.9 18.1-5.8 17 4-0.4 8.9-1.8 14.6-4.9zm73.8-10.3c17.2 4.8 34.1 6.4 49.1 5.1 12.8-1.1 24.2-4.3 33.1-9.5 4.4-2.6 8.2-5.7 11.2-9.2 3.1-3.6 5.3-7.7 6.5-12.1 1.1-3.7 1.4-7.5 1.1-11.2-0.6-6.4-3-12.8-6.8-18.9-5.7-9.3-14.7-18-26-25.6-11.4-7.5-25.2-13.8-40.5-18.1-17.3-4.8-34.2-6.4-49.1-5.1-12.8 1.1-24.2 4.3-33.1 9.5-4.4 2.6-8.2 5.6-11.3 9.2-3 3.6-5.2 7.6-6.5 12.1-1 3.7-1.3 7.4-1 11.2 0.6 6.4 2.9 12.8 6.7 18.9 5.7 9.2 14.7 18 26.1 25.5 11.4 7.6 25.1 13.9 40.5 18.2zm132.2-36.4c6.6 9.8 14 13.9 18.3 13.5 5.2-0.4 5.8-7.3-4.9-18.3 21.4-5.4 18.2-16 4.3-14.8-3.8 0.3-8.3 1.5-13.3 3.8-6.5-9.8-13.9-13.8-18.2-13.4-5.2 0.4-5.9 7.3 4.8 18.2-21.3 5.5-18.1 16-4.2 14.8 3.7-0.3 8.2-1.4 13.2-3.8zm56 5.3q0 0.1 0 0.3 0-0.2 0-0.3zm-10 0.9q-0.4-3.9-1-7.8l9.9-1.6q0.7 4.2 1.1 8.5zm8.9-9.4q-0.4-2.1-0.8-4.2 0.4 2.1 0.8 4.2zm-10.6-2.3q-0.8-3.8-1.8-7.6l9.6-2.6q1.2 4.1 2 8.3zm7.9-10.3q-0.6-2.1-1.3-4.1 0.7 2 1.3 4.1zm-10.8-1.1q-1.2-3.8-2.6-7.5l9.3-3.6q1.6 4 2.8 8.1zm6.8-11.1q-0.8-2-1.6-4 0.8 2 1.6 4zm-10.9-0.1q-1.5-3.6-3.3-7.2l9-4.5q1.9 3.9 3.6 7.8zm5.6-11.7q0-0.1-0.1-0.1 0.1 0 0.1 0.1zm-2-3.8l-8.8 4.7q-1.9-3.5-4-6.9l8.6-5.2q-0.5-0.8-1-1.6 3.9 6.2 7.1 12.7-0.9-1.9-1.9-3.7zm-5.2-9q-0.6-1-1.3-2 0.7 1 1.3 2zm-9.7 3.4q-2.2-3.3-4.5-6.6l8-5.9q2.6 3.5 4.9 7.1zm3.5-12.6q0 0 0 0 0 0 0 0zm-2.5-3.4l-8 6.1q-2.4-3.2-5-6.3l7.6-6.5q-1-1.2-2.1-2.4 5.4 6.1 10 12.5-1.2-1.7-2.5-3.4zm-7.5-9.1q-0.4-0.4-0.7-0.8 0.3 0.4 0.7 0.8zm-8.2 5.9q-2.7-3-5.5-5.9 0 0 0 0l7.1-7q3 3 5.9 6.2zm1.6-12.9q-0.3-0.3-0.6-0.6 0.3 0.3 0.6 0.6zm-2.3-2.3q-0.4-0.4-0.7-0.7 0.3 0.3 0.7 0.7zm-7.7 6.5q-2.9-2.8-6-5.6l6.7-7.5q-1.6-1.4-3.2-2.8l-6.5 7.7q-3.1-2.6-6.3-5.1l6.1-8q-1.6-1.3-3.4-2.6l-6 8.1q-3.2-2.4-6.6-4.8l5.7-8.3q-1.3-0.8-2.5-1.6c10.6 7 20.3 14.9 29 23.3zm-22-30.5q-0.5-0.4-1.1-0.7 0.6 0.3 1.1 0.7zm-6.6 7.7q-3.4-2.2-6.9-4.3l5.2-8.7q-1.9-1.1-3.7-2.1l-5.1 8.7q-3.5-2-7.1-3.9l4.6-8.9q-0.4-0.3-0.9-0.6 10.1 5.3 19.4 11.4zm-13.9-19.8q-1.4-0.7-2.9-1.4 1.5 0.7 2.9 1.4zm-7.3 7.6q-3.7-1.8-7.4-3.5l4.1-9.2q-1.9-0.9-3.9-1.7l-4 9.2q-3.7-1.6-7.6-3.1l3.7-9.3q10.1 3.9 19.5 8.6zm-15.1-17.7q-2-0.7-4-1.5 2.1 0.8 4 1.5zm-7.4 8q-3.9-1.4-7.8-2.7l3.1-9.6q-0.2-0.1-0.5-0.1 4.4 1.4 8.6 2.9zm-5.1-12.4q-1.8-0.6-3.6-1.1 1.8 0.5 3.6 1.1zm-6.5 8.5q-2.7-0.8-5.5-1.6-1.2-0.3-2.4-0.6l2.6-9.8q1.3 0.4 2.5 0.7 2.9 0.8 5.7 1.7zm-5.3-12q-2.1-0.5-4.1-1.1 2 0.6 4.1 1.1zm-6.5 8.7q-4-1-8-1.8l2-9.9q4.2 0.9 8.4 1.9zm-5.9-11.6q-0.1 0-0.2-0.1 0.1 0.1 0.2 0.1zm-4.3-0.9l-1.8 9.9q-4.1-0.8-8.1-1.4l1.5-9.9q6.2 0.9 12.5 2.2-2-0.4-4.1-0.8zm-8.4-1.4q-0.5-0.1-1-0.2 0.5 0.1 1 0.2zm-4.2-0.6l-1.4 9.9q-4.1-0.5-8.1-0.9l1-10q-2.2-0.2-4.3-0.4l-0.8 10q-4.1-0.3-8.2-0.4l0.5-10.1q-2.2-0.1-4.3-0.1l-0.2 10q-4.1 0-8.2 0.1l-0.2-10.1q-2.1 0-4.3 0.1l0.4 10.1q-4.1 0.1-8.1 0.5l-0.8-10c16.1-1.4 33-0.8 50.2 1.7q-1.6-0.2-3.2-0.4zm-47-1.3q-0.1 0-0.2 0 0.1 0 0.2 0zm-1 0q-1.6 0.2-3.3 0.3l1.1 10q-4.1 0.5-8.2 1l-1.4-9.9q-2.1 0.3-4.2 0.7l1.6 9.9q-4 0.6-7.9 1.5l-2.1-9.8q-2.1 0.4-4.2 0.9l2.3 9.8q-3.9 0.9-7.8 2l-2.8-9.6q-2.1 0.6-4.1 1.2l3 9.6q-3.9 1.2-7.6 2.6l-3.5-9.4q-2 0.7-4 1.5l3.7 9.3q-3.8 1.5-7.4 3.2l-4.2-9.1q-1.9 0.9-3.8 1.8l4.4 9q-3.7 1.8-7.1 3.7l-4.9-8.7q0 0-0.1 0c20.9-11.7 45.7-19.2 72.5-21.5q0.4 0 0.8 0-0.4 0-0.8 0zm-76.1 23.6l5.1 8.6q-3.1 1.9-6.1 4-0.3 0.1-0.5 0.3l-5.7-8.2q-1 0.7-2 1.4 5.2-3.8 10.9-7.1 0.9-0.5 1.9-1.1-1 0.6-1.9 1.1 0 0 0 0-0.9 0.5-1.7 1zm-9.2 6.1q-0.8 0.5-1.5 1.1 0.7-0.6 1.5-1.1zm4.4 9.1q-3.2 2.4-6.2 4.9l-6.4-7.7q-0.1 0.1-0.1 0.1 3.3-2.8 6.8-5.3zm-12.8-2.7q-1.6 1.3-3.1 2.7 1.5-1.4 3.1-2.7zm3.6 10.1q-3 2.7-5.7 5.5l-7.2-7q3-3.1 6.2-5.9zm-12.9-1.6q-1.5 1.6-2.9 3.2 1.4-1.6 2.9-3.2zm4.5 9.9q-2.6 2.9-5 6l-7.9-6.2q2.6-3.4 5.5-6.5zm-12.9-0.2q-1.4 1.7-2.6 3.4 1.2-1.7 2.6-3.4zm5.5 9.2q-2.2 3.2-4.3 6.5l-8.5-5.2q2.2-3.6 4.7-7.1zm-12.9 1.2q-1.1 1.9-2.2 3.7 1.1-1.8 2.2-3.7zm6.6 8.6q-1.9 3.4-3.5 7l-9.1-4.2q-0.1 0.2-0.2 0.5 1.8-4.2 4-8.2zm-12.8 3.2q-0.8 1.8-1.5 3.5 0.7-1.7 1.5-3.5zm7.8 7.3q-1.5 3.6-2.7 7.3l-9.5-3.1q1.3-4.1 2.9-8zm-12.2 4.2q-0.6 1.9-1.2 3.8 0 0.1 0 0.2 0-0.1 0-0.2 0.6-1.9 1.2-3.8zm-1.2 4l9.7 2.5q-1.1 3.9-1.8 7.8l-9.9-1.9q0.8-4.2 2-8.4 0 0 0 0zm-2 8.4q-0.1 0.5-0.2 0.9 0.1-0.4 0.2-0.9zm-0.6 3.7q-0.1 0.3-0.1 0.6 0-0.3 0.1-0.6zm9.8 2q-0.5 3.9-0.8 7.8l-10-0.7q-0.2 2.1-0.3 4.2l10.1 0.3q-0.1 3.9 0.1 7.8l-10.1 0.5q0.1 1.9 0.3 3.9c-0.7-8.4-0.5-16.9 0.8-25.2zm-10.8 23.7q0.1 0.2 0.1 0.4 0-0.2-0.1-0.4zm10.1-0.5q0 0 0 0.1 0.3 3.8 0.9 7.7l-9.9 1.6q-0.7-4.3-1-8.5zm-8.8-27.8q0.1-0.1 0.1-0.3-0.3 1.4-0.5 2.8 0.2-1.2 0.4-2.5zm308.9-38.9q-0.9-0.8-1.8-1.7 0.9 0.9 1.8 1.7zm-49.6 27.4c6.6 9.9 14 13.9 18.3 13.5 5.1-0.4 5.8-7.3-4.9-18.2 21.4-5.5 18.1-16.1 4.3-14.9-3.8 0.3-8.3 1.5-13.3 3.9-6.5-9.9-13.9-13.9-18.2-13.5-5.2 0.4-5.9 7.3 4.8 18.2-21.3 5.5-18.1 16.1-4.2 14.9 3.7-0.4 8.2-1.5 13.2-3.9zm-190.5-9.1c6.6 9.8 14 13.8 18.2 13.4 5.2-0.4 5.9-7.3-4.8-18.2 21.4-5.5 18.1-16 4.2-14.8-3.7 0.3-8.2 1.4-13.2 3.8-6.5-9.8-13.9-13.9-18.2-13.5-5.2 0.4-5.9 7.3 4.8 18.3-21.3 5.4-18.1 16-4.2 14.8 3.7-0.3 8.2-1.5 13.2-3.8zm128.5-20.5c6.5 9.8 13.9 13.8 18.2 13.4 5.2-0.4 5.9-7.3-4.8-18.2 21.3-5.5 18.1-16 4.2-14.8-3.7 0.3-8.2 1.4-13.2 3.8-6.6-9.8-13.9-13.9-18.2-13.5-5.2 0.4-5.9 7.3 4.8 18.2-21.3 5.5-18.1 16.1-4.2 14.9 3.7-0.3 8.2-1.5 13.2-3.8zm-68.5-6.8c6.6 9.9 14 13.9 18.3 13.5 5.2-0.4 5.9-7.3-4.9-18.2 21.4-5.5 18.2-16.1 4.3-14.9-3.8 0.4-8.3 1.5-13.3 3.9-6.5-9.9-13.9-13.9-18.2-13.5-5.2 0.4-5.9 7.3 4.8 18.2-21.3 5.5-18.1 16.1-4.2 14.9 3.7-0.4 8.2-1.5 13.2-3.9zm165.6 203.4l-5.2-8.6q3.3-1.9 6.5-4.1 0.1-0.1 0.2-0.1l5.7 8.2q-3.5 2.4-7.2 4.6zm-165.8 12.6q-4.1-1.3-8.1-2.8l3.5-9.5q3.8 1.5 7.7 2.7zm176.5-19.6l-5.9-8.1q3.3-2.4 6.3-4.9l6.4 7.7q-3.3 2.7-6.8 5.3zm-188.6 15.3q-4-1.5-7.9-3.2l4-9.3q3.8 1.6 7.6 3.1zm-11.8-4.9q-4-1.8-7.8-3.7l4.5-9q3.7 1.8 7.4 3.5zm210.5-18.4l-6.7-7.5q2.9-2.6 5.7-5.4l7.1 7q-2.9 3-6.1 5.9zm-222 12.8q-3.8-2-7.5-4.2l5-8.7q3.5 2 7.1 3.9zm231.1-21.8l-7.4-6.7q2.7-2.9 5-6l8 6.2q-2.7 3.4-5.6 6.5zm-242.2 15.6q-3.7-2.3-7.3-4.6l5.5-8.4q3.4 2.2 7 4.4zm250.4-25.5l-8.2-5.9q2.3-3.2 4.4-6.5l8.5 5.3q-2.2 3.6-4.7 7.1zm-261.2 18.5q-3.6-2.4-7-5l6-8q3.3 2.4 6.6 4.7zm268.2-29.3l-8.8-4.9q1.9-3.4 3.5-6.9l9.2 4.2q-1.8 3.9-3.9 7.6zm-278.5 21.7q-3.4-2.6-6.6-5.4l6.5-7.6q3.1 2.6 6.3 5.1zm284.1-33.2l-9.3-3.9q1.4-3.5 2.6-7.3l9.6 3.1q-0.9 2.8-1.9 5.4-0.5 1.4-1 2.7zm-294 25q-3.2-2.9-6.2-5.9l7-7.1q2.9 2.8 5.9 5.5zm-9.3-8.9q-3-3.1-5.8-6.2l7.5-6.7q2.6 3 5.5 5.9zm307.5-28.5l-9.8-2.5q1.1-4 1.9-8l9.9 1.8q-0.8 4.3-2 8.7zm-316.1 19q-2.8-3.3-5.4-6.6l7.9-6.1q2.5 3.1 5.1 6.2zm318.8-31.9l-9.9-1.5q0.5-3.8 0.8-7.7l10 0.7q-0.2 4.2-0.9 8.5zm-138.8 6.1c-14.3 1.3-30.7-0.2-47.5-4.9l-0.6 2.1 0.6-2.1c-19.9-5.6-37-14.7-49.3-25.2-6.1-5.2-11.1-10.9-14.6-16.5-3.5-5.7-5.6-11.5-6.1-17q-0.4-4.9 0.9-9.6c1.1-3.8 3-7.3 5.6-10.4 4-4.7 9.7-8.6 16.7-11.5 7-2.9 15.4-4.8 24.6-5.6q0 0 0 0 0.1 0 0.1 0c14.3-1.3 30.7 0.2 47.5 4.9 19.8 5.5 36.9 14.6 49.3 25.2 6.1 5.2 11.1 10.8 14.6 16.5 3.5 5.7 5.6 11.4 6 17q0.5 4.9-0.8 9.6c-1.1 3.8-3 7.2-5.6 10.4-4 4.6-9.7 8.5-16.7 11.5-7.1 2.9-15.4 4.8-24.7 5.6q0 0 0 0 0 0 0 0zm-188 15.7q-2.5-3.5-4.8-7l8.4-5.4q2.2 3.3 4.5 6.5zm327.9-34.6l-10-0.3q0.1-3.8-0.1-7.7l10-0.5q0.2 4.2 0.1 8.5zm-335 23.9q-2.2-3.6-4.2-7.4l8.8-4.7q1.9 3.5 4 6.9zm36.8-55.2c6.2 10.7 13.3 15 17.7 14.6 5.5-0.5 6.6-8.3-4-20.4 21.2-6.7 19-18.1 5.8-16.9-4 0.3-8.9 1.8-14.5 4.8-6.2-10.6-13.3-14.9-17.7-14.5-5.5 0.4-6.6 8.3 4 20.4-21.2 6.7-19 18.1-5.8 16.9 3.9-0.3 8.9-1.8 14.5-4.9zm-43 44q-1.9-3.9-3.6-7.8l9.2-3.9q1.6 3.6 3.3 7.2zm-5.1-11.7q-1.6-4-2.8-8.1l9.5-3q1.2 3.8 2.6 7.5zm-4-12.2q-1.1-4.2-2-8.3l9.9-2q0.7 3.8 1.8 7.6z"/>
		<g id="Clip-Path" clip-path="url(#cp1)">
			<g id="Layer">
				<path id="Layer" class="s0" d="m237.5 34.2l6.2-25.1q2.2 0.5 4.4 1.1l-6.7 25zm15.6 4.4l-3.9-1.2 7.6-24.7q2.1 0.6 4.3 1.3zm-27.4-7l4.9-25.4 4.4 0.9-5.3 25.3zm38.8 11.1l-3.8-1.4 8.9-24.3 4.3 1.6zm-50.8-13.1l3.4-25.6q2.2 0.3 4.5 0.6l-4 25.6q-2-0.3-3.9-0.6zm62 17.8l-3.8-1.6 10.3-23.8 4.1 1.8zm-74.1-19l2-25.8q2.3 0.2 4.5 0.4l-2.5 25.7zm85 24.4l-3.6-1.9 11.5-23.1q2 1 4.1 2.1zm-97.1-25l0.5-25.8q2.3 0 4.6 0.1l-1.1 25.8zm107.6 30.9l-3.5-2.1 12.9-22.4 3.9 2.3zm-119.7-30.7l-1-25.9q2.3 0 4.5-0.1l0.6 25.9zm129.8 37.2l-3.4-2.3 14.2-21.6q1.9 1.3 3.8 2.5zm-141.8-36.3l-2.7-25.7q2.3-0.3 4.6-0.5l2 25.8q-2 0.2-3.9 0.4zm151.5 43.5l-3.2-2.5 15.5-20.7q1.8 1.4 3.6 2.8zm-163.5-41.9l-4.2-25.5q2.2-0.4 4.5-0.7l3.7 25.6q-2 0.3-4 0.6zm172.7 49.5l-3-2.6 16.8-19.7q1.7 1.5 3.4 3zm-184.4-47.2l-6-25.1q2.2-0.5 4.5-1l5.4 25.3q-2 0.4-3.9 0.8zm193.1 55.5l-2.8-2.8 18-18.6q1.6 1.6 3.2 3.3zm-204.6-52.3l-7.7-24.7q2.2-0.7 4.4-1.3l7.1 24.8q-1.9 0.6-3.8 1.2zm212.7 61.1q-1.3-1.6-2.7-3.1l19.3-17.1q1.6 1.7 3 3.4zm-223.8-57.1l-9.5-24q2.1-0.9 4.3-1.7l8.9 24.3q-1.9 0.7-3.7 1.4zm231.2 66.4q-1.2-1.6-2.4-3.1l20.5-15.8q1.4 1.8 2.8 3.7zm-242-61.7l-11.4-23.2q2.1-1 4.2-2l10.7 23.6q-1.8 0.8-3.5 1.6zm248.5 71.5q-1-1.7-2.1-3.3l21.7-14.1q1.3 1.9 2.5 3.9zm-258.9-65.8l-13.3-22.1q2-1.3 4.1-2.4l12.6 22.6q-1.7 0.9-3.4 1.9zm264.6 76.1q-0.9-1.8-1.8-3.5l22.8-12.2q1.1 2.1 2.1 4.2zm-274.2-69.7l-15.3-20.8q1.9-1.4 3.8-2.7l14.7 21.3q-1.6 1.1-3.2 2.2zm278.9 80.3q-0.7-1.8-1.4-3.6l23.8-10.1q0.9 2.2 1.8 4.4zm-288-73l-17.2-19.2q1.7-1.6 3.5-3.1l16.6 19.8q-1.4 1.2-2.9 2.5zm291.6 84q-0.5-1.9-1.1-3.7l24.7-7.8q0.7 2.3 1.4 4.6zm-299.8-75.8l-19.2-17.4q1.6-1.7 3.3-3.4l18.6 17.9q-1.4 1.4-2.7 2.9zm302.2 87q-0.3-1.9-0.7-3.8l25.4-5.1q0.5 2.4 0.8 4.8zm-309.3-78.2l-21-15.1q1.4-2 2.9-3.9l20.3 16q-1.1 1.5-2.2 3zm310.6 89.5q-0.1-1.9-0.3-3.7l25.8-2.4q0.2 2.4 0.3 4.8zm-316.7-80l-22.6-12.6q1.2-2.1 2.4-4.1l22.1 13.4q-1 1.7-1.9 3.3zm316.6 91.2q0.2-1.8 0.2-3.7l25.8 0.7q0 2.4-0.2 4.8zm-321.5-81l-23.9-9.8q0.9-2.3 1.9-4.5l23.5 10.8q-0.8 1.7-1.5 3.5zm320.1 92.3q0.4-1.9 0.6-3.8l25.6 3.8q-0.3 2.4-0.8 4.7zm-348.6-88.5l0.1-0.4q0.6-2.1 1.2-4.2l24.7 7.9q-0.6 1.6-1 3.3zm370.3 108l-24.6-8q0.6-1.8 1.1-3.6l20.3 5.1 4.7 1.4c-0.5 2-1 3.5-1.5 5.1zm-373.3-93.9q0.3-2.4 0.8-4.7l25.4 4.8q-0.4 1.9-0.7 3.7zm368.2 107.2l-23.5-10.8q0.8-1.7 1.5-3.4l23.9 9.8q-0.9 2.2-1.9 4.4zm-369.4-92.9q0-2.4 0.2-4.8l25.8 1.8q-0.1 1.9-0.2 3.7zm362.6 105.7l-22-13.7q1-1.6 1.9-3.2l22.6 12.7q-1.2 2.1-2.5 4.2zm-362.2-91.3q-0.2-2.4-0.3-4.8l25.8-1.3q0.1 1.9 0.3 3.8zm354.1 102.9l-20.5-15.9q1.2-1.5 2.4-3.1l20.9 15.3q-1.4 1.8-2.8 3.7zm-352.1-88.8q-0.5-2.4-0.8-4.7l25.5-4.1q0.3 1.8 0.7 3.7zm342.6 99.6l-18.5-18.1q1.3-1.4 2.6-2.8l19.1 17.4q-1.6 1.8-3.2 3.5zm-339.1-85.9q-0.7-2.2-1.4-4.5l25-6.8q0.5 1.8 1.1 3.7zm328.7 95.5l-16.5-19.9q1.4-1.2 2.8-2.5l17.3 19.3q-1.8 1.5-3.6 3.1zm-323.9-82.2q-0.9-2.2-1.7-4.4l24.1-9.3q0.7 1.8 1.4 3.6zm312.7 90.6l-14.7-21.3q1.7-1.1 3.3-2.3l15.2 20.9q-1.9 1.4-3.8 2.7zm-306.7-78q-1-2.1-2.1-4.2l23.2-11.4q0.9 1.7 1.8 3.5zm294.6 85.4l-12.5-22.6q1.7-1 3.3-1.9l13.3 22.1q-2 1.2-4.1 2.4zm-287.6-73.4q-1.2-2-2.4-3.9l22.1-13.5q1 1.7 2.1 3.4zm275.2 79.7l-10.6-23.6q1.7-0.8 3.5-1.6l11.4 23.2q-2.1 1-4.3 2zm-267.2-68.4q-1.4-1.8-2.8-3.6l20.9-15.3q1.2 1.6 2.4 3.2zm254.5 73.6l-8.9-24.3q1.8-0.7 3.7-1.4l9.5 24.1q-2.2 0.8-4.3 1.6zm-245.7-62.9q-1.5-1.7-3-3.5l19.7-16.7q1.3 1.5 2.6 3zm232.6 67.2l-7.1-24.9q1.9-0.5 3.8-1.1l7.7 24.7q-2.2 0.6-4.4 1.3zm-223.1-57.3q-1.6-1.6-3.2-3.2l18.5-18.1 2.8 2.8zm209.8 60.6l-5.4-25.3 3.9-0.9 5.9 25.2q-2.2 0.5-4.4 1zm-199.7-51.3q-1.7-1.5-3.4-3l17.2-19.3q1.5 1.3 3 2.6zm186.1 53.7l-3.6-25.6q2-0.2 3.9-0.6l4.3 25.5q-2.3 0.4-4.6 0.7zm-175.4-45.1q-1.8-1.4-3.6-2.8l15.9-20.4q1.6 1.3 3.2 2.5zm161.9 46.6l-2.1-25.7 4-0.4 2.6 25.7q-2.3 0.3-4.5 0.4zm-150.8-38.8l-3.7-2.5 14.6-21.4 3.4 2.3zm137 39.5l-0.4-25.8q2-0.1 4-0.2l1 25.9q-2.3 0.1-4.6 0.1zm-125.4-32.4q-2-1.1-4-2.3l13.4-22.1q1.7 1 3.4 2zm112 32.2l0.9-25.8 4.1 0.1-0.6 25.9zm-99.9-25.8l-4-2.1 12-22.9 3.6 1.8zm86.3 24.9l2.5-25.7 4.1 0.3-2.1 25.8zm-74-19.1l-4.2-1.9 10.7-23.5 3.7 1.6zm60.6 17.5l3.9-25.6 4.1 0.6-3.5 25.6zm-48-12.4q-2.2-0.8-4.3-1.6l9.4-24.1 3.8 1.4zm34.6 10l5.4-25.3 3.9 0.8-4.8 25.4q-2.3-0.4-4.5-0.9zm-21.8-5.6l-4.3-1.4 8-24.6 3.9 1.2zm8.7 2.6l6.7-25 3.9 1-6.3 25.1z"/>
			</g>
		</g>
		<path id="Layer" class="s4" d="m251.1 286.4q-4 0.3-8.1 0.5l-0.1-2.9q-2 0.1-4 0.1v2.9q-4 0.1-8.1 0v-2.9l-4.1-0.1-0.1 2.9q-4-0.2-8.1-0.5l0.2-2.9-4-0.3-0.3 2.8q-4-0.4-8.1-0.9l0.4-2.8-4.1-0.6-0.4 2.8q-4-0.6-8-1.4l0.5-2.8-3.9-0.8-0.6 2.8q-4-0.9-8-1.9l0.7-2.7-4-1.1-0.7 2.8q-1.1-0.3-2.1-0.6l0.5-2 0.6-2.1c25.7 7.1 51.2 9.4 74.9 7.3q0 0 0 0c28.9-2.5 55.2-11.4 75.8-25.4 20.6-14 35.5-33.1 42-56.2 3-11 4-22.2 3-33.4-2.3-27.4-16.3-54.8-38.9-77.8-22.7-23.1-53.9-41.8-90.5-52-25.7-7.1-51.2-9.4-74.9-7.3q0 0 0 0c-29 2.5-55.3 11.3-75.8 25.4-20.6 14-35.6 33.1-42 56.2-3.1 11-4 22.2-3.1 33.4 2.4 27.4 16.4 54.8 39 77.8 22.6 23 53.8 41.8 90.5 52l-0.6 2.1-0.5 2q-2.9-0.8-5.8-1.6l0.9-2.8-3.9-1.2-0.9 2.7q-3.9-1.3-7.8-2.7l1-2.7-3.7-1.4-1.1 2.7q-3.8-1.5-7.6-3.1l1.2-2.7-3.7-1.6-1.2 2.6q-3.7-1.7-7.4-3.5l1.3-2.6-3.6-1.8-1.3 2.5q-3.7-1.9-7.2-3.9l1.4-2.5q-1.7-1-3.4-2l-1.5 2.4q-3.5-2.1-6.9-4.3l1.6-2.4-3.4-2.3-1.6 2.4q-3.4-2.3-6.7-4.8l1.8-2.3q-1.6-1.2-3.2-2.4l-1.8 2.3q-3.2-2.5-6.3-5.2l1.9-2.2q-1.5-1.3-3-2.6l-1.9 2.2q-3.1-2.7-6-5.6l2.1-2-2.9-2.9-2 2.1q-2.9-2.9-5.6-5.9l2.2-2q-1.3-1.5-2.6-3l-2.2 1.9q-2.6-3.1-5.1-6.3l2.3-1.7q-1.2-1.6-2.3-3.2l-2.4 1.7q-2.3-3.3-4.5-6.6l2.5-1.6q-1.1-1.7-2.2-3.4l-2.4 1.6q-2.1-3.5-4-7l2.6-1.3q-0.9-1.7-1.8-3.5l-2.6 1.3q-1.8-3.6-3.3-7.3l2.7-1.1q-0.8-1.8-1.5-3.6l-2.7 1.1q-1.4-3.7-2.6-7.5l2.8-0.8q-0.6-1.9-1.1-3.7l-2.8 0.7q-1-3.8-1.8-7.6l2.8-0.6q-0.3-1.8-0.6-3.7l-2.9 0.4q-0.6-3.8-0.9-7.7-0.1 0-0.1-0.1l2.9-0.2q-0.1-1.9-0.2-3.8l-2.9 0.1q-0.2-3.8-0.1-7.7l2.9 0.1q0-1.9 0.2-3.7l-2.9-0.2q0.3-3.9 0.9-7.8l2.8 0.5q0.3-1.9 0.6-3.7l-2.8-0.6q0.8-3.9 1.8-7.8l2.8 0.8q0.5-1.7 1-3.4l-2.7-0.8q1.2-3.7 2.6-7.3l2.7 1.1q0.7-1.8 1.5-3.5l-2.6-1.2q1.6-3.5 3.5-6.9l2.5 1.4q0.9-1.7 1.9-3.3l-2.5-1.5q2.1-3.3 4.3-6.5l2.4 1.7q1.1-1.5 2.2-2.9l-2.3-1.8q2.4-3.1 5.1-6l2.1 1.9q1.3-1.4 2.7-2.8l-2.1-2q2.7-2.8 5.6-5.5l2 2.2q1.4-1.3 2.9-2.5l-1.9-2.3q3.1-2.5 6.3-4.9l1.7 2.4q1.6-1.2 3.2-2.2l-1.7-2.4q0.3-0.2 0.5-0.4 3-2.1 6.2-3.9l1.5 2.4q1.6-0.9 3.3-1.9l-1.4-2.5q3.5-2 7.1-3.8l1.3 2.6q1.8-0.8 3.5-1.6l-1.2-2.7q3.7-1.7 7.4-3.2l1.1 2.8q1.9-0.8 3.7-1.5l-1-2.7q3.8-1.4 7.6-2.6l0.9 2.8q1.9-0.6 3.8-1.2l-0.8-2.8q3.9-1.1 7.9-2l0.6 2.8q2-0.4 3.9-0.9l-0.6-2.8q3.9-0.8 8-1.5l0.4 2.8q2-0.3 4-0.6l-0.4-2.8q4-0.6 8.1-1l0.3 2.8q1.5-0.1 3.1-0.2 0.4-0.1 0.8-0.1l-0.2-2.9q4.1-0.3 8.2-0.5l0.1 2.9 4-0.1-0.1-2.9q4.1-0.1 8.2 0v2.9l4 0.1 0.1-2.9q4.1 0.2 8.2 0.5l-0.2 2.8 3.9 0.4 0.3-2.9q4.1 0.4 8.2 1l-0.4 2.8q2 0.3 4 0.6l0.4-2.9q4 0.7 8.1 1.4l-0.5 2.9 3.9 0.8 0.6-2.9q4 0.9 8 1.9l-0.7 2.8 3.9 1 0.8-2.8q1.2 0.3 2.4 0.7 2.8 0.7 5.5 1.6l-0.9 2.7 3.9 1.2 0.9-2.7q3.9 1.3 7.7 2.7l-1 2.7 3.8 1.4 1.1-2.7q3.8 1.5 7.5 3.1l-1.1 2.6 3.7 1.7 1.2-2.6q3.7 1.7 7.4 3.5l-1.3 2.5 3.6 1.9 1.3-2.6q3.7 1.9 7.2 4l-1.4 2.4 3.5 2.1 1.4-2.5q3.5 2.1 6.9 4.4l-1.5 2.4 3.3 2.2 1.6-2.4q3.4 2.3 6.7 4.8l-1.8 2.3 3.2 2.4 1.8-2.3q3.2 2.5 6.3 5.2l-1.9 2.2 3 2.6 2-2.2q3 2.7 5.9 5.6l-2 2 2.8 2.9 2.1-2.1q0 0 0 0.1 2.9 2.8 5.5 5.8l-2.2 1.9q1.4 1.5 2.7 3.1l2.2-1.9q2.6 3.1 5 6.2l-2.3 1.8q1.2 1.6 2.4 3.2l2.4-1.7q2.3 3.2 4.5 6.6l-2.4 1.6q1 1.6 2 3.3l2.5-1.6q2.1 3.5 4 7l-2.5 1.4q0.9 1.7 1.7 3.4l2.6-1.3q1.8 3.6 3.4 7.3l-2.7 1.1q0.7 1.8 1.4 3.6l2.8-1.1q1.4 3.7 2.6 7.5l-2.8 0.9q0.6 1.8 1.1 3.6l2.8-0.7q1 3.8 1.8 7.6l-2.8 0.6q0.3 1.8 0.6 3.7l2.9-0.5q0.6 3.9 1 7.8l-2.9 0.3q0.2 1.9 0.3 3.8l2.9-0.2q0.2 3.9 0.1 7.8l-2.9-0.1q-0.1 1.9-0.2 3.7l2.9 0.2q-0.3 3.9-0.8 7.8l-2.9-0.5q-0.3 1.9-0.6 3.8l2.8 0.5q-0.8 4-1.9 8l-2.7-0.7q-0.6 1.8-1.1 3.6l2.7 0.9q-1.2 3.7-2.7 7.3l-2.6-1.1q-0.8 1.8-1.5 3.5l2.6 1.2q-1.7 3.5-3.6 6.9l-2.5-1.4q-0.9 1.6-1.8 3.1l2.4 1.6q-2 3.3-4.3 6.5l-2.4-1.7q-1.1 1.5-2.3 3.1l2.3 1.7q-2.4 3.1-5 6l-2.2-2q-1.3 1.4-2.6 2.8l2.1 2q-2.8 2.8-5.7 5.5l-2-2.2q-1.4 1.3-2.8 2.5l1.8 2.2q-3 2.6-6.2 4.9l-1.7-2.4q-1.6 1.2-3.3 2.3l1.7 2.4q-0.1 0.1-0.3 0.2-3.1 2.1-6.4 4.1l-1.5-2.5q-1.6 1-3.3 1.9l1.4 2.6q-3.5 1.9-7.1 3.7l-1.3-2.6q-1.8 0.9-3.5 1.7l1.2 2.6q-3.7 1.7-7.4 3.2l-1.1-2.7q-1.9 0.7-3.7 1.4l1 2.7q-3.8 1.4-7.6 2.6l-0.9-2.8q-1.9 0.6-3.8 1.1l0.8 2.8q-3.9 1.1-7.9 2.1l-0.6-2.9-3.9 0.9 0.6 2.9q-4 0.8-8 1.5l-0.5-2.9q-1.9 0.3-3.9 0.6l0.4 2.9q-4 0.5-8.1 1l-0.3-2.9-4 0.4z"/>
		<path id="Layer" class="s0" d="m252.5 286.3q-0.7 0.1-1.4 0.1l-0.2-2.8 4-0.4 0.3 2.9q-1.4 0.1-2.7 0.2zm-9.5 0.6q-2 0.1-4.1 0.1v-2.9q2 0 4-0.1zm20.3-1.8l-0.4-2.9q2-0.2 3.9-0.6l0.5 2.9q-2 0.3-4 0.6zm-32.6 1.9q-2 0-4.1-0.1l0.1-2.9 4.1 0.2zm44.5-4.1l-0.6-2.8 3.9-0.9 0.7 2.8q-2 0.5-4 0.9zm-56.8 3.5q-2-0.2-4-0.4l0.2-2.9 4.1 0.4zm68.5-6.4l-0.8-2.8q2-0.5 3.9-1.1l0.8 2.8q-1.9 0.6-3.9 1.1zm-80.7 5.1q-2.1-0.3-4.1-0.6l0.4-2.8 4.1 0.5zm92.2-8.7l-1-2.8q1.9-0.7 3.7-1.4l1.1 2.7q-1.9 0.8-3.8 1.5zm-104.4 6.8q-2-0.4-4-0.9l0.6-2.8 4 0.8zm115.6-11.3l-1.2-2.7q1.7-0.8 3.5-1.7l1.3 2.7q-1.8 0.8-3.6 1.7zm-127.6 8.7q-2-0.5-4-1l0.7-2.8 4 1zm138.3-14.2l-1.4-2.5q1.7-1 3.3-1.9l1.5 2.5q-1.7 1-3.4 1.9zm-150.2 10.9q-2-0.6-3.9-1.2l0.9-2.8 3.9 1.3zm160.2-17.2l-1.6-2.4q1.6-1.1 3.2-2.2l1.7 2.3q-1.6 1.2-3.3 2.3zm-171.9 13.2q-1.9-0.7-3.8-1.4l1-2.7 3.8 1.4zm181.4-20.3l-1.8-2.3q1.5-1.2 2.9-2.5l1.9 2.2q-1.4 1.3-3 2.6zm-192.8 15.8q-1.9-0.8-3.8-1.7l1.2-2.6 3.7 1.7zm-11.1-5.2q-1.9-0.9-3.7-1.9l1.4-2.5 3.6 1.8zm212.6-18.6l-2.1-2.1q1.4-1.3 2.7-2.7l2.1 1.9q-1.3 1.5-2.7 2.9zm-223.5 12.8q-1.7-1-3.4-2l1.5-2.5q1.6 1 3.4 2zm231.2-21.6l-2.3-1.8q1.2-1.5 2.3-3.1l2.4 1.7q-1.2 1.6-2.4 3.2zm-241.6 15.2q-1.8-1.1-3.4-2.3l1.6-2.4 3.3 2.3zm248.4-24.9l-2.5-1.5q1-1.6 1.9-3.2l2.5 1.4q-0.9 1.7-1.9 3.3zm-258.4 17.9q-1.6-1.2-3.2-2.5l1.8-2.3q1.5 1.3 3.1 2.5zm263.9-28.1l-2.7-1.2q0.8-1.7 1.6-3.5l2.6 1.1q-0.7 1.8-1.5 3.6zm-273.4 20.5q-1.5-1.4-3-2.7l1.9-2.2q1.5 1.4 3 2.7zm277.6-31.4l-2.8-0.9q0.6-1.7 1.1-3.5l2.8 0.7q0 0 0 0-0.5 1.9-1.1 3.7zm-286.6 23.2q-1.4-1.4-2.7-2.7-0.1-0.1-0.2-0.2l2.1-2 2.8 2.8zm-8.4-8.8q-1.3-1.5-2.6-3.1l2.2-1.8q1.3 1.5 2.6 3zm298-26.2l-2.8-0.5q0.3-1.9 0.6-3.7l2.8 0.4q-0.3 1.9-0.6 3.8zm-305.7 16.8q-1.2-1.6-2.4-3.2l2.3-1.7q1.2 1.6 2.4 3.2zm307.2-28.4l-2.9-0.2q0.1-1.9 0.2-3.7h2.8q0 2-0.1 3.9zm-314.1 18.5q-1.1-1.7-2.2-3.4l2.5-1.5q1.1 1.7 2.2 3.4zm314.1-30.2l-2.9 0.1q-0.1-1.8-0.2-3.7l2.8-0.3q0 0.1 0.1 0.2 0.1 1.9 0.2 3.7zm-320.2 19.8q-1-1.8-1.9-3.5l2.7-1.3q0.8 1.7 1.7 3.4zm316.2-31q-0.3-1.9-0.7-3.7l2.8-0.6q0.4 1.9 0.7 3.8zm-321.2 20.3q-0.8-1.8-1.5-3.7l2.7-1q0.7 1.8 1.4 3.5zm318.8-31.4q-0.5-1.8-1-3.6l2.7-0.9q0.6 1.9 1.1 3.8zm-322.8 20.3q-0.6-1.9-1.1-3.8l2.8-0.8q0.5 1.9 1.1 3.7zm319.2-31.3q-0.7-1.8-1.5-3.5l2.7-1.2q0.8 1.8 1.5 3.7zm-322.1 19.8q-0.4-1.9-0.7-3.8l2.8-0.5q0.3 1.9 0.7 3.8zm317.4-30.5q-0.8-1.7-1.7-3.5l2.5-1.3q1 1.7 1.8 3.5zm-319 18.8q-0.2-2-0.3-3.9l2.9-0.2q0.1 1.9 0.2 3.8zm313.4-29q-1-1.7-2-3.3l2.4-1.6q1.1 1.7 2.1 3.3zm-310.8 17.5h-2.9q0-1.9 0.2-3.9l2.9 0.2q-0.2 1.9-0.2 3.7zm304.3-27.2q-1.2-1.6-2.4-3.2l2.3-1.8q1.3 1.6 2.4 3.2zm-7.3-9.3q-1.3-1.5-2.6-3l2.1-1.9q1.4 1.5 2.7 3zm-296 25.4l-2.8-0.4q0.3-1.9 0.6-3.8l2.9 0.5q-0.4 1.9-0.7 3.7zm288-34.2l-2.9-2.8 2.1-2.1q1.4 1.5 2.8 2.9zm-285.5 22.9l-2.8-0.7q0 0 0.1-0.1 0.4-1.7 1-3.4l2.7 0.9q-0.5 1.6-1 3.3zm276.8-31.2l-3-2.6 1.9-2.2q1.6 1.3 3.1 2.7zm-273.3 20.8l-2.6-1.1q0.7-1.8 1.5-3.6l2.6 1.2q-0.8 1.7-1.5 3.5zm264.1-28.5l-3.2-2.4 1.7-2.4q1.6 1.3 3.2 2.5zm-259.1 18.3l-2.5-1.4q0.9-1.7 1.9-3.4l2.5 1.5q-1 1.6-1.9 3.3zm249.4-25.4l-3.3-2.2 1.5-2.4q1.8 1.1 3.4 2.2zm-243.3 15.8l-2.3-1.6q1.1-1.6 2.3-3.1l2.2 1.8q-1.1 1.4-2.2 2.9zm233.2-22.3l-3.5-2 1.4-2.5q1.8 1 3.6 2.1zm-226.1 13.5l-2.1-2q1.3-1.5 2.7-2.9l2.1 2q-1.4 1.4-2.7 2.9zm215.5-19.5l-3.6-1.8 1.3-2.6q1.8 0.9 3.6 1.9zm-10.8-5.3l-3.8-1.6 1.2-2.7q1.9 0.8 3.7 1.7zm-196.4 16.6l-1.9-2.2q1.4-1.3 3-2.6l1.8 2.3q-1.5 1.2-2.9 2.5zm185.2-21.3l-3.7-1.4 0.9-2.7q2 0.7 3.9 1.4zm-176.2 14l-1.8-2.3q1.6-1.2 3.3-2.3l1.6 2.4q-1.6 1.1-3.1 2.2zm164.7-18.1l-3.8-1.2 0.8-2.7q2 0.6 3.9 1.2zm-155.1 11.6l-1.5-2.5q1.7-1 3.5-1.9l1.4 2.5q-1.7 1-3.4 1.9zm143.5-15l-3.9-1 0.7-2.8q1.9 0.5 3.9 1zm-133.1 9.5l-1.3-2.7q1.8-0.8 3.6-1.7l1.2 2.7q-1.8 0.8-3.5 1.7zm121.3-12.3l-4-0.8 0.6-2.8q2 0.4 4 0.8zm-110.5 7.5l-1.1-2.7q1.9-0.8 3.8-1.5l1 2.8q-1.9 0.6-3.7 1.4zm98.5-9.7q-1.9-0.3-3.9-0.6l0.4-2.8q2 0.3 4 0.6zm-87.4 5.7l-0.8-2.8q1.9-0.6 3.9-1.2l0.8 2.8q-2 0.6-3.9 1.2zm75.4-7.2l-4-0.4 0.2-2.8q2 0.1 4.1 0.3zm-63.9 4.1l-0.6-2.9q1.9-0.4 3.9-0.9l0.6 2.9q-1.9 0.4-3.9 0.9zm51.8-4.9l-4-0.1v-2.9q2 0.1 4.1 0.1zm-40 2.5l-0.5-2.8q2-0.4 4-0.7l0.4 2.9q-2 0.3-3.9 0.6zm27.9-2.6l-4 0.2-0.1-2.9q2-0.1 4.1-0.1zm-16 0.9l-0.3-2.8q1.5-0.2 3-0.3 0.5-0.1 1-0.1l0.2 2.9q-0.5 0-0.9 0-1.5 0.2-3 0.3z"/>
		<path id="Layer" fill-rule="evenodd" class="s5" d="m248.1 201.7c-14.9 1.3-31.9-0.3-49.1-5.1-15.4-4.2-29.1-10.6-40.5-18.1-11.4-7.6-20.3-16.3-26-25.5-3.9-6.2-6.2-12.6-6.8-18.9-0.3-3.8 0-7.6 1-11.2 1.3-4.5 3.5-8.6 6.6-12.1 3-3.6 6.8-6.7 11.2-9.3 8.9-5.1 20.3-8.4 33.1-9.5 15-1.2 31.9 0.3 49.1 5.1 15.4 4.3 29.1 10.6 40.5 18.2 11.4 7.5 20.4 16.3 26.1 25.5 3.8 6.2 6.1 12.5 6.7 18.9 0.3 3.8 0 7.5-1 11.2-1.3 4.5-3.5 8.5-6.5 12.1-3.1 3.6-6.9 6.7-11.3 9.2-8.9 5.2-20.3 8.4-33.1 9.5zm-47.9-9.4c16.8 4.7 33.2 6.2 47.5 5q0 0 0 0 0 0 0 0c9.2-0.8 17.6-2.8 24.6-5.7 7.1-2.9 12.8-6.8 16.7-11.5 2.7-3.1 4.6-6.6 5.7-10.4q1.2-4.7 0.8-9.6c-0.5-5.5-2.5-11.2-6-16.9-3.6-5.7-8.5-11.3-14.7-16.6-12.3-10.5-29.4-19.6-49.3-25.2-16.7-4.6-33.1-6.1-47.5-4.9q0 0 0 0 0 0 0 0c-9.2 0.8-17.6 2.7-24.6 5.7-7.1 2.9-12.8 6.8-16.7 11.5-2.7 3.1-4.6 6.5-5.6 10.4q-1.3 4.7-0.9 9.6c0.5 5.5 2.5 11.2 6.1 16.9 3.5 5.7 8.4 11.3 14.6 16.6 12.3 10.5 29.4 19.6 49.3 25.1l-0.6 2.2z"/>
		<path id="Layer" class="s6" d="m250.2 89.7c-4.3 0.4-11.7-3.6-18.2-13.5-5 2.4-9.5 3.5-13.3 3.9-13.9 1.2-17.1-9.4 4.3-14.9-10.8-10.9-10.1-17.8-4.9-18.2 4.3-0.4 11.7 3.6 18.3 13.5 5-2.4 9.5-3.6 13.2-3.9 13.9-1.2 17.1 9.4-4.2 14.9 10.7 10.9 10 17.8 4.8 18.2z"/>
		<path id="Layer" class="s7" d="m181.7 83c-4.3 0.4-11.6-3.7-18.2-13.5-5 2.3-9.5 3.5-13.2 3.8-13.9 1.2-17.1-9.4 4.2-14.8-10.7-10.9-10-17.8-4.8-18.3 4.3-0.3 11.7 3.7 18.2 13.5 5-2.3 9.5-3.5 13.2-3.8 13.9-1.2 17.1 9.4-4.2 14.8 10.7 10.9 10 17.8 4.8 18.3z"/>
		<path id="Layer" class="s8" d="m121.7 110.2c-4.3 0.4-11.6-3.6-18.2-13.5-5 2.4-9.5 3.5-13.2 3.9-13.9 1.2-17.1-9.4 4.2-14.9-10.7-10.9-10-17.8-4.8-18.2 4.3-0.4 11.6 3.6 18.2 13.5 5-2.4 9.5-3.5 13.2-3.9 13.9-1.2 17.1 9.4-4.2 14.9 10.7 10.9 10 17.8 4.8 18.2z"/>
		<path id="Layer" class="s9" d="m312.2 119.4c-4.3 0.4-11.6-3.7-18.2-13.5-5 2.3-9.5 3.5-13.2 3.8-13.9 1.2-17.1-9.4 4.2-14.8-10.7-10.9-10-17.8-4.8-18.3 4.3-0.3 11.6 3.7 18.2 13.5 5-2.3 9.5-3.5 13.2-3.8 13.9-1.2 17.1 9.4-4.2 14.8 10.7 10.9 10 17.8 4.8 18.3z"/>
		<path id="Layer" class="s10" d="m349.5 173.8c-4.3 0.3-11.7-3.7-18.2-13.5-5 2.3-9.5 3.5-13.3 3.8-13.9 1.2-17.1-9.4 4.3-14.8-10.8-11-10.1-17.9-4.9-18.3 4.3-0.4 11.7 3.7 18.3 13.5 5-2.3 9.5-3.5 13.2-3.8 13.9-1.2 17.1 9.4-4.2 14.8 10.7 10.9 10 17.8 4.8 18.3z"/>
		<path id="Layer" class="s11" d="m204.5 252.7c-4.4 0.4-11.6-3.9-17.7-14.5-5.6 3-10.6 4.5-14.5 4.8-13.2 1.2-15.4-10.2 5.8-16.9-10.6-12.1-9.5-19.9-4-20.4 4.4-0.4 11.5 4 17.7 14.6 5.6-3.1 10.5-4.6 14.5-4.9 13.2-1.1 15.4 10.2-5.8 16.9 10.6 12.1 9.5 20 4 20.4z"/>
		<path id="Layer" class="s12" d="m142.9 221.5c-4.4 0.4-11.6-3.9-17.7-14.6-5.6 3.1-10.6 4.6-14.5 4.9-13.2 1.2-15.4-10.2 5.8-16.9-10.6-12.1-9.5-19.9-4-20.4 4.4-0.4 11.5 3.9 17.7 14.6 5.6-3.1 10.5-4.6 14.5-4.9 13.2-1.2 15.4 10.2-5.8 16.9 10.6 12.1 9.4 19.9 4 20.4z"/>
		<path id="Layer" class="s13" d="m107.1 161.7c-4.3 0.3-11.5-4-17.6-14.6-5.7 3.1-10.6 4.5-14.6 4.9-13.1 1.1-15.3-10.3 5.8-17-10.6-12-9.4-19.9-3.9-20.4 4.3-0.3 11.5 4 17.6 14.6 5.6-3.1 10.6-4.5 14.6-4.9 13.1-1.1 15.3 10.3-5.9 17 10.6 12 9.5 19.9 4 20.4z"/>
		<path id="Layer" class="s14" d="m273.3 257.9c-4.3 0.4-11.5-3.9-17.6-14.6-5.6 3.1-10.6 4.6-14.6 4.9-13.1 1.2-15.3-10.2 5.9-16.9-10.6-12.1-9.5-19.9-4-20.4 4.3-0.4 11.5 3.9 17.7 14.6 5.6-3.1 10.5-4.6 14.5-4.9 13.1-1.2 15.3 10.2-5.8 16.9 10.6 12.1 9.4 19.9 3.9 20.4z"/>
		<path id="Layer" class="s15" d="m334.9 225.2c-4.4 0.4-11.5-4-17.7-14.6-5.6 3.1-10.5 4.6-14.5 4.9-13.2 1.1-15.4-10.2 5.8-16.9-10.6-12.1-9.5-20-4-20.4 4.4-0.4 11.5 3.9 17.7 14.5 5.6-3 10.6-4.5 14.5-4.9 13.2-1.1 15.4 10.3-5.8 17 10.6 12.1 9.5 19.9 4 20.4z"/>
	</g>
</svg>