<svg version="1.2" xmlns="http://www.w3.org/2000/svg" viewBox="0 0 369 230" width="369" height="230"><style>.a{fill:#7690d3}.b{fill:#4164bf}.c{fill:#dae4f2}</style><path fill-rule="evenodd" class="a" d="m326.6 218.8c-23.4-17.3-33-37.7-58.7-52.8 38.8-7.4 46.1-5.4 70.5 8.1 24.5 13.5 35.8 69.3-11.8 44.7z"/><path fill-rule="evenodd" class="b" d="m285.7 136c-74.1-35.6-161.2-13.1-233.6 26.4-14.2 7.8-27.7 16.1-40.6 24.8 2-0.4 2.6-26.9 3.6-32.8-2.2-65.4 20.3-112.8 83.2-136 32-3.4 69.2-13.3 100.9-5.2 22.4 10.5 27.5 16.7 52.4 41.8 4.3 9.1 33.1 80.9 34.1 81z"/><path fill-rule="evenodd" class="b" d="m343 177.3c-37.4-25.7-70.5-59.1-109.6-62.1-57.4-3.9-125.3 15.9-185.1 48.7 28.5 38.2 39 71.5 97.1 51.5 59-20.3 140.6-79.4 197.6-38.2z"/><path fill-rule="evenodd" class="c" d="m284.2 133.5c-72.3-34.4-144-7.7-218.5 20.2 9.2-114.1 4.8-145.1 123.3-143.9 23.5 3 37.3 17.3 62.2 42.3 4.3 9.1 28.5 63.9 33 81.4z"/><path fill-rule="evenodd" class="c" d="m284.2 133.5c-72.3-34.4-144-7.7-218.5 20.2 9.2-114.1 4.8-145.1 123.3-143.9 23.5 3 37.3 17.3 62.2 42.3 4.3 9.1 28.5 63.9 33 81.4z"/><path fill-rule="evenodd" class="c" d="m284.2 133.5c-72.3-34.4-144-7.7-218.5 20.2 9.2-114.1 4.8-145.1 123.3-143.9 23.5 3 37.3 17.3 62.2 42.3 4.3 9.1 28.5 63.9 33 81.4z"/><path fill-rule="evenodd" class="b" d="m138.2 102l-0.2-41.7 20.4-1.6-0.1 4.6-15.6 0.7v10.8l14.1-0.4v4.2l-14.1 0.5 0.2 21.5zm28.1-5.7l-0.2-38 4.7-0.3 0.3 37.7zm14.2-1.4l-0.3-37.2 4.7-0.2 0.2 32.9 16.8-0.6 0.1 4.4zm25.9-37.5l4.5 0.1 0.3 36.8-4.5-0.1zm13.6 37.3l-0.2-36.9 10 0.6c3.6 0.3 6.2 1.4 8 3.2q2.7 2.7 2.9 7.4 0.2 5-2.6 7.5-2.7 2.6-8.2 2.5l-5.7-0.1 0.2 16.1zm9.5-32.5l-5.6-0.3 0.1 13 5.7 0.1q3.1 0 4.7-1.6 1.7-1.6 1.6-4.6-0.1-3-1.8-4.7-1.6-1.7-4.7-1.9z"/></svg>