<?xml version="1.0" standalone="no"?>
<!DOCTYPE svg PUBLIC "-//W3C//DTD SVG 20010904//EN"
 "http://www.w3.org/TR/2001/REC-SVG-20010904/DTD/svg10.dtd">
<svg version="1.0" xmlns="http://www.w3.org/2000/svg"
 width="855.000000pt" height="618.000000pt" viewBox="0 0 855.000000 618.000000"
 preserveAspectRatio="xMidYMid meet">

<g transform="translate(0.000000,618.000000) scale(0.100000,-0.100000)"
fill="#000000" stroke="none">
<path d="M3508 6058 c-101 -194 -202 -413 -248 -538 -35 -95 -93 -312 -142
-530 -5 -25 -11 -101 -11 -170 -2 -144 7 -181 82 -324 50 -97 81 -129 141
-147 22 -7 47 -23 55 -36 28 -42 93 -75 159 -80 34 -2 84 -10 111 -18 28 -8
62 -17 77 -20 l26 -5 -5 -78 c-4 -48 1 -127 12 -207 l17 -128 -23 -19 c-67
-53 -58 -52 -181 -22 -92 23 -135 28 -235 29 -117 0 -122 1 -118 20 15 63 22
150 21 220 -2 68 -8 90 -35 143 -37 74 -82 126 -148 171 -26 19 -74 67 -106
107 -32 40 -81 93 -110 118 -115 98 -299 189 -447 223 -92 20 -466 29 -600 14
-252 -30 -435 -107 -684 -290 -161 -118 -231 -190 -337 -344 -163 -236 -204
-397 -204 -787 1 -247 8 -292 75 -453 73 -176 167 -314 353 -517 187 -205 255
-270 400 -384 86 -68 158 -134 192 -176 61 -76 142 -150 166 -150 8 0 19 -4
25 -9 12 -11 177 -64 284 -91 91 -24 188 -56 205 -69 14 -11 143 -57 455 -163
146 -49 355 -125 465 -168 227 -88 296 -110 555 -175 102 -25 232 -60 289 -76
195 -57 603 -143 821 -174 164 -23 471 -38 625 -31 207 9 605 76 875 147 181
48 194 66 106 147 -37 33 -76 57 -122 74 -63 23 -66 26 -46 37 71 38 -50 127
-198 147 -42 5 -53 11 -61 31 -5 13 -16 26 -24 30 -14 5 -13 9 6 26 20 19 21
26 15 104 -3 47 -15 109 -25 140 l-19 55 46 -6 c25 -3 91 -9 146 -12 119 -8
166 -23 166 -54 0 -63 143 -270 211 -305 42 -22 125 -18 189 8 95 40 279 168
356 248 77 81 197 246 237 324 52 103 86 290 87 466 0 146 -45 259 -104 259
-26 0 -96 -69 -136 -135 l-25 -40 -7 65 c-12 104 -26 152 -68 218 -47 74 -67
78 -132 29 -57 -43 -96 -112 -138 -238 l-34 -104 -17 85 c-28 142 -77 231
-154 275 -58 34 -92 30 -122 -14 -57 -85 -139 -440 -131 -567 1 -30 1 -54 -1
-54 -2 0 -20 5 -41 11 -30 9 -44 22 -70 68 -18 31 -46 75 -62 99 -35 50 -46
28 105 208 261 310 377 548 377 770 0 74 -2 85 -22 98 -17 12 -18 16 -7 21 8
3 64 -18 125 -47 97 -47 116 -53 174 -53 58 0 73 4 124 35 32 19 93 72 137
118 130 137 183 269 214 534 38 332 9 516 -128 801 -71 149 -81 155 -148 85
-64 -67 -149 -265 -149 -347 0 -40 -15 -20 -48 64 -23 57 -48 101 -79 135 -51
56 -80 75 -143 89 -63 14 -86 1 -116 -66 -23 -49 -27 -76 -32 -175 l-4 -117
-43 34 c-59 49 -129 77 -205 83 -54 3 -69 1 -89 -15 l-23 -19 9 -140 c12 -161
30 -215 133 -393 33 -57 60 -107 60 -111 0 -4 7 -13 15 -20 24 -20 12 -22 -23
-4 -17 8 -70 20 -116 27 -67 9 -86 15 -89 29 -6 23 -37 23 -148 2 -167 -30
-354 -85 -444 -129 -107 -52 -259 -150 -317 -205 l-41 -39 -26 18 c-45 32
-163 88 -236 112 -59 19 -93 23 -222 24 l-151 2 -44 39 -44 39 -13 125 c-8 80
-23 157 -42 216 -16 50 -29 111 -29 135 0 49 33 205 82 384 l33 120 7 -125 c9
-152 19 -190 64 -240 45 -50 118 -69 182 -47 145 50 274 208 320 392 11 44 28
107 36 140 31 118 17 269 -43 457 -31 97 -32 99 -30 295 2 223 -7 276 -64 372
-49 82 -148 181 -182 181 -27 0 -26 -1 27 -58 65 -71 124 -157 143 -211 24
-69 33 -171 25 -293 -8 -135 -3 -174 39 -316 36 -123 56 -256 48 -332 -10 -92
-75 -310 -110 -369 -74 -124 -182 -211 -262 -211 -101 0 -131 51 -144 251 -6
79 -15 161 -21 182 -8 27 -8 47 0 75 6 20 15 105 20 187 6 115 14 171 34 240
26 88 79 208 112 253 9 12 12 22 7 22 -26 0 -133 -183 -163 -277 l-16 -53 -18
40 c-21 49 -41 54 -32 8 18 -84 34 -287 26 -328 -5 -25 -40 -169 -78 -320 -39
-151 -73 -301 -77 -332 -4 -32 -9 -58 -10 -58 -1 0 -16 7 -31 15 -53 28 -71
17 -29 -17 34 -27 58 -76 89 -182 52 -180 58 -409 17 -651 -12 -66 -23 -158
-26 -205 -4 -47 -8 -100 -11 -118 -5 -32 -34 -72 -53 -72 -4 0 -14 34 -21 77
-15 95 -99 265 -169 344 l-48 54 -81 3 c-45 2 -95 -1 -111 -6 l-30 -11 -20 87
c-37 161 -64 356 -65 470 -1 101 1 115 18 128 19 14 19 15 2 70 -31 98 -45
240 -45 444 -1 166 3 213 24 318 30 151 68 278 106 354 16 32 25 58 19 58 -5
0 -39 -60 -75 -134 -70 -142 -110 -282 -122 -422 l-6 -71 -53 -6 c-77 -8 -183
-58 -184 -88 0 -3 35 12 78 33 42 20 95 39 117 40 l40 3 7 -159 c6 -151 19
-282 34 -355 l7 -34 -43 7 c-106 17 -170 95 -244 296 -30 83 -31 89 -30 250 1
184 16 266 73 379 33 67 27 78 -14 30 -70 -84 -117 -257 -116 -435 0 -154 49
-325 126 -441 l36 -54 -28 7 c-48 12 -81 33 -109 69 -29 38 -97 191 -109 243
-6 29 -5 32 19 32 13 0 27 4 30 9 7 10 -16 21 -44 21 -19 0 -30 19 -30 50 0
13 5 17 19 13 23 -6 64 14 56 28 -4 5 -22 9 -41 9 l-34 0 0 103 c0 88 7 134
37 265 10 44 -24 23 -46 -28 -32 -75 -42 -142 -43 -290 -1 -148 11 -211 61
-332 16 -38 24 -67 18 -65 -40 12 -146 221 -150 295 -2 35 0 37 26 34 15 -2
27 1 27 7 0 6 -12 14 -27 17 -16 4 -31 12 -35 18 -18 26 12 263 48 381 13 44
35 122 49 173 48 179 124 359 286 685 75 150 78 157 55 157 -20 0 -33 -18 -88
-122z m3737 -1302 c82 -178 135 -382 136 -531 1 -101 -19 -305 -41 -415 -43
-213 -205 -430 -355 -476 -39 -11 -52 -11 -97 3 -75 22 -181 77 -196 102 -18
30 -36 26 -83 -18 l-41 -40 6 32 c19 104 19 140 1 153 -15 11 -26 10 -68 -6
-28 -11 -52 -18 -55 -16 -2 2 11 20 27 39 50 57 40 78 -48 99 l-52 12 26 14
c15 7 44 20 65 27 33 12 40 12 51 -1 11 -13 39 -20 39 -9 0 3 -34 60 -77 127
-42 67 -105 179 -139 248 -68 135 -83 196 -84 338 l0 72 45 0 c105 0 206 -68
298 -200 21 -30 48 -69 60 -86 12 -18 27 -40 33 -50 6 -10 13 -14 16 -8 4 5
-13 52 -37 104 -51 111 -70 204 -61 307 6 72 28 146 51 172 11 11 21 11 63 -3
60 -20 114 -72 146 -140 43 -90 107 -289 120 -371 l12 -80 7 160 c6 178 27
281 76 390 31 68 85 145 102 145 6 0 30 -42 54 -94z m-4600 -157 c17 -11 64
-37 106 -59 76 -39 105 -66 194 -178 27 -35 68 -75 92 -89 88 -51 148 -150
163 -265 5 -40 7 -76 4 -80 -7 -10 -34 -164 -39 -218 -2 -25 -7 -61 -10 -80
-7 -46 9 -29 32 35 l19 50 107 3 c93 2 126 -2 255 -32 176 -41 248 -75 258
-121 27 -126 137 -374 195 -440 67 -76 185 -125 300 -125 60 0 97 20 120 63 7
11 17 79 23 151 9 107 14 130 26 128 8 -2 39 -6 68 -9 45 -5 52 -9 52 -27 0
-36 -46 -182 -69 -222 -12 -20 -19 -39 -16 -42 16 -17 100 148 117 230 7 32
17 58 24 58 6 0 24 10 39 22 25 20 27 25 23 82 -3 44 -14 83 -40 139 l-37 77
103 0 c175 0 319 -50 505 -174 98 -66 254 -204 373 -330 37 -39 67 -66 68 -61
1 29 -383 424 -412 425 -58 1 252 205 395 260 72 28 303 90 336 90 23 0 -12
-22 -99 -60 -143 -64 -106 -66 60 -3 86 33 105 36 195 36 94 0 172 -13 250
-43 28 -11 26 -13 -105 -69 -74 -32 -156 -66 -182 -76 -45 -16 -70 -43 -30
-31 195 58 195 57 267 41 38 -9 73 -19 77 -21 10 -6 -231 -292 -295 -349 -27
-25 -48 -48 -45 -50 9 -9 141 98 209 168 56 58 79 73 144 98 42 17 79 28 82
25 3 -3 -2 -38 -11 -78 -16 -72 -161 -388 -185 -402 -6 -4 -11 -12 -11 -18 0
-23 44 30 116 137 61 93 81 114 119 133 l45 22 0 -69 c0 -143 -58 -294 -189
-491 -62 -95 -183 -251 -273 -354 l-34 -39 -54 42 c-92 70 -168 102 -272 115
-87 11 -91 12 -61 23 42 15 61 49 39 71 -15 15 -29 15 -176 -6 -317 -46 -458
-92 -607 -198 -70 -50 -98 -85 -89 -110 5 -13 17 -7 62 31 74 64 186 127 281
158 80 26 379 81 412 75 13 -2 -34 -39 -141 -112 -87 -59 -157 -110 -155 -113
3 -2 62 28 132 68 l127 72 112 -6 c61 -3 130 -12 153 -21 57 -20 148 -83 203
-140 43 -44 120 -159 120 -179 0 -6 -31 -7 -77 -3 -78 7 -98 9 -268 22 -49 3
-88 4 -85 1 3 -4 53 -14 110 -23 58 -9 122 -26 143 -36 45 -22 90 -82 111
-146 16 -50 48 -233 42 -239 -9 -9 -241 39 -504 103 -79 20 -146 33 -149 30
-3 -3 0 -8 8 -10 82 -26 287 -99 312 -112 81 -41 123 -126 129 -264 l3 -65
-56 -7 c-155 -20 -585 -202 -789 -335 -41 -27 -101 -64 -133 -82 -52 -30 -60
-32 -75 -18 -9 8 -34 20 -54 26 -38 13 -70 48 -106 116 -32 62 -191 217 -268
263 -38 23 -112 60 -164 83 -52 22 -133 58 -180 79 -47 21 -123 48 -170 60
-91 23 -238 91 -418 193 -115 66 -213 140 -312 236 l-56 54 145 142 c80 78
169 161 196 185 28 24 120 112 205 195 85 82 190 180 232 217 88 78 103 113
71 157 -56 73 -259 116 -558 115 -168 0 -212 -4 -375 -33 -336 -58 -453 -95
-695 -221 l-150 -77 -41 41 c-55 54 -129 98 -258 150 -161 66 -509 271 -630
372 -86 72 -248 270 -285 349 -27 56 -28 65 -20 135 13 123 17 133 78 226 88
133 151 194 251 242 137 65 192 79 373 96 199 19 257 38 379 122 162 112 244
139 423 143 56 1 76 -3 100 -20z m1439 -1124 c61 -29 175 -234 195 -351 7 -37
10 -68 9 -70 -2 -2 -34 4 -70 12 -90 21 -146 64 -200 157 -53 90 -113 236
-101 247 21 21 127 24 167 5z m-1338 -592 c-17 -17 129 -318 201 -414 51 -67
127 -134 239 -210 41 -27 74 -56 74 -63 0 -13 -61 -66 -75 -66 -13 0 -123 75
-202 137 -94 75 -180 178 -230 278 -52 103 -105 245 -108 288 -2 37 0 40 39
57 29 12 45 14 54 7 7 -5 10 -12 8 -14z m3844 -178 c75 -39 111 -124 150 -355
33 -200 47 -250 51 -190 1 19 2 51 1 70 -3 41 93 317 132 385 15 24 42 57 62
71 41 32 39 33 84 -61 43 -87 49 -204 21 -393 -12 -79 -21 -153 -21 -164 0
-43 21 -1 45 93 33 124 40 140 97 236 54 91 102 148 118 138 16 -10 39 -73 49
-134 15 -96 -29 -391 -73 -487 -33 -73 -153 -238 -238 -329 -115 -123 -347
-265 -434 -265 -63 0 -139 82 -215 229 -47 92 -81 126 -138 136 -32 5 -40 11
-44 33 -35 204 -52 273 -73 311 -13 24 -22 46 -20 49 7 7 96 5 155 -3 62 -8
81 -25 82 -73 2 -49 25 135 34 268 11 152 100 450 136 450 5 0 23 -7 39 -15z
m-616 -1397 c20 -11 19 -12 -14 -19 -19 -4 -79 -12 -133 -17 -90 -10 -159 -33
-143 -49 3 -3 13 0 22 8 22 18 268 17 376 -1 81 -13 171 -47 162 -61 -7 -12
-104 -11 -104 1 0 6 -7 6 -19 -2 -15 -9 -45 -8 -137 5 -66 9 -125 17 -133 17
-32 0 -1 -10 94 -29 115 -25 304 -82 384 -117 58 -26 121 -69 121 -84 0 -16
-96 -33 -119 -20 -12 6 -25 9 -29 6 -4 -2 -30 0 -57 5 -28 5 -64 11 -81 14
-24 4 -30 10 -30 27 1 22 -6 23 -174 44 -96 13 -211 23 -255 24 -66 1 -75 3
-52 12 53 19 25 28 -91 28 -109 0 -217 -18 -327 -55 -11 -4 14 12 55 36 138
77 334 166 450 204 63 20 120 38 125 40 16 7 86 -5 109 -17z"/>
<path d="M2679 4440 c-52 -15 -155 -64 -176 -83 -26 -23 -30 -47 -10 -47 8 0
67 27 133 60 65 33 128 60 139 61 11 0 29 4 40 9 26 11 -89 12 -126 0z"/>
<path d="M2585 4304 c-82 -12 -284 -46 -315 -54 -23 -6 -57 -32 -98 -73 -50
-51 -68 -77 -92 -142 -37 -94 -87 -165 -144 -204 -53 -36 -194 -107 -227 -115
-40 -9 -77 -43 -104 -97 -14 -26 -25 -51 -25 -55 0 -4 23 16 51 45 31 32 55
49 62 44 21 -13 128 -115 181 -173 111 -121 167 -170 226 -200 70 -35 63 -35
234 -1 109 22 311 97 441 164 33 17 63 30 67 29 3 -1 8 5 11 12 9 24 -38 110
-103 185 l-64 73 97 -7 c124 -9 182 4 239 55 42 37 43 38 46 112 3 55 -2 96
-18 154 -26 97 -36 113 -103 162 -77 58 -104 69 -187 76 -41 4 -91 9 -110 10
-19 2 -48 2 -65 0z m214 -90 c84 -23 135 -57 169 -111 37 -59 43 -80 46 -150
2 -45 -3 -63 -25 -98 -15 -24 -37 -48 -48 -54 -26 -14 -97 -17 -196 -7 -88 9
-184 -2 -300 -34 -81 -22 -230 -62 -330 -87 -120 -31 -342 -18 -319 18 4 6 36
25 73 41 66 30 161 95 161 110 0 5 19 32 41 61 23 28 58 89 79 134 30 65 46
87 77 106 39 25 202 73 277 83 22 3 41 6 43 8 9 9 205 -6 252 -20z m-332 -534
c17 -10 37 -29 44 -42 6 -13 29 -41 49 -64 21 -23 43 -50 49 -61 10 -19 7 -21
-47 -26 -93 -9 -352 -1 -422 13 -74 14 -257 90 -241 99 5 4 104 6 218 5 194
-1 214 -3 297 -28 100 -29 96 -29 96 -18 0 16 -110 74 -155 80 -25 4 -46 11
-46 16 -1 12 77 45 106 45 11 1 34 -8 52 -19z m-337 -226 c58 -9 188 -20 290
-23 l185 -6 -95 -37 c-97 -39 -229 -68 -305 -68 -71 0 -206 83 -264 162 -11
15 -8 15 36 2 26 -7 95 -21 153 -30z"/>
<path d="M1565 4070 c-95 -12 -138 -36 -255 -144 -93 -85 -122 -124 -49 -65
30 24 86 63 125 87 67 40 78 43 186 54 99 10 121 9 163 -4 26 -9 54 -14 61
-11 21 8 17 31 -8 47 -27 17 -125 47 -147 45 -9 -1 -43 -5 -76 -9z"/>
<path d="M3137 3558 c-9 -31 -2 -33 11 -3 6 14 8 25 3 25 -5 0 -11 -10 -14
-22z"/>
<path d="M3738 3494 c-25 -40 74 -321 119 -338 16 -6 16 -6 0 11 -35 40 -92
194 -106 291 -3 26 -10 42 -13 36z"/>
<path d="M3636 3438 c-14 -32 20 -181 63 -271 23 -48 46 -87 52 -87 12 0 13
-2 -22 65 -36 70 -69 172 -78 247 -5 40 -10 57 -15 46z"/>
<path d="M4732 3303 c-27 -146 -72 -244 -137 -301 -56 -49 -58 -61 -5 -26 37
25 104 103 129 151 32 63 67 293 43 293 -4 0 -17 -53 -30 -117z"/>
<path d="M1785 5418 c-63 -64 -89 -139 -89 -260 -1 -86 5 -120 18 -107 2 2 14
51 26 109 22 106 70 230 89 230 6 0 11 -4 11 -9 0 -18 -50 -168 -80 -241 -19
-46 -27 -77 -21 -83 15 -15 30 1 65 71 78 157 108 300 67 322 -31 16 -41 12
-86 -32z"/>
<path d="M1323 5346 c-49 -55 -67 -124 -68 -251 0 -88 4 -120 20 -157 11 -27
24 -48 29 -48 5 0 6 46 2 108 -8 123 4 223 36 292 17 39 21 42 28 25 17 -41 7
-171 -26 -322 -4 -22 -3 -33 4 -33 48 0 96 318 59 390 -19 38 -49 37 -84 -4z"/>
<path d="M589 5109 c-19 -36 8 -162 53 -253 27 -53 114 -143 160 -167 31 -16
38 -25 38 -49 0 -43 17 -37 25 9 12 72 -55 263 -133 378 -66 98 -118 127 -143
82z m150 -179 c41 -78 94 -210 87 -217 -2 -2 -29 24 -61 59 -69 75 -123 183
-131 259 l-5 54 35 -40 c20 -22 54 -74 75 -115z"/>
<path d="M6570 5007 c-41 -12 -98 -35 -127 -51 -63 -34 -181 -141 -207 -187
-16 -28 -6 -21 51 33 149 142 412 220 581 172 31 -9 28 11 -5 33 -44 29 -199
29 -293 0z"/>
<path d="M6690 4959 c-175 -62 -350 -183 -350 -241 l1 -23 15 26 c37 59 197
162 384 246 40 18 10 13 -50 -8z"/>
<path d="M4762 4776 c-53 -13 -100 -45 -83 -56 6 -3 0 -38 -16 -89 -35 -112
-28 -146 40 -180 90 -44 145 -14 208 115 51 101 64 188 33 211 -22 16 -111 16
-182 -1z m150 -66 c-2 -19 -22 -73 -45 -120 -50 -102 -76 -121 -135 -98 -36
14 -37 16 -36 64 0 27 8 75 17 106 l17 57 63 15 c34 8 76 14 92 13 28 -2 30
-4 27 -37z"/>
<path d="M3560 4660 c-11 -7 -8 -9 15 -9 17 1 41 5 55 9 22 7 20 8 -15 9 -22
0 -47 -4 -55 -9z"/>
<path d="M3965 4530 c-43 -4 -55 -8 -42 -14 19 -9 103 -1 140 14 20 8 19 9 -8
8 -16 -1 -57 -4 -90 -8z"/>
<path d="M3862 4438 c11 -32 141 -35 208 -4 34 16 34 16 5 10 -70 -13 -156
-16 -185 -5 -24 8 -31 8 -28 -1z"/>
<path d="M3866 4323 c-9 -9 137 -43 184 -42 23 0 0 9 -65 24 -118 28 -110 27
-119 18z"/>
<path d="M7216 3341 c-42 -46 -229 -121 -302 -121 -23 0 -34 -5 -34 -15 0 -41
103 -45 183 -6 46 22 170 124 181 149 8 18 -9 14 -28 -7z"/>
<path d="M7272 3273 c-26 -86 -140 -168 -269 -193 -71 -14 -84 -35 -28 -46 76
-14 157 19 222 89 49 53 95 140 91 170 -2 16 -6 11 -16 -20z"/>
<path d="M6825 1274 c-58 -34 -120 -53 -205 -62 -57 -5 -75 -11 -75 -22 0 -26
64 -35 126 -17 55 16 199 101 199 118 0 11 4 12 -45 -17z"/>
<path d="M6885 1174 c-52 -44 -101 -63 -196 -79 -50 -8 -94 -17 -97 -20 -23
-23 99 -23 158 1 59 23 131 70 153 100 22 30 20 30 -18 -2z"/>
</g>
</svg>
