<svg version="1.2" xmlns="http://www.w3.org/2000/svg" viewBox="0 0 1075 580" width="1075" height="580"><style>.a{fill:#a63f33}.b{fill:#c9a37d}.c{fill:#cc655a}.d{fill:#dec1a5}.e{fill:#52493f}.f{fill:#d6b290}.g{fill:#fff}.h{fill:#c7a382}.i{fill:#6e6355}.j{fill:#4a4238}</style><path class="a" d="m127.7 390.1v-46.8c0-16.6 13.6-30.2 30.2-30.2 16.6 0 30.1 13.6 30.1 30.2v46.8c0 16.6-13.5 30.2-30.1 30.2-16.6 0-30.2-13.6-30.2-30.2z"/><path class="b" d="m444.7 128.4l-4.6 63.5c-3 41.4-10.4 82.8-21.9 123.3-10.2 36.1-14 73.2-11.1 109.6 3.5 43.5-3.2 88.1-19.6 130.2h-114.1l7.6-23c12.2-36.9 18-75.2 17.1-113-0.8-33-12-64-32.1-88.8-39-47.9-35.1-119.8 9.2-169.8 44.4-50.1 116-63.6 169.5-32z"/><path class="b" d="m744.8 128.4l-4.6 63.5c-3 41.4-10.3 82.8-21.8 123.3-10.3 36.1-14 73.2-11.1 109.6 3.5 43.5-3.2 88.1-19.7 130.2h-114.1l7.6-23c12.2-36.9 18-75.2 17.1-113-0.7-33-11.9-64-32.1-88.8-38.9-47.9-35-119.8 9.3-169.8 44.3-50.1 116-63.6 169.4-32z"/><path class="c" d="m653.6 181.8h87.3c22.4 0 40.7 18.3 40.7 40.6v152.5c0 46.4-38 84.4-84.4 84.4-46.3 0-84.3-38-84.3-84.4v-152.5c0-22.3 18.3-40.6 40.7-40.6z"/><path class="d" d="m748.3 9.8c32.1 0 60.2 21.1 69.2 51.8 6.4 21.8 10.2 44 11.5 66.2q0.6 0.3 1.2 0.6l5 63.5c3.2 41.4 2.1 82.8-3.3 123.3-4.8 36.1-2.9 73.2 5.5 109.6 10 43.5 10 88.1 0 130.2h-114.2l4.2-23c6.6-36.9 6.6-75.2 0-113-2.3-13.3-6.2-26.3-11.7-38.7-56.2 44.4-127.2 67.6-200.2 64q-20.1 1.1-39.9-0.6c6.2 37.4 4.9 75.3-3.7 111.3h-114.1l4.1-23c6.6-36.9 6.6-75.2 0.1-113q-0.8-4.8-1.9-9.4c-36.1-19.2-68.3-45.8-94.3-78.8-25.7-32.6-44-69.7-54.3-108.8l-109.9-37-16.7-66.1 151.3-92.2c12.7-10.7 29-16.9 46.4-16.9h232.9z"/><path fill-rule="evenodd" class="e" d="m835.7 199.4c2.6 38.9 1.3 77.7-3.8 115.8q-0.3 2.6-0.6 5.2c-42.5-4.9-80.9-32.7-97.3-75.3-8.9-22.9-31.3-37.5-55.8-36.4-24.5 1.2-45.5 17.9-52.1 41.5-11.9 42.7-54.4 69.4-98.1 61.6-43.7-7.8-74.3-47.4-70.8-91.7 2.9-37 23.3-70.4 54.8-90 18.1-11.3 25.4-33.9 17.3-53.6-8-19.6-29.1-30.6-49.8-26-26.9 6-53.9-9.1-62.9-35.1q-0.9-2.8-1.6-5.6h259.1l0.3 0.4c10.5 16.1 28.2 26 47.4 26.7 15.6 0.6 30.1 8.4 39.2 21.2 9 12.7 11.6 29 6.9 43.9-7.9 25.3-1.8 52.9 15.9 72.6 13.5 15 32.3 23.8 51.9 24.8zm-473.7 219.6q-0.8-4.8-1.9-9.4c-30.4-16.2-58.1-37.7-81.6-63.8l16.8-19.8c12.3-14.5 31.7-21 50.3-16.9 18.6 4.1 33.4 18.2 38.5 36.5 3.7 13.5 11.7 25.4 22.8 33.9 22.3 17.1 33 45.3 27.6 72.8-5.3 27.6-25.7 49.8-52.7 57.3-5.7 1.6-11.3 2.4-17 2.7 3.5-30.7 2.6-62.2-2.8-93.3z"/><path class="f" d="m715.7 380.3c-56.2 44.4-127.2 67.6-200.2 64q-20.1 1.1-39.9-0.6-1.5-9.5-3.7-18.9-3.5-15.1-5.4-30.3c43.5 1.6 86.8-10.3 123.8-34.6 26.8-17.5 49-40.8 65.3-67.7 6.5 13.6 15.3 26.5 26.4 38 14.2 14.8 25.6 31.8 33.7 50.1z"/><path class="e" d="m95.1 159.1l-10.2-40.2 151.3-92.2c12.7-10.7 29-16.9 46.4-16.9h73.5c10.9 8.4 17.7 21.6 17.7 36.1 0 21-14.3 39.3-34.7 44.4-24.6 6.1-39.9 30.8-34.4 55.6 7 31.4-11.7 62.9-42.7 71.8-30.9 8.9-63.5-7.7-74.3-38.1-6.5-18.1-21.8-31.6-40.6-35.8-18.8-4.1-38.5 1.6-52 15.3z"/><path class="g" d="m176.4 112.7h17c16.5 0 32.3-6.6 43.8-18.3 11.6-11.8 18-27.7 17.7-44.2 0-5.8 3.7-11 9.3-12.7 5.6-1.7 11.6 0.5 14.8 5.3 12.6 19.1 16.8 42.5 11.6 64.7-5.2 22.3-19.4 41.4-39.2 52.8-16.1 9.4-36.2 9-51.9-1-15.8-10-24.7-28-23.1-46.6z"/><path class="g" d="m152 112.7h-17c-16.5 0-32.3-6.6-43.9-18.3-11.5-11.8-17.9-27.7-17.7-44.2 0.1-5.8-3.7-11-9.2-12.7-5.6-1.7-11.6 0.5-14.9 5.3-12.6 19.1-16.7 42.5-11.5 64.7 5.2 22.3 19.4 41.4 39.2 52.8 16.1 9.4 36.1 9 51.9-1 15.7-10 24.6-28 23.1-46.6z"/><path class="h" d="m112.8 116.7l-84.7 45c-4.1 2.2-6.7 6.5-6.7 11.2 0 4.6 2.6 8.9 6.7 11.1 27.9 14.9 62.5 6.3 80.4-19.8 9.5-14 11.1-32 4.3-47.5z"/><path class="d" d="m108.3 111.4h87.3c22.4 0 40.7 18.3 40.7 40.7v152.5c0 46.4-37.9 84.4-84.3 84.4-46.4 0-84.4-38-84.4-84.4v-152.5c0-22.4 18.4-40.7 40.7-40.7z"/><path class="i" d="m108.3 111.4h43.9v55.7c0 32.8-20.3 62.3-51 74.1-10.9 4.2-22.4 5.8-33.6 5.1v-94.2c0-22.4 18.4-40.7 40.7-40.7z"/><path class="h" d="m215.6 116.7l84.6 45c4.2 2.2 6.7 6.5 6.7 11.2 0 4.6-2.5 8.9-6.7 11.1-27.9 14.9-62.5 6.3-80.3-19.8-9.5-14-11.2-32-4.3-47.5z"/><path class="c" d="m101.3 304.6h70.5c25.1 0 45.6 20.5 45.6 45.6 0 25.1-20.5 45.6-45.6 45.6h-70.5c-25.1 0-45.6-20.5-45.6-45.6 0-25.1 20.5-45.6 45.6-45.6z"/><path class="d" d="m105.4 204.8c10.3 0 18.8-8.4 18.8-18.8 0-10.3-8.5-18.8-18.8-18.8-10.4 0-18.8 8.5-18.8 18.8 0 10.4 8.4 18.8 18.8 18.8z"/><path class="j" d="m105.4 199.4c7.3 0 13.3-6 13.3-13.4 0-7.3-6-13.3-13.3-13.3-7.4 0-13.3 6-13.3 13.3 0 7.4 5.9 13.4 13.3 13.4z"/><path class="g" d="m100.9 177.1c2.4 0 4.2 2 3.9 4.5-0.3 2.4-2.5 4.4-5 4.4-2.4 0-4.2-2-3.9-4.4 0.3-2.5 2.5-4.5 5-4.5z"/><path class="h" d="m181.8 204.8c10.3 0 18.8-8.4 18.8-18.8 0-10.3-8.5-18.8-18.8-18.8-10.4 0-18.8 8.5-18.8 18.8 0 10.4 8.4 18.8 18.8 18.8z"/><path class="j" d="m181.8 199.4c7.3 0 13.3-6 13.3-13.4 0-7.3-6-13.3-13.3-13.3-7.4 0-13.3 6-13.3 13.3 0 7.4 5.9 13.4 13.3 13.4z"/><path class="g" d="m177.3 177.1c2.4 0 4.2 2 3.9 4.5-0.3 2.4-2.5 4.4-5 4.4-2.4 0-4.2-2-3.9-4.4 0.3-2.5 2.5-4.5 5-4.5z"/><path class="a" d="m80.5 368.1v-16.4c0-5.8 4.7-10.6 10.6-10.6 5.8 0 10.6 4.8 10.6 10.6v16.4c0 5.8-4.8 10.6-10.6 10.6-5.9 0-10.6-4.8-10.6-10.6z"/><path class="a" d="m157.9 368.1v-16.4c0-5.8 4.7-10.6 10.6-10.6 5.8 0 10.5 4.8 10.5 10.6v16.4c0 5.8-4.7 10.6-10.5 10.6-5.9 0-10.6-4.8-10.6-10.6z"/><path class="d" d="m781.6 60.3l11.9-15 18.5 10.4c53.2 30 86.1 86.4 85.9 147.6-0.2 38.4 26.8 71.5 64.5 79.1l7.5-6.5c16.8-14.5 39.5-20.1 61.1-14.9 8 1.9 16.3 1.9 24.2 0l-2.9 13.7c-4.1 19.6-19.5 34.8-39.1 38.6-19.6 3.8-39.6-4.5-50.8-21.1-22.9-0.2-44.7-9.9-60.3-26.7-15.6-16.9-23.6-39.3-22.1-62.2 3.5-54.3-25.5-105.4-73.8-130.3z"/><path class="e" d="m962.4 282.4l7.5-6.5c16.8-14.5 39.5-20.1 61.1-14.9 8 1.9 16.3 1.9 24.2 0l-2.9 13.7c-4.1 19.6-19.5 34.8-39.1 38.6-19.6 3.8-39.6-4.5-50.8-21.1z"/></svg>