<?xml version="1.0" encoding="UTF-8"?>
<!DOCTYPE svg PUBLIC "-//W3C//DTD SVG 1.1//EN" "http://www.w3.org/Graphics/SVG/1.1/DTD/svg11.dtd">
<svg version="1.1" xmlns="http://www.w3.org/2000/svg" xmlns:xlink="http://www.w3.org/1999/xlink" x="0" y="0" width="1139.355" height="1081.136" viewBox="0, 0, 1139.355, 1081.136">
  <g id="Layer_1">
    <path d="M400.668,893.93 C400.668,903.809 322.734,911.812 226.602,911.812 C130.465,911.812 52.535,903.809 52.535,893.93 C52.535,884.047 130.465,876.039 226.602,876.039 C322.734,876.039 400.668,884.047 400.668,893.93" fill="#C0C1C1"/>
    <path d="M186.223,81.703 C175.949,88.82 160.375,87.52 150.094,80.91 C159.594,79.332 174.617,78.812 186.223,81.703" fill="#FEFEFE"/>
    <path d="M295.699,83.621 C311.391,101.055 291.48,127.684 310.641,142.609 C325.074,154.559 325.824,172.246 321.332,188.68 C321.086,195.141 316.852,205.352 321.332,212.078 C327.824,223.773 343,219.793 351.211,229.984 C355.453,235.727 357.684,241.195 356.195,247.922 C352.457,253.145 351.211,258.117 346.484,262.102 C359.188,268.574 369.137,258.117 381.082,257.867 C399.992,251.902 419.91,250.902 439.082,244.93 C447.551,248.176 453.023,240.949 458.262,236.477 C468.203,225.262 479.656,214.305 483.395,199.375 C484.891,195.395 489.617,197.383 492.344,197.633 C497.582,199.629 500.066,203.859 503.062,209.094 C505.055,214.055 502.07,219.793 501.32,225.016 C516.75,224.02 531.926,217.785 549.613,219.793 C549.867,222.516 551.109,219.039 552.098,221.043 C554.332,223.023 554.836,226.754 554.332,229.25 C554.836,231.238 551.109,230.488 552.098,233.48 C556.324,234.469 560.809,235.727 562.301,239.953 C561.562,244.688 557.078,248.176 553.832,250.902 C555.832,253.145 560.062,255.391 558.082,259.117 L557.328,258.621 C556.324,261.852 546.871,262.852 552.098,267.59 C550.359,275.297 540.645,276.055 534.672,279.535 C515.242,284.762 494.609,286.5 475.668,287.25 C470.695,285.75 464.723,281.027 458.262,283.77 C455.77,286 452.02,285.75 449.789,288.504 L454.766,302.18 C454.023,304.684 452.523,306.164 449.789,306.414 C438.344,300.199 424.895,303.688 411.703,300.938 C403.988,301.926 396.762,306.414 389.547,306.414 C374.617,311.395 359.422,316.371 343,317.609 C330.051,318.609 319.609,310.398 308.887,303.934 C309.891,317.125 318.859,328.824 317.352,342.762 C315.125,344.25 316.617,349.973 313.621,352.469 C312.383,355.211 310.141,357.691 308.395,360.184 L308.887,360.688 C304.906,362.672 309.137,365.66 305.402,367.41 C303.172,380.594 308.395,393.285 311.391,404.246 C317.352,418.184 324.832,431.641 333.285,444.316 C332.785,449.297 339.023,456.023 333.285,460.996 C330.309,463.738 334.035,467.723 334.539,471.219 C343,504.055 326.574,540.902 331.047,573.523 C331.309,586.223 332.535,594.926 334.539,606.387 C334.285,609.363 333.039,610.621 330.309,611.594 C328.801,611.852 322.34,610.113 323.824,614.102 C325.074,617.836 326.32,623.062 326.82,627.777 C324.566,660.395 333.039,692.508 333.285,726.848 C335.789,753.508 334.539,772.168 331.047,797.559 C330.309,804.031 329.805,808.266 329.301,814.73 C331.047,816.98 329.551,818.957 330.309,821.953 C331.555,828.93 338.273,834.152 335.789,841.621 C320.098,864.523 324.082,908.086 288.484,910.316 C281.258,911.566 274.293,913.801 268.824,908.086 C265.336,899.117 272.551,890.152 274.293,881.199 C282.258,854.555 297.938,829.91 295.211,800.547 C297.188,785.605 291.965,764.703 290.477,746.766 C288.484,733.59 284.5,717.645 282.512,703.707 C280.754,708.695 283.512,716.906 282.512,722.871 C287.492,750.512 284.25,784.117 278.523,811.742 C278.023,816.73 278.773,823.945 281.504,829.176 C281.02,837.137 283.262,846.84 278.523,855.305 C274.543,859.039 272.062,858.543 267.078,857.801 C264.586,857.309 267.328,853.562 264.086,854.305 C255.383,861.281 245.914,873.715 235.965,879.203 C236.203,878.703 235.715,878.453 235.465,878.203 C232.973,881.934 227.75,884.191 223.516,886.418 C211.82,889.664 197.367,891.152 187.668,882.938 C183.922,880.453 183.922,875.727 187.668,873.23 C203.852,855.812 224.758,842.355 235.465,821.457 C235.465,810.242 240.188,801.047 240.188,788.594 C243.43,757.742 235.215,726.602 231.234,695.238 C225.996,679.305 221.766,661.648 221.016,645.215 C219.535,634.012 219.035,625.051 219.281,614.59 C217.039,614.102 212.07,615.578 210.316,613.352 C210.062,616.078 208.086,613.852 207.336,612.852 C211.566,588.703 196.387,566.305 192.391,541.156 C185.18,521.992 185.18,496.348 192.391,477.18 C187.668,474.949 181.191,475.691 177.953,470.719 C176.961,466.23 182.684,464.477 183.922,460.996 C195.891,441.332 203.352,417.184 198.363,393.539 C196.387,386.07 189.402,380.102 184.676,374.375 L183.922,375.125 C171.738,368.902 175.465,352.969 174.969,343.512 C165.754,359.949 159.043,379.359 156.559,397.27 C137.383,405.484 117.469,412.457 99.293,421.668 L72.914,448.547 L73.406,449.047 C66.68,455.523 59.715,463.492 50.75,459.27 C47.266,457.008 50.246,449.547 46.023,450.297 C45.035,452.777 41.793,454.535 39.547,456.277 C33.824,459.77 30.832,452.777 26.852,451.551 C22.375,454.281 18.145,452.277 14.414,449.801 C13.422,448.297 13.66,446.57 11.922,445.57 C8.434,446.316 6.195,443.824 3.703,442.082 C1.223,438.098 -1.266,433.621 0.719,428.883 C8.941,416.68 19.887,406.492 28.605,394.293 C23.117,391.812 17.156,387.582 16.156,381.086 C15.902,379.359 13.922,376.359 15.652,373.871 C15.652,371.391 17.406,369.637 19.137,367.918 C26.359,364.91 33.086,370.895 40.051,372.137 C46.262,372.875 51.746,375.629 58.457,375.125 C58.457,374.121 58.965,372.633 59.715,371.391 C77.891,360.688 99.047,356.207 115.977,344.016 C125.68,329.059 136.391,315.133 145.098,299.199 C138.367,295.215 129.906,289.23 127.176,281.277 C118.219,276.793 108.266,269.566 107.012,258.621 C96.062,229.496 136.633,217.297 142.105,192.16 C153.816,148.355 126.422,100.051 163.02,63.203 C175.727,53.762 191.906,44.297 206.082,48.273 C206.082,49.023 206.332,49.273 206.836,49.531 C222.262,35.336 246.664,40.559 262.844,48.273 C278.023,56.492 291.23,66.445 295.699,83.621" fill="#000000"/>
    <path d="M289.371,83.621 C299.816,101.055 291.348,118.477 298.328,136.648 C311.266,151.078 324.465,166.762 315.5,187.426 C314.508,197.633 311.766,209.344 317.988,218.035 C327.445,229.984 351.848,226.004 351.344,245.918 C350.105,251.402 342.879,255.141 346.121,261.602 C329.941,257.387 310.762,246.668 295.332,235.977 C291.102,234.469 284.387,233.715 279.652,233.48 C276.168,229.25 272.438,223.773 265.473,225.016 C276.672,214.555 284.387,200.379 288.617,185.688 C297.086,182.941 300.316,174.488 301.324,167.258 C302.059,162.277 299.816,155.059 300.57,149.352 C287.867,143.363 285.141,127.434 279.148,115.734 C276.922,104.285 275.164,86.359 261.738,79.387 C261.98,78.887 261.488,78.398 261.238,78.145 L260.484,78.145 C259.738,77.648 256.754,75.652 252.777,76.406 C251.031,77.91 250.531,81.141 251.52,82.379 C271.184,88.605 267.953,113.488 274.926,128.434 C277.656,134.395 281.156,140.129 285.141,145.605 C259.988,133.418 271.184,95.32 241.574,88.855 C235.59,86.598 227.371,94.078 221.664,87.102 C210.453,84.871 200.242,89.859 193.781,99.047 C186.316,108.02 185.312,119.965 182.82,128.434 C181.328,114.234 180.328,92.586 196.012,82.379 C204.227,80.391 214.684,75.402 221.16,84.121 C223.641,85.609 224.141,81.141 225.883,80.637 C224.641,75.402 219.406,73.426 215.188,71.672 C202.25,69.695 190.047,73.426 181.828,84.621 C163.895,101.559 185.312,133.418 163.895,146.848 C161.168,149.352 154.941,145.605 154.941,151.078 C157.68,155.312 163.645,160.293 169.133,161.789 C165.648,162.043 161.414,163.277 160.168,166.512 L160.918,167.258 C158.434,169.016 158.172,172.996 157.934,176.227 C157.934,186.422 164.148,195.641 173.863,201.129 C177.602,202.355 182.57,205.602 185.801,201.855 C192.277,214.555 203.48,223.266 215.672,229.25 C217.176,234.469 213.445,237.215 212.191,241.195 C213.195,235.223 207.957,232.73 205.73,230.488 L203.727,230.488 C202.988,239.203 204.227,250.152 194.766,253.879 C191.523,247.668 192.277,236.477 182.82,235.977 C180.828,237.215 180.578,239.203 180.578,241.195 C182.086,245.918 184.559,250.152 185.801,254.887 C188.793,262.102 185.566,271.066 182.316,277.039 L180.578,277.797 C183.562,262.102 157.434,268.574 158.926,251.402 C158.672,242.441 160.664,232.98 167.891,228.012 C168.629,225.262 165.402,224.766 163.895,223.266 C155.934,227.758 151.949,234.973 151.207,242.938 C151.949,249.414 148.719,258.367 154.941,263.859 C159.172,267.086 160.168,270.066 164.898,271.824 C153.449,274.551 155.441,284.52 149.469,292.727 C141.5,288.738 134.293,280.773 132.785,271.824 C132.531,263.102 134.773,252.898 140,244.93 C141,243.938 140.5,240.211 138.02,239.461 C130.805,241.938 129.301,251.402 126.805,257.867 C126.07,262.352 124.316,267.086 125.07,271.066 C114.859,264.859 113.371,252.898 115.359,241.938 C117.102,239.953 116.855,237.215 119.094,235.223 L118.359,234.719 C135.777,220.793 151.949,202.117 152.953,179.711 C155.691,168.516 152.953,156.316 152.953,144.367 C150.703,115.484 148.969,83.371 175.105,62.711 C186.316,57.496 198.266,49.781 211.703,55.488 C218.668,54.5 223.641,47.77 231.352,47.77 C255.25,48.777 280.152,59.973 289.371,83.621" fill="#FFAA67"/>
    <path d="M233.109,97.32 C237.844,96.82 241.574,96.32 245.559,99.047 C249.539,102.293 251.52,106.039 254.023,109.758 C250.027,112 242.066,109.758 242.566,116.98 C245.059,121.719 249.289,117.977 252.777,118.227 C254.266,116.23 256.254,117.977 257.004,117.484 C260.988,130.676 266.703,144.613 280.402,152.328 C283.383,169.504 281.156,188.918 272.438,203.613 C266.211,213.316 258.5,222.266 248.035,227.004 C246.301,229.742 248.289,232.98 251.031,233.965 L258.246,230.488 C261.98,238.953 265.727,246.668 264.223,256.141 C260.238,260.609 253.773,262.602 254.516,268.832 C256,271.312 258.996,271.82 261.234,270.562 L264.223,268.086 C263.969,272.57 262.227,277.531 261.738,282.516 C248.539,285.75 234.348,286.25 219.906,286.75 L220.656,265.836 C226.883,265.094 234.602,277.531 237.844,267.586 C235.086,262.602 227.625,261.113 222.402,258.621 C222.148,250.902 227.625,241.191 224.641,232.242 C228.375,234.223 233.109,233.965 236.59,233.48 C239.57,231.238 240.328,227.254 236.09,225.754 C201.496,224.273 188.043,190.906 178.102,163.531 C180.328,161.047 185.801,159.543 187.793,155.809 C192.527,148.352 190.547,140.383 191.777,131.41 C197.016,131.918 202.734,128.18 207.457,127.68 C208.453,125.703 211.703,125.941 210.453,122.945 C205.477,117.977 197.766,122.445 193.027,122.945 C196.516,111.246 201.496,99.547 213.445,94.816 C221.664,91.582 226.129,104.535 233.109,97.32" fill="#FFEFD9"/>
    <path d="M176.848,154.559 L168.633,154.059 C176.848,150.074 181.828,139.379 182.824,130.172 C181.582,138.629 184.062,149.586 176.848,154.559" fill="#F8C9BA"/>
    <path d="M268.957,145.605 C270.938,149.352 274.926,152.328 272.438,157.562 C266.703,159.797 267.215,150.828 261.738,149.352 C255.004,147.598 253.023,158.043 246.801,154.559 C246.801,149.352 247.543,144.613 252.273,141.387 C257.762,138.883 264.223,141.621 268.957,145.605" fill="#000000"/>
    <path d="M221.664,161.789 C220.16,162.781 220.16,164.777 218.18,164.777 C214.934,163.531 212.691,160.293 208.715,160.547 C199.996,164.027 205.965,177.969 196.762,177.234 C194.766,167.762 197.016,157.066 205.73,150.34 C210.953,148.355 215.672,152.832 219.406,155.309 C220.656,157.305 222.402,159.047 221.664,161.789" fill="#000000"/>
    <path d="M294.094,155.809 C293.844,162.777 295.336,169.75 290.363,175.477 C288.875,168.516 290.852,161.531 291.102,155.309 z M294.094,155.809" fill="#FFEFD9"/>
    <path d="M248.539,173.234 C244.805,174.227 247.289,182.941 241.574,179.711 C243.051,173.234 237.844,174.227 234.344,170.742 C234.852,169.254 233.359,167.008 235.586,166.016 C240.824,167.512 247.035,167.008 248.539,173.234" fill="#000000"/>
    <path d="M181.828,195.891 C174.355,192.895 167.141,186.422 164.898,178.457 C164.395,174.977 165.648,170.004 168.629,167.762 L170.387,167.258 C172.363,177.469 178.102,186.422 181.828,195.891" fill="#FFEFD9"/>
    <path d="M254.516,189.168 C252.777,199.379 259.488,215.055 245.559,220.293 C242.566,219.293 239.336,222.027 236.094,222.777 C229.629,214.059 218.406,204.363 222.891,192.898 C233.613,191.91 243.805,185.199 254.516,189.168" fill="#000000"/>
    <path d="M247.539,195.891 C247.035,200.875 249.039,209.578 243.305,213.812 C241.816,214.055 240.328,214.555 238.582,214.301 C234.344,210.32 230.863,205.094 228.875,199.375 C235.34,198.621 240.574,195.391 247.539,195.891" fill="#FEFEFE"/>
    <path d="M497.727,213.816 C500.457,225.266 483.531,228.512 485.762,239.461 C484.523,243.691 477.797,246.168 481.043,250.152 C481.781,252.156 483.781,251.152 485.273,251.402 L489.992,247.926 C491.492,252.898 491.746,258.117 494.73,262.852 C496.484,261.352 498.707,260.613 500.203,258.621 C500.457,250.402 497.727,243.691 495.48,236.477 C512.402,230.742 529.316,229.746 547.262,226.254 C549.488,230.488 544.016,230.488 541.27,230.988 C531.582,234.469 520.113,233.719 510.906,238.953 C511.164,240.711 510.156,243.438 512.652,243.691 C526.086,243.938 539.527,240.711 553.973,241.938 C550.996,250.152 538.789,245.922 532.312,247.926 L517.387,249.668 C515.895,251.152 515.395,252.898 515.648,254.887 C522.609,260.613 531.582,254.641 540.297,255.637 C543.273,255.391 547.262,255.891 550.238,257.387 C541.023,261.113 530.324,262.352 519.883,263.355 C518.625,265.098 517.387,267.336 518.625,269.328 C526.086,272.824 534.555,267.836 542.523,269.82 C523.109,278.285 501.207,277.531 480.551,280.773 C471.836,274.551 460.137,274.551 451.168,280.035 L450.668,280.773 C448.188,271.824 447.688,263.355 448.676,254.391 C461.375,248.426 472.336,238.203 479.801,227.508 C484.289,220.293 490.996,214.055 491.746,205.352 C495.73,206.344 496.484,210.578 497.727,213.816" fill="#FFEFD9"/>
    <path d="M270.699,235.223 C270.938,234.469 267.953,234.977 268.453,232.242 z M270.699,235.223" fill="#FEFEFE"/>
    <path d="M319.23,259.875 C332.188,265.836 345.875,272.574 361.066,272.32 C386.688,264.352 413.086,259.117 438.719,253.879 C439.469,255.637 439.469,261.113 438.719,263.859 C439.223,274.801 441.715,287.5 445.684,296.707 C433.25,298.199 422.289,291.734 408.863,295.723 C385.199,301.43 362.543,311.148 337.172,310.648 C326.711,305.914 317.488,298.449 307.281,293.711 C307.281,290.984 305.051,289.977 303.051,288.504 C300.574,287.25 298.328,288.234 297.578,290.734 C299.066,304.684 304.055,316.871 309.039,329.059 C309.039,330.062 308.785,333.059 310.766,333.797 L310.273,333.797 C311.266,351.477 292.355,366.91 298.816,385.32 C303.801,410.219 318.496,431.133 329.203,454.031 C307.785,453.035 287.617,460.262 266.465,465.234 C265.727,464.242 263.219,462.996 264.227,460.508 C260.992,453.035 257.008,445.57 250.531,440.098 C247.543,438.855 245.812,442.082 243.805,443.824 C242.066,451.551 242.57,459.508 240.328,467.723 C223.895,468.711 205.73,470.719 190.051,468.223 C198.758,457.766 202.738,446.316 206.219,433.117 C209.215,422.922 213.199,411.223 209.715,400.766 C211.445,384.574 194.77,373.121 185.801,361.922 C184.562,353.707 186.066,344.992 185.801,336.285 L186.555,336.285 C187.293,329.809 187.547,325.328 187.797,318.363 C193.281,330.312 203.727,340.031 214.688,348.242 C216.68,348.242 217.68,345.742 219.41,344.496 L218.672,342.262 C210.453,333.309 200.492,326.328 196.012,314.637 C200.492,309.398 208.715,309.898 208.715,301.676 C206.473,293.965 197.766,289.734 199.004,281.277 C202.738,273.312 208.211,266.34 212.691,258.621 C208.211,291.984 214.688,330.812 240.828,356.449 C242.57,357.195 244.809,358.441 246.801,357.195 C255.754,343.512 255.508,326.082 261.738,311.148 C270.941,290.984 276.672,265.578 273.191,241.938 C278.902,253.145 282.898,265.098 290.363,275.297 L291.105,274.801 C288.121,282.266 277.922,285.75 274.93,294.465 C273.941,299.453 275.918,303.934 280.402,306.414 C281.66,307.172 283.137,308.172 284.391,308.656 C280.156,318.609 273.691,327.586 269.461,337.527 C271.441,338.281 273.191,341.273 275.418,339.281 C283.891,330.062 288.121,319.359 293.359,308.656 C293.359,303.688 284.137,301.926 283.383,296.707 L283.383,294.969 C285.629,295.215 283.641,292.484 285.629,291.984 C290.363,287.754 296.09,283.77 299.316,278.785 C298.566,278.035 300.574,276.539 300.574,275.297 C297.09,273.801 298.328,268.836 294.598,268.086 C295.336,268.34 295.586,267.836 295.836,267.59 C290.602,259.625 286.379,249.902 282.633,240.711 C296.586,242.688 306.297,255.141 319.23,259.875" fill="#FF39D6"/>
    <path d="M194.766,269.324 C194.766,264.859 196.516,262.098 200.742,260.871 C199,263.352 197.766,268.086 194.766,269.324" fill="#FEFEFE"/>
    <path d="M164.395,287.754 C163.895,290.23 164.648,293.465 167.891,293.715 C176.098,293.227 183.562,288.742 188.793,281.766 C189.047,290.23 196.262,295.723 199.004,302.684 C195.52,305.918 191.039,306.914 187.793,310.648 C186.805,307.414 182.824,306.914 180.578,307.668 C176.098,313.145 178.586,317.859 178.84,324.352 C173.863,324.59 172.867,330.809 170.871,334.547 C165.148,346.496 160.168,358.445 155.934,370.898 C154.203,378.113 152.449,385.324 150.707,392.297 C134.539,398.02 119.094,405.234 103.414,411.473 C105.906,393.539 89.223,380.594 75.281,373.375 C92.215,363.434 114.125,360.688 127.312,343.512 C139.008,325.828 153.953,305.918 161.918,285.496 C162.418,280.035 167.629,279.039 171.609,277.043 C170.871,280.035 168.629,286.746 164.395,287.754" fill="#FF39D6"/>
    <path d="M259.488,291.984 C251.52,308.406 248.039,326.578 242.566,344.012 C235.344,338.02 230.617,328.32 226.637,318.359 C223.891,311.145 222.148,303.684 221.16,295.719 C233.109,294.461 246.801,293.223 259.488,291.984" fill="#FEFEFE"/>
    <path d="M298.328,363.18 C300.574,370.391 291.852,366.66 289.371,369.141 C272.438,374.375 255.754,379.848 240.328,387.582 C243.805,389.309 246.801,387.324 251.031,387.074 C257.762,385.824 263.969,384.574 271.938,384.574 C272.191,385.574 272.688,386.574 272.438,387.582 C259.738,394.789 241.328,396.535 226.637,394.789 C223.641,394.039 226.133,391.062 225.395,389.309 C249.043,379.359 272.438,366.41 298.328,363.18" fill="#000000"/>
    <path d="M67.566,380.348 C75.535,380.102 84.234,387.828 89.727,394.293 C93.961,400.266 95.695,409.723 94.457,415.695 C83.496,425.898 74.297,439.605 64.074,449.047 L58.613,452.777 C57.863,440.578 68.309,433.621 74.793,424.164 C75.035,422.168 73.797,419.676 71.797,419.934 C71.551,420.168 71.312,420.664 70.559,420.426 L69.309,419.191 C65.578,419.934 59.598,427.395 56.859,430.637 C55.133,432.613 50.648,435.617 49.145,439.605 C46.66,441.832 43.172,443.082 41.93,446.82 L40.172,446.82 C44.422,434.867 56.359,428.395 62.848,416.938 C63.098,415.453 61.594,413.699 59.84,412.699 C50.898,411.473 50.898,421.418 43.672,424.645 C36.945,431.879 30.984,439.105 24.496,445.07 L23.992,445.57 C21.766,444.078 21.516,442.332 22.766,440.098 C30.484,431.133 37.945,419.934 48.406,410.969 C48.891,409.219 48.141,407.734 46.66,406.738 C44.422,407.734 42.43,404.492 40.676,407.242 L40.172,406.738 C30.984,418.438 21.012,424.918 14.551,437.852 C12.312,438.855 10.82,436.109 10.312,434.117 C9.316,428.633 16.293,424.918 18.035,419.934 L37.195,398.273 C44.91,399.762 56.121,408.973 61.594,399.52 C53.879,396.281 49.145,394.543 41.426,391.309 C39.688,386.832 33.711,387.582 29.98,385.824 C25.746,384.094 25.746,379.359 23.504,376.363 C23.992,371.648 29.48,374.871 31.723,375.629 C43.672,379.359 56.359,384.094 67.566,380.348" fill="#FFEFD9"/>
    <path d="M254.516,461.746 C256.504,465.984 256.504,471.469 260.488,474.195 C282.898,472.207 302.062,461.246 325.219,462.996 C339.398,501.578 318.496,536.172 324.469,574.512 C325.219,584.215 323.965,592.438 326.949,603.395 C322.477,603.629 316,602.891 310.766,602.148 C280.402,600.652 250.531,606.625 218.18,606.387 C218.668,584.715 207.219,566.559 203.727,545.887 C197.766,523.25 192.281,500.828 201.5,477.93 C217.176,478.93 230.367,475.691 244.559,475.938 C250.531,471.957 249.781,462.504 251.523,457.516 C252.027,459.27 252.777,461.246 254.516,461.746" fill="#000000"/>
    <path d="M318.492,611.594 C322.223,634.254 317.988,667.613 324.465,691.016 C323.211,693.012 324.715,695.238 325.215,696.992 L325.703,696.496 C327.945,736.07 329.941,777.406 321.484,815.48 C321.484,816.23 321.734,818.207 322.223,819.461 C326.707,821.703 325.215,828.68 328.195,832.656 C327.445,833.398 325.453,833.398 326.195,835.145 C318.492,838.625 312.516,848.344 304.297,848.852 C291.602,844.105 305.051,832.898 303.551,824.445 C309.039,800.793 303.797,777.152 301.32,750.262 C297.574,727.355 291.348,700.473 290.363,673.848 C287.867,664.125 286.375,653.684 286.375,644.465 C284.387,633.766 282.629,623.793 280.906,612.348 C290.852,610.863 301.57,609.871 313.266,611.109 z M318.492,611.594" fill="#FFEFD9"/>
    <path d="M270.699,612.852 C272.688,630.035 264.469,640.984 268.957,657.16 C273.188,673.348 272.938,690.027 276.168,705.949 C274.43,735.32 282.633,760.469 275.414,789.586 C272.438,799.043 273.941,809.266 271.938,819.461 C259.238,826.926 249.539,836.898 235.59,839.379 C253.023,815.73 251.52,784.117 250.531,757.973 C245.559,725.117 244.305,695.238 233.109,664.875 C230.125,654.422 231.605,643.711 229.629,633.766 L229.629,614.59 C242.312,614.84 257.504,611.594 270.699,612.852" fill="#FFEFD9"/>
    <path d="M278.41,660.645 C276.168,652.176 275.414,648.949 276.672,640.23 C277.41,648.445 277.922,653.184 278.41,660.645" fill="#FEFEFE"/>
    <path d="M281.406,670.109 C282.633,677.82 282.145,684.793 283.891,695.234 C280.402,685.543 281.156,671.09 278.414,661.898 C280.402,663.875 279.652,667.855 281.406,670.109" fill="#FEFEFE"/>
    <path d="M275.414,830.906 C274.926,835.891 276.922,843.609 273.688,848.34 C272.188,847.84 267.211,843.352 264.223,845.352 C250.277,853.816 239.57,871.488 223.641,877.461 C221.41,879.703 217.918,880.453 214.684,880.453 C208.207,882.684 202.246,881.93 196.758,878.703 C198.504,873.23 205.965,868.762 209.211,863.773 L210.449,863.773 C221.41,859.039 225.883,838.625 239.57,848.34 C252.523,844.594 264.223,834.891 274.426,828.426 z M275.414,830.906" fill="#ED3B35"/>
    <path d="M320.234,859.543 C315.5,875.723 312.02,896.875 292.352,902.598 C287.867,903.852 282.383,904.859 277.922,904.359 C281.156,886.664 290.109,869.988 295.332,852.328 C298.078,855.055 302.059,858.043 306.543,857.801 C314.262,857.309 318.727,851.578 324.465,847.59 C324.715,850.824 321.734,855.559 320.234,859.543" fill="#ED3B35"/>
    <path d="M1139.355,1060.016 C1139.355,1071.676 1024.738,1081.137 883.344,1081.137 C741.957,1081.137 627.34,1071.676 627.34,1060.016 C627.34,1048.355 741.957,1038.895 883.344,1038.895 C1024.738,1038.895 1139.355,1048.355 1139.355,1060.016" fill="#C0C1C1"/>
    <path d="M898.508,41.367 C901.832,50.578 904.395,60.309 905.93,70.293 C909.25,76.695 906.438,83.871 909.004,90.52 C907.473,98.211 909.766,110.504 904.641,118.18 C902.09,128.168 899.277,141.223 893.637,151.477 C892.605,152.25 892.09,153.246 892.359,154.543 C888.004,160.688 886.473,166.574 881.859,172.977 C885.184,184.754 884.414,196.785 881.859,208.062 C883.398,211.387 883.898,215.223 886.219,218.293 C886.473,221.383 889.023,223.418 889.801,226.496 C904.641,240.062 907.723,262.094 907.215,281.809 C904.395,290.258 901.059,299.988 894.148,307.418 C882.891,319.195 870.344,329.684 855.477,334.039 C856.766,355.043 863.426,377.062 863.426,399.078 C863.426,426.23 870.859,450.809 869.055,477.695 C867.77,483.066 866.484,489.984 865.211,496.133 C864.188,505.086 858.312,512.262 858.047,521.48 C855.988,527.117 853.434,533.266 849.852,537.871 C848.312,547.086 841.906,550.668 842.68,560.668 C836.023,572.188 844.992,586.008 843.703,598.805 C847.281,616.734 833.988,638.254 845.766,653.613 C849.852,666.156 854.207,679.484 858.047,691.52 C860.859,694.844 862.152,699.715 864.188,703.809 C870.344,717.367 877.254,731.203 878.797,745.801 L878.277,745.023 C874.68,748.863 870.859,745.539 865.988,745.801 C855.734,745.801 847.023,748.102 837.57,746.309 C834.742,749.891 835.762,755.012 833.469,758.59 C833.469,772.172 824.496,785.234 821.699,799.051 L819.891,801.113 L819.121,800.336 L818.598,801.113 C823.469,804.176 823.469,809.816 826.555,814.43 C832.957,825.949 837.047,836.691 841.406,848.98 C848.82,868.969 857.016,888.941 865.988,908.66 L865.211,909.164 C869.055,910.184 865.211,914.793 870.344,914.023 C875.699,914.281 882.637,908.148 889.285,912.746 C895.941,917.359 902.09,925.551 900.305,933.234 C901.312,937.848 905.156,942.703 906.438,947.836 C910.543,957.055 910.543,966.27 913.867,974.977 C916.43,992.383 919.746,1009.289 913.348,1025.938 C911.559,1027.727 910.027,1031.305 909.004,1033.355 C905.93,1037.969 903.121,1043.352 897.992,1046.934 C892.605,1048.469 887.496,1046.676 883.652,1043.098 C875.699,1034.383 874.68,1021.832 870.344,1012.355 C865.988,1000.062 861.891,987.266 852.922,976.766 L852.41,987.773 C854.207,990.074 853.938,994.184 854.207,996.48 C855.23,1005.445 857.016,1011.332 859.84,1020.289 C863.668,1025.672 862.152,1031.824 863.426,1038.742 C865.211,1041.551 860.859,1043.598 859.074,1044.871 C850.117,1047.953 840.629,1051.805 830.906,1051.031 C829.367,1046.418 831.41,1040.777 829.109,1035.664 C822.195,1034.645 818.859,1043.098 813.742,1046.934 C795.309,1062.547 773.027,1068.695 749.223,1070.742 C741.535,1068.434 729.758,1065.355 729.496,1056.145 C735.91,1049.484 745.109,1048.727 751.535,1044.871 C752.543,1045.387 752.805,1044.113 753.562,1043.852 L752.805,1043.098 C770.977,1034.645 780.461,1017.484 796.59,1003.922 C809.906,980.609 802.984,954.73 795.309,931.18 C787.629,908.148 781.227,876.895 769.945,852.582 C764.062,828.242 752.289,804.949 747.43,779.594 C744.609,768.328 743.074,758.855 738.723,748.102 C730.527,748.363 717.715,750.656 710.555,746.309 C710.039,725.828 714.398,700.734 706.715,678.707 C706.973,677.418 704.66,674.609 705.434,673.066 C697.75,649.773 695.941,625.453 698.781,600.609 C688.777,598.555 677.266,597.785 669.844,592.156 C662.668,576.285 660.621,562.965 664.453,544.797 C669.066,508.938 676.488,472.07 693.137,439.035 C698.52,434.68 699.027,426.48 705.434,424.172 C699.027,404.984 700.555,381.93 686.992,365.801 C687.496,365.027 687.754,364.008 687.754,362.723 C690.828,360.172 694.93,359.398 698.266,356.59 C699.027,336.863 672.395,335.844 671.109,317.391 C670.102,308.18 669.328,296.652 676.75,288.461 C689.043,277.195 699.543,263.363 715.926,263.871 L720.289,269.516 C720.535,261.324 728.98,257.484 733.852,254.145 C737.18,251.84 739.492,254.922 740.508,257.742 C740.762,260.551 741.27,263.871 743.582,265.164 C745.109,257.742 753.816,255.684 758.945,251.082 C764.59,247.484 770.465,244.93 776.105,241.855 C775.078,224.188 759.719,237.254 749.723,230.594 C731.801,228.801 718.238,218.047 712.336,201.152 C707.734,187.316 705.938,172.977 706.715,158.121 C701.332,152.996 696.723,144.555 698.781,136.105 C703.117,132.523 709.016,130.734 714.656,132.266 C712.605,126.633 711.316,118.941 711.074,111.52 C712.852,83.355 724.363,55.949 742.305,32.918 C745.371,33.68 743.074,30.352 745.371,29.836 C766.629,10.883 791.727,2.176 819.891,0.141 C851.895,-1.664 882.117,14.469 898.508,41.367" fill="#000000"/>
    <path d="M889.797,44.434 C899.273,70.293 906.703,103.328 892.863,129.188 C887.746,144.047 882.363,158.637 873.406,171.703 C875.695,182.445 876.73,190.641 874.438,201.914 C870.855,227.512 897.473,240.578 897.992,264.391 C904.395,287.438 886.73,306.648 870.855,318.684 C851.391,331.742 822.195,330.719 801.965,321.746 C790.43,315.609 778.148,303.312 778.148,290.258 C780.203,288.973 777.641,286.676 777.383,284.875 C776.621,281.293 777.383,278.223 779.949,274.891 C786.598,267.469 794.289,280.273 799.656,271.309 C799.656,265.93 793.512,266.953 790.43,265.164 C784.562,264.133 779.684,257.996 778.148,254.664 C777.383,250.562 780.203,249.031 782.238,246.719 C794.289,240.32 798.891,258.242 808.871,254.664 C816.305,250.32 823.469,245.449 822.957,236.223 C824.246,224.449 815.016,214.707 821.695,202.93 C824.246,204.98 826.031,209.348 829.629,206.77 L833.469,202.93 C820.914,192.184 815.785,174.512 811.172,159.414 C811.172,148.91 806.82,139.941 806.82,129.188 C806.059,126.117 802.219,126.117 800.18,126.117 C796.836,129.961 798.375,136.359 798.891,140.957 L803.762,169.902 C778.402,145.316 771.496,109.988 772.016,74.648 C773.285,66.207 776.105,59.793 776.863,51.852 C769.703,46.223 762.012,53.902 755.359,56.723 C745.105,65.176 731.797,74.648 732.055,88.215 C733.594,90.793 736.922,88.215 738.719,89.246 C739.234,99.984 733.074,108.961 732.055,118.18 C728.215,121.504 727.449,126.117 722.844,128.676 C713.102,103.582 727.961,75.918 738.719,51.852 C748.449,36.238 763.812,23.434 779.949,18.059 C783.527,14.98 789.152,14.469 792.758,13.188 C828.859,1.41 868.789,11.914 889.797,44.434" fill="#8B5E47"/>
    <path d="M765.094,61.594 C758.691,79 764.332,99.742 765.863,114.598 C763.043,109.988 764.062,106.66 758.941,104.098 C754.59,102.051 750.234,105.117 747.426,107.176 C746.137,108.441 746.137,109.73 746.652,111.516 C749.977,115.113 756.137,108.199 756.641,115.875 C758.941,121.504 759.207,129.699 762.789,133.543 C765.348,134.055 767.391,132.766 769.445,131.246 C776.105,152.992 790.43,171.441 808.109,187.574 C813.484,188.09 812.98,194.234 816.047,196.785 C802.727,212.672 827.047,236.484 806.82,247.238 C801.203,247.48 797.613,241.852 792.758,239.805 C790.43,238.785 787.109,239.547 784.297,239.293 C786.094,238.27 783.527,237.25 783.527,237.512 C783.527,232.641 779.434,229.32 777.383,225.207 C758.941,224.703 732.312,224.188 723.344,204.223 C716.68,189.621 714.906,171.957 715.414,155.055 C711.832,150.184 705.688,145.316 708.508,139.18 C713.102,137.895 720.285,143.02 725.141,138.41 C743.848,124.07 749.977,100.762 746.137,77.727 C752.285,72.336 756.641,64.402 765.094,61.594" fill="#FFEFD9"/>
    <path d="M750.5,128.168 C748.449,136.617 746.141,147.629 749.723,156.328 C748.703,156.844 747.43,156.844 746.656,158.117 C742.039,157.863 743.336,151.73 740.508,148.91 C739.488,141.734 742.039,133.02 745.371,126.117 C747.43,126.633 749.977,125.344 750.5,128.168" fill="#000000"/>
    <path d="M749.723,190.641 C747.688,196.027 749.977,203.191 742.301,205.496 C736.926,207.543 732.312,204.227 730.004,199.352 C727.715,196.281 726.945,191.414 728.219,187.574 C728.477,185.527 730.789,183.734 732.562,182.707 C738.98,183.48 746.918,185.27 749.723,190.641" fill="#000000"/>
    <path d="M741.785,193.203 C742.039,195.77 742.039,199.609 739.234,199.863 C737.434,201.398 736.672,199.09 736.172,197.562 C732.816,195.77 735.141,192.949 734.371,190.641 C737.434,190.383 739.492,191.93 741.785,193.203" fill="#FEFEFE"/>
    <path d="M775.598,265.676 L755.363,278.742 C752.805,275.406 752.805,270.031 751.531,265.676 C758.176,262.598 763.555,257.227 769.941,254.145 C768.676,259.016 775.078,261.836 775.598,265.676" fill="#FEFEFE"/>
    <path d="M747.426,287.953 C742.816,301.777 738.453,316.621 736.922,330.973 C727.203,338.652 716.184,345.812 705.43,352.473 C702.352,340.953 695.941,331.234 684.684,325.844 C677.773,318.938 674.691,308.18 677.773,299.473 C683.648,289.227 698.262,276.68 709.781,270.543 C716.949,271.309 717.457,282.824 724.637,285.387 C732.051,285.387 725.91,276.934 727.711,273.098 C726.422,270.543 726.941,265.676 729.492,263.359 L732.559,260.809 C736.41,269.77 743.07,278.742 747.426,287.953" fill="#FFEFD9"/>
    <path d="M769.941,284.875 C763.043,286.16 758.43,291.531 754.078,296.391 C752.805,285.387 764.832,284.875 770.719,278.742 z M769.941,284.875" fill="#FBC300"/>
    <path d="M771.238,300.242 C759.207,309.711 759.719,325.586 753.559,338.133 C753.816,339.926 752.805,341.203 752.285,342.492 C749.977,334.039 754.328,327.391 748.449,320.477 L746.652,320.477 C747.688,317.133 749.465,314.582 752.285,313.039 C757.668,306.648 762.012,297.68 769.445,292.812 C769.941,294.871 772.016,297.164 771.238,300.242" fill="#FEFEFE"/>
    <path d="M818.598,336.344 C815.016,367.844 804.273,395.492 797.105,426.23 C794.531,427.754 796.59,428.789 795.82,431.102 C786.848,457.988 782.496,493.309 751.012,503.055 C746.141,501.504 736.926,504.066 735.141,496.129 C726.688,477.957 719.012,459.516 715.926,439.035 C714.652,435.188 710.816,430.832 713.621,426.734 C709.27,407.016 706.969,386.543 699.281,368.352 C698.52,368.109 698.781,367.078 698.781,366.562 C713.875,357.852 728.98,348.395 742.301,337.117 C744.609,368.617 747.688,393.191 751.531,425.469 C752.285,428.789 756.387,428.016 758.43,427.242 C758.43,424.945 763.047,422.898 759.719,420.594 C758.691,403.691 753.559,385.77 754.594,368.867 C760.996,357.344 759.719,344.797 765.094,332.766 L764.59,331.992 C766.891,329.941 767.395,325.844 768.934,322.777 C768.934,317.391 771.496,312.785 775.078,308.695 C783.527,325.844 802.469,332.766 818.598,336.344" fill="#FEFEFE"/>
    <path d="M846.777,337.625 C854.973,377.316 856.504,416.758 859.84,456.953 C862.152,477.18 856.504,495.617 850.613,513.281 C848.312,519.957 848.051,527.117 843.703,533 C842.949,506.637 834.23,482.824 827.828,459.262 C828.34,444.41 826.551,430.078 829.633,417.012 C830.398,389.109 834.742,361.703 840.121,337.117 z M846.777,337.625" fill="#FEFEFE"/>
    <path d="M830.398,337.625 C822.703,370.145 822.449,394.734 818.598,428.016 C818.355,449.789 818.094,468.477 826.031,487.684 C823.211,487.938 817.324,488.711 815.016,491.773 C812.977,499.734 815.016,509.699 816.047,517.137 C806.059,516.363 797.613,520.199 791.461,529.418 C783.016,542.992 784.043,560.926 772.016,572.445 C759.207,575.512 741.531,579.609 729.492,571.668 C716.438,556.312 722.59,535.316 712.332,518.93 L701.844,512.766 C702.098,504.328 706.969,494.859 702.352,487.684 C698.262,481.539 691.602,481.539 685.969,479.484 C689.809,464.113 697.492,450.309 704.91,436.469 C707.984,443.125 713.102,453.633 707.488,460.535 C706.199,468.215 699.277,474.891 701.844,482.566 C706.969,486.145 714.133,483.848 720.285,484.602 C724.363,493.828 728.473,505.348 738.199,510.219 C754.59,516.875 768.93,505.348 779.18,494.34 C782.496,485.375 792.234,493.566 798.375,491.266 C802.727,491.016 808.109,492.539 809.902,487.684 C807.59,466.438 809.902,445.691 805.801,427.242 C806.82,421.887 808.363,418.027 808.871,413.938 C809.141,413.172 810.402,412.922 809.902,411.887 L809.395,411.371 L809.902,411.371 C817.594,387.559 825.277,361.438 827.305,337.625 z M830.398,337.625" fill="#FBC300"/>
    <path d="M800.18,482.047 L787.367,480.762 C790.43,472.566 794.031,464.113 797.613,456.18 L798.379,454.387 C799.922,461.82 800.434,472.566 800.18,482.047" fill="#FEFEFE"/>
    <path d="M717.203,475.895 L709.781,475.387 L712.852,464.113 C714.91,467.453 715.926,471.805 717.203,475.895" fill="#FEFEFE"/>
    <path d="M694.426,493.055 C694.172,502.281 692.879,513.543 690.828,521.988 L675.977,519.434 L683.406,488.711 C688.266,487.68 691.352,490.246 694.426,493.055" fill="#DD7AC8"/>
    <path d="M828.34,495.613 C831.41,505.598 832.691,517.133 834.488,526.859 C816.562,528.902 825.793,506.887 821.18,496.902 C822.957,495.375 825.793,495.613 828.34,495.613" fill="#DD7AC8"/>
    <path d="M722.074,577.301 L722.844,576.801 L722.074,577.301 C735.637,589.59 758.43,585.246 774.305,580.895 C781.734,577.555 785.062,570.641 788.398,563.734 C788.398,560.668 790.949,557.074 792.238,553.996 C795.047,543.766 797.617,530.961 808.871,526.863 C811.949,528.152 819.891,523.797 818.094,530.695 C822.707,535.316 829.633,534.277 835.25,536.086 C837.309,558.348 832.691,580.641 824.762,600.09 C815.539,599.836 803.242,597.281 792.762,598.301 C768.172,601.383 744.344,592.41 719.766,593.945 C704.391,592.156 689.297,592.926 675.977,588.32 C664.203,571.414 672.395,548.379 673.684,529.414 C679.57,528.906 687.754,530.191 695.188,530.695 C699.281,529.922 699.281,525.07 700.555,521.988 C716.949,536.086 705.691,562.703 722.074,577.301" fill="#FFF7B5"/>
    <path d="M754.078,537.871 C758.945,536.344 765.867,537.105 769.941,540.438 C774.305,551.699 762.789,559.375 755.363,565.523 C752.043,567.316 748.191,569.105 744.344,567.574 C737.434,562.184 724.363,555.797 725.141,544.797 C725.91,540.941 727.961,534.797 733.074,532.996 C743.336,529.414 745.371,544.797 754.078,537.871" fill="#000000"/>
    <path d="M750.5,550.148 C752.543,546.066 757.668,546.066 762.012,545.297 C765.867,552.215 754.594,555.535 751.531,560.148 C748.449,563.988 745.887,558.348 743.074,557.582 C739.738,552.711 734.621,552.711 733.078,546.066 C733.078,546.566 733.078,542.211 735.141,540.941 C743.074,540.688 741.531,555.535 750.5,550.148" fill="#FFF377"/>
    <path d="M837.047,654.641 C840.887,668.469 845.238,682.812 850.613,695.355 L851.133,694.578 L850.613,695.355 C857.281,709.688 862.906,724.293 868.277,738.879 C812.203,738.621 773.027,736.586 719.766,740.668 C718.492,722.75 722.328,700.473 716.68,681.781 C708.512,656.176 704.137,628.262 706.199,601.383 C741.27,601.125 779.18,609.062 816.047,606.242 C819.629,606.754 823.469,610.09 826.551,608.023 L830.902,603.672 L830.398,603.172 C830.902,603.172 831.145,602.918 831.41,602.395 L831.41,600.609 C833.469,599.062 833.469,595.48 835.25,593.191 C838.578,612.645 825.277,636.711 837.047,654.641" fill="#CA7ADC"/>
    <path d="M800.18,746.309 C795.047,767.297 803.504,786.25 809.398,803.402 C825.793,846.691 832.691,888.938 839.605,933.73 C840.375,938.859 843.195,943.215 839.605,947.832 C841.406,953.461 843.441,958.574 844.469,964.477 C840.117,976.25 851.391,989.828 837.047,995.203 C823.727,1004.156 811.691,1012.094 797.613,1019.27 C795.309,1020.289 791.98,1019.523 789.156,1019.77 C796.836,1013.898 804.016,1006.98 808.871,997.766 L808.109,996.992 C812.727,992.641 810.406,985.473 811.949,979.828 C815.016,953.461 802.73,927.34 795.82,901.73 C793.77,892.52 790.18,882.797 788.398,874.082 C777.133,846.172 767.137,817.75 758.43,788.816 C753.816,774.98 752.289,761.426 747.941,748.102 C765.098,746.555 782.242,746.055 800.18,746.309" fill="#FFEFD9"/>
    <path d="M827.828,747.586 C825.277,763.207 821.18,775.754 815.016,789.848 C806.566,779.078 807.594,760.91 809.398,746.309 C815.273,747.328 823.727,747.07 827.828,747.586" fill="#FFEFD9"/>
    <path d="M844.465,881.004 C849.852,893.031 854.969,905.066 860.344,917.102 C855.988,920.438 851.129,926.055 848.816,930.668 C846,925.551 846.523,918.891 845.766,912.746 L844.465,911.727 C845.766,905.828 841.902,898.922 843.191,893.793 C841.41,888.938 841.902,882.797 838.32,877.164 L838.828,877.922 C837.566,871.273 836.535,863.32 834.484,856.402 C839.098,864.859 840.887,872.031 844.465,881.004" fill="#FFEFD9"/>
    <path d="M891.07,927.598 C892.086,928.625 891.586,930.148 891.84,931.176 C888.766,931.695 888.25,934.766 886.215,936.309 C886.977,937.844 886.73,940.656 889.281,941.184 C891.328,938.859 893.637,940.922 894.922,942.961 C903.375,967.285 910.027,993.152 907.215,1019.27 C905.156,1026.191 901.309,1032.582 897.219,1038.738 C894.414,1039.254 892.086,1038.477 889.797,1036.926 C889.797,1031.578 888.004,1024.641 886.73,1019.77 C883.395,1013.633 883.648,1007.5 881.859,1001.348 C878.797,975.234 874.438,952.441 874.438,921.957 C874.172,920.941 872.891,920.438 873.406,918.891 C880.566,916.855 888.25,921.195 891.07,927.598" fill="#EC3596"/>
    <path d="M872.113,993.926 C871.102,989.055 866.746,983.93 864.695,979.316 C862.652,979.074 864.441,973.699 864.695,970.621 C866.746,958.074 864.441,946.297 859.84,933.234 C860.859,928.891 861.891,924.281 866.484,921.957 C866.484,944.504 868.277,970.879 872.113,993.926" fill="#EC3596"/>
    <path d="M857.277,968.059 L852.918,964.477 C855.227,955.254 845.496,947.316 854.207,939.383 C857.277,948.09 859.074,958.078 857.277,968.059" fill="#FFEFD9"/>
    <path d="M855.477,1038.227 C849.852,1040.523 843.699,1042.062 837.57,1043.098 C836.273,1035.406 839.102,1033.098 832.176,1027.207 C815.273,1027.969 807.855,1047.195 792.238,1052.305 C776.105,1058.711 755.879,1068.953 738.719,1057.938 C755.109,1052.305 771.238,1040.777 782.242,1027.727 C802.984,1032.586 817.324,1015.688 833.988,1007.5 L845.766,998.801 C846,1013.125 854.207,1024.391 855.477,1038.227" fill="#EC3596"/>
  </g>
</svg>
