<svg version="1.2" xmlns="http://www.w3.org/2000/svg" viewBox="0 0 61 31" width="61" height="31"><style>.a{fill:#e0c000}.b{fill:#c0d030}</style><path  d="m47.4 30.1c-0.7 0-1.1 0-1.6-0.1-2.3-0.3-4.4-1-5.8-2-0.4-0.3-0.9-0.8-1.1-1.1q-0.6-0.8-0.8-1.7c0-0.2 0-0.7 0.1-0.9 0-0.2 0-0.2 0-0.4-0.1-0.2-0.1-0.6-0.1-0.8q0.1-0.4 0.2-0.7c0-0.1 0.1-0.2 0.1-0.2 0 0-0.1 0-0.3 0.1-0.5 0.1-1.2 0.3-1.8 0.3-0.2 0-0.3 0-0.3 0q0 0 0 0.2c0.1 0.3 0.1 0.7 0 1 0 0.1 0 0.1 0 0.2q0.2 0.7-0.1 1.4c-0.1 0.5-0.4 0.9-0.8 1.3-1.2 1.2-3.2 2-5.6 2.3-0.7 0.1-1.1 0.1-1.8 0.1-1.3 0-2.4-0.1-3.5-0.4-2.9-0.7-4.7-2.1-5-3.8q0-0.1 0-0.1 0 0-0.2 0c-0.5 0.2-1.1 0.5-1.7 0.6-0.3 0.1-0.3 0.1-0.4 0.2-1.1 0.9-2.6 1.5-4.3 1.9-1.5 0.3-3.2 0.3-4.7 0-2-0.3-3.6-1.1-4.5-2.3-0.2-0.2-0.3-0.4-0.5-0.7q-0.4-0.9-0.3-1.9c0-0.1 0-0.2 0-0.3q-0.2-1.4 0.8-2.7l0.1-0.2v-0.2q-0.1-0.7 0.1-1.4c0.2-0.6 0.5-1.1 0.8-1.6 1-1.4 2.9-2.6 5.2-3.3q1.8-0.6 4-0.7c0.3 0 0.3 0 0.2 0-0.5-0.2-0.9-0.3-1.2-0.5-1.5-0.6-2.4-1.4-2.6-2.4-0.1-0.3-0.1-0.6 0-0.8 0-0.2 0-0.3 0-0.5 0-0.2-0.1-0.6 0-0.8 0.1-0.8 0.7-1.5 1.7-2.1 2.6-1.5 7.2-1.7 10.4-0.5 1.1 0.5 2 1.1 2.4 1.8q0.1 0.1 0.1 0.2c0 0 0.1-0.1 0.2-0.1 0.8-0.4 1.9-0.7 3-0.9 0.7-0.1 1.1-0.1 1.9-0.1 1 0 1.6 0 2.5 0.1 0.3 0.1 0.9 0.2 1 0.2 0 0 0 0 0.1-0.1 0.1-0.1 0.2-0.3 0.4-0.4 0.1-0.1 0.5-0.3 0.7-0.4 0.3 0 0.7-0.2 1-0.2q0.1 0 0.1 0 0.1 0 0.1-0.1c0.4-1 2-1.4 4.6-1.3 3.4 0.3 7.5 1.5 9.8 3.1 0.5 0.3 0.7 0.5 1 0.8q0.7 0.7 0.8 1.2c0 0.2 0 0.5 0 0.6 0 0.2-0.1 0.4-0.2 0.5-0.1 0.1-0.1 0.1-0.1 0.1 0 0 0.2 0.1 0.4 0.2 1.4 0.7 2.6 1.6 3.6 2.7 0.7 0.7 1.2 1.5 1.6 2.3 0.3 0.7 0.5 1.5 0.4 2.2 0 0.7-0.2 1.3-0.5 1.9-0.1 0.1-0.2 0.2-0.2 0.3q-0.2 0.6-0.5 1.1l-0.1 0.2 0.1 0.1c0.2 0.1 0.6 0.6 0.8 0.7 0.6 0.9 0.9 1.7 0.7 2.7 0 0.1 0 0.2 0 0.3 0.1 0.2 0.1 0.7 0.1 0.9-0.1 0.5-0.3 0.9-0.5 1.3-0.4 0.5-0.9 1.1-1.5 1.5-0.5 0.4-1.3 0.8-2.1 1.1q-2 0.8-4.6 1c-0.3 0-1.6 0-1.8 0z"/><path class="a" d="m40.6 17.8c0.2 0 0.3 0 0.3 0q0 0-0.1-0.1c-0.2-0.3-0.5-0.8-0.7-1.2-0.5-0.7-0.7-1.5-0.8-2.2q0-0.1 0-0.1c0 0-0.6-0.1-1-0.2-2.3-0.6-4.5-1.5-6-2.4-0.3-0.2-0.6-0.4-0.7-0.5v-0.1l-0.2 0.1c-1.3 0.2-2.2 0.7-2.6 1.2q-0.3 0.5-0.1 1.2c0.2 0.5 0.8 1.1 1.6 1.7 2 1.4 5.3 2.5 8.5 2.6 0.4 0 1.4 0 1.8 0zm-0.4 1.3c0.4 0 0.8-0.1 1.1-0.1 0.2-0.1 0.6-0.1 0.6-0.1q0-0.1-0.1-0.2l-0.1-0.1h-0.2c-1.2 0.2-2.7 0.2-4.2 0-3.1-0.4-6.1-1.5-7.9-3-0.3-0.2-0.6-0.5-0.8-0.7-0.1-0.1-0.1-0.1-0.1-0.1-0.1 0 0 0.2 0.1 0.3 0.2 0.3 0.5 0.7 0.9 1 1.5 1.3 4.2 2.4 7 2.8 0.7 0.1 1.3 0.2 2.2 0.2 0.2 0 1.3 0 1.5 0zm12.2 1.1q1.9-0.1 3-1c0.2-0.1 0.6-0.5 0.7-0.7 0.1-0.2 0.3-0.5 0.4-0.7 0.5-1.7-0.5-3.8-2.6-5.6-2.7-2.2-6.5-3.4-9.5-3-2 0.3-3.3 1.3-3.6 2.7 0 0.2 0 0.4 0 0.7 0 0.3 0 0.4 0 0.7 0.4 2 2.5 4.1 5.2 5.5 1.6 0.8 3.3 1.3 5 1.4 0.3 0.1 1.1 0.1 1.4 0zm-0.6 1.3q1.4-0.1 2.4-0.6c0.2-0.1 0.4-0.2 0.4-0.2 0 0-0.1 0-0.2 0q-1.2 0.4-2.7 0.4c-0.9 0-1.6 0-2.5-0.2-4-0.8-7.6-3.4-8.9-6.3 0-0.1-0.1-0.2-0.1-0.2 0 0 0.1 0.4 0.1 0.5 0.6 1.9 2.5 3.9 5.1 5.2q2.4 1.2 5 1.4c0.3 0.1 1.1 0 1.4 0zm-37.9 2.3c2.4-0.2 4.5-0.8 6.2-1.8 1.2-0.7 2.1-1.6 2.5-2.5 0.4-0.8 0.5-1.6 0.3-2.3-0.3-0.9-1-1.8-2-2.4-2.3-1.6-6.1-2.1-9.6-1.4-2.7 0.5-5 1.8-6.2 3.3q-0.2 0.3-0.4 0.7c-0.7 1.5-0.3 3 1.1 4.2 0.7 0.7 1.6 1.2 2.8 1.5 1 0.4 2.1 0.6 3.4 0.7 0.3 0 1.5 0 1.9 0zm0 1.3c2.7-0.2 5.2-1 6.9-2.3 0.5-0.3 0.9-0.7 1.2-1.1 0 0-0.1 0.1-0.2 0.2-1.6 1.4-4.2 2.4-6.9 2.7-0.7 0.1-1.2 0.1-2 0.1-1.2 0-2.1-0.1-3.1-0.3-1.8-0.4-3.4-1.1-4.5-2q-0.2-0.2-0.1 0c0.1 0.1 0.5 0.5 0.7 0.7 1.4 1.1 3.6 1.8 6.1 2 0.3 0 1.5 0 1.9 0z"/><path class="a" d="m29.7 10.6c0.3-0.1 0.6-0.2 0.9-0.3 0.1 0 0.2 0 0.2 0q0-0.1-0.1-0.2-0.3-0.5-0.3-0.9 0-0.5 0.3-0.9h0.1l-0.1-0.1c0-0.2 0-0.5 0.1-0.6 0-0.2 0.1-0.3 0.2-0.5 0-0.1 0.2-0.3 0.4-0.4 0.1 0 0.4-0.2 0.4-0.2q0 0 0 0c0 0 0 0-0.5-0.1-0.5 0-0.9 0-1.6 0-1 0-1.6 0-2.4 0.2-0.9 0.2-1.6 0.4-2.2 0.7l-0.2 0.1v0.2c-0.1 0.3-0.1 0.4-0.1 0.5 0 0.1 0 0.1 0 0.3 0.1 0.4 0.1 0.8-0.1 1.2q0 0.2 0 0.2c0 0 0.1 0 0.3 0q1.7 0.2 3.2 0.7c0.2 0.1 0.6 0.2 0.8 0.3l0.1 0.1 0.2-0.1c0.1-0.1 0.3-0.2 0.4-0.2zm-6.4 5.2c-0.1-0.6 0.2-1.2 0.6-1.7 0.7-0.7 1.9-1.2 3.5-1.4 0.4 0 0.3 0 0.3 0 0-0.2 0.2-0.6 0.3-0.8 0.1-0.1 0.2-0.3 0.3-0.3q0-0.1 0-0.1c0 0-0.1 0-0.4-0.2-0.8-0.3-1.8-0.5-2.9-0.6-0.9-0.1-1.9-0.1-2.8 0-1.9 0.2-3.6 0.9-4.5 1.7q-0.1 0.1-0.1 0.1c0 0 0.1 0 0.3 0.1 0.7 0.1 1.6 0.4 2.2 0.7 1.4 0.6 2.5 1.5 3.1 2.4 0 0.1 0.1 0.2 0.1 0.2q0 0 0 0 0 0 0-0.1zm0.7 3.3q0.2 0 0.2 0 0 0-0.1-0.2c-0.1-0.1-0.2-0.1-0.2-0.2q-0.1-0.1-0.1 0c0 0 0.1 0.1 0.1 0.3 0 0.1 0 0.2 0 0.2q0 0 0.1-0.1zm12 1.4c0.8-0.1 1.6-0.2 2.2-0.4l0.2-0.1h-0.3c-4.2-0.3-8.3-2-10-4q-0.5-0.7-0.6-1.4c-0.1-0.3 0-0.7 0-0.9l0.1-0.1h-0.2c0 0-0.2 0.1-0.3 0.1-1.6 0.2-2.7 0.9-2.9 1.6-0.1 0.5 0.1 1 0.6 1.6 0.1 0.1 0.4 0.4 0.6 0.6 1.5 1.2 4 2.3 6.7 2.7 0.9 0.2 1.5 0.2 2.5 0.3 0.2 0 1.2 0 1.4 0zm-0.1 1.3c1.6-0.2 2.8-0.5 3.5-1.1 0.1-0.1 0.2-0.3 0.2-0.3 0 0-0.2 0.1-0.3 0.2-0.5 0.2-0.9 0.4-1.5 0.5-2.1 0.5-5 0.3-7.8-0.4-2.4-0.7-4.4-1.7-5.6-2.9l-0.2-0.2 0.1 0.1c0.2 0.4 0.7 0.9 1.2 1.3 0.7 0.5 1.7 1.1 2.7 1.5 1.4 0.5 3 0.9 4.6 1.1 0.6 0.1 0.9 0.1 1.6 0.2 0.2 0 1.2 0 1.5 0zm-7.6 5.1c2-0.1 3.9-0.6 5.2-1.4 0.4-0.2 0.6-0.4 0.9-0.7 0.3-0.2 0.4-0.4 0.6-0.7q0.3-0.7 0.1-1.3v-0.1h-0.4c-0.6 0-1.1-0.1-1.6-0.1-2.4-0.3-4.7-0.9-6.6-1.9-0.4-0.2-0.7-0.4-1.1-0.7-0.2-0.1-0.3-0.2-0.4-0.2-0.1 0-1 0.3-1.2 0.3q0 0 0 0.1c0 0.1-0.1 0.4-0.2 0.6-0.4 1.2-1.5 2.4-3 3.3l-0.2 0.1c0.2 0.3 0.5 0.7 0.8 0.9 0.7 0.6 1.8 1.1 3 1.4 1.2 0.3 2.7 0.5 4.1 0.4zm20.9 1q2.3-0.2 4.1-0.8 1.8-0.7 2.7-1.7 0.5-0.4 0.7-0.9c0.1-0.2 0.2-0.4 0.2-0.6q0.3-1.2-0.8-2.3c-0.2-0.2-0.5-0.5-0.5-0.5q-0.1 0-0.2 0.1c-0.7 0.5-1.6 0.9-2.7 1.1-0.9 0.2-2 0.2-3.1 0.1-2.2-0.3-4.5-1.2-6.3-2.5-0.1-0.1-0.2-0.1-0.2-0.1-0.1 0-0.6 0.1-0.8 0.3-0.3 0.1-0.8 0.3-1.1 0.5-1.2 0.7-2 1.5-2.1 2.4-0.1 0.3-0.1 0.7 0 0.9q0.1 0.8 0.8 1.5c1.3 1.3 3.7 2.2 6.5 2.5 0.2 0 0.6 0 1 0 0.2 0.1 1.5 0 1.8 0zm-20.9 0.3c2.6-0.1 4.9-0.9 6.1-2 0.2-0.2 0.4-0.4 0.3-0.5q0 0.1-0.1 0.1c-1 0.9-2.7 1.5-4.6 1.8-0.8 0.1-1.4 0.2-2.3 0.2-0.8 0-1.2 0-2-0.1-2.1-0.3-3.9-1-5.1-1.9l-0.1-0.1 0.1 0.1c0.2 0.3 0.7 0.7 1.2 1 1.6 1 4.1 1.5 6.5 1.4zm20.9 1c1.3-0.1 2.3-0.3 3.4-0.6 1.7-0.5 3.1-1.3 3.8-2.2 0-0.1-0.1 0-0.2 0.1-0.4 0.3-0.8 0.6-1.4 0.9-1.3 0.6-2.8 1.1-4.5 1.3-0.8 0.1-1.4 0.1-2.3 0.1-0.7 0-1 0-1.6 0-2.8-0.3-5.2-1.1-6.7-2.4-0.1-0.1-0.1-0.1 0.1 0.1 0.7 0.9 2 1.6 3.6 2.1 1.2 0.4 2.5 0.6 4 0.6 0.3 0.1 1.5 0 1.8 0z"/><path fill-rule="evenodd" class="b" d="m50.5 9.2c0 0-0.1 0-0.2-0.1-0.8-0.3-1.8-0.5-2.7-0.7-1.7-0.3-3.3-0.2-4.6 0.3-0.1 0-0.2 0-0.3 0q0 0.1-0.4-0.1c-2-0.6-3.8-1.4-4.8-2.2-0.8-0.6-1.2-1.2-1.1-1.5 0.2-0.3 0.9-0.6 2-0.7 0.2 0 1.3 0 1.7 0 1.8 0.1 3.8 0.6 5.8 1.2 1.8 0.7 3.4 1.5 4.3 2.2 0.1 0.2 0.4 0.5 0.5 0.6 0.3 0.5 0.3 0.7-0.1 1q0 0-0.1 0zm-12.8 0c-1.5-0.7-2.6-1.3-3.2-1.9-0.2-0.3-0.3-0.4-0.4-0.6-0.1-0.1-0.1-0.2-0.1-0.3q0-0.1 0-0.1c0-0.1 0.2-0.2 0.3-0.3 0.2-0.1 0.5-0.3 0.8-0.3 0.1-0.1 0.2-0.1 0.3-0.1v0.1c-0.1 0.1-0.2 0.2-0.2 0.3q-0.1 0.5 0.1 1 0.4 0.8 1.7 1.7c0.3 0.2 0.7 0.5 0.9 0.6q0.2 0.1-0.2-0.1zm3.4 0.5c0 0-0.9-0.3-1.3-0.5-1.9-0.8-3.3-1.8-3.7-2.5 0-0.1-0.1-0.3-0.1-0.3 0-0.1 0.1-0.1 0.2 0.1 0.2 0.1 0.3 0.3 0.4 0.4 1 0.8 2.7 1.7 4.6 2.3 0.2 0.1 0.4 0.1 0.4 0.1q0 0.1-0.1 0.1c0 0-0.1 0.1-0.2 0.1-0.1 0.1-0.1 0.2-0.2 0.2zm-28.1 0c-1.2-0.5-1.9-1.1-2.1-1.8-0.1-0.2-0.1-0.5 0-0.6q0.1-0.4 0.5-0.8c0.9-0.9 2.6-1.5 4.7-1.7 2.7-0.3 5.5 0.3 7 1.4 0.1 0.1 0.5 0.4 0.6 0.6 0.1 0.1 0.2 0.3 0.2 0.4 0.1 0.1 0.1 0.2 0.1 0.4 0 0.2 0 0.2-0.1 0.4-0.2 0.5-0.8 1.1-1.7 1.5-1.1 0.5-2.5 0.8-4.2 0.9-1.8 0.1-3.6-0.2-5-0.7zm10.6 0.1c-0.1 0-0.1 0 0-0.1q0.2-0.1 0.1 0-0.1 0.1-0.1 0.1zm12.3 1.1c-1.5-0.6-2.8-1.3-3.5-1.9-0.4-0.3-0.6-0.7-0.7-0.9q-0.1-0.1-0.1-0.2c0-0.1 0-0.1 0.1-0.2q0.1-0.3 0.7-0.4c0.2-0.1 0.4-0.2 0.4-0.2q0 0.1 0 0.2c0 0.1-0.1 0.2-0.1 0.3 0 0.4 0.1 0.7 0.4 1.1 0.1 0.2 0.2 0.3 0.5 0.6 0.3 0.3 0.6 0.5 1.1 0.8 0.5 0.4 1.1 0.7 2 1.1 0.2 0.1-0.3-0.1-0.8-0.3zm4.1 0.5c-0.1 0-0.3-0.1-0.5-0.1-2-0.7-3.9-1.5-4.9-2.4-0.6-0.4-0.9-0.8-1-1.2v-0.1l0.2 0.2q1 1 2.9 1.9c1 0.5 2.3 1 3.3 1.2q0.1 0.1 0.2 0.1 0 0-0.1 0.1c0 0 0 0.1 0 0.2-0.1 0.1-0.1 0.1-0.1 0.1zm-22.9 0.3c-0.1 0-0.2 0-0.4 0-2.3-0.1-4.4-0.8-5.4-1.8-0.1-0.1-0.2-0.3-0.2-0.3q0 0 0.1 0.1c0.9 0.6 2.2 1.2 3.8 1.4 0.7 0.1 1.7 0.2 2.4 0.2h0.2l-0.2 0.1c0 0.1-0.1 0.2-0.2 0.2q-0.1 0.1-0.1 0.1zm22 1.6c-0.5-0.2-1.3-0.4-2-0.6-1.7-0.5-3.3-1.2-4.4-1.9-0.4-0.3-0.6-0.5-0.9-0.7-0.3-0.3-0.5-0.6-0.5-0.8v-0.1l0.1 0.1c0.9 0.9 2.8 2 5 2.7 0.8 0.3 2.1 0.7 2.8 0.8q0.2 0.1 0.2 0.1c0 0 0 0.1 0 0.1-0.1 0.1-0.1 0.2-0.1 0.3 0 0 0 0-0.2 0zm-30.5 12.1c0 0-0.1 0-0.2 0-2.5-0.4-4.3-1.5-4.8-2.9-0.1-0.4-0.2-0.8-0.1-1.2q0.1-0.2 0.1-0.1c0 0 0 0.1 0 0.2q0.3 1 1.3 1.9c0.5 0.6 1.1 1 1.9 1.4 0.5 0.3 0.9 0.4 1.5 0.6 0.2 0.1 0.4 0.1 0.3 0.1zm0.7 1.4c-1.8-0.1-3.5-0.7-4.6-1.5-0.2-0.2-0.5-0.5-0.6-0.6l-0.1-0.2 0.1 0.1q1 0.8 2.4 1.3c2 0.6 4.3 0.7 6.6 0.2 0.2-0.1 0.3-0.1 0.6-0.1q0.6 0 0.8-0.1c0.1 0 0.1 0-0.2 0.1-1.1 0.5-2.3 0.7-3.6 0.8-0.4 0-1 0-1.4 0z"/></svg>