<svg version="1.2" xmlns="http://www.w3.org/2000/svg" viewBox="0 0 476 903" width="476" height="903">
	<title>medieval-prince-publicdomainvectors</title>
	<style>
		.s0 { fill: #e39400 } 
		.s1 { fill: #ffbb00 } 
		.s2 { fill: #8abaae } 
		.s3 { fill: #f5793b } 
		.s4 { fill: #e6611e } 
		.s5 { fill: #523b2d } 
		.s6 { fill: #a9d9cd } 
		.s7 { fill: #24b591 } 
		.s8 { fill: #30bf9b } 
		.s9 { fill: #3ad1ab } 
		.s10 { fill: #ffffff } 
		.s11 { fill: #8c3604 } 
		.s12 { fill: #332d2a } 
	</style>
	<g id="publicdomainvectors.org">
		<g id="&lt;Group&gt;">
			<g id="&lt;Group&gt;">
				<path id="&lt;Path&gt;" class="s0" d="m345.6 372.1l9.5 6.1-27.3 43.2-9.6-6z"/>
				<path id="&lt;Path&gt;" class="s1" d="m312.2 405l27.5 17.4-57.6 91.1-27.4-17.4z"/>
				<path id="&lt;Path&gt;" class="s1" d="m301.1 393.2l54 34.2-5.1 8.1-54-34.2z"/>
				<path id="&lt;Path&gt;" class="s1" d="m360.1 359.7c5.2 3.3 6.8 10.1 3.5 15.3-3.3 5.2-10.1 6.7-15.3 3.4-5.2-3.2-6.7-10.1-3.5-15.3 3.3-5.1 10.2-6.7 15.3-3.4z"/>
			</g>
			<path id="&lt;Compound Path&gt;" fill-rule="evenodd" class="s0" d="m215.5 49.4l-2.8-31.8 21 23.1-6.3 13.6zm34.2 4.8l-6.3-13.6 21-23.1-2.8 31.9z"/>
			<path id="&lt;Path&gt;" class="s1" d="m238.5 7.7l-15.4 35.8-24.6-19 17 49.1 23-4.2 23.1 4.2 16.9-49.1-24.5 19z"/>
			<path id="&lt;Path&gt;" class="s2" d="m210.9 197.8h55.1l-27.6 28z"/>
			<path id="&lt;Path&gt;" class="s3" d="m218 230.5h40.8v-68h-40.8z"/>
			<path id="&lt;Path&gt;" class="s4" d="m218 162.5h40.8v41q-0.4 0-0.9 0c-21.9 0-39.9-17.9-39.9-39.9z"/>
			<g id="&lt;Group&gt;">
				<g id="&lt;Group&gt;">
					<path id="&lt;Path&gt;" class="s5" d="m319.1 837.9c-15.6-14.1-35.7-17.3-44.8-7.2-9 10.1-3.7 29.7 11.9 43.8 15.7 14.1 35.7 17.3 44.8 7.2 9.1-10.1 3.8-29.7-11.9-43.8z"/>
					<path id="&lt;Path&gt;" class="s5" d="m288.8 735.7c-16.5 0-30 13.6-30 30.1v68.4c0 16.6 13.5 30.1 30 30.1 16.6 0 30.1-13.5 30.1-30.1v-68.4c0-16.5-13.5-30.1-30.1-30.1z"/>
					<path id="&lt;Path&gt;" class="s6" d="m307.8 553.2h-37.9v209.2c0 10.4 8.5 19 18.9 19 10.4 0 19-8.6 19-19z"/>
					<path id="&lt;Path&gt;" class="s1" d="m322.2 555.5h-66.7v47.6c0 18.3 15 33.3 33.3 33.3 18.4 0 33.4-15 33.4-33.3z"/>
					<path id="&lt;Path&gt;" class="s5" d="m335.6 484.9h-93.6v89.9c0 25.7 21.1 46.8 46.8 46.8 25.8 0 46.8-21.1 46.8-46.8z"/>
				</g>
				<g id="&lt;Group&gt;">
					<path id="&lt;Path&gt;" class="s5" d="m157.7 837.9c15.7-14.1 35.7-17.3 44.8-7.2 9.1 10.1 3.7 29.7-11.9 43.8-15.7 14.1-35.7 17.3-44.8 7.2-9.1-10.1-3.7-29.7 11.9-43.8z"/>
					<path id="&lt;Path&gt;" class="s5" d="m188 735.7c16.5 0 30.1 13.6 30.1 30.1v68.4c0 16.6-13.6 30.1-30.1 30.1-16.5 0-30.1-13.5-30.1-30.1v-68.4c0-16.5 13.6-30.1 30.1-30.1z"/>
					<path id="&lt;Path&gt;" class="s6" d="m169.1 553.2h37.8v209.2c0 10.4-8.5 19-18.9 19-10.4 0-18.9-8.6-18.9-19z"/>
					<path id="&lt;Path&gt;" class="s1" d="m154.7 555.5h66.6v47.6c0 18.3-15 33.3-33.3 33.3-18.3 0-33.3-15-33.3-33.3z"/>
					<path id="&lt;Path&gt;" class="s5" d="m141.2 484.9h93.6v89.9c0 25.7-21.1 46.8-46.8 46.8-25.7 0-46.8-21.1-46.8-46.8z"/>
				</g>
			</g>
			<path id="&lt;Path&gt;" class="s7" d="m204.4 420.9h68c37.2 0 67.6 30.4 67.6 67.6 0 37.2-30.4 67.6-67.6 67.6h-68c-37.2 0-67.6-30.4-67.6-67.6 0-37.2 30.4-67.6 67.6-67.6z"/>
			<path id="&lt;Path&gt;" class="s8" d="m218.5 225.8h39.9c41.2 0 75 33.7 75 75 0 41.2-33.8 75-75 75h-39.9c-41.3 0-75-33.8-75-75 0-41.3 33.7-75 75-75z"/>
			<path id="&lt;Path&gt;" class="s5" d="m238.4 370.8c33.4 0 60.7 27.4 60.7 60.8v13.7c0 33.4-27.3 60.8-60.7 60.8-33.4 0-60.7-27.4-60.7-60.8v-13.7c0-33.4 27.3-60.8 60.7-60.8z"/>
			<g id="&lt;Group&gt;">
				<g id="&lt;Group&gt;">
					<path id="&lt;Path&gt;" class="s8" d="m157.5 321.9c31.7 0 57.5-25.8 57.5-57.4 0-31.7-25.8-57.5-57.5-57.5-31.6 0-57.4 25.8-57.4 57.5 0 31.6 25.8 57.4 57.4 57.4z"/>
					<path id="&lt;Path&gt;" class="s1" d="m126.2 317.6c17.3 0 31.3-14.1 31.3-31.3 0-17.2-14-31.3-31.3-31.3-17.2 0-31.2 14.1-31.2 31.3 0 17.2 14 31.3 31.2 31.3z"/>
					<path id="&lt;Path&gt;" class="s6" d="m112.2 276c5.7-7.8 16.6-9.4 24.3-3.8 7.8 5.7 9.5 16.6 3.8 24.4l-26.2 35.6c-19.8 27.1-33 57.9-39 90-6.1 32.2-5 65.7 3.7 98.1 2.5 9.3-3 18.9-12.3 21.4-9.3 2.4-18.9-3.1-21.3-12.4-10.1-37.4-11.4-76.2-4.4-113.5 7-37.2 22.2-72.9 45.2-104.1z"/>
					<path id="&lt;Path&gt;" class="s7" d="m36.2 559.4c-3.4-10.5-1.1-22 6-30.5l-24.4-64.1 5.1-7.2c7.5-10.4 19.5-16.6 32.3-16.9 12.8-0.3 25 5.5 32.9 15.5l-7.9 68.4 7 10.9c5.9 9.3 6 21.3 0 30.6-5.9 9.3-16.7 14.4-27.6 12.9-11-1.4-20.1-9-23.4-19.6z"/>
					<path id="&lt;Path&gt;" class="s1" d="m23 478.7l-5.2-13.9 5.1-7.2c7.5-10.4 19.5-16.6 32.3-16.9 12.8-0.3 25 5.5 32.9 15.5l-1.4 12c-7.7-7-17.8-10.9-28.4-10.6-12.8 0.2-24.7 6.5-32.2 16.9z"/>
					<path id="&lt;Path&gt;" class="s7" d="m82.6 529.6l11.5 11.9c3.7 3.8 3.6 9.9-0.2 13.6-3.7 3.6-9.8 3.6-13.5-0.2l-11.6-11.9c-3.6-3.8-3.5-9.9 0.2-13.6 3.8-3.6 9.9-3.6 13.6 0.2z"/>
				</g>
				<g id="&lt;Group&gt;">
					<path id="&lt;Path&gt;" class="s8" d="m319.3 321.9c31.7 0 57.5-25.8 57.5-57.4 0-31.7-25.8-57.5-57.5-57.5-31.6 0-57.5 25.8-57.5 57.5 0 31.6 25.9 57.4 57.5 57.4z"/>
					<path id="&lt;Path&gt;" class="s1" d="m350.6 317.6c17.2 0 31.3-14.1 31.3-31.3 0-17.2-14.1-31.3-31.3-31.3-17.2 0-31.3 14.1-31.3 31.3 0 17.2 14.1 31.3 31.3 31.3z"/>
					<path id="&lt;Path&gt;" class="s6" d="m364.6 276c-5.7-7.8-16.6-9.4-24.3-3.8-7.8 5.7-9.5 16.6-3.8 24.4l26.2 35.6c19.9 27.1 33 57.9 39.1 90 6 32.2 4.9 65.7-3.8 98.1-2.5 9.3 3 18.9 12.3 21.4 9.3 2.4 18.9-3.1 21.4-12.4 10-37.4 11.3-76.2 4.3-113.5-7-37.2-22.2-72.9-45.2-104.1z"/>
					<path id="&lt;Path&gt;" class="s7" d="m440.7 559.4c3.3-10.5 1-22-6.1-30.5l24.5-64.1-5.2-7.2c-7.5-10.4-19.4-16.6-32.3-16.9-12.8-0.3-25 5.5-32.9 15.5l8 68.4-7 10.9c-6 9.3-6 21.3-0.1 30.6 5.9 9.3 16.7 14.4 27.6 12.9 11-1.4 20.1-9 23.5-19.6z"/>
					<path id="&lt;Path&gt;" class="s1" d="m453.8 478.7l5.3-13.9-5.2-7.2c-7.5-10.4-19.4-16.6-32.3-16.9-12.8-0.3-25 5.5-32.9 15.5l1.4 12c7.7-7 17.8-10.9 28.4-10.6 12.8 0.2 24.8 6.5 32.3 16.9z"/>
					<path id="&lt;Path&gt;" class="s7" d="m394.2 529.6l-11.5 11.9c-3.7 3.8-3.6 9.9 0.2 13.6 3.8 3.6 9.9 3.6 13.5-0.2l11.6-11.9c3.7-3.8 3.6-9.9-0.2-13.6-3.8-3.6-9.9-3.6-13.6 0.2z"/>
				</g>
			</g>
			<path id="&lt;Path&gt;" class="s9" d="m238.4 307.9c29.3 0 53.2 23.9 53.2 53.2v66.4c0 29.3-23.9 53.2-53.2 53.2-29.3 0-53.2-23.9-53.2-53.2v-66.4c0-29.3 23.9-53.2 53.2-53.2z"/>
			<path id="&lt;Path&gt;" class="s6" d="m201.7 227.7l9.2-29.9 27.5 28-14.2 37.4z"/>
			<path id="&lt;Path&gt;" class="s6" d="m275.2 227.7l-9.2-29.9-27.6 28 14.3 37.4z"/>
			<path id="&lt;Path&gt;" class="s3" d="m198.5 84.2h79.8v67.2c0 22-18 39.9-39.9 39.9-21.9 0-39.9-17.9-39.9-39.9z"/>
			<path id="&lt;Path&gt;" class="s10" d="m253.3 160c0 8.2-6.7 14.9-14.9 14.9-8.2 0-14.9-6.7-14.9-14.9z"/>
			<path id="&lt;Path&gt;" class="s11" d="m278.3 129.1l11.4-44.9c2.7-10.4-1.9-21.3-11.2-26.7-9.2-5.4-21-3.9-28.7 3.6h-48.1c-5.5 0-10.6 2.9-13.2 7.8-2.7 4.8-2.5 10.6 0.4 15.3l9.6 46.3 7.4-35.1c33 8.1 59.9 11.2 69.3 0z"/>
			<path id="&lt;Path&gt;" class="s11" d="m238.4 175.8c7.5 0 13.7 6.2 13.7 13.7v6.4c0 7.5-6.2 13.6-13.7 13.6-7.5 0-13.6-6.1-13.6-13.6v-6.4c0-7.5 6.1-13.7 13.6-13.7z"/>
			<path id="&lt;Compound Path&gt;" fill-rule="evenodd" class="s1" d="m229.9 473h17.1c3.3 0 6.3 1.3 8.5 3.5 2.2 2.2 3.6 5.3 3.6 8.6v16.2c0 3.4-1.4 6.4-3.6 8.6-2.2 2.2-5.2 3.6-8.5 3.6h-17.1c-3.4 0-6.4-1.4-8.6-3.6-2.2-2.2-3.5-5.2-3.5-8.6v-16.2c0-3.3 1.3-6.4 3.5-8.6 2.2-2.2 5.2-3.5 8.6-3.5zm17.1 8.7h-17.1c-1 0-1.8 0.4-2.4 1-0.6 0.6-1 1.4-1 2.4v16.2c0 1 0.4 1.8 1 2.4 0.6 0.7 1.4 1 2.4 1h17.1c0.9 0 1.7-0.3 2.4-1 0.6-0.6 0.9-1.4 0.9-2.4v-16.2c0-1-0.3-1.8-0.9-2.4-0.7-0.6-1.5-1-2.4-1z"/>
			<g id="&lt;Group&gt;">
				<path id="&lt;Path&gt;" class="s11" d="m250.2 112.3l13.8 2.8c1.7 0.4 3.1 1.5 3.8 3.2 0.4 0.9 0.2 2.1-0.5 2.9-0.7 0.8-1.8 1.2-2.9 0.9-1-0.2-1.8-1-2.1-2.1l-12.5-1.3c-1.7-0.2-2.9-1.6-2.8-3.3 0.1-1.8 1.5-3.4 3.2-3.1z"/>
				<path id="&lt;Path&gt;" class="s12" d="m254.2 122.2c2.7 0 4.9 2.2 4.9 4.9v5.1c0 2.7-2.2 4.9-4.9 4.9-2.7 0-4.9-2.2-4.9-4.9v-5.1c0-2.7 2.2-4.9 4.9-4.9z"/>
				<path id="&lt;Path&gt;" class="s11" d="m226.6 112.3l-13.7 2.8c-1.7 0.4-3.2 1.5-3.8 3.2-0.4 0.9-0.2 2.1 0.5 2.9 0.7 0.8 1.8 1.2 2.8 0.9 1.1-0.2 1.9-1 2.1-2.1l12.5-1.3c1.7-0.2 3-1.6 2.9-3.3-0.1-1.8-1.6-3.4-3.3-3.1z"/>
				<path id="&lt;Path&gt;" class="s12" d="m222.7 122.2c-2.7 0-4.9 2.2-4.9 4.9v5.1c0 2.7 2.2 4.9 4.9 4.9 2.7 0 4.9-2.2 4.9-4.9v-5.1c0-2.7-2.2-4.9-4.9-4.9z"/>
			</g>
		</g>
	</g>
</svg>