<svg version="1.2" xmlns="http://www.w3.org/2000/svg" viewBox="0 0 1238 1033" width="1238" height="1033">
	<title>kär-svg</title>
	<style>
		.s0 { fill: #ff0000 } 
		.s1 { fill: #000000 } 
		.s2 { fill: #ffffff } 
	</style>
	<g id="publicdomainvectors.org">
		<g id="&lt;Group&gt;">
			<path id="&lt;Compound Path&gt;" fill-rule="evenodd" class="s0" d="m664.5 656.9c16.9 10.4 29.4 26.1 42.3 42.3 4.8 6.1 9.7 12.3 14.9 18.2 6.9 7.9 14.2 13.3 21.2 16.8-9.4 18.4-17.3 33.4-17.3 33.4 0 0-50.2 36.1-83.9-12.3 17.1 2.4 30.4 1.7 42.2-1.9 20-6 10-18 6-28-4-10-4-14-20-20-16-6-12 8-6 4 6-4 4 4 10 12 6 8-12 8-12 8-33.3 4.8-23.8-37.1 2.6-72.5zm-506.8-55.5c-34.2-47.9-61-99.7-75.8-154.7-36.8-136.8 8.9-270.5 113.5-332.8 39-23.2 81.9-34.5 126.9-34.5 89.9 0 188.1 45.4 280 132.8l21.7 20.6 20.7-21.7c158.2-166.2 312.8-167 404.7-112.5 102.9 61.1 146 192.9 105 320.7-15.8 49-39 95.5-67.2 139.2-24.3-25.9-61.3-55.1-61.3-55.1 0 0-38.6-21.3-64-28-9-2.3-14.1-4-17-5.2l3.4-3.7-4.4-2.5c-30.5-17.5-26.5-44.3-23.3-65.9 0.7-4.5 1.4-8.7 1.6-12.5 0.5-9.7 5.9-25.7 11.1-41.2 5.7-16.7 11-32.6 11.6-43.4 1.3-22.4-7-62.9-35.2-82.2-26.3-18.1-83.8-42.2-123.9-36.6-35.2 4.9-114.5 29.8-125 40.8-10 10.7-21 51-21.9 55.9-1.9 9.9-4.5 29.3-6.6 44.9-1.2 9.2-2.3 17.2-2.7 19.5-0.2 1-0.3 2.4-0.4 4.1q-0.5-1.9-1.3-3.7c-2.1-4.9-5.3-9-8.8-12.7-1.7-1.9-3.6-3.6-5.4-5.3-1.9-1.7-3.8-3.4-5.8-5q-5.3-4.4-10.8-8.6 0.1-0.1 0.1-0.2c1.5-4.2 3.2-8.3 4.4-12.9 0.5-2.2 1-4.7 0.5-7.3-0.5-2.6-2.2-5-4.1-6.5-0.9-0.9-1.9-1.5-2.9-2.2-1.1-0.5-2.2-1.2-3.2-1.6q-3-1.5-6.1-2.8c-16.5-7.3-33.1-14.1-49.1-21.8q-3.1-1.4-6.1-2.9c-42.1-42-102-57.6-118.7-58.5-65.8-3.5-110.5 17.7-140 49.8l-2.1 1.6c-1.3 1-2.6 2.2-3.9 3.3-2.7 2.3-5.4 4.5-7.9 6.8l-7.5 7.2c-2.6 2.4-4.8 5-7.2 7.5-9.4 10.2-18 21.1-25.5 32.6-7.5 11.6-14 23.9-18.9 36.8-4.8 11.9-13.8 22.2-24.4 30.2-10.6 8-22.8 14.1-35.7 17.8-6.4 1.8-13.1 3-19.8 2.9-3.4-0.1-6.8-0.6-9.9-1.8-3.1-1.2-5.9-3.5-7.2-6.7 1.1 3.3 3.9 5.8 7 7.1 3.2 1.5 6.6 2.1 10 2.4 6.9 0.5 13.7-0.5 20.4-2 13.4-3.1 26.1-8.7 37.6-16.5 11.3-7.7 21.5-18.1 27.5-31.1 5.4-12.3 12.2-23.7 20-34.6 6.4-8.9 13.6-17.3 21.2-25.2-17.9 35.1-24.9 75.3-25.7 109.9 0 1.7 0 3.4-0.1 5q-0.9 1.6-1.8 3.2c-3.6 6.6-6.8 13.4-9.4 20.5l-3.6 10.5q-1.8 5.1-3.8 10.3c-5.2 13.6-11 27-18.5 39.6-3.7 6.2-7.9 12.2-12.7 17.6-4.8 5.4-10.3 10.3-16.9 13.2-3.3 1.4-6.8 2.3-10.4 2.3-3.6 0.1-7.1-0.7-10.4-2.3-6.5-3.2-11.7-9-14.4-15.9 2.5 7 7.4 13.1 14 16.7 3.3 1.8 7 2.8 10.8 2.9 3.8 0.1 7.6-0.7 11.1-2.1 7-2.8 13-7.6 18.2-13 5.2-5.4 9.7-11.3 13.7-17.6 8.1-12.4 14.7-25.8 20.5-39.4q2.2-5.2 4.2-10.3c1.4-3.5 2.7-7 4-10.2q2.4-5.4 5.1-10.6c-1.2 69.2 0.4 87.6 0.4 87.6l-10 16c5.4-1.6 10.6-4.3 15.6-7.8-0.8 2-1.7 3.5-2.5 4.3-2.8 2.7-11.1 15.1-21.1 31.1-15.9 15-33 34.6-44.2 56.4zm457.6-222.5c1.7-2.2 3.4-4.4 5.2-6.6 3.1-4 6.2-8.1 8-13q0.3-0.8 0.5-1.6c0.2 8 0.6 16.2 0.8 17.4 0.3 2.4 2.2 3.8 6.5 6.8 2.1 1.6 6.5 4.7 7.6 6.4-0.6 2.2-1.5 6.6-2.9 13-1.9 8.6-4.1 19.3-5.7 24.1-0.2 0.3-10.3 31.4-9.4 37.7 0.7 5.2 7.8 7.1 23.7 10.2 2.8 0.5 5.7 1.1 6.6 1.4 2.3 0.9 8.6 10.1 9.6 14.6 0.9 4 3.6 6 6.5 6.9l-1.2 10.4 2.1 1.4c0.1 0 5.6 3.6 7.7 5.2q0.6 0.4 1.4 1c3.5 2.3 5.2 3.9 4.7 6.2q-0.1 0.8-0.3 1.9-0.1 0.5-0.2 1-0.1-0.1-0.1-0.1-0.1 0.6-0.2 1.3 0 0.1 0 0.2c-0.1-0.4-0.4-0.8-0.9-1q-0.1 1.2-0.1 2.7 0.6-0.2 0.8-0.8c-1.5 8.2-2.5 19.9 6.7 25 10 5.5 18.6 4.3 39.3 1.4 9.5-1.4 17.9-5.1 24.8-8.1 1.1-0.5 2.4-1 3.7-1.6q0.8-0.2 1.6-0.4-0.4 0.9-0.8 1.9 0.8-1.1 1.6-2.2 1.3-0.3 2.5-0.7 0-0.2 0-0.4c0.7-0.2 1.3-0.3 1.7-0.3 2.1 4.8 11.7 18.6 26.1 39.1 4.5 6.4 8.9 12.7 12.2 17.6l-0.9 0.8c0 0-29.5 65.2-28.9 69.2 0.3 2.3-15.9 34.5-29.9 61.9-6.4-3.1-13.1-8-19.5-15.3-5.1-5.8-10-12-14.7-18-12.7-16-25.6-32.3-43.4-43.4 3.2-4 6.7-7.9 10.3-11.6q4.5 4 9.4 7.2c6.4 4.2 13.3 7.6 20.4 10 7.1 2.4 14.5 3.9 22.1 4.3 7.6 0.4 15.5-0.3 23.4-3.5 3.8-1.6 7.7-3.9 11-7.2 0.8-0.8 1.5-1.7 2.3-2.6 0.6-0.9 1.3-1.9 1.9-2.8 0.9-1.7 1.8-3.5 2.5-5.4 1.5-3.8 2.4-7.9 2.3-12 0-4.1-0.9-8.2-2.5-11.8-1.7-3.6-4-6.8-6.9-9.4-2.9-2.6-6.4-4.6-10.3-5.5-2-0.4-4.1-0.6-6.1-0.2q-1.6 0.3-3 0.9l-2.2 1c-3 1.4-5.9 2.8-8.7 4.6-1.4 0.9-2.8 1.9-4.1 3-1.3 1.2-2.5 2.5-3.1 4.4-0.7 1.8 0.1 3.9 1.2 5.1 1.1 1.2 2.5 2.1 3.9 2.8-1.2-1-2.3-2.1-3.1-3.4-0.8-1.3-0.9-2.7-0.2-3.8 1.4-2.2 4.3-3.5 7.1-4.6 2.8-1.1 5.8-1.9 8.9-2.6l2.3-0.5c0.5-0.1 1-0.2 1.6-0.1 1.1 0 2.2 0.3 3.2 0.8 4.3 2.1 7.6 6.8 8.5 11.4 1 4.7-0.1 9.3-2.7 13.2-0.7 0.9-1.4 1.9-2.2 2.8-0.4 0.4-0.7 0.5-1 0.9l-1.1 0.7c-1.5 0.9-3.4 1.6-5.5 1.9-4.3 0.7-9.4 0.2-14.3-1.1-9.9-2.7-19.4-8.5-26.4-15.7-3-3-5.6-6.4-7.6-9.8 0.2-5.2-2.2-9.8-6.3-14l-1.7-3.9q-0.6-1.4-1.4-2.6l-1.4-2.6c-1-1.7-1.9-3.4-3-5.1l-3.2-4.7c-1.2-1.6-2.2-3.3-3.5-4.7-2.3-2.9-4.7-6-7.3-8.6l-3.8-4.1c-1.3-1.4-2.6-2.6-3.9-3.9q-1.2-1-2.3-2c1.1-0.8 2.2-1.8 3.3-2.9 7.1-7 6-28-18-36-24-8-27.2 1.9-21 1 7-1 15 3 17 9 2.5 7.6 0.5 10.7-2.4 11.9q-5.4-3.8-11-7.3-3.8-2.4-7.7-4.6c-8.2-14.1-14.6-41.3 0.1-87 9.2-28.3 3.8-47.7-6.6-62.5zm70.8 146.1q0-0.1 0-0.1 0 0 0 0.1zm0-0.1q0.1-0.1 0.1-0.2 0 0.1 0 0.1 0 0-0.1 0.1zm-133.6-243.8c-3.5-5.6-7.4-11-11.6-16 14.4 6 29 11.4 43.3 17.1q3.1 1.3 6.2 2.6c1 0.4 1.9 0.9 2.9 1.4 0.8 0.5 1.8 1 2.5 1.6 1.5 1.3 2.7 2.8 3.1 4.6 0.4 1.8 0.2 3.9-0.2 6-0.9 3.9-2.4 7.9-3.7 12q-5.3-4.2-10.8-8.2c-8-5.9-16.3-11.6-24.9-16.9q-3.3-2.2-6.8-4.2zm39 73.9c-0.1-1.3-0.3-2.6-0.4-3.9-0.2-4.5-0.2-8.9 0.2-13.3q0.5-6.7 2.1-13.2c0.6-2.7 1.4-5.4 2.2-8.1q5 3.6 9.9 7.3c1.9 1.6 3.8 3.1 5.7 4.7 1.8 1.6 3.7 3.2 5.4 5 3.4 3.4 6.6 7.1 8.6 11.4 2 4.3 2.5 9.1 1 13.6-1.5 4.5-4.4 8.6-7.3 12.5-1.6 2.2-3.2 4.3-4.7 6.4-6.5-8.8-14.8-16-22.7-22.4zm-25.5-45.1c-0.5-2.1-1.1-4.3-2.1-6.5-1.6-4-3.4-7.9-5.3-11.6q11.6 6.8 22.7 14.5 6.3 4.3 12.3 8.7c-0.8 3-1.6 6.1-2.2 9.2q-1.3 6.7-1.6 13.5c-0.2 4.5-0.1 9 0.4 13.5 0.1 1 0.2 2 0.4 3-9.6-7.7-18.4-14.4-22.7-21.8l-0.4 0.1q-0.2-1-0.2-2.8c0-4.3 0.7-11.7-1.2-19.7q0.9-0.2 1.8-0.6-0.9 0.3-1.9 0.5zm56 473.3l5 5.4 8.9 9.7c-4.8-4.7-9.5-9.8-13.9-15.1z"/>
			<path id="&lt;Compound Path&gt;" fill-rule="evenodd" class="s1" d="m1211.5 437.6c-26 80.8-72.2 161.4-137.4 239.5-51.8 62-115.7 122.7-190 180.4-30.3 23.6-60 44.8-87.7 63.6q0.2 0.2 0.3 0.4l-3.5 1.9q-0.1-0.1-0.1-0.1c-81.1 54.5-144.7 86.9-157.4 93.3l-12.2 7.7-14.6-6.4c-5-2.1-124.4-54.6-256.4-148.5-78-55.4-144.1-113.8-196.4-173.6-66.4-76-110.9-154.6-132.1-233.6-22-81.9-19.6-163.5 7-236 25.5-69.5 73-127.7 133.8-163.8 65.5-39 142.5-51.6 222.8-36.4 80 15.1 158.8 56.4 234.3 122.8 74.3-72.2 152.9-117.7 234-135.2 80.4-17.5 157.9-5.9 224.2 33.5 60.2 35.7 106.7 93.1 130.9 161.4 25.4 71.8 25.6 151 0.5 229.1zm-162.1-338.9c-91.9-54.6-246.5-53.8-404.7 112.4l-20.7 21.7-21.7-20.6c-91.9-87.4-190.1-132.8-280-132.8-45 0-87.9 11.3-126.9 34.5-104.6 62.3-150.3 196-113.5 332.8 14.8 55 41.6 106.8 75.8 154.7 11.2-21.8 28.3-41.4 44.2-56.4 14.9-14 28.8-23.9 36-27.6 3.2-1.5 6.9-2.7 10.8-3.5 21.3-16.1 46.2-39.5 62.3-74.9 0.1-0.1 3.8-7.8 11.3-19.4q-5.3 1.2-10.5 1.9c-12.7 10.6-28.8 20.1-41.8 24.7-8 21.3-24.2 49-44.5 63.4-5 3.5-10.2 6.2-15.6 7.8l10-16c0 0-1.6-18.4-0.4-87.6q-2.7 5.2-5.1 10.6c-1.3 3.2-2.6 6.7-4 10.2q-2 5.1-4.2 10.3c-5.8 13.6-12.4 27-20.5 39.4-4 6.3-8.5 12.2-13.7 17.6-5.2 5.4-11.2 10.2-18.2 13-3.5 1.4-7.3 2.2-11.1 2.1-3.8-0.1-7.5-1.1-10.8-2.9-6.6-3.6-11.5-9.7-14-16.7 2.7 6.9 7.9 12.7 14.4 15.9 3.3 1.6 6.8 2.4 10.4 2.4 3.6-0.1 7.1-1 10.4-2.4 6.6-2.9 12.1-7.8 16.9-13.2 4.8-5.4 9-11.4 12.7-17.7 7.5-12.5 13.3-25.9 18.5-39.5q2-5.2 3.8-10.3l3.6-10.5c2.6-7.1 5.8-13.9 9.4-20.5q0.9-1.6 1.8-3.2c0.1-1.6 0.1-3.3 0.1-5 0.8-34.6 7.8-74.8 25.7-109.9-7.6 7.9-14.8 16.3-21.2 25.2-7.8 10.9-14.6 22.3-20 34.6-6 13-16.2 23.4-27.5 31.1-11.5 7.8-24.2 13.4-37.6 16.5-6.7 1.5-13.5 2.5-20.4 2-3.4-0.3-6.8-0.9-10-2.4-3.1-1.3-5.9-3.8-7-7.1 1.3 3.2 4.1 5.5 7.2 6.7 3.1 1.2 6.5 1.7 9.9 1.8 6.7 0.1 13.4-1.1 19.8-2.9 12.9-3.7 25.1-9.8 35.7-17.8 10.6-8 19.6-18.3 24.4-30.2 4.9-12.9 11.4-25.2 18.9-36.8 7.5-11.5 16.1-22.4 25.5-32.6 2.4-2.5 4.6-5.1 7.2-7.5l7.5-7.2c2.5-2.3 5.2-4.5 7.9-6.8 1.3-1.1 2.6-2.3 3.9-3.3l2.1-1.6c29.5-32.1 74.2-53.3 140-49.8 16.7 0.9 76.6 16.5 118.7 58.5q3 1.5 6.1 2.9c16 7.7 32.6 14.5 49.1 21.8q3.1 1.3 6.1 2.8c1 0.4 2.1 1.1 3.2 1.6 1 0.7 2 1.3 2.9 2.2 1.9 1.5 3.6 3.9 4.1 6.5 0.5 2.6 0 5.1-0.5 7.3-1.2 4.6-2.9 8.7-4.4 12.9q0 0.1-0.1 0.2 5.5 4.2 10.8 8.6c2 1.6 3.9 3.3 5.8 5 1.8 1.7 3.7 3.4 5.4 5.3 3.5 3.7 6.7 7.8 8.8 12.7q0.8 1.8 1.3 3.7c0.1-1.7 0.2-3.1 0.4-4.1 0.4-2.3 1.5-10.3 2.7-19.5 2.1-15.6 4.7-35 6.6-44.9 0.9-4.9 11.9-45.2 21.9-55.9 10.5-11 89.8-35.9 125-40.8 40.1-5.6 97.6 18.5 123.9 36.6 28.2 19.3 36.5 59.8 35.2 82.2-0.6 10.8-5.9 26.7-11.6 43.4-5.2 15.5-10.6 31.5-11.1 41.2-0.2 3.8-0.9 8-1.6 12.5-3.2 21.6-7.2 48.4 23.3 65.9l4.4 2.5-3.4 3.7c-0.4 0.4-36.2 39.7-59.1 63.1-7.7 7.8-16.8 15.9-25.7 23.7-17.5 15.4-35.7 31.3-41.5 45l-0.4-0.2c0.5 1 0.8 2.4 1 4.2 4.8-3.1 12.1-7.6 21.2-13.3 27.5-17.2 65.3-40.8 82.8-52.2 27.8-18.1 83.3-34.9 96.5-38l0.5 1.9c-13.2 3.2-68.3 19.8-95.9 37.7-3.6 2.4-8.2 5.4-13.4 8.7 52-23.3 139.9-0.2 140.8 0.1h0.2l0.2 0.2c23.5 21.2 49.8 42.6 53.1 41.6 0 0-0.1 0.1-0.1 0.2l1.2 0.1c1-1 1.6-1.6 1.6-1.6 1.1-7-8.1-19.5-20.7-32.9 28.2-43.7 51.4-90.2 67.2-139.2 41-127.8-2.2-259.6-105-320.6zm-800.8 345.4c-0.2-4 0.4-8 1.6-11.8 2.3-7.6 6.3-14.7 10.8-21.2 9.1-13.2 20.4-24.6 32.5-35.1 12.2-10.3 25.1-19.8 38.9-27.8 6.9-4 14.1-7.6 21.4-10.6 7.4-2.9 15-5.3 22.7-6.3 3.8-0.4 7.7-0.5 11.4 0.1q6 1 12 1.8 3.4 0.4 6.9 0.9 1.5 0.2 3 0.3 7.1 0.9 14.2 1.5c11.7 1.1 23.5 2 35.2 2.5q6.5 0.3 13.1 0.5 0.5 0 1.1 0c-7.7 4.9-15.3 9.8-22.8 14.9q-1.2 0.8-2.4 1.7c-6 4.7-13 9.7-20.7 14.9q-2.3 1.8-4.5 3.5c-4.5 3.6-8.8 7.3-13.1 11-4.2 3.7-8 7.9-11.5 12.2-7.1 8.8-13.1 18.6-18.6 28.6-5.4 10-10.3 20.4-14.8 30.9-8.7 20.2-16.1 41-22.3 62.2q8.1-32.2 20.1-63.2c4.1-10.7 8.7-21.3 13.8-31.7 5.2-10.3 11-20.4 18-29.8q2.4-3.3 5.1-6.5c-23.6 13.4-50.2 25.4-74.4 31.3-8.3 12.5-12.3 20.8-12.3 21-15.5 34.1-39.2 57.1-59.9 73.2 25.5-3.6 59.9 4.8 59.9 4.8 7.7 0.9 17.2 2 29 3.4q0.4-1.3 0.7-2.5-0.3 1.2-0.6 2.5 0 0-0.1 0 0 0 0 0 0 0 0 0 4.9 0.5 10.3 1.2 3.5 0.4 6.9 1c4.2-5.9 16.5-18.8 23.6-17.1q0.3 0.1 0.5 0.3c-10.8-18.3-14.3-34.7-14.3-35.1l1.9-0.4c0.1 0.5 4.4 21 18.8 41.6 2.2 2.8 4.9 6.5 8.1 10.3 11.1 12.5 26.4 23.6 47.3 28.6 8.3-2 8-17.5 14.8-24.3 8-8 16 0 26-8 2.4-1.9 3.9-3.4 4.8-4.7q-0.7 0.2-1.6 0.2-0.4 0-0.7 0c-3.1-0.3-7.7-2.4-11.4-11.1l0.8-0.7c2.9 6.6 7.1 8.8 9.3 9.5 1.6 0.5 3.7-0.5 4.9-1.2 0.2-2.2-0.7-4.3 0-7.9-5.2-5.2-15.6-15.6-17.1-17.1-4-4-2-4 4 0 9.6 6.4 20.1 9.3 22.8 12.2q0.2-0.6 0.2-1.2c0-2 4-14 4-14 0 0 24 4 24 0 0-4-1-51 1-53 2-2 7-7 15-9 14-17.8 15-68.4 9.1-86.6q-2.8 0.1-6.2 0.3c6.4-1.2 12.7-2.7 18.5-5.4q0 1.8 0.2 2.8l0.4-0.1c4.3 7.4 13.1 14.1 22.7 21.8-0.2-1-0.3-2-0.4-3-0.5-4.5-0.6-9-0.4-13.5q0.3-6.8 1.6-13.5c0.6-3.1 1.4-6.2 2.2-9.2q-6-4.4-12.3-8.7-11.1-7.7-22.7-14.5c1.9 3.7 3.7 7.6 5.3 11.6 1 2.2 1.6 4.4 2.1 6.5-7.9 2.1-16.2 2.6-24.3 2.5-8.9 0-17.7-0.8-26.5-1.9q-6.5-0.8-13-1.8-1.6-0.3-3.2-0.5c-12.1-1.9-24.1-4.3-36.1-6.8q-2.1-0.5-4.1-0.9-1.3-0.3-2.5-0.6-22.7-4.9-45.3-10c-8.6-2-17.3-3.9-26-5.6-8.7-1.8-17.5-3.5-26.5-4.2-17.9-1.5-36.2 0.4-53.3 5.9-17.1 5.4-33.2 14.3-46.4 26.6-13.2 12.1-23.6 27.3-29.8 44.2-4.2 11.8-6.3 24.2-6.3 36.7q0.4-0.6 0.8-1.3c0.1-3.1 0.3-6.2 0.7-9.2 1.2-8.8 3.4-17.4 6.6-25.5 6.4-16.4 16.9-31.1 30.1-42.6 13.1-11.6 28.7-20.3 45.4-25.5 16.7-5.2 34.4-6.9 51.9-5.3 8.7 0.6 17.3 2.2 26 3.9 8.7 1.7 17.4 3.5 26 5.4 14.2 3.1 28.4 6.3 42.7 9.1q1.3 0.3 2.6 0.5 3.4 0.7 6.8 1.4c11.6 2.2 23.2 4.2 34.8 5.9q4.2 0.6 8.5 1.1 4.7 0.6 9.4 1c8.9 0.8 17.8 1.3 26.7 1.1q6-0.2 12-0.9 0.6 0 1.3-0.1 0.9-0.1 1.8-0.3c3.1-0.5 6.2-1.2 9.3-2.2 1.9 8 1.2 15.4 1.2 19.7-3.5 1.4-7.2 2.4-10.9 3.1-3.9 0.9-7.9 1.4-11.9 1.9q-4.1 0.5-8.3 0.8-7.8 0.6-15.7 0.9c-5.4 0.1-10.9 0.2-16.4 0.2q0.3-0.1 0.6-0.2-4 0.1-7.9 0.2-9.5-0.1-18.9-0.6-2.8-0.1-5.5-0.2-4.4-0.2-8.7-0.5c-13.2-0.7-26.3-1.6-39.4-3q-5-0.5-9.9-1.1-1.5-0.1-3-0.3-5.5-0.7-10.9-1.5-6-0.8-11.9-1.8c-4.2-0.8-8.5-0.7-12.6-0.2-8.3 1-16.1 3.6-23.6 6.7-7.6 3.1-14.8 6.9-21.8 11-14 8.2-27.1 17.8-39.2 28.6-11.9 10.9-23.2 22.7-32.1 36.3-4.3 6.8-8.1 14.1-10.2 22-1 4-1.5 8.1-1.1 12.1 0.3 4.1 1.7 8 3.9 11.3-2-3.4-3.2-7.3-3.3-11.3zm379.9-84.8c-1.8 4.9-4.9 9-8 13-1.8 2.2-3.5 4.4-5.2 6.6 10.4 14.8 15.8 34.2 6.6 62.5-14.7 45.7-8.3 72.9-0.1 87q3.9 2.2 7.7 4.6 5.6 3.5 11 7.3c2.9-1.2 4.9-4.3 2.4-11.9-2-6-10-10-17-9-6.2 0.9-3-9 21-1 24 8 25.1 29 18 36-1.1 1.1-2.2 2.1-3.3 2.9q1.1 1 2.3 2c1.3 1.3 2.6 2.5 3.9 3.9l3.8 4.1c2.6 2.6 5 5.7 7.3 8.6 1.3 1.4 2.3 3.1 3.5 4.7l3.2 4.7c1.1 1.7 2 3.4 3 5.1l1.4 2.6q0.8 1.2 1.4 2.6l1.7 3.9c4.1 4.2 6.5 8.8 6.3 14 2 3.4 4.6 6.8 7.6 9.8 7 7.2 16.5 13 26.4 15.7 4.9 1.3 10 1.8 14.3 1.1 2.1-0.3 4-1 5.5-1.9l1.1-0.7c0.3-0.4 0.6-0.5 1-0.9 0.8-0.9 1.5-1.9 2.2-2.8 2.6-3.9 3.7-8.5 2.7-13.2-0.9-4.6-4.2-9.3-8.5-11.4-1-0.5-2.1-0.8-3.2-0.8-0.6-0.1-1.1 0-1.6 0.1l-2.3 0.5c-3.1 0.7-6.1 1.5-8.9 2.6-2.8 1.1-5.7 2.4-7.1 4.6-0.7 1.1-0.6 2.5 0.2 3.8 0.8 1.3 1.9 2.4 3.1 3.4-1.4-0.7-2.8-1.6-3.9-2.8-1.1-1.2-1.9-3.3-1.2-5.1 0.6-1.9 1.8-3.2 3.1-4.4 1.3-1.1 2.7-2.1 4.1-3 2.8-1.8 5.7-3.2 8.7-4.6l2.2-1q1.3-0.6 3-0.9c2-0.4 4.1-0.2 6.1 0.2 3.9 0.9 7.4 2.9 10.3 5.5 2.9 2.6 5.2 5.8 6.9 9.4 1.6 3.6 2.5 7.7 2.5 11.8 0.1 4.1-0.8 8.2-2.3 12-0.7 1.9-1.6 3.7-2.5 5.4-0.6 0.9-1.3 1.9-1.9 2.8-0.8 0.9-1.5 1.8-2.3 2.6-3.3 3.3-7.2 5.6-11 7.2-7.9 3.2-15.8 3.9-23.4 3.5-7.6-0.4-15-1.9-22.1-4.3-7.1-2.4-14-5.8-20.4-10q-4.9-3.2-9.4-7.2c-3.6 3.7-7.1 7.6-10.3 11.6 17.8 11.1 30.7 27.4 43.4 43.4 4.7 6 9.6 12.2 14.7 18 6.4 7.3 13.1 12.2 19.5 15.3 10.1 4.9 19.5 5.3 25.5 3.2l11.2-13.3 0.3-0.5q0 0.1 0 0.1l2-2.4 4.2-5q0 0.1 0 0.1c2-2.3 4.1-4.6 6.3-6.7 7.1-32.3 18.5-93.8 15.8-98.8-1-1.7-3-4.7-5.6-8.6-3.3-4.9-7.7-11.2-12.2-17.6-14.4-20.5-24-34.3-26.1-39.1-0.4 0-1 0.1-1.7 0.3q0 0.2 0 0.4-1.2 0.4-2.5 0.7-0.8 1.1-1.6 2.2 0.4-1 0.8-1.9-0.8 0.2-1.6 0.4c-1.3 0.6-2.6 1.1-3.7 1.6-6.9 3-15.3 6.7-24.8 8.1-20.7 2.9-29.3 4.1-39.3-1.4-9.2-5.1-8.2-16.8-6.7-25q-0.2 0.6-0.8 0.8 0-1.5 0.1-2.7c0.5 0.2 0.8 0.6 0.9 1q0-0.1 0-0.2 0.1-0.7 0.2-1.3 0 0 0.1 0.1 0.1-0.5 0.2-1 0.2-1.1 0.3-1.9c0.5-2.3-1.2-3.9-4.7-6.2q-0.8-0.6-1.4-1c-2.1-1.6-7.6-5.2-7.7-5.2l-2.1-1.4 1.2-10.4c-2.9-0.9-5.6-2.9-6.5-6.9-1-4.5-7.3-13.7-9.6-14.6-0.9-0.3-3.8-0.9-6.6-1.4-15.9-3.1-23-5-23.7-10.2-0.9-6.3 9.3-37.4 9.4-37.7 1.6-4.8 3.8-15.5 5.7-24.1 1.4-6.4 2.3-10.8 2.9-13-1.1-1.7-5.5-4.8-7.6-6.4-4.3-3-6.2-4.4-6.5-6.8-0.2-1.2-0.6-9.4-0.8-17.4q-0.2 0.8-0.5 1.6zm57.7 165.4q0 0.1-0.1 0.2 0.1-0.1 0.1-0.1 0 0 0-0.1zm-0.1 0.3q0-0.1 0-0.1 0 0 0 0.1zm-48.7-157.9c2.8-3.7 15.5-5.5 22.9-6.5 7.3-1 33.1 3.5 44.2 10.1l-20.6-1.2c-2.2-1.7-14.2-0.1-14.2-0.1 0 0-17.5 8.1-22.2 11 3.3 3 5.5 6.2 4.3 9.7-0.5 1.5-1.7 7.3-2.9 12.9-2 9.2-4.3 19.7-6 24.9-3.3 9.8-8.4 27.9-9 33.1 1.9 1 6.1 2 10.2 2.9 4.4-2.9 17.8-5.2 24.1-7.8 7.7-3.1 10.1-5.2 11.9-12.8 2 2.5 2.6 7.7 1.9 9.6-0.7 2-9.9 5.8-9.9 5.8 0 0-12.4 4.9-16.2 7.6 1.3 0.3 2.2 0.5 2.9 0.8 3.8 1.2 8 6.5 11.1 11.8 0.7 0.2 1.3 0.9 1.4 1.7q0.1 0.5 0 0.9c1.2 2.3 2 4.5 2.4 6.1 0.3 1.2 2.5 1 2.6 1l5.1-0.6-0.3 2.7c2.1-1.1 4.3-2.1 6.4-3l15.7-6.9 1.4 3.7-16.4 5.1c-2.5 0.8-4.9 1.4-7.3 2.4l-1.2 10.6c1.9 1.2 4.6 3.1 6.1 4.2q0.4 0.3 1 0.7c2 1.3 6 3.9 7.6 8.2q0.4-0.1 0.8-0.3 0.4 0.6 0.6 1.5c0.1 0.8-0.1 1.6-0.6 2.2q0 1.3-0.2 2.7-0.2 1-0.4 2.1c-0.3 1.1-0.5 2.3-0.7 3.6q0.2-0.1 0.5-0.1c1.6-0.2 3 0.9 3.2 2.4 0.3 1.6-0.8 3.1-2.4 3.3q-0.2 0-0.4 0c-0.6 0-1.1-0.2-1.6-0.5-0.2 3.3 0 6.5 1.2 8.7 0.5-0.5 1.1-0.9 1.8-1 1.6-0.2 3 0.9 3.3 2.5 0 0.7-0.1 1.3-0.4 1.9 1.7 0.7 3.5 1.1 5.4 1.4 0.5-0.4 1.1-0.8 1.8-0.9 1.1-0.1 2.2 0.3 2.9 1.2 3.3-0.1 7.2-0.5 12.2-1.1 0.2-1.6 1.5-3 3.2-3.3 1.7-0.2 3.3 0.8 4 2.3 0.7-0.1 1.5-0.2 2.2-0.3 2.9-0.4 5.7-1.1 8.4-1.9 0.5-1.7 1.9-3 3.7-3.3 1.2-0.1 2.3 0.2 3.2 0.9q1.2-0.5 2.3-1c-0.6-0.7-1.1-1.6-1.3-2.6-0.3-2.6 1.5-5 4.1-5.3 2.5-0.4 4.9 1.4 5.3 4q0 0.2 0 0.4c3.5-1.4 6.4-2.6 9-2.9 0.3-2.1 1.9-3.8 4.1-4.1 0.7-0.1 1.5 0 2.2 0.2q1.1-1.3 2.4-2.5-0.1-0.1-0.1-0.2c-0.3-2.4 1.4-4.7 3.8-5q0.7-0.1 1.4 0 1-1 2.1-2 0.7-0.6 1.3-1.2c-0.1-2.1 1.4-4 3.5-4.3q0.6 0 1.2 0.1 2-1.7 3.9-3.3c-0.3-2 1.2-4 3.3-4.2q0.9-0.1 1.7 0.1l0.4-0.3 3.1-2.4q0.2-0.2 0.3-0.3-0.1-0.3-0.2-0.7c-0.3-1.9 1.1-3.6 3-3.9 0.7-0.1 1.4 0 2 0.3q0.2-0.2 0.4-0.4 1.7-1.8 3.2-3.7 0 0 0-0.1c-0.2-1.7 1-3.3 2.7-3.6q0 0 0.1 0c3-4.7 5.1-9.9 5.4-15.1-0.7-0.5-1.3-1.2-1.4-2.1-0.2-1.1 0.3-2.2 1.2-2.8-0.1-1-0.4-2.1-0.7-3.1-0.7-2.3-1.6-4.6-2.5-6.9-2-4.6-4.2-9.3-6.6-13.9q-0.5-1-1-1.9-0.4 0.2-0.9 0.2-0.2 0.1-0.4 0.1c-1.6 0-3-1.2-3.2-2.8-0.2-1.3 0.5-2.5 1.6-3.2-2.4-4.5-4.9-9.1-7.3-13.7-0.5 0.9-1.4 1.6-2.6 1.8q-0.2 0-0.5 0c-1.7 0-3.2-1.2-3.4-3-0.3-1.9 1-3.7 3-3.9q0.4-0.1 0.8 0-0.4-0.9-0.8-1.7-1.1-2.2-2.2-4.5c-1.4-0.3-2.5-1.4-2.6-2.9-0.1-0.6 0-1.3 0.2-1.9-0.8-1.8-1.6-3.5-2.4-5.3-1.2-3-2.4-5.8-3.5-8.9-0.5 0.6-1.3 1.1-2.3 1.3q-0.3 0-0.5 0c-1.9 0-3.5-1.4-3.8-3.3-0.3-2.1 1.2-4 3.2-4.3 0.7-0.1 1.4 0 2 0.3q-0.2-0.9-0.3-1.7-0.1-2.4-0.1-4.6l0.1-0.8c-0.6 0.7-1.5 1.3-2.4 1.4q-0.3 0-0.5 0c-1.9 0-3.5-1.4-3.8-3.3-0.3-2 1.1-4 3.2-4.3 1.6-0.2 3.2 0.7 3.9 2l0.5-3.5c0.3-1.4 0.6-2.7 0.9-4q0.9-4 2-7.9-0.2 0-0.3 0c-1.3 0-2.5-0.8-3.1-2-3.6 0.1-7.8-0.3-11.6-0.8q0.3 0.6 0.4 1.3c0.3 2.2-1.3 4.3-3.5 4.6q-0.3 0.1-0.6 0.1-0.5 0-0.9-0.2-0.1-0.7-0.3-1.5c-0.5-0.2-0.9-0.6-1.2-1.1q-0.2-0.8-0.3-1.7c0.1-0.6 0.3-1.1 0.7-1.5q-0.1-0.5-0.2-1c-4.2-0.7-7.2-1.4-7.2-1.4 0 0-13.3-46.1-16.4-59.8q1.3-1.1 2.7-2c2-1.3 3.9-2.7 6.1-3.7 1-0.6 2-1.2 3.1-1.7l3.2-1.6c17.5-7.9 36.8-11.1 56-12.3 19.3-1.1 38.7 0.2 57.8 2.7 19.2 2.5 38.2 6.5 56.9 11.4-18.6-5.2-37.6-9.5-56.7-12.4-19.2-2.9-38.6-4.5-58.1-3.7-19.4 0.9-39 3.7-57.1 11.6l-3.4 1.5c-1.1 0.5-2.1 1.1-3.2 1.7-2.3 1.1-4.3 2.5-6.4 3.8q-0.8 0.5-1.5 1c0-2.7 1.6-7.3 3.1-12.7 0.7-0.5 1.5-0.9 2.3-1.3 1-0.6 2-1.2 3.1-1.7l3.2-1.6c17.5-7.9 36.8-11.1 56-12.3 19.3-1.1 38.7 0.2 57.8 2.7 19.2 2.5 38.2 6.5 56.9 11.4-18.6-5.2-37.6-9.5-56.7-12.4-19.2-2.9-38.6-4.5-58.1-3.7-19.4 0.9-39 3.7-57.1 11.6l-3.4 1.5c-1 0.5-2 1-2.9 1.6 2.6-11.3 3.2-24.6-11.2-32.2q-2.1-1.1-4.2-2.1c6.8-5 14.4-9 22.4-12 8.7-3.2 17.7-5.3 26.9-6.6 18.3-2.7 37-2.1 55.5-0.2 18.5 2.1 36.8 5.8 54.8 10.5-17.9-5-36.1-9.1-54.7-11.4-18.5-2.4-37.3-3.2-55.9-0.9-9.3 1.2-18.5 3.2-27.4 6.3-8.9 3.1-17.4 7.3-24.9 13.1-15.4-5.6-32.5-4.8-43.9-2.3 1.2-3 3-5.8 5.2-8.3 3-3.6 6.6-6.6 10.5-9.3 2-1.3 3.9-2.7 6.1-3.7 1-0.6 2-1.2 3.1-1.7l3.2-1.6c17.5-7.9 36.8-11.1 56-12.3 19.3-1.1 38.7 0.2 57.8 2.7 19.2 2.5 38.2 6.5 56.9 11.4-18.6-5.2-37.6-9.5-56.7-12.4-19.2-2.9-38.6-4.5-58.1-3.7-19.4 0.9-39 3.7-57.1 11.6l-3.4 1.5c-1.1 0.5-2.1 1.1-3.2 1.7-2.3 1.1-4.3 2.5-6.4 3.8-4.1 2.8-8 5.9-11.4 9.7-2.9 3.4-5.5 7.3-6.9 11.7-3.3 1-5.9 2.1-7.4 3.2-3.1 2.1-7 1.7-9.7-0.1-5.7 13.8-10.9 32-11.8 37-1.8 9.7-4.5 29.8-6.5 44.5-1.3 9.7-2.3 17.3-2.8 19.8-0.7 3.8-0.4 15-0.1 22.4zm137.4 524.2c-12.3-10.7-46.4-32.5-73.1-48.5-3.5 3.9-8 8.6-12.1 12.8-5.8 5.9-10.7 10.8-10.7 10.8 0 0-0.9 1-2.4 2.8 10.4 3.8 25.6 9.4 41.7 15.5 14.1 5.5 28.9 11.4 41.8 16.9 4.4-2.8 9.4-6.3 14.8-10.3zm-128.3-10.6c-18.4 4.7-43.5 8.7-70.8 10-5.4 0.3-11.6 0.4-18.2 0.4-4.2 0-8.6 0-13.2-0.2l53.3 48zm-139.3-23.2c26 4 50.9 4.1 68.5 3.2 44.5-2.1 80.5-11.1 93.6-18.3q-0.6-0.4-1.2-0.8c-9.4-6.5-23.9-16.5-38-29.6-3.2 4.3-7.4 8.3-12.9 11.8-22.6 14.4-60.2 19.4-93.3 19.4-12.6 0-24.5-0.7-34.6-1.9zm167.9-10.9c-1.1-0.7-2.5-1.8-4.1-2.9-13.5 8-51.7 17-95.3 19.1-5.4 0.2-11.6 0.4-18.2 0.4-14.1 0-30.6-0.8-47.7-3.3l32.2 29c12.7 0.5 24.2 0.3 33.6-0.1 29.5-1.5 55.3-5.9 73.1-10.8zm90.2-107.4q-1 0-2 0c-6 0-13-1.4-20.3-5-7.1-3.5-14.4-8.9-21.3-16.8-5.1-5.9-10.1-12.1-14.9-18.1-12.9-16.3-25.3-32-42.3-42.4-26.3 35.5-35.8 77.3-2.5 72.6 0 0 18 0 12-8-6-8-4-16-10-12-6 4-10-10 6-4 16 6 16 10 20 20 4 10 14 22-6 28-11.8 3.5-25.1 4.2-42.2 1.8-11.9-1.7-25.5-4.9-41.8-9.8-4.3-1.3-8.3-2.8-12.1-4.4q2 2.3 4 4.6c-3.5 0.8-7.1 1.5-10.7 1.6-2.3 0.2-4.6 0.1-6.8-0.5q-3.5-4-7.1-8.1-0.6 0.7-1.2 1.4-0.5-1.1-0.7-2.2 0.3-0.4 0.6-0.7-0.4-0.5-0.9-1c-0.2-2-0.2-4.1 0-6.1q2.8 0.7 5.8 1.2 0.5 0.1 1.1 0.2-0.5-0.2-1.1-0.3-2.9-0.6-5.8-1.5 0.2-1.7 0.5-3.3c0.5-2.9 1.2-5.7 2.1-8.5 1.2-4.2 2.7-8.2 4.4-12.2 2.7-6.8 5.9-13.4 9.2-19.9l5.1-9.8 1.9-3.7 8.2-6.3 4.3-3.4 2.2-1.8c0.7-0.6 1.5-1.3 2.1-2.1 2.7-3 4.4-6.6 5.6-10.2q0.7-2.2 1.1-4.4 0.2-0.9 0.4-1.9 0.3-2.5 0.4-5.1c0.3-7.6-1.6-15.3-5.2-22.1q-1.5-2.8-3.4-5.3 1.9-1.5 3.7-3l8.8-6.7 4.3-3.4 2.2-1.8c0.7-0.6 1.5-1.3 2.1-2.1 0.5-0.6 1-1.2 1.4-1.8 1.9-2.6 3.2-5.5 4.2-8.4 1.2-3.7 1.8-7.5 1.9-11.4 0.3-7.6-1.6-15.3-5.2-22.1-3.6-6.8-8.9-12.5-15-17.1-7.4-5.5-15.8-9.3-24.5-12.2-5.5-1.8-11.2-3.2-16.8-4.3-7.2-1.4-14.3-3.2-20.9-5.9q-1.9-0.7-3.7-1.6c4.6-5.4 9.1-10.9 13.5-16.4q-7.2 8-14.4 15.9-2.5-1.3-4.7-2.8c-2.8-2-5.2-4.6-6.2-7.7-1.1-3.1-0.8-6.6 0.1-10 1-3.3 2.6-6.6 4.4-9.7 3.7-6.2 8.2-12 12.8-17.7 9.1-11.5 18.9-22.5 28-34-9.8 10.9-19.8 21.7-29.5 32.7-4.8 5.7-9.4 11.4-13.4 17.7-2 3.2-3.7 6.6-4.9 10.2-1.2 3.7-1.7 7.8-0.4 11.7 1.2 4 4 7.1 7.1 9.4q2.1 1.6 4.3 2.8c-4.2 4.7-8.5 9.4-12.7 14.3-4.8 5.6-9.4 11.3-13.4 17.6-2 3.2-3.7 6.6-4.9 10.2-1.2 3.7-1.7 7.8-0.4 11.7 1.2 4 4 7.1 7.1 9.4 3.1 2.3 6.5 4.1 10 5.5 7 2.9 14.2 4.7 21.4 6.3 7.2 1.5 14.2 3.3 20.9 5.9 6.7 2.6 13.1 5.9 18.8 10.2 3.4 2.6 6.5 5.5 9.2 8.7-3.4 3-6.8 6-10 9.1q-5.2 5-9.9 10.5-2.2-2.3-4.8-4.2c-6.1-4.6-13.3-7.5-20.7-9.1-15-3-30.2-0.9-44.5 2.7-7.1 1.7-14.2 3.1-21.4 3.5-3.6 0.3-7.1 0.1-10.5-0.5-2.7-0.5-5.3-1.5-7.4-3q-2-2.5-4-5.1c-0.8-1.6-1.3-3.4-1.6-5.3-0.5-3.4-0.5-7.1-0.2-10.6 0.7-7.2 2.3-14.4 4-21.5 3.4-14.3 7.6-28.4 10.9-42.7-4.2 14.1-8.7 28-12.7 42.2-2 7.1-3.7 14.3-4.7 21.7-0.4 3.5-0.5 7.1-0.1 10.8-10.7-13.3-22-27-32-38.5-6.1-5.6-12.8-11.7-20.6-17.4-33.8-15.5-93.9-31.9-126.8-3.3-29.9 25.9-30.8 82.4-2.7 167.9 7.8 0 14 0.3 17.5 1.5 18 6 44.3-14.4 42.3-22.4-2-8-8.3-21.6-8.3-21.6l40.3 35c47.1-3.2 106.4-22.1 130-48.2q0.8-0.8 1.4-1.6l-8.7-10.2c-4.9-6.4-11.7-15.2-19.5-25q1.1 0.3 2.2 0.6c3.8 0.7 7.6 0.9 11.4 0.7 7.5-0.4 14.8-1.8 22-3.5 7.2-1.7 14.3-3 21.5-3.5 7.1-0.5 14.4-0.2 21.3 1.2 7 1.5 13.7 4.1 19.4 8.3q2.5 1.8 4.7 4c-0.8 1.1-1.7 2.2-2.4 3.4-2.1 3.1-3.9 6.5-4.7 10.2q-0.8 2.9-0.3 5.7c0.3 2 1.1 3.8 2.3 5.3 2.4 3 5.9 4.8 9.3 6q3.3 1.2 6.6 1.8 0 0 0 0.1c-0.2 0.8-0.5 1.5-0.8 2.3l-1.2 2.5-0.6 1.2c-5.5 4.5-10.9 9.2-16 14.1-5.3 5.1-10.5 10.5-14.6 16.8q-0.3 0.3-0.5 0.7c-1.8 2.9-3.4 6.1-4.2 9.5q-0.8 2.9-0.3 5.7 0.1 0.6 0.2 1.1-1.8-2.2-3.7-4.3c-2.5 5.8-8.7 14.3-15.9 18.2-18.1 9.5-50.7 16.8-86.3 16.8-9.9 0-20.1-0.6-30.3-1.8 5.3 5.4 9 10 9.3 12.5 57.5 10.8 113.3 6.9 141.3-21q0.3 1 0.8 2c-19.1 18.6-50.5 26.5-86.4 26.5-17.1 0-35.9 0.3-54.8-0.6l51.2 61.5 11.7 10.5c39.1 5.1 100.2 1.8 129.4-16.9 5.4-3.4 9.5-7.3 12.5-11.5-7.9-7.4-15.7-15.8-22.3-25.1-6.1-8.6-17.8-22.4-31-37.6 2 0.3 4 0.2 6 0 3.6-0.3 7.1-1.2 10.6-2.2 10.9 12.7 20.3 24.1 25.8 31.7q2.1 2.9 4.4 5.8c4.3 5.4 9 10.4 13.9 15.2q0.4 0.3 0.7 0.6c14.3 13.7 29.7 24.4 39.4 31.1 3.6 2.6 6.2 4.3 8 5.8zm-568.2-54.8l14.8 12.2c-6.6-18.7-7.4-37.9-2.2-57.6 12.4-47 55.9-85.6 87.5-105.4-16.7 2.7-36.6 8.6-55.5 20.4-35.4 22.2-55.9 57.7-61.2 105.7 7.8 10 13.7 20 16.6 24.7zm121.1-159.9c-3.7 1.6-8 3.8-12.8 6.5 15.9-1.6 27.8-0.4 31.6 0.6 22.5 1 45.7 7.7 63.9 15-13.4-8.7-29.5-15.9-49.2-18.2-13.4-1.5-24.5-2.8-33.5-3.9zm-16 8.4c-31.4 18.7-77.7 58.2-90.6 106.7-5.3 20.3-4.2 40.3 3.4 59.6l23.8 19.6c13.8-0.6 27.6-1.5 38.6-1.7-28.1-86.1-26.9-143.1 3.5-169.5 12.1-10.6 27.8-15.1 44.5-16-6-0.2-14 0.1-23.2 1.3zm200.7 129.7c-23.6 26.1-82.2 45-129.4 48.7l3.6 3.1c0 0 20.7 17.2 34.4 30.9 46.9 6.3 94.5-2.2 117.8-14.5 6.9-3.7 11.5-14.7 13.2-20.8-14.9-17.8-26.7-33.2-30.4-39.4h0.1l-8.1-9.4q-0.6 0.7-1.2 1.4zm261.4 97.3c27.7-1 93-3.7 173.4-8.2 15.8-14.5 31.4-29 46.5-43-20.2 2.3-43.7 4.4-67.7 6.7-51.3 4.8-104.3 9.7-132.6 15.7-2.4 7.5-5.4 14.8-8.8 17.3-2.3 1.7-6.2 6.1-10.8 11.5zm43.5-66c63.3-46.3 172.4-37.6 228.6-34.2 25.4-24 46.2-43.8 58.7-55.8-10-0.2-22.8-0.9-36.6-1.8-32-1.9-68.2-4.1-84.2 0.3-27.4 7.7-114.8 38.2-162.3 69.7-1.6 8.8-3.1 16.5-4.2 21.8zm-21.3 34.6c29.1-5.8 80.2-10.5 129.8-15.1 25.1-2.4 49.6-4.6 70.3-7 17-15.7 33.1-30.9 47.8-44.7-64.8-3.2-194.6-5.2-247.9 66.8zm318.3-133.9c-8.6-1.6-42.7-31.9-53.7-41.9-5.4-1.3-97.9-24.7-146.5 3.6-37 21.5-65.7 63.3-82.5 88.8 35.2-32.3 101.4-59.2 131.1-68.2 36.9-11.3 74.6-20.8 100.3-14.1l-0.5 2c-25.3-6.6-62.6 2.8-99.2 14-32.7 10-109.9 47.7-140.3 84.5q-0.5 3.1-1 6.1c48.1-31.3 134.1-61.3 161.3-68.9 16.3-4.6 52.7-2.4 84.8-0.4 14.3 0.9 28.2 1.7 38.6 1.8 3.2-3.1 5.7-5.5 7.6-7.3zm-218.4-28.3c-15 9.4-31.2 19.6-44.8 28.1-9.7 6.1-17.4 14.2-22.1 19.7-0.3 9.9-2 23.9-4.1 37.7q0.8-1.3 1.8-2.8c13.8-21.2 37.8-57.9 69.2-82.7zm-72.8 28.1c7.8-14 24.1-28.4 41.3-43.5 8.8-7.7 17.8-15.6 25.3-23.3 18.7-19.1 46.2-49 55.6-59.2-6-4-10.7-8.4-14.2-13q-0.6 0.1-1.1 0-0.7 0.5-1.4 0.6c-0.1 0-0.3 0-0.4 0-1.1-0.4-2.3-1.3-3.5-2.4q-0.1-0.3-0.1-0.6-0.1-0.5 0-0.9-0.6-0.6-1.3-1.3c0.5-1.3 1.5-2.4 2.9-3q-0.9-1.7-1.7-3.5c-1.1-0.4-2-1.2-2.6-2.2q-0.4 0.8-0.8 1.7c0.8 0.7 1.4 1.7 1.5 2.9 0.2 0.9 0 1.9-0.4 2.7q-0.6-0.6-1.1-1.3-0.1 0.6-0.5 1.1-0.6-0.8-1.2-1.7-1.1 2.5-2.2 4.9c-2 4.2-3.9 8.3-6 12.4q-6.3 12.2-13.8 23.8c-4.9 7.7-10.4 15-16.2 22.1-5.7 7.1-12 13.7-18.4 20.2 6.1-6.7 12.2-13.5 17.6-20.9 5.5-7.2 10.7-14.7 15.3-22.5q7-11.7 12.8-24c1.9-4.1 3.7-8.3 5.4-12.5 1.2-2.7 2.3-5.4 3.4-8.2q-0.1 0-0.1-0.1 0-0.1 0.1-0.1 0 0 0.1 0 0.9-2.1 2-4.3l1.8 1c0-0.9 0.3-1.8 0.8-2.5q-0.8-3.4-1.3-6.9c-0.7-0.7-1.1-1.6-1.3-2.6-0.2-1.3 0.2-2.4 0.8-3.4q-0.2-3-0.1-5.9c-1.3-0.8-2.3-2.1-2.5-3.7-0.3-2.3 1-4.5 3.1-5.4q0.2-1.6 0.4-3.3-0.2 0-0.3 0.1c-2.5 0-4.7-1.9-5-4.4-0.3-2.3 1-4.5 3.1-5.3q-1.8-0.9-3.7-2 0.1 0.4 0.1 0.8c0.4 2.6-1.4 5-4 5.3q-0.3 0.1-0.6 0.1c-2.4 0-4.4-1.7-4.7-4.1-0.4-2.4 1.2-4.7 3.5-5.2q-2.8-1.7-5.7-3.6c0.6 0.6 1 1.4 1.1 2.3 0.4 2.4-1.3 4.7-3.7 5q-0.4 0.1-0.7 0.1c-2.1 0-4-1.6-4.3-3.8-0.4-2.5 1.3-4.7 3.7-5 0.8-0.1 1.5 0 2.1 0.2-4.4-3-8.8-6.5-12.5-10q-0.2 0-0.3 0.1-0.3 0-0.6 0c-2 0-3.8-1.5-4.1-3.5-0.1-0.7 0-1.3 0.2-1.9q-1.4-1.9-2.4-3.8c-0.1 1.8-1.4 3.4-3.3 3.7q-0.3 0-0.5 0c-1.3 0-2.5-0.7-3.2-1.8q-0.1-1.9-0.1-3.9c0.5-1 1.5-1.7 2.8-1.9 1.1-0.1 2.1 0.2 2.9 0.9-0.9-2.5-1.5-4.8-2-7-0.5 0.3-1.1 0.6-1.7 0.7q-0.2 0-0.4 0c-1.5 6.6-4 13-6.8 17.7-1.8 3-3.5 6.2-5.3 9.6-4.9 9.3-10 18.9-16.9 24.6-4.1 3.2-8.5 4.4-12.3 4.4q-2 0-3.7-0.4c1.2 6.5 7.1 41.2 7 54.9h-1.2q0 0.3 0.1 0.6c0.1 0.8 0.1 1.8 0.2 2.6 0 0.9-0.1 1.6-0.1 2.4-0.1 3.1-0.7 6.2-1.5 9.2-1 2.9-2.1 5.8-3.6 8.4-3 5.2-7 9.6-11.3 13.4-2.1 1.9-4.4 3.6-6.8 5.1l-6.7 4.3q-4.3 2.8-8.6 5.7-0.5 0.5-1.2 0.9-1.7 1.1-3.3 2.2c-0.8 0.5-1.5 1.1-2.3 1.6 0.1 2.2-1.5 4.2-3.8 4.6q-0.3 0-0.6 0-0.8 0-1.5-0.3-1.2 0.9-2.4 1.8 0.2 0.6 0.3 1.2c0.2 1.3-0.2 2.6-0.9 3.6q0.3 0.5 0.5 1.1c1.7 4 15.3 23.5 25.3 37.8 5.3 7.6 10.2 14.5 13.7 19.7zm-24.3-208.1c0.4 1.9 1.2 4.2 2.2 6.5q1.5 3.4 3.2 6.8 3.6 6.9 7.5 13.8c5.1 9.2 10.4 18.4 15.4 28 2.4 4.8 4.8 9.7 6.9 14.9 0.9 2.5 1.8 5 2.6 7.7-1.2-15.3-7.6-44.6-9.3-52.4q0-0.1-0.1-0.1c-1.4-1.4-1.3-2.9-0.7-3.8-0.1-1.4-1.9-5.9-3.2-9.2-2.8-6.7-5.6-13.7-4.9-17.7 1.3-7.3 9.4-9.8 9.7-9.9 0 0 8.5 2.9 15.1 6 6.5 3.2 7.4-5.1 3.4-4.5-4 0.5-15.7-10-16.2-14-0.6-4 3.7-2.6 8-1.1 4.2 1.4 12.5 2.3 16.8 3.7 4.2 1.4 1.1 8-2.1 14.5-3.1 6.6-9.4 5.4-11.1 7.7-1.7 2.3-5.7 2.8-9.1 7.4-3.5 4.5-4 0.6-6 0.8-2 0.3-1.4-9.9-1.7-11.9-0.1-0.9 0.1-2.2 0.5-3.6-1.3 1-2.9 2.8-3.4 5.6-0.5 2.8 2.5 10.2 4.7 15.5 2.6 6.6 3.9 9.9 3.3 11.8 0.6 0.4 1.7 0.9 3.5 1.1 1.8 0.3 6.7 0.4 11.5-3.4 6.3-5.2 11.2-14.4 15.9-23.3 1.8-3.5 3.5-6.7 5.3-9.8 6.4-10.7 11.2-30.8 4.6-39-5.8-7.2-21.9-18.7-36.8-10.6-13.1 7.6-1.6 10-10.7 15.2-5.8 3.3-15 4-20.4 6.8q-1.1 5.2-2 10.4c-0.9 5.2-1.6 10.4-2.2 15.5-0.5 5.1-0.9 10.4-0.2 14.6zm37.8 77.7q0 0 0 0.1 0 0 0-0.1 0 0 0 0zm-201.8-119.1c-2-4.3-5.2-8-8.6-11.5-1.7-1.7-3.6-3.3-5.4-4.9-1.9-1.6-3.8-3.1-5.7-4.7q-4.9-3.7-9.8-7.3-1.4 4-2.3 8.1-1.5 6.5-2.1 13.1c-0.4 4.5-0.4 8.9-0.1 13.4 0.1 1.3 0.2 2.6 0.4 3.9 7.8 6.4 16.1 13.6 22.6 22.4 1.6-2.2 3.2-4.3 4.7-6.4 3-3.9 5.8-8 7.3-12.5 1.5-4.5 1-9.3-1-13.6zm-26.5-46.6c0.4-2 0.6-4.1 0.2-5.9-0.4-1.8-1.5-3.4-3.1-4.6-0.7-0.6-1.6-1.1-2.5-1.7-1-0.4-1.8-0.9-2.9-1.3q-3.1-1.3-6.2-2.6c-14.3-5.7-28.9-11.1-43.3-17.1 4.2 5 8.1 10.3 11.7 16q3.4 2 6.7 4.2c8.6 5.3 16.9 11 25 16.9q5.4 4 10.8 8.2c1.2-4.1 2.7-8.1 3.6-12.1zm-126-33.5q-17.3-6.3-34.3-13.5c-11.3-4.7-22.6-9.7-34.1-14.2-11.5-4.7-23.9-7.9-36.4-8.7-12.5-0.8-25.1 0.6-37.1 4-12 3.3-23.5 8.6-33.9 15.4-2.6 1.7-5 3.6-7.5 5.4-2.4 2.1-4.8 4-7 6.1-4.6 4.2-8.6 9-12.1 14.1 7.7-9.7 17.1-17.8 27.7-23.9 10.5-6.3 21.8-11.1 33.6-14.1 11.8-2.9 24-4.2 36-3.2 12.1 0.9 23.9 4 35.2 8.6 11.4 4.4 22.7 9.4 34.2 14 11.4 4.6 23 9.1 34.7 12.9 11.7 3.9 23.6 7.3 35.7 10 11.9 2.5 23.9 4.6 36 5.7-12-2-23.8-4.4-35.5-7.6-11.9-3.1-23.6-6.9-35.2-11zm70.9 18.6q-0.1 0-0.2 0 0 0 0.1 0 0 0 0.1 0zm-272.7 160.3c11.7-4.3 25.7-12.5 37.3-21.7-12 1.4-23 0.8-32.2-2.6h-1c1.4 4.1-0.1 13.2-4.1 24.3zm-18.9 79.7c-69.6 21.7-83.2 79.1-82.1 124.5 3.1 3 6 6.3 8.7 9.6 5.7-47.7 26.5-83 61.9-105.2 20.4-12.7 42.2-18.5 59.9-20.8 5.1-3 9.7-5.5 13.9-7.4-19.1-2.3-27.9-3.3-30.1-3.6zm419.7 449.7c-7.2-9.1-33.2-28.8-50.3-43.2-6.1 6.8-11.4 12.6-15.1 16.7l44.4 39.9c4.5-2.8 12-7.5 21-13.4zm65-45.9c-20.8-6.5-62.9-14.4-95.1-19.5-4.8 5.3-9.6 10.6-14.2 15.6 13 11.9 39.8 36.7 47.7 47.6 19.4-12.6 44.3-29.5 61.6-43.7zm20-21q-1.3-0.5-2.6-1c-7.2-2.7-15.1-5.5-23.2-8.4-20-7.1-41.8-14.5-60.4-21.1-6.4 7.2-15.9 17.6-25.7 28.5 24.3 3.8 72.3 12 95.3 20.2 8.6-7.3 14.8-13.7 16.6-18.2zm79.5-64.4c-9.9-1.2-22.5-2.9-38.5-5.2-33.4-4.7-73.9-6.9-85.8-7.9-1.9 3-3.5 5.5-4.5 7.1 17.9 12 57 39.4 70.9 53 16.1-12.1 36-28.3 57.9-47zm38.6-33.6c-44.6-25.6-132.8-18.9-133.7-18.8l-0.1-0.6c-3.6 4.5-6.5 8.1-8 9.6-3.4 3.4-9.9 13.1-15.7 22 20 3.3 83.7 13.1 123 17.9 11.1-9.5 22.7-19.6 34.5-30.1zm-157.5 12.2q0 0 0 0l-0.1 0.2q0.1-0.1 0.1-0.2zm217.9-66.6c-81 4.5-146.4 7.2-172.7 8.1-6.6 8-14.3 17.8-20.3 25.4 11.3-0.7 92.1-5 134.2 19.5 19.2-17 39.1-35 58.8-53zm-711.4-347.5q-0.1 0.2-0.1 0.3c0.1 0.9 0.2 1.8 0.3 2.8-0.1-1-0.1-2-0.2-3.1zm367.4 259q0.3 0 0.7 0.1l-0.9 0.7q0.1-0.2 0.1-0.5 0.1-0.2 0.1-0.3zm-3.3-0.9c-2.2-0.6-4.4-1.2-6.4-2.1-3.4-1.4-6.6-3.3-8.7-6.1-1-1.5-1.7-3.1-1.9-4.8-0.2-1.7 0-3.5 0.4-5.2 1-3.4 2.8-6.6 4.9-9.5 0.7-1 1.5-2 2.2-2.9 2.9 3.1 5.3 6.7 7 10.6 1.4 3.2 2.4 6.6 2.9 10.1 0.4 3.3 0.4 6.8-0.4 9.9zm0.8-21.5c-1.9-4.4-4.6-8.5-7.8-12 3.1-3.6 6.5-7 10-10.2 3.3-3 6.7-5.9 10.1-8.7q1.7 2.3 3 4.8c3.4 6.1 5.2 13.2 5 20.2q-0.1 2.3-0.4 4.6-0.1 1-0.3 1.9-0.4 2-1 3.8c-1 3.3-2.6 6.5-4.8 9.1-0.5 0.7-1.1 1.2-1.7 1.8l-2.1 1.7-4.3 3.4-2.5 2.1q-0.4-0.1-0.7-0.2c1-3.7 1-7.5 0.6-11.2-0.5-3.8-1.6-7.5-3.1-11.1zm13.5-35.7c-2.9-3.5-6.2-6.6-9.7-9.4-12.3-9-27-13.6-41.4-16.5-7.1-1.4-14.2-3.2-20.9-5.8-3.3-1.4-6.5-3-9.3-5-2.8-2-5.2-4.6-6.2-7.7-1.1-3.1-0.8-6.6 0.1-9.9 1-3.4 2.6-6.6 4.5-9.7 3.6-6.3 8.1-12.1 12.7-17.8 4-5 8.2-9.9 12.3-14.9q2.3 1.2 4.6 2.1c7 2.9 14.2 4.8 21.4 6.3 5.7 1.2 11.3 2.6 16.7 4.4q2.1 0.7 4.2 1.5c6.7 2.6 13.2 6 18.9 10.2 5.6 4.3 10.6 9.6 13.9 15.8 3.4 6.1 5.2 13.2 5 20.2-0.1 3.5-0.6 7-1.7 10.3-0.9 2.9-2.2 5.6-3.9 7.9q-0.4 0.6-0.9 1.2c-0.5 0.7-1.1 1.2-1.7 1.8l-2.1 1.7-4.3 3.4-8.6 6.9q-1.8 1.5-3.6 3zm-36.3 108.6c-0.9 3.4-1.8 6.8-2.3 10.2q-0.2 1.5-0.3 3-0.9-0.3-1.8-0.7c-2.5-1-4.8-2.3-6.7-4q-1.2-1.3-2.3-2.6c-0.9-1.3-1.5-2.8-1.6-4.3-0.2-1.7 0-3.5 0.4-5.2 0.9-3 2.4-5.8 4.1-8.4q0.4-0.5 0.8-1.1c4.2-5.9 9.4-11.1 14.7-16 3.6-3.3 7.4-6.5 11.2-9.5l-3.5 7.2c-3.2 6.6-6.2 13.3-8.9 20.2-1.4 3.7-2.7 7.4-3.8 11.2zm-29.9-324.4c0 6 2 16 0 16-1.9 0-5.7-0.1-7.7-3.6-2.1 1.5-4.7 2.9-6.9 2.9q-1 0-1.8-0.4l0.3-0.7c1.7 0.9 5.1-1.4 8.1-3.9-0.2-5.2-1.3-21.6-8-28.3-8-8-18-8-22-10-4-2 12 0 18 4 6 4 20 18 20 24zm-66.1-42.4c9.1-3.6 18.3-6.8 27.3-10 7.8-0.1 15.7-0.3 23.5-0.8q5.3-0.3 10.6-0.8c-9.8 3.6-19.5 6.5-29.3 9.5-10 2.9-19.8 5.8-29.4 9.1-9.6 3.4-19.1 7.2-27.6 12.4-8.6 5.1-15.7 12.2-20.8 20.8-2.3 4.4-4.4 9-5.8 13.9l-1.2 3.6-0.8 3.7c-0.7 2.5-1.2 5.1-1.9 7.6-2.9 10.2-7.6 19.7-13.7 28.1-3.1 4.2-6.6 8.2-10.6 11.4-4.1 3.3-8.9 5.9-14.2 5.9 5.2-0.2 9.9-3.1 13.7-6.4 3.8-3.4 7-7.5 9.9-11.7 5.6-8.6 9.7-18.2 12-28 0.6-2.5 0.9-5 1.5-7.6l0.7-3.8 1-3.9c1.2-5.1 3.2-10.1 5.5-14.9 4.9-9.5 12.5-17.9 21.4-23.7 8.9-6 18.5-10.4 28.2-14.4zm45.1 129.4c0 2-6 0-10-2-2-1-3.6-3.1-5.4-5.1-2.6-1.1-4.7-2.8-6.1-4.7-0.2-0.1-0.3-0.2-0.4-0.2q0.1 0 0.3 0.1c-2-2.6-2.9-5.4-2.3-7.4 0.9-3.1 4.1-4.5 9.5-3.4l-0.2 0.7c-3.7-0.7-6.6 0.5-7.4 3.2-0.8 2.6 0.6 6.2 5.2 8.4 4.2 1.3 9.6 3.2 10.8 4.4 2 2 6 4 6 6zm-21.9-12q-0.1 0-0.1 0 0 0 0.1 0zm19.7-53.5c2.4 1.9 5.3 3.9 8.2 5.8-12-4-21-11.3-27-29.3 4 6 12 14 14 18q0.8 1.5 2.1 2.9c0-0.2 0-0.3 0.1-0.5 0.5-2.5 2.9-4 4.9-5.2 0.8-0.4 1.8-1 1.9-1.3 0-1.8 0-7.4-5.6-11.1-5.6-3.8-15.5-7.2-21.6-7.2l0.2-0.6c6.5 0 16.5 2.2 22.6 6.2 6.4 4.3 6.4 10.7 6.4 12.8 0 1.2-1.3 2-2.8 2.9-1.7 1-3.7 2.3-4.1 3.9q-0.2 1.2 0.7 2.6zm385.5-3.8c-0.4-2.6 1.4-5 4-5.3 2.6-0.4 5 1.4 5.3 4 0.4 2.6-1.4 5-4 5.3q-0.3 0.1-0.6 0.1c-2.4 0-4.4-1.7-4.7-4.1zm11.2 11.7c0.3 2.5-1.5 4.9-4.1 5.3q-0.3 0-0.7 0c-2.2 0-4.3-1.7-4.6-4-0.4-2.6 1.4-5 4-5.4 2.6-0.3 5 1.5 5.4 4.1zm1.8 12.9c0.4 2.6-1.5 5-4.1 5.4q-0.3 0-0.6 0-0.8 0-1.5-0.2-1.5-2.5-3.2-5.1c0.3-2.1 1.9-3.8 4-4.1 2.6-0.4 5 1.4 5.4 4zm-10.4-5.1c0.1 0.9-0.1 1.9-0.5 2.6q-0.5-0.7-1-1.5-0.1 0.7-0.4 1.2-0.5-0.8-0.9-1.5-1-1.6-2-3.2 0.6-0.1 1.2 0.1-0.4-0.8-0.9-1.5c2.2 0 4.1 1.5 4.5 3.8zm-1.9-13c0.4 2.4-1.3 4.7-3.7 5q-0.3 0-0.6 0-0.5 0-1-0.1-1.7-2.7-3.4-5.2c0.4-1.8 1.9-3.2 3.7-3.5 2.5-0.3 4.7 1.4 5 3.8zm-10.5-11.7c-0.4-2.5 1.3-4.7 3.7-5 2.4-0.4 4.7 1.3 5 3.7 0.4 2.5-1.3 4.7-3.7 5q-0.4 0.1-0.7 0.1c-2.1 0-4-1.6-4.3-3.8zm-11.7-18.2c-0.3-2.3 1.3-4.4 3.5-4.7 2.3-0.3 4.4 1.3 4.7 3.5 0.3 2.3-1.3 4.3-3.5 4.7q-0.3 0-0.6 0c-2 0-3.8-1.5-4.1-3.5zm10 11.8c0.3 2.2-1.2 4.3-3.5 4.6q-0.3 0.1-0.6 0.1c-2 0-3.8-1.5-4-3.6-0.4-2.2 1.2-4.3 3.5-4.6 2.2-0.3 4.3 1.2 4.6 3.5zm1.8 13c0.1 0.7 0 1.3-0.2 1.9q-0.6-0.7-1.1-1.4 0 0.7-0.3 1.3-1.5-2.2-3-4 0.1 0 0.2 0 0.6-0.1 1.1 0.1-0.6-0.8-1.2-1.5c2.2-0.2 4.2 1.4 4.5 3.6zm-12.2-18.2c0.2 1.6-0.6 3.1-1.9 3.9q-0.4-0.6-0.8-1.1-0.3 0.2-0.7 0.3-0.2 0-0.3 0-1.1-1.9-2.2-3.9 0.3-0.5 0.8-0.8-0.3-0.5-0.6-1.1 0.6-0.4 1.4-0.5c2.1-0.3 4 1.2 4.3 3.2zm-8.3-9.8q-0.6-1.7-1-3.6c0.4-1.4 1.6-2.6 3.1-2.8 2.1-0.3 4.1 1.2 4.4 3.3 0.3 2-1.2 4-3.3 4.3q-0.3 0-0.5 0-1.6 0-2.7-1.2zm-130 88.8c-0.4-2.6 1.5-5 4-5.4 2.6-0.3 5 1.5 5.4 4.1 0.3 2.6-1.5 4.9-4 5.3q-0.4 0-0.7 0.1c-2.3 0-4.3-1.7-4.7-4.1zm6.8 7.6c2.2 0.1 4.1 1.8 4.4 4 0.4 2.6-1.4 5-4 5.4q-0.4 0-0.7 0c-2.3 0-4.3-1.7-4.7-4q0-0.5 0-1c0.1-2.2 1.8-4.1 4.1-4.4q0.4-0.1 0.9 0zm-14.7 0.5q1.7-2.5 3.5-5.3 0.1 0 0.2-0.1c2.4-0.3 4.7 1.4 5 3.8 0.3 2.4-1.4 4.6-3.8 5q-0.3 0-0.6 0c-2 0-3.8-1.4-4.3-3.4zm10.5 11.4c0.3 2.4-1.3 4.6-3.7 5q-0.4 0-0.7 0c-2.1 0-4.1-1.6-4.3-3.8-0.4-2.4 1.3-4.7 3.7-5 2.4-0.3 4.7 1.3 5 3.8zm-17.2-1.5q0.4-0.6 0.8-1.2-0.4-0.3-0.6-0.9 1.3-1.8 2.6-3.8 0.6 0 1.1 0.3 0.3-0.6 0.7-1.1c0.9 0.4 1.6 1.2 2 2.2q0.1 0.4 0.2 0.8c0.3 2.3-1.3 4.3-3.5 4.7q-0.3 0-0.6 0-0.4 0-0.7-0.1c-0.8-0.1-1.4-0.4-2-0.9zm22.2-35.9q0.4-0.7 0.7-1.4-0.3-0.5-0.5-1.2 1-2.1 2.1-4.2 0.4-0.2 0.8-0.2 0.2 0 0.4 0 0.3-0.8 0.7-1.5c2.2 0.3 4 2 4.3 4.3 0.4 2.7-1.5 5.3-4.2 5.7q-0.4 0-0.8 0c-1.3 0-2.6-0.6-3.5-1.5zm9.1 68.5c0.3 2.5-1.5 4.9-4.1 5.3q-0.3 0-0.6 0c-2.4 0-4.4-1.7-4.7-4-0.4-2.6 1.4-5 4-5.4 2.6-0.3 5 1.5 5.4 4.1zm-11.2-11.7c-0.4-2.6 1.4-5 4-5.3 2.6-0.4 5 1.4 5.4 4 0.3 2.6-1.5 5-4.1 5.3q-0.3 0.1-0.7 0.1c-2.3 0-4.3-1.7-4.6-4.1zm7.5-14.3c0.4 2.6-1.4 5-4 5.4q-0.3 0-0.7 0c-2.3 0-4.3-1.7-4.7-4.1-0.3-2.6 1.5-4.9 4.1-5.3 2.6-0.4 4.9 1.4 5.3 4zm-17.3 9.1c-0.4-2.5 1.3-4.7 3.7-5 2.5-0.4 4.7 1.3 5 3.7 0.4 2.5-1.3 4.7-3.7 5q-0.3 0.1-0.7 0.1c-2.1 0-4-1.6-4.3-3.8zm12.4 24.7c0.3 2.4-1.4 4.6-3.8 5q-0.3 0-0.6 0c-2.2 0-4.1-1.6-4.4-3.8-0.3-2.4 1.3-4.6 3.8-5 2.4-0.3 4.6 1.4 5 3.8zm-10.6-11.8c-0.4-2.4 1.3-4.6 3.8-5 2.4-0.3 4.6 1.4 5 3.8 0.3 2.4-1.4 4.7-3.8 5q-0.3 0-0.6 0c-2.2 0-4.1-1.6-4.4-3.8zm-1.7-6.3c0.3 2.2-1.2 4.3-3.5 4.6q-0.3 0-0.5 0c-2.1 0-3.8-1.4-4.1-3.5-0.3-2.2 1.2-4.3 3.5-4.6 2.2-0.4 4.3 1.2 4.6 3.5zm-2.2 17.6c-2 0-3.8-1.5-4.1-3.5-0.3-2.3 1.3-4.4 3.5-4.7 2.3-0.3 4.3 1.3 4.6 3.5 0.4 2.3-1.2 4.4-3.5 4.7q-0.2 0-0.5 0zm5.9 8.3c0.3 2.2-1.3 4.3-3.5 4.6q-0.3 0.1-0.6 0.1c-2 0-3.8-1.5-4.1-3.6-0.3-2.2 1.3-4.3 3.5-4.6 2.3-0.3 4.4 1.2 4.7 3.5zm-5.5-38.9c0.3 2.2-1.2 4.3-3.5 4.6q-0.3 0.1-0.6 0.1c-2 0-3.8-1.5-4-3.6-0.3-2.2 1.2-4.3 3.5-4.6 2.2-0.3 4.3 1.2 4.6 3.5zm-10.5 25.1c-1.9 0-3.5-1.4-3.8-3.3-0.3-2 1.2-4 3.2-4.3 2.1-0.3 4.1 1.2 4.3 3.3 0.3 2.1-1.1 4-3.2 4.3q-0.3 0-0.5 0zm5.6 8.6c0.3 2.1-1.2 4.1-3.3 4.3q-0.2 0.1-0.5 0.1c-1.9 0-3.5-1.4-3.8-3.3-0.3-2.1 1.2-4 3.3-4.3 2.1-0.3 4 1.2 4.3 3.2zm-3.7-25.9c0.3 2.1-1.1 4-3.2 4.3q-0.3 0-0.6 0c-1.8 0-3.5-1.3-3.7-3.2-0.3-2.1 1.1-4 3.2-4.3 2.1-0.3 4 1.1 4.3 3.2zm-4.9 33.8c0.2 1.9-1.1 3.7-3 3.9q-0.2 0-0.5 0.1c-1.7 0-3.2-1.3-3.5-3.1-0.2-1.9 1.1-3.6 3-3.9 1.9-0.3 3.7 1.1 4 3zm-7.6-28.9c1.9-0.3 3.7 1 3.9 2.9 0.3 1.9-1 3.7-2.9 4q-0.3 0-0.5 0c-1.8 0-3.3-1.3-3.5-3-0.3-1.9 1.1-3.7 3-3.9zm2.3 19.9c-1.7 0-3.2-1.3-3.5-3-0.2-1.9 1.1-3.7 3-4 1.9-0.2 3.7 1.1 3.9 3 0.3 1.9-1 3.7-2.9 4q-0.3 0-0.5 0zm-5.1 3.8c0.2 1.8-1 3.4-2.8 3.6q-0.2 0-0.4 0.1c-1.6 0-2.9-1.2-3.2-2.8-0.2-1.7 1-3.3 2.8-3.6 1.7-0.2 3.3 1 3.6 2.7zm-5-9.3c-1.6 0-3-1.2-3.2-2.8-0.2-1.7 1-3.3 2.7-3.6 1.8-0.2 3.4 1 3.6 2.7 0.3 1.8-0.9 3.4-2.7 3.7q-0.2 0-0.4 0zm55.2-5.9c-2.5 0-4.7-1.8-5-4.4-0.4-2.7 1.5-5.3 4.3-5.7 2.7-0.3 5.3 1.6 5.7 4.3 0.3 2.8-1.6 5.3-4.3 5.7q-0.4 0.1-0.7 0.1zm-6.8-17.3c-0.4-2.8 1.5-5.3 4.3-5.7 2.7-0.4 5.3 1.5 5.6 4.3 0.4 2.7-1.5 5.2-4.2 5.7q0 0-0.1 0-0.3 0-0.6 0c-2.5 0-4.7-1.8-5-4.3zm-1.9-13c-0.3-2.8 1.6-5.3 4.3-5.7 2.8-0.4 5.3 1.5 5.7 4.3 0.4 2.7-1.5 5.3-4.3 5.7q-0.3 0-0.7 0c-2.5 0-4.6-1.8-5-4.3zm35.8-11.6c0.3 2.2-1.3 4.3-3.5 4.6q-0.3 0-0.6 0c-2 0-3.8-1.4-4-3.5-0.4-2.2 1.2-4.3 3.5-4.6q0.4-0.1 0.8-0.1c1.9 0.1 3.5 1.6 3.8 3.6zm9.8 5.2q0.1 0.4 0 0.8c-0.1 1.7-1.4 3.2-3.2 3.5q-0.3 0-0.6 0c-1.8 0-3.5-1.3-3.7-3.2v-0.1q-0.1-0.3-0.1-0.7c0.1-1.8 1.5-3.3 3.3-3.5 2.1-0.3 4 1.1 4.3 3.2zm-37.4-8c0.4 2.8-1.5 5.3-4.3 5.7q-0.3 0-0.7 0.1c-2.5 0-4.6-1.9-5-4.4-0.4-2.7 1.6-5.3 4.3-5.7 2.8-0.4 5.3 1.6 5.7 4.3zm-1.8-12.9c0.4 2.7-1.6 5.3-4.3 5.6q-0.4 0.1-0.7 0.1c-2.5 0-4.6-1.8-5-4.3-0.4-2.8 1.5-5.3 4.3-5.7 2.7-0.4 5.3 1.5 5.7 4.3zm9.8 5.2c0.3 2.6-1.5 5-4 5.3q-0.4 0.1-0.7 0.1c-2.3 0-4.3-1.7-4.7-4.1-0.3-2.6 1.5-5 4-5.3 2.6-0.4 5 1.4 5.4 4zm-10.7-35.1q-0.5-0.1-0.9-0.3 1.2-3 2.2-6 0.5 0.1 0.9 0.3 0.3-0.7 0.5-1.4c1.3 0.7 2.3 2 2.5 3.6 0.4 2.6-1.4 5-4 5.3q-0.3 0-0.7 0.1-0.5-0.1-1-0.2 0.3-0.7 0.5-1.4zm8.9 22.1c0.3 2.6-1.5 5-4.1 5.4q-0.3 0-0.6 0c-2.3 0-4.4-1.7-4.7-4.1-0.4-2.6 1.4-4.9 4-5.3 2.6-0.4 5 1.4 5.4 4zm-11.2-11.6c-0.4-2.6 1.4-5 4-5.4 2.6-0.3 5 1.5 5.3 4 0.4 2.6-1.4 5-4 5.4q-0.3 0-0.6 0c-2.4 0-4.4-1.7-4.7-4zm5.4 38.9c-0.3-2.6 1.5-5 4.1-5.4q0.5 0 0.9 0c2.2 0.1 4.1 1.8 4.4 4.1 0.3 2.2-1 4.3-3.1 5.1q-0.4 0.1-0.9 0.2-0.4 0-0.7 0c-2.3 0-4.3-1.7-4.7-4zm3.5-70.4q-0.5 0-0.9-0.3 0.6-2.8 1.2-5.6 0.5 0 0.9 0.1 0.2-0.7 0.3-1.4c1.7 0.4 3 1.8 3.3 3.7 0.3 2.4-1.4 4.6-3.8 5q-0.3 0-0.6 0-0.4 0-0.8-0.1 0.2-0.7 0.4-1.4zm2.5-13.9q0.2-1.5 0.4-2.9 0 0.1 0 0.3c0.2 0.9 0 1.8-0.4 2.6zm9.6 62.2c0.3 2.5-1.4 4.7-3.8 5q-0.3 0.1-0.6 0.1c-2.2 0-4.1-1.6-4.4-3.8-0.3-2.4 1.4-4.7 3.8-5 2.4-0.4 4.6 1.3 5 3.7zm-14.2-37.6c-0.4-2.4 1.3-4.7 3.7-5 2.4-0.4 4.7 1.3 5 3.7 0.3 2.5-1.3 4.7-3.8 5q-0.3 0.1-0.6 0.1c-2.2 0-4-1.6-4.3-3.8zm16 50.6c0.3 2.4-1.3 4.7-3.8 5q-0.3 0-0.6 0.1c-2.2 0-4.1-1.6-4.4-3.8-0.3-2.5 1.4-4.7 3.8-5 2.4-0.4 4.7 1.3 5 3.7zm-5.5-38.9c0.4 2.4-1.3 4.7-3.7 5q-0.4 0-0.7 0c-2.1 0-4-1.6-4.3-3.8-0.4-2.4 1.3-4.6 3.7-5 2.5-0.3 4.7 1.4 5 3.8zm1.9 13c0.3 2.4-1.4 4.6-3.8 5q-0.3 0-0.6 0c-2.2 0-4.1-1.6-4.4-3.8-0.3-2.4 1.3-4.6 3.8-5 2.4-0.3 4.6 1.4 5 3.8zm5.4 38.9q0.1 0.4 0 0.9c-0.1 2-1.6 3.8-3.8 4.1q-0.3 0-0.6 0c-2.1 0-4-1.6-4.3-3.8q0 0-0.1 0 0-0.4 0-0.9c0.1-2 1.7-3.8 3.8-4.1 2.4-0.3 4.7 1.4 5 3.8zm-8.8-93.8c-1.5 0-2.9-0.9-3.6-2.2q0.1-2.1 0.2-4.3c0.6-0.9 1.6-1.6 2.8-1.7 2.2-0.4 4.3 1.2 4.6 3.5 0.4 2.2-1.2 4.3-3.5 4.6q-0.2 0.1-0.5 0.1zm15 73.1c0.3 2.2-1.3 4.3-3.5 4.6q-0.3 0.1-0.6 0.1c-2 0-3.8-1.5-4.1-3.6-0.3-2.2 1.3-4.3 3.5-4.6 2.3-0.3 4.4 1.2 4.7 3.5zm-9.1-64.9c0.3 2.3-1.3 4.4-3.5 4.7q-0.3 0-0.6 0c-2 0-3.8-1.5-4.1-3.5-0.3-2.3 1.3-4.4 3.5-4.7 2.3-0.3 4.3 1.3 4.7 3.5zm7.3 51.9c0.3 2.3-1.3 4.3-3.5 4.7q-0.3 0-0.6 0c-2.1 0-3.8-1.5-4.1-3.5-0.3-2.3 1.3-4.4 3.5-4.7 2.3-0.3 4.3 1.3 4.7 3.5zm-5.5-38.9c0.3 2.3-1.3 4.3-3.5 4.7q-0.3 0-0.6 0c-2 0-3.8-1.5-4.1-3.6-0.3-2.2 1.3-4.3 3.5-4.6 2.3-0.3 4.4 1.3 4.7 3.5zm3.6 25.9c0.4 2.3-1.2 4.4-3.5 4.7q-0.3 0-0.5 0c-2.1 0-3.8-1.5-4.1-3.5-0.3-2.3 1.2-4.3 3.5-4.7 2.2-0.3 4.3 1.3 4.6 3.5zm-1.8-12.9c0.3 2.2-1.2 4.3-3.5 4.6q-0.3 0-0.6 0.1c-2 0-3.7-1.5-4-3.6-0.4-2.2 1.2-4.3 3.5-4.6 2.2-0.3 4.3 1.2 4.6 3.5zm-6.8-58.6c-0.3-2.1 1.1-4 3.2-4.3 2.1-0.3 4 1.2 4.3 3.3 0.3 2-1.2 4-3.2 4.3q-0.3 0-0.6 0c-1.9 0-3.5-1.4-3.7-3.3zm16.6 63.8c0.3 2.1-1.1 4-3.2 4.3q-0.3 0-0.6 0c-1.8 0-3.5-1.3-3.7-3.2-0.3-2.1 1.1-4 3.2-4.3 2.1-0.3 4 1.1 4.3 3.2zm1.8 13c0.3 2.1-1.1 4-3.2 4.3q-0.3 0-0.5 0c-1.9 0-3.5-1.4-3.8-3.3-0.3-2 1.2-4 3.2-4.3 2.1-0.3 4 1.2 4.3 3.3zm-13-37.9c-0.3-2.1 1.2-4 3.3-4.3 2.1-0.3 4 1.2 4.3 3.3 0.3 2-1.2 4-3.3 4.3q-0.2 0-0.5 0c-1.9 0-3.5-1.4-3.8-3.3zm16.7 63.8c0.3 2.1-1.2 4-3.3 4.3q-0.2 0-0.5 0.1c-1.9 0-3.5-1.4-3.8-3.3-0.2-2.1 1.2-4 3.3-4.3 2.1-0.3 4 1.1 4.3 3.2zm-7.3-51.9c0.3 2.1-1.2 4-3.2 4.3q-0.3 0.1-0.6 0.1c-1.8 0-3.5-1.4-3.7-3.3-0.3-2.1 1.1-4 3.2-4.3 2.1-0.3 4 1.2 4.3 3.2zm5.5 39c0.3 2-1.2 4-3.3 4.2q-0.2 0.1-0.5 0.1c-1.9 0-3.5-1.4-3.8-3.3-0.3-2.1 1.2-4 3.3-4.3 2-0.3 4 1.2 4.3 3.3zm8-7.8c0.2 1.9-1.1 3.7-3 4q-0.3 0-0.5 0c-1.7 0-3.2-1.3-3.5-3-0.2-1.9 1.1-3.7 3-4 1.9-0.2 3.7 1.1 4 3zm3.6 26c0.2 1.1-0.3 2.3-1.1 3-0.5 0.5-1.2 0.8-1.9 0.9q-0.2 0-0.5 0c-1.7 0-3.2-1.2-3.4-3q-0.1-0.3-0.1-0.7c0.1-1.4 1-2.6 2.3-3.1q0.4-0.1 0.7-0.1c1.9-0.3 3.7 1 4 3zm-1.8-13c0.2 1.9-1.1 3.7-3 3.9q-0.3 0.1-0.5 0.1c-1.7 0-3.2-1.3-3.5-3-0.2-2 1.1-3.7 3-4 1.9-0.3 3.7 1.1 4 3zm-10.6-25c-0.3-1.9 1.1-3.7 3-3.9 1.9-0.3 3.7 1 3.9 2.9 0.3 2-1.1 3.7-2.9 4q-0.3 0-0.5 0c-1.8 0-3.3-1.2-3.5-3zm12.2 18.1c-0.2-1.7 1-3.3 2.8-3.6 1.7-0.2 3.3 1 3.6 2.7 0.2 1.8-1 3.4-2.8 3.7q-0.2 0-0.4 0c-1.6 0-2.9-1.2-3.2-2.8zm8.2 12.1c0.2 1.8-1 3.4-2.7 3.6q-0.3 0-0.5 0.1c-1.5 0-2.9-1.2-3.1-2.8-0.3-1.7 0.9-3.4 2.7-3.6 1.7-0.2 3.3 1 3.6 2.7zm1.8 13q0 0.3 0 0.6c0 0.8-0.3 1.5-0.8 2q-0.4 0.4-0.9 0.6-0.4 0.3-1 0.4-0.2 0-0.5 0c-1.5 0-2.9-1.1-3.1-2.7-0.3-1.8 0.9-3.4 2.7-3.6 1.7-0.3 3.4 0.9 3.6 2.7zm-47.9 46.4c0.4 2.7-1.5 5.3-4.3 5.7q-0.4 0-0.7 0c-2.5 0-4.6-1.8-5-4.3-0.4-2.7 1.5-5.3 4.3-5.7 2.8-0.4 5.3 1.5 5.7 4.3zm-3.2-19.4c-0.4-2.6 1.4-5 4-5.3 2.6-0.4 5 1.4 5.4 4 0.3 2.6-1.5 5-4.1 5.3q-0.3 0.1-0.6 0.1c-2.4 0-4.4-1.7-4.7-4.1zm-1.8-13c-0.4-2.5 1.4-4.9 4-5.3 2.6-0.4 5 1.4 5.3 4 0.4 2.6-1.4 5-4 5.4q-0.3 0-0.7 0c-2.3 0-4.3-1.7-4.6-4.1zm13 24.7c0.3 2.6-1.5 4.9-4 5.3q-0.4 0.1-0.7 0.1c-2.3 0-4.4-1.8-4.7-4.1-0.3-2.6 1.4-5 4-5.4 2.6-0.3 5 1.5 5.4 4.1zm-2.6-19.5c-0.4-2.4 1.3-4.7 3.7-5 2.4-0.3 4.7 1.3 5 3.8 0.4 2.4-1.3 4.6-3.7 5q-0.3 0-0.6 0c-2.2 0-4.1-1.6-4.4-3.8zm6.6 35.2q0.6-0.5 1.3-0.9-0.6 0.5-1.3 0.9zm4-23.5c0.3 2.4-1.4 4.7-3.8 5q-0.3 0.1-0.6 0.1c-2.2 0-4.1-1.6-4.4-3.8-0.3-2.5 1.3-4.7 3.8-5 2.4-0.4 4.6 1.3 5 3.7zm6 15q-1.1 1.1-2.2 2.1c0.4-0.9 1.2-1.7 2.2-2.1zm0.1-35.7c0.3 2.3-1.2 4.4-3.5 4.7q-0.3 0-0.6 0c-2 0-3.7-1.5-4-3.5-0.3-2.3 1.2-4.4 3.5-4.7 2.2-0.3 4.3 1.3 4.6 3.5zm1.9 13c0.3 2.2-1.3 4.3-3.5 4.6q-0.4 0.1-0.6 0.1c-2 0-3.8-1.5-4.1-3.6-0.3-2.2 1.2-4.3 3.5-4.6 2.2-0.3 4.3 1.2 4.7 3.5zm7.9-7.7c0.3 2-1.1 4-3.2 4.3q-0.3 0-0.5 0c-1.9 0-3.5-1.4-3.8-3.3-0.3-2.1 1.1-4 3.2-4.3 2.1-0.3 4 1.2 4.3 3.3zm8-7.8c0.3 1.9-1 3.7-3 4q-0.2 0-0.4 0c-1.8 0-3.3-1.3-3.5-3-0.3-1.9 1-3.7 3-4 1.9-0.2 3.7 1.1 3.9 3zm-64.1-27.4c-0.2 0-0.3 0-0.5-0.1q1.5-2.6 2.9-5.3 0.4 0.4 0.6 1 0.4-0.8 0.8-1.5c0.5 0.6 0.7 1.2 0.9 2 0.3 2.6-1.5 5-4.1 5.3q-0.3 0.1-0.6 0.1-0.1 0-0.2 0 0.4-0.8 0.8-1.6-0.1 0.1-0.2 0.1-0.2 0-0.4 0zm23.1-85.9c-0.1-0.9 0.2-1.7 0.8-2.3q-0.1-0.8-0.1-1.6 0.6-0.4 1.5-0.5c2.2-0.3 4.3 1.2 4.6 3.5 0.3 2.2-1.2 4.3-3.5 4.6q-0.3 0.1-0.6 0.1-0.8 0-1.5-0.4-0.1-0.7-0.1-1.5c-0.6-0.5-1-1.1-1.1-1.9zm-59.2 97.5q0.6 0.5 1.1 1.1c1.1 0 2.1 0.7 2.2 1.9 0.1 0.2 0 0.4 0 0.7q0.5 0.6 0.9 1.2c-0.5 1-1.5 1.7-2.6 1.9q-0.3 0-0.5 0c-1.7 0-3.2-1.3-3.5-3-0.2-1.7 0.8-3.3 2.4-3.8zm-5.9-2.3c0.3 1.7-0.9 3.3-2.7 3.6q-0.2 0-0.4 0c-1.6 0-3-1.1-3.2-2.7-0.2-1.8 1-3.4 2.7-3.6 1.8-0.3 3.4 0.9 3.6 2.7zm-13.2-1.9c-1.4 0-2.7-1-2.9-2.5-0.2-1.6 0.9-3 2.5-3.2 1.5-0.3 3 0.8 3.2 2.4 0.2 1.6-0.9 3.1-2.4 3.3q-0.2 0-0.4 0zm4.6 9.5q-0.6 0-1.1 0.1 0 0.1 0 0.2 0.1 0.5-0.1 0.8c-1.1 0.2-2.1 0.5-2.8 0.8q-0.3-0.3-0.5-0.9-0.4 0.2-0.7 0.4-0.1 0.1-0.3 0.2c0-0.2-0.1-0.4-0.2-0.6-0.2-1.6 0.9-3 2.5-3.3 1.5-0.2 2.9 0.8 3.2 2.3zm-14.7-15c-1.2 0-2.2-0.8-2.5-1.9q0.5-0.2 1-0.3 0-0.1 0-0.2c-0.1-0.3 0-0.7 0.2-0.9q1-0.4 1.9-0.6c0.4 0.2 0.6 0.5 0.8 0.9q0.5-0.1 1-0.2c0 0.1 0.1 0.2 0.1 0.3 0.2 1.4-0.8 2.7-2.2 2.9q-0.2 0-0.3 0zm4.3 10c0.2 1.4-0.8 2.7-2.2 2.9q-0.1 0.1-0.3 0.1c-1.3 0-2.4-1-2.6-2.2-0.2-1.5 0.8-2.8 2.2-3 1.4-0.2 2.7 0.8 2.9 2.2zm-0.9 10.8q-1 0.7-2 1.4c0.3-0.7 1-1.3 1.8-1.4q0.1 0 0.2 0zm-9.5-15.9c0.2 1.2-0.7 2.4-1.9 2.6q-0.2 0-0.3 0c-1.1 0-2.1-0.8-2.3-2-0.1-1.2 0.7-2.4 2-2.5 1.2-0.2 2.3 0.6 2.5 1.9zm44.6 26.8c-0.2-1.5 0.4-2.9 1.6-3.7q0.2 0.7 0.4 1.4 0.4-0.4 0.9-0.6 0.4 1.2 0.7 2.4 0.1 0.7 0.3 1.3 0.5-0.7 1-1.5 0.4-0.6 0.9-1.2 0.3 0.4 0.4 1 0 0.1 0 0.1 0 0 0.1-0.1 0.4-0.6 0.9-1.2 0.2 0.5 0.3 1c0.3 2.1-1.2 4-3.2 4.3q-0.3 0.1-0.6 0.1-0.1 0-0.3-0.1 0.5-0.6 1-1.3-0.2 0-0.3 0 0 0 0 0.1-0.2 0-0.4 0-0.3 0-0.6-0.1 0.1 0.7 0.2 1.3c-1.7-0.2-3.1-1.4-3.3-3.2zm-35.1-9.8q0.1 0 0.2 0-0.7 0.5-1.4 0.9c0.2-0.5 0.6-0.9 1.2-0.9zm144.3-136.8c-0.5-4-5.6-11.4 2.1-14.5 7.7-3.2 19.6-4.8 27 4.3 7.4 9.1 6 27.6 2.8 34.2-3.1 6.5-1.4-10-2-14-0.5-4 0.1-14.2-6.5-17.4-6.5-3.1-11.1-6.6-14.5-2-3.4 4.6 16.5 16 2 14-6.3-0.9-10.3-0.6-10.9-4.6zm-129 56.2c-3 3.4-6.5 6.3-10.6 8.2-1 0.5-2 0.9-3.2 1.2-0.3 0-0.6 0.1-1.1 0q-0.5-0.1-0.9-0.3c-0.5-0.3-1-0.6-1.4-0.9-1.8-1.4-3.3-2.9-4.8-4.5-3.4 1-7.2 2-11 3.5-7.7 3.2-2.5-3.7-0.5-3.9 0.4-0.1 1.1-0.3 2-0.6-0.1-0.9 0-1.6 0.1-2.2q0.1-1.1 0.2-2c0.1-1.2-0.2-2.1-0.5-2.4 0 0.1-0.1-0.1-0.2-0.2q-0.2-0.1-0.3-0.2c-0.1-0.3-0.2-0.4-0.3-0.6-0.2-0.4-0.2-0.6-0.3-0.9-0.1-0.5-0.1-1-0.1-1.4 0-0.8 0.2-1.6 0.3-2.3 0.2-1.4 0.6-2.8 1-4.2q1.1-4.1 2.7-8c0.5-1.3 1.1-2.6 1.7-3.9q0.3-0.5 0.6-1c0.2-0.3 0.6-0.9 1.1-1.1 1-0.5 1.9-0.5 2.6-0.4 3 0.4 5.5 1.5 8.2 1.8 0.6 0.1 1.1-0.1 2 0 0.8 0.1 1.5 0.2 2.2 0.4q2.1 0.8 3.9 1.5c2.6 1.1 5.1 2.4 7.6 3.6l3.8 1.8c1.2 0.5 2.5 1.2 3.8 1.4-1.4-0.1-2.6-0.8-3.9-1.2l-3.9-1.6c-2.6-1-5.1-2.1-7.7-3-1.3-0.5-2.6-0.9-3.9-1.3-0.7-0.1-1.3-0.2-1.9-0.3-0.5 0-1.4 0.2-2.1 0.2-3-0.1-5.7-1.2-8.2-1.3-0.6 0-1.2 0-1.4 0.2-0.2 0.1-0.2 0.1-0.4 0.4q-0.2 0.4-0.4 0.9c-0.5 1.2-0.9 2.5-1.4 3.8-0.8 2.5-1.5 5.2-2.1 7.8-0.3 1.4-0.6 2.7-0.7 4-0.1 0.6-0.1 1.3-0.1 1.8q0 0.4 0.1 0.7c0.8 0.7 1.4 1.6 1.6 2.5 0.3 0.9 0.3 1.8 0.3 2.6 0 0.8 0 1.5 0 2.2q-0.1 0.3-0.1 0.5c3.9-1.5 8.9-3.9 13.2-6.8 7.4-5.1 13.1-8 15.4-6.3l2-0.2c0 0-12.9 9.9-16.6 12.5-1.9 1.3-4.9 2.2-8.4 3.2 1.7 1.3 3.4 2.6 5.3 3.6 0.9 0.5 1.9 1 2.5 0.6 0.9-0.3 1.8-0.9 2.7-1.4 3.4-2.3 6.1-5.5 8.3-8.9zm-131.1 330q-3-3.5-6.1-7c1.3 0.7 2.7 1.3 4.1 1.8q1 0.4 2 0.7-0.1 2.3 0 4.5zm541.8-141.4zm-440.2-195.2z"/>
			<path id="&lt;Compound Path&gt;" fill-rule="evenodd" class="s2" d="m542 888.8l-32.1-28.9c17 2.4 33.5 3.2 47.6 3.2 6.6 0 12.8-0.1 18.2-0.4 43.6-2.1 81.8-11 95.3-19 1.6 1.1 3 2.1 4.1 2.9l-26.4 31.4c-17.8 4.9-43.6 9.3-73.1 10.7-9.4 0.5-20.9 0.7-33.6 0.1zm104.5-8.1l-48.9 58.2-53.3-48c4.6 0.2 9 0.2 13.2 0.2 6.6 0 12.8-0.1 18.2-0.4 27.3-1.3 52.4-5.3 70.8-10zm-408.6-363.3c-7.2 3.7-21.1 13.6-36 27.6 10-16 18.3-28.4 21.1-31.1 0.8-0.8 1.7-2.3 2.5-4.3 20.3-14.4 36.5-42.1 44.5-63.4 13-4.6 29.1-14.1 41.8-24.7q5.2-0.7 10.5-1.9c-7.5 11.6-11.2 19.3-11.3 19.4-16.1 35.4-41 58.8-62.3 74.9-3.9 0.8-7.6 2-10.8 3.5zm248.8 321.6l-11.8-10.6-51.2-61.4c19 0.9 37.7 0.6 54.8 0.6 35.9 0 67.3-8 86.5-26.5q-0.5-1-0.9-2c-27.9 27.9-83.8 31.8-141.2 21-0.4-2.5-4.1-7.1-9.3-12.5 10.1 1.2 20.3 1.8 30.3 1.8 35.6 0 68.2-7.3 86.2-16.9 7.2-3.8 13.5-12.4 16-18.1q1.8 2.1 3.7 4.3-0.2-0.5-0.3-1.1c-0.3-1.9-0.1-3.9 0.3-5.7 0.8-3.5 2.4-6.6 4.3-9.5q0.2-0.4 0.4-0.7c4.2-6.3 9.3-11.7 14.6-16.8 5.2-4.9 10.6-9.6 16-14.1l0.7-1.2 1.1-2.5c0.3-0.8 0.6-1.5 0.8-2.3q0-0.1 0-0.1c-2.2-0.5-4.4-1-6.5-1.8-3.5-1.2-6.9-3-9.3-6-1.2-1.5-2.1-3.4-2.4-5.3-0.3-1.9-0.1-3.9 0.3-5.7 0.9-3.7 2.7-7.1 4.7-10.2 0.8-1.2 1.6-2.3 2.4-3.4q-2.2-2.2-4.7-4c-5.7-4.2-12.4-6.8-19.3-8.3-7-1.4-14.2-1.7-21.4-1.2-7.2 0.5-14.3 1.8-21.4 3.5-7.2 1.7-14.6 3.1-22.1 3.5-3.7 0.2-7.6 0-11.4-0.7q-1-0.3-2.1-0.6c7.7 9.8 14.5 18.6 19.4 24.9l8.8 10.3q-0.7 0.8-1.4 1.6c-23.7 26.1-83 44.9-130 48.2l-40.4-35.1c0 0 6.4 13.7 8.4 21.7 2 8-24.4 28.3-42.4 22.3-3.4-1.1-9.7-1.4-17.5-1.4-28-85.5-27.1-142 2.7-167.9 32.9-28.6 93.1-12.2 126.9 3.2 7.7 5.8 14.5 11.9 20.5 17.5 10.1 11.5 21.4 25.2 32 38.4-0.4-3.6-0.3-7.2 0.2-10.7 0.9-7.4 2.7-14.6 4.6-21.7 4-14.2 8.5-28.2 12.7-42.2-3.3 14.3-7.4 28.4-10.8 42.7-1.7 7.1-3.3 14.2-4 21.4-0.4 3.6-0.4 7.2 0.1 10.7 0.3 1.9 0.8 3.7 1.6 5.3q2 2.6 4 5.1c2.1 1.5 4.7 2.5 7.4 3 3.4 0.6 7 0.7 10.5 0.5 7.2-0.4 14.4-1.8 21.4-3.6 14.3-3.5 29.6-5.6 44.5-2.6 7.4 1.6 14.6 4.5 20.8 9.1q2.5 1.9 4.8 4.2c3-3.7 6.4-7.2 9.8-10.5 3.3-3.1 6.6-6.1 10.1-9.1-2.7-3.2-5.8-6.1-9.2-8.7-5.7-4.3-12.1-7.6-18.8-10.2-6.8-2.6-13.8-4.4-20.9-6-7.3-1.5-14.5-3.3-21.5-6.2-3.4-1.4-6.8-3.2-10-5.5-3.1-2.3-5.9-5.4-7.1-9.4-1.2-3.9-0.8-8.1 0.4-11.7 1.2-3.7 2.9-7 4.9-10.2 4-6.3 8.7-12 13.4-17.7 4.2-4.8 8.5-9.5 12.8-14.2q-2.3-1.2-4.4-2.8c-3.1-2.3-5.9-5.4-7.1-9.4-1.2-3.9-0.8-8.1 0.4-11.7 1.2-3.7 2.9-7 4.9-10.2 4-6.3 8.7-12 13.4-17.7 9.7-11.1 19.7-21.8 29.5-32.8-9.1 11.6-18.8 22.6-28 34.1-4.5 5.7-9 11.5-12.7 17.7-1.9 3.1-3.4 6.4-4.4 9.7-1 3.4-1.3 6.9-0.2 10 1 3.1 3.4 5.7 6.2 7.7q2.3 1.5 4.7 2.8c4.8-5.3 9.7-10.6 14.4-16-4.3 5.6-8.9 11-13.4 16.5q1.8 0.9 3.6 1.6c6.7 2.7 13.8 4.4 20.9 5.9 5.7 1.1 11.3 2.5 16.9 4.3 8.6 2.8 17 6.7 24.5 12.2 6 4.6 11.3 10.3 14.9 17.1 3.6 6.8 5.5 14.5 5.3 22.1-0.2 3.9-0.8 7.7-2 11.4-1 2.9-2.3 5.8-4.2 8.4-0.4 0.6-0.8 1.2-1.3 1.8-0.6 0.8-1.4 1.5-2.1 2.1l-2.2 1.8-4.4 3.4-8.7 6.7q-1.9 1.5-3.8 2.9 1.9 2.6 3.4 5.4c3.6 6.8 5.5 14.5 5.3 22.1q-0.1 2.6-0.5 5-0.2 1-0.4 2-0.4 2.2-1.1 4.4c-1.2 3.6-2.9 7.2-5.5 10.2-0.6 0.8-1.4 1.5-2.1 2.1l-2.2 1.8-4.4 3.4-8.2 6.3-1.9 3.7-5 9.8c-3.3 6.5-6.5 13.1-9.3 19.8-1.6 4.1-3.1 8.1-4.4 12.3-0.8 2.8-1.6 5.6-2.1 8.5q-0.3 1.6-0.5 3.3 2.9 0.9 5.9 1.5 0.5 0.1 1 0.2-0.5 0-1.1-0.1-2.9-0.5-5.8-1.2c-0.2 2-0.2 4.1 0 6.1q0.5 0.5 0.9 1-0.3 0.3-0.6 0.7 0.3 1.1 0.7 2.2 0.6-0.7 1.2-1.4 3.6 4.1 7.1 8.1c2.2 0.5 4.6 0.6 6.9 0.5 3.5-0.1 7.1-0.8 10.6-1.6q-1.9-2.3-3.9-4.6c3.7 1.6 7.8 3.1 12 4.3 16.4 4.9 30 8.2 41.8 9.9 33.7 48.4 83.9 12.3 83.9 12.3 0 0 7.9-15 17.3-33.4 7.3 3.5 14.3 5 20.3 5q1 0 2 0l-81.1 96.7c-1.9-1.5-4.4-3.2-8.1-5.8-9.7-6.7-25-17.4-39.3-31.1q-0.4-0.3-0.8-0.7l-8.9-9.7-5-5.4q-2.3-2.9-4.4-5.8c-5.4-7.7-14.8-19-25.8-31.7-3.4 1-7 1.9-10.6 2.2q-3 0.3-6 0c13.2 15.2 24.9 29 31 37.6 6.6 9.3 14.4 17.7 22.3 25.1-2.9 4.2-7.1 8.1-12.5 11.5-29.2 18.7-90.3 22-129.3 16.9zm-308.1-181.5c-2.7-3.3-5.7-6.6-8.7-9.6-1.2-45.4 12.5-102.8 82-124.5l32.3-2.9c2.2 0.3 10.9 1.3 30 3.6q-6.1 2.8-13.8 7.5c-17.8 2.2-39.5 8-59.9 20.7-35.4 22.2-56.2 57.6-61.9 105.2zm328.6 200l-18-16.2c10.2 1.2 22.1 1.9 34.6 1.9 33.1 0 70.7-5 93.3-19.4 5.5-3.5 9.8-7.5 12.9-11.8 14.1 13 28.6 23.1 38.1 29.6q0.5 0.4 1.1 0.8c-13 7.2-49 16.2-93.6 18.3-17.5 0.9-42.5 0.8-68.4-3.2zm41.6-522.4q3.4-0.2 6.2-0.3c5.9 18.2 4.9 68.8-9.1 86.6-8 2-13 7-15 9-2 2-1 49-1 53 0 4-24 0-24 0 0 0-4 12-4 14q0 0.6-0.2 1.2c-2.7-2.9-13.2-5.8-22.8-12.2-6-4-8-4-4 0 1.5 1.5 11.9 11.9 17.1 17.1-0.7 3.6 0.2 5.7 0 7.9-1.2 0.7-3.3 1.7-4.9 1.2-2.2-0.7-6.4-2.9-9.3-9.5l-0.8 0.7c3.7 8.7 8.3 10.8 11.4 11.1q0.3 0 0.7 0 0.9 0 1.6-0.2c-0.9 1.3-2.4 2.8-4.8 4.7-10 8-18 0-26 8-6.8 6.8-6.5 22.3-14.8 24.3-20.9-5-36.2-16.1-47.3-28.6-3.2-3.8-5.9-7.5-8.1-10.3-14.4-20.6-18.7-41.1-18.8-41.6l-1.9 0.4c0 0.4 3.5 16.8 14.3 35.1q-0.2-0.2-0.5-0.3c-7.1-1.7-19.4 11.2-23.6 17.1q-3.4-0.6-6.9-1-5.4-0.7-10.3-1.2c6.3-22 14-43.7 23-64.7 4.5-10.5 9.4-20.9 14.8-30.9 5.5-10 11.5-19.8 18.6-28.6 3.5-4.3 7.3-8.5 11.5-12.2 4.3-3.7 8.6-7.4 13.1-11q2.2-1.7 4.5-3.5c7.7-5.2 14.7-10.2 20.7-14.9q1.2-0.9 2.4-1.7c7.5-5.1 15.1-10 22.8-14.9q-0.6 0-1.1 0-6.6-0.2-13.1-0.5c-11.7-0.5-23.5-1.4-35.2-2.5q-7.1-0.6-14.2-1.5-1.5-0.1-3-0.3-3.4-0.5-6.9-0.9-6-0.8-12-1.8c-3.7-0.6-7.6-0.5-11.4-0.1-7.7 1-15.3 3.4-22.7 6.3-7.3 3-14.5 6.6-21.4 10.6-13.8 8-26.7 17.5-38.9 27.8-12.1 10.5-23.4 22-32.5 35.1-4.5 6.5-8.5 13.6-10.8 21.2-1.2 3.8-1.8 7.8-1.6 11.8 0.1 4 1.3 7.9 3.3 11.3-2.2-3.3-3.6-7.2-3.9-11.3-0.4-4 0.1-8.1 1.1-12.1 2.1-7.9 5.9-15.2 10.2-22 8.9-13.6 20.2-25.4 32.1-36.3 12.1-10.8 25.2-20.4 39.2-28.6 7-4.1 14.2-7.9 21.8-11 7.5-3.1 15.3-5.7 23.6-6.7 4.1-0.5 8.4-0.6 12.6 0.2q5.9 1 11.9 1.8 5.4 0.8 10.9 1.5 1.5 0.1 3 0.3 4.9 0.6 9.9 1.1c13.1 1.4 26.2 2.3 39.4 3q4.3 0.3 8.7 0.5 2.7 0.1 5.5 0.2 9.4 0.5 18.9 0.6 3.9-0.1 7.9-0.2-0.3 0.1-0.6 0.2c5.5 0 11-0.1 16.4-0.2q7.9-0.3 15.7-0.9 4.2-0.3 8.3-0.8c4-0.5 8-1 11.9-1.9 3.7-0.7 7.4-1.7 10.9-3.1-5.8 2.7-12.1 4.2-18.5 5.4zm-186.2 120.5c-8.2 21.5-15.1 43.4-20.6 65.7-11.8-1.4-21.4-2.5-29.2-3.4 0 0-34.3-8.4-59.8-4.7 20.7-16.2 44.3-39.2 59.8-73.3 0.1-0.2 4.1-8.5 12.4-21 24.2-5.9 50.8-17.9 74.4-31.3q-2.7 3.2-5.2 6.5c-6.9 9.4-12.7 19.5-17.9 29.8-5.1 10.4-9.7 21-13.9 31.7zm48.7 289.7c-13.6-13.7-34.4-30.9-34.4-30.9l-3.5-3.1c47.1-3.7 105.7-22.6 129.4-48.7q0.6-0.7 1.2-1.4l8 9.4h-0.1c3.8 6.2 15.6 21.6 30.5 39.4-1.7 6.1-6.3 17.1-13.2 20.8-23.3 12.3-70.9 20.8-117.9 14.5zm-134-28.2c-11 0.2-24.9 1.1-38.6 1.7l-23.8-19.6c-7.6-19.3-8.8-39.2-3.4-59.6 12.8-48.5 59.2-88 90.5-106.7 9.3-1.2 17.3-1.5 23.3-1.3-16.7 0.9-32.4 5.4-44.5 16-30.4 26.4-31.6 83.4-3.5 169.5zm28-186.1c4.7-2.7 9.1-4.9 12.8-6.5 9 1.1 20 2.4 33.5 3.9 19.7 2.3 35.7 9.5 49.2 18.3-18.2-7.4-41.4-14.1-63.9-15.1-3.8-1-15.8-2.1-31.6-0.6zm285.7 134.7q0 0.2-0.1 0.4l0.9-0.7 2.6-2 4.3-3.4 2-1.8c0.6-0.6 1.2-1.1 1.8-1.7 2.2-2.6 3.7-5.8 4.7-9.1q0.6-1.9 1-3.8 0.2-1 0.3-2 0.4-2.2 0.4-4.5c0.2-7.1-1.6-14.1-4.9-20.3q-1.4-2.4-3.1-4.7c-3.4 2.8-6.8 5.7-10 8.7-3.6 3.2-7 6.6-10.1 10.1 3.3 3.6 6 7.7 7.9 12.1 1.5 3.5 2.5 7.3 3 11.1 0.5 3.7 0.4 7.5-0.6 11.2q0 0.2-0.1 0.4zm11.1-58.4q1.9-1.5 3.7-3l8.6-6.9 4.3-3.4 2-1.8c0.6-0.6 1.2-1.1 1.8-1.7 0.3-0.4 0.5-0.8 0.8-1.2 1.7-2.3 3-5.1 3.9-7.9 1.1-3.3 1.7-6.8 1.7-10.3 0.2-7.1-1.6-14.1-4.9-20.3-3.4-6.2-8.4-11.4-14-15.7-5.7-4.3-12.1-7.6-18.8-10.2q-2.1-0.8-4.2-1.5c-5.5-1.8-11-3.2-16.7-4.4-7.3-1.6-14.5-3.4-21.5-6.3q-2.3-0.9-4.6-2.1c-4.1 4.9-8.2 9.9-12.3 14.9-4.5 5.7-9 11.5-12.7 17.7-1.9 3.1-3.4 6.4-4.4 9.7-1 3.4-1.3 6.9-0.2 10 1.1 3.1 3.4 5.7 6.2 7.7 2.9 2 6 3.6 9.4 4.9 6.6 2.7 13.7 4.5 20.8 5.9 14.5 2.9 29.1 7.5 41.4 16.5 3.6 2.8 6.9 5.9 9.7 9.4zm-14.3 57.2c0.8-3.2 0.8-6.6 0.4-9.9-0.5-3.5-1.5-6.9-2.9-10.1-1.7-3.9-4.1-7.5-6.9-10.6-0.8 0.9-1.6 1.9-2.3 2.9-2 2.9-3.9 6.1-4.8 9.5-0.5 1.7-0.7 3.4-0.5 5.2 0.2 1.7 0.9 3.3 1.9 4.7 2.1 2.9 5.4 4.8 8.7 6.2 2.1 0.8 4.2 1.5 6.4 2.1zm-37 53c0.2 1.5 0.8 2.9 1.6 4.2q1.1 1.4 2.3 2.7c1.9 1.7 4.3 3 6.7 4q0.9 0.4 1.9 0.7 0.1-1.5 0.3-3c0.5-3.5 1.3-6.9 2.3-10.2 1.1-3.8 2.4-7.5 3.8-11.2 2.6-6.9 5.6-13.6 8.8-20.3l3.5-7.2q-5.7 4.6-11.1 9.6c-5.4 4.9-10.6 10.1-14.8 16q-0.4 0.5-0.7 1.1c-1.8 2.6-3.3 5.4-4.1 8.4-0.5 1.7-0.7 3.4-0.5 5.2zm12.4 16.6q-0.1-2.2 0-4.5-1-0.3-2-0.7c-1.4-0.5-2.8-1.1-4.1-1.8q3.1 3.5 6.1 7zm108.5 239.1c-9 5.8-16.5 10.5-21.1 13.4l-44.3-39.9c3.7-4.1 9-9.9 15.1-16.7 17 14.4 43 34.1 50.3 43.2zm-30.2-65.4c32.2 5.1 74.4 12.9 95.1 19.5-17.3 14.2-42.2 31.1-61.5 43.7-7.9-10.9-34.7-35.8-47.7-47.6 4.5-5 9.3-10.3 14.1-15.6zm-429.8-211.2l-14.8-12.1c-2.8-4.7-8.7-14.7-16.6-24.7 5.4-48.1 25.9-83.6 61.3-105.7 18.9-11.9 38.7-17.7 55.4-20.4-31.5 19.7-75 58.4-87.4 105.4-5.2 19.6-4.5 38.9 2.1 57.5zm586 140.1c15.9 2.3 28.5 3.9 38.4 5.2-21.9 18.7-41.7 34.9-57.9 46.9-13.8-13.5-53-40.9-70.9-52.9 1.1-1.6 2.7-4.1 4.6-7.1 11.9 1 52.3 3.1 85.8 7.9zm-96 6.1c26.7 16.1 60.8 37.8 73.1 48.6-5.4 3.9-10.4 7.4-14.8 10.2-12.9-5.5-27.7-11.4-41.8-16.8-16.1-6.2-31.3-11.8-41.7-15.6 1.5-1.8 2.4-2.7 2.4-2.7 0 0 4.9-4.9 10.7-10.9 4.1-4.2 8.6-8.9 12.1-12.8zm60.7-80.8c26.3-1 91.8-3.6 172.8-8.2-19.7 18.1-39.7 36-58.9 53.1-42-24.6-122.8-20.3-134.1-19.5 6-7.6 13.6-17.4 20.2-25.4zm112.3 46.3c-11.8 10.4-23.4 20.5-34.4 30-39.3-4.7-103.2-14.5-123-17.8l-0.2 0.1c5.8-8.9 12.4-18.7 15.8-22.1 1.5-1.5 4.5-5.1 8.1-9.6v0.6c1-0.1 89.1-6.8 133.7 18.8zm233.2-216.8c0 0-0.6 0.5-1.6 1.6l-1.2-0.2c0-0.1 0.1-0.1 0.1-0.2-3.3 1-29.6-20.4-53.1-41.6l-0.4-0.2c-0.9-0.3-88.8-23.3-140.8-0.1 5.2-3.3 9.8-6.2 13.4-8.6 27.6-17.9 82.7-34.6 95.9-37.8l-0.5-1.9c-13.2 3.1-68.7 19.9-96.5 38-17.5 11.4-55.3 35-82.8 52.3-9.1 5.7-16.4 10.2-21.2 13.2-0.2-1.8-0.5-3.2-1-4.2l0.5 0.2c5.7-13.6 23.9-29.6 41.4-45 8.9-7.8 18-15.9 25.7-23.7 22.9-23.4 58.7-62.6 59.1-63v-0.1c2.9 1.2 8 2.9 17 5.3 25.4 6.6 64 28 64 28 0 0 37 29.1 61.3 55 12.6 13.4 21.8 25.9 20.7 33zm-49.5 10.6c13.8 0.9 26.6 1.7 36.6 1.8-12.5 12-33.3 31.9-58.7 55.9-56.2-3.5-165.3-12.2-228.6 34.1 1.1-5.2 2.6-12.9 4.2-21.7 47.5-31.6 134.9-62.1 162.3-69.8 16-4.4 52.2-2.2 84.2-0.3zm-7.5-49.3c11.1 10 45.2 40.2 53.8 41.8-1.9 1.8-4.4 4.3-7.7 7.4-10.3-0.1-24.2-1-38.5-1.9-32.1-1.9-68.6-4.1-84.8 0.4-27.2 7.6-113.2 37.6-161.3 68.9q0.5-2.9 1-6c30.4-36.9 107.6-74.6 140.2-84.6 36.6-11.1 74-20.6 99.3-14l0.5-1.9c-25.8-6.8-63.5 2.7-100.3 14-29.7 9.1-95.9 35.9-131.1 68.3 16.8-25.6 45.5-67.4 82.4-88.9 48.7-28.2 141.2-4.9 146.5-3.5zm-245.5 44.1c2.7 3.9 4.7 6.9 5.6 8.6 2.7 5-8.7 66.5-15.8 98.9q-5.6 5.4-10.5 11.6l-2 2.3q0 0 0-0.1l-0.3 0.5-11.2 13.3c-6 2.2-15.3 1.8-25.5-3.2 14-27.4 30.2-59.6 29.9-61.9-0.6-4 28.9-69.1 28.9-69.1zm11.7 52.1q-0.9 1.4-1.8 2.8c2.1-13.9 3.8-27.9 4.1-37.7 4.7-5.5 12.4-13.6 22.1-19.7 13.7-8.6 29.8-18.7 44.8-28.1-31.4 24.7-55.4 61.5-69.2 82.7zm217.2 12.6c-14.7 13.9-30.8 29-47.8 44.8-20.6 2.3-45.1 4.6-70.2 6.9-49.7 4.6-100.8 9.4-129.9 15.2 53.3-72 183.1-70 247.9-66.9zm-117.9 53.7c24.1-2.2 47.5-4.4 67.7-6.6-15.1 14-30.7 28.5-46.5 42.9-80.4 4.6-145.7 7.2-173.4 8.3 4.6-5.5 8.5-9.8 10.8-11.5 3.4-2.6 6.5-9.9 8.8-17.3 28.3-6.1 81.3-11 132.6-15.8zm-162.3 189.9q1.3 0.5 2.6 1c-1.8 4.5-8 10.9-16.6 18.2-23.1-8.2-71.1-16.4-95.3-20.2 9.8-10.9 19.2-21.3 25.7-28.4 18.6 6.5 40.3 13.9 60.3 21 8.2 2.9 16 5.7 23.3 8.4zm-102.3-515.2c1.2-3.5-1-6.6-4.3-9.6 4.8-3 22.2-11 22.2-11 0 0 12-1.7 14.3 0l20.5 1.2c-11.1-6.6-36.8-11.1-44.2-10.1-7.4 1.1-20.1 2.9-22.9 6.6-0.3-7.4-0.5-18.6 0.2-22.4 0.4-2.5 1.5-10.2 2.8-19.9 1.9-14.7 4.6-34.8 6.4-44.5 0.9-5 6.2-23.1 11.9-36.9 2.6 1.8 6.5 2.1 9.6 0 1.5-1 4.1-2.1 7.5-3.1 1.4-4.5 3.9-8.4 6.9-11.8 3.3-3.7 7.2-6.9 11.3-9.7 2.1-1.3 4.2-2.7 6.4-3.7 1.1-0.6 2.2-1.2 3.3-1.7l3.3-1.6c18.1-7.8 37.8-10.7 57.1-11.5 19.5-0.8 38.9 0.8 58.1 3.7 19.2 2.8 38.1 7.1 56.8 12.4-18.8-4.9-37.8-8.9-56.9-11.5-19.2-2.5-38.6-3.7-57.9-2.6-19.1 1.2-38.5 4.3-55.9 12.3l-3.3 1.5c-1 0.5-2.1 1.1-3.1 1.7-2.1 1.1-4.1 2.5-6.1 3.7-3.8 2.7-7.5 5.8-10.5 9.3-2.1 2.5-4 5.4-5.2 8.3 11.5-2.5 28.5-3.3 44 2.3 7.5-5.7 16-10 24.8-13.1 8.9-3.1 18.1-5 27.4-6.2 18.7-2.4 37.5-1.5 56 0.8 18.5 2.4 36.7 6.5 54.7 11.5-18.1-4.7-36.3-8.5-54.8-10.5-18.5-2-37.2-2.5-55.6 0.1-9.1 1.4-18.2 3.5-26.8 6.7-8.1 2.9-15.7 6.9-22.5 12q2.2 0.9 4.3 2c14.3 7.7 13.7 21 11.1 32.2 1-0.5 2-1.1 3-1.5l3.3-1.6c18.1-7.8 37.8-10.7 57.1-11.5 19.5-0.8 38.9 0.8 58.1 3.7 19.2 2.8 38.1 7.1 56.8 12.4-18.8-4.9-37.8-8.9-56.9-11.5-19.2-2.5-38.6-3.7-57.9-2.6-19.1 1.2-38.5 4.3-55.9 12.3l-3.3 1.5c-1 0.5-2.1 1.1-3.1 1.7-0.8 0.4-1.6 0.9-2.3 1.3-1.5 5.4-3.1 10-3.1 12.8q0.8-0.6 1.5-1.1c2.1-1.3 4.2-2.7 6.4-3.7 1.1-0.6 2.2-1.2 3.3-1.7l3.3-1.6c18.1-7.8 37.8-10.7 57.1-11.5 19.5-0.8 38.9 0.8 58.1 3.7 19.2 2.8 38.1 7.1 56.8 12.4-18.8-4.9-37.8-8.9-56.9-11.5-19.2-2.5-38.6-3.7-57.9-2.6-19.1 1.2-38.5 4.3-55.9 12.3l-3.3 1.5c-1 0.5-2.1 1.1-3.1 1.7-2.1 1.1-4.1 2.5-6.1 3.7q-1.3 1-2.7 2c3.1 13.8 16.4 59.8 16.4 59.8 0 0 3 0.7 7.2 1.5q0.1 0.5 0.2 0.9c-0.4 0.4-0.6 1-0.7 1.6q0.2 0.8 0.3 1.7c0.3 0.5 0.8 0.8 1.3 1.1q0.1 0.7 0.2 1.5 0.5 0.1 0.9 0.1 0.3 0 0.6 0c2.3-0.3 3.8-2.4 3.5-4.7q-0.1-0.7-0.4-1.3c3.9 0.6 8 0.9 11.6 0.9 0.6 1.1 1.8 1.9 3.1 1.9q0.2 0 0.3 0-1.1 3.9-2 7.9c-0.3 1.4-0.6 2.7-0.8 4.1l-0.6 3.5c-0.7-1.4-2.2-2.2-3.9-2-2 0.3-3.5 2.2-3.2 4.3 0.3 1.9 1.9 3.3 3.8 3.3q0.2 0 0.5-0.1c1-0.1 1.8-0.6 2.4-1.3l-0.1 0.7q0 2.3 0.1 4.6 0.1 0.9 0.3 1.7c-0.6-0.2-1.3-0.3-1.9-0.2-2.1 0.3-3.6 2.2-3.3 4.3 0.3 1.9 1.9 3.3 3.8 3.3q0.3-0.1 0.5-0.1c1-0.1 1.8-0.6 2.4-1.3 1 3.1 2.2 6 3.4 8.9 0.8 1.8 1.6 3.6 2.5 5.3-0.3 0.6-0.4 1.3-0.3 2 0.2 1.4 1.3 2.5 2.6 2.9q1.1 2.2 2.2 4.4 0.4 0.9 0.9 1.7-0.5 0-0.9 0c-1.9 0.3-3.3 2.1-3 4 0.2 1.7 1.7 3 3.5 3q0.2 0 0.5-0.1c1.1-0.1 2-0.8 2.5-1.8 2.5 4.7 4.9 9.2 7.3 13.8-1.1 0.6-1.7 1.9-1.6 3.2 0.3 1.6 1.6 2.7 3.2 2.7q0.2 0 0.4 0 0.5-0.1 0.9-0.3 0.5 1 1 2c2.4 4.6 4.7 9.2 6.6 13.9 1 2.3 1.9 4.6 2.5 6.8 0.3 1.1 0.6 2.2 0.8 3.2-0.9 0.6-1.5 1.6-1.3 2.8 0.1 0.9 0.7 1.6 1.4 2-0.3 5.3-2.3 10.4-5.4 15.2q0 0-0.1 0c-1.7 0.2-2.9 1.8-2.7 3.6q0.1 0 0.1 0.1-1.5 1.8-3.3 3.6-0.2 0.2-0.4 0.4c-0.6-0.2-1.3-0.4-2-0.3-1.9 0.3-3.2 2.1-3 4q0.1 0.4 0.2 0.7-0.1 0.1-0.2 0.2l-3.1 2.4-0.5 0.4q-0.8-0.3-1.7-0.2c-2.1 0.3-3.5 2.2-3.3 4.3q-1.9 1.6-3.8 3.2-0.6-0.1-1.3 0c-2.1 0.3-3.6 2.2-3.5 4.3q-0.6 0.6-1.2 1.1-1.1 1.1-2.2 2.1-0.7-0.1-1.4 0c-2.4 0.3-4.1 2.5-3.7 5q0 0 0 0.1-1.2 1.3-2.4 2.6c-0.7-0.3-1.4-0.4-2.2-0.3-2.2 0.3-3.8 2-4 4.1-2.6 0.4-5.6 1.5-9.1 3q0-0.2 0-0.5c-0.3-2.5-2.7-4.3-5.3-4-2.6 0.4-4.4 2.8-4 5.4 0.1 1 0.6 1.9 1.3 2.6q-1.2 0.5-2.3 0.9c-0.9-0.6-2.1-1-3.3-0.8-1.8 0.2-3.2 1.6-3.6 3.2-2.7 0.9-5.6 1.5-8.4 1.9-0.8 0.2-1.5 0.3-2.3 0.4-0.6-1.6-2.2-2.6-4-2.3-1.7 0.2-3 1.6-3.2 3.2-5 0.7-8.9 1.1-12.2 1.1-0.7-0.8-1.8-1.3-2.9-1.1-0.7 0.1-1.3 0.4-1.7 0.8-2-0.2-3.8-0.7-5.5-1.4 0.3-0.5 0.5-1.2 0.4-1.8-0.2-1.6-1.7-2.7-3.3-2.5-0.7 0.1-1.3 0.5-1.7 1-1.3-2.3-1.5-5.5-1.2-8.7 0.4 0.3 0.9 0.5 1.5 0.5q0.2 0 0.4-0.1c1.6-0.2 2.7-1.6 2.5-3.2-0.3-1.6-1.7-2.7-3.3-2.5q-0.3 0.1-0.5 0.2c0.2-1.4 0.5-2.6 0.7-3.6q0.2-1.2 0.4-2.1 0.3-1.5 0.2-2.7c0.5-0.6 0.8-1.4 0.6-2.3 0-0.5-0.3-1-0.6-1.4q-0.4 0.1-0.7 0.2c-1.7-4.2-5.6-6.8-7.7-8.2q-0.6-0.4-1-0.7c-1.5-1.1-4.2-2.9-6.1-4.2l1.3-10.6c2.3-0.9 4.7-1.6 7.2-2.3l16.5-5.1-1.4-3.8-15.7 7c-2.2 0.9-4.4 1.8-6.5 2.9l0.3-2.7-5.1 0.6c-0.1 0-2.3 0.3-2.6-0.9-0.3-1.6-1.2-3.8-2.4-6.2q0.1-0.4 0.1-0.8-0.3-1.4-1.5-1.8c-3-5.2-7.3-10.5-11.1-11.8-0.7-0.2-1.6-0.5-2.8-0.7 3.8-2.7 16.1-7.7 16.1-7.7 0 0 9.3-3.8 10-5.7 0.6-1.9 0-7.2-2-9.7-1.7 7.6-4.2 9.7-11.9 12.9-6.2 2.5-19.6 4.8-24.1 7.8-4-0.9-8.3-2-10.1-2.9 0.6-5.3 5.7-23.4 8.9-33.1 1.8-5.2 4-15.7 6-25 1.2-5.6 2.4-11.3 2.9-12.9zm17.7 77.6c-0.1-1.2-1.3-2.1-2.5-1.9-1.3 0.2-2.1 1.3-2 2.5 0.2 1.2 1.2 2 2.3 2q0.2 0 0.3 0c1.2-0.2 2.1-1.3 1.9-2.6zm6.1-4.9q0.2 0 0.3 0c1.4-0.2 2.4-1.5 2.2-2.9 0-0.1 0-0.2-0.1-0.3q-0.5 0.1-1 0.2-0.2-0.6-0.7-0.9-1 0.3-2 0.6c-0.2 0.3-0.3 0.6-0.2 1q0 0 0 0.1-0.5 0.1-1 0.3c0.4 1.1 1.3 1.9 2.5 1.9zm3.7 21.9q-0.2 0-0.3 0c-0.5 0.1-1 0.5-1.2 1q0.7-0.5 1.5-1zm-0.3-1.1q-0.1 0-0.1 0c-0.9 0.2-1.5 0.7-1.9 1.4q1-0.7 2-1.4zm1-10.7c-0.2-1.4-1.5-2.4-3-2.2-1.4 0.2-2.3 1.5-2.1 2.9 0.1 1.3 1.2 2.2 2.5 2.2q0.2 0 0.4 0c1.4-0.2 2.3-1.5 2.2-2.9zm5.7-4.6q0.2 0 0.4 0c1.6-0.2 2.7-1.7 2.4-3.3-0.2-1.5-1.6-2.6-3.2-2.4-1.6 0.2-2.7 1.7-2.5 3.2 0.2 1.5 1.5 2.5 2.9 2.5zm3.5 9.6q0.5-0.1 1.1-0.1c-0.3-1.5-1.7-2.5-3.2-2.2-1.6 0.2-2.7 1.6-2.4 3.2 0 0.2 0.1 0.4 0.2 0.6q0.1-0.1 0.3-0.2 0.3-0.2 0.6-0.3 0.2 0.5 0.6 0.8c0.7-0.3 1.6-0.6 2.8-0.7q0.1-0.4 0.1-0.8c0-0.1-0.1-0.2-0.1-0.3zm9.8-7.7c-0.3-1.8-1.9-3-3.6-2.7-1.8 0.2-3 1.8-2.8 3.6 0.3 1.6 1.6 2.7 3.2 2.7q0.2 0 0.4 0c1.8-0.3 3-1.9 2.8-3.6zm4.1 55.5q0.2 0 0.4 0c1.8-0.3 3-1.9 2.8-3.6-0.3-1.8-1.9-3-3.6-2.7-1.8 0.2-3 1.8-2.8 3.6 0.3 1.5 1.6 2.7 3.2 2.7zm5 9.3c-0.3-1.7-1.9-2.9-3.6-2.7-1.8 0.3-3 1.9-2.7 3.6 0.2 1.6 1.5 2.8 3.1 2.8q0.2 0 0.5-0.1c1.7-0.2 2.9-1.8 2.7-3.6zm3.3-16.8q0.2 0 0.5 0c1.9-0.3 3.2-2 2.9-4-0.2-1.9-2-3.2-3.9-2.9-1.9 0.2-3.2 2-3 3.9 0.3 1.8 1.8 3 3.5 3zm210.1-62.8c3.5 4.7 8.2 9.1 14.2 13-9.4 10.3-36.9 40.1-55.6 59.3-7.5 7.6-16.5 15.6-25.3 23.2-17.2 15.2-33.5 29.6-41.3 43.5-3.5-5.1-8.4-12.1-13.7-19.7-10-14.2-23.6-33.7-25.3-37.8q-0.2-0.6-0.5-1.1c0.7-1 1.1-2.2 0.9-3.5q-0.1-0.7-0.3-1.2 1.2-0.9 2.4-1.8 0.7 0.3 1.5 0.3 0.4-0.1 0.6-0.1c2.3-0.3 3.9-2.3 3.8-4.5 0.8-0.6 1.5-1.1 2.3-1.7q1.6-1.1 3.3-2.2 0.7-0.3 1.2-0.8 4.3-2.9 8.6-5.7l6.7-4.3c2.4-1.6 4.7-3.3 6.8-5.1 4.4-3.8 8.3-8.2 11.3-13.5q2.3-3.9 3.6-8.4c0.8-3 1.4-6 1.5-9.2 0-0.7 0.1-1.5 0.1-2.3-0.1-0.9-0.1-1.8-0.2-2.6q-0.1-0.3-0.1-0.6h1.3c0-13.8-5.9-48.4-7.1-54.9q1.7 0.4 3.7 0.4c3.8 0 8.2-1.2 12.3-4.5 7-5.6 12-15.2 16.9-24.5 1.8-3.4 3.5-6.6 5.3-9.6 2.8-4.8 5.3-11.2 6.9-17.7q0.1 0 0.3-0.1c0.6-0.1 1.2-0.3 1.7-0.7 0.5 2.2 1.1 4.6 2 7-0.8-0.6-1.8-1-2.9-0.8-1.3 0.2-2.3 0.9-2.8 1.9q0 2 0.1 3.9c0.7 1 1.9 1.7 3.2 1.7q0.3 0 0.5 0c1.9-0.3 3.2-1.8 3.3-3.6q1 1.9 2.4 3.7c-0.2 0.6-0.2 1.3-0.2 1.9 0.3 2.1 2.1 3.6 4.1 3.6q0.3 0 0.6-0.1 0.2 0 0.3-0.1c3.7 3.6 8.1 7 12.6 10.1-0.7-0.3-1.4-0.4-2.2-0.3-2.4 0.4-4.1 2.6-3.7 5 0.3 2.2 2.2 3.8 4.3 3.8q0.3 0 0.7 0c2.4-0.4 4.1-2.6 3.7-5-0.1-0.9-0.5-1.7-1-2.3q2.8 1.9 5.6 3.5c-2.3 0.6-3.9 2.8-3.5 5.3 0.3 2.3 2.3 4 4.7 4q0.3 0 0.6 0c2.6-0.4 4.4-2.8 4-5.4q0-0.3-0.1-0.7 2 1.1 3.7 1.9c-2.1 0.9-3.4 3-3.1 5.4 0.3 2.5 2.5 4.3 5 4.3q0.1 0 0.3 0-0.2 1.6-0.4 3.3c-2.1 0.8-3.4 3-3.1 5.4 0.2 1.6 1.2 2.9 2.5 3.6q-0.1 3 0.1 6c-0.6 0.9-0.9 2.1-0.8 3.3 0.2 1.1 0.6 2 1.3 2.7q0.5 3.4 1.3 6.9c-0.4 0.7-0.7 1.5-0.8 2.4l-1.8-1q-1.1 2.2-2 4.4-0.1 0-0.1 0-0.1 0-0.1 0 0.1 0.1 0.1 0.2c-1.1 2.8-2.2 5.5-3.3 8.2-1.8 4.2-3.6 8.3-5.5 12.4q-5.8 12.4-12.8 24.1c-4.6 7.8-9.8 15.3-15.3 22.5-5.4 7.3-11.5 14.1-17.6 20.8 6.4-6.5 12.7-13 18.4-20.2 5.8-7 11.3-14.4 16.2-22.1q7.5-11.5 13.8-23.7c2.1-4.1 4-8.3 6-12.4q1.1-2.5 2.2-4.9 0.6 0.8 1.2 1.6 0.4-0.5 0.5-1 0.6 0.6 1.1 1.3c0.4-0.8 0.6-1.8 0.4-2.8-0.1-1.1-0.7-2.1-1.5-2.8q0.4-0.9 0.8-1.7c0.6 1 1.5 1.7 2.6 2.1q0.8 1.8 1.7 3.6c-1.3 0.5-2.4 1.6-2.8 3q0.6 0.7 1.2 1.3-0.1 0.4 0 0.9 0 0.3 0.1 0.6c1.2 1.1 2.4 1.9 3.5 2.4q0.2 0 0.4 0 0.8-0.2 1.4-0.6 0.5 0.1 1.1-0.1zm-130.6 24.5c-1.8 0.2-3.1 1.7-3.2 3.5q0 0.4 0 0.8c0.3 1.9 1.9 3.2 3.8 3.2q0.2 0 0.5 0c1.8-0.2 3.2-1.8 3.3-3.5q0-0.4-0.1-0.8c-0.3-2.1-2.2-3.5-4.3-3.2zm-8.3 7.4c-2.2 0.4-3.8 2.4-3.5 4.7 0.3 2 2.1 3.5 4.1 3.5q0.3 0 0.6 0c2.2-0.3 3.8-2.4 3.4-4.7-0.3-2.2-2.3-3.8-4.6-3.5zm-66.5 4.9q-0.1-0.7-0.4-1.4c-1.1 0.8-1.8 2.2-1.6 3.7 0.2 1.8 1.7 3.1 3.4 3.3q-0.2-0.7-0.3-1.4c0.2 0 0.4 0.1 0.6 0.1q0.2 0 0.4 0 0 0 0.1 0 0.1-0.1 0.2-0.1-0.5 0.7-1 1.4 0.2 0 0.4 0 0.2 0 0.5 0c2.1-0.3 3.5-2.3 3.2-4.3q-0.1-0.6-0.3-1.1-0.5 0.6-0.9 1.2 0 0.1-0.1 0.1 0 0 0-0.1 0-0.6-0.4-1-0.4 0.6-0.8 1.2-0.6 0.8-1.1 1.5-0.1-0.6-0.3-1.3-0.3-1.1-0.6-2.3-0.6 0.1-1 0.5zm-0.2 15.3c0.3 1.9 1.9 3.3 3.8 3.3q0.2 0 0.5-0.1c2.1-0.3 3.5-2.2 3.2-4.3-0.2-2.1-2.2-3.5-4.3-3.2-2 0.3-3.5 2.2-3.2 4.3zm9.5-17.3q0.4 0.1 0.7 0.1 0.3 0 0.6 0c2.3-0.3 3.8-2.4 3.5-4.7q0-0.4-0.2-0.8c-0.3-1-1-1.8-1.9-2.2q-0.4 0.5-0.8 1.1-0.5-0.2-1-0.3-1.4 2-2.7 3.9 0.2 0.5 0.6 0.9-0.4 0.5-0.8 1.1c0.6 0.5 1.3 0.8 2 0.9zm-1.5 9.5c0.3 2.1 2 3.6 4.1 3.6q0.3 0 0.5 0c2.3-0.4 3.9-2.4 3.5-4.7-0.3-2.2-2.4-3.8-4.6-3.5-2.3 0.3-3.8 2.4-3.5 4.6zm1.8 13c0.3 2.1 2.1 3.6 4.1 3.6q0.3 0 0.6-0.1c2.2-0.3 3.8-2.4 3.5-4.6-0.4-2.3-2.4-3.8-4.7-3.5-2.2 0.3-3.8 2.4-3.5 4.6zm12.4-3.9q0.3 0 0.6-0.1c2.4-0.3 4.1-2.5 3.8-4.9-0.4-2.5-2.6-4.1-5-3.8-2.5 0.3-4.1 2.6-3.8 5 0.3 2.2 2.2 3.8 4.4 3.8zm37.5-36.2c-0.3-2.4-2.6-4.1-5-3.7-2.4 0.3-4.1 2.6-3.7 5 0.3 2.2 2.2 3.8 4.3 3.8q0.3 0 0.7-0.1c2.4-0.3 4.1-2.5 3.7-5zm-3.2 9.3c-2.1 0.2-3.6 2-3.7 4q-0.1 0.5 0 0.9c0.3 2.3 2.2 3.8 4.4 3.8q0.3 0 0.6 0c2.1-0.3 3.7-2 3.8-4.1q0-0.4-0.1-0.9c-0.3-2.4-2.5-4.1-5-3.7zm-22.7 7.6c0.3 2.5 2.5 4.4 4.9 4.4q0.4 0 0.8-0.1c2.7-0.4 4.6-2.9 4.2-5.7-0.3-2.7-2.9-4.7-5.6-4.3-2.8 0.4-4.7 3-4.3 5.7zm13.2-3.7q0.4 0 0.7-0.1 0.5-0.1 0.9-0.2c2.1-0.7 3.5-2.9 3.1-5.1-0.3-2.3-2.1-4-4.3-4.1q-0.5 0-1 0.1c-2.6 0.3-4.4 2.7-4 5.3 0.3 2.4 2.3 4.1 4.6 4.1zm10.9-26.1c-0.3-2.4-2.6-4.1-5-3.8-2.4 0.3-4.1 2.6-3.8 5 0.3 2.2 2.2 3.8 4.4 3.8q0.3 0 0.6 0c2.4-0.4 4.1-2.6 3.8-5zm-1.8-13c-0.4-2.4-2.6-4.1-5-3.8-2.4 0.4-4.1 2.6-3.8 5 0.3 2.2 2.2 3.8 4.4 3.8q0.3 0 0.6 0c2.4-0.3 4.1-2.6 3.8-5zm-11.5 16.7c-2.6 0.3-4.4 2.7-4.1 5.3 0.4 2.4 2.4 4.1 4.7 4.1q0.4 0 0.7 0c2.6-0.4 4.4-2.8 4-5.4-0.4-2.6-2.7-4.4-5.3-4zm-8.4 7.5c-2.7 0.3-4.6 2.9-4.3 5.6 0.4 2.6 2.6 4.4 5 4.4q0.4 0 0.7-0.1c2.8-0.4 4.7-2.9 4.3-5.7-0.4-2.7-2.9-4.6-5.7-4.2zm-6.4 21c-2.6 0.4-4.4 2.8-4 5.3 0.3 2.4 2.3 4.1 4.7 4.1q0.3 0 0.6 0c2.6-0.4 4.4-2.8 4.1-5.4-0.4-2.6-2.8-4.4-5.4-4zm-10.2 26.1c0.3 2.2 2.2 3.8 4.4 3.8q0.3-0.1 0.6-0.1c2.4-0.3 4.1-2.6 3.8-5-0.4-2.4-2.6-4.1-5-3.7-2.4 0.3-4.1 2.5-3.8 5zm12.7-3.7q0.3 0 0.6-0.1c2.6-0.3 4.4-2.7 4.1-5.3-0.4-2.6-2.8-4.4-5.4-4-2.6 0.3-4.4 2.7-4 5.3 0.3 2.4 2.4 4.1 4.7 4.1zm8.3-7.5q0.3 0 0.7 0c2.8-0.4 4.7-3 4.3-5.7-0.4-2.8-3-4.7-5.7-4.3-2.8 0.4-4.7 2.9-4.3 5.7 0.3 2.5 2.5 4.3 5 4.3zm8.3-8.1q0.3 0 0.6 0c2.6-0.4 4.4-2.8 4.1-5.4-0.4-2.5-2.8-4.3-5.4-4-2.6 0.4-4.4 2.8-4 5.4 0.3 2.3 2.3 4 4.7 4zm-2.9 8.9c0.3 2.4 2.4 4.1 4.7 4.1q0.3 0 0.7 0c2.5-0.4 4.3-2.8 4-5.4-0.4-2.6-2.8-4.4-5.4-4-2.6 0.4-4.4 2.7-4 5.3zm13-4q0.3 0 0.6 0c2.4-0.4 4.1-2.6 3.8-5-0.4-2.4-2.6-4.1-5-3.8-2.5 0.4-4.1 2.6-3.8 5 0.3 2.2 2.2 3.8 4.4 3.8zm10.5-25.7c-0.2-2-1.9-3.4-3.8-3.6q-0.4 0-0.8 0.1c-2.3 0.3-3.8 2.4-3.5 4.6 0.3 2.1 2 3.6 4 3.6q0.3-0.1 0.6-0.1c2.3-0.3 3.8-2.4 3.5-4.6zm-1.8-13c-0.3-2.2-2.4-3.8-4.6-3.5-2.3 0.3-3.9 2.4-3.5 4.7 0.2 2 2 3.5 4 3.5q0.3 0 0.6-0.1c2.3-0.3 3.8-2.3 3.5-4.6zm-1.8-13c-0.3-2.2-2.4-3.8-4.7-3.5-2.2 0.4-3.8 2.4-3.5 4.7 0.3 2 2.1 3.5 4.1 3.5q0.3 0 0.6 0c2.2-0.3 3.8-2.4 3.5-4.7zm-1.8-12.9c-0.4-2.3-2.4-3.9-4.7-3.5-2.2 0.3-3.8 2.4-3.5 4.6 0.3 2.1 2.1 3.5 4.1 3.5q0.3 0 0.6 0c2.2-0.3 3.8-2.4 3.5-4.6zm-1.9-13c-0.3-2.3-2.4-3.8-4.6-3.5-2.3 0.3-3.8 2.4-3.5 4.6 0.3 2.1 2 3.6 4.1 3.6q0.2 0 0.5-0.1c2.3-0.3 3.8-2.4 3.5-4.6zm-12.9 4c-2.5 0.3-4.1 2.5-3.8 5 0.3 2.2 2.2 3.8 4.4 3.8q0.3 0 0.6-0.1c2.4-0.3 4.1-2.6 3.7-5-0.3-2.4-2.5-4.1-4.9-3.7zm-6.6 20.4c-2.5 0.4-4.3 2.8-4 5.4 0.4 2.3 2.4 4 4.7 4q0.3 0 0.7 0c2.5-0.4 4.3-2.8 4-5.4-0.4-2.5-2.8-4.4-5.4-4zm-8.3 7.5c-2.7 0.4-4.7 2.9-4.3 5.7 0.4 2.5 2.5 4.3 5 4.3q0.4 0 0.7 0c2.8-0.4 4.7-3 4.3-5.7-0.4-2.8-2.9-4.7-5.7-4.3zm-5.4 21q-0.5 0-1 0c-2.3 0.3-3.9 2.2-4.1 4.4q0 0.5 0.1 1c0.3 2.3 2.3 4.1 4.6 4.1q0.4 0 0.7-0.1c2.6-0.4 4.4-2.7 4-5.3-0.3-2.3-2.2-4-4.3-4.1zm-9.3 8.1c-2.4 0.4-4.1 2.6-3.7 5 0.3 2.2 2.2 3.8 4.4 3.8q0.3 0 0.6 0c2.4-0.4 4.1-2.6 3.7-5-0.3-2.4-2.5-4.1-5-3.8zm3.2-9.2c-0.3-2.4-2.6-4.1-5-3.7q-0.1 0-0.2 0-1.7 2.8-3.4 5.3c0.4 2 2.2 3.4 4.2 3.5q0.4 0 0.6-0.1c2.5-0.3 4.2-2.6 3.8-5zm-25.6 53.4q0.3 0 0.5 0c1.9-0.3 3.2-2.1 3-4-0.3-1.9-2.1-3.2-4-3-1.9 0.3-3.2 2.1-3 4 0.3 1.7 1.8 3 3.5 3zm5.3 9c-0.3-1.9-2-3.3-4-3-1.9 0.3-3.2 2-2.9 4 0.2 1.7 1.7 3 3.4 3q0.3 0 0.5-0.1c1.9-0.2 3.3-2 3-3.9zm3-16.5q0.3 0 0.5 0c2.1-0.3 3.6-2.2 3.3-4.3-0.3-2.1-2.2-3.5-4.3-3.2-2.1 0.3-3.6 2.2-3.3 4.3 0.3 1.9 1.9 3.2 3.8 3.2zm5.6 8.7c-0.3-2.1-2.2-3.6-4.3-3.3-2.1 0.3-3.5 2.2-3.2 4.3 0.2 1.9 1.8 3.3 3.7 3.3q0.3 0 0.5 0c2.1-0.3 3.6-2.2 3.3-4.3zm4.5-3.2q0.3 0 0.6 0c2.2-0.3 3.8-2.4 3.5-4.7-0.3-2.2-2.4-3.8-4.7-3.5-2.2 0.4-3.8 2.4-3.5 4.7 0.3 2 2.1 3.5 4.1 3.5zm5.9 8.3c-0.3-2.2-2.4-3.8-4.6-3.5-2.3 0.3-3.9 2.4-3.5 4.7 0.3 2 2 3.5 4 3.5q0.3 0 0.6 0c2.3-0.4 3.8-2.4 3.5-4.7zm8.6-7.8c-0.3-2.4-2.6-4.1-5-3.8-2.4 0.4-4.1 2.6-3.8 5 0.4 2.2 2.3 3.8 4.4 3.8q0.3 0 0.6 0c2.5-0.4 4.1-2.6 3.8-5zm8.6-7.8c-0.4-2.6-2.8-4.4-5.3-4-2.6 0.3-4.4 2.7-4.1 5.3 0.4 2.4 2.4 4.1 4.7 4.1q0.3-0.1 0.7-0.1c2.6-0.3 4.4-2.7 4-5.3zm3.6-2.1q0.4 0 0.7-0.1c2.8-0.4 4.7-2.9 4.3-5.6-0.4-2.8-2.9-4.7-5.7-4.3-2.8 0.4-4.7 2.9-4.3 5.7 0.4 2.5 2.5 4.3 5 4.3zm6.8 7.2c-0.4-2.7-2.9-4.6-5.7-4.3-2.7 0.4-4.7 3-4.3 5.7 0.4 2.5 2.5 4.4 5 4.4q0.4-0.1 0.7-0.1c2.8-0.4 4.7-2.9 4.3-5.7zm8-7.7c-0.4-2.6-2.8-4.4-5.3-4-2.6 0.3-4.4 2.7-4.1 5.3 0.4 2.4 2.4 4.1 4.7 4.1q0.3 0 0.7-0.1c2.6-0.3 4.4-2.7 4-5.3zm8-7.7c-0.4-2.5-2.6-4.2-5-3.8-2.4 0.3-4.1 2.6-3.8 5 0.3 2.2 2.2 3.8 4.4 3.8q0.3 0 0.6-0.1c2.4-0.3 4.1-2.5 3.8-4.9zm8-7.8c-0.3-2.2-2.4-3.8-4.7-3.5-2.2 0.3-3.8 2.4-3.5 4.7 0.3 2 2.1 3.5 4.1 3.5q0.3 0 0.6 0c2.2-0.4 3.8-2.4 3.5-4.7zm8-7.7c-0.3-2.1-2.3-3.6-4.3-3.3-2.1 0.3-3.6 2.3-3.3 4.3 0.3 1.9 1.9 3.3 3.8 3.3q0.3 0 0.5 0c2.1-0.3 3.5-2.2 3.3-4.3zm7.9-7.8c-0.2-1.9-2-3.2-3.9-2.9-1.9 0.2-3.3 2-3 3.9 0.3 1.8 1.8 3 3.5 3q0.2 0 0.5 0c1.9-0.3 3.2-2 2.9-4zm4.4-10.4c-1.7 0.2-2.9 1.9-2.7 3.6 0.2 1.6 1.6 2.7 3.2 2.7q0.2 0 0.4 0c1.6-0.2 2.7-1.5 2.8-3q0-0.3-0.1-0.6c-0.2-1.7-1.8-3-3.6-2.7zm-1.8-13c-1.7 0.3-3 1.9-2.7 3.6 0.2 1.6 1.6 2.8 3.1 2.8q0.3 0 0.5-0.1c1.7-0.2 3-1.8 2.7-3.6-0.2-1.7-1.9-2.9-3.6-2.7zm17.1-141c14.9-8.2 31 3.4 36.8 10.5 6.6 8.3 1.8 28.3-4.6 39.1-1.8 3-3.5 6.3-5.3 9.7-4.7 8.9-9.6 18.2-15.9 23.3-4.8 3.9-9.6 3.7-11.5 3.5-1.8-0.2-2.9-0.7-3.5-1.1 0.6-2-0.7-5.2-3.3-11.8-2.2-5.4-5.2-12.7-4.7-15.5 0.6-2.9 2.1-4.6 3.4-5.6-0.4 1.4-0.6 2.7-0.5 3.5 0.3 2-0.3 12.3 1.7 12 2-0.3 2.6 3.7 6-0.9 3.4-4.5 7.4-5.1 9.1-7.3 1.7-2.3 8-1.2 11.2-7.7 3.1-6.6 6.3-13.1 2-14.5-4.3-1.5-12.6-2.3-16.8-3.8-4.3-1.4-8.6-2.8-8 1.1 0.6 4 12.2 14.6 16.2 14 4-0.5 3.1 7.7-3.4 4.6-6.6-3.2-15.1-6-15.1-6-0.3 0.1-8.4 2.5-9.7 9.9-0.7 3.9 2.1 10.9 4.9 17.7 1.3 3.3 3.1 7.8 3.2 9.1-0.6 1-0.7 2.5 0.8 3.9 1.8 7.9 8.1 37.3 9.3 52.5-0.8-2.7-1.7-5.2-2.6-7.7-2.1-5.2-4.5-10.1-6.9-14.9-4.9-9.6-10.2-18.9-15.4-28.1-2.6-4.5-5.1-9.1-7.5-13.7q-1.7-3.4-3.2-6.9c-1-2.2-1.8-4.5-2.2-6.4-0.7-4.2-0.3-9.5 0.2-14.6 0.6-5.1 1.3-10.3 2.3-15.5q0.8-5.2 1.9-10.4c5.4-2.8 14.6-3.5 20.4-6.9 9.1-5.2-2.4-7.5 10.7-15.1zm-25.4 148.5q-0.4 0-0.7 0.2c-1.3 0.4-2.2 1.7-2.3 3q0 0.4 0 0.8c0.2 1.7 1.7 3 3.4 3q0.1 0 0.1 0 0.2 0 0.4-0.1c0.8-0.1 1.4-0.4 1.9-0.8 0.8-0.8 1.3-1.9 1.1-3.1-0.2-1.9-2-3.3-3.9-3zm-1.9-13c-1.9 0.3-3.2 2.1-2.9 4 0.2 1.7 1.7 3 3.4 3q0.3 0 0.5 0c1.9-0.3 3.3-2.1 3-4-0.3-1.9-2-3.2-4-3zm-1.8-12.9c-1.9 0.2-3.2 2-3 3.9 0.3 1.8 1.8 3 3.5 3q0.3 0 0.5 0c1.9-0.3 3.2-2.1 3-4-0.3-1.9-2.1-3.2-4-2.9zm-4.8-9.1c0.3 1.8 1.8 3.1 3.5 3.1q0.2-0.1 0.5-0.1c1.9-0.3 3.2-2 2.9-3.9-0.2-2-2-3.3-3.9-3-1.9 0.3-3.2 2-3 3.9zm-3.5 16.5c-2.1 0.3-3.5 2.2-3.3 4.3 0.3 1.9 1.9 3.3 3.8 3.3q0.3 0 0.5 0c2.1-0.3 3.6-2.2 3.3-4.3-0.3-2.1-2.2-3.6-4.3-3.3zm-1.8-12.9c-2.1 0.3-3.6 2.2-3.3 4.3 0.3 1.9 1.9 3.2 3.8 3.2q0.3 0 0.5 0c2.1-0.3 3.6-2.2 3.3-4.3-0.3-2.1-2.3-3.5-4.3-3.2zm-1.9-13c-2 0.3-3.5 2.2-3.2 4.3 0.3 1.9 1.9 3.3 3.8 3.3q0.2 0 0.5-0.1c2.1-0.3 3.5-2.2 3.2-4.3-0.3-2.1-2.2-3.5-4.3-3.2zm-1.8-13c-2.1 0.3-3.5 2.2-3.2 4.3 0.2 1.9 1.9 3.3 3.7 3.3q0.3 0 0.6 0c2.1-0.3 3.5-2.3 3.2-4.3-0.3-2.1-2.2-3.6-4.3-3.3zm-5-8.7c0.2 1.9 1.9 3.3 3.7 3.3q0.3 0 0.6 0c2-0.3 3.5-2.2 3.2-4.3-0.3-2.1-2.2-3.5-4.3-3.3-2.1 0.3-3.5 2.3-3.2 4.3zm-5.1 3.2c-2.3 0.3-3.9 2.4-3.5 4.7 0.3 2 2 3.5 4 3.5q0.3 0 0.6 0c2.3-0.3 3.8-2.4 3.5-4.7-0.3-2.2-2.4-3.8-4.6-3.5zm-1.9-12.9c-2.2 0.3-3.8 2.4-3.5 4.6 0.3 2.1 2.1 3.5 4.1 3.5q0.3 0 0.6 0c2.2-0.3 3.8-2.4 3.5-4.6-0.3-2.3-2.4-3.9-4.7-3.5zm-1.2-4.8q0.3 0 0.6-0.1c2.2-0.3 3.8-2.4 3.5-4.6-0.4-2.3-2.4-3.8-4.7-3.5-1.2 0.1-2.2 0.8-2.8 1.7q-0.1 2.2-0.2 4.4c0.7 1.2 2.1 2.1 3.6 2.1zm2.7-24.4c0.3 1.9 1.9 3.3 3.7 3.3q0.3 0 0.6 0c2.1-0.3 3.5-2.2 3.2-4.3-0.3-2.1-2.2-3.6-4.3-3.3-2.1 0.3-3.5 2.3-3.2 4.3zm-7.3 7.7c0.1 0.7 0.6 1.4 1.1 1.8q0.1 0.8 0.1 1.6 0.7 0.3 1.6 0.3 0.3 0 0.5 0c2.3-0.4 3.9-2.4 3.5-4.7-0.3-2.2-2.4-3.8-4.6-3.5q-0.8 0.1-1.5 0.5 0.1 0.8 0.2 1.6c-0.7 0.6-1 1.5-0.9 2.4zm0.6 19.4q-0.2 1.4-0.3 2.9c0.3-0.8 0.5-1.7 0.4-2.6q0-0.2-0.1-0.3zm-3.8 16.6q0.4 0.2 0.9 0.2-0.1 0.7-0.3 1.4 0.3 0.1 0.7 0.1 0.3 0 0.6 0c2.5-0.4 4.1-2.6 3.8-5-0.2-1.8-1.6-3.2-3.3-3.7q-0.1 0.7-0.2 1.4-0.5-0.1-1-0.1-0.5 2.9-1.2 5.7zm-1.2 10.9c0.3 2.2 2.2 3.8 4.3 3.8q0.4 0 0.7 0c2.4-0.4 4.1-2.6 3.7-5-0.3-2.5-2.6-4.1-5-3.8-2.4 0.3-4.1 2.6-3.7 5zm-5.4 10q0.5 0.3 1 0.3-0.3 0.7-0.6 1.4 0.5 0.2 1 0.2 0.4 0 0.7-0.1c2.6-0.3 4.4-2.7 4-5.3-0.2-1.6-1.2-2.9-2.5-3.6q-0.2 0.8-0.5 1.5-0.4-0.3-0.9-0.4-1 3-2.2 6zm-1.4 10.8c0.3 2.3 2.4 4.1 4.7 4.1q0.3 0 0.6-0.1c2.6-0.4 4.4-2.7 4.1-5.3-0.4-2.6-2.8-4.4-5.4-4.1-2.6 0.4-4.4 2.8-4 5.4zm-6.4 9.2q-0.4 0.7-0.8 1.4c0.9 0.9 2.2 1.5 3.6 1.5q0.3 0 0.7 0c2.7-0.4 4.7-2.9 4.3-5.7-0.3-2.3-2.2-4-4.4-4.3q-0.3 0.8-0.7 1.5-0.2 0-0.4 0-0.4 0.1-0.8 0.2-1 2.2-2.1 4.2 0.2 0.7 0.6 1.2zm-6 8.9c0.2 0 0.3 0.1 0.5 0.1q0.2-0.1 0.5-0.1 0.1 0 0.2 0-0.5 0.7-0.9 1.5 0.1 0 0.2 0 0.3 0 0.7 0c2.5-0.4 4.3-2.8 4-5.4-0.1-0.7-0.4-1.4-0.8-2q-0.4 0.8-0.8 1.5-0.2-0.5-0.6-1-1.5 2.8-3 5.4zm-2.4 10.4c0.4 2.4 2.4 4.1 4.7 4.1q0.4 0 0.7-0.1c2.6-0.3 4.4-2.7 4-5.3-0.4-2.6-2.7-4.4-5.3-4-2.6 0.3-4.4 2.7-4.1 5.3zm-35.5 5c0.2 1.8 1.7 3 3.4 3q0.3 0 0.5 0c1.2-0.2 2.1-0.9 2.6-1.9q-0.4-0.6-0.9-1.2c0.1-0.2 0.1-0.5 0.1-0.7-0.2-1.1-1.2-1.9-2.3-1.9q-0.5-0.6-1-1.1c-1.6 0.5-2.7 2.1-2.4 3.8zm-41.1-64.9c3.7-1.6 7.6-2.6 11-3.6 1.4 1.6 2.9 3.1 4.7 4.5 0.4 0.3 0.9 0.6 1.4 0.9q0.4 0.2 1 0.3c0.4 0.1 0.7 0 1 0 1.2-0.3 2.2-0.7 3.3-1.2 4-1.9 7.5-4.8 10.5-8.2l-3.2-2.4c-2.1 3.4-4.9 6.6-8.3 8.9-0.9 0.6-1.8 1.1-2.6 1.4-0.7 0.4-1.7-0.1-2.6-0.6-1.8-1-3.6-2.2-5.2-3.6 3.5-1 6.5-1.9 8.4-3.2 3.7-2.6 16.5-12.5 16.5-12.5l-2 0.3c-2.3-1.8-8 1.1-15.4 6.2-4.2 2.9-9.3 5.3-13.1 6.8q0-0.2 0-0.5 0.1-1 0.1-2.2c0-0.8-0.1-1.6-0.3-2.6-0.3-0.8-0.8-1.8-1.7-2.5q0-0.3-0.1-0.7c0-0.5 0.1-1.2 0.1-1.8 0.2-1.3 0.4-2.6 0.7-3.9 0.6-2.7 1.3-5.3 2.2-7.9 0.4-1.3 0.9-2.6 1.4-3.8q0.2-0.5 0.4-0.9c0.1-0.2 0.2-0.3 0.3-0.4 0.2-0.1 0.8-0.2 1.4-0.2 2.5 0.2 5.3 1.2 8.2 1.3 0.7 0 1.6-0.2 2.1-0.1 0.6 0 1.3 0.1 1.9 0.3q2 0.4 3.9 1.2c2.6 0.9 5.2 2 7.7 3l3.9 1.6c1.3 0.5 2.6 1.1 4 1.2-1.4-0.2-2.6-0.9-3.9-1.4l-3.8-1.8c-2.5-1.2-5-2.4-7.5-3.5-1.3-0.6-2.6-1.1-4-1.5-0.7-0.2-1.4-0.4-2.1-0.5-1 0-1.4 0.1-2.1 0-2.6-0.2-5.1-1.4-8.1-1.8-0.8 0-1.7-0.1-2.7 0.4-0.5 0.3-0.9 0.8-1.1 1.1q-0.3 0.5-0.5 1c-0.7 1.3-1.2 2.6-1.8 3.9q-1.5 3.9-2.7 8c-0.4 1.4-0.7 2.8-1 4.2-0.1 0.8-0.2 1.5-0.2 2.3 0 0.5 0 0.9 0 1.4q0.2 0.4 0.3 0.9c0.1 0.2 0.2 0.4 0.4 0.6q0.1 0.1 0.2 0.3c0.1 0.1 0.3 0.2 0.2 0.2 0.4 0.2 0.6 1.1 0.5 2.3q-0.1 0.9-0.2 2c-0.1 0.6-0.2 1.3-0.1 2.3-0.9 0.2-1.6 0.4-2 0.5-2 0.3-7.1 7.1 0.6 4zm132 58.7c-0.3-2-2.2-3.5-4.3-3.2-2.1 0.3-3.5 2.2-3.2 4.3 0.2 1.9 1.9 3.3 3.7 3.3q0.3 0 0.6-0.1c2.1-0.3 3.5-2.2 3.2-4.3zm107.4-41.5c-0.3-2.2-2.3-3.8-4.5-3.8q0.5 0.8 1 1.5-0.6-0.2-1.3-0.1 1 1.6 2 3.2 0.5 0.8 0.9 1.5 0.4-0.5 0.5-1.2 0.4 0.8 0.9 1.6c0.4-0.8 0.6-1.7 0.5-2.7zm5.1 1.1c-2.2 0.3-3.8 2-4 4.1q1.6 2.6 3.2 5.1 0.7 0.2 1.4 0.2 0.4 0 0.7 0c2.6-0.4 4.4-2.8 4-5.4-0.4-2.5-2.7-4.3-5.3-4zm-1.9-12.9c-2.5 0.3-4.3 2.7-4 5.3 0.3 2.4 2.4 4.1 4.7 4.1q0.3-0.1 0.7-0.1c2.5-0.3 4.3-2.7 4-5.3-0.4-2.6-2.8-4.4-5.4-4zm-5.8-7.7c0.3 2.4 2.4 4.1 4.7 4.1q0.3 0 0.6-0.1c2.6-0.3 4.4-2.7 4.1-5.3-0.4-2.6-2.8-4.4-5.4-4-2.6 0.3-4.4 2.7-4 5.3zm-4.2 2.8c-1.9 0.2-3.3 1.7-3.7 3.4q1.7 2.5 3.4 5.3 0.4 0 0.9 0.1 0.3-0.1 0.6-0.1c2.4-0.3 4.1-2.6 3.8-5-0.4-2.4-2.6-4.1-5-3.7zm-5.6-8c0.3 2.2 2.2 3.8 4.4 3.8q0.3 0 0.6-0.1c2.4-0.3 4.1-2.5 3.7-4.9-0.3-2.5-2.5-4.1-5-3.8-2.4 0.3-4.1 2.6-3.7 5zm-4.3 3.1q0.6 0.7 1.2 1.4-0.6-0.2-1.2-0.1-0.1 0-0.2 0 1.5 1.8 3.1 4 0.3-0.6 0.2-1.3 0.6 0.7 1.1 1.5c0.2-0.7 0.3-1.3 0.2-2-0.2-2.2-2.2-3.7-4.4-3.5zm-2-13c-2.3 0.3-3.8 2.4-3.5 4.7 0.3 2 2 3.5 4 3.5q0.3 0 0.6 0c2.3-0.4 3.8-2.4 3.5-4.7-0.3-2.2-2.4-3.8-4.6-3.5zm-5.3-8.3c0.2 2 2 3.5 4 3.5q0.3 0 0.6 0c2.3-0.3 3.8-2.4 3.5-4.7-0.3-2.2-2.4-3.8-4.6-3.5-2.3 0.4-3.9 2.4-3.5 4.7zm-4.8 3.4q-0.7 0.1-1.3 0.5 0.2 0.6 0.5 1.1-0.4 0.3-0.7 0.8 1 2 2.2 3.9 0.1 0 0.2 0c0.3-0.1 0.5-0.2 0.8-0.3q0.3 0.6 0.7 1.1c1.3-0.8 2.1-2.2 1.9-3.8-0.3-2.1-2.2-3.6-4.3-3.3zm-4.9-10.2q0.4 1.9 0.9 3.7c0.7 0.7 1.7 1.1 2.7 1.1q0.3 0 0.5 0c2.1-0.3 3.6-2.2 3.3-4.3-0.3-2.1-2.2-3.5-4.3-3.3-1.6 0.3-2.8 1.4-3.1 2.8zm-88.7 155.3q-0.7 0.3-1.2 0.9 0.6-0.5 1.2-0.9zm6.5-5.6q1.1-1 2.2-2.1c-1 0.4-1.7 1.2-2.2 2.1zm18.2-73c0.2 1.6 1.6 2.7 3.1 2.7q0.2 0 0.5 0c1.7-0.3 2.9-1.9 2.7-3.6-0.3-1.8-1.9-3-3.6-2.7-1.8 0.2-3 1.8-2.7 3.6zm20.3-107.7c0.5 4 4.5 3.7 10.8 4.6 14.5 2-5.4-9.4-2-14 3.5-4.5 8-1.1 14.6 2 6.5 3.2 5.9 13.5 6.5 17.4 0.5 4-1.2 20.6 1.9 14 3.2-6.5 4.7-25.1-2.7-34.2-7.4-9.1-19.4-7.4-27.1-4.3-7.7 3.1-2.6 10.5-2 14.5zm-552.4 95.9c3.9-11.1 5.4-20.2 4-24.3h1c9.2 3.3 20.2 3.9 32.2 2.5-11.6 9.3-25.6 17.4-37.2 21.8zm231-96.8c9.7-3 19.5-5.9 29.2-9.5q-5.3 0.5-10.6 0.9c-7.8 0.4-15.6 0.6-23.4 0.7-9.1 3.2-18.3 6.4-27.3 10-9.7 4-19.4 8.4-28.2 14.4-9 5.8-16.5 14.2-21.5 23.7-2.2 4.8-4.2 9.8-5.5 14.9l-1 3.9-0.7 3.8c-0.5 2.6-0.9 5.1-1.4 7.6-2.3 9.9-6.5 19.4-12.1 28-2.8 4.2-6 8.3-9.9 11.7-3.8 3.3-8.4 6.2-13.6 6.4 5.2 0 10.1-2.6 14.1-5.9 4.1-3.2 7.6-7.2 10.6-11.4 6.2-8.4 10.9-17.9 13.8-28.1 0.7-2.5 1.2-5.1 1.8-7.6l0.9-3.7 1.1-3.6c1.5-4.9 3.6-9.5 5.9-13.9 5-8.6 12.1-15.7 20.7-20.8 8.6-5.2 18-9 27.6-12.4 9.7-3.3 19.5-6.1 29.5-9.1zm13 131.5c0-2-4-4-6-6-1.2-1.2-6.7-3.1-10.9-4.4-4.6-2.2-5.9-5.8-5.1-8.4 0.8-2.7 3.7-3.9 7.4-3.2l0.1-0.7c-5.4-1.1-8.5 0.3-9.4 3.4-0.6 2 0.2 4.8 2.3 7.4q-0.3-0.1-0.4-0.1c0.1 0 0.3 0.1 0.4 0.2 1.5 1.9 3.6 3.6 6.2 4.7 1.8 2 3.3 4.1 5.4 5.1 4 2 10 4 10 2zm-22-12q0 0 0 0 0 0 0 0zm28-47.7c-3-1.9-5.9-3.9-8.2-5.8v-0.1q-1-1.4-0.7-2.6c0.3-1.6 2.4-2.8 4-3.8 1.6-1 2.9-1.8 2.9-3 0-2.1 0-8.5-6.5-12.8-6-4-16.1-6.2-22.5-6.2l-0.3 0.6c6.2 0 16 3.4 21.7 7.2 5.6 3.7 5.6 9.3 5.6 11.1-0.2 0.3-1.2 0.9-1.9 1.3-2 1.2-4.4 2.7-5 5.2 0 0.2 0 0.3 0 0.5q-1.4-1.4-2.1-2.9c-2-4-10-12-14-18 6 18 15 25.3 27 29.3zm15-27.3c0-6-14-20-20-24-6-4-22-6-18-4 4 2 14 2 22 10 6.6 6.7 7.7 23.1 7.9 28.3-2.9 2.5-6.4 4.8-8.1 3.9l-0.3 0.7q0.9 0.4 1.9 0.4c2.2 0 4.7-1.4 6.8-2.9 2.1 3.6 5.8 3.6 7.8 3.6 2 0 0-10 0-16zm-265.7-118.1c3.5-5.1 7.5-9.8 12.1-14 2.2-2.2 4.6-4.1 7-6.1 2.5-1.8 4.9-3.8 7.5-5.4 10.4-6.8 21.9-12.1 33.9-15.5 12-3.4 24.6-4.7 37.1-3.9 12.5 0.8 24.9 4 36.4 8.6 11.5 4.6 22.8 9.6 34.1 14.3q17 7.2 34.3 13.4c11.6 4.2 23.3 7.9 35.2 11.1 11.7 3.1 23.6 5.5 35.6 7.5q0.3 0.1 0.5 0.1-0.2 0-0.4 0c-12.2-1.2-24.2-3.2-36.2-5.7-12-2.8-24-6.1-35.7-10-11.7-3.9-23.3-8.3-34.7-12.9-11.5-4.6-22.8-9.6-34.2-14-11.3-4.7-23.1-7.7-35.1-8.6-12.1-1-24.3 0.2-36.1 3.2-11.8 3-23.1 7.7-33.6 14-10.6 6.2-20 14.3-27.7 23.9zm-46.7 133.3q0.1-0.1 0.1-0.2 0.2 1.5 0.3 3c-0.2-0.9-0.3-1.9-0.4-2.8zm-0.1-14.4q-0.4 0.6-0.7 1.2c-0.1-12.4 2-24.9 6.2-36.7 6.2-16.8 16.6-32 29.8-44.2 13.2-12.2 29.3-21.1 46.4-26.6 17.2-5.5 35.4-7.4 53.3-5.9 9 0.8 17.8 2.5 26.5 4.2 8.7 1.8 17.4 3.7 26 5.6q22.7 5.1 45.3 10.1 1.2 0.2 2.5 0.5 2.1 0.5 4.2 0.9c11.9 2.6 24 4.9 36.1 6.8q1.5 0.3 3.1 0.6 6.5 0.9 13.1 1.7c8.7 1.1 17.6 1.9 26.4 2 8.2 0 16.4-0.5 24.4-2.5q0.9-0.2 1.9-0.5-1 0.3-1.9 0.6-4.5 1.3-9.3 2.1-0.9 0.2-1.8 0.3-0.6 0.1-1.3 0.2c-4 0.4-8 0.8-12 0.8-8.9 0.3-17.8-0.2-26.7-1q-4.7-0.5-9.4-1.1-4.2-0.5-8.5-1.1c-11.6-1.6-23.2-3.7-34.7-5.9q-3.5-0.6-6.9-1.3-1.3-0.3-2.6-0.5c-14.3-2.9-28.4-6.1-42.6-9.1-8.7-1.9-17.4-3.8-26-5.5-8.7-1.6-17.4-3.2-26.1-3.9-17.4-1.6-35.2 0.2-51.9 5.4-16.7 5.1-32.3 13.9-45.4 25.4-13.1 11.6-23.6 26.2-30 42.6-3.3 8.2-5.5 16.8-6.6 25.5-0.4 3.1-0.7 6.2-0.8 9.3zm441.3 5.2zm0 0z"/>
		</g>
	</g>
</svg>