<svg version="1.2" xmlns="http://www.w3.org/2000/svg" viewBox="0 0 1200 1052" width="1200" height="1052">
	<title>cash-purchase-publicdomainvectors</title>
	<style>
		.s0 { fill: #f5b28f } 
		.s1 { fill: #eef3d2 } 
		.s2 { fill: #9ec05f } 
		.s3 { fill: #83a93f } 
		.s4 { fill: #fbc3a6 } 
		.s5 { fill: #f19568 } 
		.s6 { fill: #f7a379 } 
		.s7 { fill: #f16567 } 
		.s8 { fill: #aa2123 } 
		.s9 { fill: #dc3638 } 
		.s10 { fill: #3c62ad } 
		.s11 { fill: #f18220 } 
	</style>
	<g id="Publicdomainvectors.org">
		<g id="&lt;Group&gt;">
			<path id="&lt;Path&gt;" class="s0" d="m196.6 270.5l41.6-72.2c13-22.5 35.3-35.3 61.2-35.3h133.8v214h-349.1v-106.5z"/>
			<path id="&lt;Path&gt;" class="s1" d="m338.9 490.2h233.4v-435.7h-233.4z"/>
			<path id="&lt;Compound Path&gt;" fill-rule="evenodd" class="s2" d="m387.9 70.1h135.4c0 18.4 15.1 33.5 33.5 33.5v337.6c-18.4 0-33.5 15-33.5 33.4h-135.4c0-18.4-15-33.4-33.4-33.4v-337.6c18.4 0 33.4-15.1 33.4-33.5zm67.7 145.6c-42 0-76.1 25.4-76.1 56.7 0 31.2 34.1 56.6 76.1 56.6 42.1 0 76.1-25.4 76.1-56.6 0-31.3-34-56.7-76.1-56.7zm0-95.3c-14.7 0-26.7 12-26.7 26.7 0 14.8 12 26.8 26.7 26.8 14.8 0 26.7-12 26.7-26.8 0-14.7-11.9-26.7-26.7-26.7zm0 250.5c-14.7 0-26.7 12-26.7 26.7 0 14.8 12 26.7 26.7 26.7 14.8 0 26.7-11.9 26.7-26.7 0-14.7-11.9-26.7-26.7-26.7z"/>
			<path id="&lt;Path&gt;" class="s3" d="m405.6 267.9v11.3h12.2c2.6 12.1 11.2 18.3 22.4 18.3 22.4 0 21.4-30.9 32.5-30.9 5.3 0 7.5 3 7.5 8.6 0 4.9-2 8.6-5.8 12.8l9.8 8.6c4.8-4.5 8.5-9.9 9.6-17.4h11.8v-11.3h-12c-2.3-11-10.2-17.8-21.7-17.8-21 0-20.8 30.9-32.8 30.9-5.4 0-8.1-3-8.1-9.5 0-5.6 2.3-10.8 6.8-16.7l-11.6-7.5c-5 5.5-8.1 13.7-8.9 20.6z"/>
			<path id="&lt;Path&gt;" class="s4" d="m243.1 366.2c-37.9 0-68.6-30.7-68.6-68.6 0-37.8 30.7-68.5 68.6-68.5h178.3c7.5 0 13.8 4 17 10.7 3.2 6.8 2.3 14.2-2.4 20-4.1 4.9-9 9.1-14.6 12.3-8.5 4.9-18.2 7.4-27.9 7.1h-77.8v8c-2.2 62.9-42 76.9-72.6 79z"/>
		</g>
		<g id="&lt;Group&gt;">
			<path id="&lt;Path&gt;" class="s0" d="m774.4 569.6c14.3 0 25.8 11.5 25.8 25.8 0 14.2-11.5 25.7-25.8 25.7h-39.8c2.6 4 4.1 8.8 4.1 13.9 0 14.2-11.5 25.8-25.7 25.8h-37.4c-14.2 0-25.7-11.6-25.7-25.8v-39.6c0-14.3 11.5-25.8 25.7-25.8z"/>
			<path id="&lt;Path&gt;" class="s5" d="m775.2 521.2c14.2 0 25.7 11.5 25.7 25.7 0 14.2-11.5 25.8-25.7 25.8h-59.1c13.1 1.2 23.4 12.2 23.4 25.6 0 14.2-11.5 25.7-25.7 25.7h-55.3c-14.2 0-25.7-11.5-25.7-25.7v-51.4c0-14.2 11.5-25.7 25.7-25.7z"/>
			<path id="&lt;Path&gt;" class="s6" d="m777.6 472.2c14.2 0 25.7 11.5 25.7 25.7 0 14.2-11.5 25.7-25.7 25.7h-65.4c13.1 1.2 23.3 12.3 23.3 25.7 0 14.2-11.5 25.7-25.7 25.7h-60.9c-14.2 0-25.7-11.5-25.7-25.7v-51.4c0-14.2 11.5-25.7 25.7-25.7z"/>
			<path id="&lt;Path&gt;" class="s0" d="m977 534.6l-41.7-72.2c-12.9-22.5-35.2-35.3-61.1-35.3h-133.8v194l204.5 18.8c9.1 0.8 16.9 1.2 26.1 1.2h118.4v-106.5z"/>
			<path id="&lt;Path&gt;" class="s0" d="m774.4 427.5c14.3 0 25.8 11.5 25.8 25.7 0 14.2-11.5 25.7-25.8 25.7h-59c13.1 1.2 23.3 12.2 23.3 25.6 0 14.2-11.5 25.8-25.7 25.8h-55.2c-14.3 0-25.8-11.6-25.8-25.8v-51.3c0-14.2 11.5-25.7 25.8-25.7z"/>
			<g id="&lt;Group&gt;">
				<path id="&lt;Path&gt;" class="s7" d="m603.3 675.7h260.6l20.2 328.3h-301.1z"/>
				<path id="&lt;Path&gt;" class="s8" d="m674.7 735.6c7.1 0 12.9-5.7 12.9-12.8 0-7.1-5.8-12.8-12.9-12.8-7 0-12.8 5.7-12.8 12.8 0 7.1 5.8 12.8 12.8 12.8z"/>
				<path id="&lt;Path&gt;" class="s8" d="m792.2 735.6c7.1 0 12.9-5.7 12.9-12.8 0-7.1-5.8-12.8-12.9-12.8-7 0-12.8 5.7-12.8 12.8 0 7.1 5.8 12.8 12.8 12.8z"/>
				<path id="&lt;Path&gt;" class="s9" d="m681.8 724.7c-1 3.9-5 6.2-9 5.2-3.9-1.1-6.2-5.1-5.1-9l58.8-213.6c1.1-3.9 5.1-6.2 9-5.1 2.6 0.7 4.5 2.8 5.1 5.2l58.8 213.5c1.1 3.9-1.2 7.9-5.1 9-3.9 1-8-1.3-9-5.2l-51.7-187.9z"/>
			</g>
			<path id="&lt;Path&gt;" class="s4" d="m930.5 630.3c37.9 0 68.6-30.7 68.6-68.6 0-37.8-30.7-68.6-68.6-68.6h-178.3c-7.5 0-13.8 4.1-17 10.8-3.2 6.7-2.3 14.2 2.4 20 4 4.9 8.9 9.1 14.5 12.3 8.5 4.9 18.2 7.4 28 7.1h77.8v7.9c2.1 63 41.9 76.9 72.6 79.1z"/>
		</g>
		<path id="&lt;Path&gt;" class="s10" d="m1041 691.8h138.7v-171.8h-138.7z"/>
		<path id="&lt;Path&gt;" class="s11" d="m20 420.8h103.7v-164.6h-103.7z"/>
	</g>
</svg>