<svg version="1.2" xmlns="http://www.w3.org/2000/svg" viewBox="0 0 994 1117" width="994" height="1117">
	<title>meat-steak-publicdomainvectors</title>
	<style>
		.s0 { fill: #d59694 } 
		.s1 { fill: #cf8d8b } 
		.s2 { fill: #e3a8a6 } 
		.s3 { fill: #eab9b6 } 
		.s4 { fill: #f6d2d1 } 
		.s5 { fill: #c94945 } 
		.s6 { fill: #b02e2b } 
		.s7 { fill: #dc5f5a } 
	</style>
	<g id="publicdomainvectors.org">
		<g id="&lt;Group&gt;">
			<g id="&lt;Group&gt;">
				<g id="&lt;Group&gt;">
					<path id="&lt;Path&gt;" class="s0" d="m441 881c78.6 4.1 158.4 4.1 237.1 0 53-2.8 106.4 1.8 150.3 12.6h97.8v67.1q0 5.8-2.1 11.6c-13.9 36.7-72.6 69-159.2 87.5-86.5 18.6-191.2 21.3-283.9 7.4-118.7-17.8-230.2-41.7-331.1-71-45.4-13.1-71.9-33.3-71.9-54.7v-65.9h122.1c36.2-5.8 76.1-8.1 115.1-5.2 53.2 3.8 68.1 7.6 125.8 10.6z"/>
					<path id="&lt;Path&gt;" class="s1" d="m871.8 893.6h54.4v67.1q0 5.8-2.1 11.6c-7 18.3-25.1 35.5-52.3 50.5z"/>
					<path id="&lt;Path&gt;" class="s2" d="m168.6 1001.6q-9.4-2.7-18.7-5.4c-45.4-13.1-71.9-33.3-71.9-54.7v-65.9h90.6z"/>
					<path id="&lt;Compound Path&gt;" class="s3" d="m707.2 1069.5c-28 3.6-56.9 5.6-86.2 6.3v-106.5h86.2zm-381.2-29.9q-14.2-2.9-28.2-6v-101.6h28.2zm556.4-23.1q-7.8 4.9-16.9 9.6v-98.7h16.9z"/>
					<path id="&lt;Path&gt;" class="s4" d="m441 815.1c78.6 4.1 158.4 4.1 237.1 0 67.7-3.5 135.9 4.9 184.3 22.9 48.3 17.9 71.2 43.3 61.7 68.4-13.9 36.7-72.6 69-159.2 87.5-86.5 18.6-191.2 21.3-283.9 7.4-118.7-17.8-230.2-41.7-331.1-71-45.4-13.1-71.9-33.3-71.9-54.7 0-21.3 26.5-41.5 71.9-54.7 46.8-13.6 107-20.7 165.3-16.4 53.2 3.9 68.1 7.6 125.8 10.6z"/>
					<path id="&lt;Path&gt;" class="s5" d="m439.6 818.8c-13-0.7-25.9-1.5-38.7-2.6-10-0.8-19.8-1.8-29.6-2.8-19.4-2-38.2-3.9-58-5.3-55.8-4.1-113.2 2.9-157.3 15.7-43 12.5-68.1 31.6-68.1 51.8 0 20.3 25.1 39.4 68.1 51.8 100.2 29.1 211 52.8 328.8 70.5 89.7 13.4 191.4 10.8 275.2-7.2 83.8-17.9 140.7-49.2 154.2-84.8 4.5-11.9 1.5-23.9-8.7-35.2-10.3-11.4-27.4-21.6-50.2-30.1-22.7-8.4-50.5-14.8-81-18.6-30.5-3.8-63-4.9-94.9-3.2-79.5 4.1-160.3 4.1-239.8 0z"/>
					<path id="&lt;Path&gt;" class="s4" d="m501 817.4c33.1 0.9 66.3 1 99.4 0.4-43.6 18.2-54.7 44.9-24.2 67.5 10.8 8 10 17.5-2 25.2-12.1 7.8-33.8 12.8-57.8 13.3-22.5 0.5-40.1 7.4-40.1 15.8 0 8.4 17.6 15.3 40.1 15.8 36.3 0.8 71.7 4.4 104.2 10.4 42.6 7.9 74.2 21.5 89.7 37.5-28.2 3.6-57.4 5.8-86.9 6.5-3.2-4.4-7.9-8.6-14.2-12.6-25.6-16.5-72.9-26.6-124.1-26.6-27.9 0-53.7-5.5-67.6-14.5-8.4-5.4-11.7-11.5-10-17.5-24.3 4.2-44.8 11.3-57.7 20.5-7.2 5.1-16.5 9.8-27.3 13.9q-12.4-2.6-24.7-5.3c16.6-5.5 29-12.7 35.3-20.9 8.8-11.3 32.7-20.1 63.2-23.4l29.6-3.2c9.6-10.4 6.8-22.1-8.4-31.9-22.6-14.5-9.2-33 29.9-41.4 29.4-6.3 49-17.2 53.6-29.5z"/>
					<path id="&lt;Path&gt;" class="s4" d="m78 874.3c0.3-5.5 2.3-10.9 6-16.2 18 0.3 35.5 2.7 49.8 7 31.9 9.5 77.4 9.5 109.3 0 29.2-8.7 70.8-8.7 100.1 0l-22.9-2.9c-25.2-3.2-53-0.4-70.5 7-15.5 6.6-37.4 10.2-60.1 10.4q1 1 2.2 1.9c13.2 9.8 41 15.8 70.5 15.1 26.8-0.6 52 4.8 64 13.7l12 9c-16.7-11.2-48.6-18-83.1-17.8-32.6 0.1-62.8-6.3-78.7-16.9l-9.1-6q-2.8-0.3-5.7-0.7c-27.1-3.4-55.6-4.6-83.8-3.6z"/>
					<path id="&lt;Path&gt;" class="s4" d="m897.1 854.8q4.9 3.2 9 6.5c-23.5 5.7-53.7 6.7-79.8 2.1-24.1-4.1-52.6-2.5-72.1 4.2l-17.9 6c17.4-12.3 55.4-18.5 91.6-14.9 24.2 2.4 49.2 0.8 69.2-3.9z"/>
					<path id="&lt;Path&gt;" class="s4" d="m882.4 950.7q-7.7 4.9-16.6 9.4-2-1.2-3.7-2.5c-17.4-13.8-58.2-21.2-98.2-17.9-36.6 3.1-73.9-3.7-89.9-16.3l17.2 6.4c18.8 6.9 47.1 9 71.6 5.2 30.5-4.8 65.8-2.2 89.3 6.5 9.3 3.4 19.5 6.5 30.3 9.2z"/>
					<path id="&lt;Compound Path&gt;" class="s6" d="m247 814.7l15.7-1.5c25.6-2.3 52.7 0.4 71.7 7.2 13.2 4.7 18.4 11.7 13.6 18.3-4.7 6.6-18.7 11.7-36.5 13.4q-22.5 2-44.8 4.4c-12.8 1.4-26.4 1.4-39.2 0-20.7-2.2-42.6-2.2-63.2 0-8.2 0.9-17 0-23-2.2-6-2.2-8.3-5.5-6-8.5 10.1-13.1 37.6-23.3 72.8-27 13-1.4 25.9-2.9 38.9-4.1zm365.2 14.8l12.2-0.9c32.6-2.5 66.3-2.5 98.9 0 19.9 1.5 37.9 5.4 51.4 11 6.9 2.9 8 7.1 2.8 10.4-5.2 3.4-15.6 5.1-25.8 4.3-13-1-26.5 0.5-36 4-9.4 3.5-13.4 8.5-10.8 13.4 3.5 6.3 16.9 11.3 34 12.6 16.3 1.2 33.2-0.5 45.6-4.6 18.8-6.1 47.3-5.8 65 0.8 17.7 6.5 18.6 17.1 1.9 24.1-7.6 3.2-10.8 7.5-8.5 11.7 1.7 3-0.8 6.1-6.6 8.2-5.8 2.2-14.1 3.1-22.2 2.5-22.4-1.7-45.4-1.7-67.8 0-29.4 2.2-58.6-4-68-14.6-10-11.2-26.1-21.5-47.2-30.3-15.5-6.5-21.9-15.3-17.2-23.8 2.9-5.2-1-10.7-10.6-14.7-10.6-3.4-9.8-6.4-5.8-9.7 2.8-2.3 8-3.9 14.7-4.4z"/>
					<path id="&lt;Compound Path&gt;" fill-rule="evenodd" class="s7" d="m561.8 925.8c30.1-2 61.1 1.1 84.5 8.4 30.3 9.5 70.3 13.4 109.3 10.9 15.9-1.1 31.8 1.6 39.9 6.8 8 5.2 6.5 11.7-3.9 16.3-17.5 7.7-46.1 10.5-71.7 7.1-31.4-4.2-60.5-10.5-86-18.4-30.2-9.5-70.2-13.5-109.2-10.9-11.9 0.8-23.4-1.9-26.5-6.2-3.1-4.4 3.2-8.8 14.5-10.4 16.5-1.2 32.4-2.5 49.1-3.6zm-436.9-22.1l15.3-2.9c18.8-3.6 41.1-3.6 59.9 0 15.7 3 32.9 4.7 50.6 5 15.7 0.3 30 3.6 37.9 8.6 7.9 5.1 8.3 11.3 1.2 16.5-4.9 3.6-13.6 6.2-24 7.2-10.4 1.1-21.4 0.4-30.4-1.8-23.2-5.6-47.2-10.7-71.8-15.3-16.2-3.1-29.4-8-37.7-14zm142-14c-6.3 0.7-13.1 0.1-17.8-1.6-4.7-1.7-6.6-4.3-4.8-6.6 1.8-2.4 6.8-4.2 13.2-4.8l9.4-3.2 10.9-3.6c13.9-4.5 34.8-4.5 48.7 0 10.6 3.5 24.9 4.9 38.8 3.9 8-0.6 16.4 0.3 22.3 2.5 5.8 2.1 8.3 5.2 6.7 8.2-2.6 4.8-2.6 9.7 0 14.4 2.1 3.8-2.3 7.8-11 10-8.8 2.1-20.3 2.1-29 0-8.8-2.2-13.2-6.2-11.1-10 2.1-3.8-3.7-7.6-13.6-8.8q-1.6-0.2-3.3-0.4c-19.4-2.1-40-2.1-59.4 0z"/>
					<path id="&lt;Path&gt;" class="s4" d="m686.5 1006q-16.9 1.7-34.2 2.7c-29.6-21.4-79.9-38-141.4-46.4l-19-2.6c29.9 1.9 59.4 4.8 87.9 8.7q1.7 0.3 3.5 0.5c46.6 6.7 83.9 20.1 103.2 37.1z"/>
					<path id="&lt;Compound Path&gt;" class="s3" d="m520 817.8q16.7 0.3 33.4 0.4c-9.9 7.7-14.2 16.3-12.4 25 0.6 2.8-3.6 5.5-10.5 6.7-13.2 2.4-23 6.7-26.8 12-3.7 5.2-1.2 10.8 7.1 15.3 10.9 5.8 14.3 13.2 9.3 20.1-5 6.9-17.8 12.6-35.2 15.7l-14 2.5c0-10.7-7.7-21.3-22.2-30.6-11.1-7.2-4.5-16.4 14.8-20.5 12.2-2.6 22.3-6.4 29.3-10.9 17-10.9 26.3-23.1 27.2-35.7zm166.5 188.2c-11.3 1.1-22.7 2-34.2 2.6-29.6-21.3-79.9-37.9-141.4-46.3l-19-2.6c29.9 1.9 59.4 4.8 87.9 8.7q1.7 0.3 3.5 0.5c46.6 6.7 83.9 20.1 103.2 37.1z"/>
				</g>
				<g id="&lt;Group&gt;">
					<path id="&lt;Path&gt;" class="s0" d="m424.4 775.7c78.7 4.1 158.4 4.1 237.1 0 53-2.7 106.4 1.9 150.3 12.7h97.8v67q0 5.8-2.1 11.6c-13.9 36.7-72.6 69-159.2 87.6-86.5 18.5-191.2 21.2-283.9 7.3-118.7-17.8-230.2-41.7-331.1-70.9-45.4-13.2-71.9-33.4-71.9-54.7v-65.9h122.1c36.2-5.9 76.1-8.1 115.1-5.3 53.2 3.9 68.1 7.6 125.8 10.6z"/>
					<path id="&lt;Path&gt;" class="s1" d="m855.2 788.4h54.4v67q0 5.8-2.1 11.6c-7 18.4-25.1 35.6-52.3 50.6z"/>
					<path id="&lt;Path&gt;" class="s2" d="m152.1 896.3q-9.5-2.6-18.8-5.3c-45.4-13.2-71.9-33.4-71.9-54.7v-65.9h90.7z"/>
					<path id="&lt;Compound Path&gt;" class="s3" d="m690.6 964.3c-27.9 3.5-56.9 5.6-86.1 6.2v-106.4h86.1zm-381.2-29.9q-14.2-2.9-28.2-6v-101.7h28.2zm556.4-23q-7.8 4.9-16.9 9.5v-98.7h16.9z"/>
					<path id="&lt;Path&gt;" class="s4" d="m424.4 709.9c78.7 4.1 158.4 4.1 237.1 0 67.7-3.6 135.9 4.9 184.3 22.8 48.3 18 71.2 43.3 61.7 68.4-13.9 36.8-72.6 69.1-159.2 87.6-86.5 18.5-191.2 21.2-283.9 7.3-118.7-17.8-230.2-41.6-331.1-70.9-45.4-13.2-71.9-33.3-71.9-54.7 0-21.4 26.5-41.6 71.9-54.7 46.8-13.6 107-20.7 165.3-16.5 53.2 3.9 68.1 7.7 125.8 10.7z"/>
					<path id="&lt;Path&gt;" class="s5" d="m423 713.5c-13-0.7-25.9-1.5-38.7-2.5-10-0.8-19.8-1.8-29.6-2.8-19.4-2-38.2-3.9-58-5.3-55.8-4.1-113.1 2.9-157.3 15.7-42.9 12.4-68.1 31.6-68.1 51.8 0 20.2 25.2 39.3 68.1 51.8 100.2 29 211 52.7 328.8 70.4 89.7 13.5 191.4 10.8 275.2-7.1 83.8-18 140.7-49.3 154.2-84.9 4.5-11.8 1.5-23.9-8.7-35.2-10.3-11.3-27.4-21.6-50.2-30-22.7-8.5-50.5-14.8-81-18.6-30.5-3.8-63-4.9-94.8-3.3-79.5 4.2-160.4 4.2-239.9 0z"/>
					<path id="&lt;Path&gt;" class="s4" d="m484.4 712.2c33.1 0.8 66.3 1 99.4 0.4-43.6 18.1-54.7 44.8-24.2 67.5 10.8 8 10 17.5-2 25.2-12.1 7.7-33.8 12.7-57.8 13.3-22.5 0.5-40.1 7.4-40.1 15.8 0 8.3 17.6 15.3 40.1 15.8 36.3 0.8 71.7 4.3 104.2 10.3 42.6 7.9 74.2 21.5 89.7 37.5-28.2 3.7-57.4 5.9-86.9 6.6-3.2-4.4-7.9-8.7-14.2-12.7-25.6-16.4-72.9-26.6-124.1-26.6-27.9 0-53.7-5.5-67.6-14.4-8.4-5.4-11.7-11.6-10-17.5-24.3 4.2-44.8 11.3-57.7 20.5-7.2 5.1-16.4 9.8-27.3 13.9q-12.4-2.6-24.7-5.3c16.6-5.5 29-12.7 35.3-20.9 8.8-11.3 32.7-20.2 63.2-23.4l29.6-3.2c9.6-10.5 6.8-22.1-8.4-31.9-22.5-14.5-9.2-33 29.9-41.4 29.4-6.3 49-17.2 53.6-29.5z"/>
					<path id="&lt;Path&gt;" class="s4" d="m61.4 769.1c0.3-5.6 2.3-11 6-16.2 18 0.3 35.5 2.7 49.8 7 31.9 9.5 77.4 9.5 109.3 0 29.3-8.8 70.9-8.8 100.1 0l-22.9-3c-25.2-3.1-53-0.4-70.5 7.1-15.5 6.5-37.4 10.2-60.1 10.3q1 1 2.2 2c13.3 9.8 41 15.7 70.5 15.1 26.8-0.6 52 4.8 64 13.7l12.1 8.9c-16.8-11.1-48.7-18-83.2-17.8-32.6 0.2-62.8-6.3-78.7-16.8l-9.1-6.1q-2.8-0.2-5.6-0.6c-27.1-3.4-55.7-4.6-83.9-3.6z"/>
					<path id="&lt;Path&gt;" class="s4" d="m880.5 749.6q4.9 3.1 9 6.4c-23.5 5.8-53.7 6.7-79.8 2.2-24.1-4.2-52.6-2.6-72.1 4.1l-17.9 6.1c17.4-12.3 55.4-18.6 91.7-14.9 24.1 2.4 49.1 0.8 69.1-3.9z"/>
					<path id="&lt;Path&gt;" class="s4" d="m865.8 845.4q-7.7 4.9-16.6 9.5-2-1.2-3.7-2.6c-17.4-13.7-58.2-21.1-98.2-17.8-36.6 3-73.9-3.8-89.9-16.3l17.2 6.3c18.8 7 47.1 9 71.6 5.2 30.6-4.7 65.8-2.2 89.3 6.5 9.3 3.5 19.5 6.5 30.3 9.2z"/>
					<path id="&lt;Compound Path&gt;" class="s6" d="m230.4 709.4l15.7-1.4c25.6-2.4 52.7 0.3 71.7 7.1 13.2 4.8 18.4 11.8 13.7 18.4-4.8 6.5-18.8 11.7-36.6 13.3q-22.5 2.1-44.8 4.5c-12.8 1.3-26.4 1.3-39.2 0-20.7-2.2-42.6-2.2-63.2 0-8.2 0.8-17 0-23-2.2-6-2.3-8.3-5.5-6-8.6 10.1-13 37.6-23.3 72.8-27 13-1.4 25.9-2.8 38.9-4.1zm365.2 14.9l12.2-1c32.6-2.4 66.3-2.4 99 0 19.8 1.6 37.8 5.4 51.3 11 6.9 2.9 8 7.1 2.8 10.5-5.2 3.3-15.6 5-25.8 4.3-13-1-26.5 0.5-35.9 4-9.5 3.5-13.5 8.5-10.9 13.3 3.6 6.4 16.9 11.3 34 12.6 16.3 1.3 33.2-0.4 45.7-4.5 18.7-6.2 47.2-5.9 64.9 0.7 17.7 6.6 18.6 17.2 1.9 24.1-7.6 3.2-10.8 7.6-8.5 11.8 1.7 2.9-0.8 6-6.6 8.2-5.8 2.1-14.1 3.1-22.2 2.5-22.4-1.7-45.4-1.7-67.8 0-29.4 2.2-58.6-4.1-68-14.6-10-11.2-26.1-21.5-47.2-30.3-15.5-6.5-21.9-15.3-17.2-23.8 2.9-5.3-1-10.7-10.6-14.7-10.6-3.4-9.8-6.5-5.7-9.8 2.8-2.3 7.9-3.8 14.6-4.3z"/>
					<path id="&lt;Compound Path&gt;" fill-rule="evenodd" class="s7" d="m545.2 820.5c30.1-2 61.1 1.1 84.5 8.4 30.3 9.5 70.4 13.5 109.4 10.9 15.8-1 31.7 1.7 39.8 6.9 8 5.2 6.5 11.6-3.9 16.2-17.5 7.7-46.1 10.6-71.7 7.1-31.3-4.2-60.5-10.4-86-18.4-30.2-9.4-70.2-13.4-109.2-10.8-11.9 0.7-23.4-2-26.5-6.3-3.1-4.3 3.2-8.8 14.5-10.3 16.5-1.3 32.4-2.6 49.1-3.7zm-436.9-22.1l15.4-2.9c18.7-3.5 41-3.5 59.8 0 15.7 3 32.9 4.7 50.6 5.1 15.7 0.3 30 3.5 37.9 8.6 7.9 5.1 8.3 11.3 1.2 16.5-4.9 3.5-13.6 6.2-24 7.2-10.4 1-21.4 0.4-30.4-1.8-23.2-5.6-47.2-10.7-71.8-15.4-16.2-3-29.4-7.9-37.7-14zm142-13.9c-6.3 0.7-13.1 0.1-17.8-1.7-4.7-1.7-6.5-4.2-4.8-6.6 1.8-2.3 6.8-4.1 13.2-4.7l9.4-3.2 10.9-3.6c13.9-4.6 34.8-4.6 48.7 0 10.6 3.4 24.9 4.9 38.8 3.8 8.1-0.6 16.4 0.4 22.3 2.5 5.8 2.2 8.3 5.3 6.7 8.3-2.6 4.7-2.6 9.6 0 14.4 2.1 3.8-2.3 7.7-11 9.9-8.8 2.2-20.3 2.2-29 0-8.8-2.2-13.2-6.1-11.1-9.9 2.1-3.8-3.7-7.6-13.6-8.8q-1.6-0.2-3.3-0.4c-19.4-2.1-40-2.1-59.4 0z"/>
					<path id="&lt;Path&gt;" class="s4" d="m669.9 900.7q-16.9 1.7-34.2 2.7c-29.6-21.3-79.9-38-141.4-46.4l-19-2.5c30 1.8 59.4 4.8 87.9 8.7q1.7 0.2 3.5 0.5c46.7 6.6 83.9 20 103.2 37z"/>
					<path id="&lt;Compound Path&gt;" class="s3" d="m503.5 712.6q16.6 0.3 33.3 0.3c-9.9 7.8-14.2 16.4-12.4 25 0.6 2.9-3.6 5.6-10.5 6.8-13.2 2.3-23 6.7-26.7 11.9-3.8 5.3-1.3 10.8 7 15.3 10.9 5.9 14.3 13.3 9.3 20.2-5 6.9-17.8 12.6-35.2 15.7l-14 2.5c0-10.8-7.7-21.4-22.2-30.7-11.1-7.1-4.5-16.3 14.8-20.4 12.2-2.6 22.3-6.4 29.3-10.9 17-10.9 26.3-23.2 27.3-35.7zm166.4 188.1q-16.9 1.7-34.2 2.7c-29.6-21.3-79.9-38-141.4-46.4l-19-2.5c30 1.8 59.4 4.8 87.9 8.7q1.7 0.2 3.5 0.5c46.7 6.6 83.9 20 103.2 37z"/>
				</g>
				<g id="&lt;Group&gt;">
					<path id="&lt;Path&gt;" class="s0" d="m87.3 386q13.6-22.2 27.1-44.5c47.1-77.2 112-142.1 189.2-189.1q52.7-32.2 106.9-61.8c66.7-36.3 147.2-36.3 213.8 0q38.6 21.1 76.1 43.9c44.5 27.2 96.3 43.9 135.5 78.3 61.7 54.2 93.3 131.5 70.8 232.6q-409.7-29.7-819.4-59.4z"/>
					<path id="&lt;Path&gt;" class="s3" d="m277.8 169.1q6.6-4.6 13.4-8.9c1.7 21.1 8.1 41.6 18.7 60l5.9 10.4-8.9 30.6c-20.9-26.1-31.2-59-29.1-92.1z"/>
					<path id="&lt;Path&gt;" class="s3" d="m614.4 85.6q5 2.4 9.9 5 38.6 21.1 76.1 43.9l0.9 0.6c4 10.9 5.5 22.7 4 35.4q-41-10.7-82-21.4c6.2-20.8 0.6-43.9-8.9-63.5z"/>
					<g id="&lt;Group&gt;">
						<path id="&lt;Path&gt;" class="s4" d="m409.7 661.9c79.2-6.3 158.8-1.5 236.6 14.3 67 13.5 136.5-5.2 187.7-50.5 51.2-45.4 78.1-112.1 72.7-180.3-8-99.6-61.3-190-144.7-245.1-83.4-55.1-187.5-68.7-282.2-36.8-121.4 40.7-236.5 98.3-342 170.9-47.5 32.7-77.2 85.4-80.7 142.9-3.5 57.5 19.8 113.4 63 151.5 44.5 39.3 103.4 62.1 162.3 54.1 53.8-7.2 69.2-16.4 127.3-21z"/>
						<path id="&lt;Path&gt;" class="s5" d="m408.9 652c-13.1 1-26.1 2.5-39.1 4.5-10.1 1.6-20 3.6-30 5.7-19.7 4.2-38.7 8.2-58.7 10.9-56.4 7.6-112.5-14.7-154.5-51.8-40.8-36.1-62.8-89-59.6-143.4 3.3-54.5 31.5-104.4 76.4-135.3 104.7-72 219.1-129.2 339.6-169.7 91.7-30.8 192.8-17.6 273.5 35.7 80.8 53.4 132.5 141 140.2 237.6 2.6 32.1-2.4 64.3-14.4 94.2-12 29.8-30.8 56.5-54.9 77.8-24.1 21.4-52.8 36.8-83.9 45.2-31.1 8.4-63.7 9.4-95.2 3-78.7-15.9-159.4-20.8-239.4-14.4z"/>
						<path id="&lt;Path&gt;" class="s4" d="m470 659.3c33.1-0.3 66.3 1.3 99.2 4.9-40.5-51.5-47.3-124-13.1-183.1 12-20.9 12.7-46.4 2-67.9-10.8-21.6-31.6-36.3-55.6-39.2-22.4-2.7-38.8-22.4-37.4-44.9 1.3-22.5 20-40.1 42.6-40.1 36.3 0 72.3-7.4 105.7-21.6 43.8-18.7 77.5-53.3 95.5-95.5-27.4-11.5-56.3-19.2-85.6-22.8-3.9 11.5-9.3 22.7-16.2 33.2-28.2 42.7-77.1 67.1-128.2 64-27.9-1.6-54.5 11.7-69.8 34.9-9.3 14-13.6 30.3-12.9 46.5-23.5-12.9-42.8-33.2-54.2-58.6-6.4-14.3-14.9-27.4-25.1-39.1q-12.7 6.2-25.4 12.7c15.6 15.8 26.8 36 31.9 58.4 6.9 30.9 29.3 56.2 59.2 66.8l29.1 10.3c7.9 28.8 3.2 59.9-13.6 85.4-24.9 37.6-14.5 88.2 23.1 113.1 28.3 18.7 46.1 49.3 48.8 82.6z"/>
						<path id="&lt;Path&gt;" class="s4" d="m56.9 480.9c-0.6 14.8 0.6 29.5 3.4 43.8 18 0.3 35.8-5.1 50.8-15.7 33.4-23.7 78.8-21 109.2 6.5 27.7 25.2 69.3 27.7 99.8 6.1l-23.3 6.4c-25.6 7-53-2.1-69.2-23.1-14.4-18.6-35.7-29.7-58.3-31.5q1.1-2.6 2.5-5.1c14.8-25.6 43.5-40 72.8-36.4 26.7 3.3 52.7-9.7 66.1-33l13.5-23.4c-18.6 29-51.5 45.5-85.8 42.9-32.6-2.4-63.8 13.2-81.4 40.7l-10 15.6q-2.9 0.6-5.8 1.4c-27.6 7.6-56.3 9.2-84.3 4.8z"/>
						<path id="&lt;Path&gt;" class="s4" d="m871.4 582.5q5.4-8.2 10-16.8c-22.5-17-52.5-21.3-79.3-10.7-24.7 9.8-52.9 3.7-71.3-15.4l-16.8-17.4c15.3 34.2 52.3 53.2 89 45.7 24.5-5 49.1 0.8 68.4 14.6z"/>
						<path id="&lt;Path&gt;" class="s4" d="m872.3 323.7q-7-13.6-15.1-26.4-2.2 3.2-4.1 6.6c-19.6 36-61.5 53.5-100.9 42.2-36-10.4-74.4 5.6-92.4 38.5l18.2-16.1c19.9-17.6 48.5-21.4 72.3-9.7 29.7 14.7 65.4 9.9 90.2-12.1 9.9-8.7 20.5-16.4 31.8-23z"/>
						<path id="&lt;Compound Path&gt;" class="s6" d="m216 651.4l15.4 4.8c25.2 8 52.6 2.3 72.7-14.8 13.9-12 20.3-30.6 16.6-48.6-3.7-18-16.8-32.6-34.3-38.1q-22.1-6.9-44-14.6c-12.6-4.5-26.1-5.3-39.2-2.4-20.9 4.7-42.8 3.3-63-3.8-8-2.8-17-1.1-23.3 4.6-6.4 5.6-9.2 14.3-7.4 22.6 8 35.7 33.8 64.8 68.3 77 12.7 4.5 25.4 9.2 38.2 13.3zm366.9-18l12 3.3c32.2 8.6 65.8 10.6 98.8 5.9 20.1-2.9 38.7-12.2 53-26.5 7.4-7.3 9.2-18.6 4.5-27.9-4.6-9.3-14.7-14.6-25-13.1-13.2 1.9-26.4-3-35.3-12.9-8.8-10-12-23.7-8.6-36.6 4.5-16.9 18.7-29.4 35.9-31.9 16.5-2.3 33.1 3.2 44.9 15 17.7 17.7 46.2 18.6 64.9 2 18.8-16.7 21.3-45 5.9-64.7-7.2-9.1-9.6-21-6.6-32.2 2.1-7.9 0.1-16.4-5.3-22.5-5.5-6.1-13.6-9.1-21.7-8-22.7 3.3-45.7 1.9-67.8-4-28.9-7.8-59 7.3-70.2 35.1-11.8 29.4-29.5 56.2-52 78.7-16.5 16.5-24.3 39.8-21 62.9 2.1 14.3-2.8 28.7-13 38.9-11.2 8.5-10.8 16.8-7.3 25.9 2.4 6.4 7.3 10.9 13.9 12.6z"/>
						<path id="&lt;Compound Path&gt;" fill-rule="evenodd" class="s7" d="m499.8 358.7c-11.1-4.8-16.6-17.2-12.8-28.7 3.8-11.4 15.7-18 27.4-15.2 38.5 9.3 79.1 1 110.8-22.6 26.8-20 56.8-35 88.8-44.4 26.1-7.7 54.2 1.7 70.4 23.5 9.7 12.9 10.2 30.4 1.3 43.9-8.9 13.4-25.2 19.8-40.9 16.1-38.5-9.4-79.2-1-110.9 22.6-24.6 18.3-56 24.8-85.7 17.6-16.5-4-32.1-8.5-48.4-12.8zm-389.7 37.1c9.2-15.7 23.1-28.1 39.8-35.3 25.4-11.1 50.1-23.4 74.2-37.1 9.3-5.3 20.5-6.4 30.6-3 10.2 3.4 18.5 11 22.8 20.8 6.3 14.5 4.8 31.2-3.9 44.3-8.7 13.2-23.4 21.1-39.2 21-17.7-0.2-35.1 3.4-51.3 10.5-19.4 8.4-41.6 7-59.7-3.6l-14.9-8.8zm197.2 58.4q1.6-0.4 3.3-0.8c10-2.7 16.5-12.5 15-22.8-1.5-10.5 3.5-20.8 12.6-26.1 9.1-5.4 20.6-4.7 29 1.7 8.4 6.4 12.1 17.3 9.4 27.5-3.4 12.6-4.2 25.7-2.4 38.6 1.2 8.2-1.8 16.4-8 21.9-6.2 5.5-14.7 7.5-22.7 5.3-13.6-3.6-28.2-0.6-39.3 8.1-14.6 11.4-35.4 10.2-48.6-2.9l-10.3-10.3-8.8-9.3c-6.3-1.9-11.1-7.1-12.4-13.6-1.4-6.4 0.8-13.1 5.8-17.5 4.9-4.3 11.9-5.6 18.1-3.4 19 6.9 39.6 8.1 59.3 3.6z"/>
						<path id="&lt;Path&gt;" class="s4" d="m685.6 163.2q-16.6-5.5-33.6-9.2c-33.1 55.6-86 97.3-148.7 116.2l-19.4 5.8c30.2-3.3 60.1-9.4 89.1-18.2q1.8-0.6 3.7-1.1c47.6-15.1 86.9-48.9 108.9-93.5z"/>
						<path id="&lt;Compound Path&gt;" class="s3" d="m489 659.3q16.7 0.3 33.4 1.1c-8.6-21.4-11.5-44.8-8.3-67.9 1-7.7-2.7-15.2-9.5-18.9-12.7-7.1-21.8-19.4-24.7-33.7-2.9-14.3 0.5-29.2 9.5-40.7 11.8-15.2 16.4-34.8 12.6-53.7-3.9-18.8-15.8-35-32.6-44.3l-13.6-7.6c-1.8 28.9-11.1 56.9-27.1 81.1-12.3 18.6-7.2 43.6 11.4 55.9 11.8 7.8 21.3 18.5 27.6 31.1 15.1 30.3 22.4 63.8 21.3 97.6zm196.6-496.1q-16.6-5.5-33.6-9.2c-33.1 55.6-86 97.3-148.7 116.2l-19.4 5.8c30.2-3.3 60.1-9.4 89.1-18.2q1.8-0.6 3.7-1.1c47.6-15.1 86.9-48.9 108.9-93.5z"/>
					</g>
				</g>
			</g>
		</g>
	</g>
</svg>