<?xml version="1.0" encoding="utf-8"?>

<!DOCTYPE svg PUBLIC "-//W3C//DTD SVG 1.1//EN" "http://www.w3.org/Graphics/SVG/1.1/DTD/svg11.dtd">
<svg version="1.1" id="Layer_1" xmlns="http://www.w3.org/2000/svg" xmlns:xlink="http://www.w3.org/1999/xlink" x="0px" y="0px"
	 viewBox="-290.1 -410 1186 1680.8" enable-background="new -290.1 -410 1186 1680.8" xml:space="preserve">
<g>
	<path fill="#813B1F" stroke="#813B1F" stroke-width="0.3" d="M127.2-341.7c12-3.4,24.7-3.5,37.1-3.6c18.5,0.2,37.1,1.8,55.1,6.3
		c-25.2,0.8-51.4,0.1-75.4,9.3C139.7-335.3,134.1-339.9,127.2-341.7z"/>
	<path fill="#B76140" stroke="#B76140" stroke-width="0.3" d="M88.4-328.5c12.4-5.5,25-12.1,38.8-13.2c7,1.8,12.5,6.4,16.9,12
		c-10.6,4.6-21.7,7.8-31.9,13.2c-5.4,2.6-10.4,6.2-16.3,7.5c-2.3-6.1-4.8-12.2-7-18.4L88.4-328.5z"/>
	<path fill="#9F5B48" stroke="#9F5B48" stroke-width="0.3" d="M454.2-336.2c12.3,2.7,15,16.6,19.7,26.2c5.3,3,11.1,4.9,16.6,7.3
		c-6.4-2.2-12.9-4.2-19.4-6.3c-0.1,2.8-0.2,5.6-0.3,8.4c-1.8-4.2-1.9-12-8.2-11.4c-3-0.4-6.1-1.1-9-1.9c1.5-0.6,4.4-1.8,5.9-2.4
		C457.2-322.7,454.1-329.1,454.2-336.2z"/>
	<path fill="#833A1D" stroke="#833A1D" stroke-width="0.3" d="M46.7-280.3c10.2-18.5,23.2-36.6,42.1-47.1c2.2,6.2,4.7,12.3,7,18.4
		C70.9-293.3,53-268.9,38.2-244c-4.6,7.4-7.4,15.7-12.2,23C28.2-242,37.8-261.4,46.7-280.3z"/>
	<path fill="#B86140" stroke="#B86140" stroke-width="0.3" d="M103.1-301.6c10.7-7.4,23.4-11.8,36-14.7c4.5-1.5,6.7,3.8,9.6,6.1
		c5.6,5.9,11.4,11.7,16.7,17.9c-7.8,3.2-16.4,3.8-24.3,7c-12.3,4.8-24.2,10.4-36,16.1C103.9-280,103.7-290.8,103.1-301.6z"/>
	<path fill="#833A20" stroke="#833A20" stroke-width="0.3" d="M148.7-310.3c38.4-5,77.3,2.2,113.6,14.7c-9.3-0.1-18.5-2.1-27.8-2.9
		c-20.9-1.9-41.9-0.5-62.5,2.6c-2.7,0.2-4.8,1.7-6.6,3.4C160.1-298.6,154.3-304.3,148.7-310.3z"/>
	<path fill="#CA4B21" stroke="#CA4B21" stroke-width="0.3" d="M462.7-312c6.3-0.6,6.4,7.2,8.2,11.4c0.1,37.2-23.8,70.3-53.4,90.8
		c-17.8,12.5-37.5,22.7-58.3,29.1c-38,9.4-77.6,8.2-116.4,5.6c-30.3-2.2-60.5-5.6-90.4-10.5c-5.5-1.1-10.8-2.9-16.3-4.2
		c55,0.7,110.2-2.3,164.6-10.7c18.2-3.2,36.3-6.7,54-12c16.7-4.8,33.6-9.8,48.8-18.2c9.2-4.7,18.4-9.6,26.2-16.4
		c12.3-10.5,24.9-22.1,30.4-37.7C463.7-293.4,463.2-302.9,462.7-312z"/>
	<path fill="#601E1C" stroke="#601E1C" stroke-width="0.3" d="M471.2-309c6.4,2.1,12.9,4.1,19.4,6.3
		C559.5-276.4,619-221.5,643.4-151c17.9,52.8,15,110.5,1.6,164c-5.4,21.9-13.6,43-18,65.2c-3.2,12.7-8.6,24.7-12.9,37
		c-2.3,6.2-4.4,12.6-7.9,18.3c-8.4,9.8-11.3,22.9-18.4,33.6c-1.2,0-3.5,0.1-4.7,0.2c-6.2-37-17-73.5-35-106.6
		c14.1,3,28.4-2,39.8-10.3c3.3-1.3,6.7-2.4,10.2-3.5c5.7,13.7,6.7,28.8,12.2,42.7c9.1-19.3,12.1-40.7,14.2-61.7
		c2.8-20.9-1.1-42-5.8-62.4c-3.5-14.3-7.5-28.7-15.2-41.4c-13.2-26.9-35.4-48.6-59.8-65.5c-3.3-18.3-10.6-36.5-24.4-49.5
		c-13.1-13.5-34.1-21.1-52.2-13.5c6.2,3,13.2,5.2,17.3,11.1c3.6,4.3,4.2,10.1,4.6,15.5c-8.8-4.6-17.7-8.9-26.9-12.7
		c-8.7-3.6-16.8-8.6-25.8-11.5c-6.5-2.2-12.8-4.8-18.9-7.8c29.7-20.5,53.5-53.5,53.4-90.8C471-303.4,471.1-306.2,471.2-309z"/>
	<path fill="#833A1F" stroke="#833A1F" stroke-width="0.3" d="M97.5-287.8c4.7-3.1,5.3-8.7,5.6-13.8c0.6,10.8,0.8,21.6,2,32.3
		c-27.8,20.1-50,46.7-67.9,75.7c0.3-2.2,0.7-4.5,1.2-6.7C51.1-233.3,69.9-265.1,97.5-287.8z"/>
	<path fill="#B9613E" stroke="#B9613E" stroke-width="0.3" d="M108.9-255.4c19.6-8.2,39.4-15.8,59.7-22.2c3.4-1.5,6.5,0.8,9.4,2.3
		c8.7,9.6,15.2,21,20.7,32.7c0.4,0.9,1.1,2.8,1.4,3.8c-20.3,2.6-39.8,9.1-59.8,13c-13.3,2.8-26,7.6-39.2,10.6
		c1.7-10,3.9-19.9,5.6-30C107.3-248.6,108.1-252,108.9-255.4z"/>
	<path fill="#843A1D" stroke="#843A1D" stroke-width="0.3" d="M178-275.3c18.1-2.5,36.5-3.1,54.7-1c24.7,3.4,48.9,9.2,72.7,16.8
		c-9.3,2.9-19.2,2.8-28.8,4.1c-17.2,1.9-33.9,6.3-50.9,9.2c-8.2-1.7-16.6-1.9-25-1.2c-0.5,1.2-1.4,3.6-1.9,4.8
		C193.2-254.3,186.7-265.7,178-275.3z"/>
	<path fill="#78201B" stroke="#78201B" stroke-width="0.3" d="M200.6-247.3c8.3-0.7,16.7-0.5,25,1.2c4.9,3.7,10.9,4.4,16.9,4
		c34.3-1.3,68.3,4.7,101.9,10.8c9.2,1.6,18,5.1,27.1,6.9c11.3,3.1,20.8-6.4,32.1-6.2c-15.3,8.4-32.1,13.4-48.8,18.2
		c-17.7,5.3-35.9,8.8-54,12c-54.4,8.4-109.6,11.4-164.6,10.7c-4.3,1.3-8.2,3.9-12.8,4.2c-30.8,4.5-58.9,18.8-84.9,35.2
		C37.7-162.5,50.2-169.7,53-181c7.2-8.2,16.3-14.5,25-21c7.2-5.1,14.3-11.1,23.1-13.2c13.2-3.1,25.9-7.9,39.2-10.6
		c20.1-3.8,39.5-10.4,59.8-13c-0.4-0.9-1.1-2.8-1.4-3.8C199.2-243.7,200.2-246.1,200.6-247.3z"/>
	<path fill="#843B1D" stroke="#843B1D" stroke-width="0.3" d="M43.8-181.5c16.9-24.6,36.7-48.6,62.9-63.7c-1.7,10-3.9,20-5.6,30
		c-8.8,2.1-15.9,8.1-23.1,13.2c-8.7,6.5-17.7,12.8-25,21c-7.8,7.2-14.7,15.3-22.1,22.8C34.3-166.4,39-174,43.8-181.5z"/>
	<path fill="#78201C" stroke="#78201C" stroke-width="0.3" d="M359.2-180.7c20.8-6.4,40.5-16.6,58.3-29.1c6.1,3,12.4,5.6,18.9,7.8
		c9,2.9,17.1,7.9,25.8,11.5c9.2,3.8,18.1,8.1,26.9,12.7c-2.6,17.2-17,28.7-30.2,38.4c-15.5,11.4-34.6,16.4-53.5,17.6
		c-10.9-3.1-21.9-6.2-33.2-8.1c-14.7-2.3-28.8-7.4-43.6-8.7c-10.8-0.8-21.4-4.3-32.3-3.2c-12.4-5.4-23.9-12.6-35.8-19.1
		c-8.6-5.2-18-8.6-26.8-13.5c3-0.3,6-0.5,8.9-0.6C281.5-172.4,321.2-171.2,359.2-180.7z"/>
	<path fill="#843B2D" stroke="#843B2D" stroke-width="0.3" d="M467.2-204.4c18.1-7.6,39,0.1,52.2,13.5c13.8,13,21.1,31.1,24.4,49.5
		c0.3,9.3-0.1,18.7-2.2,27.8c-2.6,6-5.2,12-7.5,18.1c-5.6,8.3-12.2,16-19.9,22.5c-9.1,7.4-19.1,13.9-29.8,18.9
		c-11,4.3-22.6,8.7-34.7,7.4c-9.9-1-19.9-1.1-29.7,0c-9.1-1.1-18.1-3.4-26.9-5.9c-6.3-1.9-12.6-4-18.7-6.5c-6-2.5-12-4.8-17.9-7.4
		c-16.4-7.6-32.4-16.1-48.2-25.1c-5.9-3.7-13.2-3.3-19.2-6.9l2.2-2.2c-21.2-12.7-42.7-24.7-64.2-36.6
		c-24.3-13.7-50.4-25.8-78.4-28.7c-35-3.8-71.1,1.5-103.2,16c-3.5,1.7-7.5,2.3-11.4,2.3c1.4-0.9,2.8-1.7,4.1-2.5
		c26-16.4,54.1-30.7,84.9-35.2c4.6-0.3,8.5-2.9,12.8-4.2c5.5,1.3,10.8,3.1,16.3,4.2c30,4.9,60.1,8.3,90.4,10.5c-3,0.2-6,0.4-8.9,0.6
		c8.8,4.8,18.2,8.3,26.8,13.5c11.8,6.5,23.4,13.7,35.8,19.1c33.8,15.9,71.8,23.1,109.1,19.9c19-1.2,38.1-6.2,53.5-17.6
		c13.1-9.7,27.6-21.2,30.2-38.4c-0.4-5.4-1-11.2-4.6-15.5C480.4-199.2,473.3-201.5,467.2-204.4z"/>
	<path fill="#621D17" stroke="#621D17" stroke-width="0.3" d="M296.4-141.8c10.9-1.1,21.5,2.4,32.3,3.2c14.8,1.3,28.9,6.4,43.6,8.7
		c11.3,1.8,22.2,4.9,33.2,8.1C368.2-118.7,330.1-125.9,296.4-141.8z"/>
	<path fill="#78211C" stroke="#78211C" stroke-width="0.3" d="M543.8-141.4c24.4,16.9,46.6,38.6,59.8,65.5
		c7.6,12.7,11.6,27.1,15.2,41.4c4.8,20.3,8.7,41.4,5.8,62.4c-2.1,21-5.2,42.4-14.2,61.7c-5.5-13.8-6.5-28.9-12.2-42.7
		c-3.4,1.1-6.8,2.2-10.2,3.5c16.8-11.7,23.2-32.9,23.3-52.5c0.9-23.6-9.2-46-22.4-65c-12.9-18.1-29.4-33.4-47.3-46.4
		C543.7-122.7,544.1-132.1,543.8-141.4z"/>
	<path fill="#651C15" stroke="#651C15" stroke-width="0.3" d="M213-136.7c4.7-0.3,9.4-0.5,14.2-0.6c21.6,11.9,43.1,24,64.2,36.6
		l-2.2,2.2c-3.1-1.4-6.3-2.7-9.4-4.1C256.6-112,234.5-123.8,213-136.7z"/>
	<path fill="#5F1D1A" stroke="#5F1D1A" stroke-width="0.3" d="M462.7-312c-3-0.4-6.1-1.1-9-1.9c-40.7-10.7-83.5-12.1-125.3-8.2
		c-2.7,0-4.7-1.9-7-3.1c-14.6-9-29.9-16.8-45.6-23.8c-37-15.5-77.7-24.5-117.8-19.1c-45.8,5.7-90.1,28.4-118.8,64.9
		c-9.5,11.8-17.6,24.7-24.1,38.3C9.6-253,2.3-242.1-3.3-230.3c-8.1,16.5-17.2,32.7-21.2,50.7c-3.8,17-2.5,34.8,1.6,51.7
		c2.5,20.9,2.8,43.8,15.6,61.6C-4.6-75.1,0.5-83.4,9-87.8c5.5-2.8,11.2-5.2,16.8-7.7c1.1-7.8,1-15.8,2-23.6
		c1.3,4.6,2.5,9.2,4.3,13.6c0.7-2.8,1.4-5.6,2.1-8.4c0.6,1.3,1.8,4,2.3,5.3c0.7,0.2,2,0.6,2.7,0.8c23,4.2,47.2,0.3,68.1-10
		c-7.3-2-15-2.3-22.6-2.4c-2.7-1.2-5.7-1.4-8.5-0.4c-1.9-1.7-4.1-3-6.6-3.4c-13.6-3.2-27.5-7.6-38.7-16.4c4.2,0,8.4,0.1,12.5,0.7
		c24.3,4.1,49.2,3,73.6,0c-5.5-4.4-11.5-10.3-19.2-8.8c-16,1.7-32.2,2.2-48.2,4.9c-6.2,0.7-13.6,3.2-18.5-2.2
		c0.7-0.4,2.1-1.3,2.9-1.7c1.4-0.9,2.8-1.7,4.1-2.5C37.7-162.5,50.2-169.7,53-181c-7.8,7.2-14.7,15.3-22.1,22.8
		c3.4-8.3,8.1-15.9,12.9-23.4c16.9-24.6,36.7-48.6,62.9-63.7c0.7-3.4,1.4-6.8,2.2-10.3c19.6-8.2,39.4-15.8,59.7-22.2
		c3.4-1.5,6.5,0.8,9.4,2.3c18.1-2.5,36.5-3.1,54.7-1c24.7,3.4,48.9,9.2,72.7,16.8c-9.3,2.9-19.2,2.8-28.8,4.1
		c-17.2,1.9-33.9,6.3-50.9,9.2c4.9,3.7,10.9,4.4,16.9,4c34.3-1.3,68.3,4.7,101.9,10.8c9.2,1.6,18,5.1,27.1,6.9
		c11.3,3.1,20.8-6.4,32.1-6.2c9.2-4.7,18.4-9.6,26.2-16.4c12.3-10.5,24.9-22.1,30.4-37.7C463.7-293.4,463.2-302.9,462.7-312z
		 M25.9-221c2.2-21,11.8-40.4,20.7-59.4c10.2-18.5,23.2-36.6,42.1-47.1l-0.4-1c12.4-5.5,25-12.1,38.8-13.2c12-3.4,24.7-3.5,37.1-3.6
		c18.5,0.2,37.1,1.8,55.1,6.3c-25.2,0.8-51.4,0.1-75.4,9.3c-10.6,4.6-21.7,7.8-31.9,13.2c-5.4,2.6-10.4,6.2-16.3,7.5
		C70.9-293.3,53-268.9,38.2-244C33.6-236.6,30.7-228.2,25.9-221z M234.6-298.5c-20.9-1.9-41.9-0.5-62.5,2.6
		c-2.7,0.2-4.8,1.7-6.6,3.4c-7.8,3.2-16.4,3.8-24.3,7c-12.3,4.8-24.2,10.4-36,16.1c-27.8,20.1-50,46.7-67.9,75.7
		c0.3-2.2,0.7-4.5,1.2-6.7c12.7-33.1,31.4-64.8,59.1-87.6c4.7-3.1,5.3-8.7,5.6-13.8c10.7-7.4,23.4-11.8,36-14.7
		c4.5-1.5,6.7,3.8,9.6,6.1c38.4-5,77.3,2.2,113.6,14.7C253-295.7,243.8-297.7,234.6-298.5z"/>
	<path fill="#E6B38E" stroke="#E6B38E" stroke-width="0.3" d="M107.4-117.9c11.7-2.7,24.1-1.4,35.8-4.4c3.3,2.2,6.6,4.4,9.8,6.7
		c-18.4,6.5-36,15.2-54,22.8c-10.9,4.4-22.8,8.2-34.7,6c-8.7-1.2-16.5-5.4-23.9-9.8c-2.6-3.2-4.1-7.2-5.2-11.1c1,0,3-0.1,4.1-0.2
		C62.4-103.6,86.5-107.6,107.4-117.9z"/>
	<path fill="#AD4C31" stroke="#AD4C31" stroke-width="0.3" d="M25.8-95.5c1.1-7.8,1-15.8,2-23.6c1.3,4.6,2.5,9.2,4.3,13.6
		c1.2,2.8,2.5,5.5,3.3,8.5C32.2-97,28.9-96.8,25.8-95.5z"/>
	<path fill="#5F1E1A" stroke="#5F1E1A" stroke-width="0.3" d="M153.1-115.5c5.6,4.4,12.6,7.2,17.2,12.9c-7.2,2.7-14.3,5.3-21.8,7.2
		c-5.3,1.6-10.2,4.2-15,6.8C117.6-82,102-74.3,85.3-69.9C68.9-66.1,53-75,41.2-85.5c-1.3-4.2-2.4-8.3-3.5-12.5l2.8,1.5
		c7.5,4.4,15.3,8.6,23.9,9.8c11.9,2.2,23.8-1.6,34.7-6C117.1-100.3,134.6-109,153.1-115.5z"/>
	<path fill="#CA6538" stroke="#CA6538" stroke-width="0.3" d="M32.2-105.6c0.7-2.8,1.4-5.6,2.1-8.4c0.6,1.3,1.8,4,2.3,5.3
		c0.7,0.2,2,0.6,2.7,0.8c-1,0-3,0.1-4.1,0.2c1.1,4,2.6,7.9,5.2,11.1l-2.8-1.5c1.1,4.2,2.2,8.4,3.5,12.5c1.2,12.4,4.7,24.5,11.6,35
		c-0.6,1.1-1.8,3.2-2.4,4.2c-3-5.3-6.5-10.3-9.8-15.5c-1.2-11.9-6.4-23.1-5.1-35.3C34.7-100,33.4-102.8,32.2-105.6z"/>
	<path fill="#B64520" stroke="#B64520" stroke-width="0.3" d="M534.1-95.5c2.3-6.1,4.9-12.1,7.5-18.1c17.9,13,34.4,28.4,47.3,46.4
		c13.2,19,23.3,41.4,22.4,65c-0.1,19.6-6.5,40.9-23.3,52.5c-11.3,8.3-25.7,13.3-39.8,10.3c-20.6-7.2-37.3-28.4-34.6-50.8
		c1.9-5.4,4.7-10.3,7.5-15.2c0.3,5.8-0.2,12,2.1,17.5c2.2,5.6,6.7,9.9,11.2,13.9c4.8,4.7,12.1,7.6,18.6,4.4
		c11.5-4.3,16.4-16.8,18.5-28c3.9-21.5-3.1-43.4-13.6-62C551.3-72.4,542.6-83.9,534.1-95.5z"/>
	<path fill="#E6B48C" stroke="#E6B48C" stroke-width="0.3" d="M148.5-95.4c7.4-1.9,14.6-4.5,21.8-7.2c3.3,1.2,6.4,3.1,9.2,5.2
		c10.5,7.6,21.2,14.8,31.7,22.2c-1.7,13.5,8.2,26.6,2.1,40c-7.7,0.9-10.5,9.4-7.9,15.9c1.7,6.9,2.6,14.3,6.8,20.2
		c7.8,11,19.8,18.1,32.4,22.3c10.9,7.6,23.8,12.6,32.9,22.7c-1,0.4-3,1.1-4,1.5c-7.9-3.4-17-5.7-22.7-12.6l-1.2-1.3
		c-0.8-0.1-2.5-0.3-3.3-0.4c-11-1.7-20.1-8.4-29.9-13.1c-21-11.4-42.6-21.9-62.3-35.5c8.5-16.6,10.9-35.2,12.6-53.5l-1,0.4
		c-2.1,0.7-4.2,1.4-6.3,2.1c-6.4,2.1-12.7,4.5-18.7,7.5c-7.4,3.8-13.6,9.6-18.9,16c3.9,4,7.7,8.1,11.7,12
		c-7.4-2.7-13.4-7.6-19.2-12.8c5.9-9,10.3-18.8,15.5-28.2c5.6-9.8,14.8-16.7,24.7-21.7C153-94.1,150-95,148.5-95.4z"/>
	<path fill="#E9B296" stroke="#E9B296" stroke-width="0.3" d="M354.5-61.9c-25-13.3-50.2-26.4-74.7-40.6c3.1,1.4,6.2,2.7,9.4,4.1
		c5.9,3.6,13.3,3.1,19.2,6.9c15.8,8.9,31.8,17.4,48.2,25.1C356-65.4,355-63.1,354.5-61.9z"/>
	<path fill="#C84C20" stroke="#C84C20" stroke-width="0.3" d="M25.8-95.5c3.1-1.3,6.4-1.4,9.7-1.6c-1.2,12.2,4,23.4,5.1,35.3
		c0.8,8.4,3.5,16.5,6.2,24.5C53.6-15.5,62,6,73.9,25.5c-1.3,2-2.7,4-4.1,6c-4.1-6.4-7.9-13.1-13.2-18.6c2.2,8.7,7.2,16.2,11.8,23.8
		c1.2,2.1,2.4,4.3,3.5,6.5c0.5,2.5,0.9,5,1.3,7.5c-0.1,1-0.4,3-0.5,4.1c-0.9-0.6-2.7-1.7-3.5-2.3c-8.8-16-18.1-31.9-24.7-48.9
		c3.5,1.9,7.1,3.8,10.6,5.7C53,2.1,49.7-4.5,46.4-11.3c-8.2-18.8-14.1-38.5-18.6-58.5c0.7-7.9,0.5-15.9-1.6-23.6
		c-6.7,6.9-8,16.6-8.6,25.7c-1.5,6.5-2.6,13.2-3.1,19.9c-1.2,6.4-2.1,12.9-1,19.3c3,19.4,4,39.2,9.4,58.2
		c5,27.9,17.2,54.5,35.2,76.5c5.1,5.7,10.6,11,15.3,17c-1.9,0.4-5.7,1-7.6,1.4c-1.5-1.2-3.1-2.3-4.6-3.4c1,0,3.1,0,4.1,0
		c-9.8-12.5-21.9-23.2-29.7-37.2C17.5,50.5,10.6,12.4,7.1-25C6.2-35.6,4.6-46.2,5.6-56.8c0.6-10.4,3.8-20.5,3.4-31
		C14.6-90.5,20.2-92.9,25.8-95.5z"/>
	<path fill="#834832" stroke="#834832" stroke-width="0.3" d="M133.4-88.6c4.8-2.7,9.8-5.2,15-6.8c1.5,0.5,4.6,1.4,6.1,1.8
		c-9.9,5-19.1,11.9-24.7,21.7c-5.3,9.3-9.6,19.2-15.5,28.2c-2.4-2-4.8-3.9-7.4-5.7C116-62.4,122.2-77.3,133.4-88.6z"/>
	<path fill="#78211C" stroke="#78211C" stroke-width="0.3" d="M514.2-73c7.7-6.4,14.3-14.2,19.9-22.5c8.5,11.5,17.2,23.1,23.8,35.9
		c10.5,18.6,17.5,40.5,13.6,62c-1.3-7.1,0.9-16.3-5.3-21.5c-9.2-9.8-15.8-21.8-25.9-30.8C531.5-57.6,524.6-67.4,514.2-73z"/>
	<path fill="#DC632B" stroke="#DC632B" stroke-width="0.3" d="M17.6-67.7c0.7-9.1,1.9-18.8,8.6-25.7c2.2,7.7,2.3,15.7,1.6,23.6
		c-3.4,5.6-5.4,11.9-6.6,18.4c-1-1.2-2.1-2.4-3.1-3.6C17.9-59.2,17.7-63.5,17.6-67.7z"/>
	<path fill="#E6B38D" stroke="#E6B38D" stroke-width="0.3" d="M85.3-69.9c16.7-4.3,32.3-12.1,48.2-18.7
		c-11.2,11.4-17.5,26.2-26.5,39.1c-4.1-1.7-8.4-2.5-12.7-3.4c0.1,0.9,0.3,2.6,0.4,3.5c10.2,6.4,17.3,16.5,27,23.6
		c9,7.5,19.3,13.2,28.3,20.8c-7.2,0.2-12.4-5.2-18.2-8.6c-2.6,2.8-5.2,5.5-7.7,8.2c-2.7-2.4-5.2-4.8-7.7-7.3
		c-1.4-2.3-3.4-4.2-5.8-5.5c-10.2-9-17.2-20.6-25.1-31.4c0.7,1.6,1.3,3.2,2,4.9c-0.2,1.1-0.6,3.3-0.8,4.5c-1.2,1.5-2.3,3-3.5,4.4
		c-0.6-2.4-1.2-4.7-1.7-7.1c-1,2.6-2,5.3-2.9,7.9C68-36.3,61-44.9,52.8-50.6c-6.9-10.5-10.5-22.6-11.6-35C53-75,68.9-66.1,85.3-69.9
		z"/>
	<path fill="#DD622A" stroke="#DD622A" stroke-width="0.3" d="M-7.3-66.2C-4.6-75.1,0.5-83.4,9-87.8c0.4,10.5-2.8,20.6-3.4,31
		C4.6-46.2,6.2-35.6,7.1-25c3.5,37.4,10.4,75.5,28.5,108.9c7.7,14.1,19.9,24.7,29.7,37.2c-1,0-3.1,0-4.1,0
		c-15.2-10.4-25.5-26-35.6-41C13.2,62.2,6,41.6-1.7,21.6C-5.4,3.5-9.5-14.8-8.8-33.3C-8.5-44.3-9.7-55.4-7.3-66.2z"/>
	<path fill="#EAA88C" stroke="#EAA88C" stroke-width="0.3" d="M211.2-75.3c25.6,17.7,51.3,35.3,76.9,53c-6.8,4.2-13.3,9.7-21.4,11.1
		c-7-0.3-14.1-0.6-21.1,0.9c-11-7.9-22.1-16-32.3-25C219.4-48.6,209.5-61.7,211.2-75.3z"/>
	<path fill="#DF9786" stroke="#DF9786" stroke-width="0.3" d="M263.4-72.9c8.1,3.6,15.8,7.9,23.5,12.2c-0.9,0.4-2.6,1.3-3.5,1.8
		C276.6-63.4,269.9-68,263.4-72.9z"/>
	<path fill="#601E1B" stroke="#601E1B" stroke-width="0.3" d="M484.4-54.1c10.7-5,20.7-11.5,29.8-18.9c10.4,5.6,17.4,15.4,26.1,23.1
		c10.1,9,16.7,21,25.9,30.8c6.3,5.2,4,14.4,5.3,21.5c-2.1,11.2-7,23.7-18.5,28c-6.5,3.2-13.8,0.3-18.6-4.4c0.3-9.5-4.5-18-7.9-26.6
		c-3.8-9.3-10-17.4-15.6-25.7C503.6-36.9,493.4-45,484.4-54.1z"/>
	<path fill="#BC5F3A" stroke="#BC5F3A" stroke-width="0.3" d="M21.2-51.4c1.3-6.4,3.2-12.7,6.6-18.4c4.6,20,10.4,39.7,18.6,58.5
		C49.7-4.5,53,2.1,55.2,9.3C51.6,7.4,48,5.5,44.5,3.6c-1.9-6-7.1-9.7-12.6-11.9c2.1,6.7,4.1,13.4,5.8,20.2
		C26.7-2.9,25.2-22,18.8-38.8c-0.2-5.4-0.4-10.8-0.7-16.2C19.1-53.8,20.2-52.6,21.2-51.4z"/>
	<path fill="#E39D6C" stroke="#E39D6C" stroke-width="0.3" d="M159.4-66.5c2.1-0.7,4.2-1.4,6.3-2.1c-2.4,12.9-5.6,25.8-11.9,37.3
		c-3.1,2.2-6.3,4.3-9.5,6.4c-3.6-2-7.2-4-10.8-6c-4-3.9-7.8-8-11.7-12c5.3-6.4,11.5-12.2,18.9-16c3,8.7,5.5,17.6,8.4,26.3
		C156-42.3,163.1-54.6,159.4-66.5z"/>
	<path fill="#2A1200" stroke="#2A1200" stroke-width="0.3" d="M165.8-68.7l1-0.4c-1.7,18.3-4,37-12.6,53.5c-2.5-1.6-5-3.2-7.5-4.8
		c2.5-3.5,5-7.2,7.1-11C160.1-42.9,163.4-55.8,165.8-68.7z"/>
	<path fill="#8F2C0C" stroke="#8F2C0C" stroke-width="0.3" d="M14.4-47.8c0.5-6.7,1.6-13.3,3.1-19.9c0.1,4.2,0.3,8.5,0.5,12.7
		c0.3,5.4,0.5,10.8,0.7,16.2L17.2-42C16.3-44,15.4-45.9,14.4-47.8z"/>
	<path fill="#E18550" stroke="#E18550" stroke-width="0.3" d="M140.7-59c6-3,12.3-5.4,18.7-7.5c3.7,12-3.5,24.3-10.3,33.8
		C146.2-41.5,143.7-50.3,140.7-59z"/>
	<path fill="#D0916B" stroke="#D0916B" stroke-width="0.3" d="M356.5-66.5c5.9,2.6,11.9,5,17.9,7.4c-0.3,1.8-0.8,5.3-1,7.1
		c-6.3-3.3-12.6-6.5-18.8-9.9C355-63.1,356-65.4,356.5-66.5z"/>
	<path fill="#E16026" stroke="#E16026" stroke-width="0.3" d="M46.9-37.3c-2.7-8-5.4-16.1-6.2-24.5c3.2,5.2,6.8,10.1,9.8,15.5
		C58.3-30,67-14,77.3,1c1.9,3.3,5.2,6.8,4,11c-1.6,4.9-4.7,9.2-7.4,13.5C62,6,53.6-15.5,46.9-37.3z"/>
	<path fill="#C36140" stroke="#C36140" stroke-width="0.3" d="M286.9-60.7c8.7,3.8,16.9,8.4,25.3,12.7l-1.8,0.5c0,1.7,0,5.2,0.1,6.9
		c-9.1-6-18.1-12.2-27-18.4C284.3-59.4,286-60.3,286.9-60.7z"/>
	<path fill="#F1BDA2" stroke="#F1BDA2" stroke-width="0.3" d="M374.4-59.1c6.1,2.4,12.4,4.5,18.7,6.5c4.2,5.2,10.2,9.8,10.5,17
		c-10.1-5.5-20.2-10.9-30.2-16.5C373.6-53.8,374.1-57.3,374.4-59.1z"/>
	<path fill="#78261B" stroke="#78261B" stroke-width="0.3" d="M449.7-46.7c12.1,1.3,23.6-3.1,34.7-7.4c9,9.1,19.2,17.2,26.5,27.8
		c5.6,8.3,11.8,16.4,15.6,25.7c3.5,8.6,8.2,17.1,7.9,26.6c-4.4-4-8.9-8.2-11.2-13.9c-2.2-5.5-1.8-11.7-2.1-17.5
		c-2.9,4.9-5.6,9.8-7.5,15.2c-7.8-13-20.1-21.8-30.6-32.4c-5.5-5.6-12.7-9-19.8-12.2c-6.1-2.8-11.3-7.3-17.6-9.7
		c-7-1.4-14.1-1-21.2-1.8c-1.1-0.1-3.4-0.4-4.5-0.5C429.9-47.8,439.8-47.7,449.7-46.7z"/>
	<path fill="#DD9A83" stroke="#DD9A83" stroke-width="0.3" d="M94.2-52.9c4.3,0.9,8.7,1.7,12.7,3.4c2.5,1.8,5,3.7,7.4,5.7
		c5.7,5.2,11.8,10.1,19.2,12.8c3.6,2,7.2,4,10.8,6c3.2-2.1,6.4-4.2,9.5-6.4c-2.1,3.8-4.6,7.4-7.1,11c2.5,1.6,5,3.2,7.5,4.8
		C173.9-2,195.5,8.6,216.5,20c9.8,4.7,19,11.4,29.9,13.1c-0.9,2.8,3.8,5.4,4.4,1.7c5.7,6.9,14.8,9.2,22.7,12.6
		c5.3,2.3,10,5.8,12.3,11.2c-15.6-2.4-29.8-9.8-44.7-14.6c-14.6-4.6-27.9-12.5-41.9-18.5C181.5,17.6,167,4,149.9-5
		c-9-7.5-19.3-13.3-28.3-20.8c-9.7-7.1-16.8-17.2-27-23.6C94.5-50.3,94.3-52,94.2-52.9z"/>
	<path fill="#E8B48D" stroke="#E8B48D" stroke-width="0.3" d="M393.1-52.6c8.8,2.5,17.8,4.8,26.9,5.9c1.1,0.1,3.4,0.4,4.5,0.5
		c-2.6,6.2-4.9,12.5-6.9,18.9c-4.6-2.9-9.3-5.6-14-8.3C403.2-42.8,397.3-47.4,393.1-52.6z"/>
	<path fill="#BF5A31" stroke="#BF5A31" stroke-width="0.3" d="M50.4-46.3c0.6-1.1,1.8-3.2,2.4-4.2c2.8,6.6,5.8,13.3,11.1,18.3
		l-2.7-0.5c5.4,8.2,9.9,17,16,24.7c-0.1-1.6-0.4-4.7-0.5-6.3c2.2,10,7.4,18.9,14,26.7c-1.2,0.4-3.6,1.2-4.7,1.5
		c-0.4,0.2-1.3,0.5-1.7,0.6c-3.5,4.2-6.2,9-8.5,14.1c-1.1,2.5-2.1,5.1-3.1,7.7c-0.7-1.2-2.1-3.7-2.9-4.9c1.4-2,2.7-4,4.1-6
		c2.8-4.3,5.9-8.6,7.4-13.5c1.2-4.1-2.2-7.6-4-11C67-14,58.3-30,50.4-46.3z"/>
	<path fill="#D8956E" stroke="#D8956E" stroke-width="0.3" d="M52.8-50.6C61-44.9,68-36.3,78.4-35.1c1.8,4.4,3.2,8.9,4.4,13.5
		c-3.1-1.6-4.8-4.6-6.6-7.4c-0.1,0.7-0.3,2.1-0.4,2.9c-3.9-2.1-7.9-4.1-11.9-6.1C58.6-37.3,55.6-44,52.8-50.6z"/>
	<path fill="#843B2D" stroke="#843B2D" stroke-width="0.3" d="M85.4-49.6c7.8,10.9,14.9,22.5,25.1,31.4
		c-10.3-6.1-15.9-17.4-23.1-26.6C86.7-46.4,86-48,85.4-49.6z"/>
	<path fill="#A2624D" stroke="#A2624D" stroke-width="0.3" d="M13.4-28.5c-1.1-6.4-0.2-13,1-19.3c0.9,1.9,1.8,3.9,2.7,5.8
		c-0.6,26.3,3.8,52.4,9.7,77.9c1,4.6,3,8.9,5,13.2c8.4,25.1,22.6,48.4,41.3,67.2c5.3,5.8,13.2,9.8,15.1,18c-8.7,0.1-16-4.8-22.6-9.9
		c1.9-0.3,5.7-1,7.6-1.4c-4.7-6-10.2-11.3-15.3-17c-18-22-30.2-48.5-35.2-76.5C17.4,10.7,16.4-9.1,13.4-28.5z"/>
	<path fill="#ECB390" stroke="#ECB390" stroke-width="0.3" d="M310.3-47.4l1.8-0.5c7.4,3.9,14.8,7.9,22.4,11.6
		c-2.5,2.5-4.9,5-7.4,7.5c-5.6-3.8-11.2-7.8-16.8-11.6C310.4-42.2,310.3-45.7,310.3-47.4z"/>
	<path fill="#EEC96A" stroke="#EEC96A" stroke-width="0.3" d="M424.5-46.1c7,0.8,14.2,0.3,21.2,1.8c6.3,2.3,11.5,6.8,17.6,9.7
		c-5.8,9.1-11.3,18.4-17.1,27.5c-1.2-1-2.5-2-3.7-3c8-5.9,12.2-15.2,16.8-23.6c-5.4-4.1-10.7-9-17.8-9.4
		c-4.9,7.4-9.4,15.2-12.1,23.7c-3.8-2.7-7.8-5.2-11.7-7.7C419.6-33.6,421.9-40,424.5-46.1z"/>
	<path fill="#DEB08C" stroke="#DEB08C" stroke-width="0.3" d="M78.4-35.1c0.9-2.7,1.9-5.3,2.9-7.9c0.6,2.4,1.2,4.7,1.7,7.1
		c1.2-1.5,2.4-3,3.5-4.4C91.2-33,96.6-26,100.3-18.1c4.8,9.1,14.1,14.5,21.1,21.8c9.6,8,17.8,17.4,27.4,25.4
		c14.5,9.8,31.6,14.7,46.7,23.6c5,3,10.4,5.1,16,6.7c-0.8-2.7-1.6-5.5-2.4-8.1c0.5,0,1.5,0,2.1,0c-17-11.5-36.9-17.8-54.2-28.7
		c-1.2-1.1-2.4-2.1-3.6-3.1c-10.1-7.9-19.6-16.6-29.4-24.8c2.6-2.8,5.2-5.5,7.7-8.2c5.8,3.4,11,8.8,18.2,8.6
		c17.1,9,31.6,22.6,49.5,30.5c14,6,27.3,13.9,41.9,18.5c14.9,4.8,29.1,12.2,44.7,14.6c-2.3-5.4-7.1-8.9-12.3-11.2c1-0.4,3-1.1,4-1.5
		c-9.1-10.1-21.9-15.1-32.9-22.7C232,19,220,11.9,212.3,0.9c-4.2-5.9-5.2-13.3-6.8-20.2c1.9-1.3,3.8-2.5,5.7-3.8
		c13.3,7.6,22,21.4,36,28c10.6,5.2,20.8,11.6,32.2,14.8c8.9,2.9,19,4.2,26,11c13.6,14.1,26.5,29.5,34.5,47.6
		c2.4,6.1,2.5,12.7,2.7,19.2c0.2,15,0.3,30.2-2.4,45c-1.5,8.1-2.8,16.2-3.3,24.4c1.9,0.8,3.7,1.7,5.6,2.5
		c-6.6,1.3-13.1,2.9-19.6,4.6c-9,2.2-16.7,7.5-24.8,11.8c-3.3-0.5-6.6-1-9.9-1.4c-1.5-17.2-1.2-34.5-3.2-51.7
		c0.1-6-6.5-7.9-10.9-9.9c-12.3-4.3-24.5-8.9-37.3-11.4c-13.5-3.3-27.4-4.7-40.8-8.6c-8.8-2.4-17.8-4-26.3-7.3
		c0-0.9-0.1-2.8-0.2-3.8c1.4,0,4.3-0.1,5.7-0.1c-2-1.1-4-2.2-6-3.2c1.7-1.3,3.5-2.7,5.2-4c5.9,2.2,15.7,5.5,18.3-2.7
		c-21.2-15.2-47.5-23.5-65.5-43.1c-15.9-19.2-31.2-39-44.5-60C81.6-26.2,80.2-30.7,78.4-35.1z"/>
	<path fill="#DE9984" stroke="#DE9984" stroke-width="0.3" d="M87.4-44.8c7.2,9.2,12.8,20.5,23.1,26.6c2.4,1.3,4.3,3.2,5.8,5.5
		C119.9-6.2,126.4-2,132,2.8c7,5.6,13.1,12.6,21.3,16.6c1.2,1,2.4,2.1,3.6,3.1l1,2.1c16.6,9.7,35.2,15.8,51.1,26.7
		c0.8,2.7,1.6,5.4,2.4,8.1c-5.6-1.5-11-3.7-16-6.7c-15.1-8.9-32.2-13.9-46.7-23.6c-9.5-8-17.8-17.4-27.4-25.4
		c-7-7.3-16.3-12.7-21.1-21.8c-3.7-8-9.1-14.9-13.8-22.2C86.8-41.4,87.2-43.6,87.4-44.8z"/>
	<path fill="#DCAE1C" stroke="#DCAE1C" stroke-width="0.3" d="M429.3-19.5c2.7-8.5,7.2-16.3,12.1-23.7c7.1,0.4,12.4,5.4,17.8,9.4
		c-4.6,8.5-8.8,17.8-16.8,23.6C438-13.3,433.7-16.4,429.3-19.5z"/>
	<path fill="#DD9A84" stroke="#DD9A84" stroke-width="0.3" d="M205.4-19.3c-2.6-6.5,0.2-15,7.9-15.9c10.2,9,21.3,17,32.3,25
		c18.9,12,40.8,18,61.3,26.7c1.9,1.1,3.8,2.3,5.6,3.7c6.7,6.3,13.4,12.8,18.8,20.3c6.5,9.7,12.6,19.8,18.5,30
		c2.2,7.8,1.9,16.1,1.7,24.2c-1.3,16.1-0.4,32.2-0.7,48.3c0,8.5,0.1,17.1,0.4,25.6c-2.9,0.3-5.8,0.5-8.7,0.8
		c-1.9-0.8-3.8-1.7-5.6-2.5c0.4-8.2,1.8-16.3,3.3-24.4c2.8-14.8,2.6-30,2.4-45c-0.2-6.4-0.3-13.1-2.7-19.2
		c-8-18.1-20.9-33.4-34.5-47.6c-7-6.8-17.1-8.1-26-11c-11.5-3.2-21.6-9.7-32.2-14.8c-14-6.6-22.6-20.3-36-28
		C209.2-21.9,207.3-20.6,205.4-19.3z"/>
	<path fill="#EBBF9F" stroke="#EBBF9F" stroke-width="0.3" d="M327.2-28.9c2.4-2.5,4.9-5,7.4-7.5c7.6,4,15.3,7.9,23,11.8
		c-0.7,5.1-1.5,10.3-2.4,15.4C345.9-15.8,336.5-22.4,327.2-28.9z"/>
	<path fill="#451D33" stroke="#451D33" stroke-width="0.3" d="M446.1-7.2c5.8-9.1,11.3-18.4,17.1-27.5c7.1,3.1,14.3,6.5,19.8,12.2
		c-0.9,0.5-2.7,1.4-3.6,1.9c-4-2.5-7.7-5.5-12-7.4c-3.4-0.5-5.1,3.3-6.9,5.4c-3.2,4.9-7.2,9.9-7.8,15.9c3.1,4.6,7.1,8.5,10.8,12.6
		c-5.5-3.3-11-6.8-16-10.9C447.1-5.5,446.5-6.6,446.1-7.2z"/>
	<path fill="#67190C" stroke="#67190C" stroke-width="0.3" d="M61.2-32.7l2.7,0.5c4,2,8,4,11.9,6.1c-0.2,4,0.3,8,0.9,11.9
		c0.1,1.6,0.4,4.7,0.5,6.3C71.2-15.7,66.6-24.5,61.2-32.7z"/>
	<path fill="#E2A68C" stroke="#E2A68C" stroke-width="0.3" d="M76.2-29c1.8,2.8,3.5,5.8,6.6,7.4c6.4,14.1,16.9,25.7,25.9,38.2
		c10.7,14.3,21.8,28.9,37.3,38.4c15.3,9.3,31.2,17.7,46.9,26.6c-2.7,8.3-12.5,4.9-18.3,2.7c-1.7,1.3-3.5,2.7-5.2,4
		c-15.8-6.2-29.4-16.7-41.6-28.3c-14.5-14.1-24.8-31.6-36.9-47.6c-6.6-7.8-11.8-16.7-14-26.7c-0.6-3.9-1.1-7.9-0.9-11.9
		C75.9-26.9,76.1-28.3,76.2-29z"/>
	<path fill="#2E175E" stroke="#2E175E" stroke-width="0.3" d="M460.4-22.6c1.9-2.1,3.5-5.9,6.9-5.4c4.3,2,8,4.9,12,7.4l-1.3,0.9
		c-4.4,3.7-9.1,7.4-12.1,12.4c-1.9,4.5-1,9.7-1.5,14.4l-1.1-1.2c-3.7-4.2-7.7-8.1-10.8-12.6C453.3-12.7,457.3-17.7,460.4-22.6z"/>
	<path fill="#D59567" stroke="#D59567" stroke-width="0.3" d="M357.5-24.6c4.7,2.4,9.3,4.9,13.9,7.5c-1.7,5.2-3.5,10.3-5.4,15.4
		c-3.6-2.5-7.3-4.9-10.9-7.5C356-14.3,356.8-19.4,357.5-24.6z"/>
	<path fill="#78201B" stroke="#78201B" stroke-width="0.3" d="M82.8-21.6c13.3,21.1,28.6,40.9,44.5,60c18,19.6,44.3,27.9,65.5,43.1
		c-15.6-8.9-31.5-17.3-46.9-26.6c-15.5-9.5-26.5-24.1-37.3-38.4C99.7,4.1,89.2-7.6,82.8-21.6z"/>
	<path fill="#E8B38D" stroke="#E8B38D" stroke-width="0.3" d="M266.7-11.1c8.1-1.4,14.6-6.9,21.4-11.1c5.4,3.6,10.8,7.3,16.1,11.1
		c1.1,9.2,2.1,18.4,2.7,27.6c-20.5-8.7-42.4-14.7-61.3-26.7C252.6-11.7,259.7-11.5,266.7-11.1z"/>
	<path fill="#471A5A" stroke="#471A5A" stroke-width="0.3" d="M479.4-20.6c0.9-0.5,2.7-1.4,3.6-1.9C493.5-12,505.9-3.1,513.6,9.8
		c-2.7,22.5,14.1,43.6,34.6,50.8c18,33.1,28.8,69.6,35,106.6c1.2,0,3.5-0.1,4.7-0.2c7.1-10.7,9.9-23.7,18.4-33.6
		c0.7,3.8,1.3,7.6,2.1,11.4c-6.5,10.6-14.9,20.1-18.9,32c-3.4,0-6.9,0.1-10.3,0.1c-4.4-15.3-4.6-31.4-9.6-46.5
		c-7.1-18.6-11.6-38-20.9-55.8c-3.6-9.6-13.2-14.2-21-19.9c-9.1-6.4-15.6-16.5-17-27.6c-1.3-6.5-0.6-13.8-4.4-19.6
		c-3.8-6.6-11.1-9.9-15.7-15.8c-3.6-4.4-7.8-8.2-12.4-11.6L479.4-20.6z"/>
	<path fill="#3A177D" stroke="#3A177D" stroke-width="0.3" d="M466-7.4c3-5,7.7-8.7,12.1-12.4c4.6,3.4,8.9,7.2,12.4,11.6
		c4.6,5.9,11.9,9.2,15.7,15.8c3.8,5.8,3.2,13,4.4,19.6c1.4,11.1,7.9,21.2,17,27.6c7.8,5.6,17.4,10.2,21,19.9
		c9.2,17.7,13.8,37.2,20.9,55.8c5,15.1,5.3,31.3,9.6,46.5c3.4,0,6.9-0.1,10.3-0.1c4.1-11.9,12.4-21.5,18.9-32
		c6.7,31.8,9.8,64.8,4.8,97.2c-3.6,30.4-9.7,60.5-16.5,90.4c-7.5,25.3-13.5,51-21.9,75.9c-15.2,34.2-26.9,69.9-42.6,103.9
		c-6.8,12.3-10,26-16.3,38.6c-5.3,20-19,36.6-22.7,57.2c8-4,15.8-8.8,21.7-15.6c5.8-6.7,9.3-14.9,13.8-22.5c5.1,8.9,7,19.2,9.8,29
		c3.5,13,8.9,25.5,11.9,38.7c1.4,6.3,3.7,12.4,7.1,17.9c-8.1,12.1-17.6,23.6-29.7,31.9c-14.7,9-27.4,20.9-41.2,31.2
		c-9.1,9.4-22,13-34,17c-12.4,3.1-25.1,6-38,6.2c-4.4,0-8.7,0.9-12.4,3.2c16.1,4.7,33,3.6,49.6,3.6c17.4,0.6,35.5-0.1,51.8-7
		c3.2-1.3,6.6-2.2,10-3.1c6.7,16.4,10.7,33.8,16.6,50.5c6.2,14.7,9.7,30.3,15.1,45.3c5.5,17.8,13,35.5,11.8,54.5
		c1,14.6-5.7,28-11.9,40.8c-14.5,23.4-36.8,40.5-59.5,55.5c-8.8,5-18.1,9.1-27.1,13.6c-22.3,10.4-47.4,10-71.1,14.4
		c-22.5,3.9-45.5,4.7-67.9,9c-20.4,2-40.8,4.1-60.6,9.5c-12.5,2.6-24.7,6.1-37.1,9.1c-7.3-10-10.5-22.5-18.8-31.9
		c-13.8-20.4-32.5-36.8-50.2-53.7c-8.6-6.2-16.8-12.8-25.7-18.7c-8.5-3.5-14.6-10.9-23.3-14c-9.3-3.7-18.3-7.9-27.4-11.9
		c-9.6-4.3-20-5.6-30.3-7.3C32,893.2,18.6,882,3.2,873.9c-10.2-6.3-22.6-8.5-31.8-16.6c66.6-25.5,135.2-45.1,203.5-65.2
		c7.4-2.5,16.1-3,21.9-8.9c-2.4-2.5-4.5-5.2-6.4-8c1.3-0.2,4-0.7,5.4-0.9c1-0.1,3.1-0.4,4.2-0.6c-0.8,1-2.5,2.9-3.4,3.8
		c0.8,4.8,0.5,10.4,4.8,13.7c6.5,6,11.5,13.8,19.3,18c0.9-1,2.8-3,3.8-4c-2.2-11.3-8.1-22-7.4-33.7c4-20.5,10.1-40.6,15.9-60.7
		c2.9-7.4-4-13.3-8.2-18.4c-7,9.8-5.3,22.4-9.3,33.4c-4.8,15.3-6.2,32-14.1,46.1c7.1-29.6,17.4-58.8,18.9-89.5
		c-5.6-8.4-10.7-17.1-14.5-26.4c-2.7-6.1-0.4-12.7,0.5-18.9c7.9-41.1,19.3-81.7,22.2-123.5c-1.2,0-3.6,0-4.8,0
		c-19,1.9-33.8-12.7-44-26.8c-0.3-7.2-2.1-14.2-4.4-20.9c-3.5-13-6.5-26.4-6.2-40c-0.4-28.2,0.2-57.4,11.1-83.9
		c10.8-25.6,19.8-52,26.9-78.8c2.3-7.7,1.9-16-0.7-23.6c-1.7-5.3-4.6-10-7.3-14.8l0.4-1.5c2.8,2.1,6.9,3.4,8.1,7
		c2.3,6.8,3.3,13.9,4.3,20.9c-0.1,4.6,1.4,9,3,13.3c6.5,17.2,13.2,34.7,23.8,49.9c4.1,6,9.5,11.1,15.7,14.9
		c5.3,49.7,5.9,99.9,12.6,149.5c0.3,5.5,3.8,9.9,5.6,14.9l-2,2.4c-0.5-2.1-1-4.3-1.6-6.4c-0.7,2.5-1.3,5.1-2,7.7
		c-6.2,9.5-3,21-5.6,31.5c-3.5,16.2-3.5,32.9-5.9,49.3c-1.3,13.8-2.7,27.6-4.2,41.3c-0.4,14.9-4.9,29.9-1.7,44.7
		c-0.1,3.8-0.9,7.6-0.3,11.3c2,2.7,5.5,3.6,8.4,5.1c21.4,8.8,43.5,16.5,66.5,19.8c12.1,2,24.5,5.4,36.8,3c0.4-8.4,2.9-17.1,0-25.2
		c3.7-16.1,0.5-32.8,2-49.1c2.5-20.4-0.2-41,3.7-61.3c26.3-16,47.6-39.5,63.1-65.9c8.9-18.3,20.4-35.4,27.8-54.5
		c10.5-26.7,21.6-53.2,31.2-80.2c7.2-16.3,11.7-33.8,20.4-49.5c5.2-9.5,8.1-20.1,13.3-29.6c4-8.6,9.4-16.7,11.3-26.1
		c-7.1,1.7-14.2,3.1-21.5,3.4c1.1-11.6,6.3-22.3,8.7-33.6c2.3-10.4,5.9-20.5,8.4-30.9c-2.8-0.3-5,1.2-6.2,3.7
		c-4.8,6.6-4.6,16.3-12,21c5.4-20,18.9-36.5,26.2-55.7c-2,1-4.2,1.9-5.7,3.6c-9.5,10.4-18.6,21.3-25.6,33.6
		c-9,15.5-18.1,31.1-23.9,48.1c-12.3,30.3-25.2,60.3-38.2,90.3c-12.4,25.3-22.8,51.5-34.8,76.9c-7.2,18.1-17,34.9-25.4,52.4
		c-11.2,22.1-22.2,44.7-38.6,63.5c-5.6,5.8-11.2,11.6-15.9,18.1c0.7,1.1,2.1,3.1,2.8,4.2c-8.2-1.1-15.7-4.6-22.7-8.7
		c1.3-0.6,3.8-1.9,5-2.6c-9.4-10.5-13.9-24-19.9-36.5c-14.3-33.8-18.6-70.6-23-106.7c-1.3-18.9-3.1-37.7-3.2-56.6
		c-2.5-23.4-0.9-47-2.3-70.4c-2.3-19.1,0-38.4-2.5-57.4c-2.8-0.6-5.6-1.2-8.4-1.8c1.7-2.1,3.4-4.2,5.3-6.1
		c11.4-4.2,18.7-14.8,29.5-20c7.1-3.3,13.8-7.2,20.6-11.2c8.4-4,17.5-6.3,26.4-8.8c3.6-1.4,7.6,0.4,9.8,3.4c1,12.6-0.3,25.5,2.8,38
		c0.8,0.5,2.3,1.4,3.1,1.9c0.4,0.2,1.2,0.7,1.6,1c2.7-5.9,5-11.9,7.3-17.9c8.3-14.5,8.5-31.9,9.9-48.1c1.2-9.7,0.8-19.5,1.2-29.3
		c1.6-1.9,3.2-3.8,4.8-5.8c1.1-1.4,2.2-2.8,3.3-4.3c3.5-4.6,6.6-9.4,9.9-14.1c2.6,3.9,0.2,8.4-0.5,12.5
		c-4.8,17.2-6.6,35.2-11.6,52.4c-7.6,23.5-15,47.1-25.2,69.7c-18.3,55.4-39.9,110.3-49.3,168.2c-2,12.1-8,24.2-3.6,36.5
		c11.7-26.3,18.7-54.5,29.5-81.1c10.2-30.2,21.2-60.1,31.2-90.4c12.7-34.6,26-69,35.5-104.6c5.3-28.1,14.3-55.4,20-83.4
		c7.4,9.3,14.8,18.8,20.9,29.1c9.6,14,15.7,30,22,45.7c3.8-7.5,3-16.3,2.1-24.4c-3-14.3-7.1-28.4-13.4-41.6
		c-5.3-9.6-11.3-18.8-17.9-27.6c-0.6-1.8-1.1-3.5-1.7-5.3c5.6-1.3,8.5-6.5,12.2-10.3c3.1-3.3,6.9-6,10.5-8.8
		c0.3-0.3,0.9-0.8,1.3-1.1c5.7,7.9,13.8,13.6,19.7,21.3c10.3,12.7,22.3,24.9,27.6,40.7c2.4,6.5,4.3,14.8,12.3,16.2
		c1.2-2.1,3.1-4.2,2.8-6.9c0.1-18.3-5.4-36.3-13.5-52.6c-6.8-12.4-13.5-25.8-26-33.6l-0.2-0.2c8.9-1.8,18-4.3,25.2-10.1
		c-9.2-1.5-18.6-1.2-27.8-0.4c-0.9,1.2-2.6,3.5-3.5,4.7c-1.7-2.1-3.2-4.2-4.9-6.3C465,2.3,464.1-2.8,466-7.4 M230.5,517.5
		c-0.6,15.2-4.6,30-6.4,45.1c-0.9,9.4-6.4,17.8-6,27.4c0.3,6.6-2,12.9-4.2,19.1c-3.7,10.3-3.3,21.5-6.6,31.9
		c-1.8,8.9-1.1,21.7,8.5,25.8c4.6-26.9,10-53.7,13.3-80.8c5-19.3,6.8-39.2,11.3-58.6c1.4-5.6,1.5-11.4,1.5-17.1
		C237,510.2,231,511.5,230.5,517.5 M148.5,802c-12.9,4.6-26.8,5.7-39.3,11.3c-5.8,1.9-11.7,3.6-17.6,5.5
		c-12.1,1.6-23.2,6.6-34.6,10.7c-23.5,5.9-45.7,15.9-69,22.8c-3.8,0.7-9,4-6.6,8.5c4.6,3.1,10.6,4.8,15.7,1.5
		c28.4-15,60.2-20.9,90.7-30.3c26.4-6.7,52.7-14.4,77.4-26c7.5-3.7,17.1-5.9,21.5-13.6c-1.1-0.2-3.3-0.4-4.4-0.6
		C170.7,794,159.3,797.4,148.5,802 M332.3,798.1c-27.4,2.9-54.9,4.1-82.1,7.7c-11.4,1.1-19.9,10.6-23.5,20.9
		c6,3.7,13.2,2.1,19.8,2.5c67.7,5.5,131.2,31.9,193.1,58.3c6.9,2.9,13.1,7.3,20.1,10.1c-1-2.5-2-5.1-4.1-6.8
		c-9.9-9.4-21.7-16.5-33.4-23.3c-34.1-20.6-72.3-33.4-111.1-41.6c-13.6-3.4-27.8-4.5-41.3-8.5c12.7-4.2,26.3-3.3,39.4-5.3
		c37.6-2,75.3,4.4,111.6,13.8c24.1,5.1,46.7,15.2,70.3,21.8c-13.1-11.3-26.7-22.2-41.9-30.6c-9.9-6.4-20-13-31.6-15.7
		C389.9,792.2,360.6,796.7,332.3,798.1z"/>
	<path fill="#E8C29E" stroke="#E8C29E" stroke-width="0.3" d="M366-1.7c1.9-5.1,3.7-10.2,5.4-15.4c9.9,5.5,19.5,11.4,28.9,17.7
		c-3,5.7-6.3,11.3-10.4,16.2C382.2,10.3,374.1,4.2,366-1.7z"/>
	<path fill="#843B2D" stroke="#843B2D" stroke-width="0.3" d="M132,2.8c-5.6-4.8-12.1-9-15.8-15.6c2.5,2.5,5.1,5,7.7,7.3
		c9.8,8.2,19.3,16.9,29.4,24.8C145.1,15.4,139,8.5,132,2.8z"/>
	<path fill="#D2693B" stroke="#D2693B" stroke-width="0.3" d="M304.2-11.1c3.2,2.2,6.4,4.3,9.6,6.5c-0.1,8.3-0.2,16.6-1.3,24.8
		c-1.8-1.3-3.7-2.5-5.6-3.7C306.4,7.2,305.3-2,304.2-11.1z"/>
	<path fill="#DC622C" stroke="#DC622C" stroke-width="0.3" d="M31.9-8.3c5.6,2.2,10.8,5.9,12.6,11.9c6.6,17,15.9,32.9,24.7,48.9
		c-14-9-19.8-25.5-30.1-37.9c-0.4-0.7-1.1-2.1-1.5-2.7C36,5.1,33.9-1.6,31.9-8.3z"/>
	<path fill="#E8C29E" stroke="#E8C29E" stroke-width="0.3" d="M312.6,20.1c1.1-8.2,1.2-16.5,1.3-24.8c10.2,6.8,20.4,13.7,30.6,20.6
		c-4.2,8.2-8.6,16.4-13,24.5C326,32.9,319.3,26.4,312.6,20.1z"/>
	<path fill="#EBC869" stroke="#EBC869" stroke-width="0.3" d="M403.3-4.6c9.9,6,19.4,12.8,28.8,19.8c-0.2,0.6-0.6,1.8-0.8,2.4
		c-0.7,1.3-2,4-2.7,5.4c-4.6,5.8-10.2,10.6-14.8,16.4c-6.9-8.6-15.7-15.3-24-22.4c4.2-4.9,7.4-10.5,10.4-16.2
		C401.3-1.2,402.3-2.9,403.3-4.6 M401.2,23.4c3.7,4,7.2,11.6,13.9,8.8c6.1-4,10.7-10,13.7-16.6c-5.3-2.9-9.6-10.7-16.2-8.8
		C408.2,11.8,404.9,17.7,401.2,23.4z"/>
	<path fill="#DDAF1B" stroke="#DDAF1B" stroke-width="0.3" d="M401.2,23.4c3.7-5.6,7-11.5,11.4-16.6c6.6-1.9,10.9,5.9,16.2,8.8
		c-3,6.6-7.6,12.6-13.7,16.6C408.5,35,404.9,27.3,401.2,23.4z"/>
	<path fill="#521DB0" stroke="#521DB0" stroke-width="0.3" d="M472.9,8.7c9.3-0.8,18.6-1.1,27.8,0.4c-7.2,5.8-16.3,8.3-25.2,10.1
		c-2.2-1.8-4.2-3.7-6.1-5.7C470.3,12.2,472,9.8,472.9,8.7z"/>
	<path fill="#8D2308" stroke="#8D2308" stroke-width="0.3" d="M56.6,12.9c5.3,5.5,9.1,12.2,13.2,18.6c0.7,1.2,2.1,3.7,2.9,4.9
		l0.5,1.9l-1.7,0c-0.8-0.4-2.3-1.1-3-1.5C63.8,29.1,58.8,21.6,56.6,12.9z"/>
	<path fill="#EBB59A" stroke="#EBB59A" stroke-width="0.3" d="M84.3,14.6c0.4-0.2,1.3-0.5,1.7-0.6c5.2,13.2,12.5,25.2,19.4,37.5
		c-0.4,7.3,4.5,13.1,8,18.9c5.2,8.4,11.3,16.2,17.7,23.7c3.6,4.4,9,6.6,14,8.9c9.2,4,18.3,8.3,27.3,12.8c-1.2,2-2.4,4.1-3.6,6.1
		c-12.4-4-23.5-11-34.6-17.6c-14.4-11.4-23.5-27.8-33.1-43.2c-7.3-12.5-15.5-24.9-19.7-38.9c0,1.2,0,3.5,0,4.6
		c-1.4,0.4-4.2,1.4-5.7,1.8C78,23.7,80.8,18.8,84.3,14.6z"/>
	<path fill="#BC8469" stroke="#BC8469" stroke-width="0.3" d="M85.9,14c1.2-0.4,3.6-1.2,4.7-1.5c12.1,16,22.5,33.5,36.9,47.6
		c12.2,11.6,25.8,22.1,41.6,28.3c2,1,4,2.1,6,3.2c-1.4,0-4.3,0.1-5.7,0.1c-18-7.6-34.3-19.1-47.8-33.3
		c-11.1-11.4-18.6-25.6-29.1-37.5c3.2,10.1,9.1,19,14.6,28c7.5,12.2,16.4,23.9,27.9,32.7c15.1,11.6,33.1,19.4,51.5,23.9
		c29.6,7.6,60,12.6,88.4,24.1c3.2,23.8-1.4,47.6-0.9,71.4c-1.1,0.8-2.1,1.6-3.1,2.4l0.2-3.3c0.2-21.8,3.9-43.6,2.1-65.4
		c0.2-2.7-3-3.5-4.7-4.6c-27.9-11-57.8-15.1-86.5-23.3c-20.9-5.7-41.3-15.4-56.8-30.8c-7.6-7.3-13.7-16.1-20-24.6
		C98.4,39.2,91.1,27.1,85.9,14z"/>
	<path fill="#B47250" stroke="#B47250" stroke-width="0.3" d="M39.1,14.7C49.5,27,55.3,43.5,69.2,52.5c0.9,0.6,2.7,1.7,3.5,2.3
		c0.1-1,0.4-3,0.5-4.1c1.1,5.4,2.1,10.8,3.3,16.2c-3.8-1.3-7.1-3.6-9.7-6.8C58.2,50,49.6,39.6,42.7,28.2
		C41.4,23.7,40.4,19.1,39.1,14.7z"/>
	<path fill="#601F1B" stroke="#601F1B" stroke-width="0.3" d="M344.4,15.9c5.1,3.6,9.8,7.7,14.9,11.4c3.1,7.2,5.5,14.8,8.1,22.2
		c-5.3,7.4-11.3,14.3-17.5,20.9c-5.9-10.2-11.9-20.2-18.5-30C335.8,32.3,340.3,24.2,344.4,15.9z"/>
	<path fill="#652375" stroke="#652375" stroke-width="0.3" d="M428.7,22.9c3.6-1.3,7.2-3.1,11-3.3c5.9,3,10.5,8,15,12.7l-1.9,1.8
		c-0.3,0.3-1,0.8-1.3,1.1c-4.4-5.2-9.5-9.8-15.4-13.2c-6,5.9-12,11.8-17.3,18.2c3.5,4.6,7.1,9.1,10,14.1c0.5,1.7,1.1,3.5,1.7,5.3
		c-7.2-5.2-13.1-12.1-16.6-20.3C418.5,33.5,424.1,28.7,428.7,22.9z"/>
	<path fill="#79251A" stroke="#79251A" stroke-width="0.3" d="M515.3,105.5c0.1-18.3-5.4-36.3-13.5-52.6
		c-6.8-12.4-13.5-25.8-26-33.6l-0.2-0.2c-2.2-1.8-4.2-3.7-6.1-5.7c-1.7-2.1-3.2-4.2-4.9-6.3l-1.1-1.2c-5.5-3.3-11-6.8-16-10.9
		c-0.3-0.5-1-1.6-1.3-2.2c-1.2-1-2.5-2-3.7-3c-4.4-3.1-8.7-6.3-13.1-9.4c-3.8-2.7-7.8-5.2-11.7-7.7c-4.6-2.9-9.3-5.6-14-8.3
		c-10.1-5.5-20.2-10.9-30.2-16.5c-6.3-3.3-12.6-6.5-18.8-9.9c-25-13.3-50.2-26.4-74.7-40.6c-23.2-9.4-45.4-21.3-66.8-34.1
		c4.7-0.3,9.4-0.5,14.2-0.6c-24.3-13.7-50.4-25.8-78.4-28.7c-35-3.8-71.1,1.5-103.2,16c-3.5,1.7-7.5,2.3-11.4,2.3
		c-0.7,0.4-2.1,1.3-2.9,1.7c4.8,5.4,12.3,2.9,18.5,2.2c15.9-2.7,32.1-3.1,48.2-4.9c7.7-1.5,13.7,4.5,19.2,8.8
		c-24.4,2.9-49.3,4-73.6,0c-4.1-0.5-8.4-0.6-12.5-0.7c11.2,8.7,25.1,13.1,38.7,16.4c2.5,0.5,4.7,1.8,6.6,3.4c2.8-1,5.8-0.7,8.5,0.4
		c7.6,0.1,15.2,0.5,22.6,2.4c11.7-2.7,24.1-1.4,35.8-4.4c3.3,2.2,6.6,4.4,9.8,6.7c5.6,4.4,12.6,7.2,17.2,12.9
		c3.3,1.2,6.4,3.1,9.2,5.2c10.5,7.6,21.2,14.8,31.7,22.2c25.6,17.7,51.3,35.3,76.9,53c5.4,3.6,10.8,7.3,16.1,11.1
		c3.2,2.2,6.4,4.3,9.6,6.5c10.2,6.8,20.4,13.7,30.6,20.6c5.1,3.6,9.8,7.7,14.9,11.4c5.9,3.4,11,7.8,16.2,12.1
		c2.1,1.7,4.3,3.5,6.4,5.3c3.3,3,6.6,6.2,10,9.1c2.2,1.9,4.3,3.8,6.4,5.9c1.2,1.3,2.3,2.6,3.4,3.8c-1,3-1.9,5.9-2.8,8.9
		c2.1-1.9,4-4,6-6c4,3.9,8.1,7.7,11.9,11.8c7.4,9.3,14.8,18.8,20.9,29.1c9.6,14,15.7,30,22,45.7c3.8-7.5,3-16.3,2.1-24.4
		c-3-14.3-7.1-28.4-13.4-41.6c-5.3-9.6-11.3-18.8-17.9-27.6c-7.2-5.2-13.1-12.1-16.6-20.3c-6.9-8.6-15.7-15.3-24-22.4
		c-7.7-6.5-15.7-12.6-23.9-18.5c-3.6-2.5-7.3-4.9-10.9-7.5c-9.3-6.6-18.6-13.2-28-19.7c-5.6-3.8-11.2-7.8-16.8-11.6
		c-9.1-6-18.1-12.2-27-18.4c-6.8-4.5-13.5-9.1-20-14c8.1,3.6,15.8,7.9,23.5,12.2c8.7,3.8,16.9,8.4,25.3,12.7
		c7.4,3.9,14.8,7.9,22.4,11.6c7.6,4,15.3,7.9,23,11.8c4.7,2.4,9.3,4.9,13.9,7.5c9.9,5.5,19.5,11.4,28.9,17.7c1-1.8,2-3.5,3-5.3
		c9.9,6,19.4,12.8,28.8,19.8c-0.2,0.6-0.6,1.8-0.8,2.4c-0.7,1.3-2,4-2.7,5.4c3.6-1.3,7.2-3.1,11-3.3c5.9,3,10.5,8,15,12.7l-1.9,1.8
		c5.7,7.9,13.8,13.6,19.7,21.3c10.3,12.7,22.3,24.9,27.6,40.7c2.4,6.5,4.3,14.8,12.3,16.2C513.7,110.2,515.5,108.1,515.3,105.5z"/>
	<path fill="#843B2D" stroke="#843B2D" stroke-width="0.3" d="M81.4,26.8c0-1.2,0-3.5,0-4.6c4.2,14,12.4,26.3,19.7,38.9
		c9.6,15.4,18.6,31.8,33.1,43.2c11.1,6.6,22.2,13.6,34.6,17.6c-9.6-0.3-17.4-7.2-25.7-11.1c-13.7-6.2-23.1-18.5-31.2-30.7
		C100.8,62.9,89.7,45.5,81.4,26.8z"/>
	<path fill="#E9B296" stroke="#E9B296" stroke-width="0.3" d="M92.7,20.9c10.5,11.8,18,26,29.1,37.5c13.4,14.2,29.8,25.7,47.8,33.3
		c0,0.9,0.1,2.8,0.2,3.8c8.5,3.3,17.5,4.9,26.3,7.3c-3.1,1-6.2,1.9-9.3,2.8c-18.5-4.5-36.4-12.3-51.5-23.9
		c-11.5-8.8-20.4-20.4-27.9-32.7C101.8,39.9,95.9,30.9,92.7,20.9z"/>
	<path fill="#843B2D" stroke="#843B2D" stroke-width="0.3" d="M157.9,24.6l-1-2.1c17.3,10.9,37.2,17.2,54.2,28.7c-0.5,0-1.5,0-2.1,0
		C193.1,40.4,174.5,34.3,157.9,24.6z"/>
	<path fill="#5517C1" stroke="#5517C1" stroke-width="0.3" d="M418.8,40.2c5.3-6.5,11.3-12.4,17.3-18.2c5.9,3.4,11,8,15.4,13.2
		c-3.6,2.9-7.4,5.5-10.5,8.8c-3.8,3.8-6.6,9.1-12.2,10.3C425.9,49.3,422.3,44.8,418.8,40.2z"/>
	<path fill="#DEB08C" stroke="#DEB08C" stroke-width="0.3" d="M75.8,28.7c1.4-0.5,4.3-1.4,5.7-1.8c8.3,18.7,19.4,36,30.3,53.3
		c8.1,12.2,17.5,24.5,31.2,30.7c8.4,4,16.1,10.8,25.7,11.1c1.2-2,2.4-4,3.6-6.1c-9-4.5-18.1-8.8-27.3-12.8c-5-2.3-10.4-4.5-14-8.9
		c-6.4-7.5-12.5-15.2-17.7-23.7c-3.5-5.9-8.5-11.6-8-18.9c6.4,8.4,12.4,17.2,20,24.6c15.5,15.4,35.9,25.1,56.8,30.8
		c28.7,8.2,58.6,12.2,86.5,23.3c1.8,1.1,5,1.9,4.7,4.6c1.7,21.8-1.9,43.5-2.1,65.4c-14.5,9.9-28,24.5-29.4,42.8
		c0.4,12.8,3.8,25.4,3.6,38.3c-0.3,12.8,3.4,25.3,3.8,38.1c-8.7-6.1-13.3-16-18.2-25.1c-6.1-12.2-12.9-24.8-13.1-38.8
		c6.5-18.2,11.6-36.8,17.7-55.1c3.8-13,8.2-26,8.6-39.7c-16.1-2.5-32.4-3.5-48.4-5.9c-16.2-2.7-33-4.3-48.2-10.9
		c-10.7-5-21.1-11.2-28.4-20.6c-8.4-10.6-17.4-20.7-24.3-32.3c-4.2-6.9-8-14.1-13-20.5c-1.1-1.7-3.1-2.3-4.8-3L76.5,67
		c-1.2-5.4-2.2-10.8-3.3-16.2c-0.4-2.5-0.9-5-1.3-7.5c0.4-0.6,1.1-1.8,1.4-2.4c13,25.1,27.3,49.7,44.4,72.2
		c6.3,9,15.9,14.7,25.6,19.3c5.1,2.2,10.6,5,16.4,3.3c0-2-0.1-3.9-0.1-5.9c-10.3-3.5-21.2-6.6-29.7-13.6
		c-8.6-6.7-11.8-17.6-17.1-26.7c-1,0.1-2.1,0.3-3.1,0.5c-5.5-6.4-8.1-14.5-11.7-21.9C88.8,60,84.4,48.4,78.3,38.1
		c-0.8,0-2.5,0.1-3.3,0.1c-0.4,0-1.4,0-1.9,0.1l-0.5-1.9C73.6,33.8,74.6,31.2,75.8,28.7z"/>
	<path fill="#E59D74" stroke="#E59D74" stroke-width="0.3" d="M359.3,27.3c5.9,3.4,11,7.8,16.2,12.1c-2.8,3.3-5.5,6.6-8.1,10.1
		C364.7,42.1,362.4,34.6,359.3,27.3z"/>
	<path fill="#8E4F31" stroke="#8E4F31" stroke-width="0.3" d="M246.4,33.1c0.8,0.1,2.5,0.3,3.3,0.4l1.2,1.3
		C250.3,38.4,245.5,35.8,246.4,33.1z"/>
	<path fill="#BD8469" stroke="#BD8469" stroke-width="0.3" d="M68.4,36.7c0.8,0.4,2.3,1.1,3,1.5l1.7,0c0.5,0,1.4,0,1.9-0.1
		c13.1,25.9,27.8,51.1,45.4,74.1c9.4,12.7,24.8,18.5,39.2,23.4c-5.7,1.7-11.2-1.1-16.4-3.3c-9.7-4.6-19.3-10.3-25.6-19.3
		C100.6,90.5,86.3,66,73.3,40.9c-0.4,0.6-1.1,1.8-1.4,2.4C70.8,41.1,69.6,38.9,68.4,36.7z"/>
	<path fill="#EBB79B" stroke="#EBB79B" stroke-width="0.3" d="M75,38.2c0.8,0,2.5-0.1,3.3-0.1C84.4,48.4,88.8,60,97.9,68.1
		c3.6,7.4,6.3,15.5,11.7,21.9c1-0.2,2.1-0.4,3.1-0.5c5.3,9.1,8.5,20,17.1,26.7c8.6,7,19.4,10.1,29.7,13.6c0,2,0,3.9,0.1,5.9
		c-14.4-4.9-29.8-10.7-39.2-23.4C102.8,89.3,88.1,64,75,38.2z"/>
	<path fill="#ECC57A" stroke="#ECC57A" stroke-width="0.3" d="M367.4,49.5c2.6-3.4,5.3-6.8,8.1-10.1c2.1,1.7,4.3,3.5,6.4,5.3
		c-2.7,0.7-5.4,1.1-7.9,2.4c-2,3.4-3.2,7.3-5.1,10.7c-3.4,5.5-9.4,9-12.3,14.9c-0.7,6.6,3,14.4-2.3,19.8l-2.7,2
		c0.2-8.1,0.6-16.3-1.7-24.2C356.1,63.8,362.1,56.9,367.4,49.5z"/>
	<path fill="#EBCC61" stroke="#EBCC61" stroke-width="0.3" d="M374,47.1c2.4-1.3,5.2-1.7,7.9-2.4c3.3,3,6.6,6.2,10,9.1
		c-3.4-1.3-6.9-2-10.4-2.6c-5.6,7.9-13,14.5-17.6,23.1c3.8,11.6,9.6,22.6,14.1,34c0.9,1.5,1.8,3.1,2.8,4.6c-1.1,1.4-2.2,2.8-3.3,4.3
		c-2.3-1.1-4.7-2.1-7-3.2c-3.6,8.4-2.4,17.8-3.2,26.7c-0.2,14.6-1.3,29.2-5.1,43.4c1.1-24.7,5.4-49.3,3.8-74.1
		c-2.7-6.5-7.5-11.7-11.8-17.2c5.4-5.4,1.7-13.2,2.3-19.8c2.9-5.9,8.9-9.4,12.3-14.9C370.8,54.4,372,50.5,374,47.1z"/>
	<path fill="#DCAF1D" stroke="#DCAF1D" stroke-width="0.3" d="M363.9,74.2c4.6-8.6,12-15.2,17.6-23.1c3.5,0.6,7,1.4,10.4,2.6
		c2.2,1.9,4.3,3.8,6.4,5.9c-6,16.3-5.4,36.8-20.2,48.5C373.5,96.9,367.7,85.9,363.9,74.2z"/>
	<path fill="#CB9964" stroke="#CB9964" stroke-width="0.3" d="M398.2,59.7c1.2,1.3,2.3,2.6,3.4,3.8c-1,3-1.9,5.9-2.8,8.9
		c-3,8.7-2.9,18.4-8.1,26.2c-3.3,4.7-6.4,9.5-9.9,14.1c-1-1.5-1.9-3-2.8-4.6C392.8,96.6,392.2,76.1,398.2,59.7z"/>
	<path fill="#E0C0AB" stroke="#E0C0AB" stroke-width="0.3" d="M77.1,67.3c1.7,0.7,3.7,1.4,4.8,3c5,6.4,8.8,13.6,13,20.5
		c6.9,11.6,15.9,21.7,24.3,32.3c7.3,9.4,17.8,15.7,28.4,20.6c15.2,6.7,31.9,8.2,48.2,10.9c16.1,2.5,32.4,3.4,48.4,5.9
		c-0.4,13.7-4.8,26.7-8.6,39.7c-6.1,18.3-11.2,36.9-17.7,55.1c-1,3-2,6-3,9c-1.7-4.2-3.2-8.7-3-13.3c3.2-11.1,6.1-22.4,9.7-33.3
		c0.4-0.1,1.3-0.3,1.7-0.3c1.5-16,8.4-31.1,11-47c0.3-1.3,0.8-3.8,1.1-5c-5.2-0.5-10.4-0.9-15.6-1.4c-24.4-3-49.6-3-72.7-12.2
		c-8.7-3.6-17.9-7.4-23.7-15.2c-12-15.5-23.5-31.3-34.7-47.5C84,82.3,80.2,75,77.1,67.3z"/>
	<path fill="#5319C0" stroke="#5319C0" stroke-width="0.3" d="M404.9,66.5c4,3.9,8.1,7.7,11.9,11.8c-5.7,28-14.7,55.3-20,83.4
		c-9.5,35.6-22.9,70.1-35.5,104.6c-9.9,30.3-21,60.2-31.2,90.4c-10.8,26.7-17.8,54.8-29.5,81.1c-4.3-12.3,1.7-24.4,3.6-36.5
		c9.3-57.9,31-112.7,49.3-168.2c10.2-22.5,17.6-46.1,25.2-69.7c5-17.2,6.7-35.1,11.6-52.4c0.7-4.1,3.1-8.6,0.5-12.5
		c5.3-7.8,5.2-17.6,8.1-26.2C401,70.6,402.9,68.5,404.9,66.5z"/>
	<path fill="#2D1760" stroke="#2D1760" stroke-width="0.3" d="M614.1,115.2c4.3-12.3,9.7-24.3,12.9-37l1.4,0.9
		c7.8,29.6,8.9,60.3,9.4,90.7c0.8,39.2-1,78.4-6.5,117.2c-12.4,91.4-40.2,179.9-71.5,266.4c-1.1,3.2-0.1,6.5,0.5,9.7
		c8.1,34.4,12.6,69.7,24.8,103c-11.4,9.8-23.8,18.5-36.8,26.1c21.5,65.9,39,133.1,56,200.2c1.9,6.6,3.5,13.5,2.9,20.5
		c30.7,0,60.1-10.5,89.6-18.1c0.9,2.5,1.9,5,2.8,7.5c-14.5,5.9-29.2,11.9-44.7,14.4c-13,2-25,7.6-37.8,10.4
		c-3.9,1.1-8.3,1.6-11.5,4.3c-3.9,6.6-4.6,14.7-8.8,21.2c-3.2,5.1-4.9,10.9-7,16.5c0.7,1.2,1.3,2.3,1.9,3.6c3.2-2.4,6.5-4.7,9.8-6.9
		c5.9-1.5,11.9-3,18-1.7c24.9,3.8,49.7,8.1,74.6,11.5c17,2.3,34.1-0.5,50.9-3.4c17.4-3.5,34.9-6.4,52.2-10.8
		c3.1,9.4,5.6,19.1,7.4,28.8c-25.5-1.4-51.1,1.4-76,6.9c5-6.1,13.5-7.2,20.6-9.3c14.1-1.1,28.4-0.7,42.6-0.8c3,0.1,5.7-1.3,8.4-2.4
		c-1.4-4.7-3.3-13.2-10-11.8c-13.7,1.9-28.2,1.6-40.9,8.1c-6.2,3.5-13.4,0.6-20,1.5c-29.7,4.4-59.1-3.2-88.3-7.6
		c-8.9-1.1-18.2-4.8-26.9-1.4c-8.6,2.8-13.3,11-19.3,17.2c-3.8,3.9-8.4,6.9-12.9,10c0.1,1.7,0.2,3.5,0.3,5.2
		c-1.2-0.4-3.5-1.1-4.7-1.5c-1.1-2-2.1-3.9-3.1-5.9c-10,14.2-21,27.8-34.3,39.1c-10.7,10.2-25,15.2-38.7,20
		c-33.8,10.6-69.3,13.3-104.4,16c-30.7,2.6-61.4,4.5-92,7.9c-25.4,2.5-50.5,7-75.9,9.6c-13.5,1.6-27.1,2.5-40.6,4.1
		c-2.2-7-4.1-14-5.8-21.1c-4.9-22.3-17.3-41.8-29.6-60.7c-19-30.2-44.3-55.9-71.5-78.9c-11.8-10.4-24.3-20.2-35.5-31.2
		c10.2,1.7,20.7,3,30.3,7.3c9.1,4,18.1,8.3,27.4,11.9c8.7,3.1,14.8,10.5,23.3,14c8.8,5.8,17.1,12.5,25.7,18.7
		c17.7,16.9,36.3,33.3,50.2,53.7c8.3,9.4,11.5,21.8,18.8,31.9c12.4-3,24.6-6.5,37.1-9.1c19.8-5.4,40.3-7.5,60.6-9.5
		c22.5-4.3,45.4-5.2,67.9-9c23.7-4.4,48.9-4,71.1-14.4c9-4.5,18.3-8.6,27.1-13.6c22.7-15,45-32.1,59.5-55.5
		c6.2-12.8,12.8-26.2,11.9-40.8c1.2-19-6.3-36.8-11.8-54.5c-5.4-15-8.9-30.6-15.1-45.3c-5.9-16.7-9.8-34.1-16.6-50.5
		c-3.4,0.9-6.7,1.8-10,3.1c-16.3,6.9-34.4,7.6-51.8,7c-16.6,0-33.5,1.1-49.6-3.6c3.7-2.3,8.1-3.2,12.4-3.2c12.9-0.3,25.5-3.1,38-6.2
		c12-4,24.9-7.6,34-17c13.8-10.3,26.5-22.2,41.2-31.2c12.1-8.3,21.6-19.7,29.7-31.9c-3.4-5.5-5.7-11.6-7.1-17.9
		c-3-13.2-8.4-25.6-11.9-38.7c-2.8-9.8-4.7-20-9.8-29c-4.5,7.5-8,15.8-13.8,22.5c-5.9,6.8-13.7,11.6-21.7,15.6
		c3.6-20.6,17.4-37.2,22.7-57.2c6.2-12.6,9.4-26.3,16.3-38.6c15.8-34,27.4-69.7,42.6-103.9c8.4-25,14.4-50.7,21.9-75.9
		c6.8-29.9,12.9-60,16.5-90.4c5-32.4,1.9-65.3-4.8-97.2c-0.8-3.8-1.4-7.6-2.1-11.4C609.7,127.8,611.8,121.4,614.1,115.2z"/>
	<path fill="#CB9C27" stroke="#CB9C27" stroke-width="0.3" d="M351.5,94.5l2.7-2c4.3,5.5,9.1,10.7,11.8,17.2
		c-5.5,10.8-12.9,21-15.2,33.1C351.2,126.8,350.2,110.6,351.5,94.5z"/>
	<path fill="#EBBDA4" stroke="#EBBDA4" stroke-width="0.3" d="M186.7,105.4c3.1-0.8,6.2-1.8,9.3-2.8c13.3,3.9,27.3,5.3,40.8,8.6
		c12.8,2.5,25.1,7.1,37.3,11.4c4.5,2.1,11,4,10.9,9.9c2.1,17.1,1.7,34.5,3.2,51.7c3.3,0.4,6.6,0.9,9.9,1.4
		c-8.2,4.6-16.3,9.6-23.9,15.2c-0.5-23.8,4.1-47.6,0.9-71.4C246.7,118,216.3,113,186.7,105.4z"/>
	<path fill="#E8C247" stroke="#E8C247" stroke-width="0.3" d="M350.8,142.9c2.2-12.1,9.7-22.3,15.2-33.1c1.6,24.8-2.8,49.4-3.8,74.1
		c-1.3,5.9-2.9,11.8-4.8,17.5c-6.9-9.4,2.1-23.8-6.1-32.9C350.9,160,350.8,151.4,350.8,142.9z"/>
	<path fill="#DEB98F" stroke="#DEB98F" stroke-width="0.3" d="M367.2,140.5c0.9-8.9-0.3-18.3,3.2-26.7c0.9,14.1-0.8,28.1-1.5,42.2
		c-0.8,14.9-3.4,29.7-7.4,44.2c-2.3,6-4.6,12.1-7.3,17.9c-0.4-0.2-1.2-0.7-1.6-1c-0.5-16.2-1.9-32.4-1.5-48.6
		c8.3,9.2-0.8,23.5,6.1,32.9c1.9-5.8,3.5-11.6,4.8-17.5C365.9,169.7,367.1,155.1,367.2,140.5z"/>
	<path fill="#5F1E1A" stroke="#5F1E1A" stroke-width="0.3" d="M370.5,113.9c2.3,1.1,4.7,2.1,7,3.2c-1.6,1.9-3.2,3.8-4.8,5.8
		c-0.4,9.8,0,19.6-1.2,29.3c-1.4,16.2-1.6,33.6-9.9,48.1c3.9-14.4,6.6-29.2,7.4-44.2C369.7,142,371.4,127.9,370.5,113.9z"/>
	<path fill="#5F1E1A" stroke="#5F1E1A" stroke-width="0.3" d="M219.8,164c5.2,0.5,10.4,0.9,15.6,1.4c-0.3,1.3-0.8,3.8-1.1,5
		C229.5,168.3,224.7,166.1,219.8,164z"/>
	<path fill="#441E49" stroke="#441E49" stroke-width="0.3" d="M322.9,173.9c6.5-1.7,13-3.4,19.6-4.6c2.9-0.3,5.8-0.5,8.7-0.8
		c-0.4,16.2,1,32.4,1.5,48.6c-0.8-0.5-2.3-1.4-3.1-1.9c-3.2-12.4-1.9-25.3-2.8-38c-2.1-3-6.2-4.8-9.8-3.4c-8.9,2.6-18,4.8-26.4,8.8
		c-6.7,4-13.5,7.9-20.6,11.2c-10.8,5.3-18.2,15.8-29.5,20c3.3-3.8,6.8-7.3,10.6-10.5c1-0.8,2.1-1.6,3.1-2.4
		c7.6-5.7,15.6-10.6,23.9-15.2C306.2,181.4,313.9,176.1,322.9,173.9z"/>
	<path fill="#5018B4" stroke="#5018B4" stroke-width="0.3" d="M531.8,173.4c1.5-1.8,3.7-2.6,5.7-3.6c-7.3,19.2-20.8,35.6-26.2,55.7
		c-15,38.1-24.6,78-37.1,117c-13.6,39.6-33.5,76.7-52.3,114c-17,34.2-35.4,67.6-54.6,100.6c-5.6,2.3-10.9,7.4-17.4,6.1
		c-5.9-0.9-11.8-1.7-17.7-2.5c-0.7-1.1-2.1-3.1-2.8-4.2c4.7-6.5,10.4-12.3,15.9-18.1c16.4-18.8,27.4-41.4,38.6-63.5
		c8.4-17.5,18.2-34.3,25.4-52.4c12-25.5,22.4-51.6,34.8-76.9c13-30,25.9-60,38.2-90.3c5.8-17,14.9-32.6,23.9-48.1
		C513.2,194.7,522.3,183.8,531.8,173.4z"/>
	<path fill="#D8A8C2" stroke="#D8A8C2" stroke-width="0.3" d="M241.9,242.8c1.3-18.3,14.9-32.9,29.4-42.8l-0.2,3.3
		c-3.8,3.2-7.3,6.8-10.6,10.5c-1.8,2-3.6,4-5.3,6.1c-4.4,6.6-9.8,13.7-9.1,22.1c2.1,29.1,5.2,58.1,8.3,87.1
		c-6.2-3.8-11.6-8.9-15.7-14.9c-10.6-15.2-17.3-32.7-23.8-49.9c1-3,2-6,3-9c0.3,14,7,26.6,13.1,38.8c4.9,9.1,9.5,19,18.2,25.1
		c-0.4-12.8-4.1-25.2-3.8-38.1C245.7,268.3,242.3,255.7,241.9,242.8z"/>
	<path fill="#2E1762" stroke="#2E1762" stroke-width="0.3" d="M523.3,204.5c1.2-2.5,3.4-3.9,6.2-3.7c-2.5,10.4-6,20.5-8.4,30.9
		c-2.4,11.4-7.6,22-8.7,33.6c7.3-0.4,14.4-1.7,21.5-3.4c-1.9,9.4-7.3,17.5-11.3,26.1c-5.2,9.5-8.1,20-13.3,29.6
		c-8.7,15.7-13.1,33.1-20.4,49.5c-9.7,27-20.8,53.5-31.2,80.2c-7.3,19.1-18.8,36.2-27.8,54.5c-15.5,26.4-36.8,49.9-63.1,65.9
		c-0.5-0.7-1.5-2-2-2.7c0.7-2.7,1.4-5.4,2.4-8c19.2-33,37.6-66.5,54.6-100.6c18.8-37.3,38.7-74.3,52.3-114
		c12.5-38.9,22.1-78.8,37.1-117C518.7,220.8,518.5,211.1,523.3,204.5z"/>
	<path fill="#2D1957" stroke="#2D1957" stroke-width="0.3" d="M200.1,221.8c7.1-1.9,14.1-4,20.7-7.4c0.2,0.8,0.7,2.5,0.9,3.4
		c-3.7,11-6.5,22.2-9.7,33.3c-1-7.1-2-14.2-4.3-20.9c-1.3-3.6-5.4-4.8-8.1-7C199.6,222.8,199.9,222.1,200.1,221.8z"/>
	<path fill="#531ABC" stroke="#531ABC" stroke-width="0.3" d="M246.2,242c-0.7-8.3,4.7-15.5,9.1-22.1c2.8,0.6,5.6,1.2,8.4,1.8
		c2.5,19,0.2,38.3,2.5,57.4c1.3,23.4-0.2,47,2.3,70.4c0.1,18.9,1.9,37.7,3.2,56.6c4.3,36.1,8.7,72.9,23,106.7
		c5.9,12.5,10.5,26,19.9,36.5c-1.3,0.6-3.8,1.9-5,2.6c-23.2-10-30.1-36.5-36.7-58.4c-1.8-5-5.3-9.4-5.6-14.9
		c-6.7-49.6-7.3-99.7-12.6-149.5C251.4,300.1,248.3,271.1,246.2,242z"/>
	<path fill="#45219B" stroke="#45219B" stroke-width="0.3" d="M179,297.5c7.9-24,13.9-48.5,20-72.9c2.7,4.8,5.6,9.5,7.3,14.8
		c-1.9-1.1-3.9-2.2-5.8-3.3c-4.2,7.1-4.5,15.6-7.1,23.3c-5.1,16.5-8.7,33.4-15,49.5c-7.7,26.4-17.8,52.3-22.5,79.5
		c-1.6,15.2-1.2,30.8,1.7,45.8c2,11.3,7.8,21.3,12.7,31.5c1.2,0,3.6,0,4.8,0c2.3,6.8,4.1,13.8,4.4,20.9
		c-21.9-27.3-32.2-63.5-26.9-98.2C158.8,357.5,169.2,327.5,179,297.5z"/>
	<path fill="#5419C1" stroke="#5419C1" stroke-width="0.3" d="M193.5,259.5c2.6-7.7,2.8-16.2,7.1-23.3c1.9,1.1,3.8,2.2,5.8,3.3
		c2.6,7.6,3,15.8,0.7,23.6c-7.1,26.8-16.1,53.2-26.9,78.8c-10.8,26.5-11.5,55.7-11.1,83.9c-0.3,13.6,2.7,26.9,6.2,40
		c-1.2,0-3.6,0-4.8,0c-5-10.2-10.7-20.2-12.7-31.5c-2.9-15-3.3-30.6-1.7-45.8c4.7-27.2,14.8-53.1,22.5-79.5
		C184.9,292.9,188.4,275.9,193.5,259.5z"/>
	<path fill="#E0B88E" stroke="#E0B88E" stroke-width="0.3" d="M269.2,489.4c0.5,2.1,1.1,4.3,1.6,6.4c3.8,18.2,9.8,37.2,23.4,50.5
		c17.2,15.4,41,19.1,63.1,21.9c2.1-1.7,4.2-3.4,6.3-5.1l0.6,0.9c-1.6,20.6-3.3,41.1-3.6,61.8c-1.4-12,0-23.9,0.1-35.9
		c0.1-6.2-0.3-12.4-1.4-18.5c-11.2-0.4-22.4-2.3-33.2-5.2c-10-3.3-19.9-7.4-28.4-13.7c-6.1-4.8-11.2-10.8-16.4-16.6
		c-4.4-7.9-6.5-17-12-24.3c-1.7,5.6-2.3,11.5-2.8,17.4c-1.5,18.8-5.7,37.3-5.4,56.2c-1.1,5.5-1.9,11-1.9,16.7
		c-0.5,19.5-6.2,38.8-3.5,58.3c3.7,6.5,12.7,6.9,16.6,13.2c-9.9-2.2-22.7-8.2-21.5-20.4c4.4-52.1,11.7-103.8,16.5-155.8
		C267.8,494.6,268.5,492,269.2,489.4z"/>
	<path fill="#602A75" stroke="#602A75" stroke-width="0.3" d="M270.7,495.8l2-2.4c6.6,22,13.5,48.5,36.7,58.4
		c7.1,4.1,14.6,7.7,22.7,8.7c5.9,0.8,11.8,1.6,17.7,2.5c6.5,1.3,11.8-3.8,17.4-6.1c-0.9,2.6-1.7,5.3-2.4,8l-0.8-1l-0.6-0.9
		c-2.1,1.7-4.2,3.4-6.3,5.1c-22.1-2.8-45.8-6.4-63.1-21.9C280.5,533,274.5,514,270.7,495.8z"/>
	<path fill="#5F1E1A" stroke="#5F1E1A" stroke-width="0.3" d="M261.5,528.6c2.6-10.4-0.6-22,5.6-31.5c-4.8,52-12.1,103.8-16.5,155.8
		c-1.3,12.1,11.6,18.2,21.5,20.4c24.6,6.7,50.5,6.1,75.6,3.8c0.1,0,0.4,0,0.5,0c3.9-0.4,7.9-0.8,11.8-1.2c0-13.9,0.1-27.8,0.3-41.7
		c0-2.8,0.1-5.6,0.1-8.4c0.3-20.7,2.1-41.2,3.6-61.8l0.8,1c0.5,0.7,1.5,2,2,2.7c-3.9,20.2-1.2,40.9-3.7,61.3
		c-1.5,16.3,1.7,33-2,49.1c-22.2,3.5-44.7,3.1-67,2.3c-15.6-2.4-33.1-4-44.4-16.4c-3.2-14.9,1.3-29.8,1.7-44.7
		c1.5-13.8,2.9-27.5,4.2-41.3C258,561.5,258,544.8,261.5,528.6z"/>
	<path fill="#531ABE" stroke="#531ABE" stroke-width="0.3" d="M230.5,517.5c0.5-6,6.5-7.2,11.5-7.3c0,5.7-0.1,11.5-1.5,17.1
		c-4.6,19.4-6.3,39.4-11.3,58.6c-3.3,27.1-8.8,53.9-13.3,80.8c-9.6-4.1-10.3-16.9-8.5-25.8c3.3-10.4,2.9-21.6,6.6-31.9
		c2.2-6.2,4.5-12.4,4.2-19.1c-0.4-9.6,5.1-18,6-27.4C225.9,547.5,229.9,532.7,230.5,517.5z"/>
	<path fill="#EBBF4E" stroke="#EBBF4E" stroke-width="0.3" d="M269.2,511.5c5.5,7.3,7.6,16.4,12,24.3c-4.4-3.4-9.5-5.4-14.8-7
		C266.9,523.1,267.5,517.2,269.2,511.5z"/>
	<path fill="#DDAE1A" stroke="#DDAE1A" stroke-width="0.3" d="M266.4,528.9c5.3,1.5,10.4,3.6,14.8,7c5.2,5.8,10.3,11.8,16.4,16.6
		c8.5,6.3,18.4,10.3,28.4,13.7c10.8,8,20.6,17.4,32.4,24c-1.7,14.1,0.2,28.7-4.1,42.4c-13.5-7.9-26.2-17.1-39.7-24.8
		c7.8,15.8,19.8,29.1,27.9,44.8c-15.7-4.3-28.9-14-42.9-21.9c-11.7-6.7-22.6-15.2-30.6-26.2c-3.9-5.9-5.6-12.9-8-19.5
		C260.6,566.2,264.8,547.7,266.4,528.9z"/>
	<path fill="#EAC047" stroke="#EAC047" stroke-width="0.3" d="M326,566.2c10.8,2.9,22,4.8,33.2,5.2c1.1,6.1,1.6,12.3,1.4,18.5
		l-2.3,0.3C346.6,583.5,336.7,574.1,326,566.2z"/>
	<path fill="#E9C142" stroke="#E9C142" stroke-width="0.3" d="M260.9,585.1c2.4,6.6,4.1,13.6,8,19.5c8,11,18.9,19.5,30.6,26.2
		c14,7.8,27.2,17.6,42.9,21.9c-8.1-15.7-20.1-29-27.9-44.8c13.6,7.8,26.2,16.9,39.7,24.8c1,0.6,2.1,1.2,3.1,1.8
		c-1,11.6-0.3,23.2-0.7,34.8c-2.8,2.7-5.6,5.3-8.4,7.9c-0.1,0-0.4,0-0.5,0c-15.6-1.3-31.2,0.6-46.7-0.7c-9.7-0.8-19.1-4.7-28.9-3.1
		c-3.9-6.4-12.9-6.7-16.6-13.2c-2.7-19.5,3-38.9,3.5-58.3C259,596.1,259.9,590.6,260.9,585.1z"/>
	<path fill="#D3AA4A" stroke="#D3AA4A" stroke-width="0.3" d="M358.3,590.2l2.3-0.3c-0.1,12-1.5,23.9-0.1,35.9
		c0,2.8-0.1,5.6-0.1,8.4l-3,0.2c-1.1-0.6-2.1-1.2-3.1-1.8C358.6,618.8,356.6,604.3,358.3,590.2z"/>
	<path fill="#DFBB88" stroke="#DFBB88" stroke-width="0.3" d="M357.4,634.4l3-0.2c-0.3,13.9-0.4,27.8-0.3,41.7
		c-3.9,0.4-7.9,0.8-11.8,1.2c2.9-2.6,5.7-5.3,8.4-7.9C357.1,657.6,356.4,645.9,357.4,634.4z"/>
	<path fill="#2E1760" stroke="#2E1760" stroke-width="0.3" d="M249.4,675.3c-0.6-3.8,0.2-7.6,0.3-11.3c11.3,12.3,28.8,14,44.4,16.4
		c22.4,0.8,44.9,1.2,67-2.3c2.9,8.2,0.4,16.9,0,25.2c-12.3,2.3-24.7-1.1-36.8-3c-23-3.3-45.1-11.1-66.5-19.8
		C254.9,678.9,251.4,678,249.4,675.3z"/>
	<path fill="#E0C0AB" stroke="#E0C0AB" stroke-width="0.3" d="M272.1,673.3c9.8-1.6,19.2,2.4,28.9,3.1c15.6,1.3,31.2-0.7,46.7,0.7
		C322.5,679.4,296.6,680,272.1,673.3z"/>
	<path fill="#5419C1" stroke="#5419C1" stroke-width="0.3" d="M224.7,692.4c4.2,5.1,11.1,11.1,8.2,18.4
		c-5.8,20.1-11.9,40.1-15.9,60.7c-0.7,11.7,5.2,22.4,7.4,33.7c-0.9,1-2.8,3-3.8,4c-7.9-4.3-12.9-12.1-19.3-18
		c-4.3-3.3-4-8.9-4.8-13.7c0.8-1,2.5-2.9,3.4-3.8c0.4-0.4,1.1-1.4,1.5-1.8c7.9-14.1,9.3-30.8,14.1-46.1
		C219.4,714.8,217.7,702.2,224.7,692.4z"/>
	<path fill="#531ABD" stroke="#531ABD" stroke-width="0.3" d="M148.5,802c10.8-4.6,22.2-8,33.7-10.1c1.1,0.1,3.3,0.4,4.4,0.6
		c-4.5,7.7-14,10-21.5,13.6c-24.7,11.6-51,19.3-77.4,26c-30.4,9.4-62.2,15.4-90.7,30.3c-5,3.2-11.1,1.6-15.7-1.5
		c-2.4-4.5,2.8-7.9,6.6-8.5c23.3-6.9,45.5-16.9,69-22.8c11.4-4,22.6-9.1,34.6-10.7c5.8-1.9,11.7-3.6,17.6-5.5
		C121.7,807.7,135.6,806.6,148.5,802z"/>
	<path fill="#5319BF" stroke="#5319BF" stroke-width="0.3" d="M332.3,798.1c28.3-1.4,57.6-5.9,85.1,3.1c11.6,2.7,21.7,9.3,31.6,15.7
		c15.2,8.4,28.8,19.3,41.9,30.6c-23.6-6.6-46.2-16.6-70.3-21.8c-36.3-9.4-73.9-15.8-111.6-13.8c-13.1,2-26.7,1.1-39.4,5.3
		c13.5,4,27.6,5.1,41.3,8.5c38.8,8.2,77,21,111.1,41.6c11.8,6.8,23.5,14,33.4,23.3c2.1,1.8,3.1,4.3,4.1,6.8
		c-7-2.8-13.2-7.2-20.1-10.1c-61.9-26.4-125.4-52.7-193.1-58.3c-6.6-0.5-13.9,1.1-19.8-2.5c3.6-10.2,12.2-19.8,23.5-20.9
		C277.5,802.2,305,801,332.3,798.1z"/>
	<path fill="#593F61" stroke="#593F61" stroke-width="0.3" d="M-32.6,858.4c1-0.3,3-0.8,4-1.1c9.2,8.1,21.5,10.3,31.8,16.6
		C18.6,882,32,893.2,46,903.4c11.3,11.1,23.7,20.8,35.5,31.2c27.1,22.9,52.5,48.7,71.5,78.9c12.3,18.9,24.7,38.4,29.6,60.7
		c1.7,7.1,3.6,14.1,5.8,21.1c-1.1,0.2-3.4,0.6-4.5,0.8l-0.5-2.1c-3.4-13.6-5.9-27.5-12.1-40.2c-11.7-24.7-26.8-48-44.4-68.9
		c-27.4-32.4-61.1-58.6-93.5-85.8c-20.4-16.4-43.4-29.6-68.1-38.4C-34.2,860.1-33.2,858.9-32.6,858.4z"/>
	<path fill="#E0C0AB" stroke="#E0C0AB" stroke-width="0.3" d="M-114.8,897.1c25.9-13.7,52.2-27.1,80-36.4
		c24.6,8.8,47.7,22,68.1,38.4c32.4,27.2,66.1,53.4,93.5,85.8c17.7,21,32.7,44.2,44.4,68.9c6.2,12.7,8.7,26.6,12.1,40.2
		c-0.7-0.3-2.2-0.9-3-1.2c-4.5-31.4-21.2-59-39-84.5c-6.3-11-14.5-20.7-23.7-29.4c-12.9-14-27.1-26.5-41.3-39
		c-7.3-8.2-16.9-14-24-22.3l-1.9-2.1c-0.9-0.6-2.7-1.7-3.6-2.3c-9.6-5.8-16.3-15.4-26.5-20.2c-12.3-6-22.6-15.6-35.5-20.3
		c-6.7-2.3-12.7-6.5-19.7-8c-9.6,0.2-17.5,6.5-26.2,9.9c-36.5,14.8-70.9,34.6-102.9,57.5c-13.2,13.6-30.4,22.9-42.2,38
		c-7.6,9.9-16.8,18.6-23.6,29.2c-7.4,11.2-15.5,22.2-20.1,35c-2.4,6.5-7.4,11.9-8.2,19c-1,8.4-1,16.9,0.1,25.3
		c1.1,9.1,6.7,16.6,10.6,24.7c5,10,14.9,16,23.5,22.4c0,0.6-0.1,1.9-0.1,2.6c-34.2-15.4-47.4-62.2-29.7-94.4
		C-225.3,973.3-172,929-114.8,897.1z"/>
	<path fill="#DDAF8B" stroke="#DDAF8B" stroke-width="0.3" d="M-61,874.5c8.6-3.4,16.6-9.7,26.2-9.9c7,1.4,13,5.6,19.7,8
		C-2.3,877.4,8,886.9,20.3,893c-35.7,22.4-72.8,42.5-107.2,66.9c-23.1,17.7-46.6,35.6-64.1,59.2c-2.4,3.4-3.8,7.2-5.5,11
		c-20.2,21.4-40.9,42.8-55.9,68.3c-5,8.5-8.7,17.6-11.4,27.1c-8.7-6.4-18.5-12.5-23.5-22.4c-3.9-8.1-9.5-15.6-10.6-24.7
		c-1.1-8.4-1.2-16.9-0.1-25.3c0.8-7.1,5.9-12.5,8.2-19c4.6-12.8,12.7-23.8,20.1-35c6.8-10.6,16-19.2,23.6-29.2
		c11.8-15.1,29-24.4,42.2-38C-131.9,909.1-97.5,889.3-61,874.5z"/>
	<path fill="#DF9886" stroke="#DF9886" stroke-width="0.3" d="M20.3,893c10.2,4.9,16.9,14.4,26.5,20.2c-12.5,4.6-25.6,6.7-38.1,11.3
		c-62.3,22.1-116.4,61.8-165.2,105.6c1.7-3.8,3.2-7.6,5.5-11c17.5-23.6,41-41.5,64.1-59.2C-52.5,935.5-15.4,915.3,20.3,893z"/>
	<path fill="#24184C" stroke="#24184C" stroke-width="0.3" d="M654.9,916.9c15.6-2.5,30.2-8.5,44.7-14.4c1.7,4.9,3.4,9.8,4.8,14.7
		c0,0.8-0.1,2.4-0.1,3.2c-22.5,0.2-45,3.2-66.4,10c-16.4,5-33,14-40.7,30.1c1.1,1.3,3.2,4,4.2,5.4c-3.3,2.2-6.6,4.5-9.8,6.9
		c-0.6-1.3-1.2-2.5-1.9-3.6c2.1-5.6,3.8-11.4,7-16.5c4.2-6.5,4.9-14.6,8.8-21.2c3.2-2.7,7.6-3.2,11.5-4.3
		C629.9,924.5,641.9,918.8,654.9,916.9z"/>
	<path fill="#BF7966" stroke="#BF7966" stroke-width="0.3" d="M8.7,924.5c12.4-4.6,25.6-6.7,38.1-11.3c0.9,0.6,2.7,1.7,3.6,2.3
		l1.9,2.1c-39.5,6.7-76.6,23.2-110.7,43.7c-30,18-58,39.1-84,62.4c-25.6,23.4-49.7,49-67.4,79c-5,8-7.5,17-10.6,25.8l-0.9,2.3
		c-0.6-0.7-2-2-2.6-2.6c0-0.6,0.1-1.9,0.1-2.6c2.8-9.4,6.4-18.6,11.4-27.1c15-25.5,35.7-47,55.9-68.3
		C-107.7,986.3-53.6,946.6,8.7,924.5z"/>
	<path fill="#DDB08B" stroke="#DDB08B" stroke-width="0.3" d="M-58.5,961.3c34.1-20.5,71.3-37,110.7-43.7c7.2,8.3,16.7,14.1,24,22.3
		c14.2,12.5,28.5,25.1,41.3,39c2.4,16.8,12.3,31.6,13.8,48.7c0.4,6.7,0.8,14.4-3.8,19.9c-11.6,14.6-28.9,22.6-44.5,31.9
		c-26.3,14-52.8,27.6-78.6,42.3c-4.6,2.6-8.5,6.1-12.5,9.5c-5.5,3.1-11,6.6-14.4,12.2c30.2-13.4,60.4-28,93.2-34
		c37.3-7.2,75.6-7.2,113.1-13.2c6.6,4,14.4,2.8,21.6,1.6c36.4-4.9,73-8.9,109.4-13.9c37.2-2.5,74.3-6.4,111.5-8.8
		c20.3-2.8,41.1-3.6,60.9-9.5c19.2-3.4,37.9-11.1,53.1-23.5c13.2-9.1,21.9-23,32.7-34.6c6.8,6.3,8.7,15.8,14,23.2
		c10.2,15.3,17.1,33,30.5,46.1c16.2,17.6,40.2,24.7,63,29c17.9,4.4,36.2,5.7,54.4,8.1c13,1.5,26.1,0,39.1,0.7
		c5.3,0.2,10.5,2.8,14,6.7c2.4,3.5,2.8,8,3.8,12.1c1.7,10.1,5.2,20,4.5,30.4c-18.3-4.3-31.4-19.7-49.4-24.6
		c-7-2.2-12.6-7.3-19.5-9.6c-18.8-6.6-37.3-14.6-56.8-18.9c-35.6-10.1-74.3-10.4-109.6,1.2c-8.8,2.9-18.4,2.4-26.9,6.2
		c-21.7,7.3-43.7,13.5-65.4,20.6c-13,4.9-27,6.8-39.5,13.2c-18.6,4.9-37.2,9.9-55.6,15.4c-9.2,2.5-18.8,3.8-27.9,6.7
		c-11.2,3.8-23.2,3.8-34.5,7.2c-11.9,3.6-24.3,4.7-36.5,6.6c-21.1-0.4-42,3.6-63.1,4.2c-32,2.9-64.1,4.3-96.2,6.9
		c-46.2,5.4-92.7-1.2-138.1-9.5c-19.2-4.6-38.1-10-57.1-15.2c-11.7-3-25.1-3.2-35.6,3.5c-17.1,11.7-39,9.2-58.3,6.5
		c-7.3-7.8-16.7-13.1-24.3-20.6c-6.6-6.4-12.7-13.4-18.3-20.7c-3.3-4-3.4-9.4-4-14.3c3.1-8.8,5.6-17.9,10.6-25.8
		c17.7-30,41.8-55.6,67.4-79C-116.5,1000.4-88.4,979.3-58.5,961.3z"/>
	<path fill="#3A177B" stroke="#3A177B" stroke-width="0.3" d="M613.9,973.6c8.7-3.4,18.1,0.3,26.9,1.4c29.2,4.4,58.6,12,88.3,7.6
		c6.6-0.8,13.8,2,20-1.5c12.7-6.4,27.1-6.2,40.9-8.1c6.7-1.4,8.6,7,10,11.8c-2.7,1.1-5.4,2.5-8.4,2.4c-14.2,0.2-28.5-0.2-42.6,0.8
		c-7.2,2.1-15.6,3.2-20.6,9.3c-8.2,4.4-18.1,4.2-26.1,9c-6.2,2.9-11.6,7.2-15.1,13.2c-2.8,3.3-7.2,6.6-5.7,11.5
		c2,8.1,9.4,13.1,15.4,18.2c2.8,2.5,5.9,4.8,9.4,6.4c9.5,4.3,18.2,10.2,28.1,13.4c4.7,1.7,9.9-1.9,14.4,0.9c5.3,2.5,9.8,6.4,15.5,8
		c17.5,5.5,36.1,3.7,54,7.2c2.8,0.7,6,1.2,8,3.6c1.6,3.4,2.1,7.3,3.1,11c2.4,10.2,8.5,19.2,10.3,29.6c3.7,18.3,8.3,36.3,12.7,54.5
		c3,11.9,3.4,24.9,10.1,35.6c-11.4-2-19.2-11-27.2-18.6c-10.4-10.6-20.7-21.2-31.1-31.8c0-10.2-2.3-20.1-3.1-30.2
		c-1-8.9-2.5-18.9-9.9-24.9c-7-7.7-18.1-7.3-27.7-7.2c-23.9,0.7-47.7-2.6-71.1-7.3c-15.8-2.1-32.4-3.8-46.1-12.6
		c-6.9-4.2-14.7-7.1-20.8-12.4c-8.5-7-12.9-17.3-19.3-25.9c-4.9-6.6-8.8-14-11.6-21.7c-2.8-7.7-9.3-13.3-12.6-20.7
		c-0.1-1.8-0.3-3.5-0.3-5.2c4.4-3.1,9-6.1,12.9-10C600.6,984.7,605.3,976.5,613.9,973.6z"/>
	<path fill="#DF9786" stroke="#DF9786" stroke-width="0.3" d="M117.6,978.9c9.1,8.7,17.4,18.4,23.7,29.4
		c17.8,25.5,34.5,53.1,39,84.5c-45,4.9-90.9,5.9-134.6,19.3c-18.4,4.9-35.9,12.7-53.8,19.1c4-3.4,8-6.9,12.5-9.5
		c25.9-14.8,52.4-28.3,78.6-42.3c15.7-9.3,33-17.3,44.5-31.9c4.6-5.5,4.2-13.2,3.8-19.9C130,1010.6,120,995.7,117.6,978.9z"/>
	<path fill="#2E1C5F" stroke="#2E1C5F" stroke-width="0.3" d="M702.3,1006.4c8.1-4.8,17.9-4.6,26.1-9c9.9,20.6,19.2,41.7,25.4,63.8
		c1.3,3.6,1.3,9.1,6.3,9.6c21.6,5.9,44.1,8.9,66.5,7.8c8.3,22.7,17.6,45.1,22.8,68.8c7.2,27.2,12.1,54.9,17.9,82.4
		c-0.3,0.1-0.8,0.4-1,0.5c-2-0.8-3.9-1.5-5.8-2.2c1.6-1.5,3.2-3,4.8-4.5c-0.7-1.1-2.1-3.2-2.7-4.2c-6.7-10.7-7.1-23.7-10.1-35.6
		c-4.4-18.1-9-36.2-12.7-54.5c-1.9-10.4-7.9-19.4-10.3-29.6c-1-3.7-1.5-7.5-3.1-11c-2-2.4-5.2-2.9-8-3.6c-17.8-3.5-36.5-1.7-54-7.2
		c-5.7-1.6-10.3-5.5-15.5-8c-4.5-2.8-9.7,0.8-14.4-0.9c-9.9-3.2-18.6-9.2-28.1-13.4c-3.5-1.5-6.6-3.8-9.4-6.4
		c1.4-0.2,4.3-0.7,5.7-0.9c0.7,0.2,2.1,0.6,2.9,0.9c12.2,5.7,23.8,13.7,37.5,15.4c1.5-9.7-2.9-18.9-5.5-28
		c-3.6-9.3-5.6-19.4-11.2-27.7c-3.5-5.6-11.3-5.6-16.7-3.2c-7.9,3.7-14.9,9-22.2,13.7C690.7,1013.6,696.1,1009.3,702.3,1006.4z"/>
	<path fill="#D5B0B1" stroke="#D5B0B1" stroke-width="0.3" d="M574.2,998.7c1,1.9,2.1,3.9,3.1,5.9c10.9,19.8,21.3,39.9,34.1,58.5
		c4.6,6.4,9.3,13.1,16,17.5c13.7,8.9,28.6,16.7,44.9,19.4c27.7,5.1,55.7,10.3,84,10.6c10.6,0.2,22.6-2.4,31.7,4.6
		c8.3,6.7,8.2,18.3,10,28c0.9,9.6,4.2,19.2,2.2,28.9l-2.9-1.8c-0.8-0.5-2.4-1.5-3.2-2c0.7-1.6,1.5-3.1,2.2-4.7
		c0.7-10.4-2.7-20.3-4.5-30.4c-1-4.1-1.3-8.6-3.8-12.1c-3.6-3.9-8.7-6.5-14-6.7c-13-0.7-26.1,0.8-39.1-0.7
		c-18.2-2.4-36.5-3.8-54.4-8.1c-22.8-4.3-46.8-11.4-63-29c-13.3-13-20.2-30.8-30.5-46.1c-5.3-7.4-7.2-16.9-14-23.2
		c-10.8,11.6-19.5,25.4-32.7,34.6c-15.2,12.4-33.9,20.1-53.1,23.5c-19.8,5.9-40.5,6.7-60.9,9.5c-37.2,2.4-74.3,6.3-111.5,8.8
		c-36.4,5-73,9-109.4,13.9c-7.2,1.2-14.9,2.4-21.6-1.6c1.1-0.2,3.4-0.6,4.5-0.8c13.5-1.6,27.1-2.5,40.6-4.1
		c25.4-2.6,50.5-7,75.9-9.6c30.6-3.4,61.3-5.3,92-7.9c35.1-2.7,70.6-5.4,104.4-16c13.7-4.7,28-9.7,38.7-20
		C553.2,1026.5,564.2,1012.9,574.2,998.7z"/>
	<path fill="#421B50" stroke="#421B50" stroke-width="0.3" d="M577.3,1004.6c1.2,0.4,3.6,1.1,4.7,1.5c3.4,7.4,9.8,13,12.6,20.7
		c2.8,7.8,6.7,15.1,11.6,21.7c6.4,8.6,10.8,18.9,19.3,25.9c6.1,5.4,13.9,8.2,20.8,12.4c13.8,8.7,30.3,10.5,46.1,12.6
		c23.4,4.6,47.2,8,71.1,7.3c9.5,0,20.7-0.5,27.7,7.2c7.4,6,8.8,16,9.9,24.9c0.8,10.1,3.1,20,3.1,30.2c-0.1,3.8,0.6,7.7,2.5,11.1
		c-2.1-2.8-4.2-5.5-6.5-8.1c2-9.7-1.3-19.3-2.2-28.9c-1.9-9.6-1.7-21.2-10-28c-9.1-7-21.1-4.4-31.7-4.6c-28.3-0.3-56.2-5.6-84-10.6
		c-16.3-2.7-31.2-10.5-44.9-19.4c-6.7-4.4-11.4-11.1-16-17.5C598.6,1044.5,588.2,1024.3,577.3,1004.6z"/>
	<path fill="#25174C" stroke="#25174C" stroke-width="0.3" d="M709.4,1005.9c5.4-2.4,13.2-2.5,16.7,3.2c5.7,8.3,7.6,18.4,11.2,27.7
		c2.7,9.1,7,18.3,5.5,28c-13.7-1.7-25.3-9.7-37.5-15.4c-1.7-5.6-2.8-11.9-7.3-16c-4.4-4.1-10.8-4.6-16.5-5.2
		c4.4,8.9,13.1,14.6,20.9,20.3c-1.4,0.2-4.3,0.7-5.7,0.9c-6-5.1-13.4-10.1-15.4-18.2c-1.5-5,3-8.2,5.7-11.5
		C694.6,1014.9,701.5,1009.6,709.4,1005.9z"/>
	<path fill="#D4B3AE" stroke="#D4B3AE" stroke-width="0.3" d="M681.6,1028.1c5.7,0.6,12,1.1,16.5,5.2c4.6,4.1,5.6,10.4,7.3,16
		c-0.7-0.2-2.1-0.6-2.9-0.9C694.7,1042.7,686.1,1037,681.6,1028.1z"/>
	<path fill="#C07968" stroke="#C07968" stroke-width="0.3" d="M45.8,1112.1c43.6-13.4,89.6-14.4,134.6-19.3c0.8,0.3,2.3,0.9,3,1.2
		l0.5,2.1c-37.5,6.1-75.8,6.1-113.1,13.2c-32.8,6.1-63,20.6-93.2,34c3.4-5.5,8.8-9.1,14.4-12.2C9.9,1124.9,27.4,1117,45.8,1112.1z"
		/>
	<path fill="#D5C3B4" stroke="#D5C3B4" stroke-width="0.3" d="M560.9,1111.8c35.3-11.6,74-11.4,109.6-1.2
		c19.6,4.3,38,12.2,56.8,18.9c7,2.3,12.5,7.4,19.5,9.6c18.1,4.9,31.1,20.3,49.4,24.6c-0.7,1.6-1.5,3.1-2.2,4.7
		c-23.8-14.3-48.4-27.3-74-38.1c-34.3-14.1-70.8-25.2-108.2-24.9c-36.9,2.8-72.4,14.2-107.6,25.1c-34.7,11.5-69.7,22.4-104.9,32.4
		c-46,13.1-93,22.6-140,31.8c-48.3,8.9-96.9,17.3-145.9,21.5c-44.2,4-88.5,5-132.8,5.2c-23.3-0.2-46.7-1-69.7-5.1
		c-14.5-2.2-29-3.6-43.7-3.8c-4.8-0.2-9.8-0.1-14-2.7c-11.5-6.7-21.9-15.2-32-23.9c-14-13.6-29.6-25.9-40.4-42.3
		c-2.7-3.7-3.7-8.4-2.3-12.9l0.9-2.3c0.6,4.9,0.7,10.3,4,14.3c5.6,7.3,11.7,14.3,18.3,20.7c7.6,7.5,17,12.8,24.3,20.6
		c4.5,4.9,9.9,8.7,15.5,12.2c5.1,3.1,9.2,7.8,14.7,10.3c9.1,1.9,18.6,0.7,27.8,1.6c12.3,0.6,24,5.5,36.3,6.3
		c15.5,0.9,31,3.4,46.6,3.1c36.5-0.3,73,1,109.4-2.4c27.6-0.3,54.7-5.2,82.1-7.3c9.2-0.6,18.2-2.5,27.1-4.6
		c29.6-5.6,59.8-7.6,89-15.4c12.2-1.9,24.6-3,36.5-6.6c11.3-3.4,23.3-3.5,34.5-7.2c9.1-2.9,18.7-4.2,27.9-6.7
		c18.4-5.5,37-10.5,55.6-15.4c12.5-6.4,26.4-8.3,39.5-13.2c21.7-7.1,43.8-13.3,65.4-20.6C542.5,1114.2,552.1,1114.7,560.9,1111.8z"
		/>
	<path fill="#4E25AE" stroke="#4E25AE" stroke-width="0.3" d="M804.3,1169.1c10.4,10.5,20.7,21.2,31.1,31.8
		c7.9,7.5,15.8,16.6,27.2,18.6c0.7,1.1,2.1,3.2,2.7,4.2c-1.6,1.5-3.2,3-4.8,4.5c-23.3-8.5-38.9-29.1-53.7-47.9
		C804.9,1176.7,804.2,1172.9,804.3,1169.1z"/>
	<path fill="#E4BFA5" stroke="#E4BFA5" stroke-width="0.3" d="M-115.6,1177.6c10.6-6.7,23.9-6.5,35.6-3.5
		c19,5.2,37.9,10.6,57.1,15.2c45.4,8.3,91.9,14.9,138.1,9.5c32-2.6,64.2-3.9,96.2-6.9c21.1-0.6,42-4.7,63.1-4.2
		c-29.1,7.9-59.4,9.8-89,15.4c-8.9,2.1-18,3.9-27.1,4.6c-27.4,2.1-54.5,7-82.1,7.3c-36.3,3.5-72.9,2.1-109.4,2.4
		c-15.6,0.3-31-2.2-46.6-3.1c-12.3-0.8-24-5.6-36.3-6.3c-9.2-0.9-18.7,0.4-27.8-1.6c-5.5-2.5-9.6-7.2-14.7-10.3
		c-5.6-3.5-11.1-7.3-15.5-12.2C-154.5,1186.8-132.6,1189.3-115.6,1177.6z"/>
</g>
</svg>
