<?xml version="1.0" standalone="no"?>
<!DOCTYPE svg PUBLIC "-//W3C//DTD SVG 20010904//EN"
 "http://www.w3.org/TR/2001/REC-SVG-20010904/DTD/svg10.dtd">
<svg version="1.0" xmlns="http://www.w3.org/2000/svg"
 width="474.000000pt" height="254.000000pt" viewBox="0 0 474.000000 254.000000"
 preserveAspectRatio="xMidYMid meet">

<g transform="translate(0.000000,254.000000) scale(0.100000,-0.100000)"
fill="#000000" stroke="none">
<path d="M1588 2322 c-1 -4 -36 -35 -75 -70 -66 -55 -76 -61 -99 -52 -14 6
-27 10 -29 10 -1 0 -10 -19 -20 -42 -23 -59 -52 -88 -89 -89 -64 -2 -80 -12
-80 -50 -1 -30 -9 -42 -56 -82 -116 -99 -255 -197 -270 -191 -30 11 -34 8 -63
-44 -50 -91 -56 -90 -185 37 -61 61 -117 111 -124 111 -12 0 -149 -149 -156
-170 -2 -5 44 -44 102 -87 58 -43 106 -81 106 -85 0 -4 -48 -38 -106 -75 -58
-37 -173 -113 -256 -168 -83 -55 -159 -104 -169 -110 -19 -10 -27 -45 -11 -45
5 0 35 -36 66 -80 32 -44 60 -80 63 -80 9 0 161 116 307 234 82 67 174 140
203 164 l54 43 57 -48 c30 -26 75 -61 98 -78 22 -16 67 -54 100 -84 l58 -53
-26 -72 c-48 -132 -116 -268 -154 -307 -34 -35 -36 -41 -25 -61 10 -20 6 -36
-32 -123 -25 -55 -59 -128 -77 -163 -18 -35 -30 -64 -28 -66 9 -6 71 -31 139
-56 54 -20 80 -25 87 -18 6 6 27 63 48 127 67 211 56 193 211 345 140 137 143
139 163 121 26 -24 25 -31 -9 -101 -16 -32 -47 -98 -69 -145 -37 -82 -42 -87
-86 -104 -25 -10 -46 -21 -46 -25 0 -4 7 -25 16 -46 10 -25 14 -51 10 -76 -4
-23 -2 -38 4 -38 6 0 19 -11 31 -24 13 -15 28 -22 42 -19 13 3 46 -4 75 -15
l52 -20 21 48 c18 42 28 52 66 66 56 22 57 20 72 -100 7 -50 16 -108 22 -129
10 -37 12 -39 42 -34 18 3 67 11 110 18 68 10 77 14 77 33 0 27 -24 162 -44
246 -8 35 -13 66 -11 69 3 2 32 -19 64 -47 33 -29 64 -52 69 -52 5 0 42 36 81
81 69 77 71 82 55 100 -20 22 -30 18 195 94 l154 52 58 -34 c63 -38 63 -37 79
-133 6 -36 22 -121 36 -190 19 -96 54 -314 54 -337 0 -2 16 -3 35 -3 19 0 35
3 35 8 0 4 36 15 80 25 44 10 81 21 83 25 5 9 -24 127 -52 211 -11 35 -19 66
-17 69 3 2 17 -20 32 -50 34 -68 144 -238 154 -238 4 0 25 13 46 28 21 16 60
41 87 56 26 15 47 33 47 40 0 20 -82 144 -257 389 -90 125 -163 232 -163 238
0 6 12 9 27 7 21 -2 56 -41 177 -199 148 -192 285 -359 294 -359 8 0 172 142
172 149 0 3 -15 24 -34 46 l-34 39 61 91 c33 49 63 94 68 99 9 10 112 -48 296
-165 67 -43 141 -88 164 -100 40 -20 43 -20 55 -4 11 15 16 11 38 -34 15 -28
29 -51 32 -51 14 0 194 116 194 125 0 15 -67 121 -130 205 -30 41 -118 169
-194 284 l-138 208 20 21 21 20 53 -41 c29 -22 90 -78 134 -124 68 -69 95
-108 164 -233 105 -191 166 -285 183 -285 8 0 25 8 38 19 61 47 64 47 133 -13
66 -59 80 -65 93 -42 4 7 34 42 66 76 60 67 64 75 44 93 -82 78 -309 268 -398
335 -38 28 -83 79 -137 155 -97 137 -192 282 -192 295 0 5 7 16 16 23 9 7 92
104 184 214 92 110 179 211 195 225 15 14 36 37 46 52 l20 27 -95 72 -96 71
-25 -31 c-15 -17 -73 -100 -130 -185 -113 -169 -184 -266 -194 -266 -3 0 -16
30 -27 68 -21 70 -29 75 -79 59 -17 -6 -28 6 -73 78 -28 47 -52 90 -52 96 0
17 -29 41 -47 37 -25 -5 -27 -27 -3 -36 21 -8 21 -8 2 -25 -17 -16 -21 -14
-76 54 -46 56 -56 73 -46 82 10 9 14 9 17 0 3 -7 15 -13 28 -13 17 0 22 -4 18
-18 -6 -26 22 -48 41 -32 18 14 11 36 -15 43 -11 3 -19 14 -20 29 -2 38 -3 42
-23 74 -22 37 -76 47 -76 13 0 -10 -4 -19 -10 -19 -5 0 -7 13 -4 29 5 23 2 32
-14 40 -25 13 -37 0 -24 -26 19 -36 -3 -96 -22 -64 -4 6 -12 8 -19 5 -19 -7
-35 28 -26 54 10 27 29 29 22 2 -5 -20 12 -50 28 -50 12 0 12 47 0 52 -5 2 -5
13 0 26 7 18 14 22 29 17 16 -5 20 -2 20 14 0 12 7 21 15 21 8 0 15 2 15 5 0
11 -33 55 -41 55 -8 0 -175 -104 -192 -119 -4 -4 24 -47 63 -97 38 -49 70 -94
70 -100 0 -6 -11 -21 -25 -34 -23 -21 -24 -25 -10 -40 14 -16 14 -18 1 -23
-11 -4 -21 4 -32 26 -31 59 -138 227 -146 227 -10 0 -159 -89 -177 -106 -15
-14 2 -50 81 -166 21 -31 38 -61 38 -65 0 -14 -234 -108 -450 -180 -44 -15
-46 -15 -92 13 -51 31 -55 38 -35 59 6 7 53 61 102 121 50 59 120 141 158 182
37 40 67 77 67 82 0 11 -166 140 -181 140 -15 0 -19 -6 -125 -162 -47 -71 -88
-128 -92 -128 -3 0 -31 28 -62 62 l-57 62 -45 -37 c-28 -23 -64 -41 -97 -49
-52 -12 -52 -12 -46 -45 5 -28 3 -33 -13 -33 -10 0 -27 9 -37 20 -17 19 -19
19 -37 4 -27 -25 -23 -13 33 97 28 55 50 101 48 103 -9 8 -220 88 -223 85 -6
-6 -96 -258 -96 -267 0 -8 -83 -240 -167 -464 -47 -127 -87 -144 -97 -41 -4
32 -13 113 -21 179 -22 180 -21 196 27 307 l42 99 89 61 c49 33 91 66 94 73 5
13 -123 194 -137 194 -5 0 -10 -3 -12 -8z m74 -104 c52 -70 58 -83 38 -83 -11
0 -110 132 -110 146 0 23 23 3 72 -63z m1724 41 c9 -14 -9 -31 -80 -73 -60
-36 -86 -44 -86 -26 0 9 136 106 152 109 4 0 10 -4 14 -10z m-1816 -54 c-7 -8
-17 -15 -22 -15 -6 0 -5 7 2 15 7 8 17 15 22 15 6 0 5 -7 -2 -15z m-55 -5 c3
-6 -1 -7 -9 -4 -18 7 -21 14 -7 14 6 0 13 -4 16 -10z m-18 -35 c10 -13 33 -45
52 -70 28 -38 32 -48 20 -56 -8 -5 -21 -8 -29 -8 -11 0 -11 2 -2 6 10 4 10 8
1 19 -19 23 -52 -1 -44 -34 5 -22 4 -24 -8 -13 -9 7 -18 8 -21 3 -3 -6 -37
-18 -76 -27 -83 -20 -95 -41 -18 -32 l53 7 -33 -20 c-18 -11 -35 -20 -38 -20
-3 0 -20 -10 -37 -22 -17 -13 -39 -27 -49 -33 -21 -12 -311 -208 -388 -262
-30 -21 -100 -74 -155 -117 -92 -73 -139 -114 -237 -203 -44 -40 -49 -41 -35
-4 5 15 7 35 4 45 -7 17 -57 23 -57 6 0 -5 7 -10 15 -10 21 0 19 -18 -7 -66
-42 -75 -65 -97 -93 -90 -20 5 -25 12 -23 29 3 18 -2 22 -27 22 -23 0 -30 -4
-30 -20 0 -11 9 -24 21 -30 11 -5 19 -16 16 -24 -2 -7 2 -17 9 -22 10 -6 11
-11 3 -19 -8 -8 -25 8 -63 59 -49 65 -57 91 -29 91 6 0 8 -3 5 -7 -4 -3 -2
-12 4 -19 17 -21 52 2 47 30 -4 18 7 29 60 62 35 21 74 46 87 54 12 8 51 33
86 54 207 127 458 304 576 405 119 102 147 128 164 145 10 11 29 26 43 35 13
9 49 40 80 69 55 51 57 52 81 36 23 -15 26 -15 24 2 0 4 5 11 13 16 10 7 10
11 -4 22 -13 10 -15 15 -6 24 17 17 24 15 45 -13z m1162 -1 c17 -14 29 -30 26
-35 -4 -5 0 -7 7 -4 15 5 85 -52 75 -61 -4 -4 -17 -3 -29 3 -39 18 -128 94
-128 109 0 21 15 17 49 -12z m-625 -61 c17 -9 25 -18 19 -24 -5 -5 -41 3 -91
21 -46 16 -84 30 -86 30 -2 0 -2 -9 1 -20 3 -11 10 -20 16 -20 7 0 7 -4 -1
-12 -16 -16 -15 -55 1 -61 7 -3 5 -6 -5 -6 -10 -1 -18 6 -18 15 0 11 -6 15
-20 11 -11 -3 -20 -1 -20 4 0 5 7 9 15 9 17 0 33 52 18 57 -7 3 -6 14 3 33
l15 28 62 -25 c34 -14 75 -32 91 -40z m571 21 c0 -10 -4 -25 -9 -31 -4 -7 -6
-22 -3 -34 3 -13 1 -19 -6 -16 -7 2 -11 11 -9 21 2 9 -3 16 -10 16 -8 1 -6 6
6 15 12 9 17 21 13 35 -3 14 -1 20 6 17 7 -2 12 -12 12 -23z m659 1 c-4 -8
-10 -12 -15 -9 -11 6 -2 24 11 24 5 0 7 -7 4 -15z m-1636 -14 c-7 -11 -16 -17
-21 -14 -4 3 0 11 10 19 24 18 25 17 11 -5z m1845 4 c4 -8 -7 -24 -26 -40 -18
-14 -39 -32 -48 -40 -9 -8 -21 -15 -27 -15 -6 0 -17 -7 -26 -15 -13 -14 -16
-13 -27 7 -10 19 -9 24 6 33 9 5 43 27 74 47 65 42 67 43 74 23z m-1888 -5 c3
-5 1 -10 -4 -10 -6 0 -11 5 -11 10 0 6 2 10 4 10 3 0 8 -4 11 -10z m1065 0 c0
-5 -7 -7 -15 -4 -8 4 -15 8 -15 10 0 2 7 4 15 4 8 0 15 -4 15 -10z m465 -9 c5
-10 -133 -101 -153 -101 -18 0 -14 17 6 24 9 3 44 23 77 45 33 21 61 40 62 40
1 1 4 -3 8 -8z m-1178 -52 c-6 -9 -7 -25 -3 -35 7 -18 9 -18 27 4 14 18 16 28
9 43 -14 24 -5 24 19 0 17 -17 18 -21 5 -32 -18 -15 -18 -24 2 -44 9 -9 14
-19 10 -22 -6 -6 -36 15 -34 25 2 19 -4 23 -17 12 -23 -19 -38 1 -39 54 -1 41
0 43 15 28 11 -12 13 -21 6 -33z m613 41 c0 -5 -5 -10 -11 -10 -5 0 -7 5 -4
10 3 6 8 10 11 10 2 0 4 -4 4 -10z m138 -14 c7 -4 10 -12 7 -17 -4 -5 5 -9 19
-9 14 0 26 -5 26 -11 0 -5 -5 -7 -10 -4 -19 12 -48 -5 -53 -30 -3 -18 0 -25
11 -25 12 0 13 -3 5 -11 -17 -17 -35 0 -28 28 5 21 4 23 -14 14 -28 -15 -31
-14 -31 15 0 51 30 74 68 50z m622 -21 c-7 -8 -17 -12 -22 -9 -5 3 -1 12 9 19
22 17 30 11 13 -10z m-175 5 c-3 -5 -11 -10 -16 -10 -6 0 -7 5 -4 10 3 6 11
10 16 10 6 0 7 -4 4 -10z m1091 -29 c-13 -20 -26 -11 -26 16 0 25 1 26 16 11
9 -9 13 -21 10 -27z m-2976 9 c-30 -23 -40 -25 -40 -6 0 13 17 20 55 24 6 1
-1 -7 -15 -18z m785 10 c3 -5 1 -10 -4 -10 -6 0 -11 5 -11 10 0 6 2 10 4 10 3
0 8 -4 11 -10z m559 -40 c70 -55 76 -64 61 -84 -15 -20 -15 -20 -30 0 -8 11
-15 14 -15 7 0 -7 -7 -13 -15 -13 -18 0 -9 -28 11 -32 15 -3 -42 -70 -171
-202 -33 -34 -74 -79 -90 -100 l-30 -38 -34 42 -33 41 29 37 c16 20 43 60 61
89 29 44 69 83 87 83 3 0 5 -10 5 -22 0 -33 11 -14 17 29 3 21 11 51 19 67 8
16 12 32 9 34 -6 7 -8 5 -28 -38 -9 -19 -17 -29 -17 -22 0 7 9 30 20 52 16 32
25 38 47 37 19 -1 28 3 31 16 2 10 -3 17 -12 17 -19 0 -20 5 -6 31 10 18 12
18 38 1 15 -9 36 -24 46 -32z m1576 -24 c-6 -20 -9 -43 -6 -51 3 -8 2 -15 -3
-15 -15 0 -19 54 -6 73 8 11 11 27 8 36 -5 12 -3 13 7 4 10 -9 10 -19 0 -47z
m-2180 -50 c0 -6 -5 -18 -10 -26 -9 -13 -11 -13 -19 -1 -8 12 -12 12 -25 -2
-21 -20 -20 -26 4 -35 17 -6 10 -15 -51 -71 -83 -75 -92 -72 -86 31 2 41 0 65
-5 61 -6 -3 -8 3 -6 13 2 13 10 18 26 16 23 -3 39 19 27 38 -5 8 -11 8 -21 -1
-11 -9 -14 -6 -14 18 0 16 2 32 5 35 9 9 175 -64 175 -76z m359 8 c65 -76 69
-84 47 -84 -20 0 -139 137 -131 150 10 16 17 11 84 -66z m778 65 c9 -9 8 -15
-2 -26 -20 -20 -52 -24 -58 -8 -4 8 1 11 11 9 9 -2 24 0 32 6 13 9 13 11 0 20
-8 5 -10 10 -4 10 5 0 15 -5 21 -11z m1168 -19 c3 -11 15 -20 25 -20 25 0 36
-18 16 -26 -19 -7 -89 43 -81 57 10 16 33 10 40 -11z m-75 0 c0 -5 -2 -10 -4
-10 -3 0 -8 5 -11 10 -3 6 -1 10 4 10 6 0 11 -4 11 -10z m-1965 -33 c0 -12 -8
-30 -17 -39 -10 -10 -15 -24 -12 -33 4 -8 1 -15 -5 -15 -17 0 -9 51 11 72 11
10 15 25 11 35 -4 11 -2 15 3 10 5 -5 9 -18 9 -30z m-795 19 c0 -2 -7 -7 -16
-10 -8 -3 -12 -2 -9 4 6 10 25 14 25 6z m1606 -53 c-7 -9 -45 13 -49 28 -5 17
-3 17 23 -4 15 -12 27 -23 26 -24z m118 3 c-22 -17 -12 -46 16 -46 15 0 26
-11 37 -37 20 -47 23 -147 6 -149 -26 -3 -28 -5 -10 -15 26 -15 45 5 49 52 3
38 4 37 62 -78 138 -273 361 -620 590 -918 52 -67 58 -79 48 -96 -14 -22 -8
-39 13 -39 9 0 12 6 9 15 -4 8 -3 15 2 15 10 0 44 -31 44 -41 0 -5 -35 -28
-77 -53 -70 -41 -78 -43 -90 -28 -14 19 -17 36 -5 28 4 -2 14 -1 22 5 10 5 11
9 3 9 -7 0 -10 7 -6 16 5 12 0 15 -21 12 -26 -3 -32 6 -137 212 -163 317 -294
530 -474 770 -159 213 -185 250 -172 250 19 0 19 40 0 47 -9 4 -21 -1 -28 -10
-10 -14 -12 -14 -23 3 -11 17 -6 23 46 56 31 20 66 42 77 49 17 11 21 10 28
-2 6 -10 3 -19 -9 -27z m254 23 c-8 -6 -9 -9 -1 -9 14 0 11 -26 -6 -43 -11
-10 -12 -8 -7 9 9 30 -18 52 -33 27 -6 -10 -11 -13 -11 -5 0 22 23 39 48 34
18 -3 20 -7 10 -13z m830 -1 c2 -11 10 -17 18 -14 7 3 16 1 19 -3 2 -5 -6 -11
-20 -13 -14 -3 -26 -1 -26 3 -1 5 -2 15 -3 22 -2 16 -28 10 -43 -10 -9 -11
-10 -20 -2 -29 7 -8 7 -14 -1 -19 -10 -6 -13 -1 -22 35 -6 21 18 45 48 47 19
1 28 -5 32 -19z m-2768 2 c0 -5 -5 -10 -11 -10 -5 0 -7 5 -4 10 3 6 8 10 11
10 2 0 4 -4 4 -10z m1850 0 c0 -5 -5 -10 -11 -10 -5 0 -7 5 -4 10 3 6 8 10 11
10 2 0 4 -4 4 -10z m-1155 -19 c3 -5 1 -12 -5 -16 -5 -3 -10 1 -10 9 0 18 6
21 15 7z m93 -13 c-2 -13 -9 -29 -16 -37 -8 -8 -11 -22 -9 -32 3 -11 1 -19 -4
-19 -5 0 -9 14 -9 30 0 17 4 30 10 30 5 0 12 11 16 25 8 31 16 33 12 3z m1857
-41 c-2 -23 -7 -31 -18 -29 -13 2 -16 -6 -14 -35 2 -38 2 -38 45 -37 l42 0
-32 -35 c-18 -19 -39 -42 -47 -50 -8 -9 -24 -16 -35 -16 -16 0 -21 -7 -22 -28
-1 -29 -67 -107 -90 -107 -6 0 -17 -13 -24 -30 -12 -29 -30 -41 -30 -20 0 6
-9 10 -20 10 -22 0 -26 -20 -9 -37 9 -9 5 -20 -14 -43 -23 -26 -27 -28 -35
-14 -6 10 -16 15 -26 11 -22 -9 -20 -28 3 -34 12 -3 17 -11 14 -19 -8 -22 -28
-17 -43 11 -7 14 -19 25 -27 25 -17 0 -17 14 1 29 8 7 29 36 47 66 25 41 39
55 56 55 19 0 23 5 21 28 -1 15 6 39 16 55 17 25 19 26 32 10 10 -14 15 -15
25 -6 16 16 4 44 -16 37 -11 -5 -14 -2 -9 11 4 9 18 21 31 26 18 6 23 14 18
28 -3 10 1 23 9 31 13 10 15 5 9 -38 -4 -39 -2 -54 10 -67 15 -15 17 -14 23
11 4 16 2 29 -5 34 -8 5 -10 19 -6 44 7 36 20 47 27 24 5 -14 38 -3 38 13 0 6
-9 13 -20 16 -11 3 -20 10 -20 17 0 6 -10 0 -21 -14 -22 -26 -22 -22 1 22 10
22 18 26 36 22 31 -8 44 21 18 40 -15 11 -16 17 -6 29 11 13 16 13 41 1 24
-12 28 -20 26 -47z m-773 -9 c52 -57 71 -89 51 -87 -8 0 -115 125 -121 141
-10 24 20 1 70 -54z m-1932 14 c0 -20 -3 -23 -12 -14 -17 17 -31 15 -24 -3 3
-8 1 -15 -4 -15 -6 0 -10 -5 -10 -11 0 -7 10 -9 25 -7 18 4 25 1 25 -11 0 -9
4 -63 9 -121 5 -58 12 -141 16 -185 9 -129 24 -246 45 -372 12 -65 25 -141 29
-168 10 -56 119 -509 137 -567 4 -12 0 -18 -11 -18 -9 0 -14 -4 -11 -9 4 -5 0
-11 -6 -14 -10 -4 -10 -7 0 -18 10 -11 16 -11 32 -1 18 11 20 10 20 -12 0 -21
-6 -24 -77 -36 -43 -8 -84 -14 -90 -16 -22 -4 -14 33 7 39 27 7 26 37 -1 44
-20 6 -21 10 -15 74 8 86 23 122 48 115 12 -3 18 0 15 7 -8 25 -37 18 -55 -12
-23 -41 -32 -39 -32 7 0 69 -39 394 -64 532 -21 114 -45 229 -105 495 -5 22
-20 79 -35 128 -31 103 -30 97 -11 97 7 0 19 8 24 18 9 14 12 15 20 3 14 -22
44 -5 38 22 -5 17 1 27 26 43 38 25 47 22 47 -14z m2048 11 c-2 -27 -14 -43
-31 -43 -4 0 0 11 9 25 8 13 13 29 9 35 -3 5 -1 10 4 10 6 0 10 -12 9 -27z
m-1288 -26 c22 -24 49 -56 61 -71 21 -26 21 -28 3 -47 -18 -20 -18 -20 -27 3
-5 13 -11 18 -14 11 -2 -7 -11 -9 -19 -6 -9 3 -14 -1 -14 -11 0 -9 7 -19 16
-23 12 -4 13 -8 3 -14 -8 -5 -28 14 -61 56 -49 65 -60 88 -33 65 18 -15 45 -6
45 16 0 10 -5 14 -15 10 -8 -3 -15 -1 -15 4 0 10 22 50 27 50 2 0 21 -20 43
-43z m830 39 c0 -3 -4 -8 -10 -11 -5 -3 -10 -1 -10 4 0 6 5 11 10 11 6 0 10
-2 10 -4z m-679 -49 c20 -5 27 -27 8 -27 -5 0 -7 5 -4 10 10 16 -31 12 -45 -5
-7 -8 -10 -24 -7 -35 3 -11 1 -20 -4 -20 -5 0 -9 3 -10 8 -5 47 -3 62 8 62 7
0 16 12 20 28 7 24 8 25 11 6 2 -12 12 -24 23 -27z m1910 8 c5 4 9 2 9 -4 0
-17 -17 -21 -29 -7 -6 8 -8 22 -4 32 7 17 8 17 11 -4 2 -12 8 -20 13 -17z
m-2230 -9 c-7 -8 -19 -12 -27 -9 -13 5 -12 8 2 24 21 23 45 9 25 -15z m-245
-32 c-4 -59 9 -105 47 -158 l20 -28 -99 -93 c-54 -52 -100 -92 -101 -91 -2 1
19 67 46 147 26 79 56 174 66 212 10 37 19 67 21 67 2 0 2 -25 0 -56z m1739
46 c3 -5 1 -10 -4 -10 -6 0 -11 5 -11 10 0 6 2 10 4 10 3 0 8 -4 11 -10z m685
-20 c0 -18 -36 -47 -52 -41 -17 6 -16 8 3 39 16 28 22 32 34 22 8 -7 15 -16
15 -20z m-620 -30 c10 -30 11 -43 2 -52 -16 -16 -54 71 -40 89 14 18 23 10 38
-37z m-276 25 c3 -8 12 -15 21 -15 8 0 15 -4 15 -10 0 -17 -15 -11 -40 15 -13
14 -19 25 -13 25 6 0 13 -7 17 -15z m-1249 -5 c3 -5 -1 -10 -9 -10 -22 0 -20
-16 4 -40 22 -22 40 -26 40 -9 0 5 5 7 11 3 8 -5 6 -10 -5 -16 -30 -17 -85 34
-72 68 6 16 22 18 31 4z m-1574 -53 c-17 -17 -34 12 -19 31 10 11 13 10 21 -3
6 -11 5 -21 -2 -28z m1519 17 c0 -8 3 -14 8 -14 4 0 7 -15 7 -32 0 -27 4 -34
23 -36 12 -2 22 -8 22 -13 0 -6 -9 -7 -20 -4 -16 5 -20 2 -20 -15 0 -19 -4
-21 -25 -16 -21 5 -25 3 -25 -15 0 -18 -4 -20 -26 -15 -21 6 -25 4 -21 -8 7
-18 -18 -42 -28 -26 -3 5 -1 10 4 10 18 0 12 42 -6 56 -11 8 -13 13 -5 14 6 0
12 7 12 15 0 8 4 15 8 15 5 0 8 -9 8 -21 -1 -12 10 -28 23 -37 l23 -16 -7 52
c-4 33 -3 52 3 52 6 0 8 -8 5 -19 -2 -10 3 -25 12 -35 30 -30 44 4 16 38 -7 9
-9 16 -4 16 5 0 9 9 10 20 1 11 0 20 -2 20 -2 0 -39 -21 -80 -46 -53 -32 -80
-43 -87 -36 -7 7 16 28 73 66 81 54 99 60 99 30z m1527 4 c-4 -14 0 -26 11
-34 9 -7 13 -16 9 -20 -4 -5 -12 -2 -17 6 -7 11 -13 12 -35 2 -14 -7 -23 -17
-20 -22 3 -6 -1 -10 -11 -10 -13 0 -14 3 -4 15 6 8 9 19 5 25 -3 5 2 10 13 10
23 0 46 25 37 40 -3 5 -1 10 6 10 7 0 9 -9 6 -22z m128 -78 c-3 -4 -26 -15
-51 -24 -44 -15 -48 -15 -60 2 -14 18 -13 20 50 42 29 10 29 15 11 65 -4 11 7
-2 24 -28 17 -27 29 -52 26 -57z m-3126 68 c-3 -27 2 -37 22 -43 13 -4 17 -10
11 -14 -6 -3 -10 -15 -9 -26 1 -14 -4 -20 -15 -19 -28 3 -23 -40 7 -56 29 -15
43 -49 25 -60 -19 -11 -61 30 -54 52 4 13 0 18 -12 18 -13 0 -15 3 -7 11 16
16 4 49 -19 49 -16 0 -17 2 -6 14 11 12 15 12 29 0 35 -32 52 -7 23 34 -9 13
-13 29 -10 37 7 18 17 20 15 3z m3681 2 c0 -5 -2 -10 -4 -10 -3 0 -8 5 -11 10
-3 6 -1 10 4 10 6 0 11 -4 11 -10z m-881 -34 c-3 -3 -11 5 -18 17 -13 21 -12
21 5 5 10 -10 16 -20 13 -22z m-2130 -82 c-18 -54 -33 -101 -35 -103 -1 -1
-30 14 -64 35 -49 30 -58 40 -48 50 19 18 172 123 176 120 1 -2 -12 -47 -29
-102z m2186 86 c10 -11 26 -20 37 -20 10 0 18 -7 18 -15 0 -27 -34 -16 -63 20
-29 37 -23 49 8 15z m-2969 -57 c-38 -36 -56 -42 -56 -18 0 8 7 15 15 15 9 0
18 8 22 18 12 34 24 43 40 30 12 -10 9 -17 -21 -45z m74 47 c0 -5 -5 -10 -11
-10 -5 0 -7 5 -4 10 3 6 8 10 11 10 2 0 4 -4 4 -10z m1660 -42 c0 -4 -6 -8
-13 -8 -7 0 -13 -9 -13 -20 0 -22 32 -28 38 -8 2 6 55 -60 118 -148 231 -322
344 -457 622 -739 160 -163 212 -221 200 -226 -11 -4 -12 -8 -4 -13 7 -4 10
-11 7 -16 -11 -18 19 -22 32 -4 12 16 15 17 28 3 14 -14 8 -22 -57 -77 -60
-50 -74 -58 -82 -45 -5 10 -4 18 4 23 21 13 7 45 -20 45 -20 0 -30 10 -49 48
-13 26 -26 68 -29 92 -4 39 -2 45 14 45 13 0 15 3 7 11 -7 7 -19 9 -27 6 -19
-8 -22 -77 -5 -110 19 -36 4 -18 -81 102 -130 183 -288 376 -430 526 -47 50
-106 124 -131 165 -78 128 -138 232 -172 298 -31 62 -32 63 -13 77 17 13 22
13 38 -2 10 -9 18 -20 18 -25z m935 -9 c55 -42 67 -59 41 -59 -7 0 -111 -29
-230 -65 l-218 -66 -45 26 c-24 15 -43 28 -41 29 2 2 53 20 113 41 86 30 204
79 322 134 1 1 27 -18 58 -40z m704 -40 c13 -38 20 -77 17 -86 -11 -27 -22 -3
-62 126 -4 11 -8 10 -18 -5 -12 -16 -12 -20 0 -27 8 -4 14 -12 14 -17 0 -12
-71 -83 -77 -77 -8 8 19 43 40 53 31 14 33 34 4 34 -25 0 -52 -22 -40 -33 3
-4 1 -7 -6 -7 -7 0 -9 9 -5 24 4 16 1 25 -11 30 -9 3 -13 11 -9 17 5 8 10 6
16 -5 12 -21 24 -20 47 3 19 19 51 40 62 41 3 0 16 -32 28 -71z m-3149 19 c0
-4 -7 -8 -15 -8 -20 0 -19 -29 0 -36 8 -4 21 -1 29 5 10 8 17 6 31 -9 17 -18
16 -19 -9 -26 -14 -3 -28 -15 -31 -25 -4 -10 -10 -19 -15 -19 -9 0 -22 31 -19
46 3 21 -2 26 -16 14 -13 -10 -15 -9 -15 12 0 13 -6 30 -12 36 -10 10 -8 14
10 18 12 4 22 13 22 22 0 13 3 12 20 -3 11 -10 20 -22 20 -27z m2766 -5 c52
-66 351 -360 514 -506 74 -67 141 -127 148 -134 7 -7 17 -13 21 -13 4 0 26
-17 50 -39 30 -27 39 -41 29 -45 -7 -3 -4 -4 8 -1 14 4 43 -12 94 -50 40 -30
75 -57 78 -60 3 -3 -16 2 -42 11 -38 13 -49 14 -62 3 -17 -14 -15 -50 2 -56 7
-2 10 6 7 22 -6 28 17 35 39 12 7 -8 19 -12 28 -10 8 2 35 -7 60 -19 35 -18
45 -28 45 -48 0 -32 -13 -50 -31 -43 -9 3 -14 -2 -14 -16 0 -16 6 -21 25 -21
18 0 25 5 25 20 0 13 7 20 20 20 11 0 20 7 20 15 0 20 19 19 27 0 3 -11 -14
-35 -51 -73 -31 -31 -56 -60 -56 -64 0 -5 -9 -3 -20 4 -24 15 -26 28 -5 28 8
0 15 9 15 20 0 22 -28 25 -42 5 -10 -12 -29 15 -21 29 3 5 1 6 -4 3 -13 -8
-289 281 -287 300 1 7 -2 10 -8 7 -5 -3 -37 21 -71 54 -34 34 -84 80 -111 104
-27 24 -70 62 -95 85 -25 24 -76 65 -113 93 -50 37 -66 55 -62 68 5 14 4 15
-5 2 -13 -17 -7 -24 -72 80 -22 36 -42 76 -45 90 -13 61 -38 113 -65 132 -29
21 -37 38 -20 38 5 0 26 -21 47 -47z m-2956 12 c0 -14 -4 -25 -9 -25 -4 0 -6
11 -3 25 2 14 6 25 8 25 2 0 4 -11 4 -25z m797 3 c-3 -8 -6 -5 -6 6 -1 11 2
17 5 13 3 -3 4 -12 1 -19z m2261 1 c7 -12 12 -22 10 -23 -2 -1 -10 -7 -19 -14
-13 -10 -21 -8 -44 12 l-27 24 28 10 c39 14 38 15 52 -9z m-1638 -13 c0 -3 -4
-8 -10 -11 -5 -3 -10 -1 -10 4 0 6 5 11 10 11 6 0 10 -2 10 -4z m214 -12 c11
-28 7 -44 -9 -38 -11 4 -15 0 -15 -16 0 -17 5 -21 27 -18 15 2 28 -2 30 -9 3
-7 0 -13 -5 -13 -5 0 -3 -23 5 -52 8 -29 14 -65 15 -80 1 -16 5 -28 10 -28 13
0 9 68 -7 107 -8 20 -13 38 -11 41 3 2 28 -42 57 -99 51 -104 137 -253 302
-524 69 -113 312 -446 342 -467 7 -5 6 -8 -1 -8 -6 0 -17 7 -24 15 -17 21 -80
31 -90 14 -13 -20 -1 -30 19 -17 16 9 28 6 70 -21 56 -36 99 -83 82 -89 -16
-5 -13 -28 4 -42 12 -10 18 -10 31 1 13 10 17 10 24 -2 14 -21 -135 -116 -156
-99 -19 17 -18 28 3 26 12 -1 19 7 21 23 3 21 1 23 -25 18 -28 -5 -31 -2 -66
66 -44 85 -159 299 -202 375 -57 101 -262 407 -336 502 -41 53 -87 113 -104
134 -16 22 -47 61 -68 89 -36 46 -37 50 -20 62 17 13 17 15 1 31 -15 15 -19
15 -33 4 -17 -14 -21 -12 -37 23 -3 6 138 104 153 106 4 1 10 -6 13 -15z
m1556 -67 c14 -45 25 -86 25 -91 0 -20 -23 -15 -49 9 -23 21 -26 28 -16 40 10
12 9 15 -4 15 -10 0 -14 5 -11 10 3 6 -1 10 -9 10 -9 0 -16 -5 -16 -12 0 -6
-14 1 -30 17 -26 25 -28 30 -14 38 11 6 19 4 28 -9 14 -18 46 -14 46 7 0 6 -7
9 -15 5 -23 -8 -18 11 7 28 12 9 25 16 28 16 3 0 16 -37 30 -83z m-2376 41
c16 -75 17 -118 3 -150 -8 -18 -25 -59 -38 -90 -12 -32 -29 -58 -36 -58 -8 0
-11 -5 -8 -10 4 -6 10 -8 15 -5 4 3 -1 -12 -11 -32 -10 -20 -16 -40 -13 -44 3
-5 -2 -9 -10 -9 -13 0 -13 5 -4 33 6 17 16 35 22 39 7 5 7 8 -2 8 -7 0 -16 -8
-19 -17 -6 -15 -8 -14 -15 7 -4 16 -5 9 -2 -17 5 -35 3 -43 -10 -43 -10 0 -13
-5 -9 -17 4 -10 8 -12 10 -6 3 7 10 10 17 7 11 -4 7 -24 -16 -87 -16 -45 -34
-90 -39 -99 -5 -10 -9 -27 -9 -38 0 -31 -58 -81 -86 -74 -14 4 -23 0 -27 -10
-4 -9 -2 -16 2 -16 5 0 11 6 14 13 2 6 8 9 12 5 4 -4 -6 -18 -21 -32 -34 -30
-48 -33 -35 -8 22 42 71 154 71 162 0 6 5 10 10 10 6 0 10 6 10 14 0 15 51
159 75 211 20 44 70 199 67 208 -1 5 3 5 9 1 8 -5 10 -2 7 8 -7 17 40 168 52
168 4 0 11 -15 14 -32z m2140 -15 c9 -18 14 -33 12 -33 -6 0 -36 55 -36 66 0
11 5 3 24 -33z m-2925 -20 c-6 -7 -16 -10 -21 -7 -7 4 -6 9 1 14 7 3 9 15 6
26 -7 19 -6 19 9 0 12 -14 13 -23 5 -33z m2088 -70 c130 -86 132 -86 218 -139
84 -52 419 -220 542 -273 l102 -43 -22 -29 c-11 -16 -27 -27 -34 -25 -8 4 -13
-3 -13 -19 0 -30 -18 -32 -51 -7 -13 10 -31 22 -39 25 -15 7 -33 17 -80 48
-82 54 -329 200 -410 243 -148 78 -191 98 -359 172 l-64 28 34 11 c26 9 35 18
37 38 2 19 -1 27 -13 27 -13 0 -14 3 -3 15 17 19 18 18 155 -72z m620 55 c26
-24 30 -48 9 -48 -8 0 -50 -13 -93 -29 -43 -16 -124 -43 -179 -61 l-101 -32
-42 23 c-22 13 -41 27 -41 30 0 4 73 30 163 59 89 28 178 58 197 65 50 19 61
18 87 -7z m566 -10 c-3 -15 -9 -26 -13 -23 -14 9 -49 -25 -43 -42 4 -11 3 -14
-5 -9 -15 9 -16 36 -1 36 6 0 9 7 5 15 -4 10 1 15 14 15 11 0 25 9 32 20 15
24 18 22 11 -12z m-2776 -9 c-16 -4 -22 -12 -20 -32 1 -18 -3 -27 -13 -27 -8
0 -17 -7 -20 -15 -4 -8 -10 -12 -15 -9 -12 7 26 80 53 98 17 12 24 13 30 3 5
-8 0 -14 -15 -18z m134 -13 l37 -27 -16 -49 c-16 -50 -16 -50 -51 -44 -20 3
-43 8 -51 11 -19 8 -27 10 -41 12 -5 0 -7 6 -4 11 4 6 2 17 -4 24 -8 10 -5 16
15 25 20 9 25 17 21 32 -4 15 0 23 14 26 10 3 19 10 19 15 0 7 4 7 13 1 6 -5
28 -22 48 -37z m797 -8 l29 -42 -86 -67 c-47 -37 -138 -112 -201 -167 l-115
-101 -7 40 c-7 39 11 89 32 89 4 0 74 65 156 145 82 79 152 144 156 145 4 0
20 -19 36 -42z m497 11 c-4 -5 -13 -9 -22 -9 -13 0 -13 3 -3 15 13 15 35 11
25 -6z m-1817 -25 c-11 -11 -23 -14 -35 -9 -17 7 -17 8 2 15 11 5 27 9 35 9
12 1 11 -2 -2 -15z m3184 -6 c-7 -7 -12 -8 -12 -2 0 14 12 26 19 19 2 -3 -1
-11 -7 -17z m-503 -60 c17 -23 31 -45 31 -49 0 -3 -48 -18 -107 -33 -60 -14
-129 -32 -154 -40 -44 -14 -48 -13 -98 12 -28 15 -48 28 -44 29 4 2 78 30 163
62 85 32 160 59 167 60 6 1 25 -18 42 -41z m475 8 c-8 -20 -30 -21 -37 -2 -4
10 2 16 16 18 28 5 29 4 21 -16z m-1754 -41 c0 -6 -31 -20 -70 -32 -38 -11
-70 -16 -70 -12 0 5 24 26 53 48 48 35 53 37 70 23 9 -8 17 -20 17 -27z
m-1133 13 c12 -13 23 -34 25 -48 2 -18 9 -24 24 -23 28 3 152 -122 129 -131
-11 -4 -14 -13 -9 -31 5 -22 3 -25 -18 -25 -33 0 -41 10 -23 30 14 15 14 18
-1 30 -13 12 -17 11 -24 0 -5 -8 -6 -18 -3 -24 7 -10 -9 -2 -49 27 -24 18 -26
22 -11 32 9 7 13 17 9 23 -9 15 -36 16 -36 2 0 -19 -28 -10 -44 15 -9 14 -22
25 -29 25 -20 0 -88 50 -82 61 9 14 25 11 25 -6 0 -8 9 -15 20 -15 25 0 26 25
3 39 -15 8 -16 10 -3 15 8 2 26 4 40 3 15 -1 24 3 23 11 -4 19 11 14 34 -10z
m159 -48 l83 -40 -11 -30 c-5 -17 -13 -30 -16 -30 -10 1 -154 140 -146 140 4
0 45 -18 90 -40z m314 -93 c0 -4 -13 -1 -29 8 l-29 15 16 49 17 50 12 -57 c7
-31 12 -60 13 -65z m684 81 c-26 -44 -61 -77 -75 -73 -23 8 -45 -21 -30 -38 8
-10 7 -19 -3 -33 -14 -18 -15 -18 -26 11 -42 107 -43 115 -9 115 12 0 16 -5
13 -15 -8 -20 25 -32 37 -14 5 8 7 19 5 24 -1 6 13 15 33 21 50 16 64 16 55 2z
m544 -17 c17 -7 32 -17 32 -22 0 -5 -2 -9 -4 -9 -8 0 -76 42 -76 47 0 2 3 3 8
1 4 -3 22 -10 40 -17z m825 -63 c105 -161 110 -174 82 -198 -13 -11 -31 -5
-108 33 -50 24 -141 68 -200 97 -59 30 -110 56 -112 60 -5 9 209 77 277 89 4
0 31 -36 61 -81z m-913 64 c0 -4 13 -13 28 -20 16 -6 37 -20 48 -31 11 -10 31
-24 45 -31 13 -7 74 -45 134 -85 61 -40 138 -90 172 -112 34 -22 59 -44 55
-48 -4 -5 -2 -5 5 -1 7 4 62 -21 125 -55 62 -34 130 -71 151 -81 l37 -19 -26
-33 -27 -33 -124 73 c-127 76 -267 149 -386 204 -37 17 -81 45 -97 63 -25 29
-27 34 -14 48 13 15 13 19 -3 34 -17 17 -18 17 -23 -4 -5 -21 -10 -18 -58 38
-50 57 -72 101 -51 101 5 0 9 -3 9 -8z m1483 -125 c63 -93 64 -97 29 -68 -20
16 -62 51 -92 79 l-54 49 18 28 c21 32 15 37 99 -88z m-2133 93 c0 -5 -2 -10
-4 -10 -3 0 -8 5 -11 10 -3 6 -1 10 4 10 6 0 11 -4 11 -10z m259 -27 c23 -36
23 -37 5 -52 -11 -9 -39 -46 -63 -83 -25 -38 -48 -68 -52 -68 -4 0 -11 -10
-15 -22 -3 -12 -34 -65 -69 -117 -34 -53 -78 -122 -99 -154 -20 -32 -43 -60
-50 -63 -8 -3 -12 -12 -9 -20 4 -11 -2 -13 -26 -8 -27 6 -31 4 -31 -14 0 -13
8 -22 19 -24 17 -3 18 -5 6 -21 -13 -18 -15 -18 -44 4 -28 20 -46 70 -21 54
16 -10 40 14 33 32 -3 8 -8 10 -12 5 -9 -15 -39 9 -41 33 -1 11 -2 25 -1 32 1
16 72 64 83 57 4 -3 8 -1 8 4 0 5 12 14 27 21 24 11 29 10 45 -11 l18 -23 0
27 c0 39 -38 47 -85 19 -20 -12 -39 -21 -41 -21 -3 0 27 34 67 75 40 41 77 71
82 68 6 -3 7 -1 4 4 -4 6 21 41 54 79 34 38 75 88 92 112 17 23 33 42 36 42 4
0 15 16 25 35 11 19 22 35 25 35 3 0 17 -17 30 -37z m-258 -3 c10 -6 19 -15
19 -21 0 -6 -7 -6 -19 1 -11 5 -28 7 -38 3 -16 -6 -16 -5 -4 10 16 20 17 20
42 7z m889 -22 c42 -24 51 -38 25 -38 -14 0 -95 48 -95 56 0 11 36 1 70 -18z
m-1406 -30 c43 -21 70 -63 48 -77 -4 -3 -25 -19 -45 -35 l-38 -29 -29 28 c-17
16 -30 33 -30 39 0 18 34 96 42 96 4 0 28 -10 52 -22z m431 -15 c5 -18 3 -22
-9 -17 -9 3 -16 18 -16 32 0 29 14 20 25 -15z m30 17 c3 -5 1 -10 -4 -10 -6 0
-11 5 -11 10 0 6 2 10 4 10 3 0 8 -4 11 -10z m81 -10 c8 0 14 -5 14 -11 0 -5
-4 -8 -9 -5 -4 3 -6 -6 -3 -19 4 -21 1 -25 -22 -25 -14 0 -26 4 -26 10 0 5 7
7 15 4 17 -7 18 -3 9 20 -3 9 -13 16 -21 16 -8 0 -11 5 -8 11 4 6 14 8 22 5 8
-3 21 -6 29 -6z m1816 -17 c10 -9 18 -28 18 -42 l-1 -26 -24 30 c-37 45 -32
74 7 38z m-1536 -8 c-21 -16 -32 -13 -21 4 3 6 14 11 23 11 15 -1 15 -2 -2
-15z m739 -20 c33 -20 68 -38 78 -41 10 -4 16 -12 14 -18 -7 -22 -45 -16 -100
18 -81 48 -91 57 -75 67 18 12 17 13 83 -26z m-1058 -69 c0 0 -10 -14 -23 -31
-22 -28 -25 -29 -46 -16 -13 8 -43 25 -68 37 -79 41 -79 41 -46 67 l29 24 76
-40 c42 -22 77 -40 78 -41z m323 14 c12 0 24 9 29 22 7 19 11 16 49 -37 23
-32 42 -62 42 -66 0 -5 -9 -13 -20 -19 -16 -9 -24 -7 -36 5 -8 8 -21 15 -29
15 -16 0 -28 -27 -15 -35 20 -13 9 -24 -13 -14 -29 13 -75 148 -55 160 8 5 15
1 20 -11 4 -11 17 -20 28 -20z m-1996 11 c3 -5 -3 -11 -15 -14 -16 -4 -18 -3
-8 9 13 16 16 17 23 5z m-46 -93 c41 -57 68 -106 45 -83 -38 40 -112 145 -101
144 7 0 32 -27 56 -61z m1287 6 c7 -56 6 -57 -33 -98 -207 -213 -234 -239
-242 -227 -6 10 -12 10 -29 2 -27 -15 -27 -31 -1 -38 16 -4 18 -8 9 -19 -6 -8
-15 -14 -19 -14 -5 0 -34 29 -66 65 -44 51 -55 68 -45 78 9 9 14 9 20 -2 13
-21 46 -9 46 17 1 28 36 52 111 78 54 18 56 18 69 1 10 -13 15 -15 21 -6 4 7
-1 18 -12 26 -18 14 -47 13 -89 -1 l-20 -7 20 15 c11 9 70 53 130 100 61 46
113 85 116 85 4 1 10 -24 14 -55z m215 23 c0 -20 -24 -77 -32 -77 -4 0 -8 18
-8 39 0 22 -3 47 -6 56 -6 14 -3 14 20 4 14 -7 26 -17 26 -22z m1529 -36 c64
-37 135 -79 158 -92 24 -13 43 -27 43 -31 0 -22 -32 -12 -137 45 -65 35 -132
69 -148 75 -30 12 -66 72 -43 72 6 0 63 -31 127 -69z m-2945 50 c3 -5 -6 -8
-20 -8 -19 0 -22 2 -13 8 18 11 26 11 33 0z m1056 -19 c0 -11 -60 -55 -66 -49
-3 3 2 21 10 41 14 33 18 36 36 26 11 -6 20 -14 20 -18z m818 3 c1 -14 -3 -25
-8 -25 -6 0 -10 11 -10 25 0 14 4 25 8 25 4 0 9 -11 10 -25z m917 15 c3 -5 1
-10 -4 -10 -6 0 -11 5 -11 10 0 6 2 10 4 10 3 0 8 -4 11 -10z m-1284 -52 c22
-12 39 -26 39 -30 0 -11 -122 -158 -131 -158 -4 0 -9 14 -13 32 -6 33 40 178
57 178 5 0 27 -10 48 -22z m1859 -10 c25 -42 25 -46 -2 -50 -17 -2 -23 -10
-23 -28 0 -14 -20 -56 -44 -93 -35 -54 -46 -65 -57 -56 -11 9 -15 7 -20 -6 -4
-9 -2 -21 4 -27 13 -13 -65 -139 -90 -146 -11 -3 -18 -14 -18 -30 l0 -26 -16
22 c-8 12 -20 22 -25 22 -6 0 -28 14 -49 31 l-39 32 37 33 c27 25 43 33 60 29
16 -4 24 0 29 12 13 36 44 44 40 11 -1 -15 3 -23 13 -23 20 0 26 36 9 50 -8 6
-20 21 -27 34 -12 21 -11 26 13 51 17 18 33 26 46 23 16 -4 19 0 19 24 0 35
50 89 66 73 8 -8 15 -6 24 5 12 14 11 18 0 25 -11 7 -11 11 -1 24 19 23 29 20
51 -16z m-1426 -55 c39 -19 78 -36 87 -38 9 -2 39 -15 67 -30 44 -23 50 -30
42 -45 -12 -22 -4 -28 30 -26 19 1 24 6 22 21 -2 18 0 17 17 -5 18 -22 18 -27
6 -45 -8 -11 -26 -44 -40 -73 -26 -52 -27 -53 -46 -36 -22 20 -25 35 -6 32 6
-2 13 4 13 12 1 8 2 20 3 27 0 7 8 10 16 7 20 -8 20 20 0 36 -23 19 -48 4 -43
-24 3 -16 0 -26 -11 -30 -9 -3 -22 -9 -30 -12 -10 -5 -12 -2 -8 8 3 10 -6 27
-24 44 -17 16 -39 44 -51 62 -11 17 -24 32 -29 32 -22 0 -6 -35 39 -82 l47
-52 -60 45 c-33 25 -96 67 -140 93 -44 27 -82 50 -84 52 -2 2 3 12 12 22 10
10 17 23 17 28 0 6 5 15 11 21 14 14 42 5 143 -44z m201 -15 c19 -29 35 -56
35 -60 0 -4 -38 11 -84 34 -47 23 -83 45 -80 50 5 8 58 25 81 27 7 1 28 -23
48 -51z m223 -14 c-4 -3 -12 5 -18 18 -12 22 -12 22 6 6 10 -10 15 -20 12 -24z
m277 24 c27 -12 70 -92 59 -110 -4 -5 -24 7 -45 28 -27 26 -35 40 -27 45 8 5
3 11 -15 18 -29 11 -37 31 -12 31 8 0 26 -5 40 -12z m786 -39 c9 -18 6 -31
-16 -75 -24 -47 -30 -52 -46 -43 -23 12 -24 25 -3 33 12 5 14 9 5 20 -12 14 1
33 24 35 6 1 10 9 11 19 2 39 8 42 25 11z m-991 -67 c-18 -6 -11 -21 13 -24
23 -3 31 -28 10 -35 -13 -5 -95 111 -86 121 4 3 22 -8 40 -26 19 -18 29 -34
23 -36z m297 55 l22 -12 -20 -25 c-20 -25 -20 -25 -14 -2 5 17 1 28 -12 37
-22 18 -6 19 24 2z m-1517 -12 c14 9 13 -28 -2 -43 -9 -9 -7 -16 10 -32 12
-12 22 -30 22 -42 0 -20 -3 -19 -36 13 -23 22 -33 40 -30 53 3 12 -2 20 -15
23 -24 7 -24 12 -2 29 12 8 22 9 30 2 7 -5 17 -7 23 -3z m615 -53 c55 -32 99
-62 98 -67 -2 -11 -99 -48 -222 -85 -72 -22 -98 -26 -108 -18 -8 6 -12 16 -9
23 8 22 129 205 135 205 3 0 51 -26 106 -58z m1088 -34 c50 -28 94 -53 96 -54
2 -2 -21 -31 -50 -66 -30 -35 -55 -65 -57 -68 -2 -3 -49 42 -105 99 l-102 104
40 18 c60 27 77 23 178 -33z m1137 -149 c0 -4 -12 -14 -26 -24 -24 -16 -26
-16 -39 2 -12 16 -11 18 6 21 11 2 19 11 19 22 0 21 -30 36 -41 19 -4 -8 -19
12 -39 52 l-32 64 76 -75 c42 -41 76 -77 76 -81z m-940 129 c0 -7 -11 -18 -25
-24 -23 -11 -24 -11 -8 12 17 26 33 32 33 12z m348 0 c19 -19 14 -29 -8 -16
-20 13 -27 28 -12 28 4 0 13 -5 20 -12z m-25 -82 c42 -20 81 -36 85 -36 18 0
32 -23 21 -36 -16 -19 -2 -34 31 -34 36 0 45 -24 22 -58 -10 -15 -24 -39 -32
-54 -16 -33 -21 -34 -45 -8 -17 18 -17 20 -2 14 13 -4 17 -1 17 14 0 27 -23
34 -50 15 -21 -15 -22 -15 -11 6 7 12 8 20 3 19 -14 -4 -67 45 -88 81 -10 17
-24 31 -31 31 -19 0 6 -47 49 -90 l33 -34 -35 25 c-108 79 -138 99 -148 99
-24 0 -22 23 4 64 l28 44 35 -13 c20 -7 71 -29 114 -49z m-2181 -37 c3 -17 -1
-34 -9 -40 -15 -13 -18 -49 -3 -49 6 0 10 -3 10 -8 0 -11 -157 -50 -169 -42
-14 8 31 72 84 118 27 24 41 30 48 23 16 -16 27 -13 21 4 -9 23 -49 18 -83
-10 l-30 -26 30 62 30 62 34 -33 c18 -17 35 -45 37 -61z m768 55 c22 -15 40
-29 40 -33 0 -3 -48 -22 -107 -40 -60 -19 -136 -45 -170 -59 l-63 -24 -41 33
c-37 29 -40 34 -23 40 10 4 87 29 169 57 83 27 151 50 153 51 1 1 20 -11 42
-25z m1460 16 c0 -5 -5 -10 -11 -10 -5 0 -7 5 -4 10 3 6 8 10 11 10 2 0 4 -4
4 -10z m40 -12 c0 -16 -3 -19 -11 -11 -6 6 -8 16 -5 22 11 17 16 13 16 -11z
m-2762 -17 c26 -22 27 -34 5 -52 -15 -12 -16 -12 -10 5 10 25 -11 50 -29 35
-17 -14 -18 -3 -1 16 6 8 12 14 13 15 1 0 11 -8 22 -19z m1502 -13 c0 -12 -6
-9 -26 13 -19 22 -19 22 4 8 12 -8 22 -17 22 -21z m-1580 12 c0 -5 -5 -10 -11
-10 -5 0 -7 5 -4 10 3 6 8 10 11 10 2 0 4 -4 4 -10z m25 -85 c31 -35 55 -69
53 -75 -3 -10 -128 121 -128 134 0 18 25 -1 75 -59z m113 29 c-2 -14 -9 -31
-17 -37 -12 -10 -13 -9 -7 8 5 11 11 28 13 38 8 25 13 21 11 -9z m1402 11 c11
-13 10 -14 -4 -9 -9 3 -16 10 -16 15 0 13 6 11 20 -6z m76 -41 c-11 -25 -20
-34 -27 -27 -7 7 -4 22 8 46 24 48 43 30 19 -19z m-737 9 c-25 -32 -39 -45
-39 -36 0 14 30 53 42 53 6 0 5 -7 -3 -17z m-704 -3 c3 -5 1 -10 -4 -10 -6 0
-11 5 -11 10 0 6 2 10 4 10 3 0 8 -4 11 -10z m2112 -15 c17 -9 34 -22 37 -30
3 -8 14 -15 25 -15 23 0 37 -30 19 -42 -20 -12 -29 -9 -26 10 2 12 -5 18 -24
20 -19 2 -28 10 -30 25 -2 16 -9 21 -25 19 -22 -3 -30 8 -16 21 8 9 5 9 40 -8z
m1103 -4 c0 -11 3 -28 6 -38 6 -15 5 -16 -7 -5 -15 14 -20 62 -7 62 4 0 8 -9
8 -19z m300 -28 c-1 -17 -1 -17 -11 0 -8 13 -15 15 -28 7 -27 -14 -34 0 -10
21 18 16 23 16 35 4 8 -7 14 -22 14 -32z m-2732 17 c3 -9 -1 -11 -11 -7 -18 7
-39 -14 -35 -34 2 -8 -4 -14 -12 -14 -24 -1 -40 -15 -33 -30 3 -10 -1 -15 -14
-15 -10 0 -24 -5 -31 -12 -8 -8 -12 -8 -12 -1 0 6 7 13 15 17 8 3 15 12 15 20
0 8 9 18 20 21 11 3 20 11 20 16 0 15 52 60 64 56 5 -2 12 -9 14 -17z m702 7
c0 -7 11 -29 25 -49 14 -20 25 -43 25 -51 0 -8 7 -18 16 -21 10 -4 14 -14 11
-26 -3 -11 -1 -23 4 -26 9 -5 39 -69 39 -83 0 -3 -12 12 -27 34 -14 22 -27 41
-28 43 -10 12 -65 8 -77 -5 -11 -14 -11 -15 1 -9 10 7 11 3 5 -15 -4 -13 -6
-30 -6 -36 1 -7 3 -20 4 -28 1 -8 5 -15 10 -15 4 0 8 -7 8 -16 0 -8 -4 -13 -9
-10 -5 4 -7 -4 -3 -16 5 -21 6 -21 13 -2 7 18 8 17 8 -3 1 -23 11 -29 24 -16
4 3 1 13 -6 22 -20 24 -38 71 -27 71 5 0 12 -9 15 -21 4 -11 9 -18 12 -16 6 7
-17 50 -31 59 -7 5 -6 13 6 24 16 17 18 17 38 -1 11 -10 31 -38 46 -62 22 -38
24 -47 12 -60 -9 -12 -10 -15 0 -9 6 4 12 3 12 -2 0 -14 -12 -22 -24 -15 -6 4
-18 9 -26 10 -21 3 -25 -46 -5 -53 8 -4 12 -10 9 -15 -8 -13 8 -11 27 4 9 7
14 19 11 27 -5 13 -3 13 13 0 14 -11 19 -12 22 -2 7 18 20 14 26 -8 3 -13 1
-20 -6 -18 -7 1 -23 -4 -36 -11 -14 -8 -21 -9 -17 -2 4 6 3 11 -3 11 -5 0 -11
-4 -13 -9 -1 -4 -13 -11 -25 -15 -18 -6 -21 -4 -18 13 2 13 -1 21 -10 21 -8 0
-11 7 -8 19 5 18 -20 36 -37 26 -9 -5 -14 20 -31 148 -8 69 -8 91 1 103 11 12
10 13 -2 9 -24 -10 -29 49 -6 64 10 6 18 20 18 31 0 11 5 20 10 20 6 0 10 -6
10 -13z m2074 4 c3 -5 -1 -11 -9 -14 -9 -4 -12 -1 -8 9 6 16 10 17 17 5z
m-3730 -40 l38 -38 -32 -12 c-27 -9 -31 -8 -26 5 3 8 2 13 -2 10 -4 -2 -15 2
-25 9 -12 8 -14 15 -8 20 6 3 11 15 11 26 0 10 1 19 3 19 2 0 20 -17 41 -39z
m806 25 c0 -11 -19 -15 -25 -6 -3 5 1 10 9 10 9 0 16 -2 16 -4z m2540 0 c0 -3
-4 -8 -10 -11 -5 -3 -10 -1 -10 4 0 6 5 11 10 11 6 0 10 -2 10 -4z m408 -34
c-7 -10 -30 -35 -50 -57 -20 -22 -43 -49 -51 -59 -9 -13 -16 -15 -21 -8 -4 6
1 20 11 30 10 11 38 43 62 70 24 28 48 49 53 46 5 -3 3 -13 -4 -22z m-143 -50
c-1 -1 -10 0 -19 4 -9 3 -16 17 -16 33 l0 26 19 -30 c10 -16 17 -31 16 -33z
m30 47 c11 -16 1 -19 -13 -3 -7 8 -8 14 -3 14 5 0 13 -5 16 -11z m-2645 -48
c0 -11 -4 -9 -15 5 -8 10 -15 25 -15 33 0 11 4 9 15 -5 8 -10 15 -25 15 -33z
m2483 32 c10 -9 -61 -55 -80 -51 -12 2 -5 11 23 30 43 29 48 31 57 21z m-2889
-49 c10 -73 7 -100 -10 -115 -12 -10 -20 -10 -34 -1 -28 17 -53 4 -46 -23 8
-32 -22 -43 -33 -12 -47 126 -53 150 -40 158 22 14 29 11 29 -11 0 -13 7 -20
20 -20 19 0 24 9 21 36 -1 8 37 24 80 33 4 0 9 -20 13 -45z m363 40 c-3 -3
-12 -4 -19 -1 -8 3 -5 6 6 6 11 1 17 -2 13 -5z m2603 -4 c0 -5 -5 -10 -11 -10
-5 0 -7 5 -4 10 3 6 8 10 11 10 2 0 4 -4 4 -10z m-357 -30 c-7 -26 14 -51 34
-43 11 4 14 3 9 -6 -4 -6 -16 -9 -26 -6 -12 4 -19 -1 -23 -15 -6 -23 -31 -18
-60 12 -24 25 -37 23 -37 -6 0 -22 23 -42 43 -37 5 1 6 -3 3 -8 -9 -14 -49 0
-64 21 -9 13 -20 17 -34 12 -14 -4 -18 -3 -13 6 4 7 17 9 31 6 20 -5 24 -3 24
15 0 18 4 20 25 15 14 -4 36 -17 48 -29 l22 -22 3 23 c4 28 -16 55 -35 48 -7
-3 -13 0 -13 5 0 7 9 9 21 6 15 -4 23 0 26 14 3 10 9 17 13 14 5 -3 6 -14 3
-25z m457 20 c0 -5 -5 -10 -11 -10 -5 0 -7 5 -4 10 3 6 8 10 11 10 2 0 4 -4 4
-10z m-3608 -15 c0 -5 -5 -11 -11 -13 -6 -2 -11 4 -11 13 0 9 5 15 11 13 6 -2
11 -8 11 -13z m-101 -25 c5 0 9 6 10 13 0 6 5 1 10 -12 7 -18 14 -22 34 -17
18 5 27 2 32 -10 3 -9 13 -14 24 -11 21 6 21 5 13 -17 -7 -19 -35 -14 -115 21
-45 20 -56 29 -52 43 5 17 7 17 20 5 8 -8 19 -15 24 -15z m139 20 c0 -5 -5
-10 -11 -10 -5 0 -7 5 -4 10 3 6 8 10 11 10 2 0 4 -4 4 -10z m990 -2 c-1 -19
-119 -142 -128 -133 -4 4 -1 10 6 12 6 3 12 10 12 16 0 7 21 32 45 56 25 25
45 49 45 53 0 4 5 8 10 8 6 0 10 -6 10 -12z m-170 -2 c0 -3 -4 -8 -10 -11 -5
-3 -10 -1 -10 4 0 6 5 11 10 11 6 0 10 -2 10 -4z m-510 -15 c0 -6 -5 -13 -11
-17 -8 -5 -5 -12 10 -23 21 -16 21 -16 -19 -13 -39 4 -40 5 -21 19 12 8 21 21
21 29 0 8 5 14 10 14 6 0 10 -4 10 -9z m565 -1 c3 -5 2 -10 -4 -10 -5 0 -13 5
-16 10 -3 6 -2 10 4 10 5 0 13 -4 16 -10z m-328 -32 c-3 -8 -6 -5 -6 6 -1 11
2 17 5 13 3 -3 4 -12 1 -19z m2323 -11 c0 -4 -9 -3 -20 3 -11 6 -20 15 -20 20
0 6 9 5 20 -2 11 -7 20 -16 20 -21z m-2635 13 c3 -5 1 -10 -4 -10 -6 0 -11 5
-11 10 0 6 2 10 4 10 3 0 8 -4 11 -10z m575 -6 c0 -2 -12 -4 -26 -4 -14 0 -23
4 -20 9 6 8 46 4 46 -5z m1440 6 c0 -5 -2 -10 -4 -10 -3 0 -8 5 -11 10 -3 6
-1 10 4 10 6 0 11 -4 11 -10z m-2022 -87 c31 -84 34 -109 11 -86 -12 12 -59
140 -59 161 0 34 20 3 48 -75z m2952 54 c-1 -19 -160 -111 -172 -99 -6 6 20
29 74 64 80 54 98 60 98 35z m-927 -9 c3 -10 1 -18 -4 -18 -5 0 -9 5 -9 10 0
6 -11 10 -25 10 -14 0 -25 4 -25 8 0 5 13 9 29 9 20 0 31 -6 34 -19z m671 -22
c-3 -8 -12 -12 -19 -10 -11 5 -11 11 -3 30 9 20 13 22 20 10 4 -8 5 -21 2 -30z
m-2669 14 c3 -5 1 -10 -4 -10 -6 0 -11 5 -11 10 0 6 2 10 4 10 3 0 8 -4 11
-10z m-434 -27 c-12 -20 -14 -14 -5 12 4 9 9 14 11 11 3 -2 0 -13 -6 -23z
m496 11 c3 -8 12 -13 21 -9 12 4 13 3 3 -9 -7 -8 -10 -19 -7 -24 3 -6 -4 -12
-16 -15 -26 -7 -38 1 -19 13 18 11 6 40 -16 40 -15 0 -16 2 -3 10 21 14 30 12
37 -6z m1900 -30 c-4 -4 -13 -2 -20 5 -11 9 -17 8 -28 -5 -11 -13 -10 -17 2
-25 22 -14 4 -10 -27 5 -15 8 -32 12 -37 9 -6 -3 -7 -1 -3 5 4 6 14 8 22 5 9
-3 19 -1 23 4 15 23 46 32 60 18 8 -8 12 -18 8 -21z m-2284 13 c3 -8 2 -20 -3
-26 -5 -9 -7 -4 -7 13 0 29 2 32 10 13z m2395 -6 c-4 -11 -133 -121 -142 -121
-19 0 1 25 60 74 60 52 91 69 82 47z m682 -1 c0 -5 -4 -10 -9 -10 -6 0 -13 5
-16 10 -3 6 1 10 9 10 9 0 16 -4 16 -10z m-3235 -41 c4 -6 13 -8 20 -5 7 2 22
-2 34 -10 11 -8 21 -12 21 -9 0 3 6 3 12 -1 7 -5 21 -9 31 -9 20 -2 44 -22 35
-30 -7 -7 -178 58 -178 68 0 11 18 9 25 -4z m520 -37 c-8 -8 -25 10 -19 20 4
6 9 5 15 -3 4 -7 6 -15 4 -17z m1415 -2 c0 -5 -5 -10 -11 -10 -5 0 -7 5 -4 10
3 6 8 10 11 10 2 0 4 -4 4 -10z m465 0 c-3 -5 -10 -10 -16 -10 -5 0 -9 5 -9
10 0 6 7 10 16 10 8 0 12 -4 9 -10z m-1810 -21 c12 -18 -1 -20 -31 -4 l-29 15
27 0 c15 0 30 -5 33 -11z m385 -19 c0 -5 -4 -10 -10 -10 -5 0 -10 5 -10 10 0
6 5 10 10 10 6 0 10 -4 10 -10z m-36 -15 c10 -7 15 -18 12 -24 -4 -6 2 -16 14
-23 11 -7 20 -16 20 -21 0 -11 -49 26 -50 37 0 5 -7 18 -17 28 -19 21 -6 24
21 3z m-103 -19 c8 6 20 9 27 8 6 -1 16 -2 21 -3 12 -1 21 -41 10 -41 -5 0
-12 6 -15 14 -3 8 -13 12 -24 9 -11 -3 -16 -11 -13 -19 3 -8 0 -14 -6 -14 -6
0 -11 6 -11 14 0 7 -7 19 -15 26 -8 7 -15 17 -15 23 0 6 6 2 14 -8 10 -14 18
-16 27 -9z m1403 -8 c2 -10 0 -21 -5 -24 -5 -3 -8 -2 -7 3 2 4 0 9 -4 11 -20
6 -27 0 -30 -23 -3 -25 -3 -25 -15 -6 -10 16 -10 23 2 35 11 11 12 15 2 19 -6
2 2 4 20 3 21 -1 33 -7 37 -18z m-420 -25 c-3 9 -1 17 4 17 16 0 22 -14 12
-29 -11 -18 -40 -6 -40 16 0 15 2 15 15 -3 13 -16 14 -16 9 -1z m321 -3 c-4
-12 -2 -27 5 -35 6 -7 7 -16 2 -18 -14 -10 -30 27 -21 51 10 28 23 29 14 2z
m145 10 c0 -5 -5 -10 -11 -10 -5 0 -7 5 -4 10 3 6 8 10 11 10 2 0 4 -4 4 -10z
m-1350 -24 c0 -3 -4 -8 -10 -11 -5 -3 -10 -1 -10 4 0 6 5 11 10 11 6 0 10 -2
10 -4z m1170 -6 c0 -5 -4 -10 -10 -10 -5 0 -10 5 -10 10 0 6 5 10 10 10 6 0
10 -4 10 -10z m205 1 c5 -9 -138 -111 -157 -111 -21 0 0 21 72 69 41 27 76 50
77 50 1 1 4 -3 8 -8z m-1488 -17 c-3 -3 -12 -4 -19 -1 -8 3 -5 6 6 6 11 1 17
-2 13 -5z m173 -13 c0 -5 -36 -14 -81 -21 -45 -6 -87 -14 -95 -17 -8 -3 -14 1
-14 9 0 11 20 18 68 25 91 14 122 15 122 4z m1020 -81 c0 -5 -8 -10 -17 -11
-10 0 -27 -3 -38 -5 -11 -3 -27 -6 -35 -8 -9 -1 -20 -5 -25 -8 -6 -3 -26 -9
-45 -13 -26 -5 -32 -4 -24 4 6 6 19 13 30 16 10 2 42 11 69 19 61 17 85 19 85
6z"/>
<path d="M1454 2095 c-10 -25 14 -47 38 -34 17 9 18 13 7 20 -11 7 -11 9 -1 9
7 0 10 5 7 10 -10 15 -45 12 -51 -5z"/>
<path d="M1295 1989 c-10 -15 3 -25 16 -12 7 7 7 13 1 17 -6 3 -14 1 -17 -5z"/>
<path d="M2653 2065 c-25 -17 -31 -45 -10 -45 23 0 39 17 35 39 -3 20 -4 21
-25 6z"/>
<path d="M2534 1959 c-6 -11 24 -31 36 -24 18 11 11 31 -11 31 -11 0 -22 -3
-25 -7z"/>
<path d="M1860 1923 c0 -17 33 -30 38 -15 5 17 -1 26 -20 27 -10 1 -18 -4 -18
-12z"/>
<path d="M3120 1885 c-11 -13 -11 -19 4 -33 16 -16 18 -16 32 3 8 10 13 24 11
30 -6 17 -33 17 -47 0z"/>
<path d="M3840 760 c0 -5 6 -10 13 -10 7 0 36 -21 65 -46 53 -47 69 -49 29 -4
-44 50 -107 85 -107 60z"/>
<path d="M3805 750 c3 -5 8 -10 11 -10 2 0 4 5 4 10 0 6 -5 10 -11 10 -5 0 -7
-4 -4 -10z"/>
<path d="M3926 607 c-16 -12 -16 -14 3 -31 12 -11 21 -17 22 -15 0 2 2 14 5
26 5 28 -8 36 -30 20z"/>
<path d="M4086 1725 c-3 -9 1 -18 10 -22 19 -7 39 11 30 26 -10 16 -33 13 -40
-4z"/>
<path d="M3990 1611 c0 -11 4 -22 9 -25 12 -8 34 21 26 34 -11 17 -35 11 -35
-9z"/>
<path d="M3927 1594 c-14 -15 -6 -34 14 -34 14 0 19 5 17 17 -3 18 -20 27 -31
17z"/>
<path d="M3815 1480 c-8 -14 3 -30 21 -30 8 0 14 9 14 20 0 21 -24 28 -35 10z"/>
<path d="M1290 1779 c0 -30 64 -139 81 -139 6 0 1 13 -10 29 -12 16 -32 49
-46 73 -14 24 -25 40 -25 37z"/>
<path d="M1595 370 c3 -5 -1 -10 -10 -10 -9 0 -15 -6 -13 -12 6 -16 37 -23 49
-11 13 13 0 43 -18 43 -8 0 -11 -4 -8 -10z"/>
<path d="M2153 1804 c-7 -20 11 -38 31 -31 23 9 20 34 -5 40 -13 3 -22 0 -26
-9z"/>
<path d="M3060 521 c0 -5 6 -12 13 -14 7 -3 5 -6 -5 -6 -27 -1 -21 -21 6 -21
25 0 36 15 29 38 -5 14 -43 17 -43 3z"/>
<path d="M4085 970 c-3 -6 1 -7 9 -4 18 7 21 14 7 14 -6 0 -13 -4 -16 -10z"/>
<path d="M2017 1603 c-11 -17 4 -44 22 -41 9 2 17 12 19 22 3 14 0 17 -11 13
-9 -3 -17 -1 -20 6 -2 8 -5 8 -10 0z"/>
<path d="M2826 323 c-4 -9 -2 -21 3 -26 14 -14 45 -4 49 17 3 14 0 17 -12 13
-9 -4 -16 -2 -16 3 0 16 -17 11 -24 -7z"/>
<path d="M1262 1608 c3 -16 1 -28 -3 -28 -5 0 -9 -10 -9 -22 0 -18 2 -20 9 -9
7 11 10 9 14 -10 3 -13 4 1 1 30 -3 30 -7 57 -11 60 -3 4 -3 -6 -1 -21z"/>
<path d="M1235 1590 c-4 -17 -5 -34 -2 -36 3 -3 8 9 12 26 4 17 5 34 2 36 -3
3 -8 -9 -12 -26z"/>
<path d="M1241 1474 c-12 -20 -19 -39 -16 -42 3 -3 6 -3 8 -1 18 30 37 73 34
76 -3 2 -14 -13 -26 -33z"/>
<path d="M1206 1470 c-13 -24 -14 -29 -2 -24 8 3 17 15 20 27 8 31 2 30 -18
-3z"/>
<path d="M1176 1404 c-3 -9 -1 -23 4 -32 9 -14 10 -12 4 7 -4 16 -3 21 5 17 6
-4 11 -3 11 3 0 18 -18 21 -24 5z"/>
<path d="M1160 1361 c0 -6 4 -13 10 -16 6 -3 7 1 4 9 -7 18 -14 21 -14 7z"/>
<path d="M1135 1280 c-3 -5 -1 -10 4 -10 6 0 11 5 11 10 0 6 -2 10 -4 10 -3 0
-8 -4 -11 -10z"/>
<path d="M1127 1206 c-4 -10 -3 -15 3 -11 6 3 10 1 10 -6 0 -7 3 -10 6 -6 3 3
2 13 -4 22 -8 16 -9 16 -15 1z"/>
<path d="M1121 1173 c1 -4 -2 -19 -8 -32 l-10 -25 -6 25 c-6 20 -9 21 -17 9
-13 -20 -13 -50 1 -50 6 0 8 10 5 23 -4 15 -1 13 8 -7 11 -25 14 -26 19 -10 4
11 11 29 16 41 7 15 7 24 0 28 -5 4 -9 3 -8 -2z"/>
<path d="M1061 1041 c-1 -21 -3 -22 -18 -10 -15 13 -16 11 -9 -14 5 -21 4 -27
-5 -22 -11 8 -29 -11 -29 -30 1 -5 5 -2 11 8 9 15 13 16 27 5 9 -7 14 -8 9 -3
-4 4 0 19 9 32 8 13 13 32 11 41 -3 11 -5 9 -6 -7z"/>
<path d="M1070 1005 c-7 -9 -8 -15 -2 -15 5 0 12 7 16 15 3 8 4 15 2 15 -2 0
-9 -7 -16 -15z"/>
<path d="M3375 1060 c3 -5 10 -10 16 -10 5 0 9 5 9 10 0 6 -7 10 -16 10 -8 0
-12 -4 -9 -10z"/>
<path d="M820 1400 c0 -15 5 -20 18 -18 9 2 17 10 17 18 0 8 -8 16 -17 18 -13
2 -18 -3 -18 -18z"/>
<path d="M945 1320 c-8 -13 3 -30 20 -30 14 0 27 24 18 34 -10 9 -31 7 -38 -4z"/>
<path d="M1895 1089 c-4 -6 -5 -12 -2 -15 2 -3 7 2 10 11 7 17 1 20 -8 4z"/>
<path d="M2136 1133 c-4 -9 0 -23 8 -31 12 -13 18 -13 30 -2 20 16 21 34 1 26
-9 -3 -15 0 -15 9 0 20 -16 19 -24 -2z"/>
<path d="M1020 796 c0 -13 6 -26 13 -29 22 -7 37 5 37 30 0 22 -2 24 -15 13
-10 -9 -15 -9 -15 -1 0 6 -4 11 -10 11 -5 0 -10 -11 -10 -24z"/>
<path d="M3455 970 c-4 -7 -3 -16 3 -22 14 -14 45 -2 40 15 -6 16 -34 21 -43
7z"/>
<path d="M3430 889 c0 -14 5 -19 17 -17 26 5 29 38 4 38 -15 0 -21 -6 -21 -21z"/>
<path d="M3363 874 c-8 -21 13 -42 28 -27 13 13 5 43 -11 43 -6 0 -13 -7 -17
-16z"/>
<path d="M3217 734 c-14 -15 -6 -34 14 -34 14 0 19 5 17 17 -3 18 -20 27 -31
17z"/>
<path d="M3315 730 c-4 -7 -3 -16 3 -22 14 -14 45 -2 40 15 -6 16 -34 21 -43
7z"/>
<path d="M3255 690 c-4 -6 -1 -17 5 -26 15 -18 42 0 33 22 -6 16 -29 19 -38 4z"/>
<path d="M2138 938 c9 -9 15 -9 24 0 9 9 7 12 -12 12 -19 0 -21 -3 -12 -12z"/>
<path d="M3542 729 c2 -7 10 -15 17 -17 8 -3 12 1 9 9 -2 7 -10 15 -17 17 -8
3 -12 -1 -9 -9z"/>
<path d="M3701 616 c-18 -21 11 -41 39 -26 17 9 19 14 9 26 -15 18 -33 18 -48
0z"/>
<path d="M2510 607 c-10 -21 -11 -30 -2 -39 20 -20 36 5 24 39 l-9 28 -13 -28z
m20 -23 c0 -8 -5 -12 -10 -9 -6 4 -8 11 -5 16 9 14 15 11 15 -7z"/>
<path d="M2515 529 c-9 -13 34 -51 48 -42 6 3 1 10 -11 14 -12 5 -22 13 -22
19 0 16 14 12 39 -11 22 -21 37 -23 23 -4 -9 12 -49 35 -61 35 -6 0 -13 -5
-16 -11z"/>
<path d="M2550 436 c0 -4 7 -14 15 -23 8 -8 12 -19 9 -25 -4 -7 -2 -8 4 -4 8
4 16 -3 22 -19 14 -36 12 -43 -5 -21 -11 15 -15 16 -15 5 0 -24 21 -40 36 -28
10 8 10 16 1 37 -12 28 -67 92 -67 78z"/>
<path d="M836 614 c-4 -9 -4 -19 -1 -22 3 -3 5 0 5 7 0 7 5 9 10 6 6 -3 10 -2
10 4 0 18 -18 21 -24 5z"/>
<path d="M1352 468 c2 -13 11 -24 23 -27 17 -3 18 -1 6 13 -11 14 -11 16 3 16
10 0 14 5 11 10 -3 6 -15 10 -26 10 -15 0 -20 -6 -17 -22z"/>
<path d="M886 485 c4 -8 11 -15 16 -15 6 0 5 6 -2 15 -7 8 -14 15 -16 15 -2 0
-1 -7 2 -15z"/>
<path d="M3400 2201 c0 -24 27 -48 40 -35 6 6 4 18 -6 32 -19 27 -34 28 -34 3z"/>
</g>
</svg>
