<svg version="1.2" xmlns="http://www.w3.org/2000/svg" viewBox="0 0 152 124" width="152" height="124"><style>.a{fill:none;stroke:#231f20;stroke-miterlimit:3.864;stroke-width:1.1}.b{fill:#d18080;stroke:#231f20;stroke-miterlimit:3.864;stroke-width:1.6}.c{fill:#fff;stroke:#231f20;stroke-miterlimit:3.864;stroke-width:1.6}.d{fill:#231f20;stroke:#231f20;stroke-miterlimit:3.864;stroke-width:1.1}</style><path fill-rule="evenodd" class="a" d="m82.8 8c-7 1.7-11.6 0-11.6 0m12.5 5.9c-7.1 1.6-11.7 0-11.7 0zm-0.3 3.1c-7.1 1.7-11.7 0-11.7 0zm-0.8 6.8c-6.1 2.7-11.7 0-11.7 0zm0.2 3.8c-6.3 4.8-11.6 0-11.6 0h3.3c0.6 0.2 1.3 0.3 2.1 0.3l-1-0.3zm-7.3 0h-1.1c-1.3-0.5-2.1-1.1-2.1-1.1zm6.5-8.7c0 0-2.1 0.3-5.3 0zm1-6.9c-7.1 1.7-11.7 0-11.7 0zm-0.1 10.2c-7.1 1.7-11.7 0-11.7 0zm-12.7 8.8c0.9 0.2 5.2 2.4 5.6 9.7zm-1.4 1.9c0 0 3.6 1.2 4.8 7.1zm-1.6 1.7c0 0 4 2.2 4.2 6.8zm12.3 5.7c0.2-8.1 5.9-9.3 5.9-9.3zm2.9 1c1.2-6.8 4.7-8.3 4.7-8.3z"/><path fill-rule="evenodd" class="b" d="m101.6 19.6c-2.7-1.9-4.3-4.5-7.8-4.5-3.3 0-5.3 3.4-5.3 6.8v16.9c0 8.4-8 11.7-8 20.1 0 10 13.6 11.8 13.6 21.8 0 4.1-3.1 6-3.1 10v2.6c7.9 0 11.5 5.2 17.9 9.5 4.3 2.9 8.3 1.6 13.2 3.6 3.6 1.4 4.8 5.4 8.8 5.4 2.9 0 3.7-3.7 3.7-6.6 0-10.5-5.5-16.1-5.5-26.6v-13.8c0-7.8-5.4-11-8.5-18.1-5.3-12.4-10.3-19-20.6-27.7 0 0 1.6 0.6 1.6 0.6z"/><path class="c" d="m66.4 22.6c0 4.7-1.2 7.1-1.2 11.8 0 8.4 7.7 11.9 7.7 20.3 0 9.1-11.9 11-11.9 20.1 0 2.7 2 4.1 2 6.8 0 1.5-1.5 2.2-1.5 3.7 0 2.6 2.8 3.4 2.8 6 0 8.3-10.9 7.8-18.9 10-9.9 2.7-20.3 8.7-25.6 7.1-4.9-1.6-3.9-7.6-3.9-12.8 0-10.7 6.9-15.9 6.9-26.6 0-4.3 2.5-7.9 2.5-12.3 0-9.3 7.4-10.2 11.6-18.6 5.8-11.3 17.2-21.7 25-24.5 4.5-1.7 4.5 4.2 4.5 9z"/><path fill-rule="evenodd" class="a" d="m31.9 106.3c-1.9-1.9-4.1-2.7-4.1-5.3 0-4.8 8-4.5 8-9.3 0-2.6-2.4-3.6-2.4-6.2 0-1.3 1.2-1.9 1.2-3.3 0-0.9-0.8-1.2-1.5-1.7m1.1 6c1.5-0.3 2.6 0.4 3.6 1.5zm18.8-15.4c-3.5 0.4-4.7 4.7-8.5 4.7q-0.9 0-1.8-0.1c0.5-2.4 1.2-3.9 3.1-5.5l0.2-0.9zm-20.8 0.2c-3.7-1.8-8.8-2.1-8.8-6.3 0-0.5 0.2-0.8 0.3-1.2l9.5 2.3c-0.5 0.3-1 0.6-1.7 0.6-2.9 0-4.2-2-7.1-2.4l7.6 6.8c1-1.9 2-3 3-4.5l11 2.8c-3 0.9-5.7 1.6-6.7 4.6l3.2 1.8c-3.8-0.6-6.4-2.5-10.3-4.5zm21.5-0.2c2.1 0 3.6 0.4 5.2 1q-0.3 0.2-0.5 0.4l-5.4-1.4q0.4 0 0.7 0zm10.6 2.9l-5.8-1.5 0.4-0.4c1.6 0.6 3.2 1.3 5.4 1.9zm0 0h0.1q0 0-0.1 0zm-10.5-12c-0.2-0.3-0.3-0.6-0.3-1 0-0.8 0.2-1.2 0.5-1.9zm0.8 1.7c0 1-1 1.4-1 2.4 0 1 1 1.4 1 2.4 0 0.8-0.8 1.2-1.2 1.9l0.4-8.4c0.3 0.5 0.8 0.9 0.8 1.7zm-5.5 13.8c-0.2-0.5-0.4-0.9-0.4-1.4 0-1.9 1.2-2.8 2.5-4.1zm0.2 0.7c0 1-0.6 1.6-1.3 2.2l1.1-2.9q0.2 0.3 0.2 0.7zm-1.3 2.2l-1.4 3.5-1.2 0.2v-1.2c0.5-1.2 1.7-1.8 2.6-2.5zm5.5-3.1c0.3-1 1-1.6 1.9-1.9zm1.9-1.8l2.7-2.7c-0.4 0.6-0.6 1.4-0.6 2.4-0.7 0-1.5 0.1-2.1 0.3zm3-3l-0.3 0.3q0.1-0.2 0.3-0.3zm0.5-0.4q0 0 0 0 0-0.1 0-0.1zm-16.4 3.7q0.2 0.1 0.3 0.1 0 0 0 0.1zm3.6-6.4h-0.2q0.1-0.1 0.2-0.1zm-11.1-2.8l-1.9-0.4c1-0.7 1.8-1.7 3.3-1.9-0.5 0.9-1 1.6-1.4 2.3zm-13.9 23.7c-0.5-1.1-2-1.4-2-2.7 0-3-0.1-4.9 1.4-7.5zm0.1 0.3c0.6 1.9 0.3 4 2.2 4.8 1.6 0.7 3.5 1.2 3.5 3 0 3.1-4.4 3.6-4.9 6.4l-0.3-5.3q0.2-0.7 0.2-1.6c0-0.9-0.2-1.7-0.5-2.4l-0.3-5.2q0.1 0.2 0.1 0.3zm0.8 14.2l0.1 2.4c0-0.6-0.2-1.1-0.2-1.8q0-0.3 0.1-0.6zm0.2 3.1l-0.1-0.7q0.1 0.3 0.1 0.7zm-3.6-17.1c0.8 1.7 2.1 3 2.8 4.7l0.3 4c-0.7 1.9-2.5 3.1-2.9 5.5v-1.8c0.2-0.7 0.3-1.3 0.3-2 0-0.9-0.2-1.6-0.4-2.3zm-0.5-2.5c0-0.9 0.3-1.5 0.5-2.4v4.9c-0.3-0.8-0.5-1.6-0.5-2.5zm-0.4 7.9c-0.5-1.2-0.9-2.5-0.9-4.1 0-1.3 0-2.1 0.1-3.4zm1 2.6v4.3q0 0.3-0.2 0.6l-0.8-7.5c0.4 0.8 0.7 1.7 1 2.6zm34.4-0.8c0.5 0.3 0.8 0.7 0.8 1.4 0 0.4-0.3 0.5-0.3 0.9zm-3.4-1.9c1.3-0.3 2.3-1 2.5-2.4l0.9 4.3c-0.9-0.7-2.5-0.8-3.4-1.9zm7.8-7.9c2.5 0.8 4.1 1.1 5.9 2.9zm48-1.4c-0.4-0.3-0.7-0.7-0.7-1.3 0-0.5 0.3-0.8 0.3-1.3zm2.5 1.1c-0.5 1.1-1.5 1.5-2 2.6l-0.5-3.7c0.6 0.5 1.6 0.8 2.5 1.1zm2 14.8c0.5-0.3 0.8-0.7 1.4-0.7q0.4 0 0.6 0.1zm2-0.6l3-0.8c-0.6 0.6-1.2 1.2-2.1 1.2-0.4 0-0.6-0.2-0.9-0.4zm-4-1.1c0.1-1.1 0.5-1.9 0.9-2.7zm0.9-2.8l0.8-2.1c-0.2 0.8-0.5 1.5-0.8 2.1zm-11.1-3.6c1.1-0.9 1.7-1.9 3.1-1.9 1.1 0 1.7 0.4 2.8 0.5zm-4.6-2c0-1.8-0.1-2.7-0.1-4.5 0-1.4 2.1-0.7 3-1.8q0.2-0.4 0.5-0.7zm3.4-7l2.4-4.9c-0.2 2.1-1.2 3.4-2.4 4.9zm0.9-0.8c0.6-0.1 0.9-0.2 1.5-0.2 0.6 0 0.7 0.6 1.2 0.9zm-3.4-5.5c1.3-0.8 2.4-1.1 3.9-0.8zm3.3-8.3c0.1 0.6 0.3 1 0.3 1.6 0 0.8-0.9 1-1.5 1.5zm0 2.4c1.1 0 1.9 0.2 2.7 0.9zm5.6-6.8c-0.3 1-1.2 1.6-2.3 1.7-0.5-2.1-2.6-2.5-2.6-4.5 0-0.5 0.2-0.6 0.2-1.1zm-12 5.7c-0.1-0.5-0.5-0.9-0.5-1.4 0-0.8 1-1.4 1.8-1.4 1.2 0 1.9 0.2 3.1 0.3zm-8.3-7.4c0.2-1.6 1.5-2.5 2.6-3.4zm4-6.2c0-1.2-1.2-1.8-1.2-3.1 0-1 1.3-1 2.2-1 0.8 0 1.4 0.3 2.1 0.5l-3.3 4.5q0.1-0.4 0.2-0.9zm-0.2 0.9c-0.2 0.7-0.7 1.3-1.3 1.8zm-2.6-2.6q0 0.3 0 0.6c0 1.9-1.1 3.1-2.9 4zm-0.7-3.8c0-2.1 2.9-1.6 4.7-2.6l-4 6.4c-0.1-1.4-0.7-2.3-0.7-3.8zm2.8-7.9c1.3-1.1 1.9-2.5 3.6-2.5 1.9 0 3.4 1.2 4 3zm7.8-13.3c-2.8-0.4-4.9-2.1-5.2-4.9zm-40.3-5.1c0.1 0.9 0.3 1.4 0.3 2.3 0 0.8-0.7 1.1-0.7 1.9 0 0.6 0.6 0.7 0.9 1.2-2-0.5-3-2-5.1-2zm11.4 3.5c-2 2-3.3 3.6-6 3.6-1.8 0-2.9-0.6-4.5-1.4zm-4.1 3.6q0 0.3 0 0.4zm-0.1 0.5l-0.2 0.7q0-0.1 0-0.1c0-0.3 0.1-0.5 0.2-0.6zm0.5 2.3c0 0.8-0.6 1.1-1.3 1.4l0.6-3c0.1 0.6 0.7 0.9 0.7 1.6zm-1.3 1.4l-1.3 6.3-1.3 3v-2.5c0-2.3 0-3.9 1.3-5.8 0.3-0.5 0.8-0.7 1.3-1zm-1.1-0.2c-0.5-1-1.5-1.4-1.5-2.5 0-0.6 0.3-0.9 0.4-1.5zm5.3-2.8q0.1-0.1 0.3-0.2zm-1.9 1.1l1.9-1.1c-0.6 0.4-1.1 0.7-1.9 1.1zm-0.4 5.6c0.1 0.8 0.4 1.3 0.4 2.2 0 1.3-1.6 1.7-2.3 2.6zm-1.8 4.8l-0.3 0.8q0-0.5 0.3-0.8z"/><path fill-rule="evenodd" class="a" d="m69 50.2c-0.9-1.7-2.7-1.6-3.9-3.2q-0.4-0.4-0.6-0.9h0.1-0.1c-0.6-1.2-0.9-2.5-2.3-2.8m2.3 2.8q0 0 0 0l-0.9 0.5-1.9-1zm-1.8 12.4c1.1-2-1.2-3.6 2.4-5.1 0 1.7 0.9 2.4 0.9 4.1q0 0.2 0 0.2 0 0 0-0.2c0-1.6-0.8-2.3-0.9-3.9l0.2 4.9zm2.6 0q0.1-0.1 0.1-0.1 0 0-0.1 0.1zm57.2 40.1q-0.4 1.7-1.2 3l-0.8 1q0.1 0 0.2 0c-0.9 1.1-2.2 2-3.9 2.5zm0.4-2q0.7 0 1.4-0.1l-1.8 2.1q0.2-0.9 0.4-2zm1.4-0.1l5.9-6.7c0.2 2.7-1.5 5-3.9 6.1q0-0.1 0-0.1l-0.2 0.2q-0.8 0.3-1.8 0.5zm5.5-12.1c-2.5 0-4-1.9-5-4.1 1.8 0.1 2.7 0.2 4.5 0zm-7.4 9.1c-0.4-0.7-0.7-1.4-0.7-2.3zm0.8 2.9l-0.8-2.9c0.5 0.9 0.9 1.7 0.8 2.9zm-2.4 6.2q0.3-0.4 0.6-0.9l4.8-5.7q0.1 0 0.2-0.1c0.3 2.2 1 3.4 1 5.7v3.3c0 1.4-1.8 1.4-2.7 2.4-0.2-0.4-0.8-0.4-0.8-0.9 0-0.5 0.4-0.8 0.5-1.2v-2.7c-1.4-0.1-2.2 0-3.6 0.1zm7.8 7.6c0-2.9 1-4.9 2.1-7q0.1 0.3 0.2 0.5zm3.6-10.1l-0.4 1.1v-0.3q0.2-0.4 0.4-0.8zm0 0l1.2-3.4c-0.3 1.3-0.7 2.4-1.2 3.4zm-0.4 0.8q-0.5 1.2-1.1 2.3c-0.8-1.7-1.6-3.3-1.6-5.6 0-2.1 1.6-3 2.4-4.9zm-0.9 2.8l0.9-2.6 0.4 10.5-1.2 0.5c0.6-1.4 1-2.4 1-4 0-1.7-0.5-3.1-1.1-4.4zm-104.5 3.1c-1-1.1-2.5-1.5-2.5-3 0-0.6 0.3-1.1 0.5-1.7zm16.6-71.7c0.7 0.7 1 1.4 1.1 2.3zm1.2 2.2l3.6 7c-1.6-0.5-3.6-1.2-3.6-3v-3.4q0-0.3 0-0.6zm21.2 21.2q0 0 0 0zm-0.2-4.9v-0.2q0 0.1 0 0.2zm0.9 4.1c-0.2 0.3-0.5 0.4-0.6 0.7 0.1-0.3 0.5-0.4 0.6-0.7z"/><path fill-rule="evenodd" class="d" d="m126.8 114.7c0 0-18.3-13-48.7-14.1-30.4-1.1-48.8 15.3-48.8 15.3 0 0 17.1-18.1 47.5-17.1 30.4 1.1 50.7 16 50.7 16 0 0-0.7-0.1-0.7-0.1z"/><path fill-rule="evenodd" class="d" d="m138.6 112.3c0 0 6-13.3-1.5-48.1-7.6-35.2-23.9-50.3-23.9-50.3 0 0 17.6 13.5 25.2 48.7 7.5 34.8 0 50.9 0 50.9 0 0 0.2-1.2 0.2-1.2z"/><path fill-rule="evenodd" class="d" d="m12.8 111.2c0 0-6-13.4 1.5-48.1 7.6-35.3 23.9-50.3 23.9-50.3 0 0-17.6 13.4-25.2 48.7-7.5 34.7 0 50.8 0 50.8 0 0-0.2-1.1-0.2-1.1z"/></svg>