<svg version="1.2" xmlns="http://www.w3.org/2000/svg" viewBox="0 0 514 931" width="514" height="931">
	<title>man-opens-a-book-ai</title>
	<style>
		.s0 { fill: #cc003a } 
		.s1 { fill: #fff6e3 } 
		.s2 { fill: #ffffff } 
		.s3 { fill: #f0c89e } 
		.s4 { fill: #ff6633 } 
		.s5 { fill: #3d1f00 } 
		.s6 { fill: #333333 } 
	</style>
	<g id="publicdomainvectors.org">
		<g id="&lt;desc&gt;">
		</g>
		<g id="&lt;Group&gt;">
			<g id="&lt;Group&gt;">
				<path id="&lt;Path&gt;" class="s0" d="m308 96.2l148-64.6c8.1-3.5 19.8-3.4 27.5 0.4 6.8 3.3 9.1 8.5 5.5 13.1l-62.6 353.6c-0.5 2.7-3 5.1-6.8 6.8-3.9 1.7-8.9 2.4-13.9 2.1l-20.6-5.2-127-54.1-1.4-208.2z"/>
				<path id="&lt;Path&gt;" class="s1" d="m418.3 39.8h39.6l-60 352.8h-39.3l-3.1-232.2z"/>
				<path id="&lt;Path&gt;" class="s0" d="m205.5 96.2l-148-64.6c-8.1-3.5-19.8-3.4-27.5 0.4-6.9 3.3-9.1 8.5-5.5 13.1l62.6 353.6c0.5 2.7 2.9 5.1 6.8 6.8 3.9 1.7 8.9 2.4 13.9 2.1l20.6-5.2 127-54.1 1.3-208.2z"/>
				<path id="&lt;Path&gt;" class="s1" d="m95.2 39.8h-39.6l60 352.8h39.3l3.1-232.2z"/>
				<path id="&lt;Path&gt;" class="s2" d="m146.8 62.7c-22.5-3.3-41.3-11.7-51.6-22.9l59.7 352.8 9.6-4c13.2-5.6 27.5-10.3 42.7-14 22.6-5.6 40.3-15.7 49.5-28 9.3 12.3 27 22.4 49.6 28 15.2 3.7 29.5 8.4 42.6 14l9.7 4 59.7-352.8c-10.3 11.2-29.1 19.6-51.6 22.9-67.7 9.9-94.6 29.6-110 55.8-15.3-26.2-42.2-45.9-109.9-55.8z"/>
				<path id="&lt;Compound Path&gt;" fill-rule="evenodd" class="s3" d="m250.4 132.8c-21.2-28.1-55.3-33.8-86.7-39.1-15-2.5-29.5-4.9-42-9.4l-1.2-7.1c12.8 6 29.1 8.7 46.1 11.6 29.5 4.9 61.1 10.2 83.8 31.9zm-82.9-13.2c-14.6-2-28.6-3.9-41-7.7l-1.1-6.7c12.6 4.9 28.2 7.1 44.5 9.3 28.4 3.9 58.7 8.1 80.5 26.7v11.1c-20.2-24.1-52.7-28.6-82.9-32.7zm82.9 52.3c-19.1-20.1-50-23.3-79.1-26.4-14.1-1.5-27.8-2.9-39.9-6.1l-1.1-6.3c12.3 4.1 27.3 5.6 42.9 7.3 27.4 2.9 56.3 5.9 77.2 21.4zm-75.1-0.4c-13.7-1-27.1-2-39.1-4.4l-1-6c12 3.1 26.5 4.1 41.4 5.2 26.3 1.9 53.8 3.8 73.8 16.3v9c-18.1-16.1-47.2-18.2-75.1-20.1zm75.1 39.9c-16.9-12.2-44.4-13.1-70.9-14-13.4-0.5-26.5-0.9-38.4-2.7l-1-5.7c11.8 2.2 25.8 2.7 40 3.2 25.2 0.8 51.2 1.7 70.3 11.3zm0 19.9c-15.8-8.3-41.3-8.1-66.4-8-13.2 0.1-26.2 0.1-38.1-0.9l-0.9-5.4c11.6 1.2 25.2 1.2 38.9 1.1 24.1-0.1 48.5-0.3 66.5 6.4zm0 20.2c-14.5-4.6-37.9-3.5-61.2-2.4-13.2 0.7-26.4 1.3-38.4 1l-0.9-5.3c11.7 0.4 25.1-0.2 38.5-0.9 22.6-1.1 45.2-2.1 62 1.7zm0 20.6c-13.2-1.3-33.3 0.6-54.1 2.6-13.8 1.3-27.8 2.7-40.7 3.1l-0.9-5.2c12.4-0.4 26.3-1.7 40-3 20.6-2 40.7-3.9 55.7-2.8zm0 21.1c-9.4 1.1-21.6 2.9-34.9 4.9-17.8 2.7-37.4 5.6-55 7.5l-0.9-5.2c17-1.9 36-4.7 53.3-7.3 14.3-2.2 27.5-4.1 37.5-5.2zm0 21.6c-21.7 6.8-55.9 13.2-85 18.6l-0.9-5.4c30.7-5.6 66.5-12.5 85.9-19.3zm-62.1 41.8c-6.1 1.5-12.2 3-18 4.6l-1-5.6q7.4-1.9 14.8-3.7c25.7-6.4 51.7-12.9 66.3-22.5v7.6c-16.2 8.1-39.3 13.9-62.1 19.6z"/>
				<path id="&lt;Compound Path&gt;" fill-rule="evenodd" class="s3" d="m263.1 120.7c22.7-21.7 54.3-27 83.8-31.9 17-2.9 33.3-5.6 46.1-11.6l-1.2 7.1c-12.6 4.5-27 6.9-42 9.4-31.4 5.3-65.5 11-86.7 39.1zm0 31.7v-11.1c21.8-18.6 52.1-22.8 80.5-26.7 16.3-2.2 31.9-4.3 44.5-9.3l-1.2 6.7c-12.3 3.8-26.4 5.7-40.9 7.7-30.3 4.2-62.7 8.6-82.9 32.7zm0 9.5c20.9-15.5 49.8-18.5 77.2-21.4 15.5-1.7 30.6-3.2 42.9-7.3l-1.1 6.3c-12.1 3.2-25.9 4.6-40 6.1-29 3.1-59.9 6.3-79 26.4zm0 29.7v-9c20-12.5 47.5-14.4 73.8-16.3 14.9-1 29.4-2.1 41.4-5.1l-1 5.9c-12 2.5-25.4 3.4-39.2 4.4-27.8 2-57 4-75 20.1zm0 11.9c19-9.6 45-10.4 70.2-11.3 14.3-0.5 28.3-1 40.1-3.1l-1 5.6c-11.9 1.8-25 2.2-38.4 2.7-26.5 0.9-54 1.8-70.9 14zm0 21c18-6.7 42.4-6.6 66.4-6.5 13.8 0.1 27.3 0.2 39-1.1l-0.9 5.4c-11.9 1.1-25 1-38.1 0.9-25.1-0.1-50.7-0.2-66.4 8zm0 21.1c16.8-3.9 39.4-2.8 62-1.7 13.4 0.7 26.8 1.3 38.5 0.9l-0.9 5.2c-12 0.4-25.2-0.2-38.4-0.9-23.4-1.1-46.7-2.2-61.2 2.3zm0 21.1c14.9-1.1 35.1 0.8 55.7 2.8 13.7 1.3 27.6 2.6 39.9 3.1l-0.9 5.2c-12.8-0.5-26.9-1.8-40.7-3.1-20.7-2-40.8-3.9-54-2.7zm0 21c10 1.1 23.1 3.1 37.4 5.2 17.4 2.6 36.4 5.5 53.4 7.4l-0.9 5.2c-17.6-1.9-37.2-4.9-55-7.5-13.3-2-25.5-3.8-34.9-5zm0 20.9c19.4 6.8 55.2 13.7 85.9 19.4l-0.9 5.3c-29.2-5.3-63.3-11.8-85-18.6zm0 28.4v-7.6c14.6 9.5 40.6 16 66.2 22.4q7.5 1.9 14.9 3.8l-1 5.5c-5.8-1.5-11.9-3-18-4.5-22.8-5.8-45.9-11.5-62.1-19.6z"/>
				<path id="&lt;Compound Path&gt;" fill-rule="evenodd" class="s4" d="m283.2 323.9c-2.8 7.9-1.5 15.5 3 17.1 4.4 1.6 10.3-3.4 13.1-11.3 2.9-7.8 1.5-15.5-3-17.1-4.4-1.6-10.3 3.5-13.1 11.3zm-66-11.3c-4.5 1.6-5.8 9.3-3 17.1 2.8 7.9 8.7 12.9 13.2 11.3 4.4-1.6 5.8-9.2 3-17.1-2.8-7.8-8.7-12.9-13.2-11.3z"/>
				<path id="&lt;Path&gt;" class="s4" d="m223.6 292.2h66.4v53.9c0 18.3-15 33.2-33.2 33.2-18.3 0-33.2-14.9-33.2-33.2z"/>
				<path id="&lt;Path&gt;" class="s4" d="m237 314.6h39.9v73.1c0 11-9 20-20 20-11 0-19.9-9-19.9-20z"/>
				<path id="&lt;Path&gt;" class="s5" d="m188.5 564.1l-11.7 49.7c-2.9 12.4-2.6 25.3 1 37.5l-6.1 100.4q-0.9 15.7-0.5 31.4c0.9 32.3-1.3 64.5-6.6 96.3-1.4 8.7 3.2 17.2 11.2 20.8 15.6 7 34 3.3 45.8-9.1 8.7-9.3 14.4-20.9 16.3-33.5 3.8-26 3.8-52.5 0-78.5v-1.6c0-36.9 6.3-73.6 18.8-108.4 12.5 34.8 18.9 71.5 18.9 108.4v1.6c-3.9 26-3.9 52.5 0 78.5 1.9 12.6 7.6 24.2 16.3 33.5 11.8 12.4 30.1 16.1 45.8 9.1 8-3.6 12.6-12.1 11.2-20.8-5.3-31.8-7.5-64-6.6-96.3q0.4-15.7-0.5-31.4l-6.1-100.4c3.5-12.2 3.9-25.1 1-37.5l-11.7-49.7-68.3-33.5z"/>
				<path id="&lt;Path&gt;" class="s0" d="m281.2 381.5l20-4.1c18.3-3.7 36.7 5.7 44.4 22.7 7.7 17 2.6 37.1-12.3 48.3-2 25.7-2.2 36.8-10.8 61l10.5 58.2c4.2 22.9-37.3 35.4-65.8 33.7l-10.5-30.6-10.4 30.6c-28.6 1.7-70-10.8-65.8-33.7l10.5-58.2c-8.6-24.2-8.8-35.3-10.9-61-14.8-11.2-19.9-31.3-12.2-48.3 7.7-17 26.1-26.4 44.4-22.7l20 4.1 3.5-4.4h20.9 21z"/>
				<g id="&lt;Group&gt;">
					<g id="&lt;Group&gt;">
						<path id="&lt;Path&gt;" class="s4" d="m367 381.7l51.5-49.9c3.8-3.6 9.1-4.3 13.4-1.7 4.4 2.6 7 8 6.6 13.7l-2.3 37.9c-1.2 19.3-10.7 36.7-25.3 46.3-14.6 9.6-32.3 10.1-47.3 1.4z"/>
						<path id="&lt;Path&gt;" class="s0" d="m290.7 396.4l72.9-20.9c18.5-5.3 38.1 5.6 43.4 24.2 5.3 18.5-5.6 38.1-24.1 43.4l-72.9 20.8c-18.6 5.3-38.2-5.5-43.5-24.1-5.3-18.6 5.6-38.1 24.2-43.4z"/>
					</g>
					<g id="&lt;Group&gt;">
						<path id="&lt;Path&gt;" class="s4" d="m146.4 381.7l-51.4-49.9c-3.8-3.6-9.1-4.3-13.4-1.7-4.4 2.6-7 8-6.6 13.7l2.3 37.9c1.2 19.3 10.7 36.7 25.3 46.3 14.5 9.6 32.3 10.1 47.3 1.4z"/>
						<path id="&lt;Path&gt;" class="s0" d="m222.8 396.4l-72.9-20.9c-18.5-5.3-38.1 5.6-43.4 24.2-5.3 18.5 5.5 38.1 24.1 43.4l72.9 20.8c18.6 5.3 38.1-5.5 43.4-24.1 5.4-18.6-5.5-38.1-24.1-43.4z"/>
					</g>
				</g>
				<path id="&lt;Path&gt;" class="s6" d="m292.1 346.3l7.2-35c4.3-14 0.2-29.2-10.4-39.3l-4.6-6.3c-4.7-6.4-12.5-9.7-20.4-8.7-15.9 2.1-31.3 6.8-45.6 14.1-4.3 2.2-7.6 6.1-9 10.8-1.3 4.6-0.7 9.7 1.7 13.9 3.7 15.7 5.7 36.4 9.7 50.1 3.2 11.4 13.2 18.9 25 18.9h21.4c11.7 0 22.6-7.1 25-18.5z"/>
				<path id="&lt;Path&gt;" class="s4" d="m415.3 343.8l-3.1-5.9c-3-5.9-4.2-12.6-3.3-19.1 0.7-5.5 0.4-11.1-0.9-16.4-0.6-2.4 0.4-4.9 2.4-6.3 2-1.4 4.6-1.3 6.7 0.1 4.9 3.4 3 8.8 4.2 14.7 0.3 1.7 1.4 3.1 2.9 3.8 1.5 0.8 3.3 0.8 4.8 0 5.2-2.7 13.9-7.8 14.6-13.6l2.5-16.7 7.1 13.1c2.8 5.2 4 11.2 3.3 17.1-0.3 3-1.2 6-2.4 8.8l-24.4 41.4z"/>
				<path id="&lt;Path&gt;" class="s4" d="m98.2 343.8l3.1-5.9c3-5.9 4.2-12.6 3.3-19.1-0.7-5.5-0.4-11.1 0.9-16.4 0.6-2.4-0.4-4.9-2.4-6.3-2-1.4-4.7-1.3-6.7 0.1-4.9 3.4-3 8.8-4.2 14.7-0.3 1.7-1.4 3.1-2.9 3.8-1.5 0.8-3.3 0.8-4.8 0-5.2-2.7-14-7.8-14.6-13.6l-2.5-16.7-7.1 13.1c-2.8 5.2-4 11.2-3.3 17.1 0.3 3 1.1 6 2.4 8.8l24.4 41.4z"/>
			</g>
			<path id="&lt;Compound Path&gt;" fill-rule="evenodd" class="s5" d="m221.3 880.2v15.1c0.1 3.9-1.6 7.7-4.5 10.3-3 2.6-7.1 3.7-11 3-8.1-1.5-16.5-1.4-24.7 0.3-10.1 2.1-20.7 0.1-29.4-5.4-2.3-1.5-4.3-3.4-5.8-5.6-1.9-2.7-2.4-6.2-1.4-9.4 1.1-3.2 3.6-5.7 6.7-6.8 7.7-2.6 14.3-7.5 18.9-14.2l5.5-7.9zm116.6-20.7l5.5 8c4.6 6.6 11.3 11.6 18.9 14.2 3.2 1 5.6 3.5 6.7 6.7 1 3.2 0.5 6.7-1.4 9.4-1.5 2.2-3.5 4.1-5.8 5.6-8.7 5.6-19.3 7.5-29.4 5.4-8.2-1.7-16.5-1.8-24.7-0.3-3.9 0.7-7.9-0.4-10.9-3-3-2.6-4.7-6.4-4.6-10.3v-15z"/>
		</g>
	</g>
</svg>