<?xml version="1.0" encoding="UTF-8"?>
<!DOCTYPE svg PUBLIC "-//W3C//DTD SVG 1.1//EN" "http://www.w3.org/Graphics/SVG/1.1/DTD/svg11.dtd">
<svg version="1.1" xmlns="http://www.w3.org/2000/svg" xmlns:xlink="http://www.w3.org/1999/xlink" x="0" y="0" width="1211.714" height="1644.988" viewBox="0, 0, 1211.714, 1644.988">
  <g id="Layer_1">
    <path d="M1165.746,1456.508 L93.338,1441.596 L54.37,911.884 L1177.362,911.884 L1165.746,1456.508" fill="#C3A877" id="path833"/>
    <path d="M93.338,1441.596 L54.37,911.884 L42.818,965.764 L81.802,1476.236 L91.898,1448.804" fill="#D9BC87" id="path835"/>
    <path d="M1165.746,1456.508 L93.338,1441.596 L81.802,1476.236 L1165.746,1484.404 L1165.746,1456.508" fill="#AF9270" id="path837"/>
    <path d="M67.49,1355.452 C76.346,1361.66 88.586,1363.692 91.898,1362.828 C110.89,1357.908 363.122,1305.172 363.122,1305.172 L342.706,1240.06 L53.658,1285.62 C53.658,1285.62 51.554,1337.78 67.49,1355.452" fill="#6CB692" id="path839"/>
    <path d="M344.434,1260.396 L349.722,1296.492 L89.546,1351.78 C69.434,1350.412 59.13,1341.94 61.138,1312.556 C61.138,1312.556 327.826,1253.036 344.434,1260.396" fill="#E7F0F3" id="path841"/>
    <path d="M293.034,1011.348 L33.586,1055.812 C16.362,1057.732 -1.606,1070.5 0.114,1090.828 C1.842,1111.14 58.93,1345.036 58.93,1345.036 C60.506,1349.348 63.69,1352.796 67.49,1355.452 C64.202,1336.068 71.546,1319.476 96.714,1314.988 C119.402,1310.924 331.522,1267.284 355.258,1261.124 L293.034,1011.348" fill="#6EAE8E" id="path843"/>
    <path d="M93.994,1315.532 C71.018,1320.724 64.322,1336.788 67.49,1355.452 C63.69,1352.796 60.506,1349.348 58.93,1345.036 C58.93,1345.036 1.842,1111.14 0.114,1090.828 C-1.606,1070.5 16.362,1057.732 33.586,1055.812 L93.994,1315.532" fill="#99B68B" id="path845"/>
    <path d="M75.482,1330.092 L345.786,1270.844 M73.746,1340.348 L346.034,1282.252 M82.682,1346.132 L346.514,1290.58" fill-opacity="0" stroke="#D4DEE6" stroke-width="8" id="path847"/>
    <path d="M519.115,1042.308 L367.994,1272.396 L761.874,1308.06 L817.394,1051.764 L519.115,1042.308" fill="#FFFFFE" id="path849"/>
    <path d="M761.874,1308.06 L768.242,1339.596 C768.242,1339.596 767.29,1345.772 742.77,1345.684 C718.258,1345.596 684.954,1341.012 684.954,1341.012 L679.53,1303.26 L761.874,1308.06" fill="#D36D54" id="path851"/>
    <path d="M768.242,1339.596 L822.602,1084.588 L817.394,1051.764 L761.874,1308.06 L768.242,1339.596" fill="#E0E4E5" id="path853"/>
    <path d="M593.211,1247.988 L741.635,1266.028 M624.898,1224.708 L739.122,1240.772 M653.211,1202.036 L740.539,1214.012 M486.234,1171.06 L580.05,1178.724 M507.954,1150.028 L576.258,1154.868" fill-opacity="0" stroke="#6E5E4E" stroke-width="8" id="path855"/>
    <path d="M650.034,1162.124 L759.762,1167.724 M757.434,1146.468 L677.978,1131.468" fill-opacity="0" stroke="#6E5E4E" stroke-width="8" stroke-linejoin="bevel" id="path857"/>
    <path d="M761.714,1123.58 L635.754,1113.396 M767.65,1107.284 L691.218,1100.14 M774.826,1089.596 L699.554,1078.396" fill-opacity="0" stroke="#6E5E4E" stroke-width="8" id="path859"/>
    <path d="M367.994,1272.396 L761.874,1308.06 C736.61,1344.732 682.282,1521.316 717.97,1629.972 C689.002,1639.892 388.778,1641.548 341.138,1644.988 C320.794,1576.06 303.498,1335.404 367.994,1272.396" fill="#F2EDC2" id="path861"/>
    <path d="M212.666,1214.172 C200.266,1220.38 9.562,1197.116 9.562,1197.116 L62.794,1091.172 L217.834,1103.58 L224.042,1107.708 L232.826,1125.796 L212.666,1214.172" fill="#FFFFFE" id="path863"/>
    <path d="M40.578,1108.748 L9.562,1197.116 C9.562,1197.116 200.266,1220.38 212.666,1214.172 C212.666,1214.172 226.634,1125.796 226.634,1113.396 C226.634,1100.996 49.874,1083.94 49.874,1083.94 z" fill-opacity="0" stroke="#6E5E4E" stroke-width="8" id="path865"/>
    <path d="M9.562,1197.116 L44.058,1096.564 L61.066,1101.652 L35.426,1199.516 L9.562,1197.116" fill="#CCC5BE" id="path867"/>
    <path d="M40.578,1108.748 L9.562,1197.116" fill-opacity="0" stroke="#6E5E4E" stroke-width="8" id="path869"/>
    <path d="M212.666,1214.172 C200.266,1220.38 9.562,1197.116 9.562,1197.116 L12.666,1226.58 L220.234,1247.468 L212.666,1214.172" fill="#FFFFFE" id="path871"/>
    <path d="M212.666,1214.172 C200.266,1220.38 9.562,1197.116 9.562,1197.116 L12.666,1226.58 L220.234,1247.468 z" fill-opacity="0" stroke="#6E5E4E" stroke-width="8" stroke-linejoin="bevel" id="path873"/>
    <path d="M226.634,1113.396 C226.634,1125.796 212.666,1214.172 212.666,1214.172 L220.234,1247.468 C220.234,1247.468 240.802,1143.38 240.802,1133.044 L226.634,1113.396" fill="#E0DAD3" id="path875"/>
    <path d="M226.634,1113.396 C226.634,1125.796 212.666,1214.172 212.666,1214.172 L220.234,1247.468 C220.234,1247.468 240.802,1143.38 240.802,1133.044 z" fill-opacity="0" stroke="#6E5E4E" stroke-width="8" id="path877"/>
    <path d="M62.026,1102.02 L48.73,1152.252 L78.274,1155.204 L88.618,1103.484 L62.026,1102.02" fill="#3E7DB4" id="path879"/>
    <path d="M62.026,1102.02 L48.73,1152.252 L78.274,1155.204 L88.618,1103.484 z" fill-opacity="0" stroke="#6E5E4E" stroke-width="8" stroke-linejoin="bevel" id="path881"/>
    <path d="M78.274,1155.204 L48.73,1152.252 C47.25,1162.588 45.762,1187.716 50.202,1192.14 C54.634,1196.58 79.746,1164.06 78.274,1155.204" fill="#F8EAC1" id="path883"/>
    <path d="M78.274,1155.204 L48.73,1152.252 C47.25,1162.588 45.762,1187.716 50.202,1192.14 C54.634,1196.58 79.746,1164.06 78.274,1155.204 z" fill-opacity="0" stroke="#6E5E4E" stroke-width="8" stroke-linejoin="bevel" id="path885"/>
    <path d="M64.362,1181.324 C58.322,1188.708 52.186,1194.124 50.202,1192.14 C48.554,1190.484 44.642,1185.236 47.394,1180.404 C51.682,1172.932 62.258,1173.452 64.362,1181.324" fill="#3E7DB4" id="path887"/>
    <path d="M64.362,1181.324 C58.322,1188.708 52.186,1194.124 50.202,1192.14 C48.554,1190.484 44.642,1185.236 47.394,1180.404 C51.682,1172.932 62.258,1173.452 64.362,1181.324 z" fill-opacity="0" stroke="#6E5E4E" stroke-width="8" stroke-linejoin="bevel" id="path889"/>
    <path d="M165.442,1066.548 L134.418,1152.252 C141.81,1144.86 166.778,1159.172 166.922,1159.628 L197.954,1078.372 C199.434,1070.988 177.274,1063.596 165.442,1066.548" fill="#15A748" id="path891"/>
    <path d="M165.442,1066.548 L134.418,1152.252 C141.81,1144.86 166.778,1159.172 166.922,1159.628 L197.954,1078.372 C199.434,1070.988 177.274,1063.596 165.442,1066.548 z" fill-opacity="0" stroke="#6E5E4E" stroke-width="8" stroke-linejoin="bevel" id="path893"/>
    <path d="M166.922,1159.628 C166.778,1159.172 141.81,1144.86 134.418,1152.252 C129.986,1164.06 125.554,1199.532 134.418,1196.58 C143.298,1193.628 162.498,1169.972 166.922,1159.628" fill="#F8EAC1" id="path895"/>
    <path d="M166.922,1159.628 C166.778,1159.172 141.81,1144.86 134.418,1152.252 C129.986,1164.06 125.554,1199.532 134.418,1196.58 C143.298,1193.628 162.498,1169.972 166.922,1159.628 z" fill-opacity="0" stroke="#6E5E4E" stroke-width="8" stroke-linejoin="bevel" id="path897"/>
    <path d="M148.978,1184.676 C143.538,1190.58 138.09,1195.356 134.418,1196.58 C129.802,1198.108 128.794,1189.228 129.522,1178.692 C132.946,1172.932 148.738,1178.676 148.978,1184.676" fill="#15A748" id="path899"/>
    <path d="M148.978,1184.676 C143.538,1190.58 138.09,1195.356 134.418,1196.58 C129.802,1198.108 128.794,1189.228 129.522,1178.692 C132.946,1172.932 148.738,1178.676 148.978,1184.676 z" fill-opacity="0" stroke="#6E5E4E" stroke-width="8" stroke-linejoin="bevel" id="path901"/>
    <path d="M189.082,1107.924 L181.698,1143.38 C189.082,1144.86 212.722,1149.292 212.722,1149.292 L221.602,1106.444 C221.602,1106.444 193.522,1100.532 189.082,1107.924" fill="#FFE511" id="path903"/>
    <path d="M189.082,1107.924 L181.698,1143.38 C189.082,1144.86 212.722,1149.292 212.722,1149.292 L221.602,1106.444 C221.602,1106.444 193.522,1100.532 189.082,1107.924 z" fill-opacity="0" stroke="#6E5E4E" stroke-width="8" stroke-linejoin="bevel" id="path905"/>
    <path d="M212.722,1149.292 C212.722,1149.292 189.082,1144.86 181.698,1143.38 C178.746,1149.292 177.274,1189.188 184.65,1193.628 C193.522,1193.628 211.25,1161.108 212.722,1149.292" fill="#F8EAC1" id="path907"/>
    <path d="M212.722,1149.292 C212.722,1149.292 189.082,1144.86 181.698,1143.38 C178.746,1149.292 177.274,1189.188 184.65,1193.628 C193.522,1193.628 211.25,1161.108 212.722,1149.292 z" fill-opacity="0" stroke="#6E5E4E" stroke-width="8" stroke-linejoin="bevel" id="path909"/>
    <path d="M197.77,1181.676 C193.058,1188.548 188.162,1193.628 184.65,1193.628 C182.274,1192.188 180.826,1187.092 180.034,1180.636 C183.17,1172.932 197.594,1177.108 197.77,1181.676" fill="#FFE511" id="path911"/>
    <path d="M197.77,1181.676 C193.058,1188.548 188.162,1193.628 184.65,1193.628 C182.274,1192.188 180.826,1187.092 180.034,1180.636 C183.17,1172.932 197.594,1177.108 197.77,1181.676 z" fill-opacity="0" stroke="#6E5E4E" stroke-width="8" stroke-linejoin="bevel" id="path913"/>
    <path d="M51.074,1070.092 L34.37,1111.844 L230.21,1134.5 L235.93,1096.34 L51.074,1070.092" fill="#EFE8AD" id="path915"/>
    <path d="M235.93,1096.34 L230.21,1134.5 L240.05,1164.956 L247.626,1117.884 L235.93,1096.34" fill="#D7D383" id="path917"/>
    <path d="M106.962,937.964 L43.674,1076.188 L235.93,1104.092 L257.354,953.468 L106.962,937.964" fill="#EFA68E" id="path919"/>
    <path d="M257.354,953.468 L235.93,1104.092 L246.778,1138.204 L268.41,974.972 L257.354,953.468" fill="#CFB2A9" id="path921"/>
    <path d="M128.794,1125.94 L217.442,944.204 C218.93,930.908 198.242,925.004 184.946,932.396 C180.514,942.732 96.298,1117.076 96.298,1117.076 C103.69,1111.164 127.33,1117.084 128.794,1125.94" fill="#9D9081" id="path923"/>
    <path d="M122.602,1119.732 L211.25,938.004 C212.722,924.708 192.042,918.796 178.746,926.18 C174.314,936.532 90.09,1110.876 90.09,1110.876 C97.482,1104.972 121.114,1110.884 122.602,1119.732" fill="#E16049" id="path925"/>
    <path d="M122.602,1119.732 L211.25,938.004 C212.722,924.708 192.042,918.796 178.746,926.18 C174.314,936.532 90.09,1110.876 90.09,1110.876 C97.482,1104.972 121.114,1110.884 122.602,1119.732 z" fill-opacity="0" stroke="#6E5E4E" stroke-width="8" id="path927"/>
    <path d="M122.602,1119.732 C121.114,1110.884 97.482,1104.972 90.09,1110.876 C87.138,1116.78 78.274,1143.396 87.138,1155.204 C96.01,1158.156 119.642,1130.084 122.602,1119.732" fill="#F8EAC1" id="path929"/>
    <path d="M122.602,1119.732 C121.114,1110.884 97.482,1104.972 90.09,1110.876 C87.138,1116.78 78.274,1143.396 87.138,1155.204 C96.01,1158.156 119.642,1130.084 122.602,1119.732 z" fill-opacity="0" stroke="#6E5E4E" stroke-width="8" stroke-linejoin="bevel" id="path931"/>
    <path d="M83.338,1138.828 C83.098,1145.084 84.026,1151.06 87.138,1155.204 C91.57,1156.684 99.706,1150.404 107.082,1142.46 C104.866,1135.996 89.874,1131.316 83.338,1138.828" fill="#E16049" id="path933"/>
    <path d="M83.338,1138.828 C83.098,1145.084 84.026,1151.06 87.138,1155.204 C91.57,1156.684 99.706,1150.404 107.082,1142.46 C104.866,1135.996 89.874,1131.316 83.338,1138.828 z" fill-opacity="0" stroke="#6E5E4E" stroke-width="8" stroke-linejoin="bevel" id="path935"/>
    <path d="M206.41,1334.716 C206.41,1334.716 193.642,1373.348 198.138,1382.204 C239.242,1390.732 277.674,1389.188 285.914,1387.724 C294.162,1386.252 305.362,1355.236 279.794,1348.348 C254.234,1341.452 206.41,1334.716 206.41,1334.716" fill="#FFFFFE" id="path937"/>
    <path d="M206.41,1334.716 C206.41,1334.716 193.642,1373.348 198.138,1382.204 C239.242,1390.732 277.674,1389.188 285.914,1387.724 C294.162,1386.252 305.362,1355.236 279.794,1348.348 C254.234,1341.452 206.41,1334.716 206.41,1334.716 z" fill-opacity="0" stroke="#6E5E4E" stroke-width="8" id="path939"/>
    <path d="M279.034,1347.692 C304.754,1353.924 294.362,1385.22 286.146,1386.892 C277.938,1388.564 239.578,1391.108 198.29,1383.628 L196.498,1402.268 C223.186,1411.828 272.258,1411.236 278.938,1409.284 C285.618,1407.332 345.65,1372.38 279.034,1347.692" fill="#FFFFFE" id="path941"/>
    <path d="M279.034,1347.692 C304.754,1353.924 294.362,1385.22 286.146,1386.892 C277.938,1388.564 239.578,1391.108 198.29,1383.628 L196.498,1402.268 C223.186,1411.828 272.258,1411.236 278.938,1409.284 C285.618,1407.332 345.65,1372.38 279.034,1347.692 z" fill-opacity="0" stroke="#6E5E4E" stroke-width="8" id="path943"/>
    <path d="M804.514,716.916 C832.402,752.772 862.282,840.412 866.266,868.308 C848.339,876.276 774.642,906.156 774.642,906.156 C750.738,892.212 696.946,858.348 661.09,878.268 C625.234,898.188 595.362,940.02 631.218,930.06 C613.282,969.892 633.202,1007.748 667.058,975.876 C667.058,1001.764 685.002,999.78 698.938,991.812 C702.922,1007.748 714.874,1007.748 730.818,997.78 C732.794,1007.748 746.738,1011.732 770.658,995.796 C784.602,999.78 804.514,1001.764 826.418,989.812 C931.002,994.796 1027.619,973.876 1025.626,916.108 C1023.642,858.348 979.818,696.996 870.258,655.164 C760.698,613.332 804.514,716.916 804.514,716.916" fill="#F9D8B2" id="path945"/>
    <path d="M804.514,716.916 C832.402,752.772 862.282,840.412 866.266,868.308 C848.339,876.276 774.642,906.156 774.642,906.156 C750.738,892.212 696.946,858.348 661.09,878.268 C625.234,898.188 595.362,940.02 631.218,930.06 C613.282,969.892 633.202,1007.748 667.058,975.876 C667.058,1001.764 685.002,999.78 698.938,991.812 C702.922,1007.748 714.874,1007.748 730.818,997.78 C732.794,1007.748 746.738,1011.732 770.658,995.796 C784.602,999.78 804.514,1001.764 826.418,989.812 C931.002,994.796 1027.619,973.876 1025.626,916.108 C1023.642,858.348 979.818,696.996 870.258,655.164 C760.698,613.332 804.514,716.916 804.514,716.916 z" fill-opacity="0" stroke="#6E5E4E" stroke-width="8" id="path947"/>
    <g id="g953">
      <path d="M319.954,464.972 C332.154,533.124 221.61,677.78 224.554,686.588 C274.458,671.916 317.01,641.092 325.81,633.756 C319.938,651.372 296.466,688.06 299.402,692.468 C314.074,695.404 374.25,690.996 400.674,673.38 C428.57,702.724 929.05,636.692 973.066,644.028 C927.562,605.868 933.434,525.148 943.714,360.764 C953.986,196.388 924.634,139.148 867.394,162.628 C865.922,106.86 726.482,-97.14 481.386,65.764 C236.29,228.676 302.346,366.644 319.954,464.972" fill="#8A715C" id="path949"/>
      <path d="M319.954,464.972 C332.154,533.124 221.61,677.78 224.554,686.588 C274.458,671.916 317.01,641.092 325.81,633.756 C319.938,651.372 296.466,688.06 299.402,692.468 C314.074,695.404 374.25,690.996 400.674,673.38 C428.57,702.724 929.05,636.692 973.066,644.028 C927.562,605.868 933.434,525.148 943.714,360.764 C953.986,196.388 924.634,139.148 867.394,162.628 C865.922,106.86 726.482,-97.14 481.386,65.764 C236.29,228.676 302.346,366.644 319.954,464.972 z" fill-opacity="0" stroke="#6E5E4E" stroke-width="8" id="path951"/>
    </g>
    <path d="M762.682,543.612 C778.618,551.58 884.194,619.308 918.066,625.284 C894.154,653.172 908.099,691.02 868.258,708.948 C828.418,726.876 786.586,730.86 774.642,726.876 C756.706,760.732 748.746,866.316 748.746,906.156 C748.746,906.156 453.922,924.076 439.978,916.108 C426.042,908.14 459.898,537.636 511.698,539.628 C563.482,541.62 762.682,543.612 762.682,543.612" fill="#EA9186" id="path955"/>
    <path d="M762.682,543.612 C778.618,551.58 884.194,619.308 918.066,625.284 C894.154,653.172 908.099,691.02 868.258,708.948 C828.418,726.876 786.586,730.86 774.642,726.876 C756.706,760.732 748.746,866.316 748.746,906.156 C748.746,906.156 453.922,924.076 439.978,916.108 C426.042,908.14 459.898,537.636 511.698,539.628 C563.482,541.62 762.682,543.612 762.682,543.612 z" fill-opacity="0" stroke="#6E5E4E" stroke-width="8" id="path957"/>
    <path d="M532.282,700.98 C530.946,691.692 503.058,696.996 491.098,686.364 C444.586,645.004 374.242,647.86 346.362,663.796 C335.722,670.428 315.802,694.332 356.978,707.62 C398.138,720.892 525.642,728.868 532.282,700.98" fill="#F0AFA6" id="path959"/>
    <path d="M532.282,700.98 C530.946,691.692 503.058,696.996 491.098,686.364 C444.586,645.004 374.242,647.86 346.362,663.796 C335.722,670.428 315.802,694.332 356.978,707.62 C398.138,720.892 525.642,728.868 532.282,700.98 z" fill-opacity="0" stroke="#6E5E4E" stroke-width="8" id="path961"/>
    <path d="M573.435,575.484 C561.498,613.332 573.435,645.204 597.346,647.196 C621.258,649.188 686.987,625.284 708.898,559.548 L573.435,575.484" fill="#F9D8B2" id="path963"/>
    <path d="M573.435,575.484 C561.498,613.332 573.435,645.204 597.346,647.196 C621.258,649.188 686.987,625.284 708.898,559.548 z" fill-opacity="0" stroke="#6E5E4E" stroke-width="8" id="path965"/>
    <path d="M490.426,666.364 C472.114,727.396 449.73,918.66 468.05,1018.372 L380.554,1128.236 C293.05,981.732 286.962,837.276 404.978,635.836 C411.082,635.836 478.226,650.084 490.426,666.364" fill="#F9D8B2" id="path967"/>
    <path d="M490.426,666.364 C472.114,727.396 449.73,918.66 468.05,1018.372 L380.554,1128.236 C293.05,981.732 286.962,837.276 404.978,635.836 C411.082,635.836 478.226,650.084 490.426,666.364 z" fill-opacity="0" stroke="#6E5E4E" stroke-width="8" id="path969"/>
    <path d="M512.81,1156.724 C508.746,1183.172 480.258,1199.452 461.946,1183.172 C461.946,1205.564 447.714,1211.66 427.362,1205.564 C425.33,1227.94 380.65,1228.812 354.098,1166.892 C329.698,1109.932 425.33,1030.564 435.49,1020.396 C457.874,971.564 497.546,966.468 534.186,1041.764 C560.626,1039.724 590.13,1073.3 594.202,1083.468 C598.274,1093.652 596.242,1173.004 573.858,1187.244 C551.466,1201.492 537.234,1156.732 541.306,1134.348" fill="#F9D8B2" id="path971"/>
    <path d="M512.81,1156.724 C508.746,1183.172 480.258,1199.452 461.946,1183.172 C461.946,1205.564 447.714,1211.66 427.362,1205.564 C425.33,1227.94 380.65,1228.812 354.098,1166.892 C329.698,1109.932 425.33,1030.564 435.49,1020.396 C457.874,971.564 497.546,966.468 534.186,1041.764 C560.626,1039.724 590.13,1073.3 594.202,1083.468 C598.274,1093.652 596.242,1173.004 573.858,1187.244 C551.466,1201.492 537.234,1156.732 541.306,1134.348 M414.074,1099.38 C414.074,1099.38 453.714,1172.828 463.882,1185.036 M386.194,1147.188 C388.234,1155.332 421.25,1199.452 427.362,1205.564" fill-opacity="0" stroke="#6E5E4E" stroke-width="8" id="path973"/>
    <path d="M521.659,881.908 L583.698,1201.508 L573.306,1195.164 L564.786,1198.364 L553.082,1193.052 L546.05,1210.172 L484.034,890.58 C490.714,892.596 513.082,889.892 521.659,881.908" fill="#F0A558" id="path975"/>
    <path d="M521.659,881.908 L583.698,1201.508 L573.306,1195.164 L564.786,1198.364 L553.082,1193.052 L546.05,1210.172 L484.034,890.58 C490.714,892.596 513.082,889.892 521.659,881.908 z" fill-opacity="0" stroke="#6E5E4E" stroke-width="8" stroke-linejoin="bevel" id="path977"/>
    <path d="M583.698,1201.508 L573.307,1195.164 L564.786,1198.364 L553.083,1193.052 L546.05,1210.172 L581.578,1273.828 L583.698,1201.508" fill="#F8EAC1" id="path979"/>
    <path d="M583.698,1201.508 L573.307,1195.164 L564.786,1198.364 L553.083,1193.052 L546.05,1210.172 L581.578,1273.828 z" fill-opacity="0" stroke="#6E5E4E" stroke-width="8" stroke-linejoin="bevel" id="path981"/>
    <path d="M582.714,1235.268 L581.578,1273.828 L562.154,1239.02 C563.266,1231.844 576.81,1225.38 582.714,1235.268" fill="#6E5E4E" id="path983"/>
    <path d="M582.714,1235.268 L581.578,1273.828 L562.154,1239.02 C563.266,1231.844 576.81,1225.38 582.714,1235.268 z" fill-opacity="0" stroke="#6E5E4E" stroke-width="8" stroke-linejoin="bevel" id="path985"/>
    <path d="M521.658,881.908 C513.082,889.892 490.714,892.596 484.034,890.58 C483.21,878.012 507.762,871.332 521.658,881.908" fill="#F8EAC1" id="path987"/>
    <path d="M521.658,881.908 C513.082,889.892 490.714,892.596 484.034,890.58 C483.21,878.012 507.762,871.332 521.658,881.908 z" fill-opacity="0" stroke="#6E5E4E" stroke-width="8" stroke-linejoin="bevel" id="path989"/>
    <path d="M501.738,520.372 C464.538,521.692 379.554,556.22 346.362,663.796 C374.242,647.86 444.586,645.004 491.098,686.364 C503.058,696.996 530.946,691.692 532.282,700.98 C533.602,685.044 541.578,661.14 545.554,657.156" fill="#EA9186" id="path991"/>
    <path d="M501.738,520.372 C464.538,521.692 379.554,556.22 346.362,663.796 C374.242,647.86 444.586,645.004 491.098,686.364 C503.058,696.996 530.946,691.692 532.282,700.98 C533.602,685.044 541.578,661.14 545.554,657.156" fill-opacity="0" stroke="#6E5E4E" stroke-width="8" id="path993"/>
    <path d="M368.378,304.996 C337.562,398.924 302.346,598.524 639.906,597.06 C977.466,595.596 989.218,249.228 757.33,158.228 C745.578,149.42 402.13,221.34 368.378,304.996" fill="#F9D8B2" id="path995"/>
    <path d="M368.378,304.996 C337.562,398.924 302.346,598.524 639.906,597.06 C977.466,595.596 989.218,249.228 757.33,158.228 C745.578,149.42 402.13,221.34 368.378,304.996 z" fill-opacity="0" stroke="#6E5E4E" stroke-width="8" id="path997"/>
    <path d="M355.178,394.524 C337.562,372.508 280.338,359.3 293.538,423.876 C306.738,488.452 362.514,485.524 369.858,450.292" fill="#F9D8B2" id="path999"/>
    <path d="M355.178,394.524 C337.562,372.508 280.338,359.3 293.538,423.876 C306.738,488.452 362.514,485.524 369.858,450.292" fill-opacity="0" stroke="#6E5E4E" stroke-width="8" id="path1001"/>
    <path d="M909.954,371.044 C946.642,343.156 962.786,376.908 951.058,407.732 C939.315,438.548 907.026,450.292 890.875,451.756" fill="#F9D8B2" id="path1003"/>
    <path d="M909.954,371.044 C946.642,343.156 962.786,376.908 951.058,407.732 C939.315,438.548 907.026,450.292 890.875,451.756" fill-opacity="0" stroke="#6E5E4E" stroke-width="8" id="path1005"/>
    <path d="M675.122,459.1 C672.194,481.116 682.466,484.052 698.618,478.188 L679.538,500.196 M628.154,523.676 C632.562,532.484 658.986,536.9 667.786,538.356" fill-opacity="0" stroke="#6E5E4E" stroke-width="8" stroke-linejoin="bevel" id="path1007"/>
    <path d="M571.818,401.292 C569.858,416.564 563.706,428.372 558.066,427.644 C552.443,426.916 549.474,413.948 551.427,398.676 C553.402,383.396 559.555,371.604 565.178,372.324 C570.802,373.044 573.786,386.02 571.818,401.292" fill="#6E5E4E" id="path1009"/>
    <path d="M571.818,401.292 C569.858,416.564 563.706,428.372 558.066,427.644 C552.443,426.916 549.474,413.948 551.427,398.676 C553.402,383.396 559.555,371.604 565.178,372.324 C570.802,373.044 573.786,386.02 571.818,401.292 z" fill-opacity="0" stroke="#6E5E4E" stroke-width="8" stroke-linejoin="bevel" id="path1011"/>
    <path d="M793.427,389.556 C791.466,404.828 785.323,416.62 779.682,415.9 C774.05,415.18 771.083,402.204 773.05,386.932 C775.018,371.66 781.17,359.86 786.802,360.58 C792.427,361.308 795.402,374.276 793.427,389.556" fill="#6E5E4E" id="path1013"/>
    <path d="M793.427,389.556 C791.466,404.828 785.323,416.62 779.682,415.9 C774.05,415.18 771.083,402.204 773.05,386.932 C775.018,371.66 781.17,359.86 786.802,360.58 C792.427,361.308 795.402,374.276 793.427,389.556 z" fill-opacity="0" stroke="#6E5E4E" stroke-width="8" stroke-linejoin="bevel" id="path1015"/>
    <path d="M823.362,171.436 C789.602,203.724 695.674,282.98 619.354,293.252 C607.618,288.852 685.418,222.804 698.618,199.324 C680.994,212.532 589.994,321.132 443.234,316.732 C432.962,310.868 456.45,290.316 463.77,278.572 C434.426,302.06 333.17,346.084 346.37,422.404 C333.154,413.604 328.754,356.364 362.514,300.588 C362.514,300.588 388.946,216.932 431.498,180.244 C474.05,143.548 651.658,93.644 695.69,108.324 C739.706,123.004 823.362,171.436 823.362,171.436" fill="#8A715C" id="path1017"/>
    <path d="M823.362,171.436 C789.602,203.724 695.674,282.98 619.354,293.252 C607.618,288.852 685.418,222.804 698.618,199.324 C680.994,212.532 589.994,321.132 443.234,316.732 C432.962,310.868 456.45,290.316 463.77,278.572 C434.426,302.06 333.17,346.084 346.37,422.404 C333.154,413.604 328.754,356.364 362.514,300.588 M545.978,181.708 C545.978,181.708 474.05,272.708 459.386,282.98 M714.754,171.436 C714.754,171.436 698.618,196.38 694.202,202.252 M352.234,541.292 C352.234,541.292 339.034,622.028 325.81,633.756 M885.002,544.228 C882.066,551.564 887.946,595.588 890.874,608.804" fill-opacity="0" stroke="#6E5E4E" stroke-width="8" stroke-linejoin="bevel" id="path1019"/>
    <path d="M558.786,471.732 C557.97,490.988 535.466,505.66 508.506,504.516 C481.57,503.364 460.386,486.828 461.194,467.58 C462.026,448.324 484.538,433.652 511.458,434.796 C538.434,435.948 559.618,452.492 558.786,471.732" fill="#F5C19E" id="path1021"/>
    <path d="M849.626,463.772 C848.802,483.02 826.29,497.7 799.346,496.548 C772.402,495.396 751.202,478.86 752.034,459.612 C752.85,440.356 775.37,425.684 802.298,426.828 C829.266,427.98 850.451,444.524 849.626,463.772" fill="#F5C19E" id="path1023"/>
    <path d="M453.922,1049.58 C457.898,1073.484 483.794,1121.292 489.778,1133.244 C495.754,1145.196 525.642,1195.004 549.538,1183.044 C573.434,1171.092 555.514,1129.252 539.578,1115.316 C539.578,1107.348 521.658,1069.5 521.658,1069.5" fill="#F9D8B2" id="path1025"/>
    <path d="M453.922,1049.58 C457.898,1073.484 483.794,1121.292 489.778,1133.244 C495.754,1145.196 525.642,1195.004 549.538,1183.044 C573.434,1171.092 555.514,1129.252 539.578,1115.316 C539.578,1107.348 521.658,1069.5 521.658,1069.5 M350.338,1153.156 C354.322,1137.228 402.13,1071.484 418.058,1059.532" fill-opacity="0" stroke="#6E5E4E" stroke-width="8" id="path1027"/>
    <path d="M825.378,751.772 C845.722,792.86 863.282,847.396 866.266,868.308 C848.339,876.276 774.642,906.156 774.642,906.156 C750.738,892.212 696.946,858.348 661.09,878.268 C625.234,898.188 595.362,940.02 631.218,930.06 C613.282,969.892 633.202,1007.748 667.058,975.876 C667.058,1001.764 685.002,999.78 698.938,991.812 C702.922,1007.748 714.874,1007.748 730.818,997.78 C732.794,1007.748 746.738,1011.732 770.658,995.796 C784.602,999.78 804.514,1001.764 826.418,989.812 C931.002,994.796 1027.619,973.876 1025.626,916.108 C1023.914,866.38 991.178,739.828 912.17,678.916" fill="#F9D8B2" id="path1029"/>
    <path d="M825.378,751.772 C845.722,792.86 863.282,847.396 866.266,868.308 C848.339,876.276 774.642,906.156 774.642,906.156 C750.738,892.212 696.946,858.348 661.09,878.268 C625.234,898.188 595.362,940.02 631.218,930.06 C613.282,969.892 633.202,1007.748 667.058,975.876 C667.058,1001.764 685.002,999.78 698.938,991.812 C702.922,1007.748 714.874,1007.748 730.818,997.78 C732.794,1007.748 746.738,1011.732 770.658,995.796 C784.602,999.78 804.514,1001.764 826.418,989.812 C931.002,994.796 1027.619,973.876 1025.626,916.108 C1023.914,866.38 991.178,739.828 912.17,678.916 M774.642,906.156 C778.618,910.14 794.554,932.052 796.538,938.028 M671.05,892.212 C663.082,896.196 639.178,914.124 631.218,930.06 M681.018,947.988 C681.018,947.988 667.058,973.876 667.058,975.876 M716.858,969.892 L698.938,991.812 M744.754,979.86 L732.794,991.812 M677.026,953.964 L659.098,961.932" fill-opacity="0" stroke="#6E5E4E" stroke-width="8" id="path1031"/>
    <path d="M867.858,1465.812 C867.522,1469.452 869.242,1470.396 874.018,1471.132 C919.97,1470.068 1175.178,1468.276 1177.418,1467.604 C1190.586,1460.876 1191.651,1450.812 1191.314,1443.532 C1192.05,1422.372 1180.57,1417.108 1180.57,1417.108 L868.898,1423.852 L867.858,1465.812" fill="#7EA986" id="path1033"/>
    <path d="M861.786,1425.244 C916.842,1423.596 1170.314,1422.428 1175.786,1423.124 C1183.155,1425.316 1189.522,1432.284 1191.314,1443.532 L1187.266,1391.764 L860.73,1401.98 L855.642,1414.02 C854.618,1417.348 856.667,1424.372 861.786,1425.244" fill="#7EA986" id="path1035"/>
    <path d="M1170.818,1420.004 C1189.69,1422.22 1180.642,1453.932 1174.074,1456.108 C1167.538,1458.3 895.818,1461.732 882.21,1460.332 C882.162,1460.324 882.09,1460.316 882.058,1460.316 L881.242,1423.1 L1170.818,1420.004" fill="#E7F0F3" id="path1037"/>
    <path d="M848.058,1377.74 L829.642,1078.284 L1144.65,1078.5 L1211.714,1380.988 L848.21,1375.82" fill="#FFF799" id="path1039"/>
    <path d="M1209.963,1404.044 L837.051,1399.604 L848.211,1375.82 L1211.714,1380.988 L1209.963,1404.044" fill="#F2D776" id="path1041"/>
    <path d="M848.21,1375.828 L829.794,1076.364 L820.682,1114.404 L837.186,1397.692 L849.258,1375.644" fill="#FCD98E" id="path1043"/>
    <path d="M1210.922,1361.244 L841.378,1354.5 L864.01,1052.148 L1171.906,1058.812 L1210.922,1361.244" fill="#CCE3C2" id="path1045"/>
    <path d="M1210.922,1384.364 L841.378,1377.612 L841.378,1354.5 L1210.922,1361.244 L1210.922,1384.364" fill="#ABD4A5" id="path1047"/>
    <path d="M872.522,1342.708 C872.522,1342.708 1192.49,1346.796 1195.746,1345.844 C1199.018,1344.876 1203.346,1340.06 1203.346,1336.204 C1203.346,1332.356 1197.922,1276.484 1197.922,1276.484 C1197.922,1276.484 870.634,1265.892 863.034,1271.676 C855.458,1277.452 828.082,1329.22 872.522,1342.708" fill="#EA8A6F" id="path1049"/>
    <path d="M854.37,1266.86 C846.778,1293.828 840.29,1325.612 873.89,1331.396 L1189.266,1334.284 L1185.995,1286.124 L854.37,1266.86" fill="#F7F4E4" id="path1051"/>
    <path d="M1180.57,1048.22 L1207.666,1283.236 C1207.666,1283.236 1210.93,1293.828 1195.746,1294.788 C1180.57,1295.748 878.202,1290.94 878.202,1290.94 C864.122,1289.972 852.914,1300.588 852.202,1314.06 C851.114,1334.284 865.21,1341.02 873.89,1341.988 C863.034,1342.948 841.378,1334.284 839.194,1306.348 C837.034,1278.412 830.53,1070.38 830.53,1070.38 C833.77,1063.628 835.938,1047.268 866.29,1045.332 C896.634,1043.404 1180.57,1048.22 1180.57,1048.22" fill="#EA8A6F" id="path1053"/>
    <path d="M878.202,1290.94 C864.122,1289.972 852.914,1300.588 852.202,1314.06 C851.115,1334.284 865.211,1341.02 873.891,1341.988 C863.034,1342.948 841.378,1334.284 839.194,1306.348 C837.034,1278.412 830.53,1070.38 830.53,1070.38 C833.771,1063.628 835.938,1047.268 866.29,1045.332 C867.451,1045.26 868.97,1045.188 870.842,1045.14 L878.202,1290.94" fill="#C47660" id="path1055"/>
    <path d="M890.298,1224.236 C925.922,1220.1 1141.25,1222.86 1153.651,1222.86 C1166.034,1222.86 1187.73,1224.236 1189.274,1243.516 C1187.083,1256.26 1175.162,1265.892 1156.73,1267.82 C1138.323,1269.748 878.202,1264.932 878.202,1264.932 C874.962,1264.932 869.546,1260.116 870.634,1253.38 C871.714,1246.628 866.29,1034.732 866.29,1034.732 C867.378,1030.892 874.962,1028.964 874.962,1028.964 L883.642,1001.02 L890.298,1224.236" fill="#54B7DC" id="path1057"/>
    <path d="M1166.834,1260.468 C1174.594,1256.052 1179.034,1251.5 1180.354,1243.78 C1178.81,1224.508 1161.21,1223.756 1148.826,1223.756 C1136.426,1223.756 927.682,1216.3 892.05,1220.42 L883.642,1001.02 L874.962,1028.964 C874.962,1028.964 873.058,1029.436 871.034,1030.404 L882.554,1255.3 C882.554,1255.3 1149.642,1265.468 1166.834,1260.468" fill="#F7F4E4" id="path1059"/>
    <path d="M899.346,1227.852 L1167.578,1233.628 M899.346,1237.964 L1167.578,1243.74 M899.346,1248.076 L1167.578,1253.852 M874.962,1302.972 L1187.082,1304.42 M873.346,1310.204 L1185.458,1317.42 M878.202,1323.204 L1183.842,1327.532" fill-opacity="0" stroke="#F0E5CA" stroke-width="8" id="path1061"/>
    <path d="M883.81,987.436 L890.298,1224.236 C925.922,1220.1 1141.25,1222.86 1153.65,1222.86 C1166.034,1222.86 1187.73,1224.236 1189.274,1243.516 C1190.826,1242.132 1178.426,1021.844 1178.426,1021.844 C1179.994,1003.956 1161.402,990.188 1152.09,988.812 C1142.802,987.428 891.226,979.836 891.226,979.836 C891.226,979.836 884.106,978.892 883.81,987.436" fill="#79C1E0" id="path1063"/>
    <path d="M1153.65,1222.86 C1166.034,1222.86 1187.73,1224.236 1189.274,1243.516 C1190.826,1242.132 1178.426,1021.844 1178.426,1021.844 C1179.994,1003.956 1161.402,990.188 1152.09,988.812 C1151.186,988.676 1147.914,988.484 1142.762,988.236 L1153.65,1222.86" fill="#858A95" id="path1065"/>
  </g>
</svg>
