<?xml version="1.0" encoding="UTF-8"?>
<!DOCTYPE svg PUBLIC "-//W3C//DTD SVG 1.1//EN" "http://www.w3.org/Graphics/SVG/1.1/DTD/svg11.dtd">
<svg version="1.1" xmlns="http://www.w3.org/2000/svg" xmlns:xlink="http://www.w3.org/1999/xlink" x="0" y="0" width="68" height="353" viewBox="0, 0, 68, 353">
  <defs>
    <clipPath id="Clip_1">
      <path d="M0.06,0.903 L67.079,0.903 L67.079,352.94 L0.06,352.94 z"/>
    </clipPath>
    <clipPath id="Clip_2">
      <path d="M0.06,0.903 L67.079,0.903 L67.079,352.94 L0.06,352.94 z"/>
    </clipPath>
    <clipPath id="Clip_3">
      <path d="M0.06,0.903 L67.079,0.903 L67.079,352.94 L0.06,352.94 z"/>
    </clipPath>
  </defs>
  <g id="Layer_1">
    <path d="M11.711,9.717 C11.711,9.717 11.721,9.036 11.435,8.652 C10.998,8.067 10.545,7.372 10.601,5.779 C10.745,1.662 14.51,1.663 14.51,1.663 C14.51,1.663 11.202,0.795 9.488,3.324 C7.774,5.854 7.306,9.146 11.711,9.717" fill="#C36B30"/>
    <path d="M38.878,48.936 C38.878,48.936 40.501,50.859 41.033,52.374 C42.362,56.162 39.038,60.491 39.038,60.491 C39.038,60.491 44.146,54.742 42.36,51.31 C40.574,47.874 35.779,45.459 37.215,37.376 L35.789,36.948 C35.789,36.948 32.211,43.773 33.551,50.728 C34.891,57.684 33.813,67.171 28.906,69.879 C28.906,69.879 37.507,65.28 40.023,57.428 C41.892,51.6 38.878,48.936 38.878,48.936" fill="#A96733"/>
    <path d="M37.016,38.658 C36.612,38.841 35.881,39.011 35.164,38.344 C35.133,38.315 35.086,38.083 35.086,38.083 L35.541,33.903 C35.541,33.903 36.693,35.405 38.042,34.462 L37.341,38.368 C37.341,38.368 37.215,38.568 37.016,38.658" fill="#DA8474"/>
    <path d="M44.294,313.851 C44.294,313.851 45.171,317.45 57.792,317.561 C64.048,317.615 66.007,310.593 66.007,310.593 C66.007,310.593 61.632,301.1 55.706,302.636 C49.781,304.171 44.294,313.851 44.294,313.851" fill="#043843"/>
    <path d="M54.572,293.527 C54.572,293.527 61.95,300.48 62.662,304.366 C63.373,308.255 58.756,311.854 59.224,317.679 C59.691,323.503 58.378,335.355 52.94,339.546 C50.545,341.394 49.676,340.198 49.676,340.198 C48.861,336.283 53.757,330.244 51.636,320.291 C49.706,311.243 49.777,306.498 49.326,300.666 C48.874,294.835 46.227,289.482 46.227,289.482" fill="#C2956D"/>
    <path d="M54.246,315.068 C54.246,315.068 55.254,316.994 56.205,320.291 C58.489,328.205 51.962,338.239 49.676,340.198 C49.676,340.198 51.063,341.766 53.267,340.688 C56.938,338.893 64.119,334.406 64.364,332.203 C65.17,324.949 60.202,323.799 61.916,316.211 C62.875,311.962 53.92,312.293 54.246,315.068" fill="#907152"/>
    <g clip-path="url(#Clip_1)">
      <path d="M61.522,302.113 C61.522,302.113 56.514,299.761 54.083,303.972 C51.29,308.811 52.614,313.763 54.572,315.476 C56.531,317.19 59.469,314.986 62.161,321.351 L65.166,315.09 C65.166,315.09 62.737,314.484 63.14,310.825 C63.849,304.388 63.481,303.827 61.522,302.113" fill="#6F5148"/>
      <path d="M62.161,321.351 C62.161,321.351 60.677,315.75 64.104,315.015 C67.531,314.28 67.057,319.637 67.057,319.637 L62.161,321.351" fill="#907152"/>
      <path d="M25.891,351.922 C25.891,351.922 30.339,351.786 32.297,349.339 C34.256,346.891 33.521,341.016 35.234,339.792 C36.948,338.568 39.886,332.694 39.886,332.694 C39.886,332.694 30.497,316.81 25.891,351.922" fill="#907152"/>
      <path d="M26.976,323.695 C26.976,323.695 20.462,342.695 13.947,347.58 C7.435,352.465 18.29,353.552 25.891,351.922 C33.491,350.293 27.518,338.895 34.576,335.095 C41.633,331.295 44.89,329.124 38.918,318.267" fill="#C2956D"/>
      <path d="M42.17,327.716 C42.17,327.716 35.725,327.308 33.276,331.47 C30.829,335.63 30.829,341.016 30.829,341.016 C30.829,341.016 35.234,342.485 34.99,352.521 C34.99,352.521 39.151,353.988 40.865,351.786 C40.865,351.786 38.662,344.198 39.886,339.058 C41.109,333.916 43.149,333.102 42.17,327.716" fill="#6F5148"/>
    </g>
    <path d="M43.925,125.16 L48.859,129.913 L50.405,134.33 C50.405,134.33 47.878,133.046 48.118,130.194 C48.118,130.194 44.537,129.408 42.362,126.947" fill="#F5C4AA"/>
    <path d="M47.687,122.909 C44.564,122.502 41.579,124.266 41.579,124.266 C45.65,125.215 50.673,123.587 50.265,122.773 C49.858,121.959 41.763,120.628 41.763,120.628 L40.766,126.438" fill="#F5C4AA"/>
    <g>
      <path d="M14.98,92.916 C14.98,92.916 9.279,91.56 6.296,84.775 C3.188,77.709 9.822,65.64 9.822,65.64" fill="#E6768F"/>
      <path d="M18.528,56.633 C17.146,53.071 20.412,44.199 19.331,41.542 C18.563,39.648 18.335,39.996 15.488,40.423 C12.64,40.857 10.165,41.635 9.279,41.073 C8.318,40.46 8.075,37.945 8.284,37.42 C8.492,36.896 8.486,36.089 7.851,35.953 C7.216,35.816 7.087,34.647 7.087,34.647 L7.737,33.836 L6.875,32.988 C6.875,32.988 7.058,31.75 7.183,31.175 C7.307,30.602 6.896,29.625 6.075,29.247 C5.252,28.869 4.521,27.484 4.521,27.484 C4.521,27.484 6.72,24.955 8.058,22.936 C9.397,20.918 5.567,17.218 10.979,10.322 C15.637,4.391 23.982,0.286 32.582,4.15 C39.279,7.157 38.11,12.812 39.408,19.471 C39.777,21.361 44.944,22.458 44.911,24.669 C44.76,34.673 35.633,37.105 32.598,39.872 C30.602,41.692 29.076,46.106 29.604,59.677 L18.528,56.633" fill="#F5C4AA"/>
      <path d="M41.851,173.12 L40.901,181.807 L44.093,185.105 C44.093,185.105 48.435,184.019 50.606,169.363 C52.779,154.706 41.518,120.464 41.518,120.464 C41.518,120.464 41.735,85.785 44.093,75.18 C45.722,67.852 36.693,59.94 36.693,59.94 C36.693,59.94 35.307,79.905 35.473,80.703 C37.102,88.574 35.97,120.628 35.97,120.628 L47.079,161.22 C47.079,161.22 47.623,163.661 44.907,166.376 C42.191,169.091 45.11,177.256 45.11,177.256 L43.808,181.595 L42.362,180.581 C42.362,180.581 44.561,175.352 41.851,173.12" fill="#F5C4AA"/>
      <path d="M31.809,116.938 C29.36,106.675 33.472,89.819 37.915,79.889 C37.915,79.889 38.871,72.462 41.851,68.489 C44.294,65.232 36.693,59.94 36.693,59.94 C30.994,56.411 26.108,55.324 26.108,55.324 C26.108,55.324 10.909,50.168 3.581,52.612 C-3.748,55.054 19.675,92.324 12.673,109.609 C8.309,120.383 4.881,125.524 5.371,136.783 C5.371,136.783 15.224,128.706 38.417,132.866 C38.417,132.866 34.258,127.199 31.809,116.938" fill="#E6768F"/>
    </g>
    <path d="M25.826,150.256 L30.18,237.854 L44.294,313.851 C44.294,313.851 54.606,300.279 66.007,310.593 C66.007,310.593 60.578,288.338 52.436,270.425 C44.294,252.51 39.682,239.211 38.731,232.562 C38.731,232.562 34.848,205.65 40.766,171.492 C46.736,137.023 36.332,133.223 36.332,133.223" fill="#065463"/>
    <path d="M44.03,311.374 C44.03,311.374 53.884,297.862 65.283,308.178" fill-opacity="0" stroke="#8A6F53" stroke-width="0.3" stroke-dasharray="1,0.3" stroke-linejoin="round"/>
    <path d="M5.568,134.826 C11.994,129.502 22.685,125.422 38.268,132.276 L40.357,135.257 C44.837,142.586 45.984,145.161 44.022,153.986 C43.366,156.936 42.01,163.082 42.01,163.082 C42.248,150.311 33.276,146.33 32.053,148.778 C31.563,149.757 29.623,153.562 27.737,154.393 C23.848,156.108 26.109,182.893 26.923,192.663 C27.737,202.434 30.994,235.411 33.029,255.768 C35.065,276.124 44.43,336.378 44.43,336.378 C44.43,336.378 39.951,343.706 31.809,343.3 C23.666,342.893 20.409,338.007 20.409,338.007 C20.409,338.007 25.294,265.538 20.002,230.933 C14.71,196.327 4.576,136.294 4.576,136.294 C4.576,136.294 4.434,135.767 5.568,134.826" fill="#00617A"/>
    <path d="M44.047,334.692 C44.047,334.692 39.951,341.585 31.809,341.179 C23.666,340.771 20.793,336.283 20.793,336.283" fill-opacity="0" stroke="#D9BA9B" stroke-width="0.3" stroke-dasharray="1,0.3" stroke-linejoin="round"/>
    <path d="M41.896,137.494 L38.846,132.929 C15.777,122.668 4.434,136.906 4.434,136.906 L5.191,141.402 C5.191,141.402 5.374,141.649 5.441,141.582 C6.9,140.171 10.8,137.013 16.876,135.315 C32.053,131.072 40.91,137.224 41.848,137.727 L41.896,137.494" fill="#8E6454"/>
    <path d="M39.271,120.329 L46.056,115.307 C46.056,115.307 45.105,121.007 39.135,122.093" fill="#F5C4AA"/>
    <path d="M10.935,23.613 C10.935,23.613 10.229,23.962 10.33,26.775 C10.33,26.775 11.012,27.013 11.852,26.808 C12.693,26.603 12.944,26.329 12.944,26.329 L10.935,23.613" fill="#FFFFFE"/>
    <path d="M10.328,22.523 C10.328,22.523 9.097,24.287 10.33,26.775 L10.933,23.481 L10.328,22.523" fill="#718C95"/>
    <path d="M8.044,32.882 C8.772,33.526 9.368,34.139 9.368,34.139 C9.368,34.139 8.575,36.15 7.851,35.953 C7.225,35.78 7.087,34.647 7.087,34.647 L7.296,33.652 L6.875,32.988 C6.875,32.988 6.803,31.788 8.044,32.882" fill="#EB9381"/>
    <path d="M15.849,21.668 C15.849,21.668 14.623,18.883 13.034,17.959 C11.448,17.037 9.506,18.708 9.506,18.708 C9.506,18.708 9.343,19.499 10.316,19.453 C11.294,19.406 11.906,18.196 12.882,18.872 C13.859,19.555 15.849,21.668 15.849,21.668" fill="#C36B30"/>
    <path d="M44.886,23.415 C44.592,21.196 44.118,19.41 43.847,18.501 C43.798,20.64 43.39,23.797 41.947,27.913 C39.956,33.601 35.327,36.875 32.634,38.362 C32.967,38.534 33.122,38.885 32.993,39.541 C36.352,36.898 44.764,34.271 44.911,24.669 C44.918,24.238 44.896,23.833 44.886,23.415" fill="#A96733"/>
    <path d="M41.947,27.913 C44.23,21.395 44.825,20.188 43.695,15.812 C42.567,11.438 38.331,6.731 32.582,4.15 C29.223,2.641 25.818,2.296 22.667,2.801 C24.384,7.778 17.826,9.804 19.554,11.868 C27.056,20.846 16.714,22.607 16.18,31.515 C16.18,31.515 18.654,26.643 20.062,25.586 C22.131,24.035 22.694,24.487 22.694,24.487 C22.694,24.487 26.928,31.892 26.617,36.545 C26.365,40.328 31.19,37.623 32.634,38.362 C35.327,36.875 39.956,33.601 41.947,27.913" fill="#C36B30"/>
    <path d="M22.388,26.325 C22.388,26.325 23.48,23.922 26.639,25.03 C29.798,26.137 28.32,33.572 22.062,35.546" fill="#F5C4AA"/>
    <path d="M22.388,26.325 C22.388,26.325 23.48,23.922 26.639,25.03 C29.798,26.137 28.32,33.572 22.062,35.546 M23.535,27.202 C23.535,27.202 26.067,25.694 26.114,28.315 C26.154,30.545 24.856,31.237 24.856,31.237" fill-opacity="0" stroke="#A96733" stroke-width="0.25"/>
    <path d="M11.027,22.445 C10.474,21.607 9.393,22.066 9.393,22.066 C9.393,22.066 9.258,23.511 7.148,21.316 C7.148,21.316 7.088,23.094 10.977,24.043 C10.977,24.043 11.584,23.285 11.027,22.445" fill="#834534"/>
    <path d="M13.568,26.716 C13.568,26.716 12.179,25.991 11.185,24.266 C10.193,22.538 9.393,22.067 9.393,22.067 L10.355,20.734 C10.355,20.734 13.778,21.977 13.568,26.716" fill="#EB9381"/>
    <path d="M13.595,26.743 C13.595,26.743 12.246,26.088 11.398,24.822 C10.553,23.557 9.397,22.276 9.397,22.276 C9.397,22.276 9.282,21.697 9.894,21.971 C10.505,22.244 10.987,22.571 11.883,24.253 C12.779,25.933 13.595,26.743 13.595,26.743" fill="#834534"/>
    <g clip-path="url(#Clip_2)">
      <path d="M20.342,12.461 C20.342,12.461 21.51,21.178 17.063,25.081 C17.063,25.081 22.327,21.43 22.271,14.613" fill="#C36B30"/>
      <path d="M1.682,53.289 C-2.604,54.718 2.902,61.16 0.867,80.703 C-0.701,95.748 2.902,118.159 2.902,118.159 C2.902,118.159 15.516,122.536 21.766,123.587 C28.018,124.639 40.494,125.08 40.494,125.08 L39.408,122.094 C39.408,122.094 24.479,116.53 14.438,114.088 C10.132,113.041 7.381,110.83 7.381,110.83 L8.467,73.918 C8.467,73.918 8.195,51.117 1.682,53.289" fill="#F5C4AA"/>
      <path d="M26.269,40.161 C26.269,40.161 20.909,49.822 9.354,57.183 C-2.202,64.542 5.892,79.915 5.892,79.915 C5.892,79.915 2.013,70.601 5.921,65.525 C5.921,65.525 3.478,78.508 10.452,82.452 C10.452,82.452 6.593,72.326 11.891,65.652 C17.188,58.975 22.055,59.89 24.079,53.961 C24.079,53.961 21.711,63.412 16.786,65.211 C16.786,65.211 23.604,63.723 26.759,55.644 C29.915,47.566 28.363,43.734 28.727,39.398 L26.269,40.161" fill="#C36B30"/>
    </g>
    <path d="M47.279,179.635 L43.887,190.628 L42.394,198.362 C42.394,198.362 40.494,194.97 42.394,189.813 C44.294,184.656 44.973,182.077 44.973,182.077" fill="#F5C4AA"/>
    <path d="M45.177,183.909 L41.646,189.881 L33.098,189.744 C33.098,189.744 36.489,186.08 40.426,187.846 C40.426,187.846 41.376,184.724 44.361,182.959 L45.177,183.909" fill="#F5C4AA"/>
    <path d="M9.676,131.97 L10.98,138.253 L9.513,139.069 L8.208,132.785 L9.676,131.97" fill="#00617A"/>
    <path d="M28.463,128.97 L30.503,134.091 L32.461,134.58 L30.094,129.134 L28.463,128.97" fill="#00617A"/>
    <path d="M12.959,141.679 C12.959,141.679 19.079,137.518 24.953,137.763 C24.953,137.763 26.178,143.883 26.178,146.575 L22.261,151.226 L15.162,149.757 L12.959,141.679 z M23.485,137.763 C23.485,137.763 24.602,144.025 24.602,146.093 L21.618,149.665 L16.214,148.537 L14.306,140.822 M13.388,143.454 C13.388,143.454 19.508,139.292 25.382,139.537 M42.456,140.577 C42.456,140.577 39.273,138.374 37.56,137.885 C37.56,137.885 38.784,142.047 39.028,144.494 L42.456,148.655 L44.169,146.452 C44.169,146.452 43.924,142.617 42.456,140.577 z M38.687,138.357 C38.687,138.357 39.691,141.768 39.892,143.775 L42.701,147.188 L44.105,145.381 M43.394,142.413 C43.394,142.413 40.375,140.13 38.069,139.355" fill-opacity="0" stroke="#D9BA9B" stroke-width="0.3" stroke-dasharray="1,0.3" stroke-linejoin="round"/>
    <path d="M30.526,36.503 L28.893,42.274 C28.893,42.274 28.721,42.619 28.629,42.48 C28.268,41.939 27.23,40.668 25.687,41.118 C25.553,41.158 25.565,40.569 25.565,40.569 L27.289,35.62 C27.289,35.62 29.211,34.574 30.526,36.503" fill="#EB9381"/>
    <path d="M5.493,143.026 C5.493,143.026 13.832,133.854 30.665,134.989 C37.927,135.479 42.415,138.822 42.415,138.822" fill-opacity="0" stroke="#D9BA9B" stroke-width="0.3" stroke-dasharray="1,0.3" stroke-linejoin="round"/>
    <path d="M28.324,129.176 L28.463,128.97 L30.503,134.091 L30.318,134.254 L28.324,129.176" fill="#065463"/>
    <path d="M9.676,131.97 L9.938,132.05 L11.216,138.314 L10.98,138.253 L9.676,131.97" fill="#065463"/>
    <path d="M33.488,148.035 C32.831,150.233 31.881,152.452 30.91,153.51 C29.033,155.551 26.667,157.999 26.667,157.999" fill-opacity="0" stroke="#8A6F53" stroke-width="0.3" stroke-dasharray="1,0.3" stroke-linejoin="round"/>
    <path d="M32.461,135.234 C32.461,135.234 34.092,140.7 34.337,142.903 C34.455,143.965 34.099,145.991 33.488,148.035" fill-opacity="0" stroke="#D9BA9B" stroke-width="0.3" stroke-dasharray="1,0.3" stroke-linejoin="round"/>
    <path d="M29.931,154.408 C29.931,154.408 30.992,207.853 31.318,223.193 C31.645,238.532 43.231,296.22 47.474,310.58" fill-opacity="0" stroke="#8A6F53" stroke-width="0.3" stroke-dasharray="1,0.3" stroke-linejoin="round"/>
    <path d="M7.411,141.026 C7.411,141.026 23.077,231.761 23.73,247.1 C24.383,262.44 25.687,340.77 25.687,340.77" fill-opacity="0" stroke="#D9BA9B" stroke-width="0.3" stroke-dasharray="1,0.3" stroke-linejoin="round"/>
    <path d="M13.752,149.723 C13.696,150.212 13.26,150.561 12.772,150.507 L10.094,150.212 C9.176,150.112 8.697,149.025 8.75,148.536 L9.735,145.372 C9.789,144.886 10.227,144.534 10.714,144.588 L12.833,144.185 C13.316,144.238 14.28,144.92 14.176,145.86 L13.752,149.723" fill="#7A7B7A"/>
    <path d="M13.191,149.025 C13.138,149.512 12.698,149.862 12.213,149.809 L9.534,149.514 C9.048,149.461 8.698,149.023 8.75,148.536 L9.176,144.674 C9.229,144.187 9.667,143.837 10.152,143.89 L12.833,144.185 C13.316,144.238 13.67,144.676 13.616,145.161 L13.191,149.025" fill="#9E9F9E"/>
    <path d="M12.144,150.133 L10.434,150.223 L9.792,156.049 C9.733,156.59 10.121,157.075 10.662,157.136 C11.202,157.195 11.689,156.804 11.747,156.265 L12.389,150.439 L12.144,150.133" fill="#B5B6B4"/>
    <path d="M10.189,149.916 L9.547,155.742 C9.487,156.284 9.877,156.772 10.416,156.831 C10.956,156.889 11.444,156.499 11.504,155.959 L12.144,150.133 L10.189,149.916" fill="#FFFFFE"/>
    <path d="M10.247,146.808 C10.314,146.203 10.861,145.763 11.469,145.83 L11.693,145.855 C11.922,145.879 12.126,145.973 12.29,146.112 C12.123,145.799 11.809,145.571 11.43,145.53 L11.207,145.506 C10.6,145.437 10.053,145.876 9.986,146.481 L9.961,146.707 C9.92,147.086 10.074,147.441 10.344,147.67 C10.245,147.482 10.196,147.263 10.222,147.034 L10.247,146.808" fill="#777776"/>
    <path d="M11.164,147.953 C11.77,148.02 12.318,147.581 12.386,146.973 L12.41,146.749 C12.435,146.521 12.389,146.3 12.29,146.112 C12.126,145.973 11.922,145.879 11.693,145.855 L11.469,145.83 C10.861,145.763 10.314,146.203 10.247,146.808 L10.222,147.034 C10.196,147.263 10.245,147.482 10.344,147.67 C10.506,147.809 10.709,147.903 10.94,147.93 L11.164,147.953" fill="#B5B6B4"/>
    <path d="M11.447,153.328 C11.429,153.481 11.293,153.592 11.138,153.574 C10.986,153.559 10.877,153.419 10.893,153.266 C10.91,153.113 11.047,153.003 11.198,153.021 C11.352,153.036 11.463,153.175 11.447,153.328" fill="#B5B6B4"/>
    <path d="M11.347,154.236 C11.329,154.389 11.192,154.499 11.039,154.483 C10.886,154.465 10.776,154.327 10.793,154.175 C10.81,154.022 10.947,153.913 11.1,153.93 C11.253,153.945 11.362,154.083 11.347,154.236" fill="#B5B6B4"/>
    <path d="M11.246,155.145 C11.23,155.299 11.092,155.407 10.94,155.392 C10.786,155.374 10.676,155.237 10.693,155.083 C10.71,154.933 10.847,154.821 11.001,154.838 C11.153,154.855 11.263,154.993 11.246,155.145" fill="#B5B6B4"/>
    <path d="M15.692,140.047 C12.723,139.155 11.67,143.914 11.67,143.914 C11.67,143.914 13.732,141.485 14.499,141.602 C15.264,141.716 16.06,139.476 16.06,139.476" fill-opacity="0" stroke="#FFFFFE" stroke-width="0.5" stroke-dasharray="0,0.55" stroke-linecap="round" stroke-linejoin="round"/>
    <path d="M43.895,128.264 C42.531,123.549 41.518,120.464 41.518,120.464 C41.518,120.464 41.521,119.771 41.535,118.548 M36.037,120.879 L37.15,124.943" fill-opacity="0" stroke="#C2956D" stroke-width="0.25" stroke-linecap="round" stroke-linejoin="round"/>
    <path d="M45.819,124.005 C43.376,124.276 42.018,126.312 42.018,126.312 C46.36,126.312 47.989,124.411 47.989,124.411 C47.989,124.411 48.262,123.462 45.819,124.005" fill="#F5C4AA"/>
    <path d="M41.516,126.771 C41.516,126.771 45.371,124.836 47.18,125.927 C48.987,127.016 47.408,126.848 45.366,127.074 C43.325,127.301 41.516,126.771 41.516,126.771" fill="#F5C4AA"/>
    <path d="M45.88,127.025 C45.713,127.039 45.541,127.056 45.366,127.074 C43.325,127.301 41.516,126.771 41.516,126.771 C41.516,126.771 44.227,125.41 46.169,125.613 M43.909,124.629 C42.68,125.32 42.018,126.312 42.018,126.312 C42.153,126.312 42.286,126.309 42.416,126.306" fill-opacity="0" stroke="#C2956D" stroke-width="0.25"/>
    <path d="M47.687,122.909 C44.564,122.502 41.579,124.266 41.579,124.266 C43.747,124.771 46.185,124.545 47.928,124.102" fill="#F5C4AA"/>
    <path d="M47.687,122.909 C44.564,122.502 41.579,124.266 41.579,124.266 C43.747,124.771 46.185,124.545 47.928,124.102" fill-opacity="0" stroke="#C2956D" stroke-width="0.25"/>
    <g clip-path="url(#Clip_3)">
      <path d="M15.856,8.99 C15.856,8.99 18.475,12.059 15.856,13.052 C15.856,13.052 18.745,13.053 17.21,9.262" fill="#C36B30"/>
      <path d="M23.264,3.195 C29.275,5.1 34.456,6.579 37.085,7.281 C37.303,7.312 37.509,7.348 37.713,7.388 C37.235,6.932 29.463,3.422 18.851,1.132 C10.106,-0.756 11.322,9.639 11.322,9.639 C11.322,9.639 12.881,8.54 13.994,8.688 C13.998,7.589 14.369,0.376 23.264,3.195" fill="#C36B30"/>
      <path d="M16.543,9.241 C16.543,9.241 16.572,9.254 16.619,9.276 C17.48,8.399 19.425,6.653 21.594,6.271 C23.995,5.847 28.973,5.912 33.823,7.15 C35.001,7.109 36.114,7.148 37.085,7.281 C34.456,6.579 29.275,5.1 23.264,3.195 C14.369,0.376 13.998,7.589 13.994,8.688 C14.748,8.787 15.66,8.972 16.606,9.288 C16.609,9.286 16.616,9.279 16.619,9.276 C16.572,9.254 16.543,9.241 16.543,9.241" fill="#A96733"/>
    </g>
    <path d="M21.594,6.271 C19.425,6.653 17.48,8.399 16.619,9.276 C16.675,9.3 16.762,9.334 16.879,9.378 C16.932,9.398 16.982,9.412 17.035,9.432 C18.047,9.774 20.532,10.34 23.652,9.109 C26.305,8.064 30.349,7.269 33.823,7.15 C28.973,5.912 23.995,5.847 21.594,6.271" fill="#C36B30"/>
    <path d="M23.652,9.109 C20.532,10.34 18.047,9.774 17.035,9.432 C18.529,9.997 17.595,12.386 18.976,13.637 C23.85,18.06 30.81,8.143 37.731,7.452 C37.537,7.402 37.321,7.345 37.085,7.281 C33.255,6.754 27.202,7.712 23.652,9.109" fill="#A96733"/>
  </g>
</svg>
