<svg version="1.2" xmlns="http://www.w3.org/2000/svg" viewBox="0 0 761 1135" width="761" height="1135">
	<title>hand-nails-publicdomainvectors</title>
	<style>
		.s0 { fill: #efc7b0;stroke: #000000;paint-order:stroke fill markers;stroke-linejoin: round;stroke-width: 6 } 
		.s1 { fill: #ebd9cf;stroke: #000000;paint-order:stroke fill markers;stroke-linejoin: round;stroke-width: 6 } 
		.s2 { fill: #26ec20;stroke: #000000;paint-order:stroke fill markers;stroke-linejoin: round;stroke-width: 6 } 
	</style>
	<g id="_Artboards_">
	</g>
	<g id="publicdomainvectors.org">
		<g id="&lt;Group&gt;">
			<path id="&lt;Compound Path&gt;" fill-rule="evenodd" class="s0" d="m267.7 54.1c2.5-2.4 5.1-4.9 7.6-7.4 8.4-8.5 16.8-17.1 24.6-26.1 15.1 7 19.1 17.1 19.9 19.9-3.5 6.1-11.8 19.6-14.2 23.4-3.1-5-10-9.3-18-11.2-7.1-1.6-14-1-19.9 1.4zm464.7 482.5c-0.3 2.1-0.6 4.2-0.8 6.4-0.9 7.9-1.8 16.1-6 21.3-5.3 6.5-17.5 20.3-31.6 36.1-7 7.8-12.3 21.7-17.9 36.5-5 13.3-10.1 27-16.9 37.1-2.5 3.8-5.6 8.7-9.3 14.4-17 26.3-45.5 70.4-66.6 90.4l-57.6 50.4-0.2 0.1c-20.8 23.8-40.5 46.3-44.9 55.2-1.6 3.2-6 9-10.6 15.2-8 10.7-17 22.9-19.8 31.1-2.1 6.4-8.3 18.4-14.3 30-6.3 12.3-12.3 23.9-14.5 30.5-4.3 12.9-42.5 83.3-63.6 116.1-8.2-4.5-22.8-12.2-41-21.7-83.4-43.6-255.9-133.9-294.7-171.8 9.9-16.9 96.4-164.6 99.2-170.2 2.1-4.2 6.4-23.6 11.1-44.9 1.2-5.2 2.1-9.5 2.6-11.7q0.6-2.4 0.3-5.7c0.2 0.3 0.4 0.7 0.6 1 2.5 3.6 5.4 6.9 8.8 9.7 6.7 5.8 14.4 10.3 22.3 14 7.9 3.8 16.3 6.7 24.7 9.3q12.6 3.7 25.5 6.1 13 2.4 26.1 3.5c8.8 0.8 17.5 1.3 26.3 1.1 8.8-0.2 17.5-0.8 26.2-2.2 8.7-1.4 17.3-3.4 25.3-7-8.2 3.2-16.8 5-25.4 6.1-8.7 1.1-17.4 1.5-26.1 1.5-17.4 0-34.9-1.8-52-4.9-17.1-3.2-34-7.8-50-14.9-7.9-3.5-15.5-7.8-22.3-13.3-3.4-2.7-6.4-5.9-9-9.3-0.4-0.6-0.7-1.2-1.1-1.7-1.1-10.3-7.8-26.5-18.2-50.7-7.3-16.9-11.8-47-16.5-78.9-3.6-23.7-7.2-48.3-12.2-67.7-2.4-9.2-5.1-18.5-7.6-27.5-9.8-33.9-19-66-11.2-89.4 6-17.9 24.5-137.5 28.9-176.1l0.6-5.5c3.9-33.5 6.2-53.7 26.6-57.6 22.1-4.1 64.5-18.6 75.7-26.5q-0.1 0.5-0.1 1c0 0.9 0.4 1.8 1.2 2.3 0.7 0.6 1.6 0.7 2.4 0.8 0.8 0.1 1.6 0 2.4-0.1 0.8-0.1 1.6-0.3 2.3-0.7 1.5-0.6 2.8-1.4 4.1-2.2 2.6-1.7 5.1-3.5 7.5-5.4 9.7-7.5 18.8-15.7 27.8-24q5.7-5.4 11.4-10.8c6.7-6.6 16.5-9 26.8-6.7 8 1.8 14.8 6.3 17.3 11.2l-0.2 0.3 1 1.1c0 0.1 8.1 9.7 8.1 21.8v1.1c-3.3 8.9-14.3 32.8-24.2 54.1-7.3 16-14.2 31-16.9 37.6l-0.9 2.1c-1.7 4.2-4.1 10.1-7.1 17.3l3.7 1.5c3-7.2 5.4-13.1 7.1-17.3l0.9-2.1c2.7-6.5 9.6-21.5 16.9-37.4 11.2-24.3 22.8-49.5 25-56.5 9.9-8.8 32.9-19 40.8-21.4 7.9-2.4 37.5 0.1 54.7 15.4 17.2 15.4 15.3 29.1 25.5 47.1-15.3 2.6-35.1 20.5-47.5 43.4-6.3 11.7-11.2 25.1-16.4 39.3-6.1 16.4-12.9 35.1-23.2 54.6-11.4 21.6-20.9 45.9-27.9 63.5-4 10.4-7.9 20.1-9.2 21.4-1.5 1.5-5.8 8-14 20.3-11.3 17.1-26.8 40.4-36.9 52.4-1.2 1.4-12.9 24.5-17 32-1.1 6.6-0.7 16.8-0.6 24.1-11 18.6-19.8 36.7-21.1 40.6-0.5 1.7 0.2 3.8 2.4 6.6 9.1 12.1 43.5 34.1 53.1 34.1q0.2 0 0.3 0c5.7-0.3 17.7-18.4 31.5-42.7 1.3 0.6 2.9 0.9 4.7 0.9 2.8 0 11.4-3.1 14.7-6.2 10.7-10.1-41.5 50.5-39.9 56.8 1.5 5.9 33.6 31.9 49.5 31.9q1.4 0 2.5-0.3c5.9-1.2 15.7-11.4 25.6-23.8 2.1 0.7 4.4 1.1 6.9 1.1 8.4 0 19.2-4.4 34.9-14-3.9 4.3-7.9 8.7-11.9 13.2-7 7.9-12.5 14-15.2 16.7l-0.5 0.6 0.4 0.7c0.7 1.2 18.3 29.4 37.9 29.4 5.7 0 18.2-11.3 30-24.3q3.2 0.5 6.6 0.5c20 0 45.1-13.3 76.3-40.3 25-21.6 43.2-40.8 48.2-46.7 1.4-1.7 8.1-5.7 16.5-10.8 17.7-10.6 44.4-26.6 55.5-41.3 16-21.5 31.9-56.6 31.9-60.5h-2c0 3.1-15.3 37.7-31.5 59.3-10.8 14.4-37.4 30.3-54.9 40.8-8.9 5.4-15.4 9.2-17.1 11.2-4.9 5.9-23 24.9-47.9 46.5-33.5 29-59.7 41.9-80 39.5 11.4-12.8 21.9-26.9 25-33.5 1.4-3.1 2.2-6.3 2.6-9.5 1.5-3.6 2.6-7.4 3.2-11.3 0.4-2.7 0.5-5.5 0.1-8.3-0.5-2.8-1.6-5.5-3.2-7.9-3.3-4.7-8.7-7.6-14.2-8.3-2.8-0.4-5.6-0.2-8.3 0.4-2.7 0.7-5.2 1.8-7.5 3.2 5-2.2 10.4-3.1 15.6-2.1 5.1 1 9.8 3.7 12.8 8 1.5 2.1 2.4 4.5 2.9 7 0.5 2.5 0.4 5.2 0.2 7.8-0.2 2.6-0.6 5.1-1.2 7.6 0.4-11-4-21.1-9.2-24.4-6.2-4.1-13.6-4.1-23.9-0.1-4.4 1.7-16.9 14.6-32.2 31.4-22.5 14.6-35.9 19.5-45.5 16.7 14-17.7 28-39.3 31.9-46.7 0.7-1.4 1.2-3 1.6-4.7 1-1.6 1.9-3.4 2.5-5.3 0.8-2.8 1.1-5.8 0.8-8.8-0.6-6-3.3-11.5-6.6-16.4-3.6-4.9-8.7-8.3-14.1-10.7-5.3-2.3-11.3-3.8-17.1-3 2.9 0 5.8 0.4 8.5 1.3q4.2 1.1 8 3.1c5 2.6 9.9 5.9 13.1 10.4 3.1 4.7 5.8 9.9 6.6 15.5 0.7 4.1 0.1 8.5-1.5 12.5 0.7-5.5-0.4-11.9-3.5-18-5.5-10.6-15-17.7-26.1-19.3-0.3-0.1-8.3 0.3-14.2 2.4 5.1-8.2 13.5-20.5 19.9-31.1 7.7-12.8 15-24.8 19.1-31.2 1.8-2.8 5.2-8.9 9.3-16.3 4.1 3 8.5 5.7 12.8 8.5 4.4 2.8 8.9 5.6 13.2 8.6 4.4 3 8.6 6.1 12.7 9.5q3 2.5 5.7 5.4c0.9 0.9 1.7 1.9 2.6 2.9 0.9 1 1.6 2.1 2.4 3.1-2.3-4.7-5.9-8.9-9.7-12.6-3.9-3.7-8.1-6.9-12.5-9.9q-6.7-4.5-13.6-8.3l-7-3.9-6.6-3.4c9.8-18.1 23.3-44.1 26.4-52.4 2.6-6.9 21.3-37.5 35.1-59.8 10-16.4 15.7-25.7 16.7-27.9q0.2-0.5 0.6-1.6c16.4-38.6 32.8-61.6 45.4-63.3l0.1 0.2 1.5-0.4c0.1 0 10-2.7 28 0 16.9 2.6 35.9 13.5 43.4 21 7.5 7.6 10.1 17.4 12.7 22.6 0.5 1.1 1.6 2.8 3 5.3 6.3 10.4 20.4 34.1 24.9 56.4-4.3-1.7-9.1-2-14-0.8-9.8 2.2-18.9 9.7-25.8 21.2-12.7 21-33.9 56.2-53.7 70.3-15 10.6-41.8 34.6-58.9 54.7-8.6 10.1-19.6 26.3-29.2 40.7-7.2 10.6-24.7 37.3-26.9 39l4.1-2.8c2.5-1.6 15.6-18.4 26.1-34 9.1-13.5 20.5-30.4 28.9-40.3 16.9-19.9 43.4-43.6 58.2-54.1 20.5-14.5 42-50.2 54.8-71.5 6.3-10.5 14.6-17.4 23.3-19.4 5-1.1 10-0.4 14 1.9l0.9 0.5c0.2 0.1 24.3 13.1 45.3 42.6 21.7 30.3 35.8 89.3 38.6 114.3 2.9 26.7 1.2 53.9 0 62.8zm-485.7-79.1q0.1-0.5 0.2-1 0 0 0 0c10.8-23.5 32.9-72.7 35.2-79.5q0.7-1.9 0.9-3.8c1.2-2.5 1.8-5.4 1.8-8.2 0-4.2-1.3-8.3-3.2-12-4-7.4-10.6-12.9-17.7-17.1-7.2-4.1-15.9-5.9-24.1-4.5-4.1 0.8-8.2 2.2-11.6 4.6-2.5 1.8-4.7 4.2-6 7-0.9 0.8-1.5 1.6-1.9 2.5-0.7 1.6-9.2 21.1-17.9 42.4l-1.2-3.5q0.1-0.1 0.3-0.1-0.2 0-0.4 0.1l-2.8-7.9c3.3-13.8 11.8-39.4 21-62.6 4.8-12.2 9.4-22.7 13.3-30.5 7.1-14.3 19-41.3 35.2-80.4l-3.7-1.5q0 0 0 0 0 0 0 0c-8.6 20.5-40.5 28-40.9 28.1l-1.9 0.5 0.1 0.3c-2.5 0.3-5.1 0.4-7.7 0.4-4.8-0.1-9.6-0.5-14.4-1.2-9.6-1.5-19-4-28-7.7-9-3.6-17.6-8.5-24.8-15-7.2-6.5-12.9-14.8-15.6-24.2 2.5 9.4 8.1 17.9 15.3 24.5 7.1 6.7 15.7 11.8 24.7 15.7 9 3.8 18.5 6.5 28.1 8.1 4.9 0.8 9.8 1.4 14.7 1.5 2.7 0.1 5.4 0 8.1-0.2 5.6 26.9-9 59.8-12 66.1l-0.2 0.5v0.6c0.2 1.9 0.5 3.5 0.9 5-4.4 4.1-10.6 6-16.6 7.4-6.3 1.3-12.8 1.9-19.2 2.2-13 0.4-26-0.3-38.9-1.8 12.9 1.8 25.8 2.9 38.9 2.8 6.5-0.1 13-0.6 19.5-1.8 3.2-0.6 6.4-1.4 9.5-2.6 2.6-1 5.1-2.3 7.4-4.1 1.2 3.6 2.9 5.5 4.2 6.5-9.3 23.5-17.9 49.4-21 63.1l-0.1 0.6 3.1 8.6c-9.6 2.7-18.6 7-27.2 11.9-9.9 5.6-19.2 12.3-28.1 19.5-8.7 7.2-17.1 15-24.6 23.7-7.4 8.6-14.3 17.9-18.1 28.7 1.3-2.5 2.3-5.2 3.9-7.5l2.2-3.7 2.4-3.4c3.3-4.6 7-9 10.8-13.1 7.6-8.3 15.9-16.1 24.7-23.2 8.7-7.2 17.9-13.8 27.5-19.7l7.4-4.3c2.5-1.3 5-2.5 7.6-3.8 2.5-1.2 5.1-2.3 7.7-3.4q1.9-0.7 3.9-1.4l2.3 6.4 1.1-0.4c-9 22.3-17.9 45.3-18.3 51.1-0.2 3.6 3.2 7.9 10.1 12.7 11.3 7.8 30.2 15.3 39.9 15.3 1.6 0 3-0.2 4-0.7 2.5-1.1 6.3-6.4 10.5-14q0 0.2-0.1 0.4-0.8 1.7-1.4 3.2c0.1-0.2 0.6-1 1.2-2.2zm-0.6 24.1q1.2-2.1 2.5-4.2l-2.5 4.8q0-0.3 0-0.6zm192.1 55h-0.1q0 0 0.1 0zm92.4-294.4c2 2.6 4.5 4.8 7.1 6.7 2.6 2.1 5.4 3.9 8.1 5.6q4.3 2.5 8.6 4.7c2.9 1.5 6 2.8 8.9 4.1-2.6-2-5.3-3.7-8.1-5.5l-8.3-5q-4.2-2.5-8.3-5.1c-2.7-1.8-5.5-3.5-8-5.5zm-16.6 15.3c4.3 4.5 9.3 8.2 14.1 12 5 3.7 10 7.2 15.1 10.7 5.1 3.4 10.2 6.8 15.5 10.1l7.8 4.8c2.7 1.6 5.3 3.2 8 4.7-4.9-3.7-10-7.3-15-10.8-5-3.5-10.1-7-15.2-10.5l-15.3-10.3q-3.8-2.5-7.6-5.2-3.8-2.6-7.4-5.5zm-73.1-123.1l0.2 0.2 1.5-0.4c13.8-4.2 39.6 4.1 55.6 15.3 16.1 11.2 23 35.7 32.8 53.2-17.6 4.1-35.1 37.4-47 65.5q-0.4 1-0.6 1.5c-0.9 2-8.1 13.8-16.5 27.4-14.5 23.7-32.6 53.2-35.4 60.5-4.2 11.1-29.3 58.6-35.3 68.1-4.1 6.4-11.4 18.4-19.1 31.2-8 13.1-16.7 27.5-22.1 36-7.1 5.1-15.4 13-21.1 18.7-7.8 4-15.9 6.7-19.6 5.1 5-8.8 10.1-18.3 15.3-28 2.9-5.2 4.9-9 5.8-10.4 1-1.7 1.6-3.9 1.8-6.4 3.4-10.8 3.8-21.3 0.9-30.1-2.5-7.5-7.3-13-13.7-16-13.9-6.3-35.4-3.4-47.9 14.4-8.4 7.2-18.6 22.8-27.5 37.5 0-18.7 2.3-31.2 17.8-49.7 10.2-12.1 25.8-35.6 37.1-52.7 6.6-9.8 12.2-18.4 13.6-19.7 1.8-1.8 4.3-8.2 10-22.7 7-17.6 16.5-41.7 27.7-63.2 10.4-19.7 17.3-38.5 23.4-55 5.2-14.1 10.1-27.4 16.2-38.8 13.4-24.9 33.6-40.3 46.1-41.5zm107.7 368.7q-2.3-2.5-4.5-5l-4.6-4.9c-3-3.3-6.3-6.4-9.7-9.3-3.4-3-6.9-5.8-10.6-8.3-3.8-2.5-7.7-4.7-11.9-6.4q1.4 1 2.8 1.8c1 0.6 1.9 1.3 2.8 1.9 1.8 1.3 3.6 2.6 5.4 4 3.5 2.7 6.9 5.5 10.2 8.5 3.4 2.9 6.6 5.9 10 8.9 3.3 3 6.5 6.1 10.1 8.8zm18.7-13.2c-0.1-1.3-0.8-2.3-1.6-3.3q-1.2-1.4-2.5-2.6c-1.8-1.6-3.8-3.1-5.7-4.5-3.9-2.9-8.1-5.4-12.2-7.8-4.2-2.4-8.4-4.8-12.7-7l-6.4-3.3-6.4-3.2c3.9 2.9 8 5.4 12.1 7.9 4.1 2.5 8.3 4.9 12.4 7.3q6.2 3.6 12.3 7.3c2.1 1.3 4.1 2.6 6 4q1.4 1.1 2.7 2.3c0.8 0.8 1.7 1.7 2 2.9zm64.8-105c-4.7-3.8-9.7-7.1-14.8-10.3-5.2-3.1-10.4-6.1-15.9-8.6 4.7 3.8 9.7 7.1 14.8 10.3 5.2 3.1 10.4 6.1 15.9 8.6zm-303.5-267l7.2 3.2 7.1 3.2c4.8 2.2 9.6 4.2 14.3 6.5q7.1 3.2 14 6.8c2.3 1.2 4.5 2.5 6.7 4 2.2 1.4 4.3 2.9 5.8 5.1-1.2-2.4-3.2-4.2-5.2-5.9-2.1-1.7-4.3-3.1-6.5-4.5-4.5-2.8-9.2-5.1-14-7.4-4.7-2.1-9.6-4.2-14.5-6-4.9-1.9-9.8-3.6-14.9-5zm-2.7 12.9c5.9 3.4 12 6.3 18.2 9.1l9.3 4.1 4.6 2.1c1.5 0.7 3.1 1.3 4.5 2.4-2.4-2.6-5.5-4.2-8.5-5.9-2.9-1.6-6-3.1-9.1-4.5-6.2-2.8-12.5-5.4-19-7.3zm-44.7 96c3 3.5 6.8 6 10.4 8.8 3.6 2.7 7.3 5.3 11.1 7.8 3.8 2.5 7.5 5 11.4 7.3l5.8 3.5c2 1.1 3.9 2.3 6 3.3-1.8-1.4-3.6-2.7-5.4-4.1l-5.5-4c-3.7-2.6-7.5-5.1-11.2-7.7-3.8-2.5-7.5-5-11.3-7.4l-5.7-3.6c-1.9-1.3-3.9-2.4-5.6-3.9zm-13.5 21.3c-2.8-1.6-5.4-3.3-8.1-5 4.9 4.1 10.1 7.7 15.5 11.1 5.3 3.4 10.8 6.5 16.4 9.5 5.5 3 11.2 5.9 16.9 8.6 5.7 2.6 11.5 5.2 17.5 7.3-2.8-1.4-5.7-2.8-8.4-4.3q-4.3-2.2-8.4-4.4l-16.7-8.9c-5.5-3-11-6.1-16.5-9.2q-4.2-2.3-8.2-4.7zm-162.6 143.4c3.3-0.7 6.5-1.5 9.8-2.2l9.8-2.5c6.5-1.6 12.9-3.4 19.4-5 6.5-1.6 13-3.1 19.6-4 6.6-0.9 13.3-0.9 19.8 0.7-3.1-1.1-6.5-1.9-9.8-2.2-1.7-0.2-3.4-0.2-5.1-0.2-1.7 0.1-3.4 0-5.1 0.2-6.7 0.6-13.4 2-19.9 3.6q-9.8 2.5-19.4 5.4c-6.4 2-12.8 4-19.1 6.2zm182.8 406c-6.9-0.7-13.7-2.5-20.4-4.5-6.7-2-13.3-4.4-19.9-6.8-13.1-5-26-10.5-38.6-16.5q-19.1-8.8-37.3-19.4c-6.1-3.5-12-7.2-17.7-11.3-5.7-4-11.2-8.4-15.8-13.7 4.3 5.6 9.7 10.2 15.2 14.5 5.6 4.3 11.5 8.2 17.5 11.9 12 7.3 24.5 13.8 37.2 19.8 12.8 5.9 25.7 11.4 39 16.1 6.6 2.3 13.3 4.5 20.1 6.3 6.8 1.8 13.7 3.4 20.7 3.6zm54.8-54.7c1.3 4.7 2.7 9.3 4.1 13.9 1.6 4.5 3.2 9.1 5.1 13.5 3.8 8.9 8.6 17.4 14.2 25.3 5.8 7.7 12.4 14.9 19.9 21.1 3.8 2.9 7.6 5.9 11.7 8.4 2.1 1.3 4.1 2.7 6.3 3.7l6.3 3.4c-8.2-5-16.1-10.4-23.3-16.7-7.2-6.3-13.7-13.4-19.3-21.1-5.7-7.7-10.4-16-14.4-24.7-4.1-8.7-7.2-17.8-10.6-26.8zm97.9 162.7c-3.4-1.1-6.8-1.9-10-3.3l-4.9-1.9-4.8-2.1c-6.4-2.9-12.7-6.1-18.8-9.5-12.2-6.8-24.1-14.4-35.3-22.7-11.4-8.2-22.2-17.2-32.4-26.8-2.5-2.5-5-4.9-7.5-7.4l-7.1-7.7-6.8-8-6.3-8.5c7.4 12 16.6 22.8 26.6 32.7 10.1 9.9 21 18.9 32.3 27.3 11.4 8.2 23.3 15.9 35.8 22.5 12.4 6.5 25.5 12.3 39.2 15.4zm25.9-30.2c-6.4 0.6-12.7-1.1-18.8-2.8-6.1-1.8-12.1-4-18-6.5-11.9-4.8-23.4-10.3-34.7-16.3-11.4-5.8-22.5-12.2-33.4-19-5.4-3.4-10.7-6.9-15.9-10.6-5.2-3.8-10.3-7.7-14.6-12.5 4 5.1 9 9.2 14 13.2 5.1 4 10.4 7.7 15.7 11.2 10.7 7.1 21.9 13.5 33.2 19.5 11.5 5.8 23.1 11.4 35.1 16 6 2.2 12.1 4.3 18.3 5.9q4.7 1.2 9.5 1.9c3.2 0.3 6.4 0.6 9.6 0zm134.9-367.2c1.9 1.4 4.3 1.9 6.6 2.4q3.5 0.6 7 0.9c4.7 0.3 9.4 0.3 14.1 0.3 9.4-0.2 18.7-1 28.1-2.1 9.3-1.2 18.6-2.6 27.8-4.6 9.1-2.1 18.3-4.3 26.8-8.4-4.4 1.7-8.9 2.9-13.4 4-4.6 1.1-9.2 2-13.7 2.9-9.2 1.7-18.5 3.1-27.8 4.1-9.2 1.2-18.5 2-27.9 2.6-4.6 0.2-9.3 0.3-14 0.2q-3.5 0-6.9-0.4c-2.3-0.4-4.7-0.7-6.7-1.9zm23 80.6c-4.8-4.3-10-8.2-15.2-12-5.2-3.8-10.6-7.5-15.9-11-5.4-3.6-10.9-7.1-16.4-10.5-5.5-3.3-11.1-6.6-16.8-9.7l8 5.6 8 5.4 16.1 10.8 16.1 10.7 8.1 5.3c2.7 1.8 5.4 3.6 8 5.4zm91.2-39.3c-5.3 0.9-10.8 0.5-16.1-0.3-5.4-0.8-10.6-1.9-15.9-3.3-10.4-2.7-20.8-5.9-31-9.6-10.2-3.5-20.3-7.4-30.4-11.5q-7.5-3-14.9-6.4c-5-2.2-9.9-4.4-14.6-7.2 2.2 1.6 4.6 3 6.9 4.3q3.6 2 7.3 3.8c4.8 2.4 9.8 4.7 14.7 6.9 10 4.4 20.1 8.4 30.4 12 10.2 3.5 20.6 6.8 31.3 9.2 5.3 1.2 10.6 2.2 16.1 2.8 5.4 0.5 11 0.7 16.2-0.7zm9.6-99.9c-1.3 3.2-3.8 5.7-6.6 7.6-2.7 2-5.8 3.6-8.9 5-6.3 2.6-12.8 4.6-19.5 6.1-6.7 1.6-13.4 2.6-20.2 3.3q-5.2 0.5-10.3 0.5c-3.4 0.1-6.9 0-10.3-0.3 6.8 1.4 13.7 1.6 20.7 1.3 6.9-0.3 13.8-1.3 20.6-2.8 6.7-1.6 13.4-3.7 19.6-6.7 3.2-1.6 6.2-3.4 8.9-5.6 2.6-2.2 5.1-5 6-8.4zm-401.7-14.3c-9.8-8.1-28.9-5.5-44.9 3.2 12.1-12.2 33.3-16.1 44.9-10.7 6 2.7 10.4 7.8 12.7 14.8 2.2 6.5 2.8 17.9 1.2 25.9-1.3-10.8-7-27.6-13.9-33.2zm-63.4-94c-9.6-5.8-21.7-5.1-29.8-2.4-3.1 1-5.6 2.2-7.3 3.6 1.5-2.3 3.5-4.2 5.8-5.6 3.3-2.1 7.3-3.3 11.2-3.9 3.9-0.4 8-0.3 11.8 0.5 4 0.7 7.6 2.3 11.1 4.3 7 3.8 13.3 9.2 17.3 16.1 2 3.4 3.4 7.2 3.6 11.2 0.2 2.1 0 4.3-0.6 6.4 0.6-13.7-13.7-24.6-23.1-30.2zm181.9 122.5c-3-2.3-5.8-4.8-8.6-7.2q-4.2-3.7-8.3-7.4c-5.5-5-10.9-10.1-16.7-14.9 4.7 5.9 9.9 11.3 15.4 16.3 2.8 2.6 5.6 5 8.7 7.2 3 2.3 6.1 4.4 9.5 6zm-44.1-59.9l-4.9-1c-1.5-0.5-3.1-0.9-4.7-1.4l-4.6-1.7-4.5-1.9c-6-2.7-11.8-5.7-17.4-9.1-5.6-3.3-11.1-6.9-16.5-10.6q-4-2.8-7.9-5.9c-2.7-1.9-5.2-4-7.7-6.2 4.4 4.9 9.5 9.2 14.7 13.3 5.2 4.1 10.7 7.8 16.4 11.1 5.7 3.4 11.6 6.4 17.8 8.8 6.2 2.4 12.7 4.3 19.3 4.6zm0-19.5c-0.7-1.4-1.1-3-2.1-4.3l-1.2-2-1.5-1.8c-1.9-2.5-4.2-4.7-6.6-6.8-4.7-4.1-9.9-7.6-15.1-11.1-5.2-3.4-10.4-6.7-15.7-10q-3.9-2.5-7.8-5.2c-1.3-0.8-2.6-1.7-3.8-2.6q-1.9-1.4-3.8-2.7c4.5 4.3 9.5 8.1 14.6 11.7 5 3.7 10.3 7 15.4 10.5 5.2 3.4 10.4 6.8 15.3 10.6 2.4 2 4.7 3.9 6.8 6.2 2.3 2.2 3.9 4.7 5.5 7.5zm21.1-201.6c4.3 3 8.8 5.9 13.3 8.7 4.4 2.9 9 5.6 13.5 8.3 4.6 2.7 9.2 5.4 13.8 7.9l7 3.8c2.4 1.2 4.7 2.5 7.1 3.7-2.2-1.6-4.4-3-6.6-4.5l-6.7-4.3c-4.4-2.9-9-5.6-13.5-8.3-4.6-2.7-9.2-5.4-13.8-7.9-4.7-2.6-9.3-5.1-14.1-7.4zm-2.8 27.7c5 3.9 10.3 7.2 15.8 10.5 5.4 3.2 10.9 6.2 16.7 8.8-5-3.9-10.3-7.3-15.7-10.5-5.5-3.2-11-6.3-16.8-8.8z"/>
			<path id="&lt;Compound Path&gt; copy" class="s1" d="m202 101.5c-0.1-0.6 0-1.1 0.1-1.6q0.5-0.4 0.9-0.8l0.2-0.3c15-23.2 56.7-72.4 86.2-82.1 4 1.1 7.4 2.4 10.4 3.8-4 4.2-8.2 8.3-12.4 12.3l-13.2 12.8q-6.4 6.1-12.8 12.2-1.3 1-2.5 2.2l0.1 0.1c-3.8 3.5-7.6 7.1-11.4 10.6-9 8.4-18 16.6-27.4 24.3-2.4 1.9-4.8 3.8-7.3 5.5-1.3 0.8-2.5 1.7-3.9 2.3-0.6 0.3-1.3 0.5-2 0.6-0.7 0.2-1.4 0.2-2.2 0.2-0.7-0.1-1.4-0.2-1.9-0.5-0.5-0.4-0.8-0.9-0.9-1.6zm20.1 244.7c0.9-1.9 4.2-4.1 8.8-5.5 3.3-1.1 7.6-1.9 12.1-1.9 5.4 0 11.2 1.1 16.1 4.1 10.1 6 26.3 18.4 21.2 33.4-6.2 17.8-35.8 88.1-44.6 92-6 2.7-28.3-5-42-14.5-6.1-4.2-9.4-8.1-9.2-10.9 0.7-11.2 37.3-95.8 37.6-96.7zm227 185.4c9.7-3.8 16.5-3.8 22.1-0.1 6.5 4.2 11.8 21.2 5.4 35.2-6.4 14.2-44.8 58.5-54.7 58.5-16.9 0-33-23.6-35.8-27.8 2.9-3 8.1-8.9 14.7-16.2 16.9-18.9 42.4-47.3 48.3-49.6zm-119.5-47q-0.8 1.5-1.7 3.2c-10.7 19.9-39.2 72.7-47.2 73.1-7.9 0.4-42.3-20.8-51.8-33.3-2.1-2.9-2.1-4.2-2-4.8 3.2-9.7 36.3-71 54.7-81.7 8.6-4.9 17.1-9.7 24.5-9.7 6.3 0 11.8 1.8 16.2 5.3 8.5 7 13.8 24.5 12.9 34.9-1.4 4.3-3.2 8.7-5.6 13zm31.7 6.8c5.8-3 12.9-1.6 13.1-1.6 10.5 1.6 19.5 8.3 24.6 18.3 4.1 8 4.7 16.5 1.7 22.2-7.1 13.9-44.1 68.3-57.4 71.3-13.4 2.9-48.4-25.1-49.7-30.2-1.2-4.8 30.8-46.8 34.8-51.2 4.4-4.7 22.6-23.4 32.9-28.8z"/>
			<path id="&lt;Compound Path&gt;" class="s2" d="m222.1 346.2c0.9-1.9 4.2-4.1 8.8-5.5 3.3-1.1 7.6-1.9 12.1-1.9 5.4 0 11.2 1.1 16.1 4.1 10.1 6 26.3 18.4 21.2 33.4-6.2 17.8-35.8 88.1-44.6 92-6 2.7-28.3-5-42-14.5-6.1-4.2-9.4-8.1-9.2-10.9 0.7-11.2 37.3-95.8 37.6-96.7z"/>
		</g>
	</g>
</svg>