<svg version="1.2" xmlns="http://www.w3.org/2000/svg" viewBox="0 0 778 590" width="778" height="590"><defs><linearGradient id="P" gradientUnits="userSpaceOnUse"/><linearGradient id="g1" x2="1" href="#P" gradientTransform="matrix(375.167,-269.738,90.913,126.447,272.148,376.513)"><stop stop-color="#5ab023" stop-opacity="1"/><stop offset="1" stop-color="#5ab023" stop-opacity="0"/></linearGradient><linearGradient id="g2" x2="1" href="#P" gradientTransform="matrix(-120.826,-122.951,369.042,-362.663,694.538,458.589)"><stop stop-color="#ff0"/><stop offset="1" stop-color="#b98823"/></linearGradient><linearGradient id="g3" x2="1" href="#P" gradientTransform="matrix(262.423,49.551,-29.451,155.974,336.104,177.914)"><stop stop-color="#ff0"/><stop offset=".5" stop-color="#e9c516"/><stop offset="1" stop-color="#d3d32c"/></linearGradient><linearGradient id="g4" x2="1" href="#P" gradientTransform="matrix(258.786,-345.891,142.079,106.3,129.288,424.656)"><stop stop-color="#5ab023" stop-opacity="1"/><stop offset="1" stop-color="#5ab023" stop-opacity="0"/></linearGradient><linearGradient id="g5" x2="1" href="#P" gradientTransform="matrix(-122.546,-96.284,353.975,-450.524,514.289,444.608)"><stop stop-color="#ff0"/><stop offset="1" stop-color="#b98823"/></linearGradient><linearGradient id="g6" x2="1" href="#P" gradientTransform="matrix(243.159,12.095,-8.274,166.343,135.004,210.962)"><stop stop-color="#ff0"/><stop offset=".5" stop-color="#e9c516"/><stop offset="1" stop-color="#d3d32c"/></linearGradient><linearGradient id="g7" x2="1" href="#P" gradientTransform="matrix(57.682,-79.392,98.967,71.903,465.239,534.238)"><stop stop-color="#ff0"/><stop offset="1" stop-color="#b98823"/></linearGradient><linearGradient id="g8" x2="1" href="#P" gradientTransform="matrix(-64.172,-106.8,146.912,-88.273,526.166,542.2)"><stop stop-color="#ff0"/><stop offset="1" stop-color="#b98823"/></linearGradient><linearGradient id="g9" x2="1" href="#P" gradientTransform="matrix(57.682,-79.392,98.967,71.903,464.239,523.238)"><stop stop-color="#ff0"/><stop offset="1" stop-color="#b98823"/></linearGradient><linearGradient id="g10" x2="1" href="#P" gradientTransform="matrix(-64.172,-106.8,146.912,-88.273,525.166,531.2)"><stop stop-color="#ff0"/><stop offset="1" stop-color="#b98823"/></linearGradient><linearGradient id="g11" x2="1" href="#P" gradientTransform="matrix(57.682,-79.392,98.967,71.903,461.239,514.238)"><stop stop-color="#ff0"/><stop offset="1" stop-color="#b98823"/></linearGradient><linearGradient id="g12" x2="1" href="#P" gradientTransform="matrix(-64.172,-106.8,146.912,-88.273,522.166,522.2)"><stop stop-color="#ff0"/><stop offset="1" stop-color="#b98823"/></linearGradient><linearGradient id="g13" x2="1" href="#P" gradientTransform="matrix(113.368,-156.037,415.555,301.918,495.965,571.581)"><stop stop-color="#ff0"/><stop offset="1" stop-color="#b98823"/></linearGradient><linearGradient id="g14" x2="1" href="#P" gradientTransform="matrix(-90.064,-149.891,103.856,-62.403,601.946,561.085)"><stop stop-color="#ff0"/><stop offset="1" stop-color="#b98823"/></linearGradient></defs><style>.a{opacity:.5}.b{fill:#468a1b;stroke:#0d3203;stroke-linejoin:round;stroke-width:.9}.c{fill:url(#g1);stroke:#1f7607;stroke-linejoin:round;stroke-width:.9}.d{fill:#3e711d;stroke:#0d3203;stroke-width:.9}.e{fill:#5ab023;stroke:#0d3203;stroke-linejoin:round;stroke-width:.9}.f{fill:#7ed04a;stroke:#0d3203;stroke-linejoin:round;stroke-width:.9}.g{fill:url(#g2);stroke:#856208;stroke-linejoin:round;stroke-width:1}.h{fill:url(#g3);stroke:#836008;stroke-linejoin:round;stroke-width:1}.i{fill-opacity:.5}.j{fill:url(#g4);stroke:#1f7607;stroke-linejoin:round;stroke-width:.9}.k{fill:url(#g5);stroke:#856208;stroke-linejoin:round;stroke-width:1}.l{fill:url(#g6);stroke:#836008;stroke-linejoin:round;stroke-width:1}.m{fill:url(#g7);stroke:#856208;stroke-linejoin:round;stroke-width:.9}.n{fill:url(#g8);stroke:#856208;stroke-linejoin:round;stroke-width:.9}.o{fill:url(#g9);stroke:#856208;stroke-linejoin:round;stroke-width:.9}.p{fill:url(#g10);stroke:#856208;stroke-linejoin:round;stroke-width:.9}.q{fill:url(#g11);stroke:#856208;stroke-linejoin:round;stroke-width:.9}.r{fill:url(#g12);stroke:#856208;stroke-linejoin:round;stroke-width:.9}.s{fill:url(#g13);stroke:#856208;stroke-linejoin:round;stroke-width:.9}.t{fill:url(#g14);stroke:#856208;stroke-linejoin:round;stroke-width:.9}</style><path class="a" d="m115.2 406.4l206.8 127.1 445.9-318.8-206.7-135.4z"/><path class="b" d="m150.3 366l210.1 136.6 411.3-295.7-210.2-136.5z"/><path class="b" d="m150.3 363l210.1 136.6 411.3-295.7-210.2-136.5z"/><path class="b" d="m150.3 360l210.1 136.6 411.3-295.7-210.2-136.5z"/><path class="b" d="m150.3 357l210.1 136.6 411.3-295.7-210.2-136.5z"/><path class="b" d="m150.3 354l210.1 136.6 411.3-295.7-210.2-136.5z"/><path class="b" d="m150.3 351l210.1 136.6 411.3-295.7-210.2-136.5z"/><path class="b" d="m150.3 348l210.1 136.6 411.3-295.7-210.2-136.5z"/><path class="b" d="m150.3 345l210.1 136.6 411.3-295.7-210.2-136.5z"/><path class="b" d="m150.3 342l210.1 136.6 411.3-295.7-210.2-136.5z"/><path class="b" d="m150.3 339l210.1 136.6 411.3-295.7-210.2-136.5z"/><path class="b" d="m150.3 336l210.1 136.6 411.3-295.7-210.2-136.5z"/><path class="b" d="m150.3 333l210.1 136.6 411.3-295.7-210.2-136.5z"/><path class="b" d="m150.3 330l210.1 136.6 411.3-295.7-210.2-136.5z"/><path class="b" d="m150.3 327l210.1 136.6 411.3-295.7-210.2-136.5z"/><path class="b" d="m150.3 324l210.1 136.6 411.3-295.7-210.2-136.5z"/><path class="b" d="m150.4 321l210.2 136.5 411.2-295.7-210.2-136.5z"/><path class="c" d="m197.5 322.2l366.7-263.6 157.7 102.4-366.7 263.7z"/><path class="d" d="m629.2 126.1c17.1 11.1 12.1 33.6-11.1 50.3-23.2 16.6-55.8 21.2-72.9 10.1-17-11.1-12.1-33.6 11.1-50.3 23.2-16.6 55.8-21.2 72.9-10.1z"/><path class="e" d="m397.2 384.4c11.7 7.6 7.7 23.5-8.9 35.4-16.6 11.9-39.5 15.5-51.2 7.8-11.7-7.6-7.8-23.4 8.8-35.3 16.6-12 39.5-15.5 51.3-7.9z"/><path class="e" d="m585 62.6c11.7 7.6 7.8 23.5-8.8 35.4-16.6 11.9-39.6 15.4-51.3 7.8-11.7-7.6-7.8-23.4 8.8-35.4 16.6-11.9 39.6-15.4 51.3-7.8z"/><path class="f" d="m516.2 199.8c34.9 22.6 37.5 59.5 5.8 82.3-31.7 22.8-85.7 22.9-120.6 0.2-34.9-22.7-37.5-59.5-5.8-82.3 31.7-22.8 85.7-22.9 120.6-0.2z"/><path class="d" d="m390 301.3c17.1 11 12.1 33.5-11.1 50.2-23.2 16.7-55.8 21.2-72.9 10.1-17-11.1-12.1-33.6 11.1-50.2 23.2-16.7 55.8-21.2 72.9-10.1z"/><path class="e" d="m256.8 298.6c11.7 7.6 7.8 23.4-8.8 35.3-16.6 12-39.5 15.5-51.3 7.9-11.7-7.6-7.7-23.5 8.9-35.4 16.6-11.9 39.5-15.5 51.2-7.8z"/><path class="e" d="m723.6 154.8c11.7 7.6 7.8 23.4-8.8 35.3-16.6 12-39.6 15.5-51.3 7.9-11.7-7.6-7.7-23.5 8.9-35.4 16.6-11.9 39.5-15.4 51.2-7.8z"/><path class="g" d="m645.3 300.3l-97.7 70.4-2.9-44.9 105.7-74.6z"/><path class="h" d="m323.5 180.4l109.1-78.6 217.8 150.3-105.8 73.2z"/><path class="i" d="m522 503c-23.7 0.9-45.6-9.2-45.6-20.3-1-2.6 0.3-4.5 0.9-5.5 0.8-1.3 2.2-2.1 3.5-3.4 0.6-0.6 2.4-0.3 3.2-0.9 7.6-5.9 30.6-28 46.8-28 24.4 0 54.3 14.7 54.3 25.7 0 2.8-14.1 13.8-16.3 16.1-6.6 7.3-28.5 15.6-46.8 16.3z"/><path class="a" d="m28.9 471.4l223.1 112.6 66.8-81-0.2-57.8 207.2-273-202.8-93z"/><path class="b" d="m14.5 432.5l227.2 113.3 283.7-379.1-227.2-113.4z"/><path class="b" d="m13.5 429.5l227.2 113.3 283.7-379.2-227.2-113.3z"/><path class="b" d="m13.3 426.4l227.3 113.3 283.6-379.1-227.2-113.4z"/><path class="b" d="m12.7 423l227.2 113.3 283.7-379.2-227.2-113.3z"/><path class="b" d="m12.4 419.9l227.2 113.3 283.6-379.2-227.2-113.3z"/><path class="b" d="m10.5 415.5l227.2 113.3 283.7-379.1-227.2-113.4z"/><path class="b" d="m11.5 416.5l227.2 113.3 283.7-379.2-227.2-113.3z"/><path class="b" d="m10.3 413.4l227.3 113.3 283.6-379.1-227.2-113.4z"/><path class="b" d="m9.7 410l227.2 113.3 283.7-379.2-227.2-113.3z"/><path class="b" d="m9.4 406.9l227.2 113.3 283.6-379.2-227.2-113.3z"/><path class="b" d="m8.5 403.5l227.2 113.3 283.7-379.1-227.2-113.4z"/><path class="b" d="m8.5 400.5l227.2 113.3 283.7-379.2-227.2-113.3z"/><path class="b" d="m7.3 397.4l227.3 113.3 283.6-379.1-227.2-113.4z"/><path class="b" d="m6.7 394l227.2 113.3 283.7-379.2-227.2-113.3z"/><path class="b" d="m6.4 390.9l227.2 113.3 283.6-379.2-227.2-113.3z"/><path class="b" d="m4.5 384.5l227.2 113.3 283.7-379.1-227.2-113.4z"/><path class="b" d="m5.5 387.5l227.2 113.3 283.7-379.2-227.2-113.3z"/><path class="b" d="m4.4 384.2l227.2 113.3 283.7-379.2-227.2-113.3z"/><path class="j" d="m47 378.2l252.9-338 170.5 85-253 338.1z"/><path class="d" d="m377.4 102.2c18.4 9.2 20.4 34 4.4 55.4-16 21.3-43.9 31.2-62.3 22-18.5-9.2-20.5-34-4.5-55.3 16-21.4 43.9-31.3 62.4-22.1z"/><path class="e" d="m243.5 413.8c12.6 6.3 13.6 23.9 2.2 39.2-11.5 15.3-31 22.5-43.7 16.2-12.6-6.3-13.6-23.8-2.2-39.1 11.5-15.3 31-22.6 43.7-16.3z"/><path class="e" d="m319.7 41.2c12.6 6.3 13.6 23.9 2.2 39.2-11.5 15.3-31 22.5-43.7 16.2-12.7-6.3-13.6-23.8-2.2-39.1 11.4-15.3 31-22.6 43.7-16.3z"/><path class="f" d="m297.3 198.3c37.7 18.8 50.5 57.7 28.7 87-21.9 29.2-70.2 37.6-107.9 18.8-37.7-18.8-50.6-57.7-28.7-86.9 21.9-29.3 70.2-37.7 107.9-18.9z"/><path class="d" d="m213.3 326.1c18.4 9.2 20.4 34 4.4 55.4-16 21.4-43.9 31.2-62.3 22-18.5-9.2-20.5-34-4.5-55.3 16-21.4 43.9-31.3 62.4-22.1z"/><path class="e" d="m93.3 343.8c12.6 6.3 13.6 23.8 2.2 39.1-11.5 15.3-31 22.6-43.7 16.3-12.6-6.3-13.6-23.8-2.2-39.1 11.5-15.3 31-22.6 43.7-16.3z"/><path class="e" d="m470.1 118.2c12.7 6.3 13.7 23.9 2.2 39.2-11.4 15.3-31 22.5-43.6 16.2-12.7-6.3-13.7-23.8-2.2-39.1 11.4-15.3 31-22.6 43.6-16.3z"/><path class="k" d="m438.8 283.7l-70.6 94.5-13.4-45.8 73.4-95.9z"/><path class="l" d="m125 218.5l75.4-101.1 228 119.2-73.8 96.6z"/><path class="m" d="m546 488c-24.3 0-44-8.9-44-20 0-3.3 0.1-9.7 0.3-9.7 0.5-0.1 87.6 1.3 87.6 1.4 0 0.2 0.1 5.4 0.1 8.3 0 11.1-19.7 20-44 20z"/><path class="n" d="m546 480c-24.3 0-44-8.9-44-20 0-11.1 19.7-20 44-20 24.3 0 44 8.9 44 20 0 11.1-19.7 20-44 20z"/><path class="o" d="m545 477c-24.3 0-44-8.9-44-20 0-3.3 0.1-9.7 0.3-9.7 0.5-0.1 87.6 1.3 87.6 1.4 0 0.2 0.1 5.4 0.1 8.3 0 11.1-19.7 20-44 20z"/><path class="p" d="m545 469c-24.3 0-44-8.9-44-20 0-11.1 19.7-20 44-20 24.3 0 44 8.9 44 20 0 11.1-19.7 20-44 20z"/><path class="q" d="m542 468c-24.3 0-44-8.9-44-20 0-3.3 0.1-9.7 0.3-9.7 0.5-0.1 87.6 1.3 87.6 1.4 0 0.2 0.1 5.4 0.1 8.3 0 11.1-19.7 20-44 20z"/><path class="r" d="m542 460c-24.3 0-44-8.9-44-20 0-11.1 19.7-20 44-20 24.3 0 44 8.9 44 20 0 11.1-19.7 20-44 20z"/><path class="a" d="m586.9 477.4c-3.4 2-1 1.3-5 0.8-6.6-0.8-9.8 0-15.1-1.3-7.8 2.9-5.9-6.4-8.4-18.2-4.9-5.7-6.9-11.4-5.1-16.1 4.1-10.2 25.6-11.3 48.3-2.4 22.6 9 37.6 24.5 33.5 34.8-4 10.3-25.6 11.4-48.2 2.4z"/><path class="s" d="m589.3 469.9c-21-12.2-33.6-29.8-28-39.4 1.7-2.8 5-8.3 5.1-8.2 0.5 0.2 75.1 45.1 75.1 45.2-0.1 0.2-2.6 4.7-4.1 7.2-5.6 9.6-27.1 7.5-48.1-4.8z"/><path class="t" d="m593.3 463c-21-12.2-33.5-29.8-28-39.4 5.6-9.5 27.1-7.4 48.1 4.8 21 12.2 33.6 29.9 28 39.4-5.5 9.6-27 7.4-48.1-4.8z"/></svg>