<svg version="1.2" xmlns="http://www.w3.org/2000/svg" viewBox="0 0 253 96" width="253" height="96"><defs><clipPath clipPathUnits="userSpaceOnUse" id="cp1"><path d="m16.35 64.25q-1.1-8.25-0.55-20.1 0.95-13.3 1.05-20.1 20.9-6.55 48.7-11.8 28.9-5.45 60.8-8.6 35.65-3.6 67.8-3.65 31-0.05 53.05 3.15-0.35 8.75-0.15 11.6 0.15 2.55 1.3 11.5-11.75 12.85-46.25 24.05-33.3 10.8-69.65 14.4-32.7 3.3-64.65 2.9-27.8-0.35-51.45-3.35z"/></clipPath><clipPath clipPathUnits="userSpaceOnUse" id="cp2"><path d=""/></clipPath><linearGradient id="P" gradientUnits="userSpaceOnUse"/><radialGradient id="g1" cx="0" cy="0" r="1" href="#P" gradientTransform="matrix(152.842,-15.3,15.3,152.842,129.948,34.116)"><stop/><stop offset=".79"/><stop offset="1"/></radialGradient><clipPath clipPathUnits="userSpaceOnUse" id="cp3"><path d="m16.8 65.15q0.95-13.3 1.05-20.1 20.9-6.55 48.7-11.8 28.9-5.45 60.8-8.6 35.65-3.6 67.8-3.65 31-0.05 53.05 3.15-0.35 8.75-0.15 11.6 0.15 2.55 1.3 11.5-11.75 12.85-46.25 24.05-33.3 10.8-69.65 14.4-32.7 3.3-64.65 2.9-27.8-0.35-51.45-3.35-1.1-8.25-0.55-20.1z"/></clipPath><clipPath clipPathUnits="userSpaceOnUse" id="cp4"><path d=""/></clipPath><radialGradient id="g2" cx="0" cy="0" r="1" href="#P" gradientTransform="matrix(152.842,-15.3,15.3,152.842,130.944,55.115)"><stop/><stop offset=".79"/><stop offset="1"/></radialGradient><clipPath clipPathUnits="userSpaceOnUse" id="cp5"><path d="m118.35 26.35q-2 1.3-4.05 1.65-1.3 0.25-4.45 0.25-7 0-10.55-0.15-6-0.2-10.55-0.95l4.95-0.7q7.45-1.15 46.7-6.55-7.25 2.05-15.95 4.35-2.2 0.5-3.2 0.75-1.6 0.5-2.9 1.35z"/></clipPath><clipPath clipPathUnits="userSpaceOnUse" id="cp6"><path d=""/></clipPath><linearGradient id="g3" x2="1" href="#P" gradientTransform="matrix(4.101,31.601,-5.109,.663,114.224,20.801)"><stop stop-color="#fed785"/><stop offset=".25" stop-color="#fff"/><stop offset="1" stop-color="#fff"/></linearGradient><clipPath clipPathUnits="userSpaceOnUse" id="cp7"><path d="m12.35 40.75q0.35-2.15 0.4-3.15 0.15-1.75-0.75-2.15v-0.1l19.9-1.95q23.05-2.25 38.9-4.05 6.4 0.7 19.25 2.25 5 0.65 11.3 0.65l4.65 0.05q2.8 0.05 4.65-0.05 5.85-0.25 13.65-2.45 0.95-0.25 13.2-4.15 5.2-1.6 12.4-4.25 4.1-1.55 12.3-4.6l14.4-2.2q11.95-1.95 40.65-6.9 23.3-3.95 25.8-3.95h4.1l0.75 5.6-0.55-0.1q-1-0.15-3.1 0.45-7.75 1.9-14.75 3.1-11.15 2.1-16.75 3.1-9.7 1.8-16.75 2.85 4.45 0.05 10.35-0.5 1.4-0.15 10.25-1.2 20.7-2.4 31.8-3.15l0.55 5.65q-7.5-0.55-13.6 0.2-6.25 0.7-14.35 2.7-7.45 1.8-13.65 2.3l4 0.5-38.5 3q-4.85 0.4-14.2 1.9-9.3 1.45-13.8 2.6-4.75 1.2-10.5 4.5-5.95 3.45-4.5 4.5 1.75 1.3 5.15 2.4 4.05 1.25 8.85 1.6 8.6 0.6 12.3 0.55 7.6-0.1 11.2-2.05 2.75-1.5 7.25-3.85 2.85-1.85 1.25-3.15-1.8-1.45-4-2-2-0.5-5.5-0.5-4.5 0-6.35 0.2-3.15 0.3-4.15 1.3-0.65 0.65 3.7 0.55 5.65-0.1 7.8 0.95 2.65 1.35 0.4 1.75-1.4 0.25-6.4 0.25-7.85 0.25-12.25 0.2-8.15-0.15-6.25-1.7 7-5.8 27-7 9.95-0.6 19.5-1.75 12.45-1.5 15-1.75 5.5-0.5 14.55-1 7.3-0.65 11.95-2.5 4.45-1.8 9.8-1.9 3.05-0.05 8.5 0.35l0.25 5.3q-0.45 0.25-1.4 0.5-1.25 0.25-1.4 0.3-2.2 0.8-3.3 1.15-1.9 0.65-3.35 0.75 8-0.15 9.55-0.2 0.1 2.55 0.25 3.75h-0.4q-0.7-0.05-2.9 0.3-8.85 1.35-13.25 2-7.9 1.2-13.25 2.25-19.75 4-28.2 5.4-3.1 0.2-5.05 0.35-3.65 0.25-4.8 1.05 3.65 0.75 9.45 0.2 3.3-0.3 9.4-1.1 10.4-0.95 24.75-2.9 8.25-1.1 24.7-3.45l0.2 1.4q-1.05 0.5-2.9 0.85-2 0.35-2.75 0.5-2.75 0.6-4.15 0.9-2.5 0.55-4.2 0.75 6.1 0 14.35-0.6l0.15 0.6q-3.75 0.6-5.35 0.85-11.95 1.85-25.2 5.1l-34-0.45q-1.55 0.55-3.4 0.65-8.7 1.35-17.5 3.25-3.55 0.6-5.55 1-3.6 0.8-5.3 2 3.2 0.8 9.7-0.35 3.5-0.6 9.35-1.8 15.2-2.05 45.6-4.05l-5.5 1.45q-6.55 1.2-14.4 3.85-10.39 2.45-17.3 2.5-3.1 0.05-7.2 0.7-1.35 0.2-7.1 1.3-8 1.45-11.9 2.4-6.45 1.6-11.45 3.85-3.05 1.2-4.6 1.85-0.9 0.4-3 1.8l-7.15 0.7q0.95-0.95 1.75-1.45 0.65-0.45 2-0.95 1.45-0.55 1.95-0.8 5.2-3 9.5-6.7 2.8-2.4 2.9-2.55 1.3-1.65-0.25-3.3-1.05-1.1-3.9-1.25-3.2 0-4.35-0.15-9-0.95-14.5-0.95-1.65 0-4 0.6-3.2 0.8-3.95 0.9-5.05 0.8-11.9 3.15-4.25 1.4-6.8 2.35-1.3 0.5-3.85 0.95-2.7 0.5-3.85 0.9-10.3 3.5-21.15 4.4 2.55-0.5 5.1-1.2l0.4-0.1q-7.4-0.1-16.99 1.4-5.46 0.8-16.76 3.15-12 2.39-23.62 3.97 1.62-0.25-1.92 0.18l-1.11-5.8-0.3-6.55 1.7-0.95q7.6-1 15.96-2.5 25.89-4.7 38.84-6.85 0.8-0.1 6.7-0.95 4.1-0.55 6.65-1.1-2.8 0.2-10.4 0.4-6.6 0.2-10.45 0.6-9.05 1.15-13.55 1.65-7.9 0.95-13.65 0.9l-22.05-0.05q-0.1-1.4-0.7-3.85-0.55-2.5-0.7-3.85l10.65-1.1q4.05-0.35 12.25-0.9 7.4-0.55 12.25-1.4l1.75-0.4q-1.5 0.05-4.55 0-2.7-0.09-3.55 0-3.29 0.25-8.8 0.95-6.54 0.85-8.85 1.1-6.14 0.65-11.25 0.85c0 0 0.05-1.35 0.05-1.35zm42.3-2.6q-1.65 0.1-5.35 1.05 3.9-0.1 5.35-1.05zm-20.25 23.45q4.45-0.15 7.5-0.4 6.95-0.85 16.65-1.75 10.3-1.2 23.8-4.35 7.85-1.8 23.5-5.85l-32.5 6q-3.35-0.25-8.7 0.55-8.2 1.25-8.65 1.3-7.55 0.6-11.3 0.95-6.6 0.65-11.25 1.7-4.95 1-6.6 2.05 2.55-0.1 7.55-0.2z"/></clipPath><clipPath clipPathUnits="userSpaceOnUse" id="cp8"><path d=""/></clipPath><linearGradient id="g4" x2="1" href="#P" gradientTransform="matrix(4.101,31.601,-9.014,1.17,128.691,18.949)"><stop stop-color="#fed785"/><stop offset=".25" stop-color="#fff"/><stop offset="1" stop-color="#fff"/></linearGradient><clipPath clipPathUnits="userSpaceOnUse" id="cp9"><path d="m17.95 76.1l-0.6 0.15-1.15 0.1-0.55-3.15 11.5-2 1.05 0.1q-0.1 0.2-0.4 0.5l2.4-0.7q3.25-0.4 3.55-0.4 1.7-0.05 5.1 0.05 2.25-0.05 5.7-0.45 4.55-0.5 5.7-0.6 2.3-0.2 7.3 0.05 4.75 0.25 7.25 0 1.05-0.1 2.8-0.65 1.9-0.65 2.75-0.8 0.95-0.15 2.75-0.1 1.9 0 2.75-0.1 8.2-0.75 21.25-5.3 15.75-5.55 21-6.7 2.1-0.5 4.9-0.4 1.1 0.05 4.85 0.4 3 0.35 3.45 0.45 2.3 0.5 2.95 1.65 1.55 2.65-2.05 5.65-0.45 0.35-5.85 3.75-2.7 1.7-6.05 2.25-3.65 0.6-6.45-0.5-2.25-0.9-0.8-2.55 1-1.15 3.3-2.2 2.9-1.35 7.45-0.8-0.15 0.9-0.85 1.5-0.3 0.3-1.45 0.95 2.5-0.1 3.3-0.25 1.75-0.35 2.95-1.4 1.2-1.05 1.5-2.7 0.4-1.8-0.75-2.8-0.9-0.75-3-0.5-0.95 0.1-3.15 0.65-6.15 1.45-11.05 3.4-8.8 3.45-6.6 6.1 0.4 0.5 1.95 0.9 2 0.55 2.3 0.7 0.6 0.25 1.75 0.75l-15.95 1.5q-8.05-1.45-12.1-1.95-6.5-0.8-15.15-0.65-3.75 0.05-15.2 0.55-7.95 0.4-17.3 2-6.95 1.2-17.05 3.55z"/></clipPath><clipPath clipPathUnits="userSpaceOnUse" id="cp10"><path d=""/></clipPath><linearGradient id="g5" x2="1" href="#P" gradientTransform="matrix(4.101,31.601,-5.485,.712,70.012,26.548)"><stop stop-color="#fed785"/><stop offset=".25" stop-color="#fff"/><stop offset="1" stop-color="#fff"/></linearGradient><clipPath clipPathUnits="userSpaceOnUse" id="cp11"><path d="m16.55 78.5l5.75-0.25-5.65 0.8z"/></clipPath><clipPath clipPathUnits="userSpaceOnUse" id="cp12"><path d=""/></clipPath><linearGradient id="g6" x2="1" href="#P" gradientTransform="matrix(4.101,31.551,-4.393,.571,13.649,33.928)"><stop stop-color="#fed785"/><stop offset=".25" stop-color="#fff"/><stop offset="1" stop-color="#fff"/></linearGradient><clipPath clipPathUnits="userSpaceOnUse" id="cp13"><path d="m23.05 41.9l-10.65 1.1-0.1-0.9q5.1-0.2 11.25-0.85 2.3-0.25 8.85-1.1 5.5-0.7 8.8-0.95 0.85-0.09 3.55 0 3.05 0.05 4.55 0l-1.75 0.4q-4.85 0.85-12.25 1.4-8.2 0.55-12.25 0.9z"/></clipPath><clipPath clipPathUnits="userSpaceOnUse" id="cp14"><path d=""/></clipPath><linearGradient id="g7" x2="1" href="#P" gradientTransform="matrix(4.101,31.576,-3.286,.427,29.645,31.814)"><stop stop-color="#fed785"/><stop offset=".25" stop-color="#fff"/><stop offset="1" stop-color="#fff"/></linearGradient><clipPath clipPathUnits="userSpaceOnUse" id="cp15"><path d="m49.3 39.2q3.7-0.95 5.35-1.05-1.45 0.95-5.35 1.05z"/></clipPath><clipPath clipPathUnits="userSpaceOnUse" id="cp16"><path d=""/></clipPath><linearGradient id="g8" x2="1" href="#P" gradientTransform="matrix(4.101,31.601,-6.201,.805,50.726,29.046)"><stop stop-color="#fed785"/><stop offset=".25" stop-color="#fff"/><stop offset="1" stop-color="#fff"/></linearGradient><clipPath clipPathUnits="userSpaceOnUse" id="cp17"><path d="m15.75 58.6l11.4-6.45h-13.25l-0.1-1.45 22.05 0.05q5.75 0.05 13.65-0.9 4.5-0.5 13.55-1.65 3.85-0.4 10.45-0.6 7.6-0.2 10.4-0.4-2.55 0.55-6.65 1.1-5.9 0.85-6.7 0.95-12.95 2.15-38.85 6.85-8.35 1.5-15.95 2.5z"/></clipPath><clipPath clipPathUnits="userSpaceOnUse" id="cp18"><path d=""/></clipPath><linearGradient id="g9" x2="1" href="#P" gradientTransform="matrix(4.101,31.601,-5.137,.667,46.303,29.65)"><stop stop-color="#fed785"/><stop offset=".25" stop-color="#fff"/><stop offset="1" stop-color="#fff"/></linearGradient><clipPath clipPathUnits="userSpaceOnUse" id="cp19"><path d="m244.25 9.7q2.1-0.6 3.1-0.45l0.55 0.1 0.5 4.55q-11.1 0.75-31.8 3.15-8.85 1.05-10.25 1.2-5.9 0.55-10.35 0.5 7.05-1.05 16.75-2.85 5.6-1 16.75-3.1 7-1.2 14.75-3.1z"/></clipPath><clipPath clipPathUnits="userSpaceOnUse" id="cp20"><path d=""/></clipPath><linearGradient id="g10" x2="1" href="#P" gradientTransform="matrix(4.101,31.601,-5.749,.746,221.035,6.94)"><stop stop-color="#fed785"/><stop offset=".25" stop-color="#fff"/><stop offset="1" stop-color="#fff"/></linearGradient><clipPath clipPathUnits="userSpaceOnUse" id="cp21"><path d="m249.4 28l0.1 2.5q-1.56 0.05-9.55 0.2 1.45-0.1 3.35-0.75 1.1-0.35 3.3-1.15 0.15-0.05 1.4-0.3 0.95-0.25 1.4-0.5z"/></clipPath><clipPath clipPathUnits="userSpaceOnUse" id="cp22"><path d=""/></clipPath><linearGradient id="g11" x2="1" href="#P" gradientTransform="matrix(4.101,31.601,-8.933,1.159,241.424,4.291)"><stop stop-color="#fed785"/><stop offset=".25" stop-color="#fff"/><stop offset="1" stop-color="#fff"/></linearGradient><clipPath clipPathUnits="userSpaceOnUse" id="cp23"><path d="m225.5 41.8q-14.34 1.95-24.75 2.9-6.1 0.8-9.4 1.1-5.8 0.55-9.45-0.2 1.15-0.8 4.8-1.05 1.95-0.15 5.05-0.35 8.45-1.4 28.2-5.4 5.35-1.05 13.25-2.25 4.4-0.65 13.25-2 2.2-0.35 2.9-0.3h0.4q0.15 2.15 0.45 4.1-16.45 2.35-24.7 3.45z"/></clipPath><clipPath clipPathUnits="userSpaceOnUse" id="cp24"><path d=""/></clipPath><linearGradient id="g12" x2="1" href="#P" gradientTransform="matrix(4.101,31.601,-5.454,.708,211.702,8.144)"><stop stop-color="#fed785"/><stop offset=".25" stop-color="#fff"/><stop offset="1" stop-color="#fff"/></linearGradient><clipPath clipPathUnits="userSpaceOnUse" id="cp25"><path d="m236.4 42.75q1.7-0.2 4.2-0.75 1.4-0.3 4.15-0.9 0.75-0.15 2.75-0.5 1.85-0.35 2.9-0.85l0.35 2.4q-8.25 0.6-14.35 0.6z"/></clipPath><clipPath clipPathUnits="userSpaceOnUse" id="cp26"><path d=""/></clipPath><linearGradient id="g13" x2="1" href="#P" gradientTransform="matrix(4.101,31.625,-6.607,.857,238.673,4.584)"><stop stop-color="#fed785"/><stop offset=".25" stop-color="#fff"/><stop offset="1" stop-color="#fff"/></linearGradient><clipPath clipPathUnits="userSpaceOnUse" id="cp27"><path d="m19.95 72.35q1.25-0.25 3.6-0.8 2.05-0.45 3.6-0.35l-11.5 2-0.05-0.4 0.75-0.05q1.6 0 3.6-0.4z"/></clipPath><clipPath clipPathUnits="userSpaceOnUse" id="cp28"><path d=""/></clipPath><linearGradient id="g14" x2="1" href="#P" gradientTransform="matrix(4.101,31.601,-5.526,.717,16.379,33.497)"><stop stop-color="#fed785"/><stop offset=".25" stop-color="#fff"/><stop offset="1" stop-color="#fff"/></linearGradient><clipPath clipPathUnits="userSpaceOnUse" id="cp29"><path d="m15.45 71.9q3.54-0.44 1.93-0.18 11.61-1.58 23.62-3.97 11.3-2.35 16.75-3.15 9.6-1.5 17-1.4l-0.4 0.1q-2.55 0.7-5.1 1.2l-4.9 0.25-48.8 7.85z"/></clipPath><clipPath clipPathUnits="userSpaceOnUse" id="cp30"><path d=""/></clipPath><linearGradient id="g15" x2="1" href="#P" gradientTransform="matrix(4.101,31.6,-5.013,.651,40.282,30.403)"><stop stop-color="#fed785"/><stop offset=".25" stop-color="#fff"/><stop offset="1" stop-color="#fff"/></linearGradient><clipPath clipPathUnits="userSpaceOnUse" id="cp31"><path d="m56 57.1q0.45-0.05 8.65-1.3 5.35-0.8 8.7-0.55l32.5-6q-15.65 4.05-23.5 5.85-13.5 3.15-23.8 4.35-9.7 0.9-16.65 1.75-3.05 0.25-7.5 0.4-5 0.1-7.55 0.2 1.65-1.05 6.6-2.05 4.65-1.05 11.25-1.7 3.75-0.35 11.3-0.95z"/></clipPath><clipPath clipPathUnits="userSpaceOnUse" id="cp32"><path d=""/></clipPath><linearGradient id="g16" x2="1" href="#P" gradientTransform="matrix(4.101,31.576,-5.016,.651,62.715,27.51)"><stop stop-color="#fed785"/><stop offset=".25" stop-color="#fff"/><stop offset="1" stop-color="#fff"/></linearGradient><clipPath clipPathUnits="userSpaceOnUse" id="cp33"><path d="m235.35 19.75q6.1-0.75 13.6-0.2l0.2 3.15q-5.45-0.4-8.5-0.35-5.35 0.1-9.8 1.9-4.65 1.85-11.95 2.5-9.05 0.5-14.55 1-2.55 0.25-15 1.75-9.55 1.15-19.5 1.75-20 1.2-27 7-1.9 1.55 6.25 1.7 4.4 0.05 12.25-0.2 5 0 6.4-0.25 2.25-0.4-0.4-1.75-2.15-1.05-7.8-0.95-4.35 0.1-3.7-0.55 1-1 4.15-1.3 1.85-0.2 6.35-0.2 3.5 0 5.5 0.5 2.2 0.55 4 2 1.6 1.3-1.25 3.15-4.5 2.35-7.25 3.85-3.6 1.95-11.2 2.05-3.7 0.05-12.3-0.55-4.8-0.35-8.85-1.6-3.4-1.1-5.15-2.4-1.45-1.05 4.5-4.5 5.75-3.3 10.5-4.5 4.5-1.15 13.8-2.6 9.35-1.5 14.2-1.9l38.5-3-4-0.5q6.2-0.5 13.65-2.3 8.1-2 14.35-2.7z"/></clipPath><clipPath clipPathUnits="userSpaceOnUse" id="cp34"><path d=""/></clipPath><linearGradient id="g17" x2="1" href="#P" gradientTransform="matrix(4.101,31.601,-7.13,.925,186.793,11.396)"><stop stop-color="#fed785"/><stop offset=".25" stop-color="#fff"/><stop offset="1" stop-color="#fff"/></linearGradient><clipPath clipPathUnits="userSpaceOnUse" id="cp35"><path d="m122.35 59.25q2.2-0.55 3.15-0.65 2.1-0.25 3 0.5 1.15 1 0.75 2.8-0.3 1.65-1.5 2.7-1.2 1.05-2.95 1.4-0.8 0.15-3.3 0.25 1.15-0.65 1.45-0.95 0.7-0.6 0.85-1.5-4.55-0.55-7.45 0.8-2.3 1.05-3.3 2.2-1.45 1.65 0.8 2.55 2.8 1.1 6.45 0.5 3.35-0.55 6.05-2.25 5.4-3.4 5.85-3.75 3.6-3 2.05-5.65-0.65-1.15-2.95-1.65-0.45-0.1-3.45-0.45-3.75-0.35-4.85-0.4-2.8-0.1-4.9 0.4-5.25 1.15-21 6.7-13.05 4.55-21.25 5.3-0.85 0.1-2.75 0.1-1.8-0.05-2.75 0.1-0.85 0.16-2.75 0.8-1.75 0.55-2.8 0.65-2.5 0.26-7.25 0-5-0.25-7.3-0.05-1.15 0.1-5.7 0.6-3.45 0.4-5.7 0.45-3.4-0.1-5.1-0.05-0.3 0-3.55 0.4l-2.4 0.7q0.3-0.3 0.4-0.5l-1.05-0.1q8.9-1.55 19.95-3.2 3.7-0.55 11.1-1.6 6.5-0.95 11.05-1.9 10.85-0.9 21.15-4.4 1.15-0.4 3.85-0.9 2.55-0.45 3.85-0.95 2.55-0.95 6.8-2.35 6.85-2.35 11.9-3.15 0.75-0.1 3.95-0.9 2.35-0.6 4-0.6 5.5 0 14.5 0.95 1.15 0.15 4.35 0.15 2.85 0.15 3.9 1.25 1.55 1.65 0.25 3.3-0.1 0.15-2.9 2.55-4.3 3.7-9.5 6.7-0.5 0.25-1.95 0.8-1.35 0.5-2 0.95-0.8 0.5-1.75 1.45l-6.85 0.65q-4.4-0.1-6.8 0.35-1.2 0.1-1.5 0.15-0.4 0.05-0.55 0.3l-3.25 0.3q-1.15-0.5-1.75-0.75-0.3-0.15-2.3-0.7-1.55-0.4-1.95-0.9-2.2-2.65 6.6-6.1 4.9-1.95 11.05-3.4z"/></clipPath><clipPath clipPathUnits="userSpaceOnUse" id="cp36"><path d=""/></clipPath><linearGradient id="g18" x2="1" href="#P" gradientTransform="matrix(4.101,31.601,-5.359,.695,82.773,24.895)"><stop stop-color="#fed785"/><stop offset=".25" stop-color="#fff"/><stop offset="1" stop-color="#fff"/></linearGradient><clipPath clipPathUnits="userSpaceOnUse" id="cp37"><path d="m27.15 71.2q-1.55-0.1-3.6 0.35-2.35 0.55-3.6 0.8-2 0.4-3.6 0.4l-0.75 0.05-0.05-0.2 48.8-7.85 4.9-0.25q-4.55 0.95-11.05 1.9-7.4 1.05-11.1 1.6-11.05 1.65-19.95 3.2z"/></clipPath><clipPath clipPathUnits="userSpaceOnUse" id="cp38"><path d=""/></clipPath><linearGradient id="g19" x2="1" href="#P" gradientTransform="matrix(4.101,31.601,-4.884,.634,37.497,30.75)"><stop stop-color="#fed785"/><stop offset=".25" stop-color="#fff"/><stop offset="1" stop-color="#fff"/></linearGradient><clipPath clipPathUnits="userSpaceOnUse" id="cp39"><path d="m16.2 76.35l1.15-0.1-1.15 0.25z"/></clipPath><clipPath clipPathUnits="userSpaceOnUse" id="cp40"><path d=""/></clipPath><linearGradient id="g20" x2="1" href="#P" gradientTransform="matrix(4.101,31.601,-6.821,.885,11.297,34.151)"><stop stop-color="#fed785"/><stop offset=".25" stop-color="#fff"/><stop offset="1" stop-color="#fff"/></linearGradient><clipPath clipPathUnits="userSpaceOnUse" id="cp41"><path d="m162.2 16.8q-8.2 3.05-12.3 4.6-7.2 2.65-12.4 4.25-12.25 3.9-13.2 4.15-7.8 2.2-13.65 2.45-1.85 0.1-4.65 0.05l-4.65-0.05q-6.3 0-11.3-0.65-12.85-1.55-19.25-2.25 11.95-1.4 17.95-2.2 4.55 0.75 10.55 0.95 3.55 0.15 10.55 0.15 3.15 0 4.45-0.25 2.05-0.35 4.05-1.65 1.3-0.85 2.89-1.35 1.01-0.25 3.21-0.75 8.7-2.3 15.95-4.35 12.1-1.6 21.8-3.1z"/></clipPath><clipPath clipPathUnits="userSpaceOnUse" id="cp42"><path d=""/></clipPath><linearGradient id="g21" x2="1" href="#P" gradientTransform="matrix(4.101,31.601,-5.364,.696,116.172,20.545)"><stop stop-color="#fed785"/><stop offset=".25" stop-color="#fff"/><stop offset="1" stop-color="#fff"/></linearGradient><clipPath clipPathUnits="userSpaceOnUse" id="cp43"><path d="m220.35 48.7l-1.1 0.25q-30.4 2-45.6 4.05-5.85 1.2-9.35 1.8-6.5 1.15-9.7 0.35 1.7-1.2 5.3-2 2-0.4 5.55-1 8.8-1.9 17.5-3.25 1.85-0.1 3.4-0.65z"/></clipPath><clipPath clipPathUnits="userSpaceOnUse" id="cp44"><path d=""/></clipPath><linearGradient id="g22" x2="1" href="#P" gradientTransform="matrix(4.101,31.601,-3.473,.451,182.296,11.946)"><stop stop-color="#fed785"/><stop offset=".25" stop-color="#fff"/><stop offset="1" stop-color="#fff"/></linearGradient><clipPath clipPathUnits="userSpaceOnUse" id="cp45"><path d="m136.8 68.65q2.1-1.4 3-1.8 1.55-0.65 4.6-1.85 5-2.25 11.45-3.85 3.9-0.95 11.9-2.4 5.75-1.1 7.1-1.3 4.1-0.65 7.2-0.7 6.9-0.05 17.3-2.5-7.45 2.55-11.4 3.9-5.5 1.9-16.6 5.3l-12.9 2.5q-4.8 1-21.65 2.7z"/></clipPath><clipPath clipPathUnits="userSpaceOnUse" id="cp46"><path d=""/></clipPath><linearGradient id="g23" x2="1" href="#P" gradientTransform="matrix(4.101,31.601,-7.278,.944,161.998,14.597)"><stop stop-color="#fed785"/><stop offset=".25" stop-color="#fff"/><stop offset="1" stop-color="#fff"/></linearGradient><clipPath clipPathUnits="userSpaceOnUse" id="cp47"><path d="m225.35 49.5q-5.4 0-6.7 0.15-2.4 0.3-4.9 0.75l5.5-1.45 3.6-0.2-2.5-0.05q13.25-3.25 25.2-5.1 1.6-0.25 5.35-0.85l0.5 2.6q-5.85 0.25-7.1 0.35-4.1 0.35-6.95 1.15-0.95 0.25-2.7 1-1.8 0.75-2.7 1-2.4 0.65-6.6 0.65z"/></clipPath><clipPath clipPathUnits="userSpaceOnUse" id="cp48"><path d=""/></clipPath><linearGradient id="g24" x2="1" href="#P" gradientTransform="matrix(4.101,31.601,-6.422,.833,227.163,6.143)"><stop stop-color="#fed785"/><stop offset=".25" stop-color="#fff"/><stop offset="1" stop-color="#fff"/></linearGradient><clipPath clipPathUnits="userSpaceOnUse" id="cp49"><path d="m116 70.35q2.4-0.45 6.8-0.35l-8.85 0.8q0.15-0.25 0.55-0.3 0.3-0.05 1.5-0.15z"/></clipPath><clipPath clipPathUnits="userSpaceOnUse" id="cp50"><path d=""/></clipPath><linearGradient id="g25" x2="1" href="#P" gradientTransform="matrix(4.101,31.65,-2.926,.379,111.978,21.018)"><stop stop-color="#fed785"/><stop offset=".25" stop-color="#fff"/><stop offset="1" stop-color="#fff"/></linearGradient><clipPath clipPathUnits="userSpaceOnUse" id="cp51"><path d="m220.35 48.7l2.5 0.05-3.6 0.2z"/></clipPath><clipPath clipPathUnits="userSpaceOnUse" id="cp52"><path d=""/></clipPath><linearGradient id="g26" x2="1" href="#P" gradientTransform="matrix(4.101,31.601,-2.184,.283,215.711,7.643)"><stop stop-color="#fed785"/><stop offset=".25" stop-color="#fff"/><stop offset="1" stop-color="#fff"/></linearGradient><clipPath clipPathUnits="userSpaceOnUse" id="cp53"><path d="m25.5 75.6l-8.15 0.65 0.6-0.15q10.1-2.35 17.05-3.55 9.35-1.6 17.3-2 11.45-0.5 15.2-0.55 8.65-0.15 15.15 0.65 4.05 0.51 12.1 1.95-15.15 1.55-17 1.75-1.4-0.05-3.5 0.1-2.25 0.2-3.25 0.25-9.5-0.9-14.25-1-10.1-0.15-31.25 1.9z"/></clipPath><clipPath clipPathUnits="userSpaceOnUse" id="cp54"><path d=""/></clipPath><linearGradient id="g27" x2="1" href="#P" gradientTransform="matrix(4.101,31.601,-2.561,.332,50.177,29.146)"><stop stop-color="#fed785"/><stop offset=".25" stop-color="#fff"/><stop offset="1" stop-color="#fff"/></linearGradient><clipPath clipPathUnits="userSpaceOnUse" id="cp55"><path d="m22.3 78.25l-5.75 0.25-0.1-0.55q4-0.3 11.85-0.6h0.5z"/></clipPath><clipPath clipPathUnits="userSpaceOnUse" id="cp56"><path d=""/></clipPath><linearGradient id="g28" x2="1" href="#P" gradientTransform="matrix(4.101,31.625,-2.951,.383,16.888,33.389)"><stop stop-color="#fed785"/><stop offset=".25" stop-color="#fff"/><stop offset="1" stop-color="#fff"/></linearGradient><clipPath clipPathUnits="userSpaceOnUse" id="cp57"><path d="m16.45 77.95l-0.25-1.45 1.15-0.25 8.15-0.65q21.15-2.05 31.25-1.9 4.75 0.1 14.25 1l-1.1 0.05q-4.5 0-6.7 0.1l-1.85-0.15q-2.6-0.1-13.1 0-3.25 0.05-7.15 0.7-2.3 0.4-7.05 1.45-2.9 0.15-5.25 0.5h-0.5q-7.85 0.3-11.85 0.6z"/></clipPath><clipPath clipPathUnits="userSpaceOnUse" id="cp58"><path d=""/></clipPath><linearGradient id="g29" x2="1" href="#P" gradientTransform="matrix(4.101,31.601,-2.455,.319,37.782,30.752)"><stop stop-color="#fed785"/><stop offset=".25" stop-color="#fff"/><stop offset="1" stop-color="#fff"/></linearGradient><clipPath clipPathUnits="userSpaceOnUse" id="cp59"><path d="m48.25 74.7q10.5-0.1 13.1 0l1.85 0.15q-3.85 0.1-7.3 0.5-10.8 1.25-19.45 1.4l-2.4 0.1q4.75-1.05 7.05-1.45 3.9-0.65 7.15-0.7z"/></clipPath><clipPath clipPathUnits="userSpaceOnUse" id="cp60"><path d=""/></clipPath><linearGradient id="g30" x2="1" href="#P" gradientTransform="matrix(4.101,31.576,-2.382,.309,42.688,30.115)"><stop stop-color="#fed785"/><stop offset=".25" stop-color="#fff"/><stop offset="1" stop-color="#fff"/></linearGradient><clipPath clipPathUnits="userSpaceOnUse" id="cp61"><path d="m24.15 78.65q-1.3 0.15-7.5 0.5v-0.1l5.65-0.8 6.2-0.25q-2.9 0.5-4.35 0.65z"/></clipPath><clipPath clipPathUnits="userSpaceOnUse" id="cp62"><path d=""/></clipPath><linearGradient id="g31" x2="1" href="#P" gradientTransform="matrix(4.101,31.601,-3.06,.397,16.721,33.448)"><stop stop-color="#fed785"/><stop offset=".25" stop-color="#fff"/><stop offset="1" stop-color="#fff"/></linearGradient><clipPath clipPathUnits="userSpaceOnUse" id="cp63"><path d="m28.8 77.35q1.25-0.1 3.85-0.2l-4.15 0.85-6.2 0.25z"/></clipPath><clipPath clipPathUnits="userSpaceOnUse" id="cp64"><path d=""/></clipPath><linearGradient id="g32" x2="1" href="#P" gradientTransform="matrix(4.101,31.65,-3.359,.435,21.656,32.774)"><stop stop-color="#fed785"/><stop offset=".25" stop-color="#fff"/><stop offset="1" stop-color="#fff"/></linearGradient><clipPath clipPathUnits="userSpaceOnUse" id="cp65"><path d="m73.95 74.75l-2.95-0.05q1-0.05 3.25-0.25 2.1-0.15 3.5-0.1z"/></clipPath><clipPath clipPathUnits="userSpaceOnUse" id="cp66"><path d=""/></clipPath><linearGradient id="g33" x2="1" href="#P" gradientTransform="matrix(4.101,31.524,-1.932,.251,68.178,26.887)"><stop stop-color="#fed785"/><stop offset=".25" stop-color="#fff"/><stop offset="1" stop-color="#fff"/></linearGradient><clipPath clipPathUnits="userSpaceOnUse" id="cp67"><path d="m69.9 74.75h4.05q-3.6 0.4-5.3 0.65l-5.45-0.55q2.2-0.1 6.7-0.1z"/></clipPath><clipPath clipPathUnits="userSpaceOnUse" id="cp68"><path d=""/></clipPath><linearGradient id="g34" x2="1" href="#P" gradientTransform="matrix(4.101,31.624,-1.909,.248,62.443,27.488)"><stop stop-color="#fed785"/><stop offset=".25" stop-color="#fff"/><stop offset="1" stop-color="#fff"/></linearGradient><clipPath clipPathUnits="userSpaceOnUse" id="cp69"><path d="m32.65 77.15q-2.6 0.1-3.85 0.2 2.35-0.35 5.25-0.5z"/></clipPath><clipPath clipPathUnits="userSpaceOnUse" id="cp70"><path d=""/></clipPath><linearGradient id="g35" x2="1" href="#P" gradientTransform="matrix(4.124,31.699,-3.011,.392,25.574,32.152)"><stop stop-color="#fed785"/><stop offset=".25" stop-color="#fff"/><stop offset="1" stop-color="#fff"/></linearGradient><clipPath clipPathUnits="userSpaceOnUse" id="cp71"><path d="m26.5 82.05q-4.7 0.6-7.1 0.75h-2.15l-0.6-3.65q6.2-0.35 7.5-0.5 1.45-0.15 4.35-0.65l23.95-1 3.75 0.15-3.25 0.65q-7.95 1.85-15.25 3.3l-4.6 0.25q-1.95 0.1-6.6 0.7z"/></clipPath><clipPath clipPathUnits="userSpaceOnUse" id="cp72"><path d=""/></clipPath><linearGradient id="g36" x2="1" href="#P" gradientTransform="matrix(4.101,31.601,-4.634,.601,30.4,31.7)"><stop stop-color="#fed785"/><stop offset=".25" stop-color="#fff"/><stop offset="1" stop-color="#fff"/></linearGradient><clipPath clipPathUnits="userSpaceOnUse" id="cp73"><path d="m17.3 82.9q0.7 0 2.1-0.1l8.65 0.1q-3.75 0.7-10.1 1.75z"/></clipPath><clipPath clipPathUnits="userSpaceOnUse" id="cp74"><path d=""/></clipPath><linearGradient id="g37" x2="1" href="#P" gradientTransform="matrix(4.101,31.601,-5.455,.708,16.273,33.548)"><stop stop-color="#fed785"/><stop offset=".25" stop-color="#fff"/><stop offset="1" stop-color="#fff"/></linearGradient><clipPath clipPathUnits="userSpaceOnUse" id="cp75"><path d="m56.2 77.15l-3.75-0.15 6.4-0.3z"/></clipPath><clipPath clipPathUnits="userSpaceOnUse" id="cp76"><path d=""/></clipPath><linearGradient id="g38" x2="1" href="#P" gradientTransform="matrix(4.101,31.552,-2.218,.288,49.47,29.28)"><stop stop-color="#fed785"/><stop offset=".25" stop-color="#fff"/><stop offset="1" stop-color="#fff"/></linearGradient><clipPath clipPathUnits="userSpaceOnUse" id="cp77"><path d="m52.45 77l-23.95 1 4.15-0.85q10.8-0.5 19.8-0.15z"/></clipPath><clipPath clipPathUnits="userSpaceOnUse" id="cp78"><path d=""/></clipPath><linearGradient id="g39" x2="1" href="#P" gradientTransform="matrix(4.101,31.601,-1.512,.196,34.463,31.149)"><stop stop-color="#fed785"/><stop offset=".25" stop-color="#fff"/><stop offset="1" stop-color="#fff"/></linearGradient><clipPath clipPathUnits="userSpaceOnUse" id="cp79"><path d="m58.85 76.7l-6.4 0.3q-9-0.35-19.8 0.15l1.4-0.3 2.4-0.1q8.65-0.15 19.45-1.4 3.45-0.4 7.3-0.5l5.45 0.55q-7.05 0.85-9.8 1.3z"/></clipPath><clipPath clipPathUnits="userSpaceOnUse" id="cp80"><path d=""/></clipPath><linearGradient id="g40" x2="1" href="#P" gradientTransform="matrix(4.101,31.601,-2.023,.263,44.628,29.853)"><stop stop-color="#fed785"/><stop offset=".25" stop-color="#fff"/><stop offset="1" stop-color="#fff"/></linearGradient><clipPath clipPathUnits="userSpaceOnUse" id="cp81"><path d="m19.4 82.8q2.4-0.15 7.1-0.75 4.65-0.6 6.6-0.7l4.6-0.25q-4.35 0.85-9.65 1.8z"/></clipPath><clipPath clipPathUnits="userSpaceOnUse" id="cp82"><path d=""/></clipPath><linearGradient id="g41" x2="1" href="#P" gradientTransform="matrix(4.101,31.576,-3.109,.404,22.17,32.811)"><stop stop-color="#fed785"/><stop offset=".25" stop-color="#fff"/><stop offset="1" stop-color="#fff"/></linearGradient><clipPath clipPathUnits="userSpaceOnUse" id="cp83"><path d="m213.75 50.4l-2.6 0.7q-7.8 2.15-11.8 3.15 7.85-2.65 14.4-3.85z"/></clipPath><clipPath clipPathUnits="userSpaceOnUse" id="cp84"><path d=""/></clipPath><linearGradient id="g42" x2="1" href="#P" gradientTransform="matrix(4.101,31.601,-8.444,1.096,201.003,9.545)"><stop stop-color="#fed785"/><stop offset=".25" stop-color="#fff"/><stop offset="1" stop-color="#fff"/></linearGradient><clipPath clipPathUnits="userSpaceOnUse" id="cp85"><path d="m199.35 54.25q4-1 11.8-3.15l2.6-0.7q2.5-0.45 4.9-0.75 1.3-0.15 6.7-0.15 4.2 0 6.6-0.65 0.9-0.25 2.7-1 1.75-0.75 2.7-1 2.85-0.8 6.95-1.15 1.25-0.1 7.1-0.35 0.35 1.8 0.65 2.85-53.65 10.05-80.7 15.25 11.1-3.4 16.6-5.3 3.95-1.35 11.4-3.9z"/></clipPath><clipPath clipPathUnits="userSpaceOnUse" id="cp86"><path d=""/></clipPath><linearGradient id="g43" x2="1" href="#P" gradientTransform="matrix(4.101,31.6,-7.088,.92,205.624,8.942)"><stop stop-color="#fed785"/><stop offset=".25" stop-color="#fff"/><stop offset="1" stop-color="#fff"/></linearGradient></defs><style>.a{fill:url(#g1)}.b{fill:#9e7133}.c{fill:url(#g2)}.d{fill:#d7c45b;stroke:#856208;stroke-miterlimit:100;stroke-width:.5}.e{fill:url(#g3)}.f{fill:url(#g4)}.g{fill:url(#g5)}.h{fill:url(#g6)}.i{fill:url(#g7)}.j{opacity:.1}.k{fill:url(#g8)}.l{fill:url(#g9)}.m{opacity:.2}.n{fill:url(#g10)}.o{fill:url(#g11)}.p{fill:url(#g12)}.q{fill:url(#g13)}.r{fill:url(#g14)}.s{fill:url(#g15)}.t{fill:url(#g16)}.u{fill:url(#g17)}.v{fill:url(#g18)}.w{fill:url(#g19)}.x{fill:url(#g20)}.y{fill:url(#g21)}.z{fill:url(#g22)}.A{fill:url(#g23)}.B{fill:url(#g24)}.C{fill:url(#g25)}.D{fill:url(#g26)}.E{fill:url(#g27)}.F{fill:url(#g28)}.G{fill:url(#g29)}.H{fill:url(#g30)}.I{fill:url(#g31)}.J{fill:url(#g32)}.K{fill:url(#g33)}.L{fill:url(#g34)}.M{fill:url(#g35)}.N{fill:url(#g36)}.O{fill:url(#g37)}.P{fill:url(#g38)}.Q{fill:url(#g39)}.R{fill:url(#g40)}.S{fill:url(#g41)}.T{fill:url(#g42)}.U{fill:url(#g43)}.V{opacity:.4}.W{opacity:.3}</style><g clip-path="url(#cp1)"><g clip-path="url(#cp2)"><path fill-rule="evenodd" class="a" d="m20.5 50.3q-1-1.2-0.7-3.1 0.5-2.2 0.5-3.3 16.5-2.7 38.6-5.8 22.9-3.1 48.2-6.2 28.3-3.4 53.9-6 24.7-2.4 42.3-3.7-0.1 1.4 0.1 1.9 0.1 0.4 1.2 1.7-9.1 3-36.4 7.5-26.4 4.4-55.2 7.8-26 3.2-51.5 5.7-22.1 2.1-41 3.5z"/></g></g><path fill-rule="evenodd" class="b" d="m8.3 32.9c0 0 232.4-31.6 234.1-31.6l4.8 2.5-11.4 11.4-122 38.1-95.5 9-3.8-2.9c0 0-6.2-26.5-6.2-26.5z"/><g clip-path="url(#cp3)"><g clip-path="url(#cp4)"><path fill-rule="evenodd" class="c" d="m23.4 75.5q0.6-2.2 0.5-3.3 16.6-2.7 38.6-5.7 22.9-3.2 48.3-6.3 28.3-3.4 53.9-5.9 24.7-2.5 42.3-3.8-0.2 1.4 0 1.9 0.2 0.4 1.2 1.7-9.1 3-36.4 7.5-26.3 4.4-55.2 7.8-26 3.2-51.4 5.7-22.2 2.1-41 3.5-1-1.2-0.8-3.1z"/></g></g><path fill-rule="evenodd" class="d" d="m12.8 37.7c0.1-1.2-0.2-2-0.8-2.3l235.2-31.6c0 0 4 44.6 4.4 46-52.7 9.9-221 35-234.3 37.1 0 0-4.6-48.6-4.6-49.3 0 0 0.1 0.1 0.1 0.1z"/><g clip-path="url(#cp5)"><g clip-path="url(#cp6)"><path fill-rule="evenodd" class="e" d="m-26.5 90.8q0.9-1.7 0.9-3.4 0.1-1.1-0.2-3.6-0.8-5.5-1.2-8.3-0.8-4.7-1.9-8.3v4q-0.2 6-0.4 37.7 0.9-5.9 1.8-13.1 0.2-1.8 0.3-2.6 0.2-1.3 0.7-2.4z"/></g></g><g clip-path="url(#cp7)"><g clip-path="url(#cp8)"><path fill-rule="evenodd" class="f" d="m-24.9 5q0.4 4.1 0.5 9 0 1.9 0 7.2 0 4.4 0.2 7.1 0 0.6 0.3 2.8 0.4 2.4 0.5 3.6l0.2-1.4q0.1-4-0.2-9.9-0.4-6.6-0.5-9.8l-0.3-8.6q1.1 0 3.2 0.2 2 0.2 3.1 0.1l2.3 17.5q0.6 4.6 0.7 10.9 0.1 3.7 0.1 11 0.1 3.1 0.6 8.3 0.6 6.1 0.7 8.3 0.2-2.1 0.2-5.4 0.1-4.7 0.1-5.4 0.3-10.5 1.4-31.5 0.3-6.8 0.3-12.9l0.6-1.5 5.3-0.4 4.7 0.3q0 2.8 0 1.5 0 9.4-0.7 19.2-0.7 9.2-0.8 13.6-0.2 7.7 0.7 13.6v-0.3q0.3-2.1 0.4-4.2 0.4 8.7-1.3 17.2-0.2 1-0.3 3.2-0.1 2.1-0.3 3.1-0.5 2.2-1.2 5.7-1.2 5.7-1.3 9.7 0 0.6-0.3 3.3-0.2 1.9-0.1 3.2 0.6 4.4 2.3 11.4 0.2 0.9 0.6 3.4 0.4 2.3 1.3 3 1.5 1.1 2.7-0.1 0.1-0.1 1.7-2.6 2.5-3.8 4.4-8.2 0.1-0.4 0.4-1.7 0.2-1.1 0.5-1.6 0.3-0.7 1-1.6l0.2 5.8q-0.9 1.8-1.1 2.5-0.4 1.3-1 3.9-1.3 4.2-1.9 9.5-0.4 3.1-0.7 9.6-0.3 4.7-0.3 5.8-0.1 3.3 0.2 5.8 0.7 5.5-0.2 14-1.3 6.5-1.6 11.8l-0.6 4.5q-1.5-24.3-1.4-36.6 0.3-4.7 0.4-7.6 0.3-5.3-0.7-7.7-0.8 1.5-1 4.4-0.1 1.6-0.3 4.5-0.6 7.2-0.7 14.2 0.1 1.5-0.2 2.8l3.9 26.9q-1.3 10.9-1.5 20.5 0 1.3-0.1 4.4l-0.5-0.1q-0.4-6.6-1-11.4 0 1.3-0.2 3.4-0.1 1.1-0.3 3.3 0 0.7-0.1 2.3-0.1 1.5-0.3 2.4h-1.2q0.2-13.3 0.2-20 0.1-11.6-0.2-19.9 0-5-0.1-7.6-0.2-4.7-1.2-7.5-0.5 1-0.3 3.9 0.1 1.6 0.2 4.1-0.2 6.8-1.3 22.9-0.3 4.4-0.5 10.8 0 3.5-0.2 10.7 0 1.8 0.1 2.3v0.3q-0.9 0-3 0.2-0.1-1.2-0.8-7.6 0.1 1.2-0.3 2.7-0.1 1-0.5 2.8 0 0.1-0.1 1.1-0.1 0.8-0.3 1.2l-4.2 0.3q-0.9-4.2-1.2-6.7-0.4-4.2 0.5-7.9 1-3.9 0.8-9.8-0.5-7.2-0.7-11.6-0.1-2.1-0.2-12.1 0-7.7-0.6-15.7-1.1-15.9 2.8-22.1 1-1.7 2 4.8 0.5 3.5 1.1 9.7 0.5 4 0.4 5.1 0 1.9-1.4-0.1-1-1.6-1.5-6.1-0.4-3.5-0.9-2.9-0.6 0.9-0.6 3.4 0.1 1.5 0.5 5.1 0.4 2.8 1 4.3 0.7 1.7 2 3 1.2 1.1 2.4-1.3 1.4-3.8 2.3-6.2 1.2-3 0.4-9.1-0.3-2.9-1.7-9.7-0.7-3.8-2.1-6.8-1.3-2.6-2.5-3.9-1-1-3.1 4.1-2 4.9-2.5 8.8-0.4 3.6-0.6 11.2-0.2 7.5-0.1 11.4l1.6 30.9-0.8-3.1q0.3 4.9-0.4 11-0.7 6.7-0.7 11.7 0.1 4.9 1.3 10.8l-4.6 0.1q-0.5-8.8-0.7-25.5-0.1-7.1-0.1-8.3-0.2-4.7-0.7-8.2-0.1 5.7-0.5 13.6-0.3 4.5-0.8 13.6-0.2 5.6-0.9 12-0.3 1.7-0.1 2.5l0.2 0.4h-4.5l-0.5-3.3q-0.2-1.9 0.5-20.8 1-23.3 1.3-33l0.3-11.6q1.5-6.9 2.4-10.3 1.3-6 2-10.2 1.9-10.2 2-10.9 0.9-6.5 0.5-11.1-0.1-1.5-0.4-3.7l-0.5-3.7q-0.7-5-1.7-8.9-2.6-10-3.8-15-0.2-12.8-0.8-31.3l-0.5-16h0.1q0.4 0.6 1.8 0.4 0.8-0.2 2.4-0.7c0 0 1.1-0.2 1.1-0.2zm1.5 29.7q-0.4 3-0.3 4.3 0.6-1.2 0.3-4.3zm15.6-20.2q-0.6 1.5-0.9 5.5-0.4 3.8-0.2 9.1 0.1 3 0.4 9.1 0 0.3-0.1 7-0.1 4.3 0.4 6.9l-1.4 26.4q1.6-12.8 2.2-19.2 1.1-11.1 1-19.4-0.3-7.8-0.3-13.4-0.1-2.4-0.4-5.9-0.5-4-0.7-6.1z"/></g></g><g clip-path="url(#cp9)"><g clip-path="url(#cp10)"><path fill-rule="evenodd" class="g" d="m2.7 6v-0.5-0.9l-2.6-0.1-0.4 9.3 0.2 0.8q0.2-0.1 0.4-0.3l-0.3 1.9q0 2.7 0 2.9 0.1 1.4 0.6 4 0.2 1.8 0.2 4.6 0.1 3.7 0.1 4.6 0.1 1.8 0.8 5.8 0.7 3.7 0.7 5.7 0.1 0.9-0.2 2.3-0.3 1.6-0.3 2.3-0.1 0.8 0.2 2.2 0.2 1.5 0.2 2.2 0.2 6.6-2 17.4-2.8 13-3.2 17.3-0.2 1.7 0.2 4 0.1 0.8 0.8 3.8 0.6 2.3 0.7 2.7 0.7 1.7 1.6 2.1 2.3 1 4.3-2.2 0.2-0.4 2.4-5 1-2.3 1.1-5 0.1-3-1-5.1-1-1.7-2.1-0.4-0.8 0.9-1.4 2.9-0.8 2.4 0.1 6 0.7-0.3 1.1-0.9 0.2-0.2 0.6-1.2 0.2 2 0.1 2.6-0.1 1.4-0.8 2.5-0.7 1.1-1.9 1.5-1.4 0.5-2.3-0.3-0.7-0.7-0.8-2.4 0-0.7 0.2-2.5 0.6-5.1 1.6-9.1 1.8-7.4 4.2-5.9 0.4 0.3 0.9 1.4 0.6 1.6 0.8 1.8 0.2 0.5 0.7 1.3l-0.4-12.8q-2-6.2-2.8-9.4-1.3-5.1-2.1-12-0.3-2.9-1.1-12.1-0.5-6.3-0.2-13.9 0.2-5.6 1.1-13.9z"/></g></g><g clip-path="url(#cp11)"><g clip-path="url(#cp12)"><path fill-rule="evenodd" class="h" d="m4.4 4.7l0.4 4.5 0.1-4.5z"/></g></g><g clip-path="url(#cp13)"><g clip-path="url(#cp14)"><path fill-rule="evenodd" class="i" d="m-23.9 13.6l-0.3-8.6h-0.7q0.4 4.1 0.5 9 0 1.9 0 7.2 0 4.4 0.2 7.1 0 0.6 0.3 2.8 0.4 2.4 0.5 3.6l0.2-1.4q0.1-4-0.2-9.9-0.4-6.6-0.5-9.8z"/></g></g><path fill-rule="evenodd" class="j" d="m49.3 39.2q3.7-0.9 5.4-1.1-1.5 1-5.4 1.1z"/><g clip-path="url(#cp15)"><g clip-path="url(#cp16)"><path fill-rule="evenodd" class="k" d="m-23.4 34.7q-0.4 3-0.3 4.3 0.6-1.2 0.3-4.3z"/></g></g><g clip-path="url(#cp17)"><g clip-path="url(#cp18)"><path fill-rule="evenodd" class="l" d="m-11.5 6.1l-3.9 9.7-1.4-10.5h-1.1l2.3 17.5q0.6 4.6 0.7 10.9 0.1 3.7 0.1 11 0 3.1 0.6 8.3 0.6 6.1 0.7 8.3 0.2-2.1 0.2-5.4 0.1-4.7 0.1-5.4 0.3-10.5 1.4-31.5 0.3-6.8 0.3-12.9z"/></g></g><path fill-rule="evenodd" class="m" d="m244.3 9.7q2-0.6 3-0.4l0.6 0.1 0.5 4.5q-11.1 0.7-31.8 3.2-8.9 1-10.3 1.2-5.9 0.5-10.3 0.5 7-1.1 16.8-2.9 5.5-1 16.7-3.1 7-1.2 14.7-3.1z"/><g clip-path="url(#cp19)"><g clip-path="url(#cp20)"><path fill-rule="evenodd" class="n" d="m-26.7 192.4q-0.3 1.7-0.1 2.5l0.2 0.4 3.6-0.1q-0.5-8.8-0.7-25.5-0.1-7.1-0.1-8.3-0.2-4.7-0.7-8.2-0.1 5.7-0.5 13.6-0.3 4.5-0.8 13.6-0.2 5.6-0.9 12z"/></g></g><path fill-rule="evenodd" class="m" d="m249.4 28l0.1 2.5q-1.6 0-9.6 0.2 1.5-0.1 3.4-0.7 1.1-0.4 3.3-1.2 0.1 0 1.4-0.3 0.9-0.2 1.4-0.5z"/><g clip-path="url(#cp21)"><g clip-path="url(#cp22)"><path fill-rule="evenodd" class="o" d="m-11.7 194.6l2-0.2q-0.1-1.2-0.8-7.6 0.1 1.2-0.3 2.7-0.1 1-0.5 2.8 0 0.1-0.1 1.1-0.1 0.8-0.3 1.2z"/></g></g><path fill-rule="evenodd" class="m" d="m225.5 41.8q-14.3 1.9-24.8 2.9-6.1 0.8-9.4 1.1-5.8 0.5-9.4-0.2 1.1-0.8 4.8-1 2-0.2 5.1-0.4 8.4-1.4 28.1-5.4 5.4-1.1 13.3-2.2 4.4-0.7 13.3-2 2.2-0.4 2.8-0.3h0.4q0.2 2.1 0.5 4.1-16.5 2.3-24.7 3.4z"/><g clip-path="url(#cp23)"><g clip-path="url(#cp24)"><path fill-rule="evenodd" class="p" d="m-3.2 174.2q0.1-11.6-0.2-19.9 0-5-0.1-7.6-0.2-4.7-1.2-7.5-0.5 1-0.3 3.9 0.1 1.6 0.2 4.1-0.2 6.8-1.3 22.9-0.3 4.4-0.5 10.8 0 3.5-0.2 10.7 0 1.8 0.1 2.3v0.3q1.7-0.1 3.3 0 0.2-13.3 0.2-20z"/></g></g><path fill-rule="evenodd" class="m" d="m236.4 42.7q1.7-0.1 4.2-0.7 1.4-0.3 4.1-0.9 0.8-0.1 2.8-0.5 1.9-0.4 2.9-0.8l0.3 2.4q-8.2 0.5-14.3 0.5z"/><g clip-path="url(#cp25)"><g clip-path="url(#cp26)"><path fill-rule="evenodd" class="q" d="m-1.3 182.8q0 1.3-0.2 3.4-0.1 1.1-0.3 3.3 0 0.7-0.1 2.3-0.1 1.5-0.4 2.4h2q-0.4-6.6-1-11.4z"/></g></g><path fill-rule="evenodd" class="m" d="m19.9 72.3q1.3-0.2 3.6-0.7 2.1-0.5 3.7-0.4l-11.5 2-0.1-0.4 0.7-0.1q1.6 0.1 3.6-0.4z"/><g clip-path="url(#cp27)"><g clip-path="url(#cp28)"><path fill-rule="evenodd" class="r" d="m-0.1 8q-0.1 1-0.3 2.9-0.1 1.7 0.1 2.9l0.4-9.3h-0.3v0.6q0.2 1.3 0.1 2.9z"/></g></g><path fill-rule="evenodd" class="m" d="m15.5 71.9q3.5-0.4 1.9-0.2 11.6-1.6 23.6-4 11.3-2.3 16.8-3.1 9.5-1.5 16.9-1.4l-0.4 0.1q-2.5 0.7-5 1.2l-5 0.3-48.8 7.8z"/><g clip-path="url(#cp29)"><g clip-path="url(#cp30)"><path fill-rule="evenodd" class="s" d="m-0.9 4.5q0 2.8 0 1.5 0 9.4-0.7 19.2-0.7 9.2-0.8 13.6-0.2 7.7 0.7 13.6v-0.3q0.3-2.1 0.4-4.2l-0.3-3.9 1.2-39.5z"/></g></g><path fill-rule="evenodd" class="j" d="m56 57.1q0.5 0 8.7-1.3 5.3-0.8 8.6-0.6l32.5-5.9q-15.6 4-23.4 5.8-13.6 3.2-23.9 4.4-9.7 0.9-16.6 1.7-3.1 0.3-7.5 0.4-5 0.1-7.6 0.2 1.7-1 6.7-2 4.6-1.1 11.2-1.7 3.7-0.4 11.3-1z"/><g clip-path="url(#cp31)"><g clip-path="url(#cp32)"><path fill-rule="evenodd" class="t" d="m-8.5 38.2q0 0.3-0.1 7-0.1 4.3 0.4 6.9l-1.4 26.4q1.6-12.8 2.2-19.2 1.1-11.1 1-19.4-0.2-7.8-0.3-13.3-0.1-2.5-0.4-6-0.5-4-0.7-6.1-0.6 1.5-0.9 5.5-0.4 3.8-0.2 9.1 0.1 3 0.4 9.1z"/></g></g><path fill-rule="evenodd" class="j" d="m235.4 19.8q6.1-0.8 13.6-0.2l0.2 3.1q-5.5-0.4-8.5-0.4-5.4 0.2-9.9 2-4.6 1.8-11.9 2.5-9 0.5-14.6 0.9-2.5 0.3-15 1.8-9.5 1.2-19.4 1.8-20 1.2-27 7-1.9 1.5 6.2 1.7 4.4 0 12.3-0.2 5 0 6.4-0.3 2.2-0.4-0.4-1.8-2.2-1-7.9-0.9-4.3 0.1-3.7-0.5 1.1-1 4.2-1.3 1.8-0.2 6.4-0.2 3.5 0 5.4 0.4 2.3 0.6 4 2.1 1.7 1.3-1.2 3.1-4.5 2.4-7.2 3.9-3.6 1.9-11.2 2-3.7 0.1-12.3-0.5-4.8-0.4-8.9-1.6-3.4-1.1-5.1-2.4-1.5-1.1 4.4-4.5 5.8-3.4 10.6-4.6 4.4-1.1 13.8-2.5 9.3-1.6 14.2-1.9l38.5-3.1-4-0.4q6.1-0.5 13.6-2.3 8.1-2 14.4-2.7z"/><g clip-path="url(#cp33)"><g clip-path="url(#cp34)"><path fill-rule="evenodd" class="u" d="m-19.7 184.3q0.1 4.9 1.3 10.8l2.5-0.2q-0.9-4.2-1.2-6.7-0.4-4.2 0.5-7.9 1-3.9 0.8-9.8-0.5-7.2-0.7-11.6-0.1-2.1-0.2-12.1 0-7.7-0.6-15.7-1.1-15.9 2.8-22.1 1-1.7 2 4.8 0.5 3.5 1.1 9.7 0.5 4 0.4 5.1 0 1.9-1.4-0.1-1-1.6-1.5-6.1-0.4-3.5-0.9-2.9-0.6 0.9-0.6 3.4 0.1 1.5 0.5 5.1 0.4 2.8 1 4.3 0.7 1.7 2 3 1.2 1.1 2.4-1.3 1.4-3.8 2.3-6.2 1.2-3 0.4-9.1-0.3-2.9-1.7-9.7-0.7-3.7-2.1-6.8-1.3-2.6-2.5-3.9-1-1-3.1 4.1-2 4.9-2.5 8.8-0.4 3.6-0.6 11.2-0.2 7.5-0.1 11.4l1.6 30.9-0.8-3.1q0.3 4.9-0.4 11-0.7 6.7-0.7 11.7z"/></g></g><path fill-rule="evenodd" class="j" d="m122.4 59.3q2.1-0.6 3.1-0.7 2.1-0.3 3 0.5 1.1 1 0.8 2.8-0.4 1.7-1.5 2.7-1.3 1.1-3 1.4-0.8 0.2-3.3 0.3 1.2-0.7 1.5-1 0.6-0.6 0.8-1.5-4.6-0.5-7.4 0.8-2.3 1.1-3.3 2.2-1.5 1.6 0.8 2.6 2.8 1 6.4 0.4 3.3-0.5 6.1-2.2 5.4-3.4 5.8-3.7 3.6-3.1 2.1-5.7-0.7-1.1-3-1.6-0.5-0.2-3.4-0.5-3.8-0.3-4.9-0.4-2.8-0.1-4.9 0.4-5.3 1.2-21 6.7-13 4.6-21.3 5.3-0.8 0.1-2.7 0.1-1.8 0-2.7 0.1-0.9 0.2-2.8 0.8-1.7 0.6-2.8 0.7-2.5 0.2-7.2 0-5-0.3-7.3-0.1-1.2 0.1-5.8 0.6-3.4 0.4-5.6 0.5-3.4-0.1-5.2-0.1-0.3 0-3.5 0.4l-2.4 0.7q0.3-0.3 0.4-0.5l-1-0.1q8.9-1.6 19.9-3.2 3.7-0.5 11.1-1.6 6.5-1 11.1-1.9 10.8-0.9 21.1-4.4 1.1-0.4 3.9-0.9 2.5-0.5 3.8-0.9 2.6-1 6.8-2.4 6.9-2.3 11.9-3.1 0.7-0.1 4-0.9 2.3-0.6 3.9-0.6 5.5 0 14.6 0.9 1.1 0.1 4.3 0.1 2.9 0.2 3.9 1.3 1.6 1.7 0.3 3.3-0.2 0.2-2.9 2.6-4.3 3.7-9.5 6.7-0.5 0.2-2 0.8-1.3 0.5-2 0.9-0.8 0.5-1.7 1.5l-6.9 0.6q-4.4-0.1-6.8 0.4-1.2 0.1-1.5 0.1-0.4 0-0.6 0.3l-3.2 0.3q-1.1-0.5-1.8-0.7-0.3-0.2-2.3-0.7-1.5-0.4-1.9-0.9-2.2-2.7 6.6-6.1 4.9-2 11.1-3.4z"/><g clip-path="url(#cp35)"><g clip-path="url(#cp36)"><path fill-rule="evenodd" class="v" d="m0 90.6q-0.2 1.8-0.2 2.5 0.1 1.7 0.8 2.4 0.9 0.8 2.3 0.3 1.2-0.4 1.9-1.5 0.8-1.1 0.8-2.5 0.1-0.6-0.1-2.6-0.4 1-0.6 1.2-0.4 0.6-1.1 0.9-0.9-3.6-0.1-6 0.6-2 1.4-2.9 1.1-1.3 2.1 0.4 1.1 2.1 1 5.1 0 2.7-1.1 5-2.2 4.6-2.4 5-2 3.2-4.3 2.2-0.9-0.4-1.6-2.1-0.1-0.4-0.7-2.7-0.7-3-0.8-3.8-0.4-2.3-0.2-4 0.4-4.3 3.2-17.3 2.2-10.8 2-17.4 0-0.7-0.2-2.2-0.3-1.4-0.2-2.2 0-0.7 0.3-2.3 0.3-1.4 0.2-2.3 0-2-0.7-5.7-0.7-4-0.8-5.8 0-0.9-0.1-4.6 0-2.8-0.2-4.6-0.5-2.6-0.6-4 0-0.2 0-2.9l0.3-1.9q-0.2 0.2-0.4 0.3l-0.2-0.8q-0.3 7.2-0.5 16.2 0 3-0.1 8.9-0.1 5.3-0.4 9 0.4 8.7-1.3 17.2-0.2 1-0.3 3.2-0.1 2.1-0.3 3.1-0.5 2.2-1.2 5.7-1.2 5.7-1.3 9.7 0 0.6-0.3 3.3-0.2 1.9-0.1 3.2 0.6 4.4 2.3 11.4 0.2 0.9 0.6 3.4 0.4 2.3 1.3 3 1.5 1.1 2.7-0.1 0.1-0.1 1.7-2.6 2.5-3.8 4.4-8.2 0.1-0.4 0.4-1.7 0.2-1.1 0.5-1.6 0.4-0.7 1-1.6l-0.2-5.5q-0.5-3.5-0.4-5.4 0-1 0-1.2 0-0.3 0.1-0.5l-0.1-2.6q-0.5-0.8-0.7-1.3-0.2-0.2-0.8-1.8-0.5-1.1-0.9-1.4-2.4-1.5-4.2 5.9-1 4-1.6 9.1z"/></g></g><path fill-rule="evenodd" class="m" d="m27.2 71.2q-1.6-0.1-3.7 0.4-2.3 0.5-3.6 0.7-2 0.5-3.5 0.4l-0.8 0.1v-0.2l48.7-7.8 5-0.3q-4.6 1-11.1 1.9-7.4 1-11.1 1.6-11 1.6-19.9 3.2z"/><path fill-rule="evenodd" class="j" d="m27.2 71.2q-1.6-0.1-3.7 0.4-2.3 0.5-3.6 0.7-2 0.5-3.5 0.4l-0.8 0.1v-0.2l48.7-7.8 5-0.3q-4.6 1-11.1 1.9-7.4 1-11.1 1.6-11 1.6-19.9 3.2z"/><g clip-path="url(#cp37)"><g clip-path="url(#cp38)"><path fill-rule="evenodd" class="w" d="m-0.3 13.8q-0.2-1.2-0.1-2.9 0.2-1.9 0.3-2.9 0.1-1.6-0.1-2.9v-0.6h-0.2l-1.2 39.5 0.3 3.9q0.3-3.7 0.4-9 0.1-5.9 0.1-8.9 0.2-9 0.5-16.2z"/></g></g><path fill-rule="evenodd" class="j" d="m16.2 76.4l1.2-0.1-1.2 0.2z"/><g clip-path="url(#cp39)"><g clip-path="url(#cp40)"><path fill-rule="evenodd" class="x" d="m2.7 4.6v0.9l0.1-0.9z"/></g></g><path fill-rule="evenodd" class="j" d="m162.2 16.8q-8.2 3-12.3 4.6-7.2 2.7-12.4 4.2-12.3 4-13.2 4.2-7.8 2.2-13.7 2.5-1.8 0.1-4.6 0h-4.7q-6.3 0-11.3-0.7-12.8-1.5-19.2-2.2 11.9-1.4 17.9-2.2 4.6 0.7 10.6 0.9 3.5 0.2 10.5 0.2 3.2 0 4.5-0.3 2-0.3 4-1.6 1.3-0.9 2.9-1.4 1-0.2 3.2-0.7 8.7-2.3 16-4.4 12.1-1.6 21.8-3.1z"/><g clip-path="url(#cp41)"><g clip-path="url(#cp42)"><path fill-rule="evenodd" class="y" d="m-29.5 126.6q1.5-6.9 2.4-10.3 1.3-6 2-10.2 1.9-10.2 2-10.9 0.9-6.5 0.5-11.1-0.1-1.5-0.4-3.7l-0.5-3.7q-0.7-5-1.7-8.9-2.6-10-3.8-15 0.1 9.6 0.1 14.4 1.1 3.6 1.9 8.3 0.4 2.8 1.2 8.3 0.3 2.5 0.2 3.6 0 1.7-0.9 3.4-0.5 1.1-0.7 2.4-0.1 0.8-0.3 2.6-0.9 7.2-1.8 13.1 0 9.8-0.2 17.7z"/></g></g><path fill-rule="evenodd" class="j" d="m220.4 48.7l-1.1 0.3q-30.5 2-45.6 4-5.9 1.2-9.4 1.8-6.5 1.1-9.7 0.4 1.7-1.2 5.3-2 2-0.5 5.6-1 8.7-2 17.5-3.3 1.8-0.1 3.4-0.6z"/><g clip-path="url(#cp43)"><g clip-path="url(#cp44)"><path fill-rule="evenodd" class="z" d="m1.8 169.4v-0.9q-1.5-24.3-1.4-36.6 0.3-4.7 0.4-7.6 0.3-5.3-0.7-7.7-0.8 1.5-1 4.4-0.1 1.6-0.3 4.5-0.6 7.2-0.7 14.2 0.1 1.5-0.2 2.8z"/></g></g><path fill-rule="evenodd" class="j" d="m136.8 68.7q2.1-1.5 3-1.8 1.5-0.7 4.6-1.9 5-2.2 11.4-3.8 3.9-1 12-2.4 5.7-1.2 7.1-1.3 4-0.7 7.1-0.8 7 0 17.3-2.5-7.4 2.6-11.3 3.9-5.5 1.9-16.6 5.4l-12.9 2.5q-4.8 1-21.7 2.7z"/><g clip-path="url(#cp45)"><g clip-path="url(#cp46)"><path fill-rule="evenodd" class="A" d="m9 101.1q-0.9 1.8-1.1 2.5-0.4 1.3-1 3.9-1.3 4.2-1.9 9.5-0.4 3.1-0.7 9.6-0.3 4.7-0.3 5.8-0.1 3.3 0.2 5.8 0.7 5.5-0.2 14 1.3-6.2 1.9-9.5 1-4.5 2.5-13.7l0.7-10.5q0.3-3.9-0.1-17.4z"/></g></g><path fill-rule="evenodd" class="j" d="m225.4 49.5q-5.5 0-6.8 0.2-2.4 0.2-4.8 0.7l5.5-1.4 3.5-0.2-2.5-0.1q13.3-3.2 25.2-5.1 1.7-0.3 5.4-0.9l0.5 2.7q-5.8 0.2-7.1 0.3-4.1 0.4-6.9 1.2-1 0.2-2.7 1-1.8 0.7-2.7 1-2.4 0.6-6.6 0.6z"/><g clip-path="url(#cp47)"><g clip-path="url(#cp48)"><path fill-rule="evenodd" class="B" d="m2.9 173.3q-0.5-4.3-0.6-5.3 0-2 0.1-4l-0.6 4.5 0.3 2.9-0.3-2q-1.3 10.9-1.5 20.5 0 1.3-0.1 4.4l2.1 0.1q-0.4-4.7-0.5-5.7-0.1-3.3 0.2-5.6 0.1-0.8 0.6-2.3 0.4-1.5 0.5-2.2 0.2-2-0.2-5.3z"/></g></g><path fill-rule="evenodd" class="j" d="m116 70.4q2.4-0.5 6.8-0.4l-8.9 0.8q0.2-0.3 0.6-0.3 0.3 0 1.5-0.1z"/><path fill-rule="evenodd" class="j" d="m116 70.4q2.4-0.5 6.8-0.4l-8.9 0.8q0.2-0.3 0.6-0.3 0.3 0 1.5-0.1z"/><g clip-path="url(#cp49)"><g clip-path="url(#cp50)"><path fill-rule="evenodd" class="C" d="m8.2 84.4q-0.1 1.9 0.4 5.4l-0.3-7.1q-0.2 0.2-0.2 0.5 0 0.2 0.1 1.2z"/></g></g><path fill-rule="evenodd" class="j" d="m220.4 48.7l2.5 0.1-3.6 0.2z"/><path fill-rule="evenodd" class="j" d="m220.4 48.7l2.5 0.1-3.6 0.2z"/><g clip-path="url(#cp51)"><g clip-path="url(#cp52)"><path fill-rule="evenodd" class="D" d="m1.8 169.4l0.3 2-0.3-2.9z"/></g></g><path fill-rule="evenodd" class="j" d="m25.5 75.6l-8.1 0.7 0.6-0.2q10-2.3 17-3.6 9.4-1.5 17.3-1.9 11.5-0.5 15.2-0.6 8.7-0.1 15.1 0.6 4.1 0.6 12.1 2c-10 1-10.6 3.8-11.9 3.9-0.9 0-5.4 0.4-6.8 0.5-1.5 0.2-4.3-2.3-5-2.3q-9.5-0.9-14.2-1-10.2-0.2-31.3 1.9z"/><g clip-path="url(#cp53)"><g clip-path="url(#cp54)"><path fill-rule="evenodd" class="E" d="m3 12.1l-0.3-6.6v0.5q-0.9 8.3-1.1 13.9-0.3 7.6 0.2 13.9 0.8 9.2 1.1 12.1 0.8 6.9 2.1 12 0.8 3.2 2.8 9.4-0.3-12.2-0.4-13.7-0.2-1.1-0.2-2.8-0.1-1.8-0.2-2.6-1.7-7.4-2.2-11.2-1.2-8-1.8-24.9z"/></g></g><path fill-rule="evenodd" class="j" d="m22.3 78.3l-5.7 0.2-0.2-0.6q4.1-0.3 11.9-0.6h0.5z"/><g clip-path="url(#cp55)"><g clip-path="url(#cp56)"><path fill-rule="evenodd" class="F" d="m4.8 9.2l-0.4-4.5-0.4-0.1q0.1 3.2 0.7 9.5l0.1 0.4z"/></g></g><path fill-rule="evenodd" class="j" d="m16.4 77.9l-0.2-1.4 1.2-0.2 8.1-0.7q21.1-2.1 31.3-1.9 4.7 0.1 14.2 1l-1.1 0.1q-4.5 0-6.7 0.1l-1.9-0.2q-2.5-0.1-13.1 0-3.2 0.1-7.1 0.7-2.3 0.4-7 1.5-2.9 0.1-5.3 0.4h-0.5q-7.8 0.3-11.9 0.6z"/><path fill-rule="evenodd" class="j" d="m16.4 77.9l-0.2-1.4 1.2-0.2 8.1-0.7q21.1-2.1 31.3-1.9 4.7 0.1 14.2 1l-1.1 0.1q-4.5 0-6.7 0.1l-1.9-0.2q-2.5-0.1-13.1 0-3.2 0.1-7.1 0.7-2.3 0.4-7 1.5-2.9 0.1-5.3 0.4h-0.5q-7.8 0.3-11.9 0.6z"/><g clip-path="url(#cp57)"><g clip-path="url(#cp58)"><path fill-rule="evenodd" class="G" d="m4 4.6h-1.2l-0.1 0.9 0.3 6.6q0.6 16.9 1.8 24.9 0.5 3.8 2.2 11.2l-0.1-0.8q-0.4-3.6-0.6-5.4l-0.3-1.4q-0.3-2.1-1.3-10.4-0.3-2.6-0.2-5.7 0.1-1.9 0.4-5.8-0.2-2.3-0.1-4.2l-0.1-0.4q-0.6-6.3-0.7-9.5z"/></g></g><path fill-rule="evenodd" class="j" d="m48.3 74.7q10.5-0.1 13.1 0l1.8 0.1q-3.9 0.2-7.3 0.6-10.8 1.2-19.5 1.3l-2.3 0.2q4.7-1.1 7-1.5 3.9-0.6 7.2-0.7z"/><path fill-rule="evenodd" class="j" d="m48.3 74.7q10.5-0.1 13.1 0l1.8 0.1q-3.9 0.2-7.3 0.6-10.8 1.2-19.5 1.3l-2.3 0.2q4.7-1.1 7-1.5 3.9-0.6 7.2-0.7z"/><path fill-rule="evenodd" class="j" d="m48.3 74.7q10.5-0.1 13.1 0l1.8 0.1q-3.9 0.2-7.3 0.6-10.8 1.2-19.5 1.3l-2.3 0.2q4.7-1.1 7-1.5 3.9-0.6 7.2-0.7z"/><g clip-path="url(#cp59)"><g clip-path="url(#cp60)"><path fill-rule="evenodd" class="H" d="m4.7 30.2q1 8.3 1.3 10.4l0.3 1.4q-0.3-3-0.3-5.8-0.1-8.7-0.9-15.6l-0.2-1.9q-0.3 3.9-0.4 5.8-0.1 3.1 0.2 5.7z"/></g></g><path fill-rule="evenodd" class="j" d="m24.1 78.7q-1.2 0.1-7.5 0.5v-0.1l5.7-0.8 6.2-0.3q-2.9 0.5-4.4 0.7z"/><g clip-path="url(#cp61)"><g clip-path="url(#cp62)"><path fill-rule="evenodd" class="I" d="m5.3 10.7q0-1.1-0.4-6l-0.1 4.5 0.5 5q0.1-2.4 0-3.5z"/></g></g><path fill-rule="evenodd" class="j" d="m28.8 77.3q1.2 0 3.8-0.1l-4.1 0.8-6.2 0.3z"/><path fill-rule="evenodd" class="j" d="m28.8 77.3q1.2 0 3.8-0.1l-4.1 0.8-6.2 0.3z"/><g clip-path="url(#cp63)"><g clip-path="url(#cp64)"><path fill-rule="evenodd" class="J" d="m4.8 14.5q0 1 0.2 3.1l0.3-3.4-0.5-5z"/></g></g><path fill-rule="evenodd" class="j" d="m73.9 74.8l-2.9-0.1q1 0 3.3-0.2 2.1-0.2 3.5-0.1z"/><path fill-rule="evenodd" class="j" d="m73.9 74.8l-2.9-0.1q1 0 3.3-0.2 2.1-0.2 3.5-0.1z"/><g clip-path="url(#cp65)"><g clip-path="url(#cp66)"><path fill-rule="evenodd" class="K" d="m7.4 50.6l-0.4-2.4q0.1 0.8 0.2 2.6 0.1 1.7 0.2 2.8z"/></g></g><path fill-rule="evenodd" class="j" d="m69.9 74.8h4q-3.5 0.4-5.3 0.6l-5.4-0.6q2.2 0 6.7 0z"/><path fill-rule="evenodd" class="j" d="m69.9 74.8h4q-3.5 0.4-5.3 0.6l-5.4-0.6q2.2 0 6.7 0z"/><path fill-rule="evenodd" class="j" d="m69.9 74.8h4q-3.5 0.4-5.3 0.6l-5.4-0.6q2.2 0 6.7 0z"/><g clip-path="url(#cp67)"><g clip-path="url(#cp68)"><path fill-rule="evenodd" class="L" d="m6.9 47.4l0.5 3.2q-0.1-2.9-0.1-4.3l-1-4.3q0.2 1.8 0.6 5.4z"/></g></g><path fill-rule="evenodd" class="j" d="m32.6 77.2q-2.6 0.1-3.8 0.1 2.4-0.3 5.3-0.4z"/><path fill-rule="evenodd" class="j" d="m32.6 77.2q-2.6 0.1-3.8 0.1 2.4-0.3 5.3-0.4z"/><path fill-rule="evenodd" class="j" d="m32.6 77.2q-2.6 0.1-3.8 0.1 2.4-0.3 5.3-0.4z"/><g clip-path="url(#cp69)"><g clip-path="url(#cp70)"><path fill-rule="evenodd" class="M" d="m5 17.6q-0.2-2.1-0.2-3.1-0.1 1.9 0.1 4.2z"/></g></g><path fill-rule="evenodd" class="j" d="m26.5 84.1q-4.7 0.6-7.1 0.7h-2.2l-0.6-3.6q6.3-0.4 7.5-0.5 1.5-0.2 4.4-0.7l23.9-1 3.8 0.2-3.2 0.6q-8 1.9-15.3 3.3l-4.6 0.3q-2 0-6.6 0.7z"/><g clip-path="url(#cp71)"><g clip-path="url(#cp72)"><path fill-rule="evenodd" class="N" d="m8.3 12.2q0-3.8-0.2-5.7l-0.2-1.7-3-0.1q0.4 4.9 0.4 6 0.1 1.1 0 3.5l1.6 19.1 0.5 2.9 0.2-2.6q0.7-6.5 1.1-12.4l-0.3-3.7q-0.1-1.6-0.1-5.3z"/></g></g><path fill-rule="evenodd" class="j" d="m17.3 82.9q0.7 0 2.1-0.1l8.7 0.1q-3.8 0.7-10.1 1.8z"/><path fill-rule="evenodd" class="j" d="m17.3 82.9q0.7 0 2.1-0.1l8.7 0.1q-3.8 0.7-10.1 1.8z"/><g clip-path="url(#cp73)"><g clip-path="url(#cp74)"><path fill-rule="evenodd" class="O" d="m8 4.8q0.1 0.6 0.1 1.7l1 6.8q0.2-3 0.3-8.2z"/></g></g><path fill-rule="evenodd" class="j" d="m56.2 77.1l-3.8-0.1 6.5-0.3z"/><path fill-rule="evenodd" class="j" d="m56.2 77.1l-3.8-0.1 6.5-0.3z"/><path fill-rule="evenodd" class="j" d="m56.2 77.1l-3.8-0.1 6.5-0.3z"/><g clip-path="url(#cp75)"><g clip-path="url(#cp76)"><path fill-rule="evenodd" class="P" d="m7.4 36.3l-0.5-3 0.5 5.1z"/></g></g><path fill-rule="evenodd" class="j" d="m52.4 77l-23.9 1 4.2-0.8q10.8-0.6 19.7-0.2z"/><path fill-rule="evenodd" class="j" d="m52.4 77l-23.9 1 4.2-0.8q10.8-0.6 19.7-0.2z"/><path fill-rule="evenodd" class="j" d="m52.4 77l-23.9 1 4.2-0.8q10.8-0.6 19.7-0.2z"/><g clip-path="url(#cp77)"><g clip-path="url(#cp78)"><path fill-rule="evenodd" class="Q" d="m6.9 33.3l-1.6-19.1-0.3 3.4q0.7 8.6 1.9 15.7z"/></g></g><path fill-rule="evenodd" class="j" d="m58.8 76.7l-6.4 0.3q-8.9-0.4-19.8 0.2l1.5-0.3 2.3-0.2q8.7-0.1 19.5-1.3 3.4-0.4 7.3-0.6l5.5 0.6q-7.1 0.9-9.9 1.3z"/><path fill-rule="evenodd" class="j" d="m58.8 76.7l-6.4 0.3q-8.9-0.4-19.8 0.2l1.5-0.3 2.3-0.2q8.7-0.1 19.5-1.3 3.4-0.4 7.3-0.6l5.5 0.6q-7.1 0.9-9.9 1.3z"/><path fill-rule="evenodd" class="j" d="m58.8 76.7l-6.4 0.3q-8.9-0.4-19.8 0.2l1.5-0.3 2.3-0.2q8.7-0.1 19.5-1.3 3.4-0.4 7.3-0.6l5.5 0.6q-7.1 0.9-9.9 1.3z"/><path fill-rule="evenodd" class="j" d="m58.8 76.7l-6.4 0.3q-8.9-0.4-19.8 0.2l1.5-0.3 2.3-0.2q8.7-0.1 19.5-1.3 3.4-0.4 7.3-0.6l7.9 2.9c-4.7 0.6-10.4-1.3-12.3-1z"/><g clip-path="url(#cp79)"><g clip-path="url(#cp80)"><path fill-rule="evenodd" class="R" d="m7.3 38.4l-0.4-5.1q-1.2-7.1-1.9-15.7l-0.1 1.1 0.2 1.9q0.8 6.9 0.9 15.6 0 2.8 0.3 5.8l1 4.3q0-5.7 0-7.9z"/></g></g><path fill-rule="evenodd" class="j" d="m19.4 82.8q2.4-0.1 7.1-0.7 4.6-0.7 6.6-0.7l4.6-0.3q-4.4 0.9-9.6 1.8z"/><path fill-rule="evenodd" class="j" d="m19.4 82.8q2.4-0.1 7.1-0.7 4.6-0.7 6.6-0.7l4.6-0.3q-4.4 0.9-9.6 1.8z"/><path fill-rule="evenodd" class="j" d="m19.4 82.8q2.4-0.1 7.1-0.7 4.6-0.7 6.6-0.7l4.6-0.3q-4.4 0.9-9.6 1.8z"/><g clip-path="url(#cp81)"><g clip-path="url(#cp82)"><path fill-rule="evenodd" class="S" d="m8.1 6.5q0.2 1.9 0.2 5.7 0 3.7 0.1 5.3l0.3 3.7q0.2-3.6 0.4-7.9z"/></g></g><path fill-rule="evenodd" class="j" d="m213.8 50.4l-2.6 0.7q-7.8 2.2-11.8 3.1 7.8-2.6 14.3-3.8z"/><g clip-path="url(#cp83)"><g clip-path="url(#cp84)"><path fill-rule="evenodd" class="T" d="m2.4 164l0.3-2.1q0.9-6.4 1.3-9.7-1.3 6.5-1.6 11.8z"/></g></g><path fill-rule="evenodd" class="j" d="m199.3 54.3q4.1-1 11.9-3.2l2.6-0.7q2.5-0.4 4.9-0.7 1.3-0.2 6.7-0.2 4.2 0 6.6-0.6 0.9-0.3 2.7-1 1.7-0.8 2.7-1 2.8-0.8 6.9-1.2 1.3-0.1 7.1-0.3 0.4 1.8 0.6 2.8-53.6 10.1-80.6 15.3 11.1-3.4 16.6-5.3 3.9-1.4 11.3-3.9z"/><path fill-rule="evenodd" class="j" d="m199.3 54.3q4.1-1 11.9-3.2l2.6-0.7q2.5-0.4 4.9-0.7 1.3-0.2 6.7-0.2 4.2 0 6.6-0.6 0.9-0.3 2.7-1 1.7-0.8 2.7-1 2.8-0.8 6.9-1.2 1.3-0.1 7.1-0.3 0.4 1.8 0.6 2.8-53.6 10.1-80.6 15.3 11.1-3.4 16.6-5.3 3.9-1.4 11.3-3.9z"/><g clip-path="url(#cp85)"><g clip-path="url(#cp86)"><path fill-rule="evenodd" class="U" d="m4 152.2q-0.4 3.3-1.3 9.7l-0.3 2.1q-0.1 2-0.1 4 0.1 1 0.6 5.3 0.4 3.3 0.2 5.3-0.1 0.7-0.5 2.2-0.5 1.5-0.6 2.3-0.3 2.3-0.2 5.6 0.1 1 0.5 5.7 1.5 0.1 2.3 0.2 2.5-43.6 3.8-65.6-1.5 9.2-2.5 13.7-0.6 3.3-1.9 9.5z"/></g></g><path class="d" d="m17.5 87l-6.5-3-3-51 6.2 2z"/><path fill-rule="evenodd" class="m" d="m9.8 52.2l4.8 0.8-4.8-4 4 1.7 22 0.1q5.8 0 13.7-1 4.5-0.4 13.6-1.6 3.8-0.4 10.4-0.6 7.6-0.2 10.4-0.4-2.5 0.6-6.7 1.1-5.8 0.9-6.6 1c-8.7 1.4-30.3 2.2-47.5 5.3-5.6 1-8.1-0.9-13.3-2.4z"/><path class="V" d="m17.1 73l-6.4-3.2 6.3 2.3z"/><path class="V" d="m10.6 76l6.1 1.2-5.7-0.3z"/><path class="W" d="m14.6 44.8l-5.6-3.5 5.6 0.8 11.6-1.4 26.3-2.1-23.3 3.2z"/><path class="W" d="m17.1 81.4l-6.1-3.4v2l3.2 0.6-3.1 1.8 6.2 2.2z"/></svg>