<svg version="1.2" xmlns="http://www.w3.org/2000/svg" viewBox="0 0 1200 1200" width="1200" height="1200">
	<title>planet-with-rings-publicdomainvectors</title>
	<style>
		.s0 { fill: #fbcfb8 } 
		.s1 { fill: #f3793c } 
		.s2 { fill: #f69a6c } 
		.s3 { fill: #be4726 } 
		.s4 { fill: #f69664 } 
		.s5 { fill: #f8ad87 } 
		.s6 { fill: #d55e27 } 
		.s7 { fill: #ab3f24 } 
		.s8 { fill: #b24225 } 
		.s9 { fill: #6e2912 } 
		.s10 { fill: #8e351d } 
		.s11 { fill: #5a230e } 
		.s12 { fill: #7c2f17 } 
		.s13 { fill: #4a1e0c } 
		.s14 { fill: #692810 } 
	</style>
	<g id="_Artboards_">
	</g>
	<g id="Publicdomainvectors.org">
		<g id="&lt;Group&gt;">
			<g id="&lt;Group&gt;">
				<path id="&lt;Path&gt;" class="s0" d="m809.6 425c169.3-49.1 293.9-59 311.1-17.7 25.3 60.2-187.9 206.9-476.2 327.6-288.2 120.6-546.3 160-567.5 109.3-21.3-50.8 84.4-127.9 238.2-214.1q1.6 11.8 4.1 23.6c-103.1 62.7-174.8 114.6-157.8 155.1 17 40.5 234.1 9.5 475.6-91.6 241.6-101.1 420.2-224 399.1-274.6-12.8-30.5-95.8-27.6-212.8 1.9q-6.5-10.1-13.8-19.5z"/>
				<path id="&lt;Path&gt;" class="s0" d="m484.9 334.9c143.5-60.1 308.5 7.5 368.5 151 60.1 143.5-7.5 308.5-151 368.6-143.5 60-308.5-7.6-368.5-151.1-60.1-143.5 7.5-308.5 151-368.5z"/>
				<path id="&lt;Path&gt;" class="s1" d="m491.7 338c143.5-60.1 308.5 7.6 368.5 151 60.1 143.5-7.5 308.5-151 368.6-143.5 60-308.5-7.6-368.5-151.1-60.1-143.5 7.5-308.5 151-368.5z"/>
				<path id="&lt;Path&gt;" class="s2" d="m442.7 411.8c72.7-42 152.8-25.4 178.9 37 26.1 62.4-11.6 147-84.3 189-72.7 42-152.8 25.4-178.9-37-26.1-62.4 11.6-147 84.3-189z"/>
				<path id="&lt;Path&gt;" class="s3" d="m882.1 597.5c0.1 70.6-26.6 139-74.2 190.8-66-36-161.4-38.7-253.3-0.3-34.7 14.6-65.6 33.6-91.7 55.6-21.9-12.3-42.2-27.5-60.4-45.4z"/>
				<path id="&lt;Compound Path&gt;" fill-rule="evenodd" class="s4" d="m676 326.5c11.6 3.2 23 7.2 34 11.9-82.7 59.9-221.2 135.5-386.6 208.5 3.7-19.9 9.5-39.3 17.3-57.9 138-57.9 258.2-116.8 335.3-162.5zm205.4 251.2c0.8 10.4 0.9 20.9 0.5 31.2-81 64-236.2 149.9-424 231.8-16.1-9.4-31.2-20.4-45.2-32.9 24.5-9.7 49.5-19.9 75-30.6 178.9-74.9 328.4-151.6 393.7-199.5zm-21.3-88.9c-72.7 76.3-260.7 164.6-518.9 219q-0.3-0.6-0.5-1.3c-6-14.3-10.7-28.8-14.2-43.5q29.7-3.9 60.1-9.1c200.2-34.3 373.5-101.4 469.5-174.2q2.1 4.5 4 9.1z"/>
				<path id="&lt;Compound Path&gt;" class="s5" d="m594.2 411.9c-68.1 38.9-150.4 80.7-241.8 122 3.8-20.6 12.3-41.3 24.9-60.4 64.3-27.7 124-55.4 176.4-81.4 15.2 3.7 28.9 10.4 40.5 19.8zm-19.9 198.3c-11 10.4-23.4 19.8-37 27.6-46 26.6-94.9 29.7-131.2 12.6 59-10.8 115.5-24.5 168.2-40.2z"/>
				<path id="&lt;Path&gt;" class="s6" d="m774.7 642.5l107.4-45q0 5.7-0.2 11.4c-57.7 45.6-153.1 102.3-271.1 160.7-18.7 4.5-37.5 10.6-56.2 18.4-28.5 12-54.5 27-77.3 44.1q-9.7 4.3-19.4 8.6c-16.1-9.4-31.2-20.4-45.2-32.9 24.5-9.7 49.5-19.9 75-30.6 111.5-46.6 211.6-94 287-134.7z"/>
				<path id="&lt;Compound Path&gt;" fill-rule="evenodd" class="s6" d="m517 851.4q-10.1 4.2-20.1 8.3 13.2 5.2 26.8 9c68.5-9.5 149.7-32.2 233.5-67.2 22.3-9.4 43.8-19.2 64.5-29.4 35.3-45 56.4-99.9 59.9-157.2-82.3 86.3-210.4 172-364.6 236.5zm350.5-343.1c-81.7 60-189.1 120.2-311.3 171.3-66.6 27.9-132 50.8-194 68.4q5.2 8.3 11 16.2c99.7-26.1 212.6-64.4 329.7-113.5 62.7-26.2 122.3-53.7 177.8-81.7-2.1-20.3-6.5-40.7-13.2-60.7zm-72.4-114.1c-64 36.4-140.8 74.1-225 109.3-90.4 37.9-176.8 67.7-251.3 87.9-0.4 20.5 1.3 41.1 5.4 61.7 108.7-18.2 240.6-57.1 378-114.6 52.4-21.9 102.2-45.2 148.9-69.2-14.7-28.6-33.7-53.8-56-75.1z"/>
				<path id="&lt;Path&gt;" class="s1" d="m629.1 477.9c3.8 32.8-6.5 68.5-27.4 99.7-75 27.1-146.9 48.1-212.6 62.7-13.2-9.8-23.8-23.1-30.7-39.5-2.6-6.1-4.5-12.5-5.9-18.9 66.4-19.7 140.5-46.1 217.6-78.4 20.1-8.4 39.8-16.9 59-25.6z"/>
				<path id="&lt;Path&gt;" class="s7" d="m881.6 614.9c-3.5 57.3-24.6 112.2-59.9 157.2q-11.6 5.7-23.6 11.3c-29.7-14.2-64.6-22.1-102-23 74.6-45.7 137.8-95.5 185.5-145.5z"/>
				<path id="&lt;Path&gt;" class="s8" d="m822.8 424.8c169.3-49 293.9-59 311.1-17.7 25.3 60.3-187.9 206.9-476.1 327.6-288.3 120.6-542.4 169.6-567.6 109.3-17.3-41.3 77.2-123 231-209.2q1.6 11.8 4.2 23.5c-103.1 62.7-163.5 119.8-150.7 150.3 21.2 50.5 234.1 9.5 475.7-91.6 241.5-101.1 420.2-224 399-274.5-12.8-30.6-95.7-27.6-212.8 1.8q-6.5-10.1-13.8-19.5z"/>
				<path id="&lt;Path&gt;" class="s9" d="m1134.8 409.4c19 61.7-192.4 206.2-477 325.3q-13 5.4-25.9 10.6c-43.9 11.3-84.6 19.5-120.5 24.5 44.3-15.1 91.1-32.7 139-52.8 241.5-101.1 420.2-224 399-274.5-5.7-13.7-25.6-20.7-56.3-21.5 58-10.9 106.8-15 141.7-11.6z"/>
				<path id="&lt;Path&gt;" class="s10" d="m827.8 431.5c150.9-42 260.5-49.4 276.2-11.9 23.8 56.8-177.1 195.1-448.9 308.8-271.7 113.8-511.2 159.9-535 103.1-15.7-37.5 66.5-110.5 202.3-188.5q1.9 11.3 4.7 22.6c-88.2 55.4-138.8 105.2-127.3 132.5 19.9 47.6 220.7 9 448.4-86.3 227.7-95.3 396.1-211.2 376.2-258.8-11.5-27.4-82.4-26.3-183.8-2.4q-6.1-9.9-12.8-19.1z"/>
				<path id="&lt;Path&gt;" class="s11" d="m1095 408.5c4.2 3.1 7.3 6.8 9 11.1 23.8 56.8-177.1 195.1-448.9 308.8-23.4 9.9-46.6 19.2-69.5 27.9-38.5 8.4-73.8 14.2-104.5 17.1 52.2-16.5 108.7-37.2 167.1-61.6 227.7-95.3 396.1-211.2 376.2-258.8-7.7-18.3-41.9-23.9-94-18.4 64-15.6 120.6-24.6 164.6-26.1z"/>
				<path id="&lt;Path&gt;" class="s8" d="m837.2 445.2c114.8-28.6 196-31.3 208.5-1.2 21 50.1-156.2 172-395.7 272.2-239.5 100.3-450.6 141-471.6 90.9-12.6-30.1 46.3-86.1 147.2-147.7q2.4 10.5 5.6 21c-59.1 40.8-91.3 76.5-82.6 97.3 17.6 42 194.6 7.9 395.3-76.1 200.7-84.1 349.2-186.2 331.6-228.2-8.7-20.8-56.7-22.9-127.3-9.5q-5.1-9.6-11-18.7z"/>
				<path id="&lt;Path&gt;" class="s9" d="m984.6 422.6c33.5 0.2 55.1 7.1 61.1 21.4 21 50.1-156.2 172-395.7 272.2-49.4 20.7-97.6 38.9-143.3 54.2-29.8 4-56.1 5.7-78.3 5 62.9-16 137.4-41.2 215.5-73.8 200.7-84.1 349.2-186.2 331.6-228.2-8.7-20.8-56.7-22.9-127.3-9.5q-1.5-2.9-3.2-5.8c49.9-15.2 97.1-27.2 139.6-35.5z"/>
				<path id="&lt;Path&gt;" class="s12" d="m844.9 457.9c84.1-17.9 142-17.1 151.9 6.6 18.6 44.4-138.5 152.6-351 241.5-212.6 89-399.9 125.1-418.5 80.6-9.9-23.7 30.2-65.5 101.9-112.8q2.9 10.2 6.6 20.3c-34.9 27.8-52.5 51.4-46.2 66.4 15.6 37.3 172.6 7 350.7-67.5 178.1-74.6 309.8-165.2 294.2-202.4-6.3-15-35.5-19.1-79.7-13.7q-4.6-9.8-9.9-19z"/>
				<path id="&lt;Path&gt;" class="s13" d="m847.3 457.4c82.8-17.4 139.7-16.4 149.5 7.1 18.6 44.4-138.5 152.6-351 241.5-69.6 29.1-136.4 52.5-195.5 69.4-23.7 0.7-43.7-0.7-59.2-4.4 64.8-11 154-38.2 249.2-78 178.1-74.6 309.8-165.2 294.2-202.4-6.3-15-35.5-19.1-79.7-13.7q-4.6-9.7-9.8-18.8z"/>
				<path id="&lt;Path&gt;" class="s10" d="m851 469.1c59.5-9.9 99.4-6.8 107.1 11.6 16.8 40-124.6 137.2-315.7 217.2-191.2 80-359.7 112.5-376.4 72.5-7.7-18.4 18.2-49 67-84.4q3.4 10.3 7.7 20.5l0.3 0.8c-16 16.2-23 30-19 39.7 14.1 33.4 155.3 6.3 315.5-60.8 160.1-67 278.6-148.6 264.6-182.1-4.1-9.6-18.8-14.3-41.5-14.3l-0.4-0.8q-4.2-10.2-9.2-19.9z"/>
				<path id="&lt;Path&gt;" class="s14" d="m851 469.1c59.5-9.9 99.4-6.8 107.1 11.6 16.8 40-124.6 137.2-315.7 217.2-85.2 35.7-165.8 61.9-230.6 76.4-19.5-1.9-34.7-6.2-44.4-13.1 56.7-1.1 158.8-28.4 270.1-75 160.1-67 278.6-148.6 264.6-182.1-4.1-9.6-18.8-14.3-41.5-14.3l-0.4-0.8q-4.2-10.2-9.2-19.9z"/>
				<path id="&lt;Path&gt;" class="s0" d="m346.5 729.7q-6.9-12.7-12.6-26.3c-12.4-29.5-19.3-59.9-21.3-90.1l6.4-2.7c1.5 32.1 8.5 64.5 21.7 95.9q4.6 11.1 10 21.5z"/>
			</g>
			<g id="&lt;Group&gt;">
				<path id="&lt;Path&gt;" class="s2" d="m932.2 103.1l3.7 11.9 11.8 3.6-11.8 3.6-3.7 11.8-3.6-11.8-11.8-3.6 11.8-3.6z"/>
				<path id="&lt;Path&gt;" class="s2" d="m436.3 186.1l3.6 11.8 11.8 3.6-11.8 3.6-3.6 11.9-3.7-11.9-11.8-3.6 11.8-3.6z"/>
				<path id="&lt;Path&gt;" class="s2" d="m238.7 345.4l1.5 5 5 1.5-5 1.6-1.5 4.9-1.5-4.9-5-1.6 5-1.5z"/>
				<path id="&lt;Path&gt;" class="s2" d="m835.5 937.3l1.5 5 5 1.5-5 1.6-1.5 4.9-1.5-4.9-5-1.6 5-1.5z"/>
				<path id="&lt;Path&gt;" class="s2" d="m1066.4 1008.9l1.5 5 5 1.5-5 1.5-1.5 5-1.5-5-5-1.5 5-1.5z"/>
				<path id="&lt;Path&gt;" class="s2" d="m1066.4 742.2l1.5 5 5 1.5-5 1.5-1.5 5-1.5-5-5-1.5 5-1.5z"/>
				<path id="&lt;Path&gt;" class="s2" d="m523.3 1054.4l1.9 6.2 6.2 1.9-6.2 1.9-1.9 6.3-1.9-6.3-6.3-1.9 6.3-1.9z"/>
				<path id="&lt;Path&gt;" class="s2" d="m82.4 433.2l1.9 6.3 6.2 1.9-6.2 1.9-1.9 6.2-1.9-6.2-6.3-1.9 6.3-1.9z"/>
				<path id="&lt;Path&gt;" class="s2" d="m140.7 118.6l3.4 10.9 10.9 3.3-10.9 3.4-3.4 10.8-3.3-10.8-10.9-3.4 10.9-3.3z"/>
				<path id="&lt;Path&gt;" class="s2" d="m340.3 217l5.6 18 18 5.5-18 5.6-5.6 18-5.5-18-18-5.6 18-5.5z"/>
				<path id="&lt;Path&gt;" class="s2" d="m685.9 160l1.9 6.3 6.2 1.9-6.2 1.9-1.9 6.2-1.9-6.2-6.2-1.9 6.2-1.9z"/>
				<path id="&lt;Path&gt;" class="s2" d="m268.8 981.2l5.5 18.1 18.1 5.5-18.1 5.6-5.5 18-5.6-18-18-5.6 18-5.5z"/>
				<path id="&lt;Path&gt;" class="s2" d="m761.5 1070.7l5.9 19.3 19.3 5.9-19.3 5.9-5.9 19.3-5.9-19.3-19.3-5.9 19.3-5.9z"/>
				<path id="&lt;Path&gt;" class="s2" d="m936.3 1062.5l4.6 15 14.9 4.6-14.9 4.5-4.6 15-4.6-15-14.9-4.5 14.9-4.6z"/>
				<path id="&lt;Path&gt;" class="s2" d="m60.2 1095.9l6.2 20.2 20.3 6.2-20.3 6.2-6.2 20.2-6.2-20.2-20.2-6.2 20.2-6.2z"/>
			</g>
		</g>
	</g>
</svg>