<?xml version="1.0" encoding="UTF-8"?>
<!DOCTYPE svg PUBLIC "-//W3C//DTD SVG 1.1//EN" "http://www.w3.org/Graphics/SVG/1.1/DTD/svg11.dtd">
<svg version="1.1" xmlns="http://www.w3.org/2000/svg" xmlns:xlink="http://www.w3.org/1999/xlink" x="0" y="0" width="544.483" height="603.904" viewBox="0, 0, 544.483, 603.904">
  <g id="Layer_1">
    <path d="M168.674,149.598 L166.73,122.058 C166.73,122.058 146.48,117.846 146.318,133.884 C146.318,133.884 148.586,156.402 168.674,149.598 z" fill="#FDD9C2" id="path29093"/>
    <path d="M166.73,122.058 C166.73,122.058 146.48,117.846 146.318,133.884 C146.318,133.884 148.586,156.402 168.674,149.598" fill-opacity="0" stroke="#373435" stroke-width="4.734" stroke-linecap="round" stroke-linejoin="round" id="path29095"/>
    <g id="g29101">
      <path d="M297.462,67.302 C297.462,67.302 313.986,80.91 310.098,110.394 L305.076,106.668 C305.076,106.668 309.126,128.862 297.786,151.38 L294.546,146.034 C294.546,146.034 290.496,166.608 272.352,175.518 L210.632,185.076 C210.632,185.076 173.534,166.446 158.306,133.722 C158.306,133.722 145.672,126.432 145.348,109.584 C145.348,109.584 143.728,89.01 145.024,84.474 C146.318,79.776 232.5,44.298 297.462,67.302 z" fill="#67462E" id="path29097"/>
      <path d="M297.462,67.302 C297.462,67.302 313.986,80.91 310.098,110.394 L305.076,106.668 C305.076,106.668 309.126,128.862 297.786,151.38 L294.546,146.034 C294.546,146.034 290.496,166.608 272.352,175.518 L210.632,185.076 C210.632,185.076 173.534,166.446 158.306,133.722 C158.306,133.722 145.672,126.432 145.348,109.584 C145.348,109.584 143.728,89.01 145.024,84.474 C146.318,79.776 232.5,44.298 297.462,67.302 z" fill-opacity="0" stroke="#373435" stroke-width="5.328" stroke-linejoin="round" id="path29099"/>
    </g>
    <g id="g29121">
      <g id="g29107">
        <path d="M221.324,546.817 C221.324,546.817 167.378,565.771 174.992,581.485 L261.174,581.485 L258.744,550.381 L221.162,546.817 z" fill="#FFFFFF" id="path29103"/>
        <path d="M221.324,546.817 C221.324,546.817 167.378,565.771 174.992,581.485 L261.174,581.485 L258.744,550.381 L221.162,546.817 z" fill-opacity="0" stroke="#373435" stroke-width="5.328" stroke-linejoin="round" id="path29105"/>
      </g>
      <path d="M244.974,550.705 L188.924,578.893 C188.924,578.893 189.41,568.363 224.402,558.319 C226.994,557.509 241.896,551.515 244.974,550.705 z" fill="#FFFFFF" id="path29109"/>
      <path d="M188.924,578.893 C188.924,578.893 189.41,568.363 224.402,558.319 C226.994,557.509 241.896,551.515 244.974,550.705" fill-opacity="0" stroke="#373435" stroke-width="5.328" stroke-linecap="round" stroke-linejoin="round" id="path29111"/>
      <path d="M218.084,581.323 L210.47,563.827 C210.47,563.827 215.978,571.441 218.084,581.323 z" fill="#FFFFFF" id="path29113"/>
      <path d="M210.47,563.827 C210.47,563.827 215.978,571.441 218.084,581.323" fill-opacity="0" stroke="#373435" stroke-width="5.328" stroke-linecap="round" stroke-linejoin="round" id="path29115"/>
      <path d="M229.584,579.865 L220.838,560.749 C220.838,560.749 223.592,562.045 229.584,579.865 z" fill="#FFFFFF" id="path29117"/>
      <path d="M220.838,560.749 C220.838,560.749 223.592,562.045 229.584,579.865" fill-opacity="0" stroke="#373435" stroke-width="5.328" stroke-linecap="round" stroke-linejoin="round" id="path29119"/>
    </g>
    <g id="g29127">
      <path d="M377.487,334.438 C377.487,334.438 398.223,375.91 383.967,412.684 L321.597,409.444 C321.597,409.444 266.034,535.801 259.716,551.839 L221,545.359 C221,545.359 229.262,489.793 235.092,456.262 C237.846,440.224 237.198,435.364 246.918,420.946 C256.476,406.528 291.468,336.22 291.468,336.22 L377.649,334.6 z" fill="#317ABE" id="path29123"/>
      <path d="M377.487,334.438 C377.487,334.438 398.223,375.91 383.967,412.684 L321.597,409.444 C321.597,409.444 266.034,535.801 259.716,551.839 L221,545.359 C221,545.359 229.262,489.793 235.092,456.262 C237.846,440.224 237.198,435.364 246.918,420.946 C256.476,406.528 291.468,336.22 291.468,336.22 L377.649,334.6 z" fill-opacity="0" stroke="#373435" stroke-width="5.328" stroke-linejoin="round" id="path29125"/>
    </g>
    <g id="g29133">
      <path d="M132.874,380.284 C131.092,378.664 127.852,378.34 123.964,383.038 C123.964,383.038 43.938,480.886 28.062,503.239 L42.48,514.417 L132.226,388.546 C132.226,388.546 136.6,383.848 132.874,380.284 z" fill="#7E7E7F" id="path29129"/>
      <path d="M132.874,380.284 C131.092,378.664 127.852,378.34 123.964,383.038 C123.964,383.038 43.938,480.886 28.062,503.239 L42.48,514.417 L132.226,388.546 C132.226,388.546 136.6,383.848 132.874,380.284 z" fill-opacity="0" stroke="#373435" stroke-width="5.328" stroke-linejoin="round" id="path29131"/>
    </g>
    <g id="g29139">
      <path d="M24.66,467.278 C24.66,467.278 7.002,465.01 2.952,483.478 C2.952,483.478 1.008,489.793 7.164,493.195 C13.158,496.597 19.152,498.379 19.152,498.379 L36,520.897 C36,520.897 40.212,533.047 51.876,528.187 C63.538,523.327 70.504,513.283 63.7,504.373 L42.642,489.793 z" fill="#D6363A" id="path29135"/>
      <path d="M24.66,467.278 C24.66,467.278 7.002,465.01 2.952,483.478 C2.952,483.478 1.008,489.793 7.164,493.195 C13.158,496.597 19.152,498.379 19.152,498.379 L36,520.897 C36,520.897 40.212,533.047 51.876,528.187 C63.538,523.327 70.504,513.283 63.7,504.373 L42.642,489.793 z" fill-opacity="0" stroke="#373435" stroke-width="5.328" stroke-linejoin="round" id="path29137"/>
    </g>
    <g id="g29145">
      <path d="M251.778,82.53 C259.068,94.68 273.324,102.78 273.324,102.78 L280.776,93.384 C280.776,93.384 285.96,87.552 289.038,91.278 C290.172,92.736 289.686,95.004 290.01,96.948 C295.518,137.448 288.876,161.748 262.47,181.026 L264.9,184.428 L267.168,189.288 C270.084,198.198 250.806,206.46 250.806,206.46 C245.784,205.164 245.136,196.74 245.136,196.74 L244.002,189.774 C209.822,199.332 163.814,179.406 152.15,115.578 C147.29,88.686 154.742,63.09 169.484,45.594 C169.484,45.594 236.226,56.124 251.94,82.368 z" fill="#FDD9C2" id="path29141"/>
      <path d="M251.778,82.53 C259.068,94.68 273.324,102.78 273.324,102.78 L280.776,93.384 C280.776,93.384 285.96,87.552 289.038,91.278 C290.172,92.736 289.686,95.004 290.01,96.948 C295.518,137.448 288.876,161.748 262.47,181.026 L264.9,184.428 L267.168,189.288 C270.084,198.198 250.806,206.46 250.806,206.46 C245.784,205.164 245.136,196.74 245.136,196.74 L244.002,189.774 C209.822,199.332 163.814,179.406 152.15,115.578 C147.29,88.686 154.742,63.09 169.484,45.594 C169.484,45.594 236.226,56.124 251.94,82.368 z" fill-opacity="0" stroke="#373435" stroke-width="5.328" stroke-linejoin="round" id="path29143"/>
    </g>
    <path d="M286.122,122.22 L273.81,103.914 C273.81,103.914 278.832,89.496 288.066,88.362 C294.06,87.714 300.702,88.362 303.942,97.11 C303.942,97.11 310.098,121.734 286.122,122.058 z" fill="#FDD9C2" id="path29147"/>
    <path d="M273.81,103.914 C273.81,103.914 278.832,89.496 288.066,88.362 C294.06,87.714 300.702,88.362 303.942,97.11 C303.942,97.11 310.098,121.734 286.122,122.058" fill-opacity="0" stroke="#373435" stroke-width="5.328" stroke-linecap="round" stroke-linejoin="round" id="path29149"/>
    <g id="g29155">
      <path d="M201.884,272.392 L132.388,354.688 C132.388,354.688 120.238,360.034 108.898,365.218 C106.63,371.212 106.792,383.686 110.68,390.328 C110.68,390.328 118.294,402.316 137.572,397.456 C137.572,397.456 154.256,389.194 149.558,370.078 C149.558,370.078 206.582,312.082 224.24,289.726 L202.046,272.392 z" fill="#FDD9C2" id="path29151"/>
      <path d="M201.884,272.392 L132.388,354.688 C132.388,354.688 120.238,360.034 108.898,365.218 C106.63,371.212 106.792,383.686 110.68,390.328 C110.68,390.328 118.294,402.316 137.572,397.456 C137.572,397.456 154.256,389.194 149.558,370.078 C149.558,370.078 206.582,312.082 224.24,289.726 L202.046,272.392 z" fill-opacity="0" stroke="#373435" stroke-width="5.328" stroke-linejoin="round" id="path29153"/>
    </g>
    <g id="g29161">
      <path d="M132.874,378.34 C131.092,376.72 127.852,376.396 123.964,381.094 C123.964,381.094 32.436,478.294 16.398,500.647 L30.816,511.825 L132.226,386.602 C132.226,386.602 136.6,381.904 132.874,378.34 z" fill="#7E7E7F" id="path29157"/>
      <path d="M132.874,378.34 C131.092,376.72 127.852,376.396 123.964,381.094 C123.964,381.094 32.436,478.294 16.398,500.647 L30.816,511.825 L132.226,386.602 C132.226,386.602 136.6,381.904 132.874,378.34 z" fill-opacity="0" stroke="#373435" stroke-width="5.328" stroke-linejoin="round" id="path29159"/>
    </g>
    <g id="g29167">
      <path d="M245.136,197.064 C251.13,213.912 264.738,184.59 264.738,184.59 C264.738,184.59 291.954,178.272 315.117,194.31 C348.003,216.99 370.035,309.004 380.889,334.438 C380.889,334.438 343.467,357.928 286.446,350.476 C286.446,350.476 261.66,310.948 247.89,269.8 C234.768,286.162 226.832,299.122 226.832,299.122 L193.46,268.018 C217.274,235.618 232.5,210.348 232.5,210.348 C232.5,210.348 238.98,200.142 244.974,197.064 z" fill="#FBB24B" id="path29163"/>
      <path d="M245.136,197.064 C251.13,213.912 264.738,184.59 264.738,184.59 C264.738,184.59 291.954,178.272 315.117,194.31 C348.003,216.99 370.035,309.004 380.889,334.438 C380.889,334.438 343.467,357.928 286.446,350.476 C286.446,350.476 261.66,310.948 247.89,269.8 C234.768,286.162 226.832,299.122 226.832,299.122 L193.46,268.018 C217.274,235.618 232.5,210.348 232.5,210.348 C232.5,210.348 238.98,200.142 244.974,197.064 z" fill-opacity="0" stroke="#373435" stroke-width="5.328" stroke-linejoin="round" id="path29165"/>
    </g>
    <g id="g29173">
      <path d="M286.932,362.788 C286.932,362.788 351.729,354.364 387.531,387.412 C422.683,419.974 468.367,431.8 485.861,440.224 C504.653,449.134 535.919,463.552 541.589,521.707 C544.019,546.331 527.009,580.675 489.425,591.367 C489.425,591.367 441.961,610.969 279.966,594.931 C279.966,594.931 213.548,594.445 255.99,524.623 C287.742,472.462 283.692,459.664 281.586,444.76 C275.268,401.02 300.702,380.77 300.702,380.77 L225.536,364.732 C225.536,364.732 220.19,350.152 245.136,353.554 C266.52,356.47 242.22,327.958 253.398,332.818 C264.576,337.678 286.608,362.788 286.608,362.788 z" fill="#F4B6D3" id="path29169"/>
      <path d="M286.932,362.788 C286.932,362.788 351.729,354.364 387.531,387.412 C422.683,419.974 468.367,431.8 485.861,440.224 C504.653,449.134 535.919,463.552 541.589,521.707 C544.019,546.331 527.009,580.675 489.425,591.367 C489.425,591.367 441.961,610.969 279.966,594.931 C279.966,594.931 213.548,594.445 255.99,524.623 C287.742,472.462 283.692,459.664 281.586,444.76 C275.268,401.02 300.702,380.77 300.702,380.77 L225.536,364.732 C225.536,364.732 220.19,350.152 245.136,353.554 C266.52,356.47 242.22,327.958 253.398,332.818 C264.576,337.678 286.608,362.788 286.608,362.788 z" fill-opacity="0" stroke="#373435" stroke-width="5.328" stroke-linejoin="round" id="path29171"/>
    </g>
    <g id="g29179">
      <path d="M343.953,248.254 C343.953,248.254 353.025,265.102 353.835,286 C354.807,308.842 341.847,329.416 310.422,361.654 C310.422,361.654 307.668,385.63 294.87,388.708 C290.982,389.68 290.01,389.032 286.122,387.412 C282.558,387.412 279.156,385.63 276.564,383.848 C270.246,382.876 267.33,379.15 267.33,379.15 C267.33,379.15 257.61,375.424 265.386,371.05 C273.81,366.352 274.782,355.822 273.162,346.264 C280.128,340.432 285.636,343.672 295.194,345.292 C301.35,346.264 322.407,313.378 329.859,288.268 C331.155,275.632 325.647,269.962 320.463,253.438 L343.953,248.092 z" fill="#FDD9C2" id="path29175"/>
      <path d="M343.953,248.254 C343.953,248.254 353.025,265.102 353.835,286 C354.807,308.842 341.847,329.416 310.422,361.654 C310.422,361.654 307.668,385.63 294.87,388.708 C290.982,389.68 290.01,389.032 286.122,387.412 C282.558,387.412 279.156,385.63 276.564,383.848 C270.246,382.876 267.33,379.15 267.33,379.15 C267.33,379.15 257.61,375.424 265.386,371.05 C273.81,366.352 274.782,355.822 273.162,346.264 C280.128,340.432 285.636,343.672 295.194,345.292 C301.35,346.264 322.407,313.378 329.859,288.268 C331.155,275.632 325.647,269.962 320.463,253.438 L343.953,248.092 z" fill-opacity="0" stroke="#373435" stroke-width="5.328" stroke-linejoin="round" id="path29177"/>
    </g>
    <path d="M303.618,226.708 L316.575,268.504 C316.575,268.504 316.089,257.326 303.618,226.708 z" fill="#FBB24B" id="path29187"/>
    <g id="g29195">
      <path d="M65.158,508.099 C68.236,511.339 66.13,518.305 60.3,523.813 C54.63,529.321 47.502,531.103 44.424,528.025 C41.346,524.785 43.452,517.819 49.284,512.311 C54.954,506.803 62.08,504.859 65.158,508.099 z" fill="#BEBFC1" id="path29191"/>
      <path d="M65.158,508.099 C68.236,511.339 66.13,518.305 60.3,523.813 C54.63,529.321 47.502,531.103 44.424,528.025 C41.346,524.785 43.452,517.819 49.284,512.311 C54.954,506.803 62.08,504.859 65.158,508.099 z" fill-opacity="0" stroke="#373435" stroke-width="5.328" stroke-linejoin="round" id="path29193"/>
    </g>
    <g id="g29201">
      <path d="M155.876,67.14 C155.876,67.14 159.116,11.736 228.776,7.362 C228.776,7.362 286.122,-0.252 300.378,65.52 C300.378,65.52 289.686,86.742 248.376,83.502 L156.038,67.14 z" fill="#D3EEFC" id="path29197"/>
      <path d="M155.876,67.14 C155.876,67.14 159.116,11.736 228.776,7.362 C228.776,7.362 286.122,-0.252 300.378,65.52 C300.378,65.52 289.686,86.742 248.376,83.502 L156.038,67.14 z" fill-opacity="0" stroke="#373435" stroke-width="5.328" stroke-linejoin="round" id="path29199"/>
    </g>
    <g id="g29207">
      <path d="M155.876,67.14 L112.462,101.97 C112.462,101.97 168.998,128.052 228.776,96.462 C228.776,96.462 247.566,86.418 256.314,84.15 C256.314,84.15 185.36,46.404 156.038,66.978 z" fill="#00AFEF" id="path29203"/>
      <path d="M155.876,67.14 L112.462,101.97 C112.462,101.97 168.998,128.052 228.776,96.462 C228.776,96.462 247.566,86.418 256.314,84.15 C256.314,84.15 185.36,46.404 156.038,66.978 z" fill-opacity="0" stroke="#373435" stroke-width="5.328" stroke-linejoin="round" id="path29205"/>
    </g>
    <path d="M242.544,155.106 C226.67,172.602 208.688,165.15 208.688,165.15" fill-opacity="0" stroke="#373435" stroke-width="5.328" stroke-linecap="round" stroke-linejoin="round" id="path29209"/>
    <path d="M208.688,165.15 L209.336,159.156" fill-opacity="0" stroke="#373435" stroke-width="5.328" stroke-linecap="round" stroke-linejoin="round" id="path29211"/>
    <g id="g29227">
      <path d="M190.544,131.13 C190.868,133.236 185.522,135.99 178.556,137.124 C171.59,138.42 165.596,137.772 165.272,135.666 C164.948,133.56 170.294,130.806 177.26,129.672 C184.226,128.376 190.22,129.024 190.544,131.13 z" fill="#F8B7B3" fill-opacity="0.702" id="path29213"/>
      <path d="M177.422,130.158 L175.802,122.382 C175.802,122.382 176.126,123.84 177.422,130.158 z" fill="#FEFEFE" id="path29215"/>
      <path d="M175.802,122.382 C175.802,122.382 176.126,123.84 177.422,130.158" fill-opacity="0" stroke="#373435" stroke-width="5.861" stroke-linecap="round" stroke-linejoin="round" id="path29217"/>
      <path d="M249.834,120.924 C250.32,123.03 245.136,125.946 238.17,127.566 C231.206,129.186 225.212,128.7 224.726,126.756 C224.24,124.65 229.586,121.734 236.55,120.114 C243.516,118.494 249.51,118.98 249.996,120.924 z" fill="#F8B7B3" fill-opacity="0.702" id="path29219"/>
      <path d="M233.958,120.114 L232.176,112.5 C232.176,112.5 232.176,113.958 233.958,120.114 z" fill="#FEFEFE" id="path29221"/>
      <path d="M232.014,112.5 C232.014,112.5 232.014,113.958 233.796,120.114" fill-opacity="0" stroke="#373435" stroke-width="5.861" stroke-linecap="round" stroke-linejoin="round" id="path29223"/>
      <path d="M206.258,123.84 C209.174,129.51 195.566,128.052 198.32,133.56 C200.102,137.124 208.85,135.018 211.766,134.37" fill-opacity="0" stroke="#373435" stroke-width="3.996" stroke-linecap="round" stroke-linejoin="round" id="path29225"/>
    </g>
    <path d="M247.89,269.8 L235.254,224.926 C235.254,224.926 242.22,253.438 247.89,269.8 z" fill="#00AFEF" id="path29229"/>
    <path d="M235.254,224.926 C235.254,224.926 242.22,253.438 247.89,269.8" fill-opacity="0" stroke="#373435" stroke-width="5.328" stroke-linecap="round" stroke-linejoin="round" id="path29231"/>
    <path d="M240.438,202.41 C240.438,202.41 242.22,213.588 253.074,211.644 C264.252,209.862 273.486,184.752 273.486,184.752" fill-opacity="0" stroke="#373435" stroke-width="5.328" stroke-linecap="round" stroke-linejoin="round" id="path29233"/>
    <path d="M254.37,82.206 C240.762,20.16 223.268,8.982 223.268,8.982 C223.268,8.982 194.432,17.244 184.226,59.04" fill-opacity="0" stroke="#373435" stroke-width="5.328" stroke-linecap="round" stroke-linejoin="round" id="path29235"/>
    <g id="g29241">
      <path d="M227.804,6.39 C227.804,8.496 225.212,10.116 221.972,10.116 C218.732,10.116 216.14,8.496 216.14,6.39 C216.14,4.284 218.732,2.664 221.972,2.664 C225.212,2.664 227.804,4.284 227.804,6.39 z" fill="#D3EEFC" id="path29237"/>
      <path d="M227.804,6.39 C227.804,8.496 225.212,10.116 221.972,10.116 C218.732,10.116 216.14,8.496 216.14,6.39 C216.14,4.284 218.732,2.664 221.972,2.664 C225.212,2.664 227.804,4.284 227.804,6.39 z" fill-opacity="0" stroke="#373435" stroke-width="5.328" stroke-linejoin="round" id="path29239"/>
    </g>
    <path d="M440.665,496.921 C440.665,496.921 456.541,525.433 429.001,543.415" fill-opacity="0" stroke="#373435" stroke-width="5.328" stroke-linecap="round" stroke-linejoin="round" id="path29243"/>
    <path d="M289.686,524.461 C289.686,524.461 323.541,531.913 320.301,573.061" fill-opacity="0" stroke="#373435" stroke-width="5.328" stroke-linecap="round" stroke-linejoin="round" id="path29245"/>
    <path d="M353.025,541.309 C353.025,541.309 392.067,534.991 404.701,560.263" fill-opacity="0" stroke="#373435" stroke-width="5.328" stroke-linecap="round" stroke-linejoin="round" id="path29247"/>
    <g id="path29189">
      <path d="M312.494,192.67 C312.494,192.67 332.775,203.706 358.614,248.416 L316.413,268.504 C316.413,268.504 315.927,257.326 303.456,226.708" fill="#FBB24B"/>
      <path d="M312.494,192.67 C312.494,192.67 332.775,203.706 358.614,248.416 L316.413,268.504 C316.413,268.504 315.927,257.326 303.456,226.708" fill-opacity="0" stroke="#373435" stroke-width="5.328" stroke-linecap="round" stroke-linejoin="round"/>
    </g>
  </g>
</svg>
