<svg version="1.2" xmlns="http://www.w3.org/2000/svg" viewBox="0 0 159 74" width="159" height="74"><style>.a{opacity:.5;fill:#5ae2ff;stroke:#aaa9a9;stroke-linecap:round;stroke-linejoin:round;stroke-width:2.8}.b{fill:#f95;stroke:#000;stroke-linecap:round;stroke-linejoin:round;stroke-width:.4}.c{fill:#fff;stroke:#000;stroke-linecap:round;stroke-linejoin:round;stroke-width:.4}.d{fill:#afc6e9;stroke:#1f1a17;stroke-width:.4}.e{fill:#afc6e9;stroke:#000;stroke-linecap:round;stroke-linejoin:round;stroke-width:.4}.f{fill:#da251d;stroke:#1f1a17;stroke-width:.4}.g{fill:#28166f;stroke:#1f1a17;stroke-width:.4}.h{fill:#fcc;stroke:#1f1a17;stroke-width:.4}.i{fill:#fc0;stroke:#1f1a17;stroke-width:.4}.j{fill:#630;stroke:#1f1a17;stroke-width:.4}.k{fill:#ff6;stroke:#1f1a17;stroke-width:.4}.l{fill:#191919;stroke:#000;stroke-linecap:round;stroke-linejoin:round;stroke-width:.4}.m{fill:#191919;stroke:#1f1a17;stroke-width:.4}.n{fill:#ccc;stroke:#1f1a17;stroke-width:.4}.o{fill:#4d4d4d;stroke:#000;stroke-linecap:round;stroke-linejoin:round;stroke-width:.4}.p{fill:#aaa9a9;stroke:#000;stroke-linecap:round;stroke-linejoin:round;stroke-width:.4}</style><path fill-rule="evenodd" class="a" d="m59.6 4.2c1.8-2.2 6.2-1.5 6.2 2.2v3.9q1.4 0 2.8 0 4.9 0 9.4 0v-3.2c0-4.5 6.8-4.5 6.8 0v4.1c10.1 4.5 4.2 24.7 12.7 24.9q4.4 0.1 8.3 0.1c-1.2-1.5-2-3.3-2.3-5.2q-0.6-0.1-1.1-0.4-0.5-0.3-0.8-0.8-0.4-0.4-0.6-0.9-0.2-0.6-0.2-1.2 0-0.6 0.2-1.2 0.3-0.7 0.8-1.1 0.5-0.5 1.1-0.7 0.7-0.3 1.4-0.3 0.1 0 0.2 0 0.2 0 0.3 0 0.1 0 0.2 0.1 0.1 0 0.3 0c1-1.2 2.3-2.1 4-2.8q-1.2-0.8-1.8-2.1c-2.7-0.4-5.7-1.1-6.5-1.8 2.1-1.4 4.3-2.2 6.5-2.9 0.4-1.1 1.1-2.1 2-2.9q-0.2-0.4-0.3-0.7c2-3.2 7.2-5.4 10.6-4.7q0.7 0.1 1.3 0.4 0-0.5 0.2-0.9 0.1-0.4 0.4-0.7 0.3-0.3 0.7-0.5 0.4-0.2 0.8-0.2 0.4 0 0.8 0.2 0.3 0.2 0.6 0.5 0.3 0.3 0.5 0.7 0.1 0.4 0.1 0.9 0 0.3-0.1 0.6 0 0.3-0.2 0.6-0.2 0.3-0.4 0.5-0.2 0.2-0.5 0.3c1.9 2.2 2.6 5.6 2 9.3q-0.2 0-0.3 0c-0.2 1.4-0.9 2.5-2 3.3 3.6 1.4 6 4.1 6 8.1 0 2.5-0.9 4.7-2.4 6.6 5.1 0 9.4 0.1 12.8 0.4v-3.1c0-3.8 4.8-4.4 6.4-1.9 0.6-0.7 1.4-1.1 2.4-1.1v6.3c-0.7 0-1.4-0.2-1.9-0.6v1.5c4.9 1.4 6.9 4 7.4 8.9l-0.2 3.9c-0.8 2.9-4.2 5.1-9.1 6.8q0.5 2 0.5 3.9 0 1.9-0.5 3.6-0.5 1.8-1.5 3.1-1.1 1.4-2.4 2.2-0.6 0.4-1.1 0.6-0.6 0.3-1.2 0.4-0.6 0.2-1.2 0.3-0.6 0-1.3 0l0.1 0.2h-91.6v-0.2q-1.6 0-3.2-0.4-1.7-0.5-3.2-1.5-1.5-1-2.9-2.3-1.3-1.4-2.3-3-0.2-0.4-0.5-0.8-0.2-0.4-0.4-0.8-0.2-0.4-0.3-0.8-0.2-0.4-0.4-0.9c-7.6-2-7.8-6.1-7.9-13.3q0-0.4 0-0.8-0.2-0.1-0.4-0.2-0.1-0.1-0.3-0.2-0.2-0.1-0.3-0.3-0.2-0.1-0.3-0.3l-5.8 22.8c-0.6 2.1-2.5 3.8-4.4 3.8-1.8 0-10.9-0.9-10.9-0.9 15.3-14.9 21.1-32.5 13.8-38.1-6-4.7 2-3.9 6.4-2.4 3.6 1.3 3.8 3.4 3.3 5.5l-0.6 2.3q0.1-0.1 0.3-0.1 0.1 0 0.3-0.1 0.1 0 0.3 0 0.1 0 0.3-0.1c2.1-4.2 6.2-5.8 11.6-6.9 2.5-6.1 4.4-17.6 21.8-20.6v-1.9c-0.9 1-2.1 1.7-3.6 1.7v-9.5c1.9 0 3.6 1.1 4.3 2.8zm55.5 57.8q0 0.7-0.2 1.5-0.1 0.7-0.3 1.3-0.2 0.7-0.4 1.3-0.3 0.6-0.7 1.2h13.6q-0.3-0.3-0.6-0.7-0.3-0.3-0.6-0.7-0.3-0.4-0.6-0.8-0.3-0.4-0.5-0.8-0.2-0.3-0.4-0.7-0.2-0.4-0.4-0.7-0.2-0.4-0.4-0.8-0.1-0.4-0.3-0.7-4 0.3-8.2 0.6zm-61.2 2q-0.2 0.6-0.4 1.2-0.2 0.5-0.4 1.1-0.2 0.5-0.5 1h13.6q-0.4-0.3-0.7-0.7-0.3-0.3-0.6-0.7-0.3-0.4-0.6-0.8-0.2-0.4-0.5-0.8-0.1-0.2-0.2-0.4-0.1-0.2-0.2-0.3-0.1-0.2-0.2-0.4-0.1-0.2-0.2-0.4c-3 0-5.7-0.1-8.2-0.1q-0.4 0-0.8 0 0 0.7-0.1 1.3zm30.6-1.1q0 0.6-0.2 1.2-0.1 0.6-0.3 1.1-0.2 0.6-0.4 1.1-0.3 0.5-0.6 1h13.7q-0.4-0.3-0.7-0.7-0.3-0.3-0.6-0.7-0.3-0.4-0.6-0.8-0.3-0.4-0.5-0.8-0.1-0.2-0.2-0.4-0.1-0.1-0.2-0.3-0.1-0.2-0.2-0.4-0.1-0.2-0.2-0.4-4.6 0.1-9 0.1z"/><path fill-rule="evenodd" class="b" d="m109.6 14.3c0 2 0.1 4 1.1 5.8-3.1-0.3-8.5-1.3-9.7-2.3 2.8-1.8 5.7-2.7 8.6-3.5z"/><path fill-rule="evenodd" class="c" d="m129.7 29.7c0 6.3-5.9 11.3-13.1 11.3-7.3 0-13.2-5-13.2-11.3 0-6.2 5.9-9.3 13.2-9.3 7.2 0 13.1 3.1 13.1 9.3z"/><path fill-rule="evenodd" class="c" d="m125.7 17.4c0 4.4-4.1 6-9.3 6-5.2 0-9.3-1.6-9.3-6 0-4.4 4.1-8 9.3-8 5.2 0 9.3 3.6 9.3 8z"/><path fill-rule="evenodd" class="d" d="m126 18.3c-5.6-1.2-15.7-4-16.8-7 2-3.2 7.2-5.4 10.6-4.7 4.8 0.9 7.2 5.8 6.2 11.7z"/><path class="e" d="m123.2 9.2c-1.2 0-2.1-1-2.1-2.2 0-1.3 0.9-2.3 2.1-2.3 1.1 0 2 1 2 2.3 0 1.2-0.9 2.2-2 2.2z"/><path class="c" d="m104.3 31.1c-1.9 0-3.5-1.5-3.5-3.4 0-1.8 1.6-3.3 3.5-3.3 1.9 0 3.5 1.5 3.5 3.3 0 1.9-1.6 3.4-3.5 3.4z"/><path fill-rule="evenodd" class="f" d="m147 33.6v6h-6.9v-6c0-4.5 6.9-4.5 6.9 0z"/><path fill-rule="evenodd" class="f" d="m65.8 6.4v5.9h-6.9v-5.9c0-4.6 6.9-4.6 6.9 0z"/><path class="g" d="m54.4 53.9c-4 0-7.2-5.2-7.2-11.6 0-6.5 3.2-11.7 7.2-11.7 3.9 0 7.2 5.2 7.2 11.7 0 6.4-3.3 11.6-7.2 11.6z"/><path class="h" d="m54.6 29.4c-2.9-0.5-4.8-3.6-4.2-6.8 0.6-3.2 3.4-5.4 6.3-4.9 2.8 0.5 4.7 3.6 4.1 6.8-0.5 3.2-3.4 5.4-6.2 4.9z"/><path fill-rule="evenodd" class="i" d="m84.8 7.1v6h-6.8v-6c0-4.5 6.8-4.5 6.8 0z"/><path fill-rule="evenodd" class="j" d="m42.3 26.5c0.4-0.2 0.8-0.1 1 0.3l4.8 9.1c0.2 0.3 0.1 0.8-0.2 1-0.4 0.1-0.8 0-1-0.3l-2.1-3.9-5.2 2.7-0.6-1.3 5.1-2.7-2.1-3.9c-0.2-0.4 0-0.8 0.3-1z"/><path fill-rule="evenodd" class="f" d="m154.4 49.1c0 16.1-69.2 13.6-99.6 13.6-30.4 0-30.8-3.5-31-15-0.1-11.5 5.1-14.3 13.3-16 3-7.1 5-21.4 31.6-21.4q6 0 11.6 0c16.3 0.2 7.6 25.6 17.2 25.8 46.3 0.8 57.1-2.5 56.9 13zm-87-26.7c0 7 1.2 10.6 8.5 10.6 7.3 0 8.2-2.4 8.2-10.6 0-8.3-2.9-9.1-8.3-9.1-5.5 0-8.4 2-8.4 9.1zm-5.6-9c-15 0-17.3 8.1-20.3 14.3-2.4 4.8 2.3 5.9 11.8 5.9 6.3 0 11.4-1.8 11.4-6.8 0-5 1.8-13.4-2.9-13.4z"/><path fill-rule="evenodd" class="k" d="m55.3 6.1v4.8c2.6 0 4.8-2.1 4.8-4.8 0-2.6-2.2-4.7-4.8-4.7z"/><path fill-rule="evenodd" class="k" d="m148.9 33.8v3.1c-1.8 0-3.2-1.4-3.2-3.1 0-1.8 1.4-3.2 3.2-3.2z"/><path fill-rule="evenodd" class="i" d="m36.6 37h5.6l4 4.9h-5.7z"/><path fill-rule="evenodd" class="l" d="m131.1 45.6l2.7 13-2.7-8.6h-90.5l-0.8-4.4zm-86.2 21.7h90.7l0.9 4.4h-91.6z"/><path class="m" d="m49.7 70.2c-5.1 3.2-12.4 0.5-16.4-5.9-4-6.4-3.1-14.1 2-17.3 5.1-3.1 12.4-0.5 16.3 6 4 6.4 3.1 14.1-1.9 17.2z"/><path class="n" d="m44.4 61.7c-1.7 1.1-4 0.5-5-1.2-1.1-1.7-0.5-3.9 1.2-5 1.7-1 3.9-0.5 5 1.2 1 1.7 0.5 4-1.2 5z"/><path class="m" d="m43.1 59.6c-0.6 0.4-1.3 0.2-1.6-0.4-0.3-0.5-0.2-1.2 0.4-1.6 0.5-0.3 1.2-0.1 1.6 0.4 0.3 0.6 0.1 1.3-0.4 1.6z"/><path class="m" d="m141.2 70.2c-5.1 3.2-12.4 0.5-16.4-5.9-4-6.4-3.1-14.1 2-17.3 5-3.1 12.4-0.5 16.3 6 4 6.4 3.1 14.1-1.9 17.2z"/><path class="n" d="m135.9 61.7c-1.7 1.1-4 0.5-5-1.2-1.1-1.7-0.6-3.9 1.1-5 1.8-1 4-0.5 5 1.2 1.1 1.7 0.6 4-1.1 5z"/><path class="m" d="m134.6 59.6c-0.6 0.4-1.3 0.2-1.6-0.4-0.4-0.5-0.2-1.2 0.3-1.6 0.6-0.3 1.3-0.1 1.6 0.4 0.4 0.6 0.2 1.3-0.3 1.6z"/><path class="m" d="m80.2 70.2c-5.1 3.2-12.4 0.5-16.4-5.9-4-6.4-3.1-14.1 2-17.3 5-3.1 12.4-0.5 16.3 6 4 6.4 3.1 14.1-1.9 17.2z"/><path class="n" d="m74.9 61.7c-1.7 1.1-4 0.5-5-1.2-1.1-1.7-0.5-3.9 1.2-5 1.7-1 3.9-0.5 5 1.2 1 1.7 0.5 4-1.2 5z"/><path class="m" d="m73.6 59.6c-0.6 0.4-1.3 0.2-1.6-0.4-0.4-0.5-0.2-1.2 0.4-1.6 0.5-0.3 1.2-0.1 1.6 0.4 0.3 0.6 0.1 1.3-0.4 1.6z"/><path class="m" d="m110.7 70.2c-5.1 3.2-12.4 0.5-16.4-5.9-4-6.4-3.1-14.1 2-17.3 5-3.1 12.4-0.5 16.3 6 4 6.4 3.1 14.1-1.9 17.2z"/><path class="n" d="m105.4 61.7c-1.7 1.1-4 0.5-5-1.2-1.1-1.7-0.6-3.9 1.2-5 1.7-1 3.9-0.5 4.9 1.2 1.1 1.7 0.6 4-1.1 5z"/><path class="m" d="m104.1 59.6c-0.6 0.4-1.3 0.2-1.6-0.4-0.4-0.5-0.2-1.2 0.4-1.6 0.5-0.3 1.2-0.1 1.5 0.4 0.4 0.6 0.2 1.3-0.3 1.6z"/><path fill-rule="evenodd" class="i" d="m44.5 37h5.7l3.9 4.9h-5.6z"/><path fill-rule="evenodd" class="i" d="m52.4 37h5.7l4 4.9h-5.7z"/><path fill-rule="evenodd" class="i" d="m60.4 37h5.6l4 4.9h-5.7z"/><path fill-rule="evenodd" class="i" d="m84.2 37h5.6l4 4.9h-5.6z"/><path fill-rule="evenodd" class="i" d="m76.3 37h5.6l4 4.9h-5.7z"/><path fill-rule="evenodd" class="i" d="m68.3 37h5.7l3.9 4.9h-5.6z"/><path fill-rule="evenodd" class="o" d="m21.6 31.1c3.6 1.3 3.8 3.4 3.3 5.5l-8.2 32.1c-0.6 2.1-2.5 3.8-4.4 3.8-1.8 0-10.9-0.9-10.9-0.9 15.3-14.9 21.1-32.5 13.8-38.1-6-4.7 2-3.9 6.4-2.4z"/><path class="p" d="m25.8 47.4c-2.4 0-4.4-2-4.4-4.4 0-2.4 2-4.4 4.4-4.4 2.4 0 4.4 2 4.4 4.4 0 2.4-2 4.4-4.4 4.4z"/><path fill-rule="evenodd" class="d" d="m61.7 24.7c-4-0.9-10.2-3.2-11-5.2 1.4-2 3.7-3.2 6.1-2.8 3.4 0.6 5.6 4.2 4.9 8z"/><path class="c" d="m57 27.3c-1.7 0-3.1-1.4-3.1-3.2 0-1.7 1.4-3.1 3.1-3.1 1.8 0 3.2 1.4 3.2 3.1 0 1.8-1.4 3.2-3.2 3.2z"/><path class="e" d="m59.7 18.8c-0.8 0-1.4-0.6-1.4-1.4 0-0.8 0.6-1.4 1.4-1.4 0.8 0 1.5 0.6 1.5 1.4 0 0.8-0.7 1.4-1.5 1.4z"/><path class="e" d="m50.4 27.7l9.7 1.2-0.5 3.7-9.7-1.2z"/></svg>