<svg version="1.2" xmlns="http://www.w3.org/2000/svg" viewBox="0 0 464 273" width="464" height="273"><style>.a{opacity:.3}.b{fill:#667345}.c{fill:#7d875c}.d{fill:#8c9469}.e{fill:#999e75}.f{fill:#7d734d}.g{fill:#998566}.h{fill:#290559}.i{fill:#2b0d5c}.j{fill:#2e125e}.k{fill:#301761}.l{fill:#331c66}.m{fill:#362169}.n{fill:#4f3347}.o{fill:#543b47}.p{fill:#5c4747}.q{fill:#665245}.r{fill:#755c47}.s{fill:#806347}.t{fill:#8a734f}.u{fill:#8f7d54}.v{fill:#968759}.w{fill:#9c8f5e}.x{fill:#9c9161}.y{fill:#422b00}.z{fill:#4a3000}.A{fill:#573b00}.B{fill:#634700}.C{fill:#6b4f03}.D{fill:#755708}.E{fill:#785c0d}.F{fill:#876b26}.G{fill:#9c823b}.H{fill:#b39952}.I{fill:#ccb06b}.J{fill:#382100}.K{fill:#738054}.L{fill:#879166}.M{fill:#99a175}.N{fill:#a6ab80}.O{fill:#8a7d57}.P{fill:#a69173}.Q{fill:#260054}.R{fill:#362469}.S{fill:#36296e}.T{fill:#382b70}.U{fill:#382e70}.V{fill:#3b3373}.W{fill:#3b3675}.X{fill:#3d3878}.Y{fill:#403878}.Z{fill:#423d7a}.a0{fill:#45407a}.a1{fill:#4a427d}.a2{fill:#4f4782}.a3{fill:#574f87}.a4{fill:#61598f}.a5{fill:#706999}.a6{fill:#8782a8}.a7{fill:#808c5e}.a8{fill:#949e73}.a9{fill:#a6ad82}.aa{fill:#b3b88f}.ab{fill:#948a63}.ac{fill:#b39e80}.ad{fill:#360d61}.ae{fill:#381266}.af{fill:#381a69}.ag{fill:#3b1c6b}.ah{fill:#3b216e}.ai{fill:#402973}.aj{fill:#422e75}.ak{fill:#403075}.al{fill:#42367a}.am{fill:#45387a}.an{fill:#453b7d}.ao{fill:#474080}.ap{fill:#4a4282}.aq{fill:#4d4785}.ar{fill:#524a87}.as{fill:#544d8a}.at{fill:#5c548f}.au{fill:#635c94}.av{fill:#6b6699}.aw{fill:#7d75a6}.ax{fill:#9691b8}</style><path class="a" d="m176.6 118.3l-29.3-5.4-31.6-1.5-31.7 1.5-29 4.4-24.4 6.3-17.1 8.3-7.3 9.2 5.1 10.1 11.8 9.2 12.4 7.5 12.6 5.7 12.7 4.4 12.5 2.9 12.8 2 12.2 0.9 12.2 0.2 14.7-2.2 18.9-5.6 19.8-8.3 18.3-9.7 13.3-11 5.6-10.7-5.5-10-19-8.2z"/><path class="a" d="m217.8 162.1l-25.2 6.1-23.6 10.7-20.9 13.5-16.8 15.3-11.5 15.3-4.9 14.2 3 11.5 12.4 7.7 16.5 3.9 15.2 2.3 13.8 0.7 12.9-0.7 11.5-2 10.5-2.9 9.4-3.9 8.6-4.4 8.5-7.8 8.5-12.4 6.9-15.4 4.3-16.3-0.2-15.4-5.6-12.2-12.6-7.5-20.7-0.3z"/><path class="a" d="m419.4 129.2l-25.5-6.1-25.8-1.4-24.7 2.6-21.9 5.9-17.3 8.3-10.7 10.5-2.5 11.7 7.6 12.4 12.7 11 12.6 9 12 7 11.7 5.2 11.2 3.4 10.7 2.2 10.2 0.9 9.6-0.2 11.1-3 13.2-7.2 13.2-10.5 11.2-12.5 6.8-13.6 0.7-13.6-8-12.2-18.1-9.8z"/><path class="b" d="m281.5 80.7l-0.6 0.2-0.8-0.4-1-0.3-1.4-0.4-1.8-0.3-2.4-0.2-4.1-0.6-4.9-1.4-5.8-1.9-5.7-2.3-6.1-2.7-5.5-2.8-4.4-2.5-3-2.2-1.9-1.9-1.5-1.5-1.4-1.5-0.8-1.4-0.9-1.3-0.5-0.9-0.3-0.8 0.1-0.2-0.1-0.5-0.4-0.5-0.5-0.9-0.3-0.8-0.9-1-0.6-0.4-1.1-0.1-0.8 0.5-1.4 0.8-1.2 1.2-1.3 1.2-1 1.5-0.9 1.4-0.3 1.3v1.2l0.8 1 1 0.5 1.1 0.9 0.8 0.7 1 0.8 1.4 1.2 0.5 0.7 0.8 0.3 2.8 1.5 3.9 2.2 4.9 2.8 5.4 2.7 5.9 2.9 5.6 2.3 5.3 2.1 4.2 1.3 3.3 1.2 2.5 0.9 2 1 1.4 0.5 1 0.7 0.9 0.5 1 0.6 1.7 0.7 1.5 0.7 1 0.2 0.5 0.1v-0.5l0.5-1.2 0.5-1.5 0.9-1.5 0.5-1.9 0.5-1.2 0.4-1v0.2z"/><path class="c" d="m281.3 80.9l-0.5 0.1-0.9-0.3-1-0.3-1.3-0.4-1.9-0.3h-2.4l-4.1-0.9-4.9-1.3-5.7-1.9-6-2.4-5.9-2.7-5.4-2.7-4.6-2.5-3.1-2.2-1.8-1.7-1.4-1.7-1.4-1.6-0.8-1.3-0.9-1.4-0.5-1-0.3-0.7 0.2-0.1-0.2-0.5-0.3-0.6-0.6-0.8-0.3-0.8-0.8-1.1-0.7-0.3-1-0.2-0.9 0.5-1.3 0.9-1.2 1-1.2 1.2-0.9 1.5-0.8 1.2-0.3 1.2 0.1 1 0.9 1 1 0.7 1 0.7 1 0.7 1.2 0.8 1.5 1 0.7 0.5 0.9 0.5 2.5 1.6 3.7 2.2 4.8 2.7 5.2 2.7 5.6 2.9 5.6 2.5 5.5 2.1 4.2 1.3 3.2 1.2 2.6 0.8 2 0.9 1.4 0.5 1.2 0.5 0.8 0.5 1 0.7 1.5 0.8 1.6 0.6 0.8 0.1 0.5 0.2v-0.5l0.5-0.9 0.5-1.3 0.7-1.4 0.5-1.5 0.5-1.2 0.2-0.8h0.2z"/><path class="d" d="m281.1 81.4l-0.5 0.1-1-0.3-1-0.5-1.4-0.3-1.9-0.4h-2.3l-3.9-0.8-4.9-1.4-5.8-2-5.9-2.4-6-2.7-5.4-2.7-4.6-2.6-3-2.2-1.9-1.7-1.4-1.7-1.3-1.5-0.9-1.3-0.8-1.4-0.5-0.8-0.4-0.7 0.2-0.2-0.2-0.5-0.3-0.7-0.5-0.8-0.4-0.7-0.8-1-0.9-0.4-1-0.3-0.8 0.5-1.2 0.7-1 1.2-1 1-0.9 1.3-0.7 1.2-0.1 1.2 0.1 0.9 1 1 1.1 0.7 1.2 0.6 1 0.5 1.2 0.7 0.8 0.4 0.9 0.5 0.5 0.1 0.3 0.2 0.8 0.5 2.4 1.5 3.6 2.3 4.7 2.8 5.1 2.9 5.5 2.9 5.4 2.5 5.2 2.1 4.3 1.2 3.4 1.2 2.5 0.8 2.2 0.8 1.4 0.6 1.2 0.5 1 0.5 1 0.5 1.5 0.7 1.2 0.5 0.7 0.1 0.3 0.2v-0.3l0.5-0.9 0.4-1.2 0.7-1 0.5-1.3 0.5-0.9 0.1-0.5 0.2 0.2z"/><path class="e" d="m280.9 81.7l-0.6 0.2-1-0.4-1.1-0.5-1.3-0.3-1.9-0.3h-2.4l-3.9-0.7-4.9-1.4-5.8-1.8-5.9-2.4-5.9-2.7-5.5-2.7-4.5-2.8-3.1-2.2-1.9-1.7-1.5-1.7-1.3-1.5-0.9-1.3-0.8-1.4-0.5-0.8-0.4-0.7 0.2-0.2-0.2-0.5-0.1-0.7-0.6-0.8-0.3-0.9-0.8-0.8-0.7-0.4-1-0.1-1.1 0.5-1.1 0.5-1.1 0.8-0.8 1.1-0.5 1-0.5 0.8 0.1 1 0.4 0.9 1 1 1 0.5 1.4 0.5 1.3 0.5 1.4 0.5 1 0.2 1.2 0.3 0.7 0.2 0.3 0.2 0.7 0.5 2.2 1.7 3.4 2.4 4.4 2.8 4.7 2.9 5.3 3.1 5.3 2.5 5 2.1 4.3 1.1 3.5 1.2 2.6 0.7 2.2 0.9 1.5 0.3 1.2 0.5 0.9 0.3 1 0.7 0.8 0.4 0.7 0.3 0.3 0.2 0.6 0.1h0.3 0.2l0.3-0.8 1.2-1.5 0.8-1.4h0.5z"/><path class="f" d="m223.6 49l0.4 0.2 1 0.6 0.3 0.2 0.4 0.5 0.1 0.7 0.2 1-0.2 0.7-0.1 0.7-0.2 0.5v0.5l-0.7 0.3-0.7 1-1.3 1.1-1.2 1.1-1 0.9-0.4 0.3-0.3-0.1h-0.7-1-0.9l-1-0.4-0.8-0.3-0.4-0.5 0.2-0.5 0.2-1.1 0.5-0.8 0.5-1 0.5-1 0.5-1.2 0.5-1 0.5-0.9 0.7-0.3 1-0.9 1.5-0.3 1.2-0.2 0.7 0.2z"/><path class="g" d="m223.4 49h0.2l0.9 0.5 0.5 0.5 0.3 1.2-0.3 1-0.2 0.7-0.5 0.3-0.5 0.7-0.9 0.5-0.6 0.4-0.6 0.1-0.1 0.2-0.9 0.2-1.5 0.3h-1.4l-0.3-0.5 0.3-1.4 0.9-1.5 0.7-1.5 0.8-0.9 0.9-0.6 1-0.2 0.8-0.2 0.5 0.2z"/><path class="h" d="m301.1 146.7l-4.7-6.1-4.4-6.3-4.3-6.3-3.7-6.1-3.6-6.1-2.5-5.4-1.9-5.1-0.5-4.1-0.3-3.5-0.4-2.6-0.5-2-0.1-1.4-0.4-1.3 0.2-1.1 0.2-1 0.8-1 0.5-0.8 0.5-0.5 1-0.9 0.9-0.5 0.3-0.9 0.4-0.8v-1.2l-0.4-1.5-0.5-1.9-0.1-1.5-0.2-1.5 0.5-1.6 0.3-1 0.7-1 0.7-1 1-1 1-1.4 1.4-1.2 1.5-1.3 1.9-1.4 5.1-3.4 7.8-3.9 9.6-3.9 11.1-3.5 11.3-3.3 11.4-2 10.7-1 9.6 0.8 8.9 1.7 9.3 2.4 9.5 2.7 9.7 3.6 9.3 4.1 9 5 8.3 6 7.6 7.1 0.9 1 1 1 0.8 1 1.1 1.1 0.8 0.8 0.8 1 0.9 1 1 1.1 4.1 5.4 3.5 5.2 2.8 4.6 2 4.6 1.2 3.9 0.7 3.6-0.2 3-0.9 2.7h-0.1l-0.9 1-0.8 1.6-1.2 1.7-1 2.2-1.4 2.2-1.3 2.5-1.7 2.6-1.7 2.8-0.5 0.6-0.2 0.3-3.7 4.6-4.1 4.9-4.6 4.7-5.1 4.8-6.1 4.1-6.4 3.9-7.3 3-7.8 2.6-11.4 1.6-12.5 1.4h-13.8l-13.7-1-13.6-2.9-12.7-4.6-11.2-6.8-9.2-8.9z"/><path class="i" d="m302.5 143.9l-4.8-5.7-4.5-6-4.5-5.9-3.7-5.9-3.5-5.8-2.6-5.1-1.9-4.7-0.8-3.9-0.5-3.4-0.4-2.6-0.5-1.8-0.1-1.4-0.4-1.3 0.2-1.1 0.2-1 0.8-1 0.7-1.2 0.8-0.8 0.6-0.5 0.6-0.5 0.4-0.7 0.1-0.9-0.1-1-0.2-1.5-0.3-1.4-0.2-1-0.2-1.2v-1-1.2l0.4-1 0.5-1.2 0.8-1.2 1-1.5 1.7-1.5 0.7-0.9 1-0.8 1-1 1.6-0.9 5.1-3.4 7.8-3.9 9.6-3.9 11.1-3.5 11.3-3.3 11.4-2 10.7-1 9.6 0.8 8.9 1.7 9.3 2.4 9.5 2.7 9.7 3.6 9.3 4.1 9 5 8.3 6 7.6 7.1 0.5 0.3 0.5 0.7 6 7 4.9 6.6 3.9 5.7 2.9 5.5 1.7 4.5 0.7 4.3-0.4 3.5-1 3.1-2.4 3.7-3.4 5.6-4.7 6.8-5.8 7.3-7.4 7.1-9 6.8-10.7 5.6-12.2 3.9-11.4 1.7-12.4 1h-13.4l-13.2-1-13.4-2.9-12.4-4.4-11-6.6-9-8.7z"/><path class="j" d="m304.2 141.4l-4.9-5.6-4.6-5.6-4.4-5.8-3.9-5.4-3.6-5.6-2.7-4.9-2-4.4-0.9-3.7-0.7-3.3-0.5-2.3-0.5-1.9-0.3-1.4-0.5-1.1 0.1-1.1 0.2-1.1 0.9-1.1 0.6-1.1 0.9-0.7 0.5-0.7 0.7-0.5 0.3-0.7 0.2-0.7v-1.2l-0.2-1.3-0.5-1.5-0.3-1.6-0.2-1.3 0.3-1.4 0.4-1.7 0.8-1.5 1.2-1.7 2-1.9 0.7-0.8 0.9-0.7 1-0.8 1.2-0.9 5.1-3.4 7.8-3.9 9.6-3.9 11.1-3.5 11.3-3.3 11.4-2 10.7-1 9.6 0.8 8 1.6 8.5 2 8.6 2.5 9 3.1 8.7 3.6 8.5 4.2 7.9 4.9 7.7 5.9 1 0.9 1 1.2 1 1 1.2 1.2 6.3 7.1 5.2 6.8 4.1 6.1 3.1 5.6 1.7 4.7 0.8 4.3-0.2 3.5-1.1 3.3-2.6 3.7-3.4 5.2-4.7 6.3-5.8 6.8-7.5 6.8-8.8 6.3-10.7 5-12 3.6-11.4 1.5-12.2 1.1-13-0.2-13.1-1-13.1-2.7-11.8-4.3-10.9-6.3-8.8-8.1z"/><path class="k" d="m305.5 138.5l-5-5.2-4.6-5.3-4.4-5.4-3.9-5.3-3.6-5.1-2.7-4.7-2-4.3-1.1-3.3-0.8-3.1-0.9-2.2-0.6-1.9-0.4-1.3-0.3-1.2 0.1-1 0.4-1 0.8-1.1 0.7-1.3 0.7-0.7 0.5-0.7 0.7-0.3 0.2-0.7 0.1-0.7-0.1-1.2-0.2-1.3-0.5-2-0.4-1.6v-1.7l0.5-1.7 1.1-2.2 1.7-2 2.3-2.4 3.4-2.7 0.4-0.3 0.1-0.2 5.8-3.4 8-3.7 9.5-3.9 10.7-3.2 10.8-3.1 11-2 10.2-0.7 9.3 0.8 7 1.4 7.6 1.7 7.7 2 7.9 2.6 7.7 2.7 7.6 3.5 7.5 3.9 7.1 4.6 1.3 1 1.4 1.2 1.4 1.2 1.5 1.2 1.2 1.2 1.3 1.3 1.2 1.2 1.4 1.6 6.2 7.1 5.3 6.8 4.1 5.9 3 5.4 1.7 4.6 0.9 4.2-0.4 3.6-1.2 3.2-2.3 3.4-3.4 5.1-4.8 5.8-5.9 6.4-7.5 6.3-8.8 5.7-10.5 4.8-12 3.2-11.4 1.4-12.1 0.8-12.7-0.1-12.7-1.1-12.5-2.5-11.8-4.1-10.6-5.9-8.9-8z"/><path class="l" d="m307.2 135.8l-5.1-5.1-4.7-5.1-4.6-5.1-3.9-4.9-3.5-4.9-2.9-4.2-2.2-4.1-1.2-3.2-1-2.9-0.7-2-0.9-1.7-0.3-1.2-0.5-1.2 0.2-1 0.1-1.2 0.9-1 0.7-1.4 0.8-0.7 0.5-0.5 0.5-0.3 0.2-0.7 0.2-0.5-0.2-1-0.2-1.5-0.5-2.1-0.3-1.7v-1.7l0.5-1.7 1-2 1.7-2 2.4-2.6 3.4-2.5 0.8-0.9 1-0.6 1-0.9 1.6-0.7 6.6-3.4 8.1-3.4 9.2-3.3 9.8-2.9 9.9-2.6 9.8-1.5 9.3-0.5 8.3 0.8 6.1 1.1 6.7 1.7 6.6 1.5 6.8 2.2 6.6 2.2 6.8 2.7 6.4 2.9 6.6 3.5 2.4 1.6 2.5 1.5 2.2 1.7 2.4 1.9 2.2 1.7 2.2 1.8 2.1 2.1 2 2.2 6.1 7.1 5.3 6.6 3.9 5.8 3 5.4 1.7 4.6 0.9 4-0.4 3.6-1.2 3-2.3 3.4-3.4 4.8-4.8 5.4-5.9 6.1-7.6 5.6-8.9 5.3-10.3 4.4-12.1 3-11 1-11.9 0.7-12.3-0.1-12.4-1.1-12.2-2.3-11.4-3.9-10.3-5.6-8.9-7.5z"/><path class="l" d="m308.9 132.6l-5.2-4.8-4.9-4.7-4.6-4.8-3.9-4.5-3.6-4.6-2.9-3.9-2.2-3.7-1.3-2.9-1.2-2.6-1-2-0.9-1.7-0.5-1.2-0.5-1.2v-1l0.3-1 0.9-1 0.7-1.4 0.8-0.7 0.5-0.6 0.5-0.2 0.2-0.7v-0.5l-0.2-1-0.3-1.5-0.5-1.9-0.4-1.7v-1.7l0.7-1.7 0.9-2 1.7-2.1 2.3-2.5 3.6-2.7 0.5-0.7 1-0.5 1-0.7 1.1-0.7 1-0.8 1.3-0.7 1.4-0.7 1.5-0.6 7-3.3 8.1-3 8.5-2.9 9.2-2.4 8.9-2 8.9-1.2 8.3-0.5 7.4 0.8 5.1 1.1 5.5 1.1 5.6 1.2 5.7 1.7 5.8 1.7 5.8 2.2 5.7 2.2 5.8 2.7 3.4 1.7 3.5 2.1 3.4 1.8 3.4 2.4 3.1 2.2 3 2.6 2.8 2.5 2.8 3.1 6.1 7.1 5.3 6.6 3.9 5.8 2.9 5.2 1.7 4.4 0.8 4.1-0.3 3.6-1.2 3-2.5 3.2-3.4 4.4-4.8 5-5.9 5.4-7.7 5.1-8.6 4.7-10.5 3.7-11.9 2.8-11.2 0.8-11.5 0.5-12.1-0.2-12-1-11.9-2.3-11-3.6-10-5.3-8.7-6.9z"/><path class="m" d="m310.8 129.4l-5.4-4.4-4.9-4.3-4.6-4.6-4.1-4-3.6-4.3-3-3.7-2.4-3.4-1.5-2.7-1.4-2.4-1-1.8-1-1.6-0.5-1-0.5-1.2v-1l0.3-1.2 0.9-1 0.6-1.4 0.7-0.6 0.4-0.7 0.5-0.2v-0.5l0.1-0.5-0.1-1-0.4-1.5-0.5-1.9-0.3-1.5v-1.7l0.7-1.7 0.8-2.1 1.7-2 2.4-2.5 3.4-2.8 1-1 1.3-0.8 1.4-1 1.9-0.9 1.7-1.2 2.2-1 2-1 2.5-1 7-3.1 7.6-2.5 8-2.6 8.3-2 8-1.7 8-0.8 7.3-0.2 6.7 0.8 4.1 0.7 4.6 1 4.6 1.1 4.6 1.3 4.5 1.2 4.8 1.5 4.7 1.5 4.8 1.9 4.6 2 4.5 2.3 4.4 2.5 4.6 2.7 3.9 2.7 4.1 3.2 3.7 3.3 3.8 3.7 6.1 6.9 5.1 6.5 3.9 5.6 2.8 5.2 1.6 4.5 0.6 3.9-0.3 3.3-1 3.1-2.6 3-3.3 4.1-4.8 4.4-5.9 4.9-7.7 4.6-8.6 4.3-10.4 3.2-11.8 2.4-11.1 0.6-11.3 0.4-11.7-0.4-11.6-1-11.3-2.2-10.7-3.4-10-4.9-8.5-6.4z"/><path class="n" d="m312.2 128.7l-5.5-4.3-4.9-4.2-4.6-4.4-3.9-4.1-3.5-4.2-3.1-3.6-2.4-3.4-1.5-2.5-1.5-2.4-1-1.8-1-1.6-0.6-1-0.5-1v-1l0.4-1.2 0.8-1 0.9-1.4 0.6-0.7 0.6-0.6 0.5-0.2v-0.5-0.5l-0.2-1-0.3-1.4-0.6-1.9-0.3-1.5v-1.7l0.5-1.7 1-2 1.7-2.1 2.4-2.3 3.6-2.6 0.8-1 1.4-0.8 1.3-1.1 1.9-1 1.7-1.2 2-1 2.1-1 2.3-1 7-2.9 7.6-2.5 8-2.6 8.5-1.8 7.9-1.6 8-0.8 7.3-0.2 6.8 0.9 4.1 0.6 4.5 0.9 4.5 1 4.7 1.2 4.6 1.2 4.9 1.5 4.6 1.5 4.9 1.9 4.4 2 4.6 2.2 4.4 2.4 4.4 2.7 3.9 2.7 4.1 3.1 3.7 3.2 3.8 3.6 6.1 6.9 5 6.3 3.9 5.6 2.9 5.2 1.6 4.3 0.6 3.9-0.3 3.2-1.2 3.1-2.5 2.8-3.4 4.1-4.8 4.4-5.9 4.8-7.5 4.4-8.6 4.2-10.4 3.2-11.8 2.4-11.1 0.7-11.3 0.3-11.7-0.3-11.6-1-11.3-2.4-10.7-3.2-9.9-4.9-8.4-6.3z"/><path class="o" d="m313.5 127.7l-5.2-4.3-4.6-4-4.4-4.1-3.9-4.1-3.6-4.1-2.7-3.3-2.4-3.3-1.3-2.5-1.6-2.4-1-1.7-0.8-1.5-0.5-1-0.6-1.2v-1l0.4-1 0.8-1.1 0.7-1.1 0.7-0.7 0.3-0.7 0.5-0.2v-0.5-0.5l-0.1-1-0.4-1.2-0.5-1.9-0.1-1.5v-1.7l0.5-1.5 1-2 1.5-1.9 2.4-2.4 3.4-2.5 0.8-1 1.2-0.9 1.4-0.8 1.7-0.9 1.7-1 2-1 2-1 2.4-1.1 6.6-2.8 7.5-2.6 7.6-2.4 8-1.8 7.6-1.5 7.6-1.1 7-0.1 6.6 0.8 4.1 0.7 4.2 1 4.3 1 4.6 1.2 4.5 1 4.6 1.6 4.6 1.5 4.6 1.8 4.4 1.9 4.4 2.2 4.2 2.2 4.3 2.7 3.9 2.6 3.7 2.9 3.6 3 3.5 3.6 6 6.8 5.1 6.1 4 5.4 3.1 5.1 1.8 4.2 0.9 3.7-0.2 3.3-1 3-2.4 2.9-3.5 3.9-5 4.2-5.9 4.6-7.6 4.3-8.7 3.9-10.1 3-11.4 2.2-10.5 0.7-11.1 0.3-11.3-0.1-11-1.1-11.1-2.2-10.1-3.2-9.5-4.7-8.2-6.1z"/><path class="p" d="m315 126.6l-5-4-4.6-3.9-4.3-4.1-3.7-3.9-3.4-3.9-2.7-3.4-2.2-3-1.4-2.6-1.3-2.2-1-1.7-0.9-1.3-0.5-1.1-0.5-1v-1l0.3-1.2 0.9-1 0.7-1.2 0.6-0.7 0.4-0.5 0.5-0.1v-0.5-0.6l-0.2-1-0.2-1.2-0.5-1.7-0.3-1.5v-1.7l0.5-1.5 0.9-1.9 1.5-1.8 2.2-2.2 3.2-2.6 0.9-0.8 1.3-0.9 1.4-0.8 1.5-0.9 1.5-1 2.1-1 1.8-1 2.2-0.9 6.5-2.7 7.1-2.5 7.3-2.4 7.8-1.7 7.5-1.5 7.2-0.9 6.8-0.1 6.3 0.8 3.7 0.5 4.3 1 4.1 0.9 4.4 1.2 4.2 1 4.4 1.5 4.4 1.4 4.4 1.8 4.3 1.7 4.2 2.2 4.1 2.2 4.1 2.6 3.7 2.5 3.7 2.9 3.4 3.1 3.4 3.4 5.8 6.4 5.1 5.9 4.2 5.3 3.2 4.9 2.1 4.2 1.1 3.8v3l-0.8 2.9-2.5 2.7-3.4 3.8-5.1 4.2-6 4.4-7.6 4.1-8.6 3.9-10.1 2.9-11 2.2-10 0.6-10.5 0.4-10.9-0.4-10.6-1-10.6-2.2-9.8-3-9-4.6-8-6z"/><path class="q" d="m316.4 126l-4.9-3.9-4.4-3.9-4.3-4.1-3.5-3.7-3.3-3.9-2.7-3.3-2-3-1.4-2.4-1.3-2.2-1-1.5-0.9-1.4-0.3-1-0.5-1v-0.8l0.1-1.1 0.9-1 0.7-1.2 0.6-0.6 0.4-0.6 0.5-0.3v-0.5-0.5l-0.2-1-0.2-1.2-0.5-1.7-0.3-1.5v-1.6l0.5-1.5 0.7-1.7 1.5-1.9 2.1-2.2 3.2-2.3 1-0.9 1.2-0.8 1.3-0.9 1.7-0.8 1.6-1 1.8-0.9 1.9-1 2-0.9 6.3-2.7 6.8-2.3 7.3-2.4 7.4-1.7 7.3-1.5 7.2-0.9 6.6-0.2 6.1 0.9 3.5 0.5 4.1 1 4.1 0.9 4.2 1.2 4.1 1 4.4 1.5 4.1 1.4 4.4 1.7 4.1 1.6 4 2.1 3.9 2 4.1 2.6 3.7 2.5 3.8 2.7 3.4 3.1 3.2 3.2 5.6 6.3 4.9 5.9 4.1 5.3 3 4.7 2.1 4.1 1.1 3.7v3.1l-0.8 2.7-2.4 2.7-3.5 3.5-4.8 3.9-5.9 4.5-7.3 3.9-8.5 3.5-9.7 3.1-10.7 2-10 0.7-10.1 0.3-10.6-0.3-10.3-0.9-10.2-2-9.7-3.1-8.8-4.4-7.6-5.7z"/><path class="r" d="m318.3 124.6l-4.8-3.7-4.4-3.7-4.1-3.8-3.4-3.5-3.2-3.8-2.5-3-2.1-2.9-1.3-2.4-1.2-2.2-1-1.5-0.9-1.4-0.3-1-0.5-1 0.1-0.8 0.2-1.1 0.9-0.8 0.5-1.2 0.7-0.5 0.3-0.5 0.5-0.2v-0.5-0.5l-0.2-1-0.1-1.2-0.5-1.7-0.2-1.4-0.2-1.5 0.5-1.3 0.9-1.7 1.5-1.9 2-2 3.1-2.4 0.8-0.9 1.2-0.8 1.2-0.9 1.5-0.6 1.6-1.1 1.8-0.8 1.9-1 2-0.9 6-2.5 6.6-2.4 6.9-2.2 7.2-1.7 6.9-1.3 7-0.9 6.2-0.2 6 0.7 3.5 0.7 3.9 0.8 3.9 0.9 4.1 1.2 4.1 1 4.1 1.2 4 1.3 4.3 1.7 3.9 1.6 4 2 3.8 2 3.9 2.6 3.4 2.4 3.5 2.7 3.3 2.8 3.2 3.3 5.4 6.1 4.8 5.6 3.9 5.1 3 4.5 2 3.9 1.1 3.4v3.1l-0.9 2.5-2.2 2.7-3.4 3.4-4.6 3.9-5.7 4.1-7.2 3.9-8.1 3.6-9.3 2.8-10.4 1.9-9.5 0.5-9.8 0.4-10.2-0.2-10-0.9-9.8-2-9.2-2.9-8.5-4.4-7.4-5.6z"/><path class="s" d="m320.6 123.3l-4.5-3.6-3.9-3.6-3.9-3.5-3.3-3.4-3-3.6-2.4-3-2-2.7-1.2-2.2-1.2-2.1-0.9-1.5-0.8-1.2-0.5-0.8-0.5-1.1 0.2-0.8 0.1-1 0.9-0.9 0.5-1.2 0.7-0.5 0.3-0.5 0.3-0.1v-0.6l0.2-0.3-0.2-0.8-0.1-1.2-0.5-1.6-0.4-1.3v-1.5l0.5-1.2 0.7-1.7 1.4-1.7 2-2.2 2.9-2.1 0.8-0.8 1-0.7 1.2-0.8 1.6-0.7 1.5-1 1.5-0.9 1.7-0.8 2-0.9 5.6-2.3 6.5-2.2 6.6-2.3 7-1.5 6.4-1.3 6.6-0.7 6-0.2 5.6 0.7 3.5 0.5 3.6 0.9 3.7 0.8 4.1 1 3.7 1 3.9 1.2 3.9 1.4 3.9 1.5 3.7 1.5 3.8 2.1 3.5 1.8 3.8 2.4 3.2 2.2 3.4 2.7 3 2.7 3.1 3.1 5.1 5.8 4.6 5.2 3.5 4.8 3.1 4.2 1.8 3.7 1.1 3.2 0.1 2.9-0.8 2.6-2.2 2.3-3.2 3.4-4.5 3.8-5.4 3.9-6.8 3.5-7.6 3.4-8.8 2.7-9.9 1.9-9 0.5-9.5 0.3-9.4-0.3-9.5-0.7-9.5-2-8.9-2.7-8.1-4.1-7-5.2z"/><path class="t" d="m322 122.4l-4.2-3.6-3.9-3.3-3.8-3.6-3.2-3.2-2.9-3.4-2.4-2.9-1.8-2.7-1.2-2-1-2.1-0.9-1.3-0.8-1.2-0.5-1-0.5-1.1 0.1-0.6 0.2-1.1 0.7-0.8 0.5-1.2 0.7-0.5 0.3-0.3 0.5-0.2v-0.5-0.4l-0.2-0.8-0.1-1-0.5-1.5-0.2-1.4-0.2-1.4 0.5-1.3 0.7-1.7 1.4-1.5 2-2.1 2.7-2 0.7-0.9 1.2-0.6 1-0.9 1.5-0.7 1.4-1 1.7-0.7 1.7-1 2-0.7 5.4-2.3 6.1-2.2 6.3-2.1 6.6-1.3 6.5-1.4 6.3-0.8 5.9-0.2 5.4 0.7 3.4 0.5 3.6 0.8 3.5 0.9 3.8 1 3.5 1 3.9 1.2 3.8 1.4 3.9 1.5 3.5 1.5 3.6 1.9 3.6 1.8 3.5 2.3 3.2 2 3.3 2.5 2.8 2.6 2.9 3 4.9 5.6 4.5 5.3 3.5 4.6 2.9 4.2 1.9 3.6 1 3 0.2 2.7-0.9 2.6-2.2 2.3-3.1 3.4-4.2 3.4-5.3 3.9-6.4 3.4-7.5 3.4-8.6 2.5-9.5 1.9-9 0.5-9 0.4-9.3-0.4-9.2-0.8-9.1-1.9-8.5-2.7-7.8-3.9-6.8-5.1z"/><path class="u" d="m323.9 121.6l-4.3-3.4-3.7-3.4-3.6-3.4-3-3.2-2.9-3.3-2.4-2.8-1.9-2.6-1-1.8-1-2.1-0.8-1.3-0.7-1.2-0.5-0.9-0.4-1v-0.7l0.4-0.8 0.7-0.9 0.5-1 0.5-0.5 0.3-0.5 0.4-0.2v-0.5-0.3l-0.2-0.9-0.2-1-0.5-1.5-0.2-1.2v-1.4l0.5-1.1 0.7-1.6 1.2-1.5 1.9-1.9 2.7-2 0.7-0.8 1.2-0.7 1-0.9 1.3-0.6 1.4-0.9 1.5-0.8 1.5-0.9 2.1-0.7 5.2-2.2 6-2 5.9-2 6.5-1.4 6.1-1.4 6.1-0.6 5.6-0.2 5.2 0.7 3.2 0.5 3.4 0.7 3.6 0.8 3.6 1 3.5 0.9 3.6 1.2 3.7 1.2 3.7 1.5 3.4 1.5 3.6 1.7 3.4 1.9 3.4 2.2 3 2 3.1 2.4 2.9 2.5 2.9 2.9 4.7 5.4 4.2 4.9 3.4 4.5 2.8 4 1.7 3.4 1 3.1v2.5l-0.9 2.4-2 2.4-2.9 3-4.1 3.4-5.1 3.7-6.2 3.4-7.2 3.2-8.3 2.4-9.1 1.9-8.5 0.5-8.8 0.3-8.8-0.3-8.9-0.7-8.6-1.7-8.2-2.5-7.6-3.9-6.4-4.9z"/><path class="v" d="m325.9 120.2l-4.1-3.2-3.5-3.1-3.4-3.2-2.9-3-2.9-3.1-2-2.7-1.9-2.6-1-1.8-1-1.9-0.7-1.2-0.9-1.2-0.3-0.8-0.5-0.9 0.2-0.6 0.1-0.9 0.7-0.8 0.5-1 0.5-0.6 0.4-0.3 0.3-0.2v-0.5l0.2-0.3-0.2-0.7-0.2-1-0.5-1.5-0.1-1.2-0.2-1.4 0.5-1.2 0.7-1.5 1.2-1.3 1.7-1.9 2.5-1.9 0.7-0.8 1-0.5 1-0.9 1.4-0.5 1.3-0.8 1.6-0.7 1.5-0.9 1.9-0.6 5-2.2 5.6-2.1 5.8-1.8 6.1-1.4 5.8-1.2 5.9-0.7 5.4-0.1 5 0.6 3 0.6 3.2 0.6 3.3 0.7 3.4 1 3.3 0.9 3.6 1 3.4 1 3.6 1.5 3.2 1.6 3.4 1.7 3.2 1.7 3.2 2 2.9 2 3.1 2.2 2.5 2.4 2.7 2.7 4.6 5.1 4.1 4.7 3.2 4.3 2.7 3.9 1.5 3.2 1 3.1v2.5l-0.6 2.4-1.9 2-2.9 2.9-3.9 3.2-4.7 3.6-6.1 3.2-6.8 2.9-8 2.4-8.6 1.8-8.2 0.4-8.3 0.3-8.5-0.2-8.5-0.6-8.3-1.7-7.8-2.6-7.1-3.7-6.1-4.6z"/><path class="w" d="m328.3 118.8l-3.9-3-3.4-3.1-3.2-3-2.8-2.7-2.5-3.1-2-2.5-1.7-2.4-1.1-1.9-1-1.7-0.7-1.1-0.6-1.1-0.4-0.6-0.5-0.9 0.2-0.7 0.2-0.6 0.6-0.9 0.5-1 0.6-0.3 0.3-0.6 0.3-0.1v-0.4-0.3l-0.1-0.7-0.2-1-0.5-1.4-0.2-1v-1.2l0.5-1.1 0.7-1.6 1.2-1.3 1.5-1.7 2.6-1.7 0.5-0.7 1-0.7 0.8-0.7 1.2-0.6 1.2-0.9 1.4-0.7 1.5-0.6 1.7-0.7 4.7-2 5.3-1.9 5.6-1.7 5.8-1.4 5.4-1.2 5.6-0.5 5.1-0.1 4.7 0.6 2.9 0.6 3.1 0.5 3 0.6 3.2 1.1 3.1 0.8 3.4 1 3.2 1 3.4 1.4 3.1 1.2 3.2 1.7 3 1.5 3.1 2 2.7 1.9 2.7 2.2 2.6 2.2 2.5 2.6 4.2 4.7 3.8 4.6 3 3.9 2.6 3.7 1.5 3.1 0.8 2.7v2.4l-0.5 2.2-1.8 2-2.7 2.7-3.6 3.1-4.6 3.4-5.6 2.8-6.4 2.9-7.5 2.2-8.1 1.7-7.7 0.4-7.9 0.3-8-0.2-8-0.7-7.8-1.5-7.3-2.4-6.8-3.3-5.7-4.5z"/><path class="x" d="m331.3 117.2l-3.5-2.9-3.3-2.7-3-3.1-2.4-2.5-2.5-2.8-1.9-2.3-1.5-2.2-0.9-1.6-1-1.7-0.5-1-0.7-1-0.3-0.7-0.2-1.3 0.9-1.4 0.8-1.3 0.5-0.5v-0.4-0.3l-0.2-0.7v-0.8l-0.5-1.2-0.1-1.1v-1.1l0.5-1.1 0.5-1.3 1-1.2 1.5-1.7 2.2-1.5 0.5-0.7 1.1-0.7 0.8-0.7 1.2-0.5 1-0.6 1.4-0.7 1.5-0.7 1.5-0.5 4.3-1.9 4.9-1.7 5.1-1.7 5.2-1.2 5.1-1.1 5.1-0.5h4.6l4.4 0.5 2.5 0.5 2.9 0.5 2.9 0.5 3.1 0.8 2.8 0.9 3.1 0.8 2.9 1 3 1.4 2.9 1.2 2.9 1.5 2.7 1.4 2.9 1.8 2.5 1.7 2.8 2.1 2.3 2 2.4 2.4 3.9 4.6 3.6 4 2.7 3.6 2.2 3.4 1.3 2.9 1.1 2.5v2l-0.5 2.1-1.7 1.8-2.6 2.6-3.5 2.9-4.1 3-5.3 2.9-5.9 2.7-6.8 2-7.5 1.6-7.1 0.3-7.3 0.2-7.4-0.2-7.3-0.7-7.3-1.5-6.6-2-6.3-3.1-5.3-4z"/><path class="s" d="m288.2 82.9l2.1-1.4 4.2-1.5 5.4-2 6.3-1.9 6.1-2.2 5.8-1.9 4.2-1.3 2.6-0.9 1.5-0.8 2.7-1 3.4-1.4 4.4-1.3 4.8-1.4 5.4-1 5.8-0.9 6.2-0.1 6.7 0.3 7.2 1.4 7.9 2 7.8 2.7 7.2 3.1 6.8 3.7 5.6 3.9 4.4 4.4 3.6 4.1 3.9 4.2 3.9 3.9 3.9 3.9 3.6 3.2 3.4 2.8 2.8 2 2.4 1.5 1.5 0.5 1.1 0.7 0.5 0.3v0.5l-0.7 0.2-1 0.4-1.6 0.3-2 0.5-3 0.7-4.1 1.2-5.1 1.5-5.4 2-6.1 2.1-6 2.2-5.7 2.2-5 2.3-6.1 1.6-7.8 0.8h-9l-9.5-0.5-9.3-1.7-8.3-2-6.4-2.9-3.9-3.4-3.6-4.1-4.6-4-5.7-4.1-6-3.6-6.4-3.5-6.1-2.9-5.6-2.4-4.6-1.5-3.6-1.4-2.4-1.3-1.6-1.4-0.6-1.2-0.3-1.3 0.3-1 0.7-1.2 1-0.7z"/><path class="y" d="m288.6 81.4l2-1.2 4.8-1 6.1-1.4 7.1-1.3 6.9-1.6 6.5-1 4.9-1 2.7-0.5 1.4-0.7 2.2-0.8 2.9-1.2 3.7-1.2 4.1-1.2 4.7-1 5.5-0.9 6.1-0.3 6.6 0.2 7.1 1 7.3 1.5 7.3 2 6.6 2.6 6.3 3.2 5.4 3.6 4.4 4.2 3.7 4.1 4.5 4 4.5 3.9 4.6 3.8 4.3 3 3.9 2.6 3.2 1.8 2.5 1.2 1.5 0.7 1.1 0.7 0.5 0.3 0.1 0.5-0.6 0.4-1.2 0.3-1.5 0.5-2.1 0.7-3 0.5-4.3 1.4-5.2 1.5-5.6 2-6.1 2.1-6.1 2.3-5.6 2.2-5 2.4-6.1 1.5-7.8 1.1h-9.3l-9.7-0.7-9.5-1.7-8.3-2.2-6.6-3.1-4.1-3.5-3.5-4.1-4.8-3.9-5.6-4.1-6.1-3.7-6.4-3.6-6.3-3-5.8-2.6-4.7-1.5-3.6-1.3-2.5-1.4-1.7-1.4-0.5-1.3-0.2-1.4 0.5-1.2 0.7-1 1.2-0.8z"/><path class="z" d="m289.1 81.4l1.9-1.2 4.2-1 5.4-1.4 6.3-1.3 6.1-1.6 5.6-1 4.4-1 2.7-0.5 1.7-0.9 2.7-1 3.6-1.5 4.6-1.4 4.9-1.5 5.4-1.2 5.6-1 6.1-0.2 6.5 0.4 6.9 1.3 7.3 1.9 7.3 2.7 6.8 3.1 6.4 3.5 5.5 3.8 4.4 4 3.7 3.9 4.3 3.9 4.4 3.6 4.4 3.5 3.9 2.9 3.7 2.4 3.1 1.9 2.5 1.3 1.5 0.7 1 0.7 0.4 0.3v0.5l-0.7 0.2-1.2 0.3-1.5 0.2-1.9 0.5-3 0.5-4.3 1-5.2 1.2-5.6 1.6-6.1 1.7-6 2-5.7 2-4.9 2.2-6.2 1.6-7.8 1h-8.9l-9.5-0.7-9.4-1.5-8.1-2.1-6.5-2.9-3.9-3.3-3.5-3.9-4.8-3.8-5.4-3.7-5.9-3.4-6.3-3.4-5.8-2.7-5.4-2.5-4.2-1.6-3.8-1.3-2.5-1.2-1.7-1.4-0.9-1.2-0.5-1.1 0.4-1.1 0.5-1 1-0.8z"/><path class="A" d="m289.8 81.4l2-1.2 3.9-1.4 5.1-1.7 5.9-1.7 5.8-1.7 5.3-1.5 3.9-1.2 2.5-0.5 2-0.8 3.1-1.4 3.9-1.5 4.7-1.5 5.1-1.6 5.8-1.3 5.9-0.9 6.1-0.3 6.1 0.3 7 1.6 7.3 2.2 7.3 2.8 6.8 3.3 6.4 3.5 5.4 3.8 4.6 3.9 3.8 3.7 3.9 3.9 4 3.9 4.1 3.9 3.6 3.2 3.4 2.9 2.8 2.2 2.4 1.5 1.5 0.5 1.1 0.5 0.5 0.4v0.3l-0.7 0.2-1 0.3-1.6 0.4-2 0.5-3 0.5-4.1 0.8-5.1 0.9-5.6 1.3-6.1 1.2-5.9 1.6-5.6 1.6-5 2.3-5.9 1.3-7.6 0.9-9.2-0.2-9.3-0.7-9.4-1.5-8.1-2.1-6.4-2.7-3.9-3-3.4-3.7-4.3-3.4-5.1-3.6-5.6-3.1-5.9-3.2-5.8-2.5-5.2-2.1-4.4-1.5-3.6-1.3-2.5-1.2-1.7-1.2-1.1-1-0.5-1.2v-1l0.5-0.9 1.1-0.8z"/><path class="B" d="m290.8 81.4l1.7-1 3.7-1.2 4.8-1.6 5.6-1.3 5.4-1.7 5.2-1.4 4.1-1 2.6-0.5 1.8-0.8 3.2-1.4 3.9-1.5 5.1-1.7 5.3-1.9 5.8-1.3 5.9-0.9 5.9-0.3 6 0.5 6.6 1.5 6.9 2.2 7 3.1 6.6 3.2 6.3 3.7 5.4 3.4 4.6 3.6 3.6 3.2 4 3.6 3.9 3.7 4.1 3.7 3.6 3.4 3.4 2.9 2.8 2.4 2.4 1.5 1.5 0.5 1.1 0.7 0.5 0.3v0.5l-0.7 0.2-1.2 0.3-1.5 0.4-2.1 0.5-3 0.1-3.9 0.6-5.1 0.3-5.4 0.7-6 0.7-5.9 1.1-5.6 1.4-4.8 1.9-5.7 1.5-7.7 0.8-8.8-0.1-9.1-0.7-9.2-1.5-8-2.1-6.6-2.5-3.9-2.9-3.2-3.4-4.2-3-5-3.1-5.2-2.7-5.4-2.7-5.5-2.2-4.9-2.1-4.2-1.5-3.6-1.5-2.5-1-2.1-1-1-1.1-0.7-1v-0.8l0.4-1 1-0.7z"/><path class="C" d="m291.3 81.9l1.7-1.2 3.6-1.2 4.5-1.3 5.3-1.2 5.2-1.6 5-1 3.9-0.8 2.7-0.4 2.2-1 3.4-1.3 4-1.9 5.1-1.7 5.5-2 5.7-1.4 5.8-1h5.9l5.8 0.5 6.3 1.5 6.6 2.4 6.6 3.2 6.5 3.2 5.9 3.6 5.1 3.2 4.4 3.2 3.9 2.8 4.1 3.4 3.9 3.5 4 3.6 3.8 3.4 3.4 2.8 2.8 2.3 2.4 1.3 1.4 0.5 0.8 0.7 0.5 0.3v0.5l-0.6 0.2-1.1 0.4-1.5 0.3-1.7 0.5h-3l-4.1 0.2-5.1-0.2-5.4 0.2-6 0.1-5.9 0.7-5.6 1.2-4.7 1.9-5.6 1.3-7.3 0.7-8.7-0.3-9-0.7-9-1.5-7.8-2.1-6.2-2.3-3.8-2.6-3.2-3-3.9-2.6-4.8-2.5-4.9-2.4-5.2-2.4-4.9-2-4.6-2-3.9-1.6-3.6-1.2-2.7-1-2.2-0.8-1.4-0.7-1-0.9-0.2-0.6v-0.7l0.9-0.5z"/><path class="D" d="m292.5 81.9l1.5-1 3.2-1.1 4.1-1 4.9-1 4.8-1 4.5-0.9 3.8-0.5 2.7-0.3 2.4-0.8 3.9-1.4 4.4-1.9 5.4-2 5.6-2.2 5.9-1.7 5.6-1.4 5.6-0.3 5.3 0.8 5.9 1.9 6.1 2.6 6.3 3.2 6 3.4 5.7 3.4 4.9 3 4.6 2.7 3.9 2.2 4.1 3.1 3.9 3.2 4.1 3.7 3.5 3.3 3.4 3 2.7 2.4 2.2 1.5 1.4 0.3 0.8 0.6 0.5 0.3v0.3l-0.5 0.2-1 0.3-1.5 0.4-1.5 0.5h-3.1l-3.9-0.3-5.1-0.7-5.4-0.5-5.9-0.7h-5.6l-5.5 0.5-4.5 1.7-5.6 1.3-7.2 0.6-8.4-0.4-8.9-0.8-8.6-1.6-7.6-1.8-6.3-2.1-3.8-2.2-3-2.5-3.7-2-4.3-2.1-4.4-1.8-4.7-1.9-4.5-1.7-4.4-1.5-3.5-1.4-3.4-1.2-2.7-1-2.4-0.8-1.5-0.5-1.2-0.7-0.7-0.5v-0.7l0.7-0.5z"/><path class="E" d="m294.2 81.9l1.5-0.9 2.7-0.5 3.6-0.8 4.2-0.5 4.1-0.7 4.2-0.5 3.4-0.5 2.9-0.2 2.7-0.7 4.1-1.3 4.9-2.1 5.6-2.2 5.9-2.3 6-1.9 5.7-1.4 5.5-0.1 4.9 0.5 5.6 1.8 5.4 2.8 5.6 3.3 5.3 3.3 5.1 3.2 4.7 2.7 4.3 2 3.9 1.7 4 2.6 4.1 3 4.2 3.6 3.8 3.4 3.5 3 2.7 2.4 2.4 1.7 1.4 0.3 0.8 0.4 0.4 0.3v0.4l-0.5 0.1-1.1 0.4-1.3 0.3-1.5 0.5-2.9-0.3-3.9-0.9-5-1.5-5.4-1.5-5.9-1.6-5.6-0.8h-5.4l-4.4 1.4-5.3 1.1-7.1 0.4-8.2-0.4-8.6-0.8-8.5-1.5-7.5-1.6-5.9-1.8-3.6-1.5-3-2.1-3.2-1.3-3.8-1.4-3.7-1.2-4.1-1.3-3.9-1.2-3.9-1.7-3.4-1.5-3.4-1.2-2.8-0.5-2.6-0.6-1.9-0.3-1.5-0.3-0.7-0.4-0.3-0.5 0.7-0.3z"/><path class="F" d="m321.8 79l-3.9-0.3-0.8-0.5 1.5-1.2 3.4-1.1 4.2-1.3 4.8-1.4 4.2-1.2 3.4-0.6 3.4-0.9 4.9-0.3 5.5-0.2 5.4 0.4 4.6 0.5 3.4 1 1.1 1.3-1.5 1.9-3.9 1.5-4.6 1-5.4 0.6-5.6 0.5h-6.1-6.1-6.1l-5.8 0.3z"/><path class="G" d="m325.9 78.2l-3.2-0.4-0.5-0.5 1.2-0.8 2.7-0.9 3.2-1.2 3.9-1 3.4-1 2.7-0.5 2.7-0.7 3.9-0.2 4.3-0.1 4.5 0.3 3.6 0.3 2.7 0.9 1 1-1.2 1.5-3.2 1.2-3.5 0.9-4.5 0.5-4.4 0.3h-5.1-4.9-4.9l-4.4 0.4z"/><path class="H" d="m329.8 77.1l-2.5-0.1-0.4-0.4 0.9-0.7 2.2-0.6 2.5-0.9 2.9-0.8 2.5-0.7 2.2-0.3 1.9-0.6 2.9-0.1 3.2-0.2 3.4 0.3 2.7 0.2 2.1 0.7 0.6 0.8-0.8 1.2-2.4 0.9-2.7 0.7-3.2 0.1-3.4 0.4h-3.7-3.8-3.7l-3.4 0.1z"/><path class="I" d="m333.9 76.3l-1.7-0.2-0.4-0.3 0.7-0.5 1.4-0.4 1.7-0.6 1.8-0.6 1.9-0.5 1.4-0.1 1.3-0.4h1.9 2.2l2.4 0.2h1.8l1.4 0.5 0.5 0.5-0.5 0.9-1.7 0.5-1.9 0.5-2.2 0.1-2.2 0.4-2.5-0.2h-2.6-2.5l-2.2 0.2z"/><path class="B" d="m307.4 90.2l1.5 1.3 1.2 1.4 0.7 0.9 0.2 0.8h-0.7l-1.2-0.5-1.5-0.9-1.6-1-1.6-1-1.4-0.5-1-0.3-0.5-0.4 0.3-0.7 1.4-0.3 0.8-0.2 1 0.2 1 0.3 1.4 0.9z"/><path class="B" d="m324.9 96.8l1.5 0.9 1.7 1 1.5 0.6 1.6 0.7 1.1 0.5 1.1 0.5 0.5 0.6 0.3 0.5-0.3 0.1-0.7 0.4h-1.5l-1.6 0.1-2-0.3-2-0.5-2.4-0.9-2-1-1.1-0.7-1-0.6-1-0.5-0.7-0.5-1.5-1.1-0.9-0.5-0.8-0.3-0.8-0.2-0.7-0.2-0.4-0.1-0.3-0.5 0.7-0.7 0.3-0.5 0.9-0.2 0.8-0.2 1.4 0.2h1l1 0.4 1 0.3 1.2 0.5 1 0.5 1 0.5 1.1 0.5 1 0.7z"/><path class="B" d="m349.5 108.8l1.8 1.7 1.9 1.4 1.9 1 1.8 0.9 1.4 0.5 1.2 0.6 1 0.6 0.5 0.8-0.5 0.5-0.9 0.9-0.8 0.1-0.7 0.2-1 0.2-1 0.3-1.4-0.2-1.2-0.3-1.5-0.5-1.3-0.3-1.6-0.7-1.3-0.7-1.4-1-1-0.9-2.4-2.2-2-1.5-1.9-1.7-1.3-1-1.4-1.2-1-0.8-0.7-0.7-0.2-0.5 0.2-0.7 1-0.5 0.5-0.2h1.1 1l1.2 0.3 1 0.2 1.3 0.5 1.2 0.5 1.4 0.9 1.2 0.5 1.3 1 1.2 0.9 1.4 1.1z"/><path class="C" d="m347.8 99.3l1 0.4 1 0.7 0.9 0.8 0.8 0.9 0.9 1.7 0.5 1.1 0.3 0.9 0.3 0.7 0.4 0.5v0.7h-0.5l-0.7 0.1-1-0.3-1-0.7-1.2-1.3-1-1.1-1.1-0.6-1.2-0.4-1.5-0.5-1.5-0.3-1.5-0.4-1.2-0.1-1.2-0.4-0.9-0.1-0.6-0.4v-0.2-0.5l0.5-0.5 0.7-0.5 1.3-0.3 1.4-0.5h1.8 1.9l2.4 0.6z"/><path class="C" d="m368 109l1-0.2 1.2 0.2 1.2 0.4 1.1 0.5 0.9 0.5 0.8 0.8 0.5 0.7 0.6 1 0.3 1.2v1.2l-0.2 0.7-0.1 0.3-1.2-0.7-1.4-1.2-1-0.6-0.9-0.5-1.3-0.4-1.4 0.4-1.8 0.1h-1.9l-1.9-0.1h-1.3l-1.4-0.4-0.8-0.3-0.5-0.5 0.1-0.4 0.2-0.5 0.5-0.2 0.7-0.5 1.2-0.1 1.2-0.5 1.5-0.2 1.9-0.5 2.2-0.2z"/><path class="z" d="m374.6 123.1l0.8 0.3 1 0.5 1.1 0.4 1 0.3h0.8l0.9 0.2 0.5 0.2 0.3 0.5h-0.3l-0.5 0.3-0.9 0.2-0.8 0.3-1.5-0.2-1.7-0.1-1.9-0.5-1.5-0.9-1.2-1.2-0.7-0.8-0.5-0.7-0.4-0.3-1-0.9-0.5-0.5 0.2-0.3h0.7l0.8-0.2 1.5 0.5 1.1 0.5 1 0.9 0.8 0.6 0.9 0.9z"/><path class="J" d="m350.5 125l-1.5-0.7-1.1-0.5-1.1-0.7-0.9-0.5-1.5-1-1-0.7-1.2-0.9-0.7-0.5-0.7-0.5v-0.3l0.4-0.4 1-0.1 0.5-0.2h0.8l0.9 0.2 1 0.3 1.7 0.5 1.9 1 0.8 0.4 1 0.3 0.9 0.4 1 0.5 0.8 0.1 0.9 0.2h0.8l0.9 0.2 0.7-0.2h1 0.8 1l1.6-0.2 1.3 0.2 0.9 0.3 0.3 0.5-0.3 0.2-0.5 0.5-1 0.5-1.1 0.5-1 0.4-0.8 0.3-1.4 0.2-1.2 0.3-1.5-0.1h-1.5l-1.6-0.2-1.3-0.3z"/><path class="D" d="m305.4 83.4l1.3 0.5 1.6 0.7 1.3 0.5 1.2 0.7 0.8 0.3 0.7 0.5 0.4 0.5 0.3 0.5-0.3 0.2-0.5 0.4h-1.1l-1 0.1-1.5-0.1-1.4-0.4-1.5-0.5-1.5-0.3-1.7-0.7-1.4-0.3-1.2-0.2h-0.8-1-0.7l-0.7-0.2h-0.1l-0.2-0.7 0.3-0.5 0.7-0.7 1.2-0.6 1.2-0.5h1.8 0.9l1 0.1 0.9 0.2 1 0.5z"/><path class="D" d="m328.6 94.9l-2.2-1-1.9-0.8-1.7-1-1.1-0.9-1.2-1-0.5-0.9-0.4-0.6 0.2-0.4 0.3-0.5h0.7 1l1.4 0.5 1.3 0.4 1.7 0.5 1.9 0.7 2 0.6 0.9 0.2 0.7 0.3h0.6l1.4 0.2 1.2 0.3 1.2 0.6 0.7 0.6 0.6 0.7 0.7 0.9 0.7 0.8 0.3 0.7 0.2 0.7-0.5 0.1h-0.9l-1.1-0.1-1.2-0.5-1.4-0.6-1 0.2h-0.9-1l-1.5-0.3-1.2-0.4z"/><path class="B" d="m386.1 118.7l1.5-0.7 1.7-0.3 1.6-0.2h1.5 1.2l0.8 0.5 0.5 0.5 0.2 0.5-0.3 0.2-0.5 0.3-0.7 0.4-0.9 0.5-1.2 0.3-1.3 0.5-1.5 0.5-1.6 0.7-1 0.2-1 0.1h-1l-0.9 0.2-1.8-0.2-1.4-0.3-1.2-0.8-0.7-0.5-0.3-0.7 0.2-0.4 0.1-0.3h0.7 0.7 1l1-0.2 1.4-0.1 1.3-0.4 1.9-0.3z"/><path class="z" d="m391.4 126.3l-1.7 0.3-1.6 0.4-1.5-0.2h-1l-1-0.5-0.7-0.3-0.3-0.5 0.1-0.2 0.5-0.5 1.6-0.2 0.8-0.3 1-0.2 1.2-0.3 1.2-0.4 1.2-0.5 1.2-0.5 1.2-0.5 1.2-0.2 0.8-0.3h0.7 0.5l0.3 0.5-0.3 0.5-1 1.2-1 0.5-1.1 0.9-1.1 0.5-1.2 0.8z"/><path class="B" d="m406 114.8l1.1-0.9 1.2-0.6 1.2-0.9 1.2-0.7 1.2-0.8 1-0.2 0.7 0.2 0.3 0.3-0.3 0.9-1 1.5-0.9 0.8-1 1.6-0.7 0.5-0.7 0.7-1 0.5-0.8 0.6-2.1 0.4-1.6 0.5-1.6 0.2-1.2 0.1-1.2-0.1h-0.8l-0.7-0.2-0.1-0.2-0.2-0.5 0.5-0.5 0.7-0.5 1.2-0.5 1-0.7 1.5-0.5 1.5-0.5 1.6-0.5z"/><path class="z" d="m417.8 118l-1.5 0.5-1.5 0.7-1.4 0.3-1 0.4h-1l-0.7 0.1-0.7-0.1v-0.2l0.2-1 1.4-0.9 0.8-0.6 1.2-0.7 1.2-0.7 1.5-0.7 1.4-0.8 1.5-0.5 1.3-0.5h1.4l0.8-0.2 0.9 0.2 0.5 0.1 0.3 0.5-0.5 0.7-1.3 1-1.2 0.5-1 0.5-1.4 0.7-1.2 0.7z"/><path class="z" d="m402.4 120.7l1.5-0.8 1.5-0.4 1.1-0.1 0.5 0.3-0.4 0.3-0.8 0.7-1.2 0.7-1.2 1-1.9 0.7-1.3 0.2h-1.2l-0.3-0.2 0.1-0.5 0.9-0.5 1.2-0.7 1.5-0.7z"/><path class="B" d="m433.8 110.7l1-0.3h1l0.9-0.4h1l1.2-0.1 0.8 0.3-0.3 0.7-1 0.8-1.1 0.4-0.8 0.5-1.2 0.3-1.2 0.4-1.3-0.2h-1.2l-1.1-0.2h-0.8l-1.5-0.5-0.4-0.3 0.4-0.7 1.3-0.4 0.9-0.1 1-0.2h1.2 1.2z"/><path class="B" d="m396.3 113.9h-1l-1.4 0.7-1.5 0.9-1.5 1-1.7 0.1h-1.2l-0.7-0.5v-0.3l0.5-1 1.5-0.9 0.7-1.2 1.4-1.1 0.6-0.9 1.2-0.7 1.4-0.5 1.7-0.3 1.3 0.2 1.2 0.3 0.9 0.3 1 0.5 1.2 0.5 0.8 0.4h0.5l0.5-0.4 0.6-0.5 0.6-0.1 0.2 0.1 0.3 1.1-0.1 0.5-0.2 0.6-0.5 0.7-0.9 0.9-1.1 0.1-1.1 0.2-1-0.2h-1l-1-0.3h-0.9l-0.8-0.2h-0.5z"/><path class="C" d="m385.6 108.2l1.7-0.9 1.7-0.5 1.4-0.3h1.5l1-0.2 1 0.3 0.5 0.2 0.4 0.5-0.4 0.4-0.3 0.3-0.7 0.5-0.8 0.5-1.2 0.5-1.2 0.5-1.5 0.5-1.4 0.9-1.5 0.7-1.6 0.6-1.5 0.6-1 0.6-1.2 0.2-0.7 0.2h-0.6l-0.2-0.2v-1l1.3-1.5 0.9-0.9 1.3-0.8 1.4-1.1 1.7-0.6z"/><path class="B" d="m423.3 107.5l1-1.4 1.2-0.6 1-0.7h1.3l1.1-0.2 1 0.2 0.8 0.1 0.9 0.4 1 0.3 1 0.5 0.5 0.4 0.4 0.5-0.4 0.3-0.5 0.5-1.2 0.2-1.2 0.2-1.3 0.1-1.4 0.4-1.2 0.5-0.7 0.7-0.5 0.6-0.6 1.2-1.1 0.5-0.8 0.5-1 0.2-0.4 0.2-1.5-0.4-1-0.3-0.9-0.5-0.5-0.5-1-0.7-0.7-0.5-0.5-0.5v-0.5l0.2-0.5 0.7-0.4h1.2l1.3 0.4 1.4 0.3h1.2l0.1-0.2 0.2-0.6 0.9-0.7z"/><path class="B" d="m424.3 100.5l-1-1.2-1.1-0.6-0.8-0.7-0.5-0.5-1.2-0.9-0.3-0.6v-0.6h0.5l0.6-0.1 1.2 0.3 1 0.2 1.2 0.7 1.1 0.6 1.1 1.2 0.9 0.9 0.8 0.8 0.9 0.5 0.8 0.7 1 0.7 0.7 0.8-0.3 0.2-0.5 0.3h-0.9-0.8l-1.2-0.3-1-0.5-1.2-0.8-1-1.1z"/><path class="C" d="m409.2 106.5l-2.1-0.9-1.5-0.5-1.5-0.5-1.2-0.2-1.2-0.3-0.7-0.3-0.6-0.4-0.2-0.2v-0.5l0.5-0.5 0.8-0.5 1.4-0.3 0.7-0.2h1 0.8l1.1 0.2h1l1 0.3 1 0.2 1 0.5 0.9 0.2 0.8 0.3 0.9 0.3 0.8 0.4 1.2 0.5 1.2 0.3h1.2l1.2-0.1 0.1 0.1v1.1l-0.3 0.5-0.3 0.5-0.7 0.5-0.7 0.5h-1-1-1-0.9l-1-0.4-1-0.1-0.9-0.4-0.8-0.1z"/><path class="C" d="m378.6 110.2l-1.8 0.2-1.5 0.1-1.6-0.1h-1.2l-1.1-0.4-0.7-0.3-0.5-0.3v-0.4-0.5l0.6-0.2 0.7-0.3 1-0.2 1.1-0.3 1.3-0.2 1.4-0.3 1.5-0.2 1.4-0.5 1.5-0.2 1.3-0.1h1.6 0.8l1 0.1 0.4 0.2 0.5 0.5-0.4 0.3-0.3 0.4-0.7 0.3-0.8 0.5-1.2 0.4-1.4 0.5-1.5 0.5-1.4 0.5z"/><path class="C" d="m359.8 105.8h-1.5-1.2l-1.4-0.3-0.8-0.2-1.4-0.9v-0.6l0.6-0.4h1.1l0.9-0.2h1 1 1.5l1.2-0.3 1.4 0.2 1.2 0.3 1.2 0.7 0.8 1v0.9l-0.8-0.2-1-0.2-0.9-0.1h-0.8-1.1l-1 0.3z"/><path class="D" d="m406.1 98.2h-1-0.8l-1.1 0.1-0.8 0.4-1.9 0.1-1.5 0.4-1-0.2h-0.9l-0.6-0.2h-0.6l-0.6-0.5-0.2-0.3v-0.5l0.7-0.5 1-0.5 1.4-0.5 1.1-0.9 1.7-0.7 1.1-0.5 1.1-0.3 1.4-0.2h1.5 1.2l1.4 0.2 1.2 0.3 1.1 0.5 0.9 0.5 1 0.5 0.7 0.6 0.8 0.5 0.9 0.6 0.8 0.7 0.4 0.5 0.3 0.7-0.5 0.5-0.8 0.2-1.2-0.2-1.4-0.2-1.7-0.5-1.7-0.3-1.8-0.3h-1.6z"/><path class="D" d="m382.4 97.8h1 1l1 0.2 1.1 0.2 0.8 0.1 1 0.7 0.9 0.5 0.5 0.5 1.2 1 0.8 0.9-0.3 0.3-0.5 0.5-1.2 0.2-1.4-0.3-1.5-0.5h-0.9l-0.8-0.2h-0.9-1-0.8l-2.1-0.2h-1.7l-1.8-0.3-1.4-0.2-1.3-0.5-0.9-0.3-0.7-0.4v-0.3l0.2-0.5 0.7-0.5 0.8-0.4 1.2-0.1 1.4-0.4h1.5 1.9 2.2z"/><path class="D" d="m408.3 88l-1.2-0.4-1 0.2-1 0.2-0.8 0.5-1.7 0.5-0.9 0.2v-1l1-1.6 0.9-1 1.5-0.8 0.9-0.4 1-0.1h1l1.3 0.3 0.9 0.3 1 0.5 0.7 0.7 0.7 0.7 0.6 1.4 0.7 1 0.7 1.2 0.3 1h-0.5l-0.5 0.1-0.8-0.3-0.9-0.5-1.2-1-1-0.9-0.8-0.6-0.9-0.2z"/><path class="D" d="m388.3 97.1l-3-0.3-2.6-0.7-2-1.2-1.5-1-1.4-1.3-0.7-1.1-0.1-0.8 0.3-0.3 0.3-0.4h0.9l1 0.4 1.4 0.5 1.3 0.3 1.9 0.3 1.8 0.4 2.2 0.2 2.1-0.4 2-0.3 1.9-0.4h1.8 1.4 1.4l0.6 0.2 0.5 0.5v0.5l-0.5 0.7-1 0.9-1.2 0.8-1.8 0.7-2.1 0.8-2.3 0.5-2.6 0.5z"/><path class="B" d="m407.3 82.6l-1.2-0.7-1.2-0.2-1.3-0.2h-1.2l-1.4-0.1-1-0.2-0.7-0.3-0.1-0.2v-0.3l0.5-0.2 0.7-0.4 1.3-0.1 0.5-0.2 0.7-0.2h0.8 1.2 1.1l1.1 0.4 1.2 0.1 1.4 0.7 0.8 0.7 0.9 0.7 0.5 0.5 0.7 0.7 0.6 0.8 0.7 1 0.7 1.1 0.2 0.6h-0.5-0.7l-1-0.3-1-0.5-1.2-1-1.1-0.9-1-1-1-0.3z"/><path class="C" d="m393.1 80.5l-1.4-1-1-1-1-0.9-0.7-0.6-1.2-1.4-0.2-0.8 0.2-0.4h0.7 0.7l1.1 0.5 1.1 0.4 1.2 0.6 1.1 0.9 1.4 1 1 0.7 1.2 0.8 0.9 0.5 1 0.7 1.3 0.9 0.7 0.8-0.3 0.2-0.5 0.2h-0.9-0.8l-1.6-0.2-1.3-0.3-1.4-0.7-1.3-0.9z"/><path class="B" d="m380.7 69.7l-1.4-0.7-1.3-0.5-1.2-0.4-1-0.3-1.2-0.3-0.7-0.4-0.5-0.3v-0.2-0.3l0.5-0.4 0.8-0.5 1.2-0.1 1.2-0.2 1.5 0.2 1.6 0.3 2 0.9 1.4 0.6 1.3 0.7 1 0.5 1.2 0.7 0.9 0.3 0.7 0.5 0.3 0.6 0.3 0.5-0.5 0.1-0.5 0.4h-0.8l-1.1 0.1-1.3-0.3-1.4-0.3-1.5-0.5-1.5-0.7z"/><path class="D" d="m372.9 71.4l-1.2-0.7-1.2-0.3-1-0.6-1-0.1-1.6-0.5-0.3-0.5-0.2-0.4 0.5-0.3 0.7-0.4h1l1.1-0.3 1.3 0.2 1.5 0.3 1.9 0.9 1 0.5 1.2 0.5 1 0.5 1 0.7 1.2 0.8 0.7 0.9-0.5 0.1-0.3 0.2h-0.9-0.8l-1.4-0.2-1.2-0.3-1.3-0.5-1.2-0.5z"/><path class="C" d="m356.9 66.5h-1.3l-1.2 0.1h-1-1l-1.6-0.3-0.3-0.4 0.3-0.6 1.2-0.5 0.7-0.4 1-0.2 1-0.3 1.4-0.2 1.3-0.3 1.4 0.2h1l1.2 0.5 0.9 0.3 0.6 0.4 0.4 0.3 0.1 0.3-0.8 0.4-1.2 0.1h-1l-0.9 0.2h-1.1l-1.1 0.4z"/><path class="B" d="m339.1 68l-1.7-0.2h-1.2l-1.1-0.2h-0.9l-1.4-0.1h-0.5l-0.3-0.4 0.3-0.1 0.7-0.2 1-0.2 1.1-0.3 1.1-0.2h1.4l1.4 0.2 1-0.2h1l1-0.2h1l0.9-0.1 0.8 0.1h0.5l0.4 0.2-0.7 0.4-1 0.5-1 0.1-1.1 0.4-1.3 0.3-1.4 0.2z"/><path class="D" d="m386.4 79l1.9 0.5 2.1 0.9 1.8 0.6 1.7 0.9 1.4 0.7 1 0.8 0.5 0.7 0.2 0.7-0.5 0.1-0.9 0.4h-1.2l-1.3 0.1-1.9-0.3-2-0.3-2.4-0.5-2.4-0.6-1.3-0.6-1.2-0.7-1.2-0.9-1-1.1-0.7-1.1-0.5-0.8-0.5-0.9-0.2-0.5-0.7-1-0.7-0.7-0.5-0.6 0.2-0.5v-0.6l1-0.1h1.2l1.9 1 0.8 0.5 0.9 0.7 0.6 0.7 0.7 0.6 0.4 0.4 0.8 0.5 1 0.5 1.1 0.5z"/><path class="B" d="m319.8 74.9l-2 0.4-1.9 0.5-1.9 0.3-1.3 0.4-1.6 0.1-0.8 0.2h-0.7-0.2v-0.3l0.6-0.4 0.8-0.5 1.2-0.3 1.2-0.7 1.7-0.5 1.7-0.7 2.2-0.5 2-0.5 1.7-0.5 1.5-0.4 1.4-0.1 0.8-0.5 0.9-0.2 0.5-0.2h0.7 0.1v0.5l-0.5 0.5-0.8 1.1-0.9 0.1-0.8 0.4-1 0.3-0.9 0.3-1 0.2-0.8 0.4-1.1 0.3-0.8 0.3z"/><path class="D" d="m304 79h1.5 1.4 1l0.5 0.3-0.3 0.4-0.9 0.7-0.8 0.1-0.9 0.2h-1l-0.8 0.2-1-0.2-1.1-0.2-0.8-0.1h-0.5l-0.9-0.6-0.3-0.3 0.3-0.5h1.2 0.5 0.9 1 1z"/><path class="D" d="m341.8 71.7h-1.8l-1.6 0.2h-1.5l-1.2 0.1-1.2-0.1h-0.8l-0.7-0.4v-0.1l-0.2-0.5 0.6-0.5 0.6-0.6 1.2-0.5 1.2-0.5 1.5-0.5 1.6-0.3h2l1.7-0.4h1.9l1.5 0.2 1.5 0.5 1 0.5 0.9 0.5 0.3 0.5 0.2 0.6-0.5 0.1-0.5 0.4h-1l-0.9 0.1h-1.2l-1.3 0.2-1.7 0.2-1.6 0.3z"/><path class="D" d="m365.2 72.9h-1.6l-1.6 0.2h-1.7l-1.3 0.1-1.6-0.1h-0.8l-0.7-0.2v-0.3-0.6l0.5-0.5 0.5-0.6 1.2-0.5 1.4-0.7 1.7-0.5 1.8-0.4 2.6-0.1 1.3 0.3 1.2 0.7 0.9 0.7 0.8 0.8 1 1.4 1.1 1.3 0.3 0.9 0.3 0.8v0.5 0.7l-0.5 0.2-0.5-0.2-1-0.5-0.8-0.5-1.4-0.9-1-0.8-1.2-0.9-0.9-0.3z"/><path class="D" d="m360.5 100.2l-2.7-1-2.4-0.9-2-0.8-1.6-0.7-1.5-1-0.8-0.7-0.7-0.7v-0.5l0.2-0.7 0.8-0.3 1.4-0.2 1.8 0.2h1.9l2.2 0.5 2.2 0.4 2.6 0.8 2 0.3 2 0.4h1.9 1.7l1.3-0.2h1.2 0.9l0.7 0.5v0.4l-0.4 1-0.8 0.8-1.4 1.2-1.2 0.3-1 0.6-1.3 0.1-1.2 0.4h-1.6-1.3l-1.5-0.2h-1.4z"/><path class="D" d="m318.4 82.9h1.4 1.3l1.2-0.2h1.2l0.9-0.3h0.6l0.6-0.2 0.6 0.4v0.1l-0.1 0.7-0.7 0.7-0.9 0.8-1.3 0.7-1.4 0.7-1.7 0.3h-1.8l-1.4-0.3-0.8-0.3-1.1-0.4-0.6-0.3-1.4-0.9-0.8-0.5-1.4-1-0.7-0.5v-0.5l0.7-0.4 1-0.1 1.4 0.1 1.2 0.2 1.3 0.5 1.4 0.4 1.3 0.3z"/><path class="D" d="m334.9 76.3l1.2-0.4h1.5 1.4 1.5 1.3l1.4 0.4 1 0.3 1.2 0.5 1.4 0.7 0.8 0.7 0.5 0.5v0.5l-0.5 0.3-0.8 0.2h-1.6-1.3l-1-0.2h-0.9-0.8-0.9-1l-1 0.2-1.2 0.2-1.2 0.3-2.7 0.2-2.6 0.2h-2.5-1.9l-1.8-0.4-1.2-0.1-1-0.6v-0.3l0.1-0.5 0.9-0.3 1-0.5 1.7-0.4 1.7-0.5 2.2-0.3 2.4-0.4 2.7-0.3z"/><path class="D" d="m369 84.6l-1.7-0.3-1.5-0.2-1.6-0.4h-1l-1.2-0.3-0.7-0.3-0.5-0.4v-0.1l-0.1-0.5 0.5-0.4 0.7-0.5 1.1-0.2 1.2-0.3h1.7l1.7-0.2 2.1 0.4 1.7 0.3 1.6 0.7 1.4 0.5 1.2 0.8 0.8 0.7 0.6 0.7 0.3 0.5 0.2 0.7-0.5 0.2h-0.7l-1-0.2h-0.9l-1.2-0.4-1.3-0.3-1.6-0.3-1.3-0.2z"/><path class="D" d="m357.4 89.5h-1.5l-1.5 0.5-1.5 0.5-1.6 0.7h-1.5l-1 0.2-0.9-0.4-0.1-0.3v-0.5l0.5-0.5 0.5-0.7 1.2-0.7 1-1 1.7-1 0.8-0.5 1.2-0.5 1.4-0.4h1.7l1.3 0.4 1.4 0.5 1 0.7 0.9 0.8 1.2 1.4 1 1.2 0.6 0.8 0.7 0.7 0.4 0.5 0.1 0.7-0.3 0.3-0.9 0.2-1.1-0.2-1.4-0.5-1.5-1-1.4-1-1.3-0.7-1.1-0.2z"/><path class="D" d="m339 89.9l-1.2-0.4-1.2-0.3-1-0.4-0.7-0.1-1.2-0.5-0.2-0.6 0.4-0.5 1.3-0.1 0.7-0.2h1.2l1 0.2 1.4 0.3 1.3 0.3 1 0.9 0.9 1 0.7 1v1.4l-0.5 0.7-0.7-0.5-0.5-0.9-0.7-0.5-0.5-0.3-0.7-0.5h-0.8z"/><path class="K" d="m179.5 49.2h0.4l0.8-0.4 0.8-0.5 1.4-0.5 1.9-0.5 2.5-0.5 3.6-1.2 4.7-1.9 5.3-2.7 5.8-3 5.4-3.4 5.2-3.3 4.1-3.2 3.1-2.5 1.3-2 1.4-1.7 0.8-1.9 1-1.4 0.4-1.5 0.5-0.8 0.2-0.9 0.1-0.2-0.1-0.5 0.1-0.5 0.4-1 0.5-0.8 0.5-1.1 0.8-0.3 0.9-0.3 1.2 0.5 1.2 0.5 1.3 1 1.4 1.2 1.3 1.3 0.9 1.2 0.7 1.4v1l-0.4 1.2-1 0.7-1 1-1 0.8-0.7 0.9-1.2 1.3-0.3 0.7-1.1 0.5-2.3 1.9-3.6 2.5-4.4 3.4-5.3 3.4-5.2 3.4-5.3 3.1-4.7 2.7-4.3 1.8-3.2 1.6-2.4 1.2-1.7 1.1-1.5 0.7-0.8 0.9-0.9 0.6-0.7 0.7-1.7 1-1.3 0.7-1 0.5-0.4 0.2-0.3-0.5-0.5-1-0.9-1.6-0.8-1.3-1-1.7-0.5-1.2-0.6-1 0.2 0.2z"/><path class="L" d="m179.7 49.5h0.3l1-0.5 0.7-0.5 1.4-0.5 1.8-0.5 2.8-0.5 3.3-1.2 4.8-1.9 5.3-2.7 5.9-3.1 5.4-3.4 5.1-3.2 4.1-3.2 3-2.5 1.4-1.9 1.3-1.9 1.1-1.7 0.8-1.5 0.5-1.5 0.5-0.9v-0.6l0.2-0.2-0.2-0.5 0.2-0.7 0.3-0.9 0.5-0.8 0.6-1 0.8-0.5 0.9-0.4 1.1 0.5 1.2 0.5 1.4 0.9 1.2 1 1.3 1.4 0.9 1 0.5 1.2v1l-0.5 1.2-1.2 0.8-1 0.9-1 0.8-0.9 0.9-1.5 1.2-0.4 0.6-0.8 0.5-2.4 1.9-3.5 2.6-4.3 3.3-5.1 3.4-5.1 3.6-5.2 3.1-4.8 2.7-4.2 1.8-3.1 1.6-2.5 1.1-1.7 1.2-1.5 0.7-0.9 0.7-0.8 0.7-0.7 0.6-1.7 1.1-1.4 0.6-0.8 0.4-0.3 0.1-0.4-0.5-0.5-0.8-0.8-1.4-0.7-1.2-0.9-1.5-0.5-1-0.5-0.7 0.2 0.2z"/><path class="M" d="m180 49.7h0.4l0.8-0.5 0.9-0.6 1.3-0.5 1.9-0.5 2.7-0.3 3.4-1.4 4.7-1.8 5.3-2.7 5.9-3.1 5.5-3.4 5-3.2 4.1-3.2 3.2-2.6 1.4-1.8 1.2-1.9 0.8-1.7 1.1-1.4 0.3-1.5 0.5-0.8 0.2-0.9 0.1-0.2-0.1-0.5 0.1-0.6 0.2-0.9 0.7-0.8 0.5-1.1 0.8-0.5 0.9-0.3 1.2 0.5 1 0.5 1.4 0.9 1 1 1.2 1.2 0.6 1 0.4 1-0.2 1-0.5 1.2-1.2 0.7-1 0.8-1.2 0.7-1 0.9-1.7 1-0.5 0.5-0.9 0.5-2.2 1.9-3.4 2.5-4 3.4-5 3.6-5 3.5-5.1 3.2-4.8 2.8-4.2 1.8-3.2 1.5-2.6 1.1-1.7 1-1.5 0.7-1 0.6-0.9 0.5-0.7 0.7-1.5 1-1 0.7-0.7 0.2-0.1 0.2-0.4-0.4-0.5-0.8-0.7-1-0.7-1.1-0.8-1.1-0.5-0.9-0.3-0.5 0.1 0.2z"/><path class="N" d="m180.5 50h0.2l0.8-0.5 0.9-0.5 1.4-0.5 1.8-0.5 2.7-0.4 3.4-1.2 4.8-1.8 5.2-2.7 6-3.1 5.4-3.4 5.3-3.4 4-3 3.1-2.6 1.3-2 1.2-1.7 1-1.7 0.9-1.5 0.5-1.5 0.5-0.9v-0.8l0.2-0.2-0.2-0.5 0.2-0.5 0.3-1 0.5-0.9 0.5-1 0.9-0.5 0.8-0.4 1.4 0.5 1 0.6 1.2 0.8 0.8 0.9 0.9 1 0.3 0.8 0.2 0.9-0.2 0.8-0.7 0.9-1.1 0.6-1.4 0.9-1.4 0.7-1.1 0.6-1.2 0.4-0.9 0.5-0.7 0.2-0.1 0.1-0.9 0.5-2 2.1-3.1 2.7-3.7 3.4-4.6 3.5-4.7 3.6-4.9 3.2-4.6 2.7-4.3 1.7-3.2 1.6-2.7 1-1.9 1-1.7 0.5-1 0.7-1 0.5-0.7 0.7-1.5 0.8-0.7 0.4h-0.3v0.1l-0.7-0.8-1.2-1.2-1.2-1.2z"/><path class="O" d="m232.9 10.5l-0.6 0.2-0.7 0.6-0.5 0.4-0.4 0.7v0.6l0.2 1.1v0.6l0.2 0.7 0.1 0.4 0.4 0.5 0.5 0.3 1.2 0.7 1.3 0.8 1.4 1 1 0.9 0.5 0.3 0.2-0.1h0.7l0.8-0.4 1-0.2 0.9-0.3 0.8-0.3 0.4-0.5v-0.5l-0.7-0.9-0.5-0.8-0.7-1.1-0.5-0.8-0.9-1-0.5-0.9-0.6-0.8-0.4-0.4-1.3-0.6-1.6-0.4h-1.1l-0.6 0.2z"/><path class="P" d="m233.1 10.5h-0.5l-0.7 0.5-0.5 0.7v1.3l0.4 1.1 0.3 0.5 0.3 0.3 0.9 0.7 1.5 0.7 0.7 0.3h0.7 1.7l1.5-0.2 0.5-0.5-1-1.3-0.9-1.4-0.8-1.5-0.9-0.9-1-0.5h-1-0.8l-0.4 0.2z"/><path class="Q" d="m188.5 60.5v-1.7-1.2l-0.3-1.3-0.9-1.2-1.7-1.4-1.3-0.8-0.7-0.5-0.4-0.5-0.5-0.7v-0.7-1.2l0.2-1.3v-1l0.2-1.1v-1-0.8l-0.4-1.2-0.5-1.2-0.7-1.2-1-1.2-1.5-1.3-1.7-1.4-2-1.5-2.6-1.5-5.9-2.9-8.1-2.7-10.2-2.8-11.1-2.2-11.8-1.7-11.4-0.6-10.7 0.5-9.1 2-8.9 2.7-8.8 3.4-9.1 3.9-9 4.8-8.8 5.1-8.4 6.2-7.6 6.8-6.4 8-1.7 2.2-1.6 2.2-1.5 2-1.3 2.2-1.6 2.1-1 2-1.2 1.9-0.8 2-1.9 3.2-1.3 3.2-1.2 2.9-0.9 2.9-0.8 2.5-0.4 2.6-0.1 2 0.1 2.2 0.2 1.4 0.5 1.5 0.5 1.2 1 1.2 2.6 3.4 4.1 5.4 5.2 6.3 7 7.1 8.1 6.6 9.8 6.3 11.2 4.6 13.1 2.8 11.4 0.6 12.9-0.4 13.7-1.7 13.9-2.7 13.2-4.6 12.4-6.1 10.4-8.1 8.1-10.2 3.6-6.6 3.7-6.6 3.4-6.8 3-6.4 2.4-6.5 2.1-5.7 1-5.3 0.1-4.2-0.3-1.6v-1.2l-0.2-1.1v-1.1-1-0.8-0.9l0.2-0.5z"/><path class="h" d="m168.3 116.6l3.6-6.6 3.7-6.6 3.4-6.8 3.1-6.6 2.5-6.4 2-5.8 1.1-5.1 0.5-4-0.4-3.6v-2.5-2.1l0.2-1.5v-1.2-1l-0.5-1-0.5-0.9-0.9-0.8-0.6-0.5-1.1-0.7-0.8-0.5-0.7-0.7-0.3-0.8-0.2-0.7v-0.5-0.9l0.3-0.8v-1.7-1.6l-0.1-1.6-0.4-1.6-0.7-1-0.6-0.8-1-0.9-0.9-0.8-1.4-1.2-1.3-1-1.7-1.2-1.9-1-5.9-2.9-8.1-2.7-10.2-2.8-11.1-2.2-11.8-1.7-11.4-0.6-10.7 0.5-9.1 2-8.9 2.7-8.8 3.4-9.1 3.9-9 4.8-8.8 5.1-8.4 6.2-7.6 6.8-6.4 8-1.1 1-0.6 1.2-0.9 1-0.7 1.2-0.8 1-0.7 1.2-0.8 1-0.5 1.2-3.8 5.9-2.7 5.6-2.2 5.1-1.3 4.6-1.1 4.1v3.5l0.5 3.1 1.6 2.5 0.1 0.2 0.7 0.8 1.2 1.4 1 1.3 1.5 2.1 1.6 2 1.8 2.4 1.9 2.4 2.4 2.5 0.2 0.3 0.5 0.4 3.9 4.2 4.5 4.4 5.3 4.1 5.8 4.1 6.2 3.4 7 3 7.6 2.2 8.3 1.5 11.2 0.4 12.8-0.4 13.4-1.6 13.7-2.8 12.9-4.5 12-6.1 10.2-8.2 8.3-10.2z"/><path class="i" d="m166.5 114.4l3.7-6.4 3.7-6.3 3.6-6.4 3.2-6.3 2.5-6.1 2.3-5.6 1.1-5.1 0.5-3.9-0.1-3.4 0.1-2.5 0.2-2.1 0.2-1.3-0.2-1.2v-1l-0.5-1-0.5-0.9-1-1.2-0.9-0.5-0.8-0.7-0.5-0.3-0.7-0.7-0.3-0.6v-1.2l0.1-1.4 0.2-1.3 0.2-1.2v-1.1-1l-0.4-1.2-0.3-1-0.7-1.2-0.7-1-0.8-0.7-0.7-0.6-0.8-0.7-0.9-0.7-1-0.8-1-0.7-1.4-0.9-1.2-0.6-5.9-2.9-8.1-2.7-10.2-2.8-11.1-2.2-11.8-1.7-11.4-0.6-10.7 0.5-9.1 2-8.9 2.7-8.8 3.4-9.1 3.9-9 4.8-8.8 5.1-8.4 6.2-7.6 6.8-6.4 8-0.4 0.5-0.3 0.5-5.3 7.6-4 7.1-3.3 6.3-2 5.8-1.2 4.9-0.2 4.2 0.7 3.4 1.7 3.1 2.6 3.2 4.2 5.1 5.3 6.1 6.7 6.4 8.2 6.1 9.7 5.8 11.2 4.3 12.7 2.3 11.2 0.4 12.5-0.5 13.1-1.7 13.4-2.8 12.7-4.4 11.7-5.9 10-7.8 8.2-9.7z"/><path class="j" d="m164.6 112.1l3.9-6.1 3.9-6.3 3.6-6.3 3.3-5.9 2.6-5.8 2.2-5.2 1.4-4.8 0.6-3.7v-3.2l0.4-2.4 0.1-1.9 0.4-1.3v-1.2-1l-0.5-1.1-0.5-1-1.2-1.2-0.9-0.6-0.7-0.6-0.5-0.3-0.5-0.7-0.3-0.5v-1.2l0.2-1.5v-1.7l0.1-1.5-0.1-1.4-0.2-1.3-0.7-1.6-1-1.3-1.5-1.5-1.9-1.6-1-0.8-1-0.7-1.1-0.7-1-0.6-5.9-2.9-8.1-2.7-10.2-2.8-11.1-2.2-11.8-1.7-11.4-0.6-10.7 0.5-9.1 2-8.2 2.4-8.1 3-8.5 3.6-8.1 4.1-8.4 4.5-7.6 5.3-7.3 5.9-6.4 6.8-1.2 1-1 1.2-0.9 1.2-0.8 1.5-5.6 7.8-4.3 7.3-3.2 6.5-2.2 5.9-1.3 4.9-0.4 4.3 0.7 3.5 1.9 3.1 2.5 3.2 4.1 4.9 5.4 5.6 6.8 6.1 8 5.6 9.6 5.3 11.1 3.7 12.7 2.2h11.2l12.2-0.5 12.9-1.7 12.9-2.7 12.3-4.3 11.6-5.5 9.8-7.5 8-9.3z"/><path class="k" d="m162.9 109.5l3.9-5.9 4.1-5.8 3.7-5.9 3.4-5.8 2.7-5.6 2.2-4.9 1.4-4.6 0.8-3.5 0.2-3.1 0.5-2.2 0.3-1.9 0.4-1.1v-1.2-1l-0.5-1.1-0.7-1-1-1.2-0.9-0.6-0.7-0.6-0.5-0.3-0.5-0.7-0.2-0.5v-1.2l0.4-1.5 0.2-2v-1.7l-0.2-1.7-0.7-1.5-1.3-1.9-1.9-1.9-2.7-2.2-3.6-2.2-0.3-0.3-0.2-0.2-6.4-2.7-8.4-2.7-9.8-2.6-10.8-2-11.4-1.5-11-0.5-10.4 0.5-8.6 2-7.2 2.2-7.3 2.6-7.4 2.8-7.3 3.6-7.5 3.7-6.9 4.4-6.8 4.8-6.3 5.4-1.5 1.2-1.2 1.4-1.4 1.1-1 1.6-1.3 1.2-1.2 1.5-1 1.5-1.1 1.5-5.6 7.8-4.2 7.3-3.2 6.3-2.2 5.8-1.4 4.9-0.1 4.2 0.6 3.4 1.9 3.1 2.5 3 4.3 4.6 5.2 5.3 6.8 5.7 8 5.1 9.5 4.8 11 3.3 12.6 1.9 11-0.2 12-0.6 12.6-1.7 12.7-2.7 11.9-4.1 11.2-5.4 9.8-7.2 8-8.8z"/><path class="l" d="m160.9 106.6l4.2-5.6 4.1-5.4 3.7-5.6 3.6-5.4 2.7-5.3 2.3-4.7 1.6-4.1 1-3.4 0.5-2.9 0.5-2.2 0.4-1.8 0.5-1.2v-1.2-1l-0.4-1.2-0.7-1-1.1-1.2-0.9-0.7-0.7-0.5-0.3-0.2-0.5-0.6v-0.5-1.1l0.3-1.3v-2.1-1.7l-0.2-1.6-0.6-1.6-1.4-1.8-1.7-1.9-2.7-2.2-3.6-2.2-1.1-0.7-1.1-0.7-1.3-0.5-1.2-0.5-7.3-2.7-8.3-2.4-9.7-2.2-10-1.5-10.3-1.4-9.9-0.1-9.1 0.6-7.8 1.9-6.3 1.9-6.1 2.2-6.5 2.4-6.4 2.8-6.5 2.9-6.2 3.6-6.3 3.7-5.8 4.3-2.3 1.8-2.3 1.9-2 2-2 2.1-2.1 2-1.8 2.2-1.9 2.2-1.5 2.5-5.6 7.8-4.3 7.2-3.2 6.2-2.2 5.8-1.2 4.7-0.1 4.1 0.6 3.4 1.9 3.1 2.5 3 3.9 4.3 5.3 4.7 6.8 5.1 8 4.7 9.5 4.3 10.8 2.9 12.6 1.5 10.8-0.4 11.9-0.6 12.2-1.7 12.2-2.6 11.7-4 10.9-5.3 9.5-6.8 8-8.5z"/><path class="l" d="m158.8 103.8l4.4-5.3 4.1-5.3 3.9-5.2 3.6-5.1 2.8-4.9 2.4-4.4 1.9-3.9 1.2-3.1 0.5-2.7 0.7-2 0.5-1.7 0.7-1.2 0.1-1.2v-1l-0.5-1.2-0.8-1-1.1-1.2-0.8-0.7-0.7-0.5-0.3-0.2-0.5-0.6v-0.5-1.1l0.5-1.3v-2.1l0.1-1.7-0.3-1.6-0.7-1.6-1.3-1.8-1.9-1.9-2.5-2.2-3.6-2.2-1-0.7-1-0.5-1.1-0.5-1-0.5-1.3-0.5-1.2-0.5-1.4-0.5-1.3-0.6-7.5-2.3-8.3-2.1-9.2-1.8-9.1-1.2-9.3-1h-8.9l-8.1 0.6-7.1 1.9-5.3 1.5-5.3 1.9-5.4 1.9-5.2 2.3-5.6 2.4-5.5 2.7-5.4 3.1-5.1 3.2-3.4 2.2-3.2 2.4-3 2.5-2.9 2.7-3.1 2.6-2.5 3-2.6 2.9-2.2 3.2-5.6 7.7-4.2 7.1-3.2 6.3-2.2 5.6-1.2 4.5-0.2 4.3 0.7 3.4 1.8 2.9 2.6 2.8 4.1 3.9 5 4.4 6.8 4.6 7.8 4.1 9.5 3.7 10.7 2.6 12.4 1.2 10.9-0.6 11.7-1 11.7-1.7 11.8-2.5 11.4-3.7 10.5-5 9.3-6.6 8-7.9z"/><path class="m" d="m156.4 100.9l4.6-5.1 4.4-4.9 4.1-4.9 3.6-4.6 2.9-4.6 2.5-4.1 1.9-3.7 1.5-2.9 0.8-2.5 0.9-1.9 0.5-1.7 0.7-1 0.1-1.2v-1l-0.5-1.2-0.6-1-1.2-1.2-0.7-0.7-0.7-0.5-0.3-0.2-0.4-0.5v-0.5-1l0.4-1.4 0.1-2v-1.7l-0.1-1.7-0.5-1.5-1.4-1.9-1.9-1.8-2.5-2.2-3.6-2.2-1.3-0.9-1.6-0.7-1.6-0.8-1.7-0.7-2.1-0.8-2-0.9-2.2-0.8-2.2-0.7-7.5-2.1-8-1.5-8.3-1.5-8.3-0.9-8.3-0.6-7.8 0.1-7.5 0.7-6.2 1.7-4.4 1.2-4.3 1.5-4.4 1.4-4.2 1.8-4.6 1.7-4.4 2.2-4.6 2.1-4.2 2.5-4.6 2.6-4.3 2.7-4 3-3.9 3.3-3.9 3.2-3.6 3.7-3.2 3.7-2.9 4.1-5.6 7.6-4.2 7-3.3 6.1-2 5.4-1.2 4.4-0.2 4.1 0.7 3.4 1.9 2.9 2.5 2.7 4.1 3.5 5.3 3.9 6.6 4.1 7.8 3.6 9.3 3 10.7 2.1 12.2 0.8 10.9-0.7 11.3-1 11.4-1.7 11.4-2.4 10.8-3.7 10.2-4.6 9-6.1 7.9-7.4z"/><path class="R" d="m154.2 97.5l4.6-4.6 4.6-4.6 4.1-4.4 3.7-4.2 3.1-4.3 2.7-3.7 2-3.4 1.7-2.5 1-2.4 1-1.7 0.7-1.7 0.7-1 0.2-1.2v-1l-0.4-1.2-0.8-1-1.2-1.2-0.7-0.7-0.7-0.5-0.1-0.2-0.4-0.5 0.2-0.3v-1l0.5-1.4v-2l0.2-1.5-0.4-1.7-0.5-1.6-1.3-2-1.9-1.9-2.5-2.2-3.6-2.2-1.9-1-1.8-1-2.4-1-2.4-0.9-2.9-1.2-3-1-3.2-1-3.3-0.8-7.1-1.7-7.3-1.4-7.5-1.2-7.4-0.5-7.5-0.3-6.8 0.1-6.4 0.9-5.4 1.5-3.4 0.9-3.2 1-3.4 1.2-3.3 1.3-3.4 1.2-3.3 1.4-3.4 1.5-3.3 1.7-5.6 2.7-5.4 3.2-5.4 3.4-4.9 3.7-5 3.9-4.5 4.3-4.3 4.4-3.5 4.9-5.5 7.6-4.2 6.8-3.1 6.1-2 5.3-1.2 4.4-0.2 4.1 0.7 3.2 1.9 2.9 2.5 2.5 4.1 3.2 5.1 3.4 6.6 3.6 7.6 2.9 9.4 2.3 10.5 1.6 12 0.5 10.7-0.9 11-1.2 11.1-1.7 11.2-2.3 10.3-3.6 9.8-4.4 8.9-5.8 7.9-6.9z"/><path class="S" d="m151.5 93.9l5.1-4.2 4.6-4.1 4.2-4.1 3.8-3.9 3.2-3.9 2.9-3.2 2.2-3 1.8-2.4 1.2-2 1.2-1.6 0.9-1.5 0.8-1 0.2-1 0.2-1-0.6-1.2-0.6-1.2-1.2-1.2-0.7-0.7-0.7-0.3-0.1-0.2-0.2-0.5 0.2-0.5 0.1-1 0.4-1.4v-2l0.1-1.5-0.3-1.7-0.5-1.6-1.4-1.8-1.8-1.7-2.8-2.2-3.5-2.2-2.1-1.4-2.5-1.2-3-1.2-3.4-1.2-3.9-1.5-3.9-1.2-4.5-1.2-4.4-1-6.4-1.5-6.5-0.8-6.6-0.9-6.2-0.3-6.3-0.2-6 0.3-5.4 0.9-4.7 1.5-2.2 0.5-2.1 0.5-2 0.7-2 0.9-2.3 0.6-2 0.9-2.2 0.8-2 1-7 2.9-6.6 3.4-6.6 3.6-6.5 4.2-6.1 4.4-5.6 4.9-5.2 5.5-4.4 5.9-5.6 7.6-4.1 6.8-3.2 5.8-2.1 5.2-1.1 4.5v3.7l0.6 3.2 1.7 2.7 2.6 2.4 4 3 5.1 2.8 6.6 2.8 7.7 2.2 9.1 1.9 10.4 1h12l10.5-1.2 10.7-1.1 10.6-1.9 10.6-2.2 9.9-3.2 9.5-4.3 8.6-5.2 7.8-6.5z"/><path class="T" d="m148.8 90.2l5.3-3.9 4.9-3.7 4.2-3.8 3.9-3.4 3.3-3.4 2.8-2.8 2.6-2.7 2-2.1 1.5-1.8 1.6-1.4 1-1.2 0.8-1 0.4-1.2v-1l-0.5-1.2-0.9-1.2-1.2-1.2-0.6-0.7-0.6-0.3-0.1-0.5 0.1-0.3 0.2-1.1 0.4-1.3 0.1-2v-1.6l-0.1-1.7-0.7-1.5-1.4-1.9-1.7-1.7-2.7-2.2-3.4-2-2.7-1.5-3.4-1.6-4.1-1.6-4.4-1.6-5.1-1.7-5.4-1.5-5.8-1.5-5.6-1-5.4-0.9-5.4-0.5-5.3-0.3h-5.1-5l-4.8 0.5-4.4 0.7-3.7 1.3-1.6 0.4-1.3 0.3-8.2 2.9-8.4 3.5-8.5 4.1-8.3 4.8-8.2 5-7.6 6-6.8 6.4-5.8 7.3-5.4 7.6-4.1 6.7-3 5.7-2 5.3-1.2 4v3.8l0.8 3 1.7 2.7 2.6 2.4 3.9 2.4 5 2.4 6.5 2 7.6 1.5 9 1.2 10.2 0.3 11.9-0.5 10.3-1.3 10.5-1.5 10.2-1.7 10-2.2 9.5-3.3 9-3.7 8.3-4.7 7.8-5.8z"/><path class="U" d="m145.8 86.1l5.4-3.5 5.1-3.3 4.4-3.2 4.1-2.9 3.3-2.8 3.1-2.6 2.7-2.2 2.4-1.7 1.9-1.7 1.5-1.2 1.2-1.2 1-1 0.3-1v-1l-0.5-1.2-0.8-1.2-1.2-1.2-0.7-0.7-0.3-0.3v-0.2l-0.2-0.3 0.3-0.5 0.2-0.9 0.5-1.3 0.2-1.9v-1.5l-0.2-1.7-0.7-1.5-1.3-1.9-1.7-1.7-2.7-2.2-3.4-2-3.6-2.1-4.6-1.8-5.6-2.1-6.2-2-7-2-7.3-1.6-7.5-1.3-7.4-0.7-2.6-0.3-2.5-0.2h-2.5l-2.4 0.2h-2.6l-2.3 0.1-2.4 0.2-2.1 0.5h-1.3l-1 0.4-1.4 0.3-1 0.5-8.5 2.9-8.8 3.4-9.2 4-9 4.8-8.9 5.3-8.2 6.2-7.4 7-6.3 7.8-5.4 7.4-4.1 6.7-3.1 5.5-1.8 5-1.2 4v3.6l0.8 3 1.7 2.8 2.6 2 3.9 2 5.1 1.6 6.4 1.3 7.5 0.9 9 0.3 10.1-0.3 11.6-0.9 10.1-1.7 10.2-1.5 9.7-1.9 9.5-2.2 8.8-2.9 8.5-3.4 8.1-4.2 7.7-5.1z"/><path class="U" d="m142.5 81.5l5.8-3 5.3-2.6 4.5-2.7 4.1-2.3 3.6-2.4 3.2-2 2.7-1.9 2.7-1.4 2.1-1.3 2-1 1.5-1.1 1-0.8 0.5-1v-1l-0.5-1.4-1-1.2-1.2-1.2-0.6-0.7-0.4-0.3 0.2-0.2v-0.3l0.3-0.3 0.4-0.9 0.3-1.3v-1.9l0.2-1.5-0.4-1.7-0.5-1.6-1.3-1.8-1.7-1.7-2.7-2.2-3.4-2.1-5.5-2.8-7.6-2.8-9.3-2.8-10.2-2.4-10.9-2-10.6-0.9-10 0.3-8.7 1.9-8.5 2.7-8.8 3.4-9 4.1-9 4.7-8.8 5.3-8 6.1-7.4 6.8-6.3 7.8-5.4 7.3-4.1 6.4-3.1 5.6-1.8 4.8-1 3.9v3.3l0.8 2.9 1.7 2.7 2.5 2.1 3.9 1.5 5 1 6.4 0.5h7.3l8.8-0.5 9.9-1 11.3-1.4 10.2-2 9.8-1.9 9.2-1.8 8.8-2.1 8.2-2.7 8.1-3 7.6-3.7 7.8-4.5z"/><path class="V" d="m139 76.8l6.1-2.5 5.4-2.3 4.8-2.2 4.2-1.7 3.6-1.8 3.5-1.4 3.1-1.3 3-1 2.6-1.1 2-0.8 1.5-1 1.2-0.9 0.5-1v-1l-0.5-1.2-1-1.4-1.2-1.1-0.5-0.7-0.3-0.4h0.1l0.2-0.1 0.3-0.4 0.4-0.8 0.5-1.2 0.2-2v-1.6l-0.2-1.5-0.5-1.5-1.4-1.9-1.7-1.7-2.7-2-3.4-2-5.4-2.9-7.6-2.7-9.2-3.1-10.2-2.4-10.8-2-10.5-0.9-10 0.4-8.7 1.9-8.3 2.7-8.7 3.4-9 4-8.9 4.8-8.9 5.1-8.1 6.1-7.3 6.7-6.3 7.7-5.2 7.3-4.1 6.4-2.9 5.3-1.9 4.5-1 3.8v3.4l0.7 2.7 1.7 2.7 2.5 1.7 4 1 4.9 0.2 6.2-0.4 7.3-1 8.9-1.3 9.6-1.9 11.2-1.9 10-2.3 9.2-2.1 8.6-2 8.2-1.9 7.6-2.2 7.5-2.5 7.4-3.2 7.7-3.6z"/><path class="W" d="m134.9 71.4l6.4-2.1 5.6-1.7 5-1.5 4.5-1 3.8-1.2 3.5-0.8 3.4-0.9 3.4-0.5 2.9-0.8 2.4-0.7 1.7-0.7 1.3-0.7 0.5-1 0.2-1-0.5-1.2-0.8-1.4-1.2-1.3-0.7-0.7-0.2-0.2h0.2l0.2-0.1 0.5-0.4 0.3-0.6 0.5-1.2 0.2-1.9v-1.7l-0.2-1.5-0.5-1.5-1.3-1.9-1.7-1.7-2.6-2-3.2-2.1-5.4-2.7-7.5-2.9-9.2-2.9-10.1-2.2-10.9-2-10.5-0.8-9.8 0.1-8.7 1.9-8.3 2.7-8.7 3.4-9 4.1-8.8 4.5-8.6 5.1-8.2 6.1-7.3 6.8-6.2 7.6-5.1 7.2-3.9 6.1-3.1 5.1-1.7 4.5-1 3.6v3.2l0.9 2.6 1.7 2.7 2.5 1.5 3.7 0.5 4.9-0.7 6.2-1.3 7.1-2.2 8.6-2.4 9.5-2.9 11.1-2.5 9.8-2.7 8.8-2.2 8-2.1 7.4-1.7 6.8-2 7-2 6.9-2.4 7.5-2.7z"/><path class="X" d="m130.5 65.1l6.8-1.4 5.9-0.8 5.1-0.9 4.6-0.3 4.1-0.5 3.9-0.3 3.5-0.2h3.9l3.2-0.4 2.8-0.3 1.8-0.7 1.5-0.5 0.6-1 0.1-0.8-0.5-1.4-1-1.4-1.2-1.5-0.5-0.7-0.2-0.1 0.5 0.1 0.4-0.1 0.5-0.2 0.5-0.7 0.5-1.2 0.2-1.8v-1.6l-0.2-1.7-0.5-1.5-1.4-1.7-1.7-1.7-2.5-2-3.4-2-5.4-2.8-7.5-2.7-9-2.8-10-2.3-10.7-1.8-10.5-0.9-9.8 0.2-8.5 1.9-8.1 2.7-8.7 3.4-8.8 3.9-8.8 4.6-8.7 5-8 6-7.2 6.6-6.2 7.4-5.2 7-3.9 6.1-2.9 5.1-1.7 4.2-1 3.4 0.2 3.1 0.8 2.3 1.7 2.6 2.5 1.2 3.8-0.2 4.9-1.7 6.1-2.4 7.1-3.4 8.2-3.5 9.3-3.6 10.7-3.2 9.7-3 8.3-2.6 7.1-2.2 6.6-1.5 6.1-1.7 6.3-1.5 6.4-1.9 7.5-1.7z"/><path class="Y" d="m94.5 29.5l-10.5 2.5-10 3.8-9.7 4.5-8.6 5.5-8 5.7-6.6 6.1-5.3 6-3.3 6.1-0.9 4 2.9 1.6 5.9-0.7 8.7-2.2 10.7-3.2 12.3-3.6 13.4-3.4 14.5-2.5 14-1.9 13.8-1.2 12.2-0.8 10.8-0.9 8.2-1.5 5.2-1.9 1.6-2.9-2.6-4-5.7-4.8-6.7-4-7.9-3.6-8.5-2.4-9.5-1.7-9.8-0.7-10.2 0.4-10.4 1.7z"/><path class="Y" d="m95 30.3l-8.6 2.1-8.2 3-7.9 3.9-7.1 4.4-6.5 4.6-5.4 5.1-4.3 4.9-2.7 4.9-0.7 3.3 2.4 1.3 4.8-0.7 7.1-1.7 8.5-2.7 10.2-2.9 10.8-2.7 11.7-2 11.5-1.5 11.4-1.1 10-0.6 8.8-0.7 6.7-1.2 4.2-1.5 1.2-2.4-1.9-3.2-4.7-3.9-5.6-3.4-6.5-2.7-6.9-2.1-7.7-1.5-7.9-0.5-8.3 0.2-8.4 1.3z"/><path class="Z" d="m95.2 31l-7.3 1.7-6.9 2.6-6.7 3.2-5.9 3.7-5.6 3.9-4.4 4.2-3.4 4.1-2.4 4.3-0.6 2.7 2 1 3.9-0.5 6.1-1.4 7.1-2.4 8.5-2.3 9.3-2.4 9.9-1.7 9.6-1.4 9.4-0.8 8.5-0.5 7.4-0.5 5.4-1 3.6-1.4 1.2-2-1.7-2.7-3.9-3.4-4.6-2.7-5.4-2.4-5.8-1.5-6.6-1.2-6.6-0.5-7.1 0.1-7 1.2z"/><path class="a0" d="m95.4 31.5l-6.1 1.4-6 2.4-5.6 2.7-5 3.2-4.6 3.4-3.9 3.5-3.1 3.4-1.8 3.6-0.7 2.4 1.7 0.8 3.4-0.5 5.1-1.2 6.1-2 7.3-2.1 7.8-2 8.4-1.3 8.3-1.2 8-0.7 7.1-0.5 6.3-0.5 4.8-0.9 3-1.2 0.9-1.7-1.6-2.2-3.3-2.8-4-2.4-4.5-1.9-4.9-1.3-5.6-1.1-5.6-0.5-6 0.2-5.9 1z"/><path class="a1" d="m95.6 32l-5.3 1.2-5.1 1.9-4.9 2.4-4.3 2.7-4 2.7-3.2 3-2.8 3.1-1.5 3-0.5 1.9 1.5 0.9 2.9-0.4 4.4-1 5.3-1.7 6.1-1.9 6.8-1.7 7.1-1.1 7-1.1 6.9-0.3 6.1-0.5 5.4-0.4 4.1-0.6 2.7-1 0.9-1.6-1.2-1.8-3.1-2.6-3.4-2-3.9-1.7-4.2-1.2-4.8-0.8-4.9-0.4h-5.1l-5 1z"/><path class="a2" d="m95.7 32.4l-4.6 1-4.4 1.7-4.2 1.8-3.6 2.4-3.4 2.4-2.8 2.7-2.3 2.6-1.3 2.7-0.5 1.5 1.3 0.7 2.4-0.4 3.7-0.8 4.5-1.5 5.4-1.4 5.8-1.5 6.2-1 6-0.9 5.9-0.5 5.3-0.5 4.5-0.2 3.4-0.7 2.4-0.8 0.7-1.2-1-1.7-2.6-2.2-2.9-1.7-3.4-1.5-3.5-0.9-4.1-0.8-4.2-0.2-4.4 0.2-4.3 0.7z"/><path class="a3" d="m96.6 34.1l-3.9 0.6-3.4 1.1-2.9 1.3-2.4 1.5-2.2 1.6-1.7 1.7-1.5 1.7-1 1.8-0.7 1 0.3 0.7h1.4l2.4-0.3 2.8-1 4-0.9 4.5-0.8 5.3-0.9 5.2-0.7 5-0.5 4.2-0.5 3.7-0.1 2.6-0.7 1.7-0.5 0.3-1-0.8-1.1-2.1-1.5-2.2-1.2-2.5-1-2.6-0.5-3.2-0.7h-3l-3.8 0.2-3.5 0.7z"/><path class="a4" d="m96.9 34.9l-3.6 0.5-2.5 0.9-2.4 0.8-1.7 1-1.5 0.9-1 1.2-1 1.2-0.9 1.5-0.8 1v0.5l0.7 0.2h1.6l2.1-0.5 3-0.5 3.8-0.9 4.9-0.5 4.6-0.7 4.4-0.5 3.7-0.5 3.2-0.2 2.1-0.5 1.3-0.5 0.2-0.7-0.9-0.8-1.8-1.2-1.7-1-2.1-0.7-2-0.3-2.5-0.5-2.7 0.1h-3.1l-3.4 0.7z"/><path class="a5" d="m97.2 35.8l-3.2 0.3-2.3 0.5-1.7 0.5-1.2 0.5-1.1 0.5-0.6 0.9-0.7 1-0.7 1.2-0.8 0.8-0.4 0.7 0.2 0.2 1 0.2 1.5-0.4 2.6-0.3 3.2-0.5 4.4-0.5 4.4-0.7 4.1-0.4 3.4-0.5 2.7-0.1 1.9-0.5 1-0.4v-0.7l-0.9-0.6-1.7-1.1-1.5-0.6-1.7-0.5-1.7-0.2-2-0.4-2.4 0.2-2.7 0.2-3.1 0.7z"/><path class="a6" d="m97.6 36.3l-3.1 0.3-2 0.3-1.4 0.2-0.6 0.4-0.7 0.3-0.5 0.5-0.5 0.5-0.7 1-1 0.7-0.4 0.7-0.1 0.3 0.6 0.4 1.1-0.2 2-0.2 3-0.3 4.1-0.4 4.1-0.6 3.7-0.5 3.1-0.4 2.5-0.3 1.5-0.5 0.9-0.4v-0.5l-1-0.5-1.6-0.8-1.3-0.4-1.4-0.5h-1.3l-1.7-0.1-2.1 0.1-2.3 0.2-2.9 0.7z"/><path class="a7" d="m199.7 81.5v-0.5l0.8-0.5 0.7-0.7 1.2-0.8 1.4-1.4 1.7-1.7 2.3-2.7 3.9-2.8 4.6-3.4 5.4-3.1 5.3-3 5.3-2.6 4.5-1.9 3.8-1 2-0.5h2.2 1.9l1.8 0.2 1.4 0.2 1 0.3 0.7 0.2 0.3 0.3h0.2l0.7 0.3 0.8 0.2 1.2 0.2 0.9-0.2 1-0.3 0.5-0.7 0.5-1-0.2-1.5-0.3-1.7-0.5-2.1-0.3-1.7-0.7-1.7-0.9-1-1-0.7-0.8 0.2-1.4 0.2-1.2 0.3-1.2 0.2-1 0.3h-1l-0.7 0.2h-0.5v0.2l-1.2 0.3-2.5 1-4.1 1.7-4.7 2.2-5.5 2.4-5.2 2.9-5.3 2.9-4.2 2.8-3.8 2.4-2.7 1.9-2.2 1.3-1.5 1.2-1.5 0.5-0.9 0.5-1 0.4-0.7 0.5-1 0.3-0.8 0.4-0.9 0.3-0.5 0.5-0.9 0.7-0.1 0.3 0.1 0.4 0.7 1 0.9 1.3 1 1.7 0.7 1.6 0.8 1.3 0.5 0.9 0.2 0.1z"/><path class="a8" d="m199.7 81.4l-0.2-0.7 1-0.5 0.7-0.7 1.2-0.7 1.4-1.3 1.7-1.7 2.3-2.9 3.9-2.9 4.6-3.4 5.3-3 5.2-3.1 5.3-2.4 4.6-2 3.9-0.8 2-0.5 2.2-0.2h1.9l1.7 0.3h1.3l1.1 0.4 0.6 0.3 0.5 0.3h0.2l0.7 0.2 0.8 0.2 1.1 0.3 0.8-0.2 1-0.3 0.7-0.7 0.3-1-0.1-1.7-0.2-1.5-0.3-1.9-0.4-1.5-0.8-1.5-0.7-1-1-0.7-1 0.1-1.4 0.4-1.2 0.3-1.2 0.4-1 0.3-1 0.2-0.7 0.3-0.5 0.2v0.2l-1.2 0.3-2.5 1-3.9 1.5-4.8 2.1-5.4 2.3-5.3 2.8-5.1 2.7-4.2 3-3.7 2.4-2.7 1.9-2.2 1.3-1.7 1.2-1.4 0.5-1 0.7-1 0.3-0.7 0.5-1.7 0.7-1.2 0.9-0.8 0.5-0.2 0.3v0.4l0.7 0.8 0.6 1.4 1.1 1.5 0.6 1.3 0.9 1.2 0.3 0.7 0.2 0.2z"/><path class="a9" d="m199.5 80.9v-0.5l1-0.6 0.7-0.6 1-0.9 1.2-1.3 1.7-1.7 2.6-2.7 3.9-2.9 4.7-3.4 5.3-3.1 5.2-3 5.3-2.4 4.6-2 3.9-0.9 2-0.5h2 1.9l1.9 0.2h1.3l1.1 0.3 0.6 0.2 0.5 0.3h0.2l0.7 0.4 0.8 0.1 1.1 0.4 0.8-0.2 1-0.3 0.7-0.7 0.3-1-0.1-1.6-0.2-1.5-0.5-1.7-0.3-1.3-0.7-1.4-0.9-0.8-1-0.4-0.8 0.2-1.4 0.3-1.2 0.5-1.2 0.6-1 0.5-1 0.3-0.7 0.5-0.5 0.3v0.2l-1 0.2-2.6 1-3.9 1.4-4.7 1.8-5.3 2.1-5.2 2.5-5.3 2.5-4.2 2.9-3.8 2.4-2.5 2-2.2 1.6-1.5 1.2-1.4 0.6-1 0.7-1 0.3-0.7 0.6-1 0.3-0.7 0.3-0.7 0.4-0.3 0.3-0.7 0.4v0.3 0.2l0.5 0.8 0.5 1 0.9 1.4 0.5 1.2 0.5 1 0.3 0.5v0.2z"/><path class="aa" d="m199.5 80.4l-0.1-0.6 1-0.5 0.7-0.6 1-0.9 1.3-1.3 1.7-1.7 2.4-2.8 3.9-2.8 4.8-3.4 5.2-3.1 5.3-3 5.2-2.6 4.6-1.8 3.7-1.1 2.1-0.5h2.2 1.8l1.9 0.2 1.4 0.2 1 0.3 0.7 0.2 0.5 0.3h0.1l0.7 0.4 0.9 0.1 1 0.2 0.8-0.2 1.1-0.3 0.6-0.7 0.4-1-0.2-1.4-0.2-1.3-0.3-1.4-0.3-1-0.7-1-0.7-0.7-1-0.3-0.9 0.3-1.3 0.4-1.2 0.6-1.2 0.9-1 0.8-1 0.7-0.7 0.7-0.5 0.3v0.4l-1 0.1-2.6 0.7-3.7 1-4.6 1.7-5.3 1.9-5.2 2.2-5.1 2.4-4.2 2.8-3.8 2.4-2.7 2.1-2.2 1.5-1.5 1.3-1.4 0.9-0.8 0.8-1 0.5-0.7 0.6-1.6 0.5-0.6 0.6-0.2 0.4v0.1 0.2l0.2 0.5 0.3 0.9 0.3 1 0.6 1.5 0.1 0.4z"/><path class="ab" d="m257.4 56.4h-0.5l-1.1 0.6-1.1 0.1-1.4-0.8-1.2-1.4-0.3-0.7-0.2-0.8v-1.2l-0.2-0.8-0.1-0.9v-1-0.7l-0.2-1.5v-0.3l0.3-0.9 1.2-1.4 1.4-1 1.2 0.5 0.3 0.7 0.5 1 0.5 1.1 0.7 1.1 0.3 1.1 0.5 1.1 0.4 0.9 0.3 0.8-0.1 1.4-0.4 1.5-0.5 1-0.3 0.5z"/><path class="ac" d="m257.4 56.3l-0.5 0.1-0.5 0.4h-0.9l-0.8-0.5-0.9-1-0.3-0.5-0.2-0.7v-0.7l-0.2-1.2 0.2-0.7 0.2-0.6h0.1l0.2-0.9 0.7-1.4 0.7-1.3 0.8 0.2 0.5 1.1 0.9 1.7 0.6 1.6 0.6 1.3-0.2 0.9-0.4 1.2-0.3 0.6-0.3 0.4z"/><path class="ad" d="m212.4 77.1l-1.2-1.3-0.8-0.9-1.4-0.6-1.3-0.2-1.2-0.2-1 0.2h-0.9l-0.7 0.3h-1.3l-1.4-0.7-0.8-0.8-1-1-1.6-1.9-1.3-1.3-1.2-0.7-1-0.5-1.4-0.5h-1.5-2l-2.1 0.1-2.5 0.5-2.9 0.7-5.9 1.9-7.5 3.4-8.7 4.9-9.1 5.9-9.2 6.8-8.1 7.5-6.8 7.6-4.6 8-3.5 7.9-3.4 8.7-3.1 9-2.4 9.6-1.8 9.9-0.9 10.1v10.2l1.7 10.4 0.5 2.7 0.7 2.7 0.7 2.5 0.7 2.6 0.5 2.2 0.8 2.4 0.7 2.2 0.8 2.3 1.2 3.6 1.4 3.2 1.5 3.1 1.5 2.7 1.6 2.2 1.5 2.2 1.5 1.7 1.7 1.7 1.2 0.7 1.4 0.6 1.3 0.6 1.4 0.3 4.2 0.5 6.8 1.2 8.3 1 10 0.5 10.5-0.7 11.1-2 11-4.4 10.7-6.8 7.8-7.6 8.3-9 7.8-10.5 7.1-11.6 5.4-12.5 3.4-12.9 0.9-13-2.2-12.9-2.6-7.5-2.5-7.3-2.9-7.4-2.9-6.8-3.2-6.6-3.1-5.5-3.2-4.5-3-3.1-1.4-1-1-0.9-0.9-0.8-0.8-0.7-1.4-1.3-1-1.1z"/><path class="ae" d="m241.1 132.2l-2.6-7.4-2.3-7.3-2.9-7.5-2.7-6.8-3.3-6.6-3-5.4-3.1-4.6-3-3-2.7-2.6-1.9-2-1.5-1.7-1-1-1.1-1-0.6-0.7-1.1-0.5h-1.1-1.2-0.5l-1.4 0.2-0.8 0.3-1.1-0.2-1-0.3-1-0.9-0.8-1.2-1.2-1.5-1.2-1.2-1.5-1-1.4-0.8-1.2-0.5h-1l-1.2-0.2-1.3 0.2h-1.7l-1.7 0.3-2.1 0.5-2 0.5-5.9 1.9-7.5 3.4-8.7 4.9-9.1 5.9-9.2 6.8-8.1 7.5-6.8 7.6-4.6 8-3.5 7.9-3.4 8.7-3.1 9-2.4 9.6-1.8 9.9-0.9 10.1v10.2l1.7 10.4 0.2 1.3 0.3 1.4 0.4 1.3 0.3 1.6 0.2 1.2 0.5 1.3 0.1 1.2 0.6 1.3 2 6.8 2.4 6.1 2.5 5.1 2.6 4.4 2.3 3.4 2.6 2.7 2.7 1.9 2.9 1.2h1.2l1.7 0.2 2 0.3 2.5 0.5 2.4 0.3 3.1 0.6 2.8 0.3 3.6 0.5h0.3 0.6l5.7 0.3h6.5l6.4-0.5 7-0.8 6.8-1.9 6.7-2.5 6.7-3.6 6.6-4.6 7.8-7.6 8.1-9 7.8-10.3 6.8-11.4 5.3-12.2 3.2-12.7 0.7-13.1-2.4-12.9z"/><path class="af" d="m238.4 131.9l-2.2-7.3-2.4-7.3-2.6-7.3-2.5-6.8-2.9-6.4-2.9-5.4-2.8-4.6-2.6-3.1-2.5-2.5-1.9-1.9-1.4-1.5-1-1.2-1-1-0.7-0.5-1.2-0.5h-1l-1.5-0.2h-1l-1 0.2-0.5 0.2-0.9-0.2-0.7-0.3-1-0.7-1-1.2-0.9-1.2-0.8-1-0.9-0.9-0.6-0.6-1.1-0.7-1-0.4-1.3-0.5h-1.2-1.2-1-1l-1.1 0.2h-1.3l-1.2 0.3-1.4 0.2-1.3 0.5-5.9 1.9-7.5 3.4-8.7 4.9-9.1 5.9-9.2 6.8-8.1 7.5-6.8 7.6-4.6 8-3.5 7.9-3.4 8.7-3.1 9-2.4 9.6-1.8 9.9-0.9 10.1v10.2l1.7 10.4v0.5l0.2 0.7 2.4 9.1 2.5 8.2 2.7 6.6 2.9 5.7 2.9 4.3 3 3.4 3.1 2 3.4 1 4.4 0.5 6.4 1 8 0.7 9.5 0.4 10-1.2 10.7-2.4 10.3-4.6 10.4-6.8 7.6-7.6 8-9 7.3-10.2 6.8-11 5.2-12 3.3-12.2 0.8-12.7-2-12.6z"/><path class="ag" d="m235.3 131.4l-2-7.3-1.9-7.3-2.4-7.1-2.3-6.5-2.6-6.2-2.5-5.3-2.6-4.4-2.3-3.2-2.4-2.6-1.5-1.8-1.4-1.7-1-1-1-1.2-0.9-0.5-1-0.5h-1.2l-1.5-0.2h-1l-0.9 0.2-0.5 0.1-0.7-0.1-0.6-0.4-1.1-0.7-0.8-1.1-1.2-1.4-1-1-1.2-1.2-1.2-0.7-1.7-0.7-1.7-0.3-2.2-0.2-2.5 0.4h-1.2l-1 0.1-1.2 0.4-1.2 0.3-5.9 1.9-7.5 3.4-8.7 4.9-9.1 5.9-9.2 6.8-8.1 7.5-6.8 7.6-4.6 8-3.4 7.1-3 8-2.9 8.1-2.4 8.8-2 9-1.2 9.2-0.4 9.3 0.7 9.5 0.2 1.5 0.3 1.5 0.4 1.6 0.3 1.7 2.4 9.5 2.5 8.3 2.7 7.1 2.9 5.7 2.9 4.5 3.1 3.2 3 2 3.4 1.2 4.3 0.5 6.2 0.9 7.8 0.5 9-0.2 9.7-1.4 10.3-2.7 10.2-4.9 10-6.9 7.5-7.7 7.6-9 7.3-10 6.5-10.8 4.9-11.5 3.4-12.1 0.8-12.2-1.7-12.2z"/><path class="ah" d="m232.1 130.7l-1.7-7.1-1.7-7.1-2-7-2.1-6.3-2.3-6.1-2.2-5-2.4-4.5-2.1-3-2-2.5-1.5-1.9-1.2-1.7-0.9-1-0.8-1.2-0.9-0.5-1-0.7h-1.2l-1.5-0.2-1 0.2h-0.8l-0.6 0.2-0.6-0.2-0.7-0.3-0.9-0.9-1-1.2-1.3-1.7-1.4-1.2-1.5-1.1-1.5-0.7-2.3-0.7h-2.7l-3.4 0.3-4 0.9h-0.4l-0.1 0.2-6.3 2.2-7.5 3.7-8.6 4.9-8.7 6.1-8.6 6.5-7.8 7.1-6.5 7.4-4.4 7.7-2.9 6.2-2.7 7-2.7 7.1-2.2 7.6-2.2 7.7-1.5 8.1-0.9 8.2-0.2 8.4v1.7l0.2 1.9 0.2 1.9 0.3 1.8 0.2 1.7 0.3 2.1 0.4 1.7 0.5 2 2.2 9.3 2.7 8.3 2.5 7 2.9 5.7 2.7 4.5 3.3 3.2 3 2 3.4 1.2 4.1 0.3 6.1 0.5 7.5 0.2 8.6-0.3 9.2-1.7 9.8-3.2 9.8-5.1 9.7-7.2 7.3-7.8 7.5-8.6 6.9-9.8 6.5-10.6 4.7-11.3 3.4-11.5 1-11.9-1.5-11.9z"/><path class="ai" d="m228.9 130l-1.4-7.1-1.5-6.9-1.7-6.6-1.7-6.3-2-5.8-2.1-5.1-2-4.2-1.9-3.1-1.8-2.5-1.2-1.9-1-1.7-0.7-1-0.9-1.2-0.8-0.7-1-0.5-1.4-0.1-1.5-0.2-1 0.2h-0.9l-0.5 0.1-0.7-0.1-0.7-0.4-0.8-0.8-1-1.2-1.2-1.7-1.2-1.2-1.5-1.2-1.5-0.5-2.3-0.7h-2.7l-3.4 0.4-4 0.8-1.2 0.2-1.2 0.3-1.4 0.4-1.1 0.7-6.7 2.8-7.4 4.1-8 4.9-7.8 5.6-7.8 6.1-6.8 6.6-5.6 6.8-3.9 7-2.5 5.4-2.6 5.9-2.4 6.1-2 6.6-2 6.7-1.4 6.9-1.2 7-0.6 7.1-0.4 2.7v2.9 2.9l0.4 3v2.9l0.5 2.9 0.5 2.9 0.7 2.9 2.2 9.3 2.5 8.3 2.5 6.8 2.9 5.7 2.7 4.4 3.1 3.3 3 2 3.4 1 3.9 0.4 6 0.3 7.1-0.2 8.3-0.7 8.8-2.2 9.4-3.3 9.5-5.3 9.3-7.3 6.9-7.8 7.3-8.6 6.8-9.7 6.1-10.2 4.8-11 3.2-11.2 1.2-11.5-1-11.6z"/><path class="ai" d="m225.3 129.4l-1-7-1.2-6.8-1.4-6.6-1.3-5.9-1.9-5.6-1.5-4.9-1.9-4.1-1.5-3.1-1.7-2.5-1-1.9-0.9-1.7-0.6-1.1-0.9-1.2-0.7-0.5-1-0.7h-1.3l-1.7-0.2h-1-0.7l-0.5 0.2-0.7-0.2-0.5-0.3-0.9-0.9-0.8-1.2-1.4-1.5-1.2-1.3-1.5-1.1-1.5-0.6-2.2-0.7h-2.7l-3.3 0.3-4 0.9h-1l-1.1 0.3-1.2 0.2-1.1 0.5-1.4 0.5-1.2 0.5-1.3 0.5-1.4 0.7-6.6 3.2-7.1 4.2-7.3 5-7 5.4-6.9 5.6-5.8 6.1-5.1 6.1-3.4 6.3-2.2 4.5-2.2 5-2 5.1-1.7 5.5-1.9 5.5-1.5 5.7-1.4 5.6-0.8 6.1-0.7 3.9-0.3 3.9-0.2 3.9 0.2 4.1v3.9l0.5 4.1 0.5 3.9 1 4.1 2.2 9.3 2.4 8.1 2.5 6.6 2.7 5.8 2.7 4.1 3.1 3.2 2.9 2 3.4 1 3.9 0.2 5.6 0.3 6.8-0.5 7.8-1 8.3-2.5 9-3.8 8.9-5.4 9-7.4 7-8 6.9-8.7 6.7-9.5 5.9-9.8 4.6-10.7 3.2-10.7 1.2-11.1-0.7-11.2z"/><path class="aj" d="m221.4 128.7l-0.7-7-0.6-6.6-1.2-6.4-1.1-5.8-1.3-5.4-1.4-4.6-1.5-4.1-1.2-2.8-1.3-2.6-0.9-1.9-0.7-1.7-0.6-1.1-0.9-1.2-0.7-0.7-1-0.5-1.3-0.2-1.6-0.2h-1-0.7l-0.5 0.2-0.5-0.2-0.5-0.3-0.7-0.8-1-1.2-1.3-1.7-1.2-1.2-1.6-1.2-1.5-0.5-2.2-0.7h-2.5l-3.4 0.4-4.1 0.8-1.5 0.2-1.4 0.5-1.7 0.3-1.7 0.9-2 0.5-1.9 1-2.2 0.8-2 1.2-6.5 3.6-6.4 4.1-6.6 4.5-6.3 5.1-5.9 5.3-5.3 5.4-4.4 5.6-2.9 5.8-1.9 3.7-1.6 4.1-1.7 4-1.6 4.4-1.5 4.5-1.5 4.5-1.4 4.6-1 4.9-1 4.8-0.7 5.1-0.5 4.9-0.2 5.1-0.1 4.9 0.5 5.1 0.5 4.9 1.2 5.1 2.2 9.3 2.3 8.1 2.6 6.7 2.7 5.6 2.5 4 2.9 3.1 2.9 1.8 3.2 0.9 3.8 0.2h5.4l6.4-0.9 7.5-1.3 8-2.9 8.5-4.1 8.4-5.8 8.7-7.6 6.6-8.1 6.8-8.5 6.3-9.2 5.6-9.5 4.4-10.1 3.2-10.4 1.5-10.8-0.5-10.7z"/><path class="ak" d="m217.5 127.8l-0.3-6.7-0.4-6.5-0.6-6.1-0.9-5.6-1-5.2-1-4.6-1.1-3.9-1-2.9-1.2-2.6-0.5-1.8-0.6-1.7-0.4-1.2-0.7-1.2-0.8-0.7-1-0.5-1.4-0.1-1.7-0.2h-1-0.7l-0.3 0.2-0.5-0.2-0.4-0.4-0.6-0.8-1.1-1.2-1.3-1.7-1.2-1.2-1.5-1.2-1.6-0.5-2.2-0.6h-2.5l-3.2 0.3-4.1 0.8-2 0.4-1.9 0.5-2.4 0.8-2.3 1.1-2.8 1-2.7 1.5-2.9 1.4-2.8 1.7-6 3.3-5.7 4.1-6 4.3-5.2 4.7-5.1 4.6-4.4 5.1-3.8 4.9-2.7 5.1-1.3 2.7-1.4 3-1.4 3.1-1.1 3.4-1.4 3-1 3.4-1.2 3.4-1 3.6-1.7 5.7-1.2 6.1-1 6.1-0.4 6.2-0.3 6.1 0.2 6.2 0.6 6.1 1.2 6.3 2.2 9.2 2.4 7.9 2.6 6.7 2.5 5.4 2.5 3.9 2.8 3 2.8 1.9 3.3 1h3.7l5.1-0.2 5.9-1.1 7.1-1.9 7.3-3.2 8-4.6 8-6.1 8.3-7.8 6.4-8.2 6.5-8.4 5.9-8.9 5.6-9.1 4.3-9.8 3.2-9.9 1.7-10.3-0.2-10.4z"/><path class="al" d="m213.3 127.2v-6.8l0.1-6.1-0.5-6-0.3-5.4-0.9-5.1-0.5-4.2-0.8-3.7-0.5-2.9-0.7-2.7-0.3-2.1-0.6-1.7-0.3-1.2-0.7-1.1-0.8-0.6-1-0.6h-1.6l-1.5-0.2h-1-0.7-0.2l-0.5-0.3-0.3-0.4-0.5-0.8-0.9-1.2-1.3-1.5-1.2-1.4-1.5-1-1.6-0.7-2.2-0.5h-2.5l-3.2 0.3-4.1 0.9-2.4 0.3-2.5 1-3.1 1.1-3.2 1.5-3.6 1.5-3.5 1.9-3.9 2-3.8 2.4-5.2 3.4-4.9 3.5-4.9 3.9-4.5 4.3-4.4 4-3.5 4.5-3.1 4.4-2.2 4.4-1 1.7-0.7 1.8-1 1.9-0.7 2-0.8 2.1-0.9 2-0.8 2-0.7 2.2-2.4 6.8-1.8 7.1-1.6 7.2-1 7.6-0.7 7.3v7.6l0.5 7.5 1.4 7.4 2.2 9.2 2.4 8 2.4 6.4 2.5 5.3 2.5 3.9 2.8 2.9 2.8 1.6 3.3 1.1h3.5l4.8-0.5 5.6-1.6 6.4-2.3 6.8-3.8 7.3-4.7 7.6-6.6 7.8-8 6.1-8.1 6.3-8.4 5.6-8.6 5.3-8.8 4-9.3 3.3-9.4 1.8-9.8 0.4-9.8z"/><path class="am" d="m208.5 126.1l0.5-6.6 0.5-5.9v-5.6l0.2-5.1-0.3-4.9-0.4-4.1-0.5-3.7-0.2-2.9-0.3-2.5-0.2-2.1-0.1-1.7-0.2-1.2-0.7-1.1-0.7-0.7-1.1-0.5-1.6-0.2-1.7-0.2h-0.8-0.7-0.2l-0.3-0.3-0.2-0.3-0.5-0.9-0.8-1-1.4-1.5-1.2-1.4-1.3-1-1.6-0.7-2.2-0.7h-2.5l-3.4 0.4-3.9 0.8-2.9 0.7-3.4 1.2-4 1.5-4.1 2-4.6 2.3-4.6 2.7-4.9 2.8-4.6 3.3-4.2 2.9-3.9 3.2-3.9 3.4-3.4 3.5-3.2 3.4-2.9 3.6-2.4 3.5-1.7 3.8-0.7 1.2-0.5 1.3-3 7.6-2.9 8.4-2.6 8.6-2 9.3-1.5 9.2-0.7 9.6 0.3 9.4 1.6 9.5 2.2 9.1 2.2 7.7 2.4 6.2 2.5 5.3 2.4 3.7 2.7 2.9 2.9 1.7 3.2 1 3.4-0.2 4.4-0.8 5.1-1.9 5.8-2.7 6.2-4.2 6.8-5.4 7-6.8 7.4-8.3 6-8.3 5.7-8.2 5.5-8.3 4.9-8.3 4.1-8.8 3-9 2-9.2 0.7-9.5z"/><path class="an" d="m203.4 125.3l1-6.5 1.1-5.9 0.5-5.4 0.5-4.8v-4.5l0.2-3.9 0.1-3.4 0.2-2.9v-2.6l0.2-2-0.2-1.7v-1.3l-0.7-1.2-0.7-0.5-1.2-0.7h-1.5l-1.7-0.4h-0.8-0.5-0.2l-0.2-0.3-0.1-0.3-0.7-0.9-0.7-1.2-1.4-1.5-1.1-1.4-1.4-1-1.5-0.6-2.2-0.7h-2.6l-3.2 0.3-4.1 0.9-3.7 0.8-4.6 1.9-5.1 2.2-5.6 3-6.1 3.3-5.9 3.9-6.1 4-5.4 4.8-2.1 1.5-1.7 1.5-1.8 1.7-1.6 1.7-1.5 1.7-1.5 1.7-1.4 1.7-1 1.9-0.7 1-0.5 1-0.7 1-0.5 1.2-3.4 7.6-3.2 8.7-2.9 9.1-2.3 9.9-1.9 10-0.9 10.2 0.4 10.1 1.7 10.2 2 9 2.2 7.8 2.1 6.1 2.5 5.1 2.4 3.7 2.7 2.7 2.7 1.6 3.2 0.8 3.2-0.2 4.1-1.2 4.6-2.3 5.3-3.3 5.6-4.7 6.1-5.8 6.4-7.1 6.8-8.5 5.6-8.4 5.6-8.2 5.1-8.1 4.6-7.8 3.9-8.3 3-8.2 2-8.6 1.2-9z"/><path class="an" d="m198 124.3l1.5-6.3 1.4-5.6 1-5.1 1-4.6 0.5-4.2 0.5-3.7 0.5-3.3 0.7-2.7 0.4-2.7 0.5-2 0.1-1.7 0.2-1.4-0.5-1.2-0.7-0.6-1.2-0.5-1.5-0.2-1.7-0.3h-1-0.5l-0.2-0.6v-0.3l-0.5-0.8-0.7-1.2-1.3-1.6-1.2-1.1-1.4-1.1-1.5-0.6-2.2-0.5h-2.5l-3.3 0.3-3.9 0.8-5.7 1.6-7.2 3-8.3 4.3-8.6 5.4-8.7 5.9-7.6 6.6-6.5 7.2-4.4 7.4-3.4 7.6-3.2 8.7-3 9-2.4 9.6-1.9 9.9-0.6 10.2v10l1.6 10 2.1 8.8 2.2 7.6 2 6.1 2.4 4.9 2.2 3.6 2.5 2.5 2.8 1.7 3.2 0.9 3-0.5 3.8-1.6 4-2.7 4.6-3.9 4.8-5.2 5.4-6.3 5.9-7.6 6.5-8.7 5.2-8.5 5.1-7.9 4.8-7.8 4.2-7.5 3.6-7.6 3-7.6 2.4-8 1.7-8.3z"/><path class="ao" d="m191.9 123.1l2-6.1 2.1-5.4 1.5-4.8 1.3-4.2 1.1-3.9 1.2-3.4 1.1-3.2 1.2-2.6 0.9-2.7 0.7-2 0.3-1.7 0.2-1.4-0.4-1.2-0.7-0.7-1.1-0.6-1.7-0.2-1.7-0.3h-0.9l-0.5-0.2h0.2l-0.2-0.3v-0.6l-0.3-0.8-0.7-1-1.2-1.5-1.2-1.4-1.3-1-1.6-0.7-2-0.5h-2.5l-3.3 0.3-3.9 0.9-5.7 1.7-7.2 3-8.3 4.3-8.5 5.2-8.6 6-7.6 6.6-6.5 6.9-4.2 7.5-3.4 7.4-3.2 8.7-3.1 9-2.4 9.6-1.8 9.7-0.7 10.2v10l1.7 10 2 8.8 2.2 7.5 2.1 5.9 2.2 4.8 2 3.3 2.5 2.6 2.6 1.5 3 0.7 3.1-0.5 3.2-1.9 3.6-3.4 3.9-4.4 4.1-5.9 4.5-7 5.1-7.9 6-8.9 4.9-8.8 4.7-7.6 4.1-7.5 4.1-6.9 3.2-7 3-6.9 2.6-7.3 2.2-7.8z"/><path class="ap" d="m185.1 121.9l2.9-5.9 2.5-5.1 2.1-4.6 2.2-3.7 1.5-3.6 1.7-3 1.7-3.1 1.7-2.5 1.4-2.8 1-2 0.6-1.9 0.4-1.3-0.4-1.2-0.6-0.7-1.2-0.7-1.7-0.1-1.9-0.4h-0.8l-0.4-0.1h0.2l0.2-0.4 0.1-0.5-0.3-0.8-0.7-1.2-1.3-1.5-1.2-1.2-1.4-1-1.5-0.7-2-0.5h-2.6l-3.2 0.3-3.7 0.9-5.6 1.5-7.2 3-8.1 4.3-8.5 5.2-8.5 6-7.6 6.4-6.4 7-4.3 7.4-3.4 7.5-3.2 8.5-3.1 8.9-2.3 9.7-1.9 9.7-0.7 10 0.2 9.8 1.7 10 1.9 8.7 2 7.3 2 5.6 2.1 4.7 2 3.2 2.4 2.4 2.5 1.4 3.1 0.8 2.7-0.8 2.9-2.2 2.7-3.9 3-5.1 3.3-6.6 3.7-7.7 4.4-8.6 5.3-9 4.5-8.8 4.3-7.8 3.5-7 3.6-6.3 3.1-6.2 3-6.3 2.7-6.4 2.9-7z"/><path class="ap" d="m177.5 120.2l3.5-5.8 3.3-4.7 2.8-4.1 2.8-3.4 2.3-3.2 2.2-2.5 2.2-2.7 2.6-2.6 1.9-2.7 1.5-2 1-1.9 0.5-1.4-0.3-1.1-0.7-0.7-1.4-0.7-1.7-0.2-1.8-0.5h-0.9l-0.1-0.2 0.3-0.1 0.2-0.4 0.3-0.5-0.2-0.8-0.6-1-1.4-1.6-1.2-1.3-1.3-1-1.6-0.7-2-0.5h-2.4l-3.2 0.3-3.7 0.9-5.6 1.5-7 3.2-8.1 4.1-8.3 5.2-8.5 6-7.7 6.6-6.2 6.9-4.3 7.3-3.4 7.5-3.2 8.3-2.9 8.8-2.3 9.5-1.9 9.5-0.9 10v9.8l1.7 9.9 1.9 8.5 1.9 7.1 1.8 5.6 2.1 4.4 1.8 3 2.4 2.2 2.4 1.2 3 0.9 2.6-0.9 2.2-2.7 2-4.6 2.2-5.9 2.2-7.3 2.9-8.3 3.4-9.2 4.6-9.6 4.1-9 3.7-7.5 3-6.4 3.3-5.6 2.7-5.6 2.9-5.4 3-5.8 3.6-6.1z"/><path class="aq" d="m127.1 118.7l-4.9 9-3.9 9.6-2.9 10-1.7 10-0.8 9.5 0.1 9 1 8 2.2 6.9 2.6 3.4 3-0.8 3.4-4.6 4.1-7.5 4.6-9.6 5.6-11.2 6.3-11.7 7.4-11.5 8-11.2 8.3-10.2 7.5-9.2 6.4-7.9 4.3-6.6 2-5-1-3.2-4.8-1.2-7.3 0.4-7.6 1.7-7.6 2.8-7.7 4.1-7.4 5.1-7 6.3-6.6 7.3-5.6 8.3z"/><path class="aq" d="m128.1 119l-4.2 7.3-3.1 8-2.3 8.1-1.4 8.2-0.7 7.8 0.2 7.2 0.8 6.7 1.9 5.6 2 2.7 2.4-0.7 2.7-3.7 3.4-6 3.7-7.9 4.5-9.2 5-9.7 6.3-9.3 6.6-9.1 6.7-8.2 6.1-7.4 5.2-6.5 3.6-5.6 1.7-3.9-1-2.7-3.9-0.8-6.2 0.1-5.9 1.4-6.3 2.2-6.1 3.4-6.1 4-5.7 5.3-5.3 5.9-4.6 6.8z"/><path class="ar" d="m128.6 119.5l-3.5 6.1-2.6 6.6-2 6.8-1 7-0.7 6.4 0.2 6.3 0.8 5.4 1.5 4.8 1.6 2.3 2.2-0.6 2.2-3.3 2.9-5 3.2-6.8 3.7-7.5 4.2-8.1 5.3-7.8 5.4-7.7 5.6-7.1 5.1-6.3 4.4-5.2 3.1-4.6 1.3-3.4-0.8-2.2-3.2-0.8-5.1 0.1-5.1 1.2-5.3 2.1-5.1 2.8-5.2 3.4-4.8 4.4-4.4 5-3.9 5.7z"/><path class="ar" d="m129.1 119.7l-3 5.1-2.2 5.6-1.5 5.7-1.1 6-0.5 5.6v5.2l0.7 4.6 1.4 4.1 1.5 2 1.7-0.5 1.8-2.7 2.6-4.2 2.7-5.8 3.2-6.3 3.6-6.9 4.4-6.7 4.6-6.6 4.7-5.9 4.3-5.6 3.9-4.4 2.5-3.9 1.2-2.7-0.7-2.1-2.7-0.5h-4.4l-4.2 1.1-4.6 1.5-4.4 2.5-4.4 3.1-4.1 3.5-3.7 4.3-3.3 4.9z"/><path class="as" d="m129.6 119.9l-2.5 4.4-1.9 4.9-1.5 4.9-0.8 5.1-0.5 4.7 0.1 4.6 0.5 3.9 1.2 3.4 1.2 1.5 1.5-0.3 1.6-2.4 2.2-3.5 2.2-5 2.7-5.4 3.2-5.9 3.7-5.6 3.9-5.6 4.3-5.1 3.7-4.7 3.2-3.9 2.2-3.4 1.1-2.4-0.7-1.5-2.2-0.5h-3.8l-3.7 0.8-3.9 1.4-3.7 2-3.8 2.5-3.3 3.1-3.4 3.7-2.8 4.3z"/><path class="at" d="m130 120l-2.2 3.8-1.5 4.2-1.4 4.1-0.7 4.4-0.5 4.1 0.2 3.9 0.3 3.5 1 3.1 1.1 1.3 1.3-0.3 1.5-2.1 1.7-3.2 1.9-4.2 2.5-4.8 2.8-5 3.2-5 3.4-4.7 3.5-4.4 3.3-3.9 2.7-3.4 1.8-2.9 0.9-2-0.5-1.6-1.9-0.3h-3.2l-3.2 0.9-3.4 1.1-3.3 1.9-3.2 2-3 2.8-2.7 3-2.4 3.7z"/><path class="au" d="m131.9 120.9l-2.1 3-1.3 3.1-1.1 2.9-0.5 2.7-0.3 2.4 0.2 2.5 0.1 2.2 0.7 2.2 0.5 1.2 0.9 0.2 1-0.9 1.2-1.8 1.3-2.8 1.9-3.2 2.2-3.9 2.9-4.1 2.9-4.2 2.8-3.7 2.6-3.2 2.2-2.6 1.4-2.4 0.6-1.5-0.5-1h-1.5l-2.5 0.2-2.4 0.6-2.4 0.9-2.2 1.5-2.4 1.7-2.2 2.2-2 2.6-2 3.2z"/><path class="av" d="m132.9 121.1l-1.9 2.7-1.2 2.3-1 2.1-0.3 2-0.2 1.7v1.7l0.3 1.5 0.5 1.9 0.4 1 0.5 0.5 0.5-0.3 0.8-1 1.1-1.9 1.5-2.4 2-3.2 2.6-3.6 2.5-3.9 2.7-3.4 2.2-2.8 1.9-2.4 1-1.9 0.5-1.2-0.5-0.6-1.2 0.1-2 0.2-1.9 0.7-1.8 0.7-1.7 1.1-1.9 1.4-1.9 1.9-1.8 2.2-1.7 2.9z"/><path class="aw" d="m133.5 121.6l-1.6 2.2-1.2 2-0.9 1.5-0.3 1.4-0.2 1 0.2 1.2 0.1 1.2 0.4 1.5 0.2 1 0.1 0.7 0.4-0.2 0.6-0.5 0.9-1.3 1.3-1.9 1.9-2.7 2.6-3.2 2.3-3.8 2.4-3 1.9-2.6 1.5-2 0.8-1.5 0.4-1-0.5-0.6-1 0.2-1.7 0.4-1.6 0.5-1.3 0.6-1.4 1.1-1.5 1.1-1.5 1.7-1.7 2.2-1.6 2.8z"/><path class="ax" d="m134.1 121.7l-1.7 2.2-1.1 1.7-0.6 1-0.4 0.9-0.1 0.5 0.1 0.7v0.7l0.4 1.3v1l0.1 0.9 0.2 0.3 0.5-0.1 0.7-0.9 1.2-1.4 1.5-2.2 2.4-3 2.4-3.6 2.2-2.9 1.7-2.3 1.5-1.9 0.7-1.5 0.3-0.9-0.5-0.3-1 0.3-1.6 0.4-1.3 0.5-1.2 0.5-1 1-1.2 1-1.2 1.6-1.5 2-1.5 2.5z"/></svg>