<svg version="1.2" xmlns="http://www.w3.org/2000/svg" viewBox="0 0 1320 774" width="1320" height="774">
	<title>pool-ground-publicdomainvectors</title>
	<style>
		.s0 { fill: #fcb911 } 
		.s1 { fill: #b9d431 } 
		.s2 { fill: #23a3c9 } 
		.s3 { fill: #1d90b8 } 
		.s4 { fill: #1697bf } 
		.s5 { fill: #1882a9 } 
		.s6 { fill: #238ab0 } 
		.s7 { fill: #107a9d } 
		.s8 { fill: #258fb2 } 
		.s9 { fill: #5bbad9 } 
		.s10 { fill: #79d1f3 } 
		.s11 { fill: #a2ddf6 } 
		.s12 { fill: #bbe5f8 } 
		.s13 { fill: #fefefe } 
		.s14 { fill: #fdcc07 } 
	</style>
	<g id="publicdomainvectors.org">
		<g id="&lt;Group&gt;">
			<path id="&lt;Path&gt;" class="s0" d="m754.1 94.3l104.4 11.6-1.8 23-104.4-11.6z"/>
			<path id="&lt;Path&gt;" class="s1" d="m659.7 751.3c341.2 0 619.4-80.1 619.4-178.2 0-98.1-278.2-178.1-619.4-178.1-341.1 0-619.3 80-619.3 178.1 0 98.1 278.2 178.2 619.3 178.2z"/>
			<path id="&lt;Path&gt;" class="s2" d="m1166.9 543.7c0 80.6-227.1 145.9-507.2 145.9-280 0-507.1-65.3-507.1-145.9v-262.3h1014.3z"/>
			<path id="&lt;Compound Path&gt;" class="s3" d="m1166.9 543.7c0 12.2-5.3 24.1-15.1 35.4v-243.1c0-6.4 4.4-11.6 9.8-11.6 2 0 3.8 0.6 5.3 1.8zm-116.2 92.9q-9.5 3.3-19.7 6.4v-247c0-6.4 4.4-11.6 9.8-11.6 5.5 0 9.9 5.2 9.9 11.6zm-174.1 38.9q-9.8 1.4-19.7 2.6v-246.6c0-6.4 4.4-11.6 9.8-11.6 5.4 0 9.9 5.2 9.9 11.6zm-195.6 13.8q-9.8 0.1-19.6 0.2v-245.8c0-6.4 4.4-11.6 9.8-11.6 5.4 0 9.8 5.2 9.8 11.6zm-195.5-8.7q-9.9-1-19.7-2.2v-247c0-6.4 4.4-11.5 9.9-11.5 5.4 0 9.8 5.1 9.8 11.5zm-174.1-31q-10.1-2.7-19.7-5.6v-248.1c0-6.4 4.4-11.6 9.8-11.6 5.5 0 9.9 5.2 9.9 11.6zm-120.9-50.6c-7.6-5.3-14.2-10.8-19.6-16.5v-246.6c0-6.4 4.4-11.6 9.8-11.6 5.5 0 9.9 5.2 9.9 11.6v262.3q0 0.4-0.1 0.8z"/>
			<path id="&lt;Path&gt;" class="s4" d="m1166.9 543.7c0 80.6-227.1 145.9-507.2 145.9-117.8 0-226.3-11.6-312.4-31 173.3 21.7 333.9 12 485-25.6 123-30.6 126.1-164.6 8.1-166.8-85.9-1.6-195.6-15.8-247.9-40.2l116.8-144.6h457.6z"/>
			<path id="&lt;Compound Path&gt;" class="s5" d="m1166.9 543.7c0 12.2-5.3 24.1-15.1 35.4v-243.1c0-6.4 4.4-11.6 9.8-11.6 2 0 3.8 0.6 5.3 1.8zm-116.2 92.9q-9.5 3.3-19.7 6.4v-247c0-6.4 4.4-11.6 9.8-11.6 5.5 0 9.9 5.2 9.9 11.6zm-174.1 38.9q-9.8 1.4-19.7 2.6v-53.3q10.6-4.5 19.7-10zm-195.6 13.9q-9.8 0.1-19.6 0.1v-26.6q9.8-1 19.6-2.2zm-195.5-8.7q-9.9-1-19.7-2.2v-9.8q9.9 0.4 19.7 0.7zm391.1-208.9c-6.1-1.9-12.6-3.5-19.7-4.4v-35.9c0-6.4 4.4-11.6 9.8-11.6 5.4 0 9.9 5.2 9.9 11.6zm-195.6-21.1q-10-1.8-19.6-3.8v-3.2c0-6.4 4.4-11.6 9.8-11.6 5.4 0 9.8 5.2 9.8 11.6z"/>
			<path id="&lt;Path&gt;" class="s6" d="m1166.9 543.7c0 57.9-117.3 107.9-287.3 131.5 88.5-18.2 165.1-48.8 217.5-104.4 20.8-22.1 31.5-50.5 31.5-83.4q0-19.4 0-38.7c0-15.4-5.2-28.8-15.2-38.8-10-10-22-14-35-11.5-45 8.6-89.2 9.7-132.4 3.4l72.2-120.4h148.7z"/>
			<path id="&lt;Compound Path&gt;" class="s7" d="m1166.9 543.7c0 12.2-5.3 24.1-15.1 35.4v-243.1c0-6.4 4.4-11.6 9.8-11.6 2 0 3.8 0.6 5.3 1.8zm-116.2 92.9q-9.5 3.3-19.7 6.4v-20.9q10.1-5.8 19.7-12.2zm0-233.9q-9.9 1.2-19.7 1.9v-8.7c0-6.4 4.4-11.5 9.8-11.5 5.5 0 9.9 5.1 9.9 11.5z"/>
			<path id="&lt;Path&gt;" class="s2" d="m659.7 427.3c279.4 0 507.2-65.6 507.2-145.9 0-80.3-227.8-145.8-507.2-145.8-279.3 0-507.1 65.5-507.1 145.8 0 80.3 227.8 145.9 507.1 145.9z"/>
			<path id="&lt;Path&gt;" class="s8" d="m713.4 136.4q9.9 0.3 19.7 0.7v45.7l87.9 5.2v-44.9q10 1 19.7 2v90.2c0 7.7-19.7 7.7-19.7 0v-24.1l-87.9-5.2v17.5c0 7.7-19.7 7.7-19.7 0z"/>
			<path id="&lt;Path&gt;" class="s9" d="m659.7 413.8c273.1 0 495.7-59.5 495.7-132.4 0-72.9-222.6-132.4-495.7-132.4-273 0-495.6 59.5-495.6 132.4 0 72.9 222.6 132.4 495.6 132.4z"/>
			<path id="&lt;Path&gt;" class="s2" d="m713.4 149.8q9.9 0.3 19.7 0.7v32.3l87.9 5.2v-31.8q10 0.9 19.7 1.9v77.2c0 7.7-19.7 7.7-19.7 0v-24.1l-87.9-5.2v17.5c0 7.7-19.7 7.7-19.7 0z"/>
			<path id="&lt;Path&gt;" class="s10" d="m1145.1 308.4c-46.6 60.2-246.2 105.4-485.4 105.4-239.1 0-438.7-45.2-485.3-105.4 46.6-60.2 246.2-105.4 485.3-105.4 239.2 0 438.8 45.2 485.4 105.4z"/>
			<path id="&lt;Path&gt;" class="s11" d="m1145.1 308.4c-46.6 60.2-246.2 105.4-485.4 105.4-109.2 0-210.1-9.4-292-25.4-31.8-17.5-49.7-37.1-49.7-57.8 0-60.8 153.1-111.9 361.8-127.5 230.2 2.4 420 46.8 465.3 105.3z"/>
			<path id="&lt;Path&gt;" class="s12" d="m838.3 382.3c122.6 0 222.7-26.7 222.7-59.5 0-32.7-100.1-59.4-222.7-59.4-122.6 0-222.6 26.7-222.6 59.4 0 32.8 100 59.5 222.6 59.5z"/>
			<path id="&lt;Compound Path&gt;" class="s10" d="m834.5 226.7l6.2-14.6-20.7-2.1zm-108-10.1l6.3-12.2-20.8-2z"/>
			<path id="&lt;Compound Path&gt;" fill-rule="evenodd" class="s13" d="m179.1 581.7c0 6.4-4.4 11.6-9.8 11.6-5.5 0-9.9-5.2-9.9-11.6v-262.3c0-6.4 4.4-11.6 9.9-11.6 5.4 0 9.8 5.2 9.8 11.6zm961.2-262.3c0-6.4 4.4-11.6 9.9-11.6 5.4 0 9.8 5.2 9.8 11.6v262.3c0 6.4-4.4 11.6-9.8 11.6-5.5 0-9.9-5.2-9.9-11.6zm-120.8 60.1c0-6.4 4.4-11.6 9.9-11.6 5.4 0 9.8 5.2 9.8 11.6v262.3c0 6.4-4.4 11.6-9.8 11.6-5.5 0-9.9-5.2-9.9-11.6zm-174.1 35.5c0-6.4 4.4-11.6 9.9-11.6 5.4 0 9.8 5.2 9.8 11.6v262.3c0 6.4-4.4 11.6-9.8 11.6-5.5 0-9.9-5.2-9.9-11.6zm-175.8 274.6c0 6.4-4.4 11.6-9.9 11.6-5.4 0-9.8-5.2-9.8-11.6v-262.3c0-6.4 4.4-11.6 9.8-11.6 5.5 0 9.9 5.2 9.9 11.6zm-195.6-12.3c0 6.4-4.4 11.6-9.8 11.6-5.4 0-9.8-5.2-9.8-11.6v-262.3c0-6.4 4.4-11.6 9.8-11.6 5.4 0 9.8 5.2 9.8 11.6zm-174.1-35.5c0 6.4-4.4 11.6-9.8 11.6-5.5 0-9.9-5.2-9.9-11.6v-262.3c0-6.4 4.4-11.6 9.9-11.6 5.4 0 9.8 5.2 9.8 11.6z"/>
			<path id="&lt;Path&gt;" class="s14" d="m726.8 174.3l88 5.2v-88.1c0-23.2 6-38.7 13.6-46.1 4-3.8 8.5-5.7 13.2-5.7 4.7 0 9.2 1.9 13.1 5.7 7.7 7.4 13.7 22.9 13.7 46.1v57l-19.7-2.4v-54.6c0-15.5-2.8-24.7-6.4-28.2q-0.6-0.6-0.7-0.6-0.1 0-0.7 0.6c-3.6 3.5-6.4 12.7-6.4 28.2v135.3c0 7.7-19.7 7.7-19.7 0v-24.1l-88-5.2v17.5c0 7.7-19.7 7.8-19.7 0v-135.3c0-23.1 6-38.7 13.7-46.1 4-3.8 8.5-5.7 13.1-5.7 4.7 0 9.2 1.9 13.2 5.7 7.7 7.4 13.6 22.9 13.6 46.1v58.8l-19.7-1v-57.8c0-15.5-2.8-24.7-6.3-28.2q-0.6-0.5-0.8-0.5-0.1 0-0.7 0.6c-3.6 3.4-6.4 12.7-6.4 28.1z"/>
		</g>
	</g>
</svg>