<?xml version="1.0" encoding="UTF-8" standalone="no"?>
<!-- Created with Inkscape (http://www.inkscape.org/) -->

<svg
   xmlns:dc="http://purl.org/dc/elements/1.1/"
   xmlns:cc="http://creativecommons.org/ns#"
   xmlns:rdf="http://www.w3.org/1999/02/22-rdf-syntax-ns#"
   xmlns:svg="http://www.w3.org/2000/svg"
   xmlns="http://www.w3.org/2000/svg"
   xmlns:sodipodi="http://sodipodi.sourceforge.net/DTD/sodipodi-0.dtd"
   xmlns:inkscape="http://www.inkscape.org/namespaces/inkscape"
   width="200"
   height="500"
   id="svg2"
   version="1.1"
   inkscape:version="0.48.5 r10040"
   sodipodi:docname="BounceQuestionMark v2.svg">
  <title
     id="title3029">Animation Bouncy Question Mark</title>
  <defs
     id="defs4">
    <filter
       color-interpolation-filters="sRGB"
       inkscape:collect="always"
       id="filter4228"
       x="-0.093599997"
       width="1.1872"
       y="-0.093599997"
       height="1.1872">
      <feGaussianBlur
         inkscape:collect="always"
         stdDeviation="1.4799359"
         id="feGaussianBlur4230" />
    </filter>
    <filter
       color-interpolation-filters="sRGB"
       inkscape:collect="always"
       id="filter4214"
       x="-0.047237881"
       width="1.0944757"
       y="-0.029081514"
       height="1.058163">
      <feGaussianBlur
         inkscape:collect="always"
         stdDeviation="1.9895178"
         id="feGaussianBlur4216" />
    </filter>
    <filter
       inkscape:collect="always"
       id="filter3991"
       color-interpolation-filters="sRGB">
      <feGaussianBlur
         inkscape:collect="always"
         stdDeviation="0.58345283"
         id="feGaussianBlur3993" />
    </filter>
    <filter
       inkscape:collect="always"
       id="filter4068"
       x="-0.062022489"
       width="1.124045"
       y="-0.21230748"
       height="1.424615"
       color-interpolation-filters="sRGB">
      <feGaussianBlur
         inkscape:collect="always"
         stdDeviation="1.1885858"
         id="feGaussianBlur4070" />
    </filter>
  </defs>
  <sodipodi:namedview
     id="base"
     pagecolor="#ffffff"
     bordercolor="#666666"
     borderopacity="1.0"
     inkscape:pageopacity="0.0"
     inkscape:pageshadow="2"
     inkscape:zoom="0.53801595"
     inkscape:cx="38.483782"
     inkscape:cy="199.19094"
     inkscape:document-units="px"
     inkscape:current-layer="layer1"
     showgrid="false"
     inkscape:window-width="1366"
     inkscape:window-height="705"
     inkscape:window-x="-8"
     inkscape:window-y="-8"
     inkscape:window-maximized="1" />
  <metadata
     id="metadata7">
    <rdf:RDF>
      <cc:Work
         rdf:about="">
        <dc:format>image/svg+xml</dc:format>
        <dc:type
           rdf:resource="http://purl.org/dc/dcmitype/StillImage" />
        <dc:title>Animation Bouncy Question Mark</dc:title>
        <dc:creator>
          <cc:Agent>
            <dc:title>Aukipa</dc:title>
          </cc:Agent>
        </dc:creator>
        <dc:publisher>
          <cc:Agent>
            <dc:title>www.portaloha.com/creative-dept</dc:title>
          </cc:Agent>
        </dc:publisher>
        <dc:description>SMIL Animation of a bouncing question mark. Uses SMIL animateTransform on type translate and scale. </dc:description>
        <dc:subject>
          <rdf:Bag>
            <rdf:li>Question Mark</rdf:li>
            <rdf:li>Animation</rdf:li>
            <rdf:li>Animate</rdf:li>
            <rdf:li>SMIL</rdf:li>
          </rdf:Bag>
        </dc:subject>
        <dc:contributor>
          <cc:Agent>
            <dc:title>monsterbraingames</dc:title>
          </cc:Agent>
        </dc:contributor>
      </cc:Work>
    </rdf:RDF>
  </metadata>
  <g
     inkscape:groupmode="layer"
     id="layer2"
     inkscape:label="SmashLayer"
     style="display:inline"
     transform="translate(0,-100)" />
  <g
     inkscape:label="Layer 1"
     inkscape:groupmode="layer"
     id="layer1"
     transform="translate(0,-552.36218)"
     style="display:inline">
    <g
       id="BouncingQuestionMark and Shadow"
       transform="translate(-366.16014,87.358004)">
      <path
         sodipodi:nodetypes="sssss"
         inkscape:connector-curvature="0"
         inkscape:label="#path4350"
         id="Shadow"
         d="m 503.38583,936.04362 c 0,3.71031 -10.29591,6.71811 -22.99655,6.71811 -12.70064,0 -22.99654,-3.0078 -22.99654,-6.71811 0,-3.71029 10.2959,-6.71809 22.99654,-6.71809 12.70064,0 22.99654,3.0078 22.99655,6.71809 z"
         style="opacity:0.8;color:#000000;fill:#808080;fill-opacity:1;fill-rule:nonzero;stroke:none;stroke-width:3.20792866;marker:none;visibility:visible;overflow:visible;filter:url(#filter4068);enable-background:accumulate">
        <animate
           repeatCount="1"
           values="m 503.38583,936.04362 c 0,3.71031 -10.29591,6.71811 -22.99655,6.71811 -12.70064,0 -22.99654,-3.0078 -22.99654,-6.71811 0,-3.71029 10.2959,-6.71809 22.99654,-6.71809 12.70064,0 22.99654,3.0078 22.99655,6.71809 z; m 490.3452,934.96831 c -0.0557,6.0613 -9.02703,8.96879 -14.3632,8.96879 -5.54837,0 -14.53681,-4.17891 -14.36319,-8.96879 0.21223,-5.85411 8.17816,-9.181 14.36319,-8.96878 5.12094,0.17571 14.41507,3.32313 14.3632,8.96878 z; m 503.38583,936.04362 c 0,3.71031 -10.29591,6.71811 -22.99655,6.71811 -12.70064,0 -22.99654,-3.0078 -22.99654,-6.71811 0,-3.71029 10.2959,-6.71809 22.99654,-6.71809 12.70064,0 22.99654,3.0078 22.99655,6.71809 z"
           attributeName="d"
           begin="animatePigHeadUpDown.begin"
           dur="4500ms"
           id="animate4430" />
      </path>
      <path
         inkscape:label="#path4350-1"
         sodipodi:nodetypes="sssss"
         id="Shadow2"
         d="m 490.3452,934.96831 c -0.0557,6.0613 -9.02703,8.96879 -14.3632,8.96879 -5.54837,0 -14.53681,-4.17891 -14.36319,-8.96879 0.21223,-5.85411 8.17816,-9.181 14.36319,-8.96878 5.12094,0.17571 14.41507,3.32313 14.3632,8.96878 z"
         style="opacity:0.8;color:#000000;fill:#999999;fill-opacity:1;fill-rule:nonzero;stroke:none;stroke-width:2;marker:none;visibility:visible;display:none;overflow:visible;filter:url(#filter3991);enable-background:accumulate"
         inkscape:connector-curvature="0"
         sodipodi:insensitive="true" />
      <g
         id="ObjectGroup">
        <animateTransform
           keySplinesH="0.8 0 0.89 1;0.5 0.5 0.5 0.5;0 1 0.95 1"
           keySplines="0.9 0 1 0.81;0.5 0.5 0.5 0.5;0 1 0.95 1"
           calcMode="spline"
           keyTimes="0;.45;.55;1"
           type="translate"
           fill="freeze"
           dur="4500ms"
           begin="0ms;animatePigHeadUpDown.end"
           attributeName="transform"
           id="animatePigHeadUpDown"
           repeatCount="1"
           additiveH="sum"
           values="0 -200;0 0;0 0;0 -200"
           additive="sum" />
        <g
           id="Object">
          <animateTransform
             additive="sum"
             values="0 0;-120 95;0 0"
             additiveH="sum"
             repeatCount="1"
             id="animatePigHeadBounce"
             attributeName="transform"
             begin="animatePigHeadUpDown.begin+2000ms"
             dur="750ms"
             fill="freeze"
             type="translate" />
          <animateTransform
             type="scale"
             fill="freeze"
             dur="750ms"
             begin="animatePigHeadBounce.begin"
             attributeName="transform"
             id="animateTransform4276"
             repeatCount="1"
             additiveH="sum"
             values="1 1;1.25 .9;1 1"
             additive="sum" />
          <g
             id="TheObject"
             transform="translate(330.65888,715.85949)">
            <circle
               style="fill:#555753;fill-opacity:1;stroke:none;filter:url(#filter4228)"
               id="circle4218"
               cx="211.89894"
               cy="206.50879"
               r="18.973537"
               transform="matrix(0.83170296,0,0,0.83170296,-32.881314,33.859868)"
               d="m 230.87248,206.50879 c 0,10.47879 -8.49474,18.97354 -18.97354,18.97354 -10.47879,0 -18.97354,-8.49475 -18.97354,-18.97354 0,-10.4788 8.49475,-18.97354 18.97354,-18.97354 10.4788,0 18.97354,8.49474 18.97354,18.97354 z"
               sodipodi:cx="211.89894"
               sodipodi:cy="206.50879"
               sodipodi:rx="18.973537"
               sodipodi:ry="18.973537" />
            <path
               style="fill:#555753;fill-opacity:1;stroke:none;filter:url(#filter4214)"
               d="m 204.0605,18.885176 c -27.91275,-6.28e-4 -50.54093,22.626772 -50.54127,50.539522 0.007,3.017368 0.37541,6.012702 0.82723,8.996058 2.2692,12.79838 11.93913,20.03753 21.23791,20.56317 11.4984,1.6e-4 20.82,-9.32065 20.8208,-20.81905 -0.0109,-9.403681 -6.32369,-17.632853 -15.40353,-20.079454 1.7202,-5.815769 6.20504,-12.415813 16.81087,-17.327886 31.76975,-11.693272 63.23515,18.338313 42.43027,48.64497 -11.09308,22.283224 -67.66075,44.590774 -48.10517,84.963944 4.3656,9.73863 15.36613,9.50209 20.36879,7.79983 5.00265,-1.70226 15.99388,-15.61802 6.49778,-33.65816 -9.4961,-18.04013 35.1069,-43.15191 35.59585,-79.083422 C 254.59968,41.51263 231.97257,18.885512 204.0605,18.885176 z"
               id="path4200"
               inkscape:connector-curvature="0"
               sodipodi:nodetypes="ccccccccczzcc"
               transform="matrix(0.83170296,0,0,0.83170296,-32.881314,33.859868)" />
            <path
               sodipodi:nodetypes="ccccccccczzcc"
               inkscape:connector-curvature="0"
               id="path4174"
               d="m 135.90264,47.387936 c -23.21512,-5.21e-4 -42.035049,18.818754 -42.035329,42.033871 0.0058,2.509554 0.312234,5.000782 0.688015,7.482047 1.887296,10.644456 9.929804,16.665276 17.663634,17.102456 9.56326,1.2e-4 17.31605,-7.75201 17.31672,-17.315272 -0.009,-7.821069 -5.25943,-14.665296 -12.81116,-16.700141 1.43069,-4.836992 5.16074,-10.326269 13.98164,-14.411654 26.423,-9.72533 52.59287,15.252029 35.28939,40.458167 -9.22615,18.53303 -56.27365,37.08628 -40.00922,70.66477 3.63088,8.09965 12.78007,7.90291 16.94079,6.48713 4.16072,-1.41577 13.30216,-12.98954 5.40422,-27.99358 -7.89794,-15.00404 29.19852,-35.88957 29.60517,-65.773923 -2.9e-4,-23.214551 -18.81932,-42.033591 -42.03387,-42.033871 z"
               style="fill:#fcaf3e;fill-opacity:1;stroke:#f57900;stroke-width:1.49261999;stroke-linecap:round;stroke-linejoin:round;stroke-miterlimit:4;stroke-opacity:1;stroke-dasharray:none;stroke-dashoffset:0" />
            <circle
               r="15.780347"
               cy="204.21318"
               cx="141.48813"
               id="circle4176"
               style="fill:#fcaf3e;fill-opacity:1;stroke:#f57900;stroke-width:1.49261999;stroke-linecap:round;stroke-linejoin:round;stroke-miterlimit:4;stroke-opacity:1;stroke-dasharray:none;stroke-dashoffset:0"
               d="m 157.26848,204.21318 c 0,8.71525 -7.06511,15.78035 -15.78035,15.78035 -8.71525,0 -15.78035,-7.0651 -15.78035,-15.78035 0,-8.71524 7.0651,-15.78035 15.78035,-15.78035 8.71524,0 15.78035,7.06511 15.78035,15.78035 z"
               sodipodi:cx="141.48813"
               sodipodi:cy="204.21318"
               sodipodi:rx="15.780347"
               sodipodi:ry="15.780347" />
            <path
               style="fill:#ffffff;fill-opacity:1;stroke:none"
               d="m 113.23108,81.802122 a 14.120538,14.120538 0 0 0 -5.97947,1.345208 16.623201,16.623201 0 0 1 1.18904,-0.04246 16.623201,16.623201 0 0 1 16.62333,16.623325 16.623201,16.623201 0 0 1 -0.74111,4.906855 14.120538,14.120538 0 0 0 3.02879,-8.713714 14.120538,14.120538 0 0 0 -14.12058,-14.119207 z"
               id="path4178"
               inkscape:connector-curvature="0" />
            <path
               style="fill:#ffffff;fill-opacity:1;stroke:none"
               d="m 136.06928,48.633059 c -7.90025,-1.78e-4 -15.27943,2.223542 -21.55235,6.074453 5.26267,-2.359441 11.09084,-3.68148 17.23168,-3.681341 23.29328,2.8e-4 42.17649,18.881908 42.17678,42.175199 -0.40804,29.98572 -37.63054,50.94298 -29.70582,65.9979 4.60723,8.75256 3.43293,16.33661 0.82427,21.43597 4.30717,-3.58334 9.82242,-13.65457 3.22376,-26.19031 -7.75169,-14.72624 28.65781,-35.22556 29.05694,-64.556608 -2.9e-4,-22.784747 -18.47052,-41.254989 -41.25526,-41.255263 z"
               id="path4183"
               inkscape:connector-curvature="0"
               sodipodi:nodetypes="ccccscscc" />
            <path
               style="fill:#ffffff;fill-opacity:1;stroke:none"
               d="m 142.12061,190.35928 a 13.733432,13.733432 0 0 0 -4.50267,0.77612 15.470913,15.470913 0 0 1 14.99382,15.44621 15.470913,15.470913 0 0 1 -2.81186,8.88094 13.733432,13.733432 0 0 0 6.05492,-11.37047 13.733432,13.733432 0 0 0 -13.73421,-13.7328 z"
               id="circle4188"
               inkscape:connector-curvature="0" />
            <path
               style="fill:#f57900;fill-opacity:1;stroke:none"
               d="m 129.06803,197.72687 a 13.912598,13.912598 0 0 0 -1.87753,6.95311 13.912598,13.912598 0 0 0 13.91338,13.9134 13.912598,13.912598 0 0 0 8.17903,-2.67957 15.487467,15.487467 0 0 1 -5.17151,0.90654 15.487467,15.487467 0 0 1 -15.48733,-15.48731 15.487467,15.487467 0 0 1 0.44396,-3.60617 z"
               id="circle4195"
               inkscape:connector-curvature="0" />
            <g
               id="RightEye">
              <ellipse
                 d="m 126.12839,47.460037 c 0,9.364688 -5.01191,16.956267 -11.19442,16.956267 -6.18251,0 -11.19443,-7.591579 -11.19443,-16.956267 0,-9.364687 5.01192,-16.956266 11.19443,-16.956266 6.18251,0 11.19442,7.591579 11.19442,16.956266 z"
                 ry="16.956266"
                 rx="11.194427"
                 cy="47.460037"
                 cx="114.93397"
                 id="path4236"
                 style="fill:#ffffff;fill-opacity:1;stroke:#2e3436;stroke-width:1.75956011;stroke-linecap:round;stroke-linejoin:round;stroke-miterlimit:4;stroke-opacity:1;stroke-dasharray:none;stroke-dashoffset:0"
                 sodipodi:cx="114.93397"
                 sodipodi:cy="47.460037"
                 sodipodi:rx="11.194427"
                 sodipodi:ry="16.956266" />
              <path
                 id="path4240"
                 d="m 119.94614,41.761127 c 0,2.63666 -2.13744,4.774095 -4.7741,4.774095 -2.63666,0 -4.77409,-2.137435 -4.77409,-4.774095 0,-2.636659 2.13743,-4.774094 4.77409,-4.774094 2.63666,0 4.7741,2.137435 4.7741,4.774094 z"
                 style="fill:#000000;fill-opacity:1;stroke:none"
                 inkscape:connector-curvature="0">
                <animateTransform
                   type="translate"
                   fill="freeze"
                   dur="750ms"
                   begin="animatePigHeadUpDown.begin+2000ms"
                   attributeName="transform"
                   id="animateTransform3997"
                   repeatCount="1"
                   additiveH="sum"
                   values="0 0;0 20;0 0"
                   additive="sum" />
              </path>
            </g>
            <g
               id="LeftEye">
              <ellipse
                 d="m 161.10689,41.776085 c 0,9.364687 -5.01192,16.956266 -11.19443,16.956266 -6.18251,0 -11.19443,-7.591579 -11.19443,-16.956266 0,-9.364687 5.01192,-16.956267 11.19443,-16.956267 6.18251,0 11.19443,7.59158 11.19443,16.956267 z"
                 style="fill:#ffffff;fill-opacity:1;stroke:#2e3436;stroke-width:1.75956011;stroke-linecap:round;stroke-linejoin:round;stroke-miterlimit:4;stroke-opacity:1;stroke-dasharray:none;stroke-dashoffset:0"
                 id="ellipse4238"
                 cx="149.91246"
                 cy="41.776085"
                 rx="11.194427"
                 ry="16.956266"
                 sodipodi:cx="149.91246"
                 sodipodi:cy="41.776085"
                 sodipodi:rx="11.194427"
                 sodipodi:ry="16.956266" />
              <path
                 id="circle4242"
                 d="m 155.66953,35.258484 c 0,2.636659 -2.13744,4.774094 -4.7741,4.774094 -2.63666,0 -4.77409,-2.137435 -4.77409,-4.774094 0,-2.636659 2.13743,-4.774094 4.77409,-4.774094 2.63666,0 4.7741,2.137435 4.7741,4.774094 z"
                 style="fill:#000000;fill-opacity:1;stroke:none"
                 inkscape:connector-curvature="0">
                <animateTransform
                   additive="sum"
                   values="0 0;0 20;0 0"
                   additiveH="sum"
                   repeatCount="1"
                   id="animateTransform4000"
                   attributeName="transform"
                   begin="animatePigHeadUpDown.begin+2000ms"
                   dur="750ms"
                   fill="freeze"
                   type="translate" />
              </path>
            </g>
            <g
               id="RightEyeBrow">
              <path
                 id="ellipse4244"
                 d="m 106.96402,27.387194 c 3.5702,-4.750371 8.73138,-5.568815 12.87371,-2.041473"
                 style="fill:none;stroke:#2e3436;stroke-width:1.75956011;stroke-linecap:round;stroke-linejoin:round;stroke-miterlimit:4;stroke-opacity:1;stroke-dashoffset:0"
                 inkscape:connector-curvature="0" />
            </g>
            <g
               id="LeftEyeBrow">
              <path
                 id="path4246"
                 d="m 141.70971,22.168864 c 3.5702,-4.750372 8.73138,-5.568816 12.87371,-2.041474"
                 style="fill:none;stroke:#2e3436;stroke-width:1.75956011;stroke-linecap:round;stroke-linejoin:round;stroke-miterlimit:4;stroke-opacity:1;stroke-dashoffset:0"
                 inkscape:connector-curvature="0" />
            </g>
          </g>
        </g>
      </g>
    </g>
  </g>
</svg>
