<svg version="1.2" xmlns="http://www.w3.org/2000/svg" viewBox="0 0 626 987" width="626" height="987"><style>.a{fill:#ef9d56}.b{fill:#f09d56}.c{fill:#e18a3f}.d{fill:#4a3737}.e{fill:#d1d3eb}.f{fill:#b3b6db}.g{fill:#b4b7db}.h{fill:#823103}</style><path fill-rule="evenodd" class="a" d="m231 130c12.5 0 24.8 20.5 27.4 45.7 2.6 25.3-5.5 45.7-18 45.7-12.6 0-24.8-20.4-27.4-45.7-2.6-25.2 5.4-45.7 18-45.7zm184.1 45.7c-2.6 25.3-14.9 45.7-27.4 45.7-12.6 0-20.6-20.4-18-45.7 2.6-25.2 14.9-45.7 27.4-45.7 12.5 0 20.6 20.5 18 45.7z"/><path class="b" d="m39.3 546.6c0 0-17.5 47.8-30.3 82.8-8.3 22.5-4.3 47.6 10.5 66.5 9.6 12.3 23.1 20.9 38.3 24.4 36.9 8.6 104.3 24.2 104.3 24.2l24.8-67-71.9-31.3 21.3-60.3z"/><path class="c" d="m36.6 553.9l2.7-7.3 97 39.3-21.3 60.3 71.9 31.3-24.8 67-43.4-10c-2.6-99-55.3-157.3-82.1-180.6z"/><path class="b" d="m588.7 546.6c0 0 17.5 47.8 30.4 82.8 8.2 22.5 4.2 47.6-10.5 66.5-9.7 12.3-23.2 20.9-38.4 24.4-36.9 8.6-104.2 24.2-104.2 24.2l-24.9-67 72-31.3-21.4-60.3z"/><path class="c" d="m591.4 553.9l-2.7-7.3-97 39.3 21.4 60.3-72 31.3 24.9 67 43.3-10c2.6-99 55.4-157.3 82.1-180.6z"/><path class="d" d="m153.9 984.3l-12-104.3c-27.8-28.7-24.8-98.9 35.4-131.1 0.2-0.1 0.4 0 0.6 0l2.3-22.9h267.6l2.4 22.9c0.2 0 0.4-0.1 0.6 0 60.2 32.2 63.1 102.4 35.3 131.1l-12 104.3z"/><path class="e" d="m304.1 855.2c-73.3 0-136.6-51.4-151.8-123.1-14.6-69.5-30.1-142.6-30.1-142.6l-99.2-38.4 53.3-110.9c0 0 28.9-52.2 55.1-64 37.1-16.6 85.6-38.3 85.6-38.3l32.2-33.9h129.6l32.3 33.9c0 0 48.5 21.7 85.5 38.3 26.3 11.8 55.2 64 55.2 64l53.2 110.9-99.2 38.4-28.3 134.1c-16.3 77.5-83 131.6-162.2 131.6q-5.6 0-11.2 0z"/><path class="f" d="m122.2 589.5l-18.2-74.4-24.9 57.7z"/><path class="g" d="m506.2 589.5l18.2-74.4 24.9 57.7z"/><path class="a" d="m364.3 194.6h-100.6v109.4h100.6z"/><path class="a" d="m403.3 86.3h-178.6c0 0 0 67.7 0 127.4 0 49.4 40 89.3 89.3 89.3 49.3 0 89.3-39.9 89.3-89.3 0-59.7 0-127.4 0-127.4z"/><path class="h" d="m391.8 235.2l20.6-140.2c16.2-109.3-212.9-109.3-196.8 0l20.7 140.2c13.3 33.9 142.1 33.9 155.5 0z"/></svg>