<svg version="1.2" xmlns="http://www.w3.org/2000/svg" viewBox="0 0 474 474" width="474" height="474">
	<title>1387954956-svg</title>
	<defs>
		<linearGradient id="g1" x2="1" gradientUnits="userSpaceOnUse" gradientTransform="matrix(-680.391,-594.312,1166.918,-1335.933,520.2,481.293)">
			<stop offset="0" stop-color="#ffffff"/>
			<stop offset=".477" stop-color="#dcdbdc"/>
			<stop offset="1" stop-color="#999999"/>
		</linearGradient>
		<linearGradient id="g2" x2="1" gradientUnits="userSpaceOnUse" gradientTransform="matrix(330.246,546.215,-1269.922,767.805,209.827,115.878)">
			<stop offset="0" stop-color="#ffffff"/>
			<stop offset=".477" stop-color="#dcdbdc"/>
			<stop offset="1" stop-color="#d0d1d1"/>
		</linearGradient>
		<linearGradient id="g3" x2="1" gradientUnits="userSpaceOnUse" gradientTransform="matrix(-740.638,336.423,-392.615,-864.346,398.915,116.819)">
			<stop offset="0" stop-color="#ffffff"/>
			<stop offset=".477" stop-color="#dcdbdc"/>
			<stop offset="1" stop-color="#d0d1d1"/>
		</linearGradient>
		<linearGradient id="g4" x2="1" gradientUnits="userSpaceOnUse" gradientTransform="matrix(-165.327,537.797,-718.416,-220.852,186.717,68.445)">
			<stop offset="0" stop-color="#ffffff"/>
			<stop offset=".477" stop-color="#dcdbdc"/>
			<stop offset="1" stop-color="#d0d1d1"/>
		</linearGradient>
		<linearGradient id="g5" x2="1" gradientUnits="userSpaceOnUse" gradientTransform="matrix(803.733,-292.914,582.63,1598.693,-294.571,410.07)">
			<stop offset="0" stop-color="#ffffff"/>
			<stop offset=".477" stop-color="#dcdbdc"/>
			<stop offset="1" stop-color="#999999"/>
		</linearGradient>
		<linearGradient id="g6" x2="1" gradientUnits="userSpaceOnUse" gradientTransform="matrix(130.629,345.91,-241.052,91.031,16.664,-20.797)">
			<stop offset="0" stop-color="#ffffff"/>
			<stop offset=".477" stop-color="#dcdbdc"/>
			<stop offset="1" stop-color="#d0d1d1"/>
		</linearGradient>
		<linearGradient id="g7" x2="1" gradientUnits="userSpaceOnUse" gradientTransform="matrix(26.32,0,0,63.801,45.21,158.83)">
			<stop offset="0" stop-color="#ffffff"/>
			<stop offset=".477" stop-color="#dcdbdc"/>
			<stop offset="1" stop-color="#999999"/>
		</linearGradient>
		<linearGradient id="g8" x2="1" gradientUnits="userSpaceOnUse" gradientTransform="matrix(28.38,0,0,63.19,77.8,263.31)">
			<stop offset="0" stop-color="#ffffff"/>
			<stop offset=".477" stop-color="#dcdbdc"/>
			<stop offset="1" stop-color="#999999"/>
		</linearGradient>
		<linearGradient id="g9" x2="1" gradientUnits="userSpaceOnUse" gradientTransform="matrix(31.16,0,0,62.975,110.74,369.42)">
			<stop offset="0" stop-color="#ffffff"/>
			<stop offset=".477" stop-color="#dcdbdc"/>
			<stop offset="1" stop-color="#999999"/>
		</linearGradient>
		<linearGradient id="g10" x2="1" gradientUnits="userSpaceOnUse" gradientTransform="matrix(49.01,0,0,52.925,357.46,236.43)">
			<stop offset="0" stop-color="#ffffff"/>
			<stop offset=".477" stop-color="#dcdbdc"/>
			<stop offset="1" stop-color="#999999"/>
		</linearGradient>
		<linearGradient id="g11" x2="1" gradientUnits="userSpaceOnUse" gradientTransform="matrix(49,0,0,52.917,239.01,385.99)">
			<stop offset="0" stop-color="#ffffff"/>
			<stop offset=".477" stop-color="#dcdbdc"/>
			<stop offset="1" stop-color="#999999"/>
		</linearGradient>
		<linearGradient id="g12" x2="1" gradientUnits="userSpaceOnUse" gradientTransform="matrix(64.72,0,0,22.433,99.29,72.27)">
			<stop offset="0" stop-color="#ffffff"/>
			<stop offset=".477" stop-color="#dcdbdc"/>
			<stop offset="1" stop-color="#999999"/>
		</linearGradient>
		<linearGradient id="g13" x2="1" gradientUnits="userSpaceOnUse" gradientTransform="matrix(64.23,0,0,23.518,333.94,114.87)">
			<stop offset="0" stop-color="#ffffff"/>
			<stop offset=".477" stop-color="#dcdbdc"/>
			<stop offset="1" stop-color="#999999"/>
		</linearGradient>
		<linearGradient id="g14" x2="1" gradientUnits="userSpaceOnUse" gradientTransform="matrix(64.23,0,0,23.518,268.94,130.87)">
			<stop offset="0" stop-color="#ffffff"/>
			<stop offset=".477" stop-color="#dcdbdc"/>
			<stop offset="1" stop-color="#999999"/>
		</linearGradient>
		<linearGradient id="g15" x2="1" gradientUnits="userSpaceOnUse" gradientTransform="matrix(62.7,0,0,22.106,232.65,42.67)">
			<stop offset="0" stop-color="#ffffff"/>
			<stop offset=".477" stop-color="#dcdbdc"/>
			<stop offset="1" stop-color="#999999"/>
		</linearGradient>
		<linearGradient id="g16" x2="1" gradientUnits="userSpaceOnUse" gradientTransform="matrix(62.7,0,0,22.106,168.65,56.67)">
			<stop offset="0" stop-color="#ffffff"/>
			<stop offset=".477" stop-color="#dcdbdc"/>
			<stop offset="1" stop-color="#999999"/>
		</linearGradient>
		<linearGradient id="g17" x2="1" gradientUnits="userSpaceOnUse" gradientTransform="matrix(543.621,0,0,138.841,-59.739,169.561)">
			<stop offset="0" stop-color="#ffffff"/>
			<stop offset=".477" stop-color="#dcdbdc"/>
			<stop offset="1" stop-color="#999999"/>
		</linearGradient>
		<linearGradient id="g18" x2="1" gradientUnits="userSpaceOnUse" gradientTransform="matrix(543.621,0,0,138.841,-59.739,169.561)">
			<stop offset="0" stop-color="#ffffff"/>
			<stop offset=".477" stop-color="#dcdbdc"/>
			<stop offset="1" stop-color="#999999"/>
		</linearGradient>
		<linearGradient id="g19" x2="1" gradientUnits="userSpaceOnUse" gradientTransform="matrix(66.09,0,0,23.846,201.08,148.2)">
			<stop offset="0" stop-color="#ffffff"/>
			<stop offset=".477" stop-color="#dcdbdc"/>
			<stop offset="1" stop-color="#999999"/>
		</linearGradient>
		<linearGradient id="g20" x2="1" gradientUnits="userSpaceOnUse" gradientTransform="matrix(40.42,0,0,18.941,108,69.53)">
			<stop offset="0" stop-color="#ffffff"/>
			<stop offset=".477" stop-color="#dcdbdc"/>
			<stop offset="1" stop-color="#999999"/>
		</linearGradient>
	</defs>
	<style>
		.s0 { fill: #ffffff;stroke: #000000;stroke-miterlimit:10;stroke-width: 1.5 } 
		.s1 { opacity: .9;fill: url(#g1) } 
		.s2 { fill: url(#g2) } 
		.s3 { fill: url(#g3) } 
		.s4 { fill: url(#g4) } 
		.s5 { opacity: .6;fill: url(#g5) } 
		.s6 { fill: url(#g6) } 
		.s7 { fill: #000000 } 
		.s8 { fill: url(#g7) } 
		.s9 { fill: url(#g8) } 
		.s10 { fill: url(#g9) } 
		.s11 { fill: url(#g10) } 
		.s12 { fill: url(#g11) } 
		.s13 { fill: url(#g12) } 
		.s14 { fill: url(#g13) } 
		.s15 { fill: url(#g14) } 
		.s16 { fill: url(#g15) } 
		.s17 { fill: url(#g16) } 
		.s18 { fill: url(#g17) } 
		.s19 { fill: url(#g18) } 
		.s20 { fill: url(#g19) } 
		.s21 { fill: url(#g20) } 
	</style>
	<g id="Layer">
		<g id="Layer">
			<g id="Layer">
				<g id="Layer">
					<g id="Layer">
						<g id="Layer">
							<path id="Layer" class="s0" d="m404.7 353.7c13.3-37.2 27.6-78.2 38.9-115.9 7.2-24.2 13.6-48 19.5-72.3 1-4.3 6.2-25.7-1.3-35.3-13.4-23.9-170.7-120.3-189.9-120.3-19.5-5.6-107 5.6-167.8 18.5-33.3 7.1-58.6 14.7-60.2 20.2 0 0 0 0.1-0.1 0.2-5.7 4.6-8.9 10-10.7 14.6-11.9 12.3-30.5 213.2-23.3 239.1 3.8 19.9 143.3 163.5 160 165.5 2.4 0.9 4.7 1.3 6.7 1.4 0.1 0 0.2 0 0.3 0q0.9 0.3 2.4 0.1 0.3 0.1 0.7-0.1c0.3 0 0.5 0 0.7 0 0.3 0 0.5-0.1 0.8-0.1q0.1 0 0.3 0c35.5-5.9 186-60.9 207.7-85.3 6.7-6.6 12.3-21.8 15.3-30.3z"/>
							<path id="Layer" class="s1" d="m451.9 140.1l0.4-0.1c1.1-0.3 1.9-0.5 2.6-0.7l0.7-0.2q0.3-0.1 0.6-0.2l0.3-0.1c0 0 0.2 0 0.2 0-0.6 0.2-1 0.4-1.6 0.7 3.7 0 6.1 1.1 7.7 3.1 2.3 2.7 2.8 6.4 2.6 10.2-0.2 4.5-1.4 9.1-2.3 12.7-5.9 24.3-12.3 48.1-19.5 72.3-11.3 37.7-25.6 78.7-38.9 115.9-3 8.5-8.6 23.7-15.3 30.3-21.6 24.4-172.2 79.4-207.6 85.3h-0.1q-0.2 0-0.3 0c-0.3 0.1-0.5 0.1-0.7 0.1-0.3 0-0.5 0-0.8 0.1q-0.4 0.1-0.7 0c-0.7 0-1.5 0-2.4-0.1-0.1 0-0.2 0-0.3 0-0.4-0.1-0.8-0.2-1-0.4-0.8-0.9-0.9-2.7-0.9-6.5l-0.1-0.1 0.6-3c0.1-0.3 0.1-0.6 0.2-1l0.7-3.6 0.5-2.8 0.1-0.2c0.1-0.5 0.2-1.1 0.3-1.7l0.4-1.8 0.7-3.9 0.8-4.3 1.9-9.8v-0.1c0-0.1 0.1-0.2 0.1-0.3 1.6-7 40-169.6 44.7-186.1 4.9-16.9 17.5-35.3 50-46.8 12.9-4.6 156-50.5 169.2-54.8 0.1 0 0.4-0.1 0.5-0.2h0.3l6.4-1.9z"/>
							<path id="Layer" class="s2" d="m439 143.8c0.3-0.1 0.6-0.2 0.8-0.2l4.9-1.4c-13.2 4.3-156.3 50.2-169.2 54.8-32.5 11.5-45.1 29.9-50 46.8-4.7 16.5-43.1 179.1-44.7 186.1l4.4-23.2 1.3-6.7 0.2-1.6 2.7-13.5c0.9-4.6 1.8-9.3 2.7-14l2-10.2 1.1-5.8 4.8-24.7c1.4-7.2 2.8-14.2 4.1-21l3.4-17.1 0.1-0.6 1.4-7.3 0.5-2.5 2.8-14.9 0.5-2 0.6-3.2 0.8-4 0.9-4.6 0.5-2.8 0.5-2.7 0.3-1.3 0.6-3q0.2-1 0.3-1.6l0.1-0.7c0.1-0.2 0.1-0.3 0.1-0.5l0.2-1.1c-0.2 1.8-0.4 3.6-0.6 5.6 1.5-12.9 7.4-25.3 17-34.1 10.9-9.9 22-13.5 35.3-19.2l67.5-19c5.6-1.6 11.3-3.2 17-4.8 3.2-0.9 6.5-1.8 9.7-2.7 2.6-0.8 5.1-1.5 7.5-2.2l8.6-2.4c1.5-0.4 2.9-0.8 4.3-1.2l8.4-2.4 7.7-2.1c1.4-0.5 2.9-0.9 4.3-1.2l7.1-2.1c1.1-0.3 2.1-0.5 3.1-0.8l11.8-3.4 7.3-2 0.2-0.1 5.1-1.4z"/>
							<path id="Layer" class="s3" d="m217.1 244.9c0.2-2 0.4-3.8 0.6-5.6 1.2-11.4-0.1-20.7-3.3-29-5.9-15.4-18.3-26.9-32.8-40.3 30.3 21 51.3 28.1 87.8 21.6-13.3 5.7-24.4 9.3-35.3 19.2-9.6 8.8-15.5 21.3-17 34.1z"/>
							<path id="Layer" class="s4" d="m203.3 208.9c-10.4-19.6-24.6-32.3-24.6-32.3-13.2-12.8-32.4-30.2-49.6-45.3l0.1-0.1c-4.7-4.1-9.2-8.1-13.3-11.7-0.6-0.5-1-0.9-1.5-1.3-3.8-3.2-7.2-6.3-10.3-8.9-0.3-0.3-0.6-0.6-0.9-0.9q-2.5-2.1-4.6-3.9-1-0.9-1.8-1.6c-3-2.5-4.9-4.2-5.6-4.8q1 0.8 2 1.6c1.8 1.4 3.7 2.9 5.6 4.4l5.8 4.7c1.2 0.9 2.5 1.9 3.7 2.9l8.5 6.8c0.4 0.2 0.8 0.6 1.1 0.8l10.5 8.4c0.8 0.6 1.5 1.2 2.3 1.8l16 12.8c5.5 4.4 10.6 8.5 15.2 12.1 2.9 2.3 5.6 4.5 8 6.4l3.3 2.6c5.2 4.2 8.4 6.6 8.4 6.6 14.5 13.4 26.9 24.9 32.8 40.3 3.2 8.3 4.5 17.6 3.3 29l-0.2 1.1c0 0.2 0 0.3-0.1 0.6l-0.1 0.6q-0.1 0.6-0.3 1.6l-0.6 3-0.3 1.3-0.5 2.7-0.5 2.8-0.9 4.6-0.8 4-0.6 3.2-0.3-0.1c1.8-7.8 2.1-15.4 1.4-22.6-0.1-0.3-0.1-0.5-0.1-0.7-1.3-12-5.5-23-10.4-32.4z"/>
							<path id="Layer" class="s5" d="m178.7 176.6c0 0 14.2 12.7 24.6 32.3 5 9.5 9.1 20.5 10.5 32.5 0 0.2 0 0.4 0.1 0.6 0.7 7.3 0.4 14.9-1.4 22.7l0.3 0.1-0.5 2-2.8 14.9-0.5 2.5-1.4 7.3-0.1 0.6c-1.1 5.5-2.2 11.2-3.4 17.1-1.3 6.9-2.7 13.8-4.1 21l-4.8 24.7-1.1 5.8-2 10.2c-0.9 4.7-1.8 9.4-2.7 14l-2.7 13.5-0.2 1.6-1.3 6.7c-1.6 8.4-3.2 16.3-4.4 23.2 0 0.1-0.1 0.2-0.1 0.2v0.2c-0.8 3.5-1.3 6.8-1.9 9.8l-0.8 4.3-0.7 3.9-0.4 1.8c-0.1 0.6-0.2 1.2-0.3 1.7l-0.1 0.2-0.5 2.7-0.7 3.7c-0.1 0.3-0.1 0.7-0.2 0.9l-0.6 3.1 0.1 0.1c-1.3 2.8-2.8 4.9-3.8 5.4-0.2 0.1-0.7 0.1-1 0-16.7-1.9-156.2-145.5-160-165.5-7.2-25.8 11.4-226.7 23.3-239 0.4-0.4 0.8-0.6 1.2-0.6 4.3-0.4 18.3 7.5 36.8 19.8q-3-2.6-5.8-5.2l2.3 1.8c0.4 0.3 0.8 0.6 1.2 1 0.7 0.5 1.3 1 2.1 1.6 1 0.9 2.2 1.8 3.5 2.8 1.6 1.3 3.3 2.7 5.3 4.2 2 1.6 4.2 3.4 6.5 5.2 0.8 0.6 1.6 1.3 2.4 2q1.2 0.9 2.3 1.8c0.1 0.1 0.2 0.1 0.3 0.2q0 0 0 0c0.7 0.6 2.6 2.3 5.6 4.8q0.8 0.8 1.8 1.6 2.1 1.8 4.6 4c0.3 0.3 0.6 0.6 0.9 0.9 3.1 2.6 6.5 5.6 10.3 8.9 0.5 0.4 0.9 0.8 1.5 1.3 4.1 3.6 8.6 7.6 13.3 11.7h-0.1c17.1 15.1 36.4 32.5 49.6 45.3z"/>
							<path id="Layer" class="s6" d="m65.3 77.4q2.8 2.6 5.8 5.2c-18.5-12.3-32.5-20.1-36.8-19.7-0.4-0.1-0.8 0.1-1.2 0.5 1.8-4.6 5-10 10.8-14.6-3 2.1 3.3 12.3 20.8 28v0.1q0.1 0 0.1 0.1l0.5 0.4z"/>
						</g>
					</g>
					<g id="Layer">
						<path id="Layer" class="s7" d="m106.2 73.1c2.8 2.1 6.2 3.9 9.9 5.4 3.7 1.5 7.7 2.8 11.9 3.6 4.1 0.8 8.3 1.3 12.4 1.4 4.1 0.1 7.9-0.3 11.4-1.1 3.5-0.8 6.3-2 8.2-3.5 2-1.4 3.2-3.1 3.6-5 0.5-1.9 0.1-3.9-1-6q-1.8-3.1-5.9-6.2c-2.8-2.1-6.2-3.9-9.8-5.4-3.7-1.4-7.7-2.6-11.8-3.5-4-0.8-8.2-1.3-12.2-1.3-4-0.1-7.9 0.2-11.3 1h-0.1c-3.5 0.8-6.2 1.9-8.2 3.3-2 1.5-3.3 3.2-3.8 5-0.5 1.9-0.2 3.9 0.9 6 1.1 2.1 3 4.2 5.8 6.3z"/>
						<path id="Layer" class="s7" d="m379.8 98.9c-3.8-1.5-7.8-2.7-11.9-3.5-4-0.9-8.1-1.3-12.1-1.4-3.9-0.1-7.6 0.3-10.9 1.1-3.4 0.8-5.9 2-7.7 3.5-1.9 1.4-2.9 3.2-3.2 5.1q-0.4 2.9 1.6 6.1c1.3 2.1 3.4 4.3 6.3 6.4 3 2.1 6.5 4 10.2 5.5 3.8 1.5 7.9 2.8 12 3.6 4.2 0.8 8.4 1.3 12.3 1.3 4 0.1 7.8-0.3 11.1-1.1 3.3-0.9 5.9-2.1 7.6-3.6 1.8-1.5 2.8-3.3 3-5.2 0.3-1.9-0.3-4-1.7-6.1-1.3-2.1-3.5-4.2-6.4-6.3l-0.1-0.1c-2.9-2-6.4-3.8-10.1-5.3z"/>
						<path id="Layer copy" class="s7" d="m314.8 114.9c-3.8-1.5-7.8-2.7-11.9-3.5-4-0.9-8.1-1.3-12.1-1.4-3.9-0.1-7.6 0.3-10.9 1.1-3.4 0.8-5.9 2-7.7 3.5-1.9 1.4-2.9 3.2-3.2 5.1q-0.4 2.9 1.6 6.1c1.3 2.1 3.4 4.3 6.3 6.4 3 2.1 6.5 4 10.2 5.5 3.8 1.5 7.9 2.8 12 3.6 4.2 0.8 8.4 1.3 12.3 1.3 4 0.1 7.8-0.3 11.1-1.1 3.3-0.9 5.9-2.1 7.6-3.6 1.8-1.5 2.8-3.3 3-5.2 0.3-1.9-0.3-4-1.7-6.1-1.3-2.1-3.5-4.2-6.4-6.3l-0.1-0.1c-2.9-2-6.4-3.8-10.1-5.3z"/>
						<path id="Layer" class="s7" d="m243.9 23.9c-3.3 0.7-5.9 1.8-7.8 3.1-1.8 1.4-3 3.1-3.3 4.8-0.4 1.8 0 3.8 1.2 5.8 1.2 2 3.2 4.1 6 6.1 2.8 2 6.1 3.7 9.8 5.2 3.6 1.5 7.6 2.6 11.6 3.5 4 0.8 8.1 1.3 12 1.3 4 0.1 7.7-0.2 11-1 3.3-0.8 5.9-1.9 7.7-3.3 1.8-1.4 2.9-3 3.2-4.8 0.3-1.8-0.2-3.8-1.4-5.8-1.3-2-3.3-4-6.1-6-2.8-2-6.1-3.7-9.7-5.2-3.6-1.4-7.5-2.5-11.5-3.3-4-0.9-8-1.3-11.9-1.4-3.8-0.1-7.5 0.2-10.8 1z"/>
						<path id="Layer copy 2" class="s7" d="m179.9 37.9c-3.3 0.7-5.9 1.8-7.8 3.1-1.8 1.4-3 3.1-3.3 4.8-0.4 1.8 0 3.8 1.2 5.8 1.2 2 3.2 4.1 6 6.1 2.8 2 6.1 3.7 9.8 5.2 3.6 1.5 7.6 2.6 11.6 3.5 4 0.8 8.1 1.3 12 1.3 4 0.1 7.7-0.2 11-1 3.3-0.8 5.9-1.9 7.7-3.3 1.8-1.4 2.9-3 3.2-4.8 0.3-1.8-0.2-3.8-1.4-5.8-1.3-2-3.3-4-6.1-6-2.8-2-6.1-3.7-9.7-5.2-3.6-1.4-7.5-2.5-11.5-3.3-4-0.9-8-1.3-11.9-1.4-3.8-0.1-7.5 0.2-10.8 1z"/>
						<path id="Layer" class="s7" d="m255.5 158.9c3.5-0.9 6.2-2.2 8.2-3.8 1.9-1.5 3-3.4 3.4-5.4 0.3-2-0.2-4.1-1.4-6.3-1.3-2.2-3.4-4.5-6.4-6.6-2.9-2.2-6.4-4.1-10.2-5.6-3.8-1.6-7.9-2.8-12.1-3.7-4.1-0.8-8.4-1.3-12.5-1.3-4.1-0.1-8 0.3-11.5 1.1-3.5 0.9-6.2 2.2-8.2 3.7-2 1.5-3.2 3.3-3.6 5.3-0.4 2 0 4.2 1.3 6.4 1.2 2.2 3.3 4.5 6.2 6.7 2.9 2.2 6.4 4.1 10.3 5.7 3.8 1.5 8 2.8 12.2 3.7 4.3 0.8 8.6 1.3 12.7 1.3 4.2 0 8.1-0.4 11.6-1.3z"/>
					</g>
					<g id="Layer">
						<path id="Layer" class="s7" d="m59.5 187.2c2.6 2 5.3 3.1 7.9 3.4 2.6 0.3 5.2-0.2 7.5-1.4 2.3-1.2 4.5-3.2 6.2-5.9 1.8-2.7 3.2-6.1 4-10.1 0.9-4 1.2-8.2 0.9-12.5-0.3-4.2-1.1-8.5-2.3-12.4-1.3-3.9-3-7.6-5.2-10.8-2-3.1-4.5-5.8-7.3-7.6-2.7-1.9-5.5-2.8-8.1-3-2.7 0-5.2 0.7-7.5 2.1-2.2 1.4-4.2 3.5-5.8 6.3-1.7 2.8-2.9 6.2-3.7 10.1-0.7 3.9-0.9 8-0.6 12 0.3 4 1.1 8 2.3 11.8 1.2 3.8 2.8 7.3 4.7 10.4 2 3 4.3 5.6 7 7.6z"/>
						<path id="Layer" class="s7" d="m112.8 244.3c-2.2-3.4-4.7-6.3-7.6-8.5-2.9-2.2-5.7-3.4-8.5-3.9-2.8-0.4-5.5-0.1-7.8 1-2.4 1.1-4.6 2.9-6.3 5.4-1.7 2.5-3.1 5.6-3.9 9.4-0.8 3.7-1.1 7.6-0.8 11.6 0.3 3.9 1 7.9 2.3 11.8 1.2 3.8 2.8 7.4 4.8 10.7 2.1 3.2 4.5 6.1 7.2 8.4 2.8 2.2 5.6 3.7 8.3 4.3 2.8 0.7 5.5 0.5 7.9-0.4 2.5-0.9 4.7-2.5 6.6-4.9 1.9-2.4 3.4-5.5 4.3-9.3 1-3.8 1.3-7.9 1.1-12.1-0.2-4.1-1-8.3-2.3-12.4-1.3-4-3.1-7.8-5.3-11.1z"/>
						<path id="Layer" class="s7" d="m155.3 376.6c-0.2-4-1-8.2-2.3-12.3-1.3-4.1-3.1-8.1-5.4-11.6-2.2-3.5-4.9-6.7-7.9-9.2-3-2.5-6-4.1-8.9-4.9-2.9-0.9-5.7-0.9-8.2-0.1-2.5 0.7-4.8 2.2-6.6 4.4-1.8 2.2-3.3 5.1-4.2 8.6-0.9 3.5-1.2 7.3-1 11.2 0.3 3.9 1 7.9 2.2 11.7 1.3 3.9 3 7.7 5.1 11.1 2.1 3.4 4.6 6.6 7.4 9.1 2.9 2.6 5.8 4.4 8.7 5.4 2.9 0.9 5.7 1.2 8.3 0.6 2.6-0.5 4.9-1.9 6.9-3.9 2-2.1 3.7-4.9 4.7-8.4 1.1-3.6 1.4-7.6 1.2-11.7z"/>
					</g>
					<path id="Layer" class="s7" d="m391.2 257.9c3.6-2.2 7.1-5.1 10.2-8.4 3.1-3.4 5.9-7.2 8.1-11.3 2.3-4.1 4.1-8.5 5.3-13 1.2-4.6 1.5-8.8 1.2-12.7-0.3-3.9-1.3-7.3-2.9-10.2-1.7-2.8-4-5.1-6.8-6.6-2.9-1.4-6.3-2.1-10.2-1.8-4 0.4-8.1 1.8-12 3.9-3.9 2.2-7.8 5.2-11.2 8.8-3.5 3.6-6.6 7.7-9.1 12.3-2.5 4.5-4.3 9.4-5.4 14.3-1.1 4.9-1.2 9.4-0.5 13.4 0.6 3.9 2 7.2 3.9 9.8 2 2.6 4.6 4.5 7.7 5.6 3.1 1 6.6 1.2 10.4 0.5l0.1-0.1c3.8-0.7 7.6-2.2 11.2-4.5z"/>
					<path id="Layer" class="s7" d="m272.8 407.5c3.6-2.3 7-5.1 10.1-8.5 3.1-3.3 5.9-7.1 8.2-11.2 2.3-4.1 4.1-8.5 5.2-13 1.2-4.6 1.6-8.9 1.3-12.7-0.3-3.9-1.3-7.4-3-10.2-1.6-2.9-3.9-5.1-6.8-6.6-2.9-1.5-6.3-2.2-10.2-1.8-4 0.3-8 1.7-11.9 3.9-4 2.1-7.8 5.1-11.3 8.7-3.4 3.6-6.5 7.8-9 12.3-2.5 4.6-4.4 9.4-5.4 14.4-1.1 4.9-1.2 9.4-0.6 13.3 0.6 3.9 2 7.3 4 9.9 2 2.6 4.6 4.5 7.7 5.5 3 1 6.5 1.2 10.4 0.5 3.8-0.7 7.6-2.3 11.2-4.5z"/>
				</g>
				<g id="Layer">
					<g id="Layer" style="opacity: .3">
						<path id="Layer" class="s8" d="m63.2 187c-2.6-2-5-4.6-6.9-7.7-2-3-3.6-6.5-4.8-10.3-1.2-3.8-1.9-7.8-2.2-11.8-0.3-4 0.7-8.1 0.7-12 1-4 1.9-7.4 3.6-10.1 1.6-2.8 3.6-4.9 5.8-6.3q2-1.3 4.3-1.8-0.3 0-0.6-0.1c-2.7 0-5.2 0.7-7.5 2.1-2.2 1.4-4.3 3.5-5.9 6.3-1.6 2.8-2.7 6.2-3.7 10.1-1 3.9-0.9 8-0.6 12 0.3 4 1.1 8 2.3 11.8 1.2 3.8 2.9 7.3 4.8 10.4 2 3 4.3 5.7 6.9 7.6 2.7 2 5.4 3.1 8 3.4q2.1 0.3 4.1-0.2-0.2 0-0.4 0c-2.6-0.3-5.3-1.4-7.9-3.4z"/>
					</g>
					<g id="Layer" style="opacity: .3">
						<path id="Layer" class="s9" d="m96.9 290.2c-2.8-2.3-5.2-5.2-7.2-8.4-2.1-3.3-3.7-6.9-4.9-10.7-1.3-3.9-2-7.9-2.3-11.8-0.2-4 0-7.9 0.8-11.6 0.9-3.8 2.2-6.9 3.9-9.4 1.8-2.5 3.9-4.3 6.3-5.4q1.5-0.7 3.2-1 0 0 0 0c-2.8-0.4-5.5-0.1-7.8 1-2.4 1.1-4.6 2.9-6.3 5.4-1.7 2.5-3.1 5.6-3.9 9.4-0.8 3.7-1.1 7.6-0.8 11.6 0.2 3.9 1 7.9 2.3 11.8 1.2 3.8 2.8 7.4 4.8 10.7 2.1 3.2 4.5 6.1 7.2 8.4 2.8 2.2 5.6 3.7 8.3 4.3q3 0.7 5.7 0.2-0.5-0.1-1-0.2c-2.8-0.6-5.6-2.1-8.3-4.3z"/>
						<path id="Layer" class="s10" d="m130.1 394.6c-2.8-2.5-5.3-5.7-7.4-9.1-2.1-3.4-3.8-7.2-5-11.1-1.3-3.8-2-7.8-2.3-11.7-0.2-3.9 0.1-7.7 1-11.2 0.9-3.5 2.4-6.4 4.2-8.6 1.9-2.2 4.1-3.7 6.6-4.4q0.8-0.2 1.6-0.4-3.3-0.5-6.2 0.4c-2.5 0.7-4.8 2.2-6.6 4.4-1.8 2.2-3.3 5.1-4.2 8.6-0.9 3.5-1.2 7.3-1 11.2 0.3 3.9 1 7.9 2.2 11.7 1.3 3.9 3 7.7 5.1 11.1 2.1 3.4 4.6 6.6 7.4 9.1 2.9 2.6 5.8 4.4 8.7 5.4 2.7 0.9 5.3 1.1 7.7 0.7q-1.5-0.2-3.1-0.7c-2.8-1-5.8-2.8-8.7-5.4z"/>
					</g>
					<g id="Layer" style="opacity: .3">
						<path id="Layer" class="s11" d="m394.1 254.1c-3.7 2.2-7.5 3.8-11.3 4.5-3.9 0.8-7.4 0.6-10.4-0.5-3.1-1-5.7-2.9-7.7-5.5-2-2.6-3.4-6-4-9.9-0.6-3.9-0.5-8.4 0.6-13.3 1-5 2.9-9.8 5.4-14.3 1-1.8 2-3.5 3.2-5.1-2.3 2.7-4.3 5.7-6.1 8.9-2.5 4.5-4.3 9.4-5.4 14.3-1.1 4.9-1.2 9.4-0.5 13.4 0.6 3.9 2 7.2 3.9 9.8 2 2.6 4.6 4.5 7.7 5.5 3.1 1.1 6.6 1.3 10.4 0.6l0.1-0.1c3.8-0.7 7.6-2.3 11.2-4.5 3.6-2.2 7.1-5.1 10.2-8.4 1.8-2 3.5-4.2 5.1-6.4q-1.1 1.3-2.3 2.5c-3.1 3.4-6.5 6.3-10.1 8.5z"/>
						<path id="Layer" class="s12" d="m275.6 403.7c-3.6 2.2-7.4 3.8-11.2 4.5h-0.1c-3.8 0.7-7.3 0.5-10.4-0.5-3-1.1-5.6-2.9-7.6-5.5-2-2.7-3.4-6-4-9.9-0.7-3.9-0.6-8.5 0.5-13.4 1.1-4.9 2.9-9.7 5.4-14.3 1-1.7 2.1-3.4 3.2-5.1-2.2 2.8-4.3 5.8-6 8.9-2.5 4.6-4.4 9.4-5.4 14.4-1.1 4.9-1.2 9.4-0.6 13.3 0.6 3.9 2 7.3 4 9.9 2 2.6 4.6 4.5 7.7 5.5 3 1 6.5 1.2 10.4 0.5 3.8-0.7 7.6-2.3 11.3-4.5 3.6-2.3 7-5.1 10.1-8.5 1.8-1.9 3.5-4.1 5.1-6.3q-1.1 1.3-2.2 2.5c-3.1 3.3-6.6 6.2-10.2 8.4z"/>
					</g>
					<g id="Layer" style="opacity: .3">
						<path id="Layer" class="s13" d="m164 70.7c-1 1.9-1.8 3.6-3.8 5.1-2 1.4-4.8 2.5-8.3 3.3-3.5 0.8-7.4 0.9-11.5 0.9-4.1 0-8.3-0.4-12.4-1.2-4.2-0.9-8.2-2-11.9-3.5-3.7-1.5-7.1-3.3-9.9-5.4-2.7-2.1-4.7-4.2-5.8-6.3q-0.7-1.3-0.9-2.5c-0.5 1.8-0.1 3.7 0.9 5.7 1.1 2.1 3.1 4.2 5.8 6.3 2.8 2.1 6.2 3.9 9.9 5.4 3.7 1.5 7.7 2.8 11.9 3.6 4.1 0.8 8.3 1.3 12.4 1.4 4.1 0.1 7.9-0.3 11.4-1.1 3.5-0.8 6.3-2 8.2-3.5 2-1.4 3.4-3.1 3.8-5 0.3-1 0.2-2.1 0.2-3.2q0 0 0 0z"/>
						<path id="Layer" class="s14" d="m395.1 118.7c-1.7 1.5-4.3 2.8-7.6 3.6-3.3 0.8-7.1 1.2-11.1 1.1-3.9 0-8.1-0.5-12.3-1.3-4.1-0.8-8.2-2.1-12-3.6-3.7-1.5-7.2-3.4-10.2-5.5-2.9-2.1-5-4.3-6.3-6.4q-1.1-1.8-1.5-3.5 0 0.3-0.1 0.6-0.4 2.9 1.6 6.1c1.3 2.1 3.4 4.3 6.3 6.4 3 2.1 6.5 4 10.2 5.5 3.8 1.5 7.9 2.7 12 3.6 4.2 0.8 8.4 1.3 12.3 1.3 4 0.1 7.8-0.3 11.1-1.1 3.3-0.9 5.9-2.1 7.6-3.6 1.8-1.5 2.8-3.3 3-5.2q0.2-1.2-0.1-2.4-0.6 2.5-2.9 4.4z"/>
						<path id="Layer copy 4" class="s15" d="m330.1 134.7c-1.7 1.5-4.3 2.8-7.6 3.6-3.3 0.8-7.1 1.2-11.1 1.1-3.9 0-8.1-0.5-12.3-1.3-4.1-0.8-8.2-2.1-12-3.6-3.7-1.5-7.2-3.4-10.2-5.5-2.9-2.1-5-4.3-6.3-6.4q-1.1-1.8-1.5-3.5 0 0.3-0.1 0.6-0.4 2.9 1.6 6.1c1.3 2.1 3.4 4.3 6.3 6.4 3 2.1 6.5 4 10.2 5.5 3.8 1.5 7.9 2.7 12 3.6 4.2 0.8 8.4 1.3 12.3 1.3 4 0.1 7.8-0.3 11.1-1.1 3.3-0.9 5.9-2.1 7.6-3.6 1.8-1.5 2.8-3.3 3-5.2q0.2-1.2-0.1-2.4-0.6 2.5-2.9 4.4z"/>
						<path id="Layer" class="s16" d="m292.1 46.2c-1.8 1.4-4.4 2.6-7.7 3.3-3.3 0.8-7.1 1.1-11 1-3.9 0-8-0.5-12-1.3-4-0.8-8-2-11.6-3.5-3.7-1.4-7-3.2-9.8-5.2-2.8-2-4.8-4.1-6-6.1q-0.8-1.4-1.2-2.8 0 0.1 0 0.3c-0.4 1.7 0 3.7 1.2 5.7 1.2 2 3.2 4.1 6 6.1 2.8 2 6.1 3.7 9.8 5.2 3.6 1.5 7.6 2.7 11.6 3.5 4 0.8 8.1 1.3 12 1.3 3.9 0.1 7.7-0.2 11-1 3.3-0.8 5.8-1.9 7.7-3.3 1.8-1.4 2.9-3 3.2-4.8q0.2-1.4-0.1-2.8c-0.4 1.7-1.4 3.2-3.1 4.4z"/>
						<path id="Layer copy 3" class="s17" d="m228.1 60.2c-1.8 1.4-4.4 2.6-7.7 3.3-3.3 0.8-7.1 1.1-11 1-3.9 0-8-0.5-12-1.3-4-0.8-8-2-11.6-3.5-3.7-1.4-7-3.2-9.8-5.2-2.8-2-4.8-4.1-6-6.1q-0.8-1.4-1.2-2.8 0 0.1 0 0.3c-0.4 1.7 0 3.7 1.2 5.7 1.2 2 3.2 4.1 6 6.1 2.8 2 6.1 3.7 9.8 5.2 3.6 1.5 7.6 2.7 11.6 3.5 4 0.8 8.1 1.3 12 1.3 3.9 0.1 7.7-0.2 11-1 3.3-0.8 5.9-1.9 7.7-3.3 1.8-1.4 2.9-3 3.2-4.8q0.2-1.4-0.1-2.8c-0.4 1.7-1.4 3.2-3.1 4.4z"/>
						<path id="Shape 1" class="s18" d="m483.9 100.1l-543.7 138.9m543.7-138.9l-543.7 138.9m543.7-138.9l-543.7 138.9"/>
						<path id="Shape 1 copy" class="s19" d="m483.9 100.1l-543.7 138.9m543.7-138.9l-543.7 138.9m543.7-138.9l-543.7 138.9"/>
						<path id="Layer" class="s20" d="m263.7 151.9c-2 1.6-4.7 2.9-8.2 3.8-3.5 0.9-7.4 1.3-11.6 1.2-4.1 0-8.4-0.5-12.7-1.3-4.2-0.9-8.4-2.1-12.2-3.7-3.9-1.6-7.4-3.5-10.3-5.7-2.9-2.2-5-4.5-6.2-6.7q-1-1.6-1.3-3.2 0 0 0 0c-0.4 2 0 4.2 1.3 6.4 1.2 2.2 3.3 4.5 6.2 6.7 2.9 2.2 6.4 4.1 10.3 5.6 3.8 1.6 8 2.9 12.2 3.8 4.3 0.8 8.6 1.3 12.7 1.3 4.2 0 8.1-0.3 11.6-1.2 3.5-0.9 6.2-2.2 8.2-3.8 1.9-1.5 3-3.4 3.4-5.4q0.2-1.4-0.1-2.9c-0.4 1.9-1.5 3.7-3.3 5.2z"/>
						<path id="Layer" class="s21" d="m114.2 68.9c2.8 2.1 6.2 4 9.9 5.5 3.7 1.5 7.7 2.5 11.9 3.4 4.1 0.8 8.3 1.2 12.4 1.2-4 0-8.3-0.4-12.4-1.2-4.1-0.9-8.2-2-11.9-3.5-3.7-1.5-7.1-3.3-9.9-5.4-2.7-2.1-4.4-4.2-5.5-6.3q-0.7-1.3-0.7-2.5 0 1.2 0.7 2.5c1.1 2.1 2.8 4.3 5.5 6.3z"/>
					</g>
				</g>
			</g>
		</g>
	</g>
</svg>