<svg version="1.2" xmlns="http://www.w3.org/2000/svg" viewBox="0 0 477 366" width="477" height="366"><defs><linearGradient id="P" gradientUnits="userSpaceOnUse"/><radialGradient id="g1" cx="0" cy="0" r="1" href="#P" gradientTransform="matrix(70.91,68.735,-68.735,70.91,88.574,78.506)"><stop/><stop offset="1" stop-color="#9c9fac"/></radialGradient><radialGradient id="g2" cx="0" cy="0" r="1" href="#P" gradientTransform="matrix(70.91,68.735,-68.735,70.91,65.174,134.706)"><stop/><stop offset="1" stop-color="#9c9fac"/></radialGradient></defs><style>.a{fill:#5e76be;stroke:#000}.b{fill:none;stroke:#000}.c{fill:#aaa5e5;stroke:#000}.d{fill:#acab9c;stroke:#000}.e{fill:#fdfcf4;stroke:#000}.f{fill:#efb3bb;stroke:#000}.g{fill:#bfc5b4;stroke:#000}.h{fill:#fff;stroke:#000}.i{fill:#f4f5fd;stroke:#000}.j{fill:#8c93e5;stroke:#000}.k{fill:none;stroke:#000;stroke-dasharray:3.99999808,7.99999616}.l{fill:#5e76be}.m{fill:url(#g1);stroke:#000}.n{fill:#9c9fac;stroke:#000}.o{fill:url(#g2);stroke:#000}.p{fill:#aaa5e5;stroke:#000;stroke-width:.5}.q{fill:#5e76be;stroke:#000;stroke-width:.5}.r{fill:#f4f5fd;stroke:#000;stroke-width:.5}</style><path fill-rule="evenodd" class="a" d="m23.8 218.2c0.8-0.7 0-2.6 0.1-3.7 0-1.8 2.4-4.1 2.5-6.3 0.3-4.8 2.2-9.8 4.1-12.3 2.6-3.4 15.3-2.8 21.5 4 12.6 5.7 23.6 7.9 36.9 11.6 17.8 5 33.7 14.1 50.3 22.3 20.5 7.3 40.9 15.7 58.2 28.9 13.9 2.8 20.3-12.9 35.3-7.1 15.2 2.7 30.5 5.1 46 3.7 49.2 0 102.8-8.4 150.1-20.7 16.5-6 31-20.9 42.6-34 7.8 18.9 7.2 49.1-11.1 61.9-15.5 11.5-34 18.5-52 24.9-27.2 6.4-54.9 9.9-82.5 14.3-32.5 4.1-66.7 5.3-97.6-7.4-41.3-12.6-79.6-35.4-123.2-39.5-24.5-7.4-54.1-7.3-72.3-27.8-3.2-4.1-7.5-7.8-8.9-12.8z"/><path fill-rule="evenodd" class="b" d="m204.5 266.1l15-10.2 6.6-1.7c0 0 24.8 6.9 27.7 7.2 2.9 0.3 22.3-1.3 22.3-1.3l9.5 0.7c0 0 32.3-0.8 35.6-2 3.4-1.2 47.7-6.1 47.7-6.1l59.5-14.2 20.9-9.2 17.8-15.7 4.2-9.3-12.2-19.8-8-6c0 0-20.1-6.5-23.3-8.9-3.2-2.4-17.2-10.4-17.2-10.4l-7.5-3.2-12.8-9.6-4.6-2.2-5.5-8.4-5.5-3.7c0 0-4.2-0.8-7-1.4-2.8-0.6-8.2-7.5-8.2-7.5l-2.2-2.2-7.8-17.4-5.1-1.9-4.2 3-10.9-6.6 2.8-5.4-12.1-10.4-7.5 2.5-8.2-7.4 3.2-3-12.7-10.7-4.9 2.2-5.3-5.4-5.3-5.2 6.2-5.4-12.6-13.6-13.6-10.2-11.8-8.3-9.1 1.2-4.9 0.7-4.9 0.7-14.1-9.4-6.5-5.5-16.1-3.4-15.2-1.4-6.9 0.5-11.2 2.3-12.8 6.2c0 0-7.7 4.2-10.1 7.2-1.8 2.2-9.4 10.2-9.4 10.2l-9.5 18.4-2.4 13.1 0.3 12.1-6.7 8.1-9.3 9.8-4.1 6.3-13 4-10.1 4.3-13.3 1.8-6.3 0.2-10.2-11.4-1-6.9c0 0-1.6-6.2-2-9-0.4-2.8-1.2-9.1-1.6-11.9-0.4-2.8-1.5-10.5-1.5-10.5l0.8-9 6.5-2.3 14.1-3.8c0 0 1.9-0.1 6.7-1.5 4.8-1.4 13.8-4.2 20.1-5.1 6.3-0.9 7.7-1.1 7.7-1.1l10.2 2 8.1 1.8 8.5 9.5-8.5-9.5-17.9-3.5-8.1 1.2-9.6 1.2-21.9 7.1-15.9 3.7-0.8 9.7-3.9 17.3-6.6 24.4-0.5 21.5 3.1 21.6 0.6 14.9 4.1 38.5 11.6 6.3 20.4 8.3 8.6 4.1 20.5 4c0 0 0.8 1 26.8 8.4 2.7 0.8 17 9.3 17 9.3l23.6 6.9z"/><path fill-rule="evenodd" class="a" d="m114.8 71.2l-0.9-12.6 1.4-6.4 2.4-8.7 9-17.2 3.4-2.6c0 0 6.4-7.5 8.3-8.8 1.8-1.3 3.8-3 6.1-4.4 2.4-1.3 3-1.9 3-1.9l12.8-5.7 16.1-2.4 6.6 0.3c0 0 3.8 0.5 6.2 1.1 2.4 0.6 2.7 0.3 5.7 0.8 12.6 2.2 12.9 2 13.5 2.4 2 1.6 3.8 4.4 6.2 6.6 2.3 2.2 12.6 8.3 12.6 8.3l31.9 27 9.3-6.6 4.8-4 11.8 13.3-9.4 10.6 8.9 9.8 9.9-5.9c0 0 14 11 14 10.9-0.6-0.9-14.3 7.2-14.3 7.2l11.9 10.6 7.4-8.2 6.3-2.9c4.3 4.2 8.6 7.4 12.5 11.2l-3.9 3.1 10 7.4c0 0 3.6-0.3 5.7-1.7 1.2-0.8 5.9 2.5 5.9 2.5l7.3 16.3 2.4 3.2 8 6.9 1.5-0.3 6 1.4 2.8 0.6 5.2 8.4-0.1 6.5-10 4-1 7.2-5.3 5.2-4 3.6c0 0-8.1 6.7-10.6 7.1-2.5 0.3-2 0.2-5.9 0.8-4 0.6-8.9 1.3-8.9 1.3l-6.4 1.5-7.4 6.5c0 0-1.1 3.2-6.9 2.4-8.9-1.2-8.8-1.7-8.8-1.7l-3-3.6 4-7.2 3.8-5 1.2-2.7-10.6-7.1-3.2-1c0 0-6.9-2.3-7 0.2-0.2 2.5-3 5.5-3 5.5l-4.3 3.3-5 0.7-9.3-2.2-4.8-5.3 1.8-4.8 3.3-5.5c0 0-0.8-1.9 3.1-3 3.9-1 2.6-1.4 2.6-1.4l2.5-1.3-6-1.9-7.9-4c0 0-0.1-0.7-2.9 0.7-2.8 1.4-3 0.4-5.8 1.8-2.8 1.4-6.6 3.9-6.6 3.9l-4.6 3.2-4.3 0.6-3.4-2.5-6.9-5c0 0 1.9-3.2 3.1-5.9 1.1-2.7 3.7-5.5 6-7.3 2.3-1.8-2.6-2.1-0.1-1 1.8 0.9-3.5-1.2-3.5-1.2l-8-2.9c0 0-0.5-0.5-3.5-0.5-3.1-0.1-2.6 3.3-4.5 4.1-1.9 0.8-5.6 2.8-5.6 2.8 0 0-3.3 2-5.8 1.8-2.6-0.1-5.9-2.1-5.9-2.1l-3.8-5.6 0.2-5.5 6-4.4 3.6-2.5 3.2-2.5-7.7-0.9-5-1.6-2.9-1.1-5.2-1.5-7 0.5-2.9 4.4-5 4.3-5.9 0.8-3.1-4.1-2.1-5.8-1.9-5.2 2.3-4.9 3.1-4.5 3-3.7 2-2.7 1.5-2.4-8.6-4.4-7.6-4-8.1-3.4c0 0-6.2-1.1-8.2-1.4-2.1-0.2-12.7-0.7-12.7-0.7l-11.6 3.2z"/><path fill-rule="evenodd" class="c" d="m323.4 185l7.8-7.2 8.4-6.7 6.8-5c0 0 13-9.9 14.9-10.6 1.9-0.8 12.2-5.1 12.2-5.1 0 0 0.4-0.1 2.4-0.8 1.4-0.4 3.2-1.2 4.1-1.4 2.1-0.5 3.1-0.7 3.1-0.7l-0.1-7.7-5.1-7.1-2.1-0.7-3.1-0.8-3.5-0.6-2.8 2-4.7 2.6-3.3 1.5-5.2 2.8-15.4 8.7-21.7 13.6-2.6 4.7-4.6 6.9-4.1 8.2 2.8 3.6 14.7 2.5z"/><path fill-rule="evenodd" class="c" d="m298.7 158.3c0 0 3.4-6.2 3.5-7.6 0.2-1.5 4.5-8.8 4.5-8.8l6.1-9.6 8.2-10.4 6.1-6.6 8.7-8.3 2.7-2.4 6.1-3.3c2.4 0.4 0 0 2.8 0.8l2.3 1.6 8.5 9.7c0 0 0.4 0.4-0.6 2.7-2.6 5.5-1.9 3.9-0.5 6l0.3-0.4-1.7-1.2-0.9-0.7-5.8 1.8-8.4 10.7-6.2 8.9-11.8 16.4-6.7 4-2.3 3.9-9.7-5.4z"/><path fill-rule="evenodd" class="c" d="m266.2 159.7l2-6.8 4-5.5 6-3.2 2.2-1.8 13.4-7.5c6.3-3 4 0 8.4-2l13.6-5.6 0.8 0.2-2.7 3.1-6.6 10.3-5.5 10.5-4.1 3.3-4.1 3c0 0-3.6 6.3-9.3 9.2-2.5 1.3-2.2 1.6-9.9 0.4l-4.1-2.7z"/><path fill-rule="evenodd" class="c" d="m335.8 138.7l12.6-2.8 17.4-3.7 2.4-1.3-2.1-1.3-10.7-10.5-6.3 2.4-2.8 2.7c-3.4 4.7-2.6 3.2-10.5 14.5z"/><path fill-rule="evenodd" class="c" d="m279.6 144.6l6.8-3.5 11-5.8 6.4-3.5 2.4-6.3 5.3-10.4 5-7.2c4.5-4.3 4.2-4 6.2-5.9l2.8-1.9 3.1-2.7 2-1.8 1.1-3.2c0 0-0.6-2-3.7-4.5-2.7-2.2-4.4-3.3-4.4-3.3l-4-3.3-6.6 3.7-7 7.2-9.5 9.7-5.8 10.4c0 0-3.3 7.3-5 9.5-1.7 2.3-6.2 9.4-6.2 9.4l-3.7 8.2-1.2 3.6z"/><path fill-rule="evenodd" class="c" d="m226.7 144.3c4.6 2.7 9 5.4 15.9 7.3l5.2-2.8 9.8-5.3 9.2-4.5 11.4-5.4 8.4-13.2 3.6-7.8-30.8 5.7-12 2.9-4.8 5.4-10.9 8.4z"/><path fill-rule="evenodd" class="c" d="m307 124l8.9-3.6 7.1-1.2 5.8-6 5.6-5.4 4.5-3.5c-2.7-0.2-16.9 2.2-22.8 3.6l-3.6 5.9z"/><path fill-rule="evenodd" class="c" d="m240.7 120.1l1.3-1.7 7.2-11.3 9.5-12.7 8.7-9.8 7.6-7.1 7.7-6.1 6.8-4.7c0 0 1.7-0.8 3.8-2.1 2.1-1.3 1.7-1.4 1.7-1.4l6.9 6 3.5 3.4 2.3 2.5-1.7 2.6-12.7 4.8-8.1 10.4-10.1 13.1-6.7 10.7-3.2 0.7-17.6 6.8-5.7 2.8-5.4-1z"/><path fill-rule="evenodd" class="c" d="m213.8 131.5l8.3-5.3 1.4-3.2 4.9-4.7c0 0 7-3.5 9-3.8 2-0.3 7.9-1.1 7.9-1.1l3-4.2 4.1-5.9 5.1-7.4 3.6-4.4-3.7 0.6-14 3-13.8 3.3-10.1 4.9-8.8 5.2-1.6-0.1-9.3 9.1c0 5.3 0.5 7.2-0.1 5.6 0.7 1.2-0.3 2.4 0.1 2.4 0.6 1.5 2.5 2 3.9 3.8l5.2 2.2z"/><path fill-rule="evenodd" class="c" d="m278.2 101.8c5.9-7 2.7-3.7 6.4-7.9l3.3-4.6 9.1 1.5 8.3 1.8-2.8 3-2 2.5-2.5 3.4-3.6 4.8-4.9 0.7-15.6 1.3c0.6-0.8 2.3-3.5 4.3-6.5z"/><path fill-rule="evenodd" class="c" d="m210.6 108.6l7.9-12.3 8.3-12.5 7-9.3 10.2-12.1 7.9-8.2 6.3-5.9 7.7-6.1 3.8-3.1 3.4-2.7 12.3 13.6-5.7 5.8-4 4.2-11.9 10.7-5 5.5-5.3 5.6-6.5 7.5-4.2 5.9-12.9 3.6-10.2 4.4z"/><path fill-rule="evenodd" class="c" d="m163.7 98.9l-0.8-2.2 6.3 15.2 8 1.1 4.8-4.4 3.1-4.5 13.2-11 8.2-6.2 7.8-5.6 9-4.3 9.9-1.6 4.8-5.8 14-15.8-10.3-0.1-8.9 1.2-11.4 1.6-7.9 1.1-11 4.1-12.2 10.3-13.8 8.2-3.7 5.3-3.3 4.1-3.1 4.4z"/><path fill-rule="evenodd" class="c" d="m259.1 75.9c-0.2 0.1 0.1-0.1 7.7 2.1l5.5 1.6c0 0 2.8-2.4 4.5-3.9 1.4-1.3 4.9-3.6 4.9-3.6l2.3-2c-0.5-1.4-0.2-1-2.5-3.3l-4.5-4.9c0 0-1.2-1.9-1.6-1.6-0.9 0.8-1.3 1.1-1.3 1.1l-6.5 5.8-4.7 4.4z"/><path fill-rule="evenodd" class="d" d="m137.3 233.8l25.4 8.2-15.1-16.1-10.2-11.4c0 0-2.7-3.9-5.3-7.1-2.6-3.2-5.4-7.8-5.4-7.8l-3.3-8.1-1.4-10.5 3.6-9.8 12.3-13.9c0 0 6.5-9.5 9.2-10.6 2.7-1.1 12.4-13.2 12.4-13.2l7.6-11.8 2.3-9.5-4.3-13.6-7.4-3.4-11.2-8.4-9.3-5.1-10.2-1.4-11.3 6.5-8 8.4-14.8 11.3-23 19.2-29.1 22.5-2.8-11.6c-1.9-3.5 0.5 7.5-8.7-8.9l-4.3-8.7 3.5 24.5 0.3 10.3 3.6 40.5 17.7 9 15.5 5.6 9.1 4.1 19.8 4 27.4 9z"/><path fill-rule="evenodd" class="e" d="m205.8 265.8c3.6-2.1 8.7-6.8 13.8-9.3l7-2.5 11.6 3.2 9.3-12.5 14.8-20.7 11.5-14.8 12.9-16-19.6-13.3-16.6-10.3-19.9-12.4-16.4-8.8-22.5-12.9-24.4-13.3-7 11.1-10.2 11.3-3.4 2.8-9.4 10.9c0 0-8.8 10.6-10.6 12.3-1.8 1.8-4 9.4-4 9.4l1.7 11.4 3.3 9.4 12.3 15.4 13.5 15.3 9.7 10 13 8 14.5 7.8z"/><path fill-rule="evenodd" class="f" d="m230.4 200.4c4.6-0.3 9.3-2.2 13.8-0.6 2 2.3 3 5.7 3.3 8.8-2 4.4-6.9 6.9-10.7 9.7-5.9 3.8-12.8 5.6-19.8 6.2-4.2 1.2-9 0.4-12-3-3.5-2.8-6.7-5.9-9-9.8-2.5-5.2-8.6-1.5-13-1.5-6.7 0.8-13.3 2.2-19.9 2.9-4.8-1.2-10.3-2.7-12.9-7.2-3.6-3.6-3.6-9.1-4.2-13.8-0.7-5.3 2.8-9.8 5.9-13.6 5-3.9 9.8-8.3 15.6-11.1 5.2-1.7 10.7-1.6 16.1-1.9 4.8 1.7 10.7 1.6 14.7 4.7 5.4 5.5 11.4 10.5 15.4 17.1 3.3 4.7 6.8 9.2 10.9 13.2q2.9 0 5.8-0.1z"/><path fill-rule="evenodd" class="g" d="m191.7 201.9c-7.3 0.5-14.6 1.5-21.9 1.6-4.6-0.8-8.4-3.8-11.4-7-1.5-4.1 0.2-8.5 3.4-11.2 3.8-3.9 9.4-6.3 14.8-5.8 4.5 1.4 7 5.7 10.4 8.7 4.3 4.4 7.2 9.9 10.6 15 1.8 3.1 3.5 6.1 6.1 8.6 3 3.6 7.1 7.4 12.2 6.6 7.2-0.1 14.6-1.6 20.6-5.7 3.3-0.9 8.2-6.2 2.7-7.6-4.9-0.4-9.4 3-14.3 1.7-4.7-1-6.7-5.8-9.1-9.4-2.8-4.6-6.9-8.2-10.1-12.5-5.2-6.5-12.2-12.6-20.9-13.4-4.2-0.4-8.3 1-12.6 1.1-3.6 0.4-6.6 2.6-9.7 4.4-3.3 2.3-5.7 5.5-8.4 8.4-2.4 3-2.6 7.1-1.6 10.6 0 3.9 2.1 7.4 5.5 9.2 5.5 3.1 12.1 1.2 18 0.7 6-0.8 12.1-1.9 17.9-3.5-0.7-0.3-1.5-0.3-2.2-0.5z"/><path fill-rule="evenodd" class="h" d="m187.2 196.4c-5.3 0.6-10.6 2.1-15.9 1.8-2.7-0.3-5.3-1.4-7.8-2.3-2-0.9-2.6-3.7-1.1-5.3 2-2.5 4.8-4.8 8.1-5.4 2-0.5 4-1.7 6-1 2.2 1.2 4.6 2.3 6 4.4 1.7 2.5 3 5.3 4.7 7.8z"/><path fill-rule="evenodd" class="c" d="m237.7 256.5l48.8-63.8 13.9 5.5 16.1 5.1 19.1-2.7 20.1-10.2 14-10 19.3-10.1 11.7-7.7 3.3-5.8 12.9 5.7 12.5 8.3 22.5 7.2 7.6 6.1 4 5.2 3.1 4.9 5.7 9.8-0.3 4.4-3.2 4.9-19.6 16.4-19.3 8.8c0 0-60 15.6-63.3 16.1-3.2 0.5-53.8 5.7-50.1 5.2 4.6-0.6-29.9 1.5-29.9 1.5l-7.5 0.3h-23.6l-8.4-1.6z"/><path fill-rule="evenodd" class="i" d="m149.4 24.9l18.5-12 9.4-4.7 9.6-3.4 5.2-2.4 9.6 1.3 6.6 1.4 6.4 6.3 13 8.6 20.1 17.1-18 5.9c0 0-14.2 4-16.6 5.7-2.4 1.7-18.1 10-18.1 10l-18-13.6-9.8-8z"/><path fill-rule="evenodd" class="a" d="m25 113.1l0.2-15.7 1.2-4.9 3-11.3 3.8-14.3 2.5-10.1 3.4 22.3 1.1 7.2 1.4 7.6 10.1 11.4-9.8 9.3-6.6 4.9c-3.6-2.2-6-3.5-10.3-6.4z"/><path fill-rule="evenodd" class="e" d="m104.4 82.1l10.4 5.1-7.1 8-19.6 15.6-47.8 38.1-15.7-30.4 0.4-5.9 9.7 6.7 17.5-14.1 19-2.9 9.4-3.7 17.7-9.6z"/><path fill-rule="evenodd" class="j" d="m104.2 82.2l10.1-10.7 16.3-5.1 21.2 1.7 24 12.5-4.1 6-7 12.2 0.2-0.3 4.1 13-2.4 11 64.7 36.7 41.8 26.1 12.1 8.2 0.5-0.2 19.5 7.1 10.5 3.8 18.4-3.9 20-9.4 16.5-11.4 18.5-9.7 10.4-7.2 3.3-6.6-13.4-10.9-3.9-0.9-2.5-4.3 0.2 7.3-1.5 0.4-1.7 0.6-6.9 2.5-0.8 7.7-18.7 15.4-19.4 3.3-3.2 0.9-7.7 6.5-1.1 2.3-0.3 1-14.4-2.7-2.4-3.9 7.9-15.9c0 0-8.8-5.3-10.8-6.5-2.1-1.1-4.5-1.2-4.5-1.2l-4.2 0.2-3.7 4.6-4.9 3.7c0 0-2.9 1.9-6.2 1.4-3.4-0.4-8.5-3.3-7.9-2.9l-2.6-3.8 1.1-6.3 3.3-5 6.7-4.5-12-6.4-19.9 10.3-11.4 0.7-5.9-4.6 1.5-9.4 10.6-8.7-13.5-4.1-5.1 0.2-1.2 3.2-9 5.3-7.5-1.2-2.1-1.1-3.6-3.7-0.2-7.8 9.6-9.4-6.3-1.2-10.5-3.5-7.5 0.6-4.7 4.9-5.2 3.8-6-0.8c-2.2-4-3.3-11.3-5.3-13.4l-10.8-6.2c-3.3-2.5-10-6.9-10.4-7.3l-6-3.4-10.4-1.2-11.8 6.8z"/><path fill-rule="evenodd" class="f" d="m32.8 211.2l13.4 8.9 14.9 7.9 27.6 7.2 51.7 13.7 38.3 11.5 13.1 5.1 10.1 3.2-8 11.7-23.7-8.7-18.2-5-19.7-7.1-43.9-9.9c0 0-23.4-5.2-27.3-6.8-6.8-2.8-16.8-7.8-16.8-7.8l-11.3-8.5-7.3-9.4z"/><path fill-rule="evenodd" class="j" d="m226.7 19.6l21.3-2.1 25 18.7 12.3 13.5-4.4 5.4 9.1 10.8 4.5-3.1 11.1 9.8 2.3 2.1-2 3 7.2 7.5-8 7.3-11.2-10.3 12.2-4.6 1.9-2.7-3.4-3.2-4.7-4.1-5.2-4.8-9.8 7.1-9.3-9.8 5-5 5.2-5.4-12.8-13.4-13.6 11z"/><path class="b" d="m204.3 265.4l-13.1 19.7"/><path fill-rule="evenodd" class="k" d="m308.7 201.4l-3.8 9.7 0.9 6.7 8.1 0.8 20.1-2.4 36.5-4.4 18.9-5c0 0 16.7-3.2 18.2-4.2 1.4-1 12.5-4.6 12.5-4.6l13.6-5.9 11.9-8.9 0.5-5.2-0.2-1.6 9 4.3 2 5.8c0 0-8.2 4.7-9.6 5.7-1.5 1-12.6 7.4-12.6 7.4 0 0-10.3 6.2-12.1 7.3-1.9 1.1-17.7 4.9-21.5 6.2-3.8 1.4-14.1 4.8-18 5.4-4 0.5-27 4.2-27 4.2l-27 4.6-18.1 1.4c0 0-6.8-2.7-8.5-3.6-1.8-1-5.6-5.7-5.6-5.7l-1.5-4.5 1.1-9.4 3.1-6 0.7-1.3z"/><path class="l" d="m378.8 187.8c0.1 0.3 0 0.7-0.3 0.9-0.3 0.3-0.7 0.5-1.1 0.6-0.4 0-0.8 0-1.2-0.2-0.3-0.2-0.5-0.5-0.6-0.8 0-0.4 0.1-0.7 0.4-1 0.2-0.3 0.6-0.4 1.1-0.5 0.4-0.1 0.8 0 1.2 0.2 0.3 0.2 0.5 0.5 0.5 0.8z"/><path class="l" d="m399.9 174.7c0 0.4-0.1 0.7-0.4 1-0.3 0.3-0.7 0.4-1.1 0.5-0.4 0.1-0.8 0-1.2-0.2-0.3-0.2-0.5-0.5-0.6-0.8 0-0.3 0.1-0.7 0.4-1 0.3-0.2 0.6-0.4 1.1-0.5 0.4 0 0.8 0 1.2 0.2 0.3 0.2 0.5 0.5 0.6 0.8z"/><path class="l" d="m411.2 167.3c0 0.4-0.1 0.7-0.4 1-0.2 0.2-0.6 0.4-1.1 0.5-0.4 0.1-0.8 0-1.1-0.2-0.4-0.2-0.6-0.5-0.6-0.8-0.1-0.3 0-0.7 0.3-1 0.3-0.2 0.7-0.4 1.1-0.5 0.4 0 0.8 0 1.2 0.2 0.3 0.2 0.5 0.5 0.6 0.8z"/><path class="l" d="m386.3 194.8c0 0.4-0.1 0.7-0.4 1-0.2 0.2-0.6 0.4-1.1 0.5-0.4 0.1-0.8 0-1.1-0.2-0.4-0.2-0.6-0.5-0.6-0.8-0.1-0.3 0-0.7 0.3-1 0.3-0.2 0.7-0.4 1.1-0.5 0.4 0 0.9 0 1.2 0.2 0.3 0.2 0.5 0.5 0.6 0.8z"/><path class="l" d="m398.7 188c0 0.4-0.1 0.7-0.3 1-0.3 0.2-0.7 0.4-1.1 0.5-0.5 0.1-0.9 0-1.2-0.2-0.4-0.2-0.6-0.5-0.6-0.8-0.1-0.3 0.1-0.7 0.3-1 0.3-0.2 0.7-0.4 1.1-0.5 0.4 0 0.9 0 1.2 0.2 0.3 0.2 0.6 0.5 0.6 0.8z"/><path class="l" d="m389.8 180.7c0.1 0.3 0 0.7-0.3 0.9-0.3 0.3-0.7 0.5-1.1 0.6-0.4 0-0.9-0.1-1.2-0.2q-0.5-0.3-0.6-0.9c0-0.3 0.1-0.6 0.4-0.9 0.2-0.3 0.6-0.5 1.1-0.5 0.4-0.1 0.8 0 1.1 0.2 0.4 0.2 0.6 0.5 0.6 0.8z"/><path class="l" d="m418.9 173.6c0 0.3-0.1 0.6-0.4 0.9-0.2 0.3-0.6 0.5-1.1 0.5-0.4 0.1-0.8 0-1.1-0.2-0.4-0.2-0.6-0.5-0.6-0.8-0.1-0.3 0-0.7 0.3-0.9 0.3-0.3 0.7-0.5 1.1-0.5 0.4-0.1 0.8 0 1.2 0.2 0.3 0.1 0.5 0.4 0.6 0.8z"/><path class="l" d="m415.7 187.1c0.1 0.4 0 0.7-0.3 1-0.3 0.3-0.7 0.4-1.1 0.5-0.4 0.1-0.8 0-1.2-0.2-0.3-0.2-0.5-0.5-0.6-0.8 0-0.3 0.1-0.7 0.4-1 0.2-0.2 0.6-0.4 1.1-0.5 0.4 0 0.8 0 1.1 0.2 0.4 0.2 0.6 0.5 0.6 0.8z"/><path class="l" d="m404.9 194.2c0 0.4-0.1 0.7-0.4 1-0.2 0.2-0.6 0.4-1.1 0.5-0.4 0-0.8 0-1.1-0.2-0.4-0.2-0.6-0.5-0.6-0.8-0.1-0.4 0-0.7 0.3-1 0.3-0.2 0.7-0.4 1.1-0.5 0.4 0 0.8 0 1.2 0.2 0.3 0.2 0.5 0.5 0.6 0.8z"/><path class="l" d="m408.2 181.6c0 0.4-0.1 0.7-0.4 1-0.3 0.3-0.7 0.4-1.1 0.5-0.4 0.1-0.8 0-1.2-0.2-0.3-0.2-0.5-0.5-0.6-0.8 0-0.3 0.1-0.7 0.4-0.9 0.2-0.3 0.6-0.5 1.1-0.6 0.4 0 0.8 0 1.2 0.2 0.3 0.2 0.5 0.5 0.6 0.8z"/><path fill-rule="evenodd" class="m" d="m51.8 105.2l-10.5-11.6-6-36.3 0.9-11.2 22.3-6 15.3-5.1 16.7-2.3 18.7 3.1 7.8 8.1-3.6 14.1 1.3 13-11 11.6-5.3 6-17.6 9.9-9.4 3.7z"/><path fill-rule="evenodd" class="a" d="m0.5 274.4c0.8-0.7 0-2.6 0-3.7 0.1-1.8 2.5-4.1 2.6-6.3 0.3-4.8 2.2-9.9 4.1-12.4 2.5-3.4 15.3-2.8 21.4 4.1 12.7 5.6 23.7 7.9 37 11.6 17.8 5 33.6 14.1 50.3 22.3 20.5 7.2 40.8 15.7 58.2 28.9 13.8 2.8 20.3-13 35.3-7.1 15.2 2.7 30.5 5.1 46 3.7 49.1 0 102.7-8.4 150.1-20.7 16.5-6 30.9-20.9 42.6-34 7.8 18.9 7.2 49.1-11.2 61.8-15.5 11.6-33.9 18.5-51.9 25-27.2 6.4-55 9.9-82.5 14.2-32.5 4.2-66.8 5.4-97.7-7.3-41.2-12.6-79.6-35.4-123.1-39.5-24.5-7.4-54.2-7.3-72.4-27.8-3.1-4.1-7.4-7.8-8.8-12.8z"/><path fill-rule="evenodd" class="b" d="m181.2 322.3l15-10.2 6.6-1.7c0 0 24.8 6.8 27.7 7.1 2.9 0.4 22.2-1.2 22.2-1.2l9.5 0.7c0 0 32.3-0.9 35.7-2.1 3.4-1.2 47.6-6 47.6-6l59.6-14.2 20.8-9.2 17.8-15.7 4.2-9.3-12.2-19.9-7.9-6c0 0-20.2-6.4-23.4-8.8-3.2-2.4-17.1-10.4-17.1-10.4l-7.6-3.2-12.7-9.6-4.6-2.2-5.5-8.5-5.5-3.6c0 0-4.2-0.9-7-1.4-2.8-0.6-8.3-7.5-8.3-7.5l-2.1-2.2-7.9-17.4-5.1-1.9-4.2 3-10.8-6.6 2.8-5.4-12.1-10.4-7.5 2.5-8.2-7.4 3.1-3-12.6-10.7-4.9 2.2-5.3-5.4-5.3-5.2 6.2-5.4-12.6-13.7-13.6-10.2-11.8-8.3-9.1 1.3-4.9 0.7-4.9 0.7-14.2-9.4-6.4-5.5-16.2-3.4-15.1-1.4-6.9 0.5-11.3 2.3-12.7 6.2c0 0-7.7 4.2-10.1 7.2-1.8 2.2-9.4 10.1-9.4 10.1l-9.5 18.5-2.5 13.1 0.3 12.1-6.7 8.1-9.3 9.8-4.1 6.3-12.9 4-10.1 4.2-13.3 1.9-6.4 0.2-10.1-11.4-1-7c0 0-1.6-6.1-2-8.9-0.4-2.8-1.3-9.1-1.7-11.9-0.4-2.8-1.4-10.5-1.4-10.5l0.8-9 6.4-2.3 14.1-3.8c0 0 2-0.2 6.8-1.6 4.8-1.3 13.8-4.2 20.1-5 6.2-0.9 7.6-1.1 7.6-1.1l10.3 2 8.1 1.8 8.4 9.5-8.4-9.5-18-3.5-8.1 1.1-9.5 1.2-22 7.2-15.8 3.6-0.8 9.8-4 17.3-6.5 24.4-0.5 21.4 3 21.7 0.7 14.8 4 38.6 11.7 6.2 20.4 8.4 8.6 4.1 20.5 3.9c0 0 0.7 1.1 26.8 8.5 2.7 0.8 16.9 9.3 16.9 9.3l23.6 6.8z"/><path fill-rule="evenodd" class="n" d="m91.5 127.4l-0.9-12.6 1.3-6.4 2.4-8.8 9-17.1 3.4-2.6c0 0 6.5-7.5 8.3-8.8 1.9-1.3 3.9-3 6.2-4.4 2.3-1.3 2.9-1.9 2.9-1.9l12.9-5.7 16-2.4 6.7 0.3c0 0 3.8 0.5 6.2 1.1 2.4 0.6 2.7 0.2 5.6 0.8 12.6 2.2 13 1.9 13.5 2.4 2.1 1.6 3.9 4.4 6.2 6.6 2.4 2.2 12.6 8.3 12.6 8.3l31.9 27 9.4-6.6 4.7-4 11.9 13.3-9.5 10.6 9 9.8 9.8-5.9c0 0 14.1 11 14 10.9-0.5-0.9-14.2 7.2-14.2 7.2l11.8 10.6 7.4-8.2 6.4-2.9c4.2 4.2 8.5 7.4 12.5 11.2l-4 3.1 10.1 7.4c0 0 3.6-0.3 5.7-1.7 1.2-0.8 5.9 2.5 5.9 2.5l7.3 16.3 2.4 3.2 7.9 6.9 1.6-0.3 6 1.4 2.8 0.6 5.2 8.4-0.1 6.5-10 4-1 7.1-5.3 5.3-4.1 3.6c0 0-8.1 6.7-10.5 7-2.5 0.4-2 0.3-6 0.9-3.9 0.5-8.9 1.2-8.9 1.2l-6.4 1.6-7.3 6.5c0 0-1.1 3.2-6.9 2.4-8.9-1.2-8.8-1.8-8.8-1.8l-3.1-3.6 4.1-7.1 3.8-5 1.1-2.7-10.6-7.1-3.1-1.1c0 0-6.9-2.3-7 0.3-0.2 2.5-3.1 5.4-3.1 5.4l-4.3 3.4-4.9 0.7-9.4-2.2-4.8-5.4 1.9-4.7 3.2-5.5c0 0-0.7-1.9 3.1-3 3.9-1 2.6-1.4 2.6-1.4l2.6-1.3-6.1-1.9-7.8-4c0 0-0.1-0.7-3 0.7-2.8 1.4-2.9 0.4-5.7 1.8-2.9 1.4-6.6 3.9-6.6 3.9l-4.7 3.2-4.3 0.6-3.4-2.5-6.9-5c0 0 2-3.2 3.1-5.9 1.2-2.7 3.8-5.5 6.1-7.3 2.2-1.8-2.6-2.2-0.2-1 1.9 0.9-3.4-1.3-3.4-1.3l-8-2.9c0 0-0.6-0.4-3.6-0.5-3 0-2.5 3.4-4.4 4.2-1.9 0.8-5.7 2.8-5.7 2.8 0 0-3.2 2-5.8 1.8-2.5-0.1-5.8-2.2-5.8-2.2l-3.8-5.5 0.2-5.5 5.9-4.4 3.7-2.5 3.2-2.5-7.7-0.9-5-1.6-2.9-1.1-5.3-1.5-7 0.5-2.9 4.4-4.9 4.2-5.9 0.9-3.1-4.1-2.2-5.9-1.8-5.1 2.2-4.9 3.2-4.5 3-3.7 1.9-2.7 1.5-2.4-8.6-4.5-7.6-3.9-8-3.4c0 0-6.2-1.2-8.3-1.4-2-0.2-12.6-0.7-12.6-0.7l-11.7 3.2z"/><path fill-rule="evenodd" class="a" d="m91.5 127.4l-0.9-12.6 1.3-6.4 2.4-8.8 9-17.1 3.4-2.6c0 0 6.5-7.5 8.3-8.8 1.9-1.3 3.9-3 6.2-4.4 2.3-1.3 2.9-1.9 2.9-1.9l12.9-5.7 16-2.4 6.7 0.3c0 0 3.8 0.5 6.2 1.1 2.4 0.6 2.7 0.2 5.6 0.8 12.6 2.2 13 1.9 13.5 2.4 2.1 1.6 3.9 4.4 6.2 6.6 2.4 2.2 12.6 8.3 12.6 8.3l31.9 27 9.4-6.6 4.7-4 11.9 13.3-9.5 10.6 9 9.8 9.8-5.9c0 0 14.1 11 14 10.9-0.5-0.9-14.2 7.2-14.2 7.2l11.8 10.6 7.4-8.2 6.4-2.9c4.2 4.2 8.5 7.4 12.5 11.2l-4 3.1 10.1 7.4c0 0 3.6-0.3 5.7-1.7 1.2-0.8 5.9 2.5 5.9 2.5l7.3 16.3 2.4 3.2 7.9 6.9 1.6-0.3 6 1.4 2.8 0.6 5.2 8.4-0.1 6.5-10 4-1 7.1-5.3 5.3-4.1 3.6c0 0-8.1 6.7-10.5 7-2.5 0.4-2 0.3-6 0.9-3.9 0.5-8.9 1.2-8.9 1.2l-6.4 1.6-7.3 6.5c0 0-1.1 3.2-6.9 2.4-8.9-1.2-8.8-1.8-8.8-1.8l-3.1-3.6 4.1-7.1 3.8-5 1.1-2.7-10.6-7.1-3.1-1.1c0 0-6.9-2.3-7 0.3-0.2 2.5-3.1 5.4-3.1 5.4l-4.3 3.4-4.9 0.7-9.4-2.2-4.8-5.4 1.9-4.7 3.2-5.5c0 0-0.7-1.9 3.1-3 3.9-1 2.6-1.4 2.6-1.4l2.6-1.3-6.1-1.9-7.8-4c0 0-0.1-0.7-3 0.7-2.8 1.4-2.9 0.4-5.7 1.8-2.9 1.4-6.6 3.9-6.6 3.9l-4.7 3.2-4.3 0.6-3.4-2.5-6.9-5c0 0 2-3.2 3.1-5.9 1.2-2.7 3.8-5.5 6.1-7.3 2.2-1.8-2.6-2.2-0.2-1 1.9 0.9-3.4-1.3-3.4-1.3l-8-2.9c0 0-0.6-0.4-3.6-0.5-3 0-2.5 3.4-4.4 4.2-1.9 0.8-5.7 2.8-5.7 2.8 0 0-3.2 2-5.8 1.8-2.5-0.1-5.8-2.2-5.8-2.2l-3.8-5.5 0.2-5.5 5.9-4.4 3.7-2.5 3.2-2.5-7.7-0.9-5-1.6-2.9-1.1-5.3-1.5-7 0.5-2.9 4.4-4.9 4.2-5.9 0.9-3.1-4.1-2.2-5.9-1.8-5.1 2.2-4.9 3.2-4.5 3-3.7 1.9-2.7 1.5-2.4-8.6-4.5-7.6-3.9-8-3.4c0 0-6.2-1.2-8.3-1.4-2-0.2-12.6-0.7-12.6-0.7l-11.7 3.2z"/><path fill-rule="evenodd" class="c" d="m300.1 241.2l7.8-7.2 8.3-6.7 6.9-5c0 0 12.9-9.9 14.8-10.7 1.9-0.7 12.2-5.1 12.2-5.1 0 0 0.5 0 2.4-0.7 1.4-0.4 3.2-1.2 4.1-1.4 2.1-0.5 3.1-0.8 3.1-0.8l-0.1-7.6-5-7.1-2.1-0.7-3.1-0.8-3.6-0.6-2.8 2-4.6 2.6-3.4 1.5-5.1 2.8-15.4 8.7-21.7 13.6-2.7 4.7-4.5 6.9-4.2 8.2 2.8 3.6 14.7 2.4z"/><path fill-rule="evenodd" class="c" d="m275.3 214.5c0 0 3.4-6.2 3.6-7.6 0.1-1.5 4.4-8.8 4.4-8.8l6.2-9.6 8.1-10.4 6.2-6.6 8.6-8.3 2.7-2.4 6.1-3.4c2.5 0.5 0.1 0.1 2.9 0.9l2.3 1.5 8.5 9.8c0 0 0.4 0.4-0.6 2.6-2.6 5.6-1.9 4-0.5 6.1l0.3-0.4-1.8-1.2-0.8-0.8-5.8 1.9-8.5 10.7-6.2 8.8-11.7 16.5-6.8 4-2.3 3.9-9.6-5.4z"/><path fill-rule="evenodd" class="c" d="m242.9 215.9l1.9-6.8 4-5.5 6.1-3.2 2.1-1.8 13.5-7.6c6.3-2.9 4 0.1 8.4-1.9l13.6-5.6 0.8 0.2-2.8 3-6.6 10.4-5.5 10.5-4 3.3-4.2 3c0 0-3.5 6.2-9.2 9.2-2.5 1.3-2.3 1.6-9.9 0.4l-4.2-2.8z"/><path fill-rule="evenodd" class="c" d="m312.5 194.8l12.6-2.8 17.3-3.7 2.4-1.2-2.1-1.3-10.7-10.5-6.2 2.4-2.9 2.7c-3.3 4.7-2.6 3.2-10.4 14.4z"/><path fill-rule="evenodd" class="c" d="m256.3 200.8l6.8-3.5 11-5.9 6.3-3.4 2.4-6.4 5.4-10.3 5-7.2c4.4-4.3 4.1-4 6.2-6l2.7-1.9 3.2-2.7 2-1.8 1.1-3.1c0 0-0.7-2-3.7-4.5-2.7-2.3-4.4-3.3-4.4-3.3l-4-3.3-6.6 3.6-7 7.3-9.5 9.7-5.8 10.4c0 0-3.4 7.3-5.1 9.5-1.7 2.3-6.1 9.4-6.1 9.4l-3.7 8.2-1.2 3.6z"/><path fill-rule="evenodd" class="c" d="m203.4 200.4c4.6 2.8 9 5.5 15.9 7.3l5.1-2.7 9.9-5.3 9.1-4.5 11.4-5.5 8.4-13.1 3.7-7.8-30.8 5.6-12.1 3-4.7 5.4-10.9 8.4z"/><path fill-rule="evenodd" class="c" d="m283.7 180.1l8.8-3.5 7.2-1.2 5.7-6 5.7-5.4 4.5-3.5c-2.7-0.2-16.9 2.1-22.9 3.6l-3.5 5.8z"/><path fill-rule="evenodd" class="c" d="m217.3 176.3l1.3-1.7 7.2-11.3 9.6-12.7 8.7-9.8 7.5-7.1 7.7-6.2 6.9-4.6c0 0 1.7-0.8 3.7-2.1 2.2-1.4 1.7-1.4 1.7-1.4l7 5.9 3.4 3.5 2.4 2.5-1.8 2.6-12.7 4.7-8 10.5-10.2 13.1-6.6 10.7-3.2 0.7-17.7 6.8-5.6 2.8-5.5-1z"/><path fill-rule="evenodd" class="c" d="m190.4 187.7l8.4-5.3 1.3-3.2 4.9-4.7c0 0 7.1-3.5 9.1-3.8 1.9-0.3 7.9-1.1 7.9-1.1l3-4.3 4.1-5.8 5.1-7.4 3.6-4.4-3.8 0.5-13.9 3.1-13.8 3.3-10.1 4.9-8.9 5.1h-1.5l-9.3 9c0 5.4 0.5 7.3-0.1 5.7 0.6 1.1-0.3 2.4 0.1 2.4 0.5 1.5 2.5 2 3.9 3.8l5.2 2.2z"/><path fill-rule="evenodd" class="c" d="m254.8 158c6-7 2.7-3.7 6.5-7.9l3.3-4.6 9 1.5 8.4 1.8-2.9 3-1.9 2.5-2.6 3.4-3.6 4.8-4.8 0.7-15.6 1.3c0.6-0.8 2.3-3.5 4.2-6.5z"/><path fill-rule="evenodd" class="c" d="m187.3 164.7l7.8-12.2 8.4-12.5 7-9.3 10.2-12.1 7.9-8.2 6.2-5.9 7.7-6.1 3.9-3.1 3.4-2.8 12.3 13.7-5.7 5.7-4 4.3-11.9 10.7-5 5.5-5.3 5.6-6.5 7.5-4.2 5.9-12.9 3.5-10.2 4.5z"/><path fill-rule="evenodd" class="c" d="m140.4 155.1l-0.8-2.2 6.2 15.2 8.1 1.1 4.8-4.5 3.1-4.4 13.2-11 8.2-6.2 7.8-5.6 9-4.3 9.8-1.6 4.9-5.8 14-15.8-10.3-0.1-8.9 1.2-11.4 1.6-7.9 1.1-11 4.1-12.2 10.3-13.8 8.2-3.8 5.3-3.2 4-3.1 4.5z"/><path fill-rule="evenodd" class="c" d="m235.8 132.1c-0.2 0.1 0-0.1 7.7 2.1l5.5 1.6c0 0 2.7-2.4 4.4-3.9 1.5-1.3 5-3.6 5-3.6l2.3-2c-0.5-1.4-0.2-1-2.5-3.4l-4.5-4.9c0 0-1.3-1.8-1.6-1.5-0.9 0.8-1.3 1.1-1.3 1.1l-6.5 5.8-4.7 4.4z"/><path fill-rule="evenodd" class="a" d="m113.9 290l25.5 8.2-15.2-16.1-10.1-11.4c0 0-2.7-3.9-5.3-7.1-2.6-3.2-5.4-7.8-5.4-7.8l-3.3-8.1-1.5-10.5 3.6-9.8 12.4-13.9c0 0 6.5-9.5 9.2-10.6 2.7-1.1 12.4-13.2 12.4-13.2l7.6-11.8 2.2-9.6-4.2-13.6-7.5-3.3-11.1-8.4-9.3-5.1-10.2-1.4-11.3 6.5-8 8.3-14.9 11.4-23 19.1-29 22.5-2.8-11.5c-1.9-3.6 0.4 7.4-8.8-9l-4.2-8.6 3.4 24.5 0.4 10.3 3.6 40.5 17.7 8.9 15.4 5.7 9.2 4.1 19.8 4 27.4 9z"/><path fill-rule="evenodd" class="i" d="m182.5 322c3.6-2.1 8.7-6.8 13.8-9.3l7-2.5 11.5 3.2 9.4-12.5 14.7-20.7 11.6-14.8 12.9-16-19.6-13.4-16.6-10.2-19.9-12.4-16.4-8.8-22.5-12.9-24.4-13.3-7 11.1-10.3 11.3-3.4 2.8-9.3 10.9c0 0-8.8 10.6-10.6 12.3-1.8 1.8-4 9.4-4 9.4l1.6 11.4 3.4 9.4 12.3 15.4 13.5 15.3 9.7 10 13 8 14.5 7.8z"/><path fill-rule="evenodd" class="c" d="m214.1 240.6c4.5-0.3 9.2-2.2 13.7-0.6 2.1 2.2 3 5.7 3.3 8.8-2 4.4-6.8 6.9-10.6 9.6-6 3.9-12.9 5.7-19.8 6.3-4.3 1.2-9 0.4-12-3.1-3.5-2.7-6.7-5.8-9-9.7-0.2-0.3-2.9 5.1-6.2 11.9-0.3 0.6 8.1 11.4 15 9.8 5.6-1.4 3.4 3.4-6.4 8.5-8.7 4.5-13.6-8-14.1-7.1-3.7 7.6-6.9 14-7.2 13.9-0.1 0.5-2.2 9-11.6-0.2 2.4 2.3 7.6-36.8 2.7-36.1q-2.6 0.4-5.2 0.6c-4.7-1.1-10.2-2.6-12.8-7.2-3.6-3.5-3.6-9-4.3-13.7-0.7-5.3 2.8-9.8 6-13.7 5-3.9 9.8-8.3 15.6-11 5.1-1.7 10.7-1.6 16.1-2 4.8 1.8 10.6 1.7 14.6 4.8 5.4 5.5 11.5 10.5 15.5 17.1 3.2 4.7 6.7 9.2 10.8 13.2q2.9-0.1 5.9-0.1z"/><path fill-rule="evenodd" class="a" d="m175.3 242.1c-7.3 0.5-14.6 1.5-21.9 1.5-4.5-0.7-8.3-3.7-11.3-6.9-1.5-4.1 0.2-8.5 3.4-11.2 3.7-3.9 9.3-6.3 14.7-5.8 4.5 1.3 7.1 5.7 10.4 8.7 4.4 4.4 7.3 9.9 10.7 15 1.7 3.1 3.5 6.1 6.1 8.6 2.9 3.6 7.1 7.4 12.1 6.6 7.2-0.2 14.7-1.6 20.7-5.7 3.2-0.9 8.1-6.2 2.6-7.6-4.8-0.5-9.3 2.9-14.3 1.6-4.7-0.9-6.6-5.7-9-9.3-2.9-4.6-6.9-8.2-10.1-12.5-5.3-6.5-12.2-12.7-20.9-13.4-4.2-0.4-8.4 1-12.6 1.1-3.6 0.4-6.7 2.6-9.8 4.4-3.2 2.3-5.7 5.5-8.4 8.4-2.3 3-2.6 7.1-1.5 10.6 0 3.9 2 7.4 5.5 9.1 5.5 3.2 12.1 1.3 18 0.8 6-0.8 12-1.9 17.9-3.5-0.8-0.3-1.5-0.3-2.3-0.5z"/><path fill-rule="evenodd" class="i" d="m170.8 236.6c-5.3 0.6-10.5 2.1-15.9 1.7-2.7-0.2-5.2-1.3-7.8-2.3-1.9-0.8-2.6-3.6-1.1-5.2 2.1-2.6 4.8-4.8 8.2-5.4 1.9-0.5 3.9-1.7 6-1 2.2 1.2 4.6 2.3 5.9 4.4 1.8 2.5 3.1 5.3 4.7 7.8z"/><path fill-rule="evenodd" class="c" d="m213.4 312.7l48.8-63.8 13.9 5.5 16.1 5.1 19.1-2.7 20-10.2 14-10 19.4-10.1 11.7-7.7 3.3-5.8 12.9 5.7 12.4 8.3 22.6 7.2 7.6 6.1 4 5.2 3 4.9 5.7 9.8-0.3 4.4-3.1 4.9-19.7 16.4-19.2 8.8c0 0-60 15.6-63.3 16.1-3.3 0.5-53.8 5.7-50.2 5.2 4.6-0.6-29.9 1.5-29.9 1.5l-7.5 0.3h-23.5l-8.4-1.6z"/><path fill-rule="evenodd" class="i" d="m126.1 81l18.4-12 9.4-4.6 9.6-3.4 5.3-2.4 9.6 1.2 6.6 1.5 6.3 6.3 13 8.6 20.2 17.1-18 5.9c0 0-14.2 4-16.6 5.7-2.5 1.7-18.1 9.9-18.1 9.9l-18-13.5-9.9-8z"/><path fill-rule="evenodd" class="a" d="m1.6 169.3l0.2-15.8 1.2-4.9 3.1-11.2 3.8-14.3 2.4-10.1 3.4 22.2 1.2 7.3 1.3 7.6 10.2 11.4-9.9 9.3-6.5 4.9c-3.6-2.2-6-3.6-10.4-6.4z"/><path fill-rule="evenodd" class="i" d="m81.1 138.3l10.4 5.1-7.2 8-19.6 15.6-47.7 38-15.8-30.3 0.4-5.9 9.8 6.7 17.4-14.1 19.1-3 9.4-3.7 17.6-9.6z"/><path fill-rule="evenodd" class="j" d="m80.8 138.4l10.2-10.7 16.3-5.2 21.1 1.8 24.1 12.5-4.1 6-7.1 12.1 0.2-0.3 4.2 13-2.5 11.1 64.7 36.7 41.9 26.1 12.1 8.2 0.5-0.2 19.4 7.1 10.5 3.8 18.5-3.9 20-9.5 16.4-11.3 18.6-9.7 10.3-7.2 3.4-6.6-13.4-10.9-3.9-0.9-2.6-4.3 0.2 7.3-1.5 0.4-1.7 0.6-6.8 2.5-0.8 7.7-18.7 15.4-19.5 3.3-3.2 0.9-7.6 6.5-1.1 2.3-0.3 1-14.4-2.7-2.5-3.9 8-15.9c0 0-8.8-5.4-10.9-6.5-2-1.1-4.4-1.3-4.4-1.3l-4.3 0.3-3.6 4.6-5 3.7c0 0-2.8 1.9-6.2 1.4-3.4-0.5-8.4-3.3-7.9-3l-2.5-3.7 1-6.4 3.4-4.9 6.7-4.5-12-6.4-20 10.3-11.4 0.7-5.8-4.6 1.4-9.4 10.6-8.7-13.4-4.1-5.2 0.1-1.1 3.3-9.1 5.3-7.4-1.2-2.1-1.2-3.6-3.6-0.2-7.8 9.6-9.4-6.3-1.2-10.5-3.5-7.5 0.6-4.8 4.9-5.1 3.8-6.1-0.8c-2.1-4-3.2-11.3-5.3-13.4l-10.7-6.2c-3.4-2.5-10-6.9-10.4-7.3l-6.1-3.4-10.3-1.2-11.8 6.8z"/><path fill-rule="evenodd" class="i" d="m9.5 267.4l13.3 8.9 15 7.9 27.6 7.2 51.7 13.7 38.2 11.5 13.2 5.1 10.1 3.2-8.1 11.7-23.7-8.7-18.1-5-19.8-7.1-43.8-9.9c0 0-23.4-5.3-27.3-6.8-6.8-2.8-16.9-7.8-16.9-7.8l-11.2-8.5-7.3-9.5z"/><path fill-rule="evenodd" class="j" d="m203.4 75.8l21.3-2.1 24.9 18.6 12.4 13.6-4.5 5.4 9.2 10.8 4.5-3.1 11.1 9.8 2.2 2.1-2 2.9 7.3 7.5-8 7.4-11.2-10.3 12.2-4.6 1.9-2.7-3.5-3.2-4.6-4.2-5.2-4.7-9.9 7.1-9.2-9.8 5-5 5.2-5.5-12.8-13.3-13.6 11z"/><path class="b" d="m181 321.6l-13.2 19.6"/><path fill-rule="evenodd" class="k" d="m285.4 257.6l-3.8 9.7 0.9 6.7 8.1 0.8 20-2.4 36.6-4.4 18.9-5c0 0 16.7-3.2 18.2-4.2 1.4-1 12.5-4.6 12.5-4.6l13.5-5.9 12-8.9 0.4-5.2-0.2-1.6 9 4.3 2 5.8c0 0-8.1 4.7-9.6 5.7-1.4 1-12.5 7.4-12.5 7.4 0 0-10.3 6.2-12.2 7.3-1.8 1-17.6 4.9-21.5 6.2-3.8 1.4-14.1 4.8-18 5.4-3.9 0.5-27 4.2-27 4.2l-26.9 4.6-18.2 1.3c0 0-6.7-2.6-8.5-3.6-1.7-0.9-5.6-5.6-5.6-5.6l-1.4-4.6 1.1-9.3 3.1-6 0.6-1.3z"/><path class="l" d="m355.5 244c0.1 0.3-0.1 0.7-0.3 0.9-0.3 0.3-0.7 0.5-1.1 0.6-0.4 0-0.9-0.1-1.2-0.3-0.3-0.1-0.6-0.4-0.6-0.8q0-0.5 0.3-0.9c0.3-0.3 0.7-0.5 1.1-0.5 0.5-0.1 0.9 0 1.2 0.2 0.4 0.2 0.6 0.5 0.6 0.8z"/><path class="l" d="m376.5 230.9c0.1 0.3-0.1 0.7-0.3 1-0.3 0.2-0.7 0.4-1.1 0.5-0.4 0-0.9 0-1.2-0.2-0.3-0.2-0.6-0.5-0.6-0.8 0-0.4 0.1-0.7 0.3-1 0.3-0.2 0.7-0.4 1.1-0.5 0.5-0.1 0.9 0 1.2 0.2 0.4 0.2 0.6 0.5 0.6 0.8z"/><path class="l" d="m387.8 223.5c0.1 0.3 0 0.7-0.3 1-0.3 0.2-0.7 0.4-1.1 0.5-0.4 0-0.8 0-1.2-0.2-0.3-0.2-0.5-0.5-0.6-0.8 0-0.4 0.1-0.7 0.4-1 0.2-0.2 0.6-0.4 1.1-0.5 0.4-0.1 0.8 0 1.1 0.2 0.4 0.2 0.6 0.5 0.6 0.8z"/><path class="l" d="m362.9 251c0.1 0.3 0 0.7-0.3 1-0.3 0.2-0.7 0.4-1.1 0.5-0.4 0-0.8 0-1.2-0.2-0.3-0.2-0.5-0.5-0.6-0.8 0-0.4 0.1-0.7 0.4-1 0.2-0.2 0.6-0.4 1.1-0.5 0.4-0.1 0.8 0 1.2 0.2 0.3 0.2 0.5 0.5 0.5 0.8z"/><path class="l" d="m375.4 244.2c0 0.3-0.1 0.7-0.4 1-0.2 0.2-0.6 0.4-1.1 0.5-0.4 0-0.8 0-1.2-0.2-0.3-0.2-0.5-0.5-0.5-0.8-0.1-0.4 0-0.7 0.3-1 0.3-0.3 0.7-0.4 1.1-0.5 0.4-0.1 0.8 0 1.2 0.2 0.3 0.2 0.5 0.5 0.6 0.8z"/><path class="l" d="m366.5 236.9c0.1 0.3-0.1 0.6-0.3 0.9-0.3 0.3-0.7 0.5-1.1 0.5-0.5 0.1-0.9 0-1.2-0.2-0.4-0.1-0.6-0.4-0.6-0.8-0.1-0.3 0.1-0.6 0.3-0.9 0.3-0.3 0.7-0.5 1.1-0.5 0.4-0.1 0.9 0 1.2 0.2 0.3 0.2 0.6 0.5 0.6 0.8z"/><path class="l" d="m395.5 229.7c0.1 0.4 0 0.7-0.3 1-0.3 0.3-0.7 0.5-1.1 0.5-0.4 0.1-0.8 0-1.2-0.2-0.3-0.2-0.5-0.5-0.6-0.8 0-0.3 0.1-0.7 0.4-0.9 0.2-0.3 0.6-0.5 1.1-0.6 0.4 0 0.8 0 1.1 0.2 0.4 0.2 0.6 0.5 0.6 0.8z"/><path class="l" d="m392.4 243.3c0.1 0.3-0.1 0.7-0.3 1-0.3 0.2-0.7 0.4-1.1 0.5-0.5 0-0.9 0-1.2-0.2-0.3-0.2-0.6-0.5-0.6-0.8-0.1-0.4 0.1-0.7 0.3-1 0.3-0.2 0.7-0.4 1.1-0.5 0.5-0.1 0.9 0 1.2 0.2 0.4 0.2 0.6 0.5 0.6 0.8z"/><path class="l" d="m381.5 250.4c0.1 0.3 0 0.7-0.3 1-0.3 0.2-0.7 0.4-1.1 0.5-0.4 0-0.8 0-1.2-0.2-0.3-0.2-0.5-0.5-0.6-0.8 0-0.4 0.1-0.7 0.4-1 0.2-0.3 0.6-0.4 1.1-0.5 0.4-0.1 0.8 0 1.2 0.2 0.3 0.2 0.5 0.5 0.5 0.8z"/><path class="l" d="m384.8 237.8c0.1 0.4-0.1 0.7-0.3 1-0.3 0.2-0.7 0.4-1.1 0.5-0.4 0.1-0.9 0-1.2-0.2-0.3-0.2-0.6-0.5-0.6-0.8 0-0.3 0.1-0.7 0.3-1 0.3-0.2 0.7-0.4 1.1-0.5 0.5 0 0.9 0 1.2 0.2 0.4 0.2 0.6 0.5 0.6 0.8z"/><path fill-rule="evenodd" class="o" d="m28.4 161.3l-10.4-11.5-6.1-36.4 1-11.1 22.2-6 15.4-5.1 16.7-2.4 18.7 3.2 7.8 8.1-3.6 14 1.3 13.1-11 11.6-5.3 6-17.6 9.9-9.4 3.7z"/><path fill-rule="evenodd" class="p" d="m183 62.1c0.8-1.8 7.7 7.3 6.5 10.1-0.4 1.9-1.7 3.5-3.6 4-1.8 0.7-3.7 1.4-5.6 1.4-0.2 0 1.3 2.2 3.3 4.9 0.2 0.2 6-0.8 6.8-3.8 0.6-2.5 2-0.6 2 4.2 0 4.3-5.9 3.6-5.6 4 2.1 2.9 4 5.5 3.8 5.6 0.2 0.1 3.1 2.7-2.4 4.4 1.4-0.4-12.6-10.5-13.3-8.4q-0.4 1.1-0.9 2.1c-1.4 1.6-3.1 3.4-5.4 3.5-2.1 0.6-4.2-0.5-6.1-1.2-2.2-0.8-3.2-3.1-4.1-5.1-0.5-2.7-1.2-5.5-1-8.2 0.4-2.4 1.5-4.5 2.5-6.7 1.7-1.4 2.8-3.7 4.8-4.6 3.3-1 6.4-2.3 9.8-2.5 2.5-0.3 4.9-0.7 7.3-1.4q0.6-1.2 1.2-2.3z"/><path fill-rule="evenodd" class="q" d="m175.6 77.3c-1.3 2.9-2.4 5.9-3.9 8.8-1.2 1.6-3.1 2.4-5 2.9-1.9-0.2-3.2-1.8-3.6-3.6-0.8-2.2-0.5-4.9 0.8-6.9 1.4-1.4 3.6-1.5 5.5-2.2 2.5-0.8 5.3-0.7 7.9-1 1.6-0.1 3.1-0.1 4.6-0.6 2-0.4 4.3-1.2 5-3.3 1.4-2.8-1.1-7.5-2.6-5.9-1.4 1.6-3.6 1.4-5.5 1.6-2.3 0.1-4.6 1-6.9 1.3-3.6 0.7-7.3 2.1-9.4 5.3-1 1.6-1.3 3.4-2.2 5.1-0.5 1.5-0.3 3.1-0.3 4.7 0.3 1.7 1 3.3 1.5 4.9 0.7 1.5 2.2 2.5 3.8 2.8 1.5 0.8 3.3 0.7 4.7-0.3 2.3-1.4 2.9-4.4 3.9-6.7 0.9-2.5 1.8-5.1 2.4-7.7-0.3 0.3-0.5 0.6-0.7 0.8z"/><path fill-rule="evenodd" class="r" d="m172.6 77.9c-0.9 2.2-1.4 4.5-2.6 6.5-0.7 1-1.6 1.7-2.5 2.5-0.7 0.6-2 0.3-2.3-0.6-0.5-1.3-0.8-2.9-0.4-4.3 0.2-0.8 0.2-1.8 0.9-2.5 0.9-0.6 1.8-1.3 2.9-1.4 1.3-0.1 2.6-0.1 4-0.2z"/><path fill-rule="evenodd" class="p" d="m205 6.1c0.8-1.8 7.7 7.3 6.5 10.1-0.4 1.9-1.7 3.5-3.6 4-1.8 0.7-3.7 1.4-5.6 1.4-0.2 0 1.3 2.2 3.3 4.9 0.2 0.2 6-0.8 6.8-3.8 0.6-2.5 2-0.6 2 4.2 0 4.3-5.9 3.6-5.6 4 2.1 2.9 4 5.5 3.8 5.6 0.2 0.1 3.1 2.7-2.4 4.4 1.4-0.4-12.6-10.5-13.3-8.4q-0.4 1.1-0.9 2.1c-1.4 1.6-3.1 3.4-5.4 3.5-2.1 0.6-4.2-0.5-6.1-1.2-2.2-0.8-3.2-3.1-4.1-5.1-0.5-2.7-1.2-5.5-1-8.2 0.4-2.4 1.5-4.5 2.5-6.7 1.7-1.4 2.8-3.7 4.8-4.6 3.3-1 6.4-2.3 9.8-2.5 2.5-0.3 4.9-0.7 7.3-1.4q0.6-1.2 1.2-2.3z"/><path fill-rule="evenodd" class="q" d="m197.6 21.3c-1.3 2.9-2.4 5.9-3.9 8.8-1.2 1.6-3.1 2.4-5 2.9-1.9-0.2-3.2-1.8-3.6-3.6-0.8-2.2-0.5-4.9 0.8-6.9 1.4-1.4 3.6-1.5 5.5-2.2 2.5-0.8 5.3-0.7 7.9-1 1.6-0.1 3.1-0.1 4.6-0.6 2-0.4 4.3-1.2 5-3.3 1.4-2.8-1.1-7.5-2.6-5.9-1.4 1.6-3.6 1.4-5.5 1.6-2.3 0.1-4.6 1-6.9 1.3-3.6 0.7-7.3 2.1-9.4 5.3-1 1.6-1.3 3.4-2.2 5.1-0.5 1.5-0.3 3.1-0.3 4.7 0.3 1.7 1 3.3 1.5 4.9 0.7 1.5 2.2 2.5 3.8 2.8 1.5 0.8 3.3 0.7 4.7-0.3 2.3-1.4 2.9-4.4 3.9-6.7 0.9-2.5 1.8-5.1 2.4-7.7-0.3 0.3-0.5 0.6-0.7 0.8z"/><path fill-rule="evenodd" class="r" d="m194.6 21.9c-0.9 2.2-1.4 4.5-2.6 6.5-0.7 1-1.6 1.7-2.5 2.5-0.7 0.6-2 0.3-2.3-0.6-0.5-1.3-0.8-2.9-0.4-4.3 0.2-0.8 0.2-1.8 0.9-2.5 0.9-0.6 1.8-1.3 2.9-1.4 1.3-0.1 2.6-0.1 4-0.2z"/></svg>