<svg version="1.2" xmlns="http://www.w3.org/2000/svg" viewBox="0 0 1272 891" width="1272" height="891">
	<title>cutting-sausage-publicdomainvectors</title>
	<style>
		.s0 { fill: #82321a } 
		.s1 { fill: #ba5b3c } 
		.s2 { fill: #fac8b8 } 
		.s3 { fill: #aeb6c8 } 
		.s4 { fill: #d3dae9 } 
		.s5 { fill: #e3e9f5 } 
		.s6 { fill: #be5a27 } 
		.s7 { fill: #4a423e } 
		.s8 { fill: #7d6f6a } 
		.s9 { fill: #d06628 } 
		.s10 { fill: #332d2a } 
		.s11 { fill: #665954 } 
	</style>
	<g id="publicdomainvectors.org">
		<g id="&lt;Group&gt;">
			<path id="&lt;Path&gt;" class="s0" d="m620.1 876.3c328.7 0 596.9-9.5 596.9-21 0-11.6-268.2-21.1-596.9-21.1-328.8 0-596.9 9.5-596.9 21.1 0 11.5 268.1 21 596.9 21z"/>
			<path id="&lt;Path&gt;" class="s0" d="m239.1 855.8h-0.1c-96.5 0-174.7-78.2-174.7-174.7 0-96.6 78.2-174.8 174.7-174.8h219v349.5z"/>
			<path id="&lt;Path&gt;" class="s1" d="m458 855.8c96.2 0 174.7-78.5 174.7-174.7 0-96.3-78.5-174.8-174.7-174.8-96.2 0-174.7 78.5-174.7 174.8 0 96.2 78.5 174.7 174.7 174.7z"/>
			<path id="&lt;Compound Path&gt;" class="s2" d="m466.7 546.7c13.1 0 23.8 10.7 23.8 23.8 0 13.2-10.7 23.8-23.8 23.8-13.2 0-23.9-10.6-23.9-23.8 0-13.1 10.7-23.8 23.9-23.8zm-81.7 17.3c6.7 0 12.1 5.4 12.1 12.1 0 6.7-5.4 12.1-12.1 12.1-6.7 0-12-5.4-12-12.1 0-6.7 5.3-12.1 12-12.1zm172.3 33.4c17.4 0 31.5 14.2 31.5 31.6 0 17.4-14.1 31.5-31.5 31.5-17.4 0-31.6-14.1-31.6-31.5 0-17.4 14.2-31.6 31.6-31.6zm-117.2 120.7c13.8 0 25 11.2 25 25 0 13.8-11.2 25.1-25 25.1-13.9 0-25.1-11.3-25.1-25.1 0-13.8 11.2-25 25.1-25zm21.6-86.6c12.5 0 22.6 10.1 22.6 22.5 0 12.5-10.1 22.6-22.6 22.6-12.5 0-22.6-10.1-22.6-22.6 0-12.4 10.1-22.5 22.6-22.5zm-107.9 129.9c6.5 0 11.7 5.2 11.7 11.7 0 6.5-5.2 11.8-11.7 11.8-6.5 0-11.8-5.3-11.8-11.8 0-6.5 5.3-11.7 11.8-11.7zm-1.3-71.8c10.3 0 18.6 8.3 18.6 18.6 0 10.2-8.3 18.5-18.6 18.5-10.2 0-18.5-8.3-18.5-18.5 0-10.3 8.3-18.6 18.5-18.6zm26.3-66.8c9.1 0 16.4 7.3 16.4 16.4 0 9-7.3 16.4-16.4 16.4-9 0-16.4-7.4-16.4-16.4 0-9.1 7.4-16.4 16.4-16.4z"/>
			<g id="&lt;Group&gt;">
				<path id="&lt;Path&gt;" class="s3" d="m366.2 785.7l405.8-405.7 151.4 151.4-257.8 257.8c-81.5 81.5-214.5 81.5-296 0z"/>
				<path id="&lt;Path&gt;" class="s4" d="m366.2 785.7l27.9-27.9c67.4 68 174.4 72.8 243.7 3.5l180.3-180.4 49.6-49.5 27.9-27.9 27.8 27.9-257.8 257.8c-81.5 81.5-214.5 81.5-296 0z"/>
				<path id="&lt;Compound Path&gt;" class="s5" d="m479.6 806.4c16 3.8 32.5 5.3 48.8 4.4l4.2 39c-16.2 1.1-32.5 0.4-48.5-2.2zm131.9-23.4c9.2-6.2 18-13.4 26.2-21.6l86.2-86.2 5.4 50.3-63.7 63.7c-15 15-31.7 27.2-49.5 36.7zm177.1-172.5l29.5-29.5 38.8-38.8 5.4 50.3-68.3 68.3z"/>
				<path id="&lt;Path&gt;" class="s6" d="m772 380l69.1-69.2 157.7 157.7c19 19.1 19 50.1 0 69.1-19 19.1-50.1 19.1-69.1 0z"/>
				<path id="&lt;Path&gt;" class="s4" d="m572.3 657.9l238.8-238.8 50.7 50.7-238.8 238.8c-13.9 14-36.8 14-50.7 0-14-13.9-14-36.8 0-50.7z"/>
				<path id="&lt;Path&gt;" class="s7" d="m849.6 319.4l248-248 88.4 88.3-248 248.1z"/>
				<path id="&lt;Path&gt;" class="s6" d="m1089.1 62.8l50.7-50.7 101.7 101.7c14 14 14 36.8 0 50.7-13.9 14-36.7 14-50.7 0z"/>
				<path id="&lt;Compound Path&gt;" fill-rule="evenodd" class="s8" d="m941.5 227.5q3.1-3.1 6.2-6.1 29.2 59.1 58.4 118.2-3 3.1-6.1 6.1-29.2-59.1-58.5-118.2zm128.2-128.2l6.2-6.1 58.4 118.2-6.1 6.1zm-79.3 79.4q29.2 59.1 58.5 118.2-3.1 3-6.2 6.1-29.2-59.1-58.4-118.2 3-3.1 6.1-6.1zm42.7-42.8q29.3 59.1 58.5 118.2-3.1 3.1-6.1 6.2-29.3-59.1-58.5-118.3 3.1-3 6.1-6.1zm-128.2 128.2l58.5 118.3-6.1 6.1-58.5-118.2z"/>
				<path id="&lt;Path&gt;" class="s9" d="m806.3 367.9c7.7-7.7 20.2-7.7 27.9 0l110.3 110.3c7.7 7.7 7.7 20.2 0 27.9-7.7 7.7-20.2 7.7-27.9 0l-110.3-110.3c-7.7-7.7-7.7-20.2 0-27.9z"/>
				<path id="&lt;Path&gt;" class="s9" d="m1121.3 52.9c7.6-7.6 20.2-7.6 27.9 0l68.1 68.1c7.6 7.7 7.6 20.2 0 27.9-7.7 7.7-20.3 7.7-27.9 0l-68.1-68.1c-7.7-7.6-7.7-20.2 0-27.9z"/>
				<path id="&lt;Path&gt;" class="s10" d="m900.3 370.1l248-248 37.7 37.6-248 248z"/>
				<path id="&lt;Compound Path&gt;" class="s11" d="m932.3 338l6.2-6.1 24.9 50.4-6.1 6.1zm42.7-42.7l6.1-6.1 25 50.4-6.2 6.1zm42.8-42.7l6.1-6.1 24.9 50.4-6.1 6.1zm42.7-42.7l6.2-6.2 24.9 50.4-6.1 6.2zm42.7-42.8l6.1-6.1 25 50.4-6.2 6.1z"/>
			</g>
			<path id="&lt;Path&gt;" class="s0" d="m498.9 795v60.3h349.5v-60.3z"/>
			<g id="&lt;Group&gt;">
				<path id="&lt;Path&gt;" class="s0" d="m973.6 813.5c0 30.8-78.3 55.8-174.8 55.8-96.5 0-174.7-25-174.7-55.8v-50.1h349.5z"/>
				<path id="&lt;Path&gt;" class="s1" d="m624.1 763.4c0-30.8 78.2-55.8 174.7-55.8 96.5 0 174.8 25 174.8 55.8 0 30.8-78.3 55.8-174.8 55.8-96.5 0-174.7-25-174.7-55.8z"/>
				<path id="&lt;Compound Path&gt;" class="s2" d="m785.8 730.1c22.1 0 39.9 6.5 39.9 14.6 0 8-17.8 14.5-39.9 14.5-22 0-39.9-6.5-39.9-14.5 0-8.1 17.9-14.6 39.9-14.6zm101 57.5c6.6 0 11.9 2.1 11.9 4.7 0 2.5-5.3 4.6-11.9 4.6-6.6 0-11.9-2.1-11.9-4.6 0-2.6 5.3-4.7 11.9-4.7zm20-55.6c6.6 0 12 2.2 12 4.9 0 2.8-5.4 5-12 5-6.7 0-12.1-2.2-12.1-5 0-2.7 5.4-4.9 12.1-4.9zm-212.7 4.3c12.9 0 23.4 3.6 23.4 8 0 4.5-10.5 8.1-23.4 8.1-12.9 0-23.3-3.6-23.3-8.1 0-4.4 10.4-8 23.3-8zm165.7-12.7c8.3 0 15.1 2.5 15.1 5.6 0 3.1-6.8 5.6-15.1 5.6-8.4 0-15.2-2.5-15.2-5.6 0-3.1 6.8-5.6 15.2-5.6zm34.6 32.5c11.6 0 21 3.3 21 7.4 0 4.1-9.4 7.4-21 7.4-11.6 0-21-3.3-21-7.4 0-4.1 9.4-7.4 21-7.4zm-74.5 26.6c15.5 0 28.1 4.7 28.1 10.5 0 5.8-12.6 10.5-28.1 10.5-15.6 0-28.2-4.7-28.2-10.5 0-5.8 12.6-10.5 28.2-10.5zm-109.5-14.2c11.8 0 21.3 3.7 21.3 8.3 0 4.6-9.5 8.4-21.3 8.4-11.8 0-21.4-3.8-21.4-8.4 0-4.6 9.6-8.3 21.4-8.3z"/>
			</g>
		</g>
	</g>
</svg>