<svg version="1.2" xmlns="http://www.w3.org/2000/svg" viewBox="0 0 515 850" width="515" height="850">
	<title>money-donations-public-domain-vector-ai</title>
	<style>
		.s0 { fill: #e0f0ff } 
		.s1 { fill: #ff6633 } 
		.s2 { fill: #ffcc00 } 
		.s3 { fill: #f58f00 } 
		.s4 { fill: #ffe500 } 
		.s5 { fill: #c7e3ff } 
		.s6 { fill: #edcb42 } 
		.s7 { fill: #cfa05d } 
		.s8 { fill: #fad957 } 
	</style>
	<g id="publicdomainvectors.org">
		<g id="&lt;Group&gt;">
			<path id="&lt;Path&gt;" class="s0" d="m254.3 394.1v66.6c0 15.7-8.8 30.1-22.8 37.2-32.5 16.6-53.6 49.4-55.2 85.8v134.4c0 52.2 34.4 98.1 84.4 112.8l15.2 3.7c43.5 10.3 82.8 10.3 126.3 0l15.2-3.7c50-14.7 84.4-60.6 84.4-112.8v-134.4c-1.6-36.4-22.7-69.2-55.2-85.8-14-7.1-22.8-21.5-22.8-37.2v-66.6l-84.8-7.2z"/>
			<path id="&lt;Path&gt;" class="s1" d="m-0.3 61.3l123 79 16.2 36.6c14.6 33.1 43.2 57.9 78 67.8 19.3 5.5 35.1 19.7 42.6 38.4 2.5 6.5 8.8 10.6 15.8 10.5 6.9-0.1 13-4.5 15.4-11.1 7.2-20.2 3.8-42.7-9-60-11.7-15.6-30.6-23.1-30.6-42.6 49.3-6.8 102.9-24.8 139.8 19.8 6.8 8.3-5 38-6.9 56.9-2.7 27.1 32.4 65.2 43.5 16.1l13.8-37c8.4-22.4 6.4-47.5-5.4-68.4 5.7-19 8.4-38.3-9-53.4-0.4-15.9-4.3-30.4-21.6-37.8 0-18.3-9.4-31-27-39-16.8-7.6-35-11.3-53.4-10.8q-64.8 1.8-129.6 1.2l-40.7-27.8h-154.9z"/>
			<g id="&lt;Group&gt;">
				<path id="&lt;Path&gt;" class="s2" d="m339 320.7c26 0 47.1-21.1 47.1-47.1 0-25.9-21.1-47.1-47.1-47.1-25.9 0-47.1 21.2-47.1 47.1 0 26 21.2 47.1 47.1 47.1z"/>
				<path id="&lt;Path&gt;" class="s3" d="m339 308.7c19.4 0 35.2-15.7 35.2-35.1 0-19.3-15.8-35.1-35.2-35.1-19.3 0-35.1 15.8-35.1 35.1 0 19.4 15.8 35.1 35.1 35.1z"/>
				<path id="&lt;Path&gt;" class="s4" d="m335.8 291.8c-3.6-0.6-6.6-2.3-9.2-5l-0.6-0.7 4.6-5.6 0.8 1c2 2.3 4.3 3.7 7.4 3.7 2.7 0 6.2-1.3 5.7-4.6-0.2-1.3-1.1-2.3-2.3-2.8-2.9-1.1-6.1-1.2-9.1-2.3-5.8-2.2-6.7-10.4-4-15.3 1.4-2.6 3.9-4.1 6.7-4.8v-4h6.9v4.1c2.6 0.5 5.2 1.5 7.4 2.9l0.9 0.6-4.2 5.7-0.8-0.6c-1.8-1.2-3.9-2.1-6.1-2.1-1.3 0-2.9 0.2-3.9 1-2.2 1.8-1.4 5.4 1.2 6.3 3.1 1.1 6.3 1.3 9.3 2.7q0.9 0.4 1.7 1.1c3 2.4 4.1 6.7 3.3 10.4-1.1 4.5-4.5 7.2-8.8 8.2v4.2h-6.9z"/>
			</g>
			<path id="&lt;Path&gt;" class="s5" d="m439.2 424.5c0 10.7-44.9 19.4-100.2 19.4-55.3 0-100.1-8.7-100.1-19.4v-48.7h200.3z"/>
			<path id="&lt;Path&gt;" class="s0" d="m339 395.3c55.2 0 100.2-8.8 100.2-19.5 0-10.7-45-19.5-100.2-19.5-55.1 0-100.1 8.8-100.1 19.5 0 10.7 45 19.5 100.1 19.5z"/>
			<path id="&lt;Path&gt;" class="s5" d="m339 386.9c43.2 0 78.4-5 78.4-11.1 0-6.1-35.2-11.1-78.4-11.1-43.1 0-78.3 5-78.3 11.1 0 6.1 35.2 11.1 78.3 11.1z"/>
			<path id="&lt;Path&gt;" class="s5" d="m339 827.5c51.1 0 92.7-12.1 92.7-27 0-14.9-41.6-27-92.7-27-51 0-92.7 12.1-92.7 27 0 14.9 41.7 27 92.7 27z"/>
			<g id="&lt;Group&gt;">
				<path id="&lt;Path&gt;" class="s6" d="m296.6 674.8c19.9-16.7 49.6-14 66.3 5.9 16.7 20 14 49.7-6 66.4-20 16.6-49.7 14-66.3-6-16.7-20-14-49.7 6-66.3z"/>
				<path id="&lt;Path&gt;" class="s7" d="m304.2 683.9c14.9-12.4 37.1-10.4 49.5 4.5 12.4 14.9 10.4 37.1-4.5 49.5-14.9 12.4-37 10.4-49.4-4.5-12.5-14.9-10.5-37 4.4-49.5z"/>
				<path id="&lt;Path&gt;" class="s8" d="m335.9 727c-3.1 1.8-6.6 2.4-10.2 2l-1-0.1v-7.3l1.2 0.3c3 0.5 5.7 0.1 8.1-1.9 2-1.7 3.9-5 1.4-7.2-1-0.9-2.3-1.1-3.6-0.7-2.9 1-5.4 3-8.4 4.1-5.9 2-11.8-3.7-12.9-9.2-0.5-2.9 0.3-5.7 2.1-8l-2.6-3.1 5.3-4.4 2.6 3.2c2.3-1.3 5-2.2 7.6-2.5l1.1-0.1 0.4 7-1 0.1c-2.1 0.2-4.3 0.8-6 2.2-1 0.9-2.1 2-2.4 3.4-0.5 2.7 2.3 5 5 4 3-1.2 5.6-3 8.8-3.9q1-0.2 2-0.2c3.9-0.1 7.5 2.5 9.2 5.9 2.1 4.1 1.2 8.4-1.5 11.8l2.7 3.3-5.3 4.4z"/>
			</g>
			<g id="&lt;Group&gt;">
				<path id="&lt;Path&gt;" class="s6" d="m352.4 657.2c-23.7-10.7-34.3-38.6-23.6-62.3 10.7-23.7 38.6-34.2 62.3-23.5 23.7 10.7 34.3 38.6 23.6 62.3-10.7 23.7-38.6 34.2-62.3 23.5z"/>
				<path id="&lt;Path&gt;" class="s7" d="m357.3 646.3c-17.7-8-25.6-28.8-17.6-46.5 8-17.6 28.8-25.5 46.5-17.5 17.7 8 25.5 28.8 17.6 46.4-8 17.7-28.8 25.6-46.5 17.6z"/>
				<path id="&lt;Path&gt;" class="s8" d="m382.2 599c3 2.1 5.1 4.9 6.3 8.4l0.3 0.9-6.5 3.2-0.4-1.3c-0.8-2.9-2.4-5.1-5.2-6.4-2.4-1.1-6.2-1.3-7.1 1.9-0.3 1.3 0.1 2.5 1 3.5 2.2 2.2 5.1 3.6 7.3 5.8 4.4 4.4 1.8 12.2-2.6 15.6-2.4 1.8-5.2 2.2-8.1 1.6l-1.7 3.7-6.2-2.8 1.6-3.8c-2.1-1.5-4.1-3.5-5.4-5.7l-0.6-0.9 6.1-3.5 0.5 0.9c1.1 1.8 2.6 3.5 4.6 4.4 1.2 0.5 2.8 1 4.1 0.7 2.7-0.7 3.5-4.3 1.4-6.2-2.3-2.3-5.1-3.8-7.3-6.3q-0.7-0.8-1.1-1.7c-1.7-3.5-1-7.8 1.3-10.8 2.8-3.7 7-4.8 11.3-3.9l1.8-3.8 6.2 2.9z"/>
			</g>
			<g id="&lt;Group&gt;">
				<path id="&lt;Path&gt;" class="s6" d="m299.4 628.8c-25.8 3.3-49.4-15-52.7-40.8-3.2-25.8 15-49.3 40.8-52.6 25.8-3.3 49.4 15 52.7 40.8 3.2 25.8-15 49.4-40.8 52.6z"/>
				<path id="&lt;Path&gt;" class="s7" d="m297.9 617c-19.3 2.4-36.9-11.2-39.3-30.5-2.4-19.2 11.2-36.8 30.4-39.2 19.3-2.5 36.9 11.2 39.3 30.4 2.4 19.3-11.2 36.8-30.4 39.3z"/>
				<path id="&lt;Path&gt;" class="s8" d="m294.4 563.7c3.6 0.1 6.8 1.4 9.7 3.8l0.7 0.6-3.8 6.1-1-0.9c-2.2-2.1-4.7-3.1-7.8-2.7-2.6 0.3-6 2.1-5 5.3 0.4 1.3 1.4 2.1 2.6 2.4 3 0.8 6.2 0.5 9.3 1.2 6.1 1.4 7.9 9.5 5.9 14.6-1.1 2.8-3.3 4.7-6.1 5.6l0.5 4.1-6.8 0.8-0.5-4c-2.6-0.2-5.4-0.9-7.7-2l-1-0.5 3.4-6.2 0.9 0.5c2 1 4.1 1.6 6.3 1.3 1.3-0.1 2.9-0.5 3.8-1.5 1.9-2 0.8-5.5-2-6-3.2-0.7-6.4-0.5-9.5-1.6q-1-0.3-1.9-0.8c-3.2-2.1-4.9-6.2-4.5-10 0.4-4.5 3.5-7.6 7.7-9.1l-0.6-4.2 6.9-0.9z"/>
			</g>
		</g>
	</g>
</svg>