<svg version="1.2" xmlns="http://www.w3.org/2000/svg" viewBox="0 0 425 812" width="425" height="812">
	<title>publicdomainq-business-man-angry-svg</title>
	<defs>
		<clipPath clipPathUnits="userSpaceOnUse" id="cp1">
			<path d="m115.52 155.35c-54.33 15.43-53.96 107.47-53.96 107.47 0.4 49.03 5.43 133.21 36.29 164.29 30.65 30.86 59.85 45.52 85.45 52.23 0 0 31.64 9.37 61.49-2.06 25.11-8.41 53.26-24.97 81.78-57.82 31.29-36.06 27.73-133.75 24.4-178.49-0.99-13.27-8.79-28.2-12.09-31.89-48.15-53.55-49.16-87.62-49.16-87.62l-6.26 8.06c-11.52 12.32-33.11 24.92-73.13 32.19 0 0 12.75-49.39 23.96-58.41 0 0-48.2 65.7-129.68 83.54 0 0 2.2-11.17 8.4-25.89z"/>
		</clipPath>
		<linearGradient id="g1" x2="1" gradientUnits="userSpaceOnUse" gradientTransform="matrix(0,-146.498,112.491,0,207.329,361.668)">
			<stop offset="0" stop-color="#fcd0b4"/>
			<stop offset="1" stop-color="#f7918c"/>
		</linearGradient>
	</defs>
	<style>
		.s0 { fill: #6167a9 } 
		.s1 { fill: #ffffff } 
		.s2 { fill: #f0374b } 
		.s3 { fill: #fcd0b4 } 
		.s4 { fill: #de9284 } 
		.s5 { fill: #d8e2f5 } 
		.s6 { fill: #c2d0d6 } 
		.s7 { fill: #fbc8a6 } 
		.s8 { fill: #7b4b4b } 
		.s9 { fill: #c79485 } 
		.s10 { fill: url(#g1) } 
		.s11 { fill: #f57f96 } 
		.s12 { fill: #231f20 } 
		.s13 { fill: none;stroke: #231f20;stroke-linecap: round;stroke-linejoin: round;stroke-width: 6.2 } 
		.s14 { fill: none;stroke: #231f20;stroke-linecap: round;stroke-linejoin: round;stroke-width: 5.3 } 
		.s15 { fill: none;stroke: #231f20;stroke-linecap: round;stroke-linejoin: round;stroke-width: 7.1 } 
	</style>
	<g id="g12">
		<path id="path14" class="s0" d="m250.1 499.7c0 0 84.3 25.5 110.2 43.6 14.2 9.9 26.7 29.3 15.2 128.8-2.2 19.1-8.7 67.8-18.3 80.6-6.3 8.4-27.8 14.2-41.4 14.2l7.5 37.1h-217.7l3.4-29.8c-17.8 0-37.7-15.2-37.7-15.2-21.4-15.7-25.5-125.6-26.1-159.7-0.6-30.3 14.7-52.1 23.6-57.8 17.6-11.1 108.4-41.8 108.4-41.8z"/>
		<path id="path16" class="s1" d="m193.2 487c0 0-24 4.4-28 36.1-2.8 22.3-2.7 76.1 27.3 194.4l44.3-0.4c26.2-114.8 29.7-171.6 26.9-194-4-31.7-28-36.1-28-36.1z"/>
		<path id="path18" class="s2" d="m204 765.3c-4.3-15.1-15.4-58.3-15.4-58.3l17.9-139.3-4.7-19.4-0.1-4.7 12.8-16.8 12.9 17.1-0.3 4.4-4.7 19.4 17.9 138.3c0 0-10.8 45.9-15 60.7l-9.8 30.7z"/>
		<path id="path20" class="s3" d="m241.9 478.7c0 0 1 15.2 0.8 23.1 0 0-8.3 19.9-28.3 25.9-20-6-28.3-25.9-28.3-25.9 0.1 0.1-0.8-23.1-0.8-23.1"/>
		<path id="path22" class="s4" d="m186.2 470.6h54.8l0.6 20.8c0 0-24.7 20.8-59.6 11.2l0.2-11.5z"/>
		<path id="path24" class="s5" d="m60.4 741.7c0 0-15.2-40.2-14.2-131.9 0.5-38.8 2.1-52.5 18.9-66.5 16.7-14 74.9-34.2 104.2-39.4l-3.2 13.2c0 0-85.2 17.4-105.1 44.7-11.3 15.5-6.5 123 5.4 188.4z"/>
		<path id="path26" class="s5" d="m260 504.6c92 23 107.7 39.8 112.6 53 2.4 6.7 5.5 14.7 4 14-5.3-6.3-12.1-19.9-30.4-28.3-12-5.5-84.3-27.2-84.3-27.2z"/>
		<path id="path28" class="s6" d="m206.5 565.2l-4.2-21.3-24.3 28.5z"/>
		<path id="path30" class="s6" d="m223.9 565.2l4.2-21.3 24.3 28.5z"/>
		<path id="path32" class="s7" d="m103.1 686.9l2.1 10.3 1.8 0.8c2.2 0.7 4.7 1.8 7.2 3.5 0 0 25.6-0.9 37.9-3l1-2.1q0.1-1.6 0.3-3.3c2-14.2 9.5-24.3 18.7-29.1l2-1.4c0 0-15.4-9.6-26.8-8.4-11.4 1.2-34.6 12.1-44.5 31.3z"/>
		<path id="path34" class="s7" d="m308.4 696.5c3.5-1.9 7.7-4.5 10.3-7.7 0 0 23.4 6.2 32.3 0.4 8.9-5.8-7.8-11.8-7.8-11.8 0 0 9.9 0.8 12.8-4 3.9-6.4-12.5-10.6-12.5-10.6 0 0 11.9-5.5 3.6-10.2-8.6-4.9-25.6-12.2-44.5-8.2-18.8 4.1-36.9 25.3-44.2 34.7 0 0 49.7 16.9 50 17.4z"/>
		<path id="path36" class="s1" d="m194.5 661.2c0 0-11.6-3.7-15.9-1.2-4.4 2.6-22.4 11.1-24.8 19.8-2.4 8.8-0.9 23.7 0.3 27 1.2 3.3 9.6 8.4 9.6 8.4 0 0-6-17.7 1.1-28 8.4-12.4 23.7-20.8 25.8-22 2.1-1.2 3.9-4 3.9-4z"/>
		<path id="path38" class="s0" d="m260.3 681.5l-53.1-19.1c0 0-23.6-0.2-30.4 12.1l12.9 84.5 39.1-13.2 9.7 3.8z"/>
		<path id="path40" class="s5" d="m187.6 669.7c0 0 14.6-9.5 23.7-6.3l76.1 27.2z"/>
		<path id="path42" class="s5" d="m84.3 705.3c0 0 5.5-8.1 14.3-8.1 8.7 0 15.6 4.3 15.6 4.3l37.9-3 1.6 9.5-45 4.6c0 0-10.1-15.4-24.4-7.3z"/>
		<path id="path44" class="s8" d="m35.1 290.3c-10-25.5-8.8-40.3-8.8-40.3l-6.8 14.2c-37.8-129.2 32.1-155.2 32.1-155.2 0 0-28.3-7.7-28.4-35.2 0 0 38.8 7.8 80.4-18.4 38.5-24.3 93.7-41.9 150.5-33 51.2 8 62.3 43.8 62.3 43.8 0 0 50.7 5.5 71.6 59.3 22.5 57.9 7.1 115.1 7.1 115.1l-5.8-15.4c0 0-0.3 23.1-12.3 54.2l-5.1 15.9-328.4 18.2z"/>
		<path id="path46" class="s9" d="m35.9 292.5l7.6 21 9.9-0.6-17.3-20.2c0 0-0.1-0.1-0.2-0.2zm352.1-167c-20.9-53.8-71.6-59.3-71.6-59.3 0 0-11.1-35.8-62.3-43.8-56.8-8.9-112 8.7-150.5 33-41.6 26.2-80.4 18.4-80.4 18.4 0.1 27.5 28.4 35.2 28.4 35.2 0 0-69.9 26-32.1 155.2l1.1-2.3c-0.3-1.3-0.6-2.6-0.8-3.8-14.1-116.2 48.6-149.3 48.6-149.3 0 0 6.1-21.5 47.7-47.7 38.5-24.3 89.5-37.5 146.5-30.7 56.2 6.6 57.2 52.6 57.2 52.6 0 0 53.4 8.5 74.6 62.5-1.7-6.6-3.8-13.3-6.4-20z"/>
		<path id="path48" class="s3" d="m75.9 384.1c-45.8 3.7-68.4-58.9-53-82.1 11.1-16.7 35.1-7 39.8 1.8"/>
		<path id="path50" class="s4" d="m62.5 329.4c4.8 12.2 10.9 30.3 2.6 33.6-8.4 3.2-19-4.1-23.8-16.3-4.7-12.3-1.8-24.8 6.6-28.1 8.4-3.2 9.9-1.5 14.6 10.8z"/>
		<path id="path52" class="s3" d="m345.6 375.1c45.9 0.6 64.3-63.3 47.4-85.5-12.3-15.9-35.5-4.6-39.6 4.5"/>
		<g id="g54">
			<g id="Clip-Path: g56" clip-path="url(#cp1)">
				<g id="g56">
					<path id="path68" class="s10" d="m115.5 155.3c-54.3 15.5-53.9 107.5-53.9 107.5 0.4 49 5.4 133.2 36.3 164.3 30.6 30.9 59.8 45.5 85.4 52.2 0 0 31.6 9.4 61.5-2 25.1-8.4 53.2-25 81.8-57.8 31.3-36.1 27.7-133.8 24.4-178.5-1-13.3-8.8-28.2-12.1-31.9-48.2-53.6-49.2-87.6-49.2-87.6l-6.2 8c-11.6 12.3-33.2 24.9-73.2 32.2 0 0 12.8-49.4 24-58.4 0 0-48.2 65.7-129.7 83.5 0 0 2.2-11.1 8.4-25.8z"/>
				</g>
			</g>
		</g>
		<path id="path70" class="s11" d="m307.6 327c0.7 8.8-46.8 14.1-106.1 14.9-59.3 0.8-108-3.1-108.6-11.9-0.8-8.8 46.7-16.6 106-17.4 59.3-0.8 108 5.6 108.7 14.4z"/>
		<path id="path72" class="s4" d="m355.3 319.6c-3.9 12.5-8.9 31-0.3 33.7 8.6 2.6 18.7-5.3 22.6-17.9 3.9-12.5 0.1-24.8-8.4-27.5-8.6-2.7-10-0.9-13.9 11.7z"/>
		<path id="path74" class="s9" d="m175.6 98.3c0 0-50.1 13.6-68.4 86.7l17-4.1c0 0 15.1-55 51.4-82.6z"/>
		<path id="path76" class="s9" d="m247 96.9c0 0-21.5 5.3-34.1 63.3l14.2-2.8c0 0 3.5-40.5 19.9-60.5z"/>
		<path id="path78" class="s12" d="m185.3 236c0.9 0 1.9 1.8 1.6 4.9-0.3 3.1-2 7.9-6.7 11.7-4.6 3.9-11.4 6-18.4 6.4-3.6 0.2-7 0.1-11-0.4-4-0.6-8.1-1.9-11.9-3.9-7.7-3.9-13.2-9.9-17-15.6-3.9-5.8-6.1-11.4-7.6-16.2-2.7-9.6-2.1-16-0.2-16.3 1.9-0.5 4.7 4.7 9.4 12.3 4.7 7.4 11.6 17.9 21.9 23.2q3.8 2 7.8 2.8c2.7 0.5 5.8 0.9 8.4 1.1 5.4 0.3 9.8-0.4 13.1-1.8 6.6-2.7 8.6-8.5 10.6-8.2z"/>
		<path id="path80" class="s12" d="m220.4 232.8c1.9-0.3 4 5.4 10.6 8.2 3.2 1.4 7.7 2.1 13.1 1.7 2.6-0.1 5.7-0.5 8.4-1q4-0.8 7.8-2.8c10.3-5.3 17.1-15.8 21.8-23.2 4.8-7.6 7.6-12.8 9.5-12.4 1.9 0.4 2.5 6.8-0.3 16.4-1.4 4.8-3.7 10.4-7.5 16.2-3.8 5.7-9.3 11.7-17 15.6-3.8 2-7.9 3.3-11.9 3.9-4 0.5-7.4 0.6-11 0.4-7-0.4-13.8-2.6-18.4-6.4-4.7-3.8-6.5-8.6-6.7-11.7-0.3-3.2 0.6-4.9 1.6-4.9z"/>
		<path id="path82" fill-rule="evenodd" class="s13" d="m171.9 502.5c-19.5 6.2-60.7 20-73.5 24.4-14 4.8-42.3 15.1-49 42.3-8.5 34.5 2.3 129.5 8.2 163.5 3.9 22.5 20.7 47.4 71.7 39.5 50-7.8 92.3-26.6 92.3-26.6"/>
		<path id="path84" fill-rule="evenodd" class="s13" d="m257.3 502.9c19.9 6.4 54.2 17.7 66.2 21.9 14 4.7 45.3 14 52 41.2 8.5 34.6-2.4 129.5-8.4 163.5-3.2 17.5-13.3 43.4-68.7 34.9-50-7.7-131.8-43.6-131.8-43.6 0 0-5.3-9.3-4-19.4 2.3-19.3 24.6-42.1 44.9-38.8l108.2 36.6"/>
		<path id="path86" fill-rule="evenodd" class="s13" d="m197.1 662.6l-12.9-2.3c-14.4 0.6-27.9 12.6-30.7 32.6-1.8 12.6 3.4 17.6 3.4 17.6l7.9 5.7"/>
		<path id="path88" fill-rule="evenodd" class="s13" d="m174.3 662.2c0 0-15.5-9.8-27-8.5-11.6 1.2-34.9 12.1-44.9 31.5"/>
		<path id="path90" fill-rule="evenodd" class="s13" d="m85.4 599.6l19.4 97.4"/>
		<path id="path92" fill-rule="evenodd" class="s13" d="m342.1 596.6l-10.2 49"/>
		<path id="path94" fill-rule="evenodd" class="s13" d="m85.4 703.4c0 0 11.5-13.3 28.5-2.1 0 0 25.8-0.9 38.2-3"/>
		<path id="path96" fill-rule="evenodd" class="s13" d="m308.3 696.6c3.6-1.8 7.8-4.5 10.4-7.7 0 0 23.7 6.2 32.6 0.4 8.9-5.9-7.8-12-7.8-12 0 0 10 0.8 12.8-3.9 4-6.5-12.6-10.8-12.6-10.8 0 0 12.1-5.5 3.7-10.3-8.7-4.9-25.8-12.3-44.9-8.2-19.4 4.2-37.3 25.9-44.3 35"/>
		<path id="path98" fill-rule="evenodd" class="s13" d="m343.5 677.3c0 0-13.3-5.9-20.6-5.7-13.5 0.5-22.9 8.2-22.9 8.2"/>
		<path id="path100" fill-rule="evenodd" class="s13" d="m343.7 662.6c0 0-17.1-5.7-24.9-6-7.4-0.3-16.6 0.2-28.1 10.3"/>
		<path id="path102" fill-rule="evenodd" class="s13" d="m110 773.8l-4.1 29"/>
		<path id="path104" fill-rule="evenodd" class="s13" d="m316.9 769.1l5.3 33.7"/>
		<path id="path106" fill-rule="evenodd" class="s13" d="m201.5 754.2q6.1 20.6 13.6 42.5"/>
		<path id="path108" fill-rule="evenodd" class="s13" d="m183.5 491.1c-7.1 4.5-16.1 13.7-18.4 32.1-2.1 16.1-1.3 65.2 12.9 137.1"/>
		<path id="path110" fill-rule="evenodd" class="s13" d="m229.9 745.3c-4.4 16.6-9.3 33.8-14.8 51.4"/>
		<path id="path112" fill-rule="evenodd" class="s13" d="m243.4 490.2c7.4 4.1 17.6 13.2 20.1 33 2.1 16.9-1.4 74.3-17.3 152.4"/>
		<path id="path114" fill-rule="evenodd" class="s14" d="m164.9 504.3l-50.7 37.2 20.5 36.6-32 27.1c0 0 11.2 23.8 26.7 54"/>
		<path id="path116" fill-rule="evenodd" class="s13" d="m242.9 477.6c0 0 0.5 16.3 0.6 23.8 0 0-9.3 20.3-29.3 26.3-20-6-30.1-26.2-30.1-26.2 0.5-8.6 1.4-18.4 1.4-18.4"/>
		<path id="path118" fill-rule="evenodd" class="s14" d="m267.8 507l49.9 34.5-20.5 36.6 32 27.1c0 0-7.5 14.5-19.3 37.1"/>
		<path id="path120" fill-rule="evenodd" class="s14" d="m201.6 545.5l4.7 22.2-12.1 95.2"/>
		<path id="path122" fill-rule="evenodd" class="s14" d="m226.9 545.5l-4.7 22.2 13.6 103.4"/>
		<path id="path124" fill-rule="evenodd" class="s14" d="m263.5 523.2c-1.8 25.6-11.3 53.6-11.3 53.6l-37.9-50-38 50c0 0-9.4-28-11.2-53.6"/>
		<path id="path126" fill-rule="evenodd" class="s15" d="m172.6 278.4c-1.5 21.4-43.6 44.4-61.3 9.4"/>
		<path id="path128" fill-rule="evenodd" class="s15" d="m239.9 278.4c1.5 21.4 43.5 44.4 61.2 9.4"/>
		<path id="path130" fill-rule="evenodd" class="s13" d="m295.8 94.4c0 0 11.7 49.3-85.7 67 0 0 12.8-49.4 24-58.4 0 0-48.2 65.7-129.7 83.5 0 0 12.3-62.3 60.5-86.2"/>
		<path id="path132" fill-rule="evenodd" class="s13" d="m206.6 331.3c0 0-18.1 7.9-16 16.4 2.1 8.6 8.9 18.1 8.9 18.1"/>
		<path id="path134" fill-rule="evenodd" class="s13" d="m196.5 298.2c0 0 6.2 24.3 5.2 35.1"/>
		<path id="path136" fill-rule="evenodd" class="s13" d="m75.7 383.8c-45.8 3.7-68.4-58.9-53-82.1 11.2-16.7 35.1-7 39.8 1.8"/>
		<path id="path138" fill-rule="evenodd" class="s13" d="m65.3 331.7c0 0-16.4-30.9-33.3-15.5"/>
		<path id="path140" fill-rule="evenodd" class="s13" d="m345.4 374.8c45.9 0.6 64.3-63.4 47.4-85.5-12.2-15.9-35.5-4.6-39.6 4.5"/>
		<path id="path142" fill-rule="evenodd" class="s13" d="m352.3 322.1c0 0 14.3-31.9 32.2-17.7"/>
		<path id="path144" fill-rule="evenodd" class="s13" d="m289.6 121.1c0 0 1 34.1 49.1 87.7 3.3 3.7 11.1 18.6 12.1 31.8 3.3 44.8 6.9 142.5-24.4 178.5-28.5 32.9-56.7 49.5-81.8 57.9-29.8 11.4-61.5 2-61.5 2-25.6-6.7-54.8-21.3-85.4-52.2-30.9-31.1-35.9-115.3-36.3-164.3 0 0-0.4-92 53.9-107.5"/>
		<path id="path146" fill-rule="evenodd" class="s13" d="m29.8 241.9c-5.6 12.1-10.5 22-10.5 22-37.8-129.2 32.1-155.2 32.1-155.2 0 0-28.3-7.7-28.4-35.2 0 0 38.8 7.8 80.4-18.4 38.5-24.3 93.7-41.9 150.5-33 51.2 8 62.3 43.8 62.3 43.8 0 0 50.8 5.5 71.6 59.3 22.5 57.9 7.1 115.1 7.1 115.1 0 0-5.1-14.3-11.5-29.6"/>
		<path id="path148" fill-rule="evenodd" class="s13" d="m26.1 249.7c0 0-1.2 14.8 8.8 40.2"/>
		<path id="path150" fill-rule="evenodd" class="s13" d="m389.1 224.9c0 0-0.3 23.1-12.3 54.2"/>
		<path id="path152" fill-rule="evenodd" class="s13" d="m169 444.9c0 0 13.3-43.9 45.6-43.9 32.3 0 49 41.2 49 41.2"/>
	</g>
</svg>