<svg version="1.2" xmlns="http://www.w3.org/2000/svg" viewBox="0 0 1312 892" width="1312" height="892">
	<title>bed-with-pillows-publicdomainvectors</title>
	<style>
		.s0 { fill: #ac7338 } 
		.s1 { fill: #895322 } 
		.s2 { fill: #623813 } 
		.s3 { opacity: .4;fill: #000000 } 
		.s4 { fill: #f1a557 } 
		.s5 { fill: #de8731 } 
		.s6 { fill: #bf772d } 
		.s7 { fill: #653a15 } 
		.s8 { fill: #dc9448 } 
		.s9 { fill: #d08335 } 
		.s10 { fill: #f1ceaf } 
		.s11 { fill: #fbe4cf } 
		.s12 { fill: #eac5a2 } 
		.s13 { fill: #a7bf38 } 
		.s14 { fill: #94ac3c } 
		.s15 { fill: #fefefe } 
		.s16 { fill: #fef3e6 } 
		.s17 { fill: #b9d431 } 
	</style>
	<g id="publicdomainvectors.org">
		<g id="&lt;Group&gt;">
			<path id="&lt;Path&gt;" class="s0" d="m292.8 10.5h570.3l7.7 9.9h-585.8z"/>
			<path id="&lt;Path&gt;" class="s1" d="m285 216.9h585.8v-196.5h-585.8z"/>
			<path id="&lt;Path&gt;" class="s2" d="m541.7 216.9h-225c-0.8-5.4 3.7-10 10.4-10.4h0.1l14.3-63c-3-1.3-5.2-3.6-5.9-6.4-1-4.4 2.5-8.3 7.9-8.6 3.2-0.2 6.3 0.9 8.6 2.7 18.5-9.2 50.5-16.3 88.1-18.5 37.5-2.2 72 1.1 94.3 7.9 1.3-2 3.8-3.5 7-3.7 5.4-0.3 10.6 3.1 11.7 7.5 0.8 3.8-1.6 7.1-5.6 8.3l14.3 61.3c4.5 1.5 8.2 4.8 9.1 8.9 1.4 5.7-3.2 10.7-10.2 11.1-2.9 0.2-5.7-0.5-8.2-1.7q-4.9 2.4-10.9 4.6z"/>
			<path id="&lt;Path&gt;" class="s2" d="m828.4 216.9h-225c-2.6-5.4 0.3-10 6.9-10.4h0.1l-7-63c-3.4-1.3-6.4-3.6-8-6.4-2.5-4.4-0.3-8.3 5-8.6 3.1-0.2 6.6 0.9 9.4 2.7 15.5-9.2 45.1-16.3 81.9-18.5 36.8-2.2 72.4 1.1 97 7.9 0.6-2 2.7-3.5 5.8-3.7 5.3-0.3 11.6 3.1 14.1 7.5 2.2 3.8 0.9 7.1-2.7 8.3l35 61.3c5 1.5 9.8 4.8 12.1 8.9 3.3 5.7 0.4 10.7-6.4 11.1-2.9 0.2-5.9-0.5-8.8-1.7q-4.2 2.4-9.4 4.6z"/>
			<path id="&lt;Path&gt;" class="s3" d="m259 315h802.1l241.9 572h-1285.8z"/>
			<path id="&lt;Path&gt;" class="s4" d="m235 152.3h685.8l206.9 489.1h-1099.5z"/>
			<path id="&lt;Path&gt;" class="s5" d="m345.3 152.3h206.9v58.1c4.1 1.7 6.9 5 6.9 8.9 0 5.5-5.7 9.9-12.6 9.9-2.9 0-5.6-0.7-7.8-2-24.3 8.7-63.1 14.4-106.9 14.4-43.7 0-82.5-5.7-106.9-14.4-2.1 1.3-4.8 2-7.7 2-7 0-12.7-4.4-12.7-9.9 0-5.5 5.7-9.9 12.7-9.9h0.1z"/>
			<path id="&lt;Path&gt;" class="s6" d="m54.1 580.2l35.8-11.5 5.9-17 10-25.4z"/>
			<path id="&lt;Path&gt;" class="s1" d="m135.1 786.1c19.3 0 38.7 0 58.1 0q5 18.8 9.8 37c3.2 11.8 6.3 23.5 9.4 34.9-18.5 0-36.9 0-55.2 0-3.5-11.4-7.1-23.1-10.7-34.9q-5.6-18.2-11.4-37z"/>
			<path id="&lt;Path&gt;" class="s7" d="m212.4 858c0.1-8.6 0.3-17.5 0.5-26.4 0.2-9 0.4-18.2 0.7-27.4q-4.1-16.1-8.4-32.7c-2.8-11.2-5.6-22.7-8.6-34.3-1.2 16.7-2.4 33-3.4 48.9q5 18.8 9.8 37c3.2 11.8 6.3 23.5 9.4 34.9z"/>
			<path id="&lt;Path&gt;" class="s7" d="m135.1 786.1q30.8 0 61.8 0 3.8 14.3 7.4 28.2-30.4 0-60.5 0-4.3-13.9-8.7-28.2z"/>
			<path id="&lt;Path&gt;" class="s1" d="m1020.4 786.1c-19.5 0-38.9 0-58.2 0q-5 18.8-9.9 36.9c-3.1 11.9-6.2 23.6-9.3 35 18.4 0 36.9 0 55.4 0 3.5-11.4 7.1-23.1 10.7-35q5.6-18.1 11.3-36.9z"/>
			<path id="&lt;Path&gt;" class="s7" d="m943 858c-0.2-8.7-0.5-17.5-0.7-26.4-0.2-9-0.3-18.2-0.5-27.5q4.1-16 8.3-32.6c2.9-11.3 5.9-22.7 8.8-34.3 1.1 16.7 2.1 33 3.3 48.9q-5 18.8-9.9 36.9c-3.1 11.9-6.2 23.6-9.3 35z"/>
			<path id="&lt;Path&gt;" class="s7" d="m1020.4 786.1c-20.8 0-41.4 0-61.9 0-2.5 9.5-5 18.9-7.5 28.2 20.2 0 40.4 0 60.8 0q4.3-13.9 8.6-28.2z"/>
			<path id="&lt;Path&gt;" class="s8" d="m28.2 641.4c183.1 0 366.3 0 549.5 0 183.2 0 366.6 0 550 0-9.5 27.4-18.7 53.8-27.5 79.3q-12.8 37-24.8 71.7c-166.1 0-332 0-497.7 0-165.8 0-331.7 0.1-497.2 0.1q-12-34.7-24.9-71.8c-8.8-25.5-17.9-51.9-27.4-79.3z"/>
			<path id="&lt;Compound Path&gt;" fill-rule="evenodd" class="s9" d="m1118.6 667.6l-2 5.7q-28.4 2.3-56.9 2.7c-39.9 0.6-79.8-1.6-119.4-6.6q-3-0.3-6.9-0.9-3.8-0.5-6.8-1c-29.2-4.3-58.6-6.2-87.9-5.8-29.3 0.4-58.6 3.2-87.6 8.4-33.1 5.9-66.6 9.1-100.2 9.6-33.6 0.5-67.2-1.7-100.5-6.6-40.9-6.1-82.1-8.8-123.2-8.2-41 0.6-82.1 4.5-122.8 11.8-34.8 6.2-70.1 9.6-105.4 10.1-35.3 0.5-70.7-1.8-105.7-7-14.4-2.2-28.9-3.1-43.4-2.9q-4.6 0.1-9.3 0.3l-1.9-5.4q5.6-0.3 11.2-0.4c14.8-0.2 29.6 0.8 44.2 3 34.8 5.1 69.9 7.4 104.8 6.9 35-0.5 69.9-3.8 104.5-10 40.9-7.3 82.3-11.3 123.8-11.9 41.4-0.6 82.9 2.1 124 8.2 33 5 66.4 7.2 99.6 6.7 33.2-0.5 66.4-3.7 99.3-9.6 29.3-5.2 58.9-8 88.6-8.5 29.6-0.4 59.3 1.6 88.7 5.9q3.7 0.6 6.7 1 3 0.4 6.9 0.9c39.4 4.9 79.1 7.1 118.7 6.5q29.5-0.4 58.9-2.9zm-10.9 31.5l-1.9 5.5q-5.9 0.1-11.9 0.2-21.5 0.3-43-0.3c-10.5-0.3-20.9 1.1-30.8 3.9-10 2.8-19.5 7.2-28.3 12.9-20.9 13.7-44.8 20.8-68.9 21.2-24 0.3-48.1-6.1-69.5-19.2-18.2-11.2-38.8-16.6-59.3-16.3-20.5 0.3-40.9 6.3-58.8 18.1-17.7 11.6-37.9 17.5-58.2 17.8-20.3 0.3-40.7-5-58.8-16.1-35.2-21.7-75-32.2-114.8-31.6-39.7 0.6-79.3 12.2-113.8 34.9-23 15.2-49.3 22.9-75.8 23.3-26.4 0.4-53-6.6-76.4-21-35.3-21.7-75.2-32.3-115-31.7-23.5 0.4-47 4.6-69.4 12.7l-1.8-5.2c23-8.3 47-12.6 71.1-12.9 40.8-0.6 81.8 10.2 117.9 32.4 22.6 13.9 48.1 20.6 73.5 20.3 25.5-0.4 50.8-7.9 72.9-22.4 35.4-23.3 76-35.3 116.8-35.9 40.7-0.6 81.6 10.2 117.7 32.4 17.1 10.6 36.5 15.7 55.8 15.4 19.3-0.3 38.5-6 55.3-17 18.7-12.3 40.2-18.7 61.8-19 21.5-0.3 43.1 5.4 62.2 17.2 20.4 12.5 43.5 18.6 66.6 18.3 23-0.4 45.9-7.1 65.9-20.3 9.3-6 19.3-10.6 29.8-13.6 10.5-3 21.4-4.3 32.4-4q21.5 0.6 42.8 0.3 7-0.1 13.9-0.3zm-17.9 51.8c-16.1-2.7-32.3-3.9-48.5-3.7-30.2 0.5-60.4 5.9-89.2 16.4-25.5 9.3-52.3 14.1-79.1 14.5-26.8 0.4-53.7-3.7-79.5-12.2-14.3-4.7-29.1-6.9-43.9-6.7-14.8 0.2-29.5 2.9-43.6 8-30.4 11-62.3 16.8-94.2 17.3-31.9 0.4-63.8-4.4-94.5-14.5-26.9-8.9-54.9-13.1-82.8-12.7-27.9 0.4-55.8 5.5-82.4 15.1-25.3 9.2-51.8 14-78.3 14.4-26.6 0.4-53.2-3.7-78.7-12.1-21.3-7-43.4-10.3-65.5-10-18.8 0.3-37.6 3.2-55.7 8.8l-1.8-5.2c18.7-5.8 38-8.8 57.4-9.1 22.7-0.3 45.5 3.1 67.3 10.3 25 8.3 51 12.2 76.9 11.8 26-0.4 51.8-5.1 76.6-14 27.1-9.9 55.6-15 84.1-15.5 28.5-0.4 57.1 3.9 84.6 13 30.1 9.9 61.5 14.6 92.8 14.2 31.2-0.5 62.5-6.1 92.3-16.9 14.7-5.4 30-8.1 45.4-8.4 15.5-0.2 30.9 2.1 45.7 7 25.3 8.3 51.6 12.3 77.7 11.9 26.2-0.4 52.4-5.1 77.4-14.2 29.3-10.6 60.1-16.2 90.9-16.6 16.9-0.3 33.7 1 50.4 3.8z"/>
			<path id="&lt;Path&gt;" class="s10" d="m73.3 616.9c158.2 0 851.1 0 1009.3 0q-11.3-32.6-22.6-65.2c-143.2 0-821 0-964.2 0q-11.3 32.6-22.5 65.2z"/>
			<path id="&lt;Path&gt;" class="s11" d="m250.6 159.1h654.7l154.7 392.6h-964.2z"/>
			<path id="&lt;Path&gt;" class="s12" d="m341.9 159.1h210.3v51.3c4.1 1.7 6.9 5 6.9 8.9 0 5.5-5.7 9.9-12.6 9.9-2.9 0-5.6-0.7-7.8-2-24.3 8.7-63.1 14.4-106.9 14.4-43.7 0-82.5-5.7-106.9-14.4-2.1 1.3-4.8 2-7.7 2-7 0-12.7-4.4-12.7-9.9 0-5.5 5.7-9.9 12.7-9.9h0.1z"/>
			<path id="&lt;Path&gt;" class="s13" d="m168.3 310.1l40.5-45.1c243.6 0 494.6 0 738.2 0l40.6 45.1 102.6 242.8-50.6-53.2c-305.8 0-617.6 0-923.3 0l-50.7 53.2z"/>
			<path id="&lt;Path&gt;" class="s14" d="m208.8 265l-92.5 234.7-50.7 53.2 102.7-242.8z"/>
			<path id="&lt;Path&gt;" class="s14" d="m947 265l92.6 234.7 50.6 53.2-102.6-242.8z"/>
			<path id="&lt;Path&gt;" class="s15" d="m208.8 265l3.9-9.9q365.2 0 730.4 0l3.9 9.9q-369.1 0-738.2 0z"/>
			<path id="&lt;Path&gt;" class="s16" d="m943.1 255.1l37.3 38 7.4 17.6-40.9-45.9z"/>
			<path id="&lt;Path&gt;" class="s16" d="m212.6 255.1l-37.3 38-7.4 17.6 40.9-45.9z"/>
			<path id="&lt;Path&gt;" class="s15" d="m105.8 526.3l10.5-26.6h923.3l10.4 26.6z"/>
			<path id="&lt;Path&gt;" class="s16" d="m105.8 526.3l-51.7 53.9 11.5-27.3 50.7-53.2z"/>
			<path id="&lt;Path&gt;" class="s6" d="m1101.8 580.2l-35.9-11.5-5.9-17-10-25.4z"/>
			<path id="&lt;Path&gt;" class="s16" d="m1050 526.3l51.8 53.9-11.6-27.3-50.6-53.2z"/>
			<path id="&lt;Path&gt;" class="s13" d="m519.3 223.2c-24.4 11.2-63.2 18.4-107 18.4-43.7 0-82.5-7.2-106.9-18.4-2.1 1.6-4.8 2.6-7.7 2.6-7 0-12.7-5.7-12.7-12.7 0-7 5.7-12.6 12.7-12.6h0.1l28.7-74.6c-2.6-1.7-4.3-4.7-4.3-8.1 0-5.4 4.4-9.7 9.8-9.7 3.2 0 6 1.5 7.8 3.9 20.5-9.8 53.8-16.1 91.4-16.1 37.6 0 70.8 6.3 91.3 16.1 1.8-2.4 4.6-3.9 7.8-3.9 5.4 0 9.8 4.3 9.8 9.7 0 4.6-3.1 8.5-7.4 9.5v74.5c4.1 2.1 7 6.4 7 11.3 0 7-5.7 12.7-12.7 12.7-2.9 0-5.6-1-7.7-2.6z"/>
			<path id="&lt;Path&gt;" class="s14" d="m519.3 223.2c-24.4 11.2-63.2 18.4-107 18.4-43.7 0-82.5-7.2-106.9-18.4-2.1 1.6-4.8 2.6-7.7 2.6-7 0-12.7-5.7-12.7-12.7 0-7 5.7-12.6 12.7-12.6h0.1l18.6-48.2-12.4 46.6c62.6 25.4 132.6 25.4 195.2 0l21.5-8.7 12-62.9v74.5c4.1 2.1 7 6.4 7 11.3 0 7-5.7 12.7-12.7 12.7-2.9 0-5.6-1-7.7-2.6z"/>
			<path id="&lt;Path&gt;" class="s5" d="m610.2 152.3h206.9l19.6 58.1c4.7 1.7 8.6 5 9.9 8.9 1.9 5.5-2.3 9.9-9.3 9.9-2.9 0-5.8-0.7-8.4-2-21.4 8.7-58.3 14.4-102 14.4-43.8 0-84.5-5.7-111.8-14.4-1.7 1.3-4.2 2-7.1 2-6.9 0-14.1-4.4-16-9.9-1.8-5.5 2.3-9.9 9.3-9.9h0.1z"/>
			<path id="&lt;Path&gt;" class="s12" d="m609.1 159.1h210.3l17.3 51.3c4.7 1.7 8.6 5 9.9 8.9 1.9 5.5-2.3 9.9-9.3 9.9-2.9 0-5.8-0.7-8.4-2-21.4 8.7-58.3 14.4-102 14.4-43.8 0-84.5-5.7-111.8-14.4-1.7 1.3-4.2 2-7.1 2-6.9 0-14.1-4.4-16-9.9-1.8-5.5 2.3-9.9 9.3-9.9h0.1z"/>
			<path id="&lt;Path&gt;" class="s13" d="m808.1 223.2c-20.6 11.2-57 18.4-100.7 18.4-43.7 0-85-7.2-113.1-18.4-1.6 1.6-4 2.6-6.9 2.6-7 0-14.5-5.7-16.9-12.7-2.4-7 1.4-12.6 8.4-12.6h0.1l3.5-74.6c-3.2-1.7-5.9-4.7-7-8.1-1.9-5.4 1-9.7 6.4-9.7 3.2 0 6.6 1.5 9.2 3.9 17.2-9.8 48.3-16.1 85.9-16.1 37.6 0 73 6.3 96.8 16.1 1-2.4 3.3-3.9 6.5-3.9 5.4 0 11.2 4.3 13.1 9.7 1.5 4.6-0.3 8.5-4.2 9.5l25.1 74.5c4.9 2.1 9.1 6.4 10.8 11.3 2.4 7-1.4 12.7-8.4 12.7-2.9 0-5.9-1-8.6-2.6z"/>
			<path id="&lt;Path&gt;" class="s14" d="m808.1 223.2c-20.6 11.2-57 18.4-100.7 18.4-43.7 0-85-7.2-113.1-18.4-1.6 1.6-4 2.6-6.9 2.6-7 0-14.5-5.7-16.9-12.7-2.4-7 1.4-12.6 8.4-12.6h0.1l2.2-48.2 3.4 46.6c71.2 25.4 141.2 25.4 195.2 0l18.6-8.7-9.2-62.9 25.1 74.5c4.9 2.1 9.1 6.4 10.8 11.3 2.4 7-1.4 12.7-8.4 12.7-2.9 0-5.9-1-8.6-2.6z"/>
			<path id="&lt;Path&gt;" class="s17" d="m398.3 115.9c28.7-1.2 52 6.6 52 17.4 0 10.8-23.3 20.4-52 21.6-28.7 1.1-52-4.5-52-15.3 0-10.7 23.3-22.5 52-23.7z"/>
			<path id="&lt;Path&gt;" class="s17" d="m660.1 115.9c28.7-1.2 52 6.6 52 17.4 0 10.8-23.3 20.4-52 21.6-28.8 1.1-52.1-4.5-52.1-15.3 0-10.7 23.3-22.5 52.1-23.7z"/>
		</g>
	</g>
</svg>