<svg version="1.2" xmlns="http://www.w3.org/2000/svg" viewBox="0 0 880 880" width="880" height="880">
	<title>finger-svg</title>
	<defs>
		<clipPath clipPathUnits="userSpaceOnUse" id="cp1">
			<path d="m0 0h880v880h-880z"/>
		</clipPath>
	</defs>
	<style>
		.s0 { fill: #d09055 } 
		.s1 { fill: #ddab7d } 
		.s2 { fill: #f0ccab } 
		.s3 { fill: #110f0d } 
		.s4 { fill: #cf051b;stroke: #930010;stroke-miterlimit:100 } 
	</style>
	<g id="g15497">
		<g id="g15499">
			<g id="Clip-Path: g15501" clip-path="url(#cp1)">
				<g id="g15501">
					<path id="path15629" class="s0" d="m671.1 696.2c-1.2-12.7-7.5-27.3-14.8-44.2l-0.1-0.2c-2.3-5.4-4.7-10.9-7-16.5-7.1-17.4-9.9-68.4-10.8-85.2-0.2-4-0.4-6.6-0.5-8-0.2-2.3 0.1-11.3 0.3-19.2 0.6-20.3 1-35.1-0.5-41.6-1.9-8.1-11.8-51.6-16.4-72.7 6.4-22.5 7-69.2 6.2-104.9v-1.4q0-0.4 0.1-1.5v-0.4c2.6-42.8 0.6-82.7-5.9-115.2 1.3-36.8-8.4-106.3-33.9-140.5-11.3-15.1-26.3-21.6-42.3-18.2-17.3 3.7-32.8 18.9-36.7 36.3-3.2 14.3-3.9 52.6-4.4 86.3-0.3 16.3-0.7 36.6-1.3 39.8-2.4 11.9-7 96.1-7.3 102.1-0.1 2.4-3.6 36.6-7.2 71.7-6.4-4.7-17-12-27.3-16.8l-1.7-0.6c-21.1-5.7-55.2 3.2-74.5 19.4-11.7 9.7-16 40-17.5 65.4l-1.3 0.4c-15-0.2-38.7-0.4-46 0.2-18.2 1.5-47.2 38.8-49.4 49.7l-7.4 33.5-0.1 1.3c-0.2 1.2-1.8 11.9-14.5 14.7-8.4 1.8-22.3 15.2-32.6 26.1l-2.5 2.6-0.3 3.6c-3.7 37.4-4.7 59.2-2.8 64.9 1.8 5.3 5.4 11.1 8 14.9 0.4 14.6 3.4 24.3 8.9 29 0.3 0.9 0.6 2.1 0.9 3.1 2.4 9.3 7 26.6 26.9 61.6 28.4 50.1 55.4 87.2 94.9 105.5 10.4 4.8 25.8 7.3 45.6 7.3 38.6 0 83.3-9.2 90.6-10.7l14.7-0.6c4.1 0.4 8.3 0.6 12.5 0.6 66.5 0 107.8-48.1 114.2-56 5.5-4.5 26.7-22.3 33.9-33.7 9.1-14.6 10.8-36.4 9.3-51.9z"/>
					<path id="path15601" fill-rule="evenodd" class="s1" d="m252.2 550.1c9.1-2 15.3-6.7 19.4-12 14.4 21.6 62.2 93.6 68.1 102.1 1.4 2.1 2.4 3.9 3.4 5.7 3.7 6.6 6.6 11.8 26.7 26.5 7.2 5.2 13.7 10.5 19.5 15.5-7.3 24.2-41.6 29.6-41.9 29.7l-0.6 0.1c-0.2 0.1-17.5 4.8-39.4-10.7-23.5-16.7-76.2-98.3-81.7-106.9 0.6-9.1 1.5-19.4 2.5-29.3 9.2-9.7 20.7-20 24-20.7zm114.8 147.8q-3.2 2.4-6.1 5.2-2.9 2.8-5.4 5.9c-1.7 2.1-3.3 4.3-4.6 6.8 2.5-1.2 4.7-2.8 6.9-4.4q3.2-2.4 6.1-5.2 2.8-2.8 5.4-5.9c1.7-2.1 3.3-4.3 4.6-6.8-2.5 1.2-4.8 2.8-6.9 4.4zm-35 15.4c3.9-2.1 7.5-4.6 11-7.3q5.3-4 10.2-8.4 4.8-4.4 9.2-9.4 2.2-2.4 4.2-5.1c0.7-1 1.3-1.9 1.9-2.9 0.5-0.9 1.1-2 1.2-3.1-0.5 1-1.4 1.7-2.1 2.4q-1.3 1.1-2.5 2.2l-5 4.2c-3.3 2.8-6.6 5.6-9.8 8.6q-4.8 4.4-9.4 9c-3.1 3.1-6.1 6.3-8.9 9.8z"/>
					<path id="path15603" class="s1" d="m258 678.3c5.1 1.9 10.3 3.5 15.5 4.8-6.4-8.1-13-17-19.3-25.8q-1.4-0.1-2.9-0.4-4.3-0.6-8.5-1.9-4.2-1.3-8.3-3.2-0.3-0.1-0.6-0.3c0.6 6.9 1.9 12.8 3.4 13.9 1.3 0.8 2.2 1.8 3 3.1 1.8 1.7 4.1 3.2 6.5 4.6 3.5 2 7.3 3.7 11.2 5.2z"/>
					<path id="path15605" fill-rule="evenodd" class="s1" d="m346.7 635.5c-6.2-9.1-60.1-90.1-70.4-105.6 1.1-2.8 1.7-5.3 1.9-7.4l7.2-33.3 0.1-0.1c1.2-6.5 26.4-37.2 36.1-37.9 8.6-0.7 45.9-0.2 54.4 0 6.2 20.6 20.5 67.4 30.7 94.8 2.5 6.7 25.9 65.3 30.8 70.8 1.7 1.9 10.4 14.1 18 24.8 9.3 12.9 15.4 21.5 18.1 24.9q-0.1 2.6-0.1 5.2c-3.6-4.2-8-8.9-11.3-11.5l-0.3-0.2-0.4-0.1c-16.2-4.6-39.8 25.9-40.8 27.2l-1.1 1.5 19.5 19.9c-3.1 0.5-8.2 0.7-13.5-1.8-4.6-2.2-11.2-8.1-19.6-15.5-8.4-7.4-18.8-16.6-31.2-25.7-18.6-13.6-21.1-18.1-24.3-23.8-1-1.8-2.2-3.8-3.8-6.2zm82.9 2.9c-3.8 1.6-7.4 3.5-11 5.5q-5.3 3-10.4 6.3c-6.8 4.4-13.4 9.2-19.6 14.7 4-1.3 7.7-3.1 11.3-5q5.5-2.8 10.6-6.1 5.1-3.4 10-7.2c3.2-2.5 6.3-5.1 9.1-8.2zm-52.6 23.5c5.4-3 10.3-6.8 15.2-10.3l14.7-10.8c4.8-3.6 9.8-7.1 14.8-10.3 2.6-1.6 5.1-3.2 7.8-4.4 2.7-1.3 5.5-2.4 8.6-2-1.4-0.7-3.1-0.9-4.6-0.8q-2.4 0.2-4.7 0.8c-3 0.9-5.9 2.1-8.7 3.5-5.6 2.8-10.7 6.2-15.7 9.8-5 3.7-9.7 7.5-14.3 11.6-4.6 4.1-8.8 8.5-13.1 12.9z"/>
					<path id="path15607" fill-rule="evenodd" class="s1" d="m617.7 776.7l-0.5 0.3-0.3 0.4c-0.1 0.2-2.9 3.8-8.1 9.1h-0.8c-2.2-0.1-4.4 0-6.6-0.4l-6.5-0.8-1.6-0.2-1.6-0.4-3.2-0.8c-4.3-0.8-8.3-2.6-12.4-4l-5.7-3-1.5-0.7-1.3-0.9-2.7-1.8c-7-4.9-13-11.1-17.5-18.2-2.3-3.5-4.1-7.4-5.6-11.2q-0.3-0.8-0.6-1.6c11.2 3.1 23.5 4.8 33.5 5.6 1.7 2.3 3.6 4.5 5.6 6.6 2.7 2.7 5.6 5.3 8.8 7.4 3.1 2.2 6.6 3.9 10.2 5.2 3.6 1.2 7.4 1.7 11.1 1.7-3.7-0.4-7.4-1.2-10.7-2.7-3.4-1.6-6.5-3.5-9.3-5.9-2.8-2.3-5.4-5-7.7-7.8q-1.6-2-3-4.1c8.1 1.4 14.8 2.3 18.2 2.3q1.4 0 2-0.2l-2.3-8.1q0.1-0.1 0.4-0.1c-4.5 0.4-46.8-6.8-68.1-16.2-20.7-9.1-38.4-18.5-45.9-42.3-7.1-22.7 5.9-49.2 22.3-57.7 15.8-8.1 47.2-5.5 69.6 0.4 13.2 3.4 28.3 13.7 42.8 23.6 6.7 4.5 13 8.8 19.2 12.5 3 5.9 4.9 12.1 6.3 18.4 1.4 6.6 2.1 13.3 1.6 19.9-0.4 6.6-2.1 13.1-5.1 19-1.6 2.9-3.4 5.7-5.5 8.4-2.1 2.6-4.6 5-7.1 7.4 3.1-1.6 6-3.7 8.6-6 2.6-2.4 4.9-5.1 6.8-8.2 2-3 3.5-6.3 4.6-9.7 1-3.5 1.7-7 1.9-10.6 0.5-7.1-0.4-14.3-2.6-21-1.9-6.2-4.7-12.2-8.9-17.2q2.7 1.6 5.3 3.1c6.1 14.1 11.7 27.3 12.6 37.1 1.3 13.5-0.4 31.8-7.1 42.6-6.7 10.6-31.4 30.6-31.6 30.8zm-45.1-123.2v-0.3c-1.7-6.4-20.7-13.2-30.4-15.9-9.4-2.7-26.1-6.2-32.1-0.5-9.8 9.5-13.5 49.6-11.7 55.7 1.5 5.1 17.8 13.1 29 16.9 6 2 13.3 3.9 19.7 3.9 4 0 7.6-0.7 10.3-2.7 12.8-9.3 15-51.9 15.2-56.8z"/>
					<path id="path15609" class="s1" d="m552.5 680.7c-0.8 4.3-0.5 8.8 1 13.1 1.1 3.1 2.8 6.1 5.2 8.7 5.2-9.2 7.9-27.2 9-39.7-3.7 1.5-6.9 3.5-9.4 6.3-3 3.2-5 7.3-5.8 11.6z"/>
					<path id="path15611" class="s2" d="m541.1 641.4c-8-2.3-15-3.4-20.1-3.4-3.8 0-6.6 0.6-7.9 1.9-8 7.7-12.3 45.6-10.6 51.4 1 2.5 14.6 10.8 30.1 15.3 10.7 3.1 18.6 3.3 22.3 0.6 1.2-0.9 2.2-2.1 3.2-3.7-3.2-2-5.9-4.9-7.7-8.4-0.5-1.2-1-2.4-1.4-3.6q-0.5-1.9-0.9-3.8-0.1-2-0.1-3.9c0.1-1.3 0.1-2.6 0.4-3.9 0.9-5.1 3.6-9.9 7.6-13.2 3.4-2.9 7.6-4.5 11.8-4.8 0.3-3 0.5-5.7 0.6-7.8-1.3-2.5-12-8.5-27.3-12.7z"/>
					<path id="path15613" class="s1" d="m608.4 787h-0.4c-2.2 0.1-4.4 0.4-6.7 0.2l-6.6-0.3-1.7-0.1-1.6-0.3-3.4-0.5c-4.4-0.5-8.7-2-13-3.2l-6.3-2.6-1.6-0.6-1.5-0.9-3-1.6c-7.8-4.6-14.9-10.8-20.4-18.2-2.9-3.7-5.2-7.7-7.3-11.9-0.9-2.2-1.9-4.3-2.6-6.7q-0.1-0.4-0.2-0.8c-16.6-6.1-33.8-14.9-42.2-19.3-11 4-31.1 9.1-48.9 10.6-1 5.3-1.6 10.8-1.8 16.2-0.6 11.9 0.7 23.9 4.2 35.3 3.5 11.4 9.6 22 18 30.7 4.1 4.4 9 8.1 14 11.4 2.6 1.7 5.3 3.2 8 4.5q0.9-0.2 1-0.2l0.7-0.1 16.6-0.6 0.2 0.1c53.2 5 90.6-25 106.5-41.1z"/>
					<path id="path15615" class="s2" d="m425.2 688.2l18.9 19.4 0.8 0.3c0.8 0.3 18.9 6.8 38-6.1-2.8-4.5-5.1-9.5-7-15.3q-1.1-3.7-1.7-7.4c-3.7-4.5-9.9-11.8-14.3-15.3-2.4-0.5-5.1 0-8 1.2 1.4 2.9 1.8 6.3 1 9.6-0.8 3.4-2.8 6.6-5.7 8.7-2.9 2.1-6.5 3-9.9 2.8-2.9-0.1-5.7-1.1-8-2.7-1.5 1.8-2.9 3.4-4.1 4.8z"/>
					<path id="path15617" class="s2" d="m502.4 618.7c4-2 8.7-3.5 13.8-4.5-2.1-5.3-5.9-12.4-10.2-13.5-1.8-0.5-4.6-0.4-7.9 0 0.5 2.5 0.2 5.3-1.2 7.8-1.7 3.4-5.2 5.7-8.7 6.5-3.6 0.8-7.3 0.5-10.6-0.8-2.6-1.1-5.1-2.8-6.5-5.1-2 1-3.5 2.1-4.3 3.1-2 2.9 3.6 19.8 10.8 36.4 5.1-13.4 14.4-24.5 24.8-29.9z"/>
					<path id="path15619" class="s2" d="m444.7 679.8c2.2-1.5 3.9-3.7 5.1-6.2 1.1-2.5 1.7-5.4 2.1-8.6-7.6 3.2-16 11.2-22 17.8 2.5 0.3 5 0.4 7.3 0 2.8-0.4 5.4-1.4 7.5-3z"/>
					<path id="path15621" class="s1" d="m356.6 833.4c31.1 14.4 112.7-1.6 125.9-4.3-2.6-1.1-5.1-2.3-7.6-3.8-5.3-3-10.5-6.5-15-10.8-9.1-8.4-16.2-19.1-20.5-30.8-3.7-9.9-5.7-20.5-6.4-31.1q-0.2 2.2-0.5 4.3c-1.2 7.7-3 15.2-5.7 22.4-2.9 7.2-6.7 13.9-11.5 19.8 4.3-6.4 7.3-13.3 9.5-20.5 1.9-7.2 3-14.7 3.5-22.1 0.4-7.5 0.1-15-0.6-22.4q-0.3-3-0.7-6c-7.8-4.4-18.4-12.5-26.6-19.1-6.7 8.3-23.4 25.5-45.2 23.8q-1.7-0.2-3.3-0.3-0.5 3.8-1.3 7.7c-1.2 5.9-2.8 11.7-4.9 17.4-2.1 5.6-4.8 11-8 16.1-3.4 5-7.4 9.4-12 13.2 4.3-4 8.1-8.7 11.1-13.8 2.8-5.2 5.1-10.6 6.9-16.2 1.7-5.7 3-11.5 3.8-17.3q0.5-3.8 0.8-7.6c-9.3-1.4-15.1-3.7-19.5-6.2-7.5-1.6-16.5-4.9-26.3-11.8-7.4-5.3-17.3-16.2-27.7-29.2-6-0.5-12-1.3-18-2.5-4.2-0.8-8.4-1.9-12.7-3.4q-0.2-0.1-0.5-0.2c2.5 9.2 7.6 25.1 24.8 55.3 27.8 49 52.2 82.7 88.2 99.4z"/>
					<path id="path15623" class="s2" d="m487.2 610.8c2.7-0.6 5.2-1.9 7-4.1 1.3-1.6 2.1-3.6 2.7-5.8-8 1.2-18.5 4.4-24.9 7.7 2.1 1.2 4.3 2 6.5 2.4 2.9 0.5 5.9 0.5 8.7-0.2z"/>
					<path id="path15625" fill-rule="evenodd" class="s1" d="m382.2 442.4c0.9-21.9 4.9-54.3 12.5-60.7 15.2-12.7 44.5-20.6 60.7-16.5 10 4.7 20.7 12.2 26.2 16.4 2.8 5.3 15.7 32.1 20 76.4l0.1 0.6c0.1 0.5 11.9 47.2 12.6 71.2 0.4 13.5 6.5 34.2 11.9 52.4 3.3 11.3 7.1 23.9 7.9 30.4-4.7 0.1-9.3 0.4-13.6 0.9-2.1-5.5-6.7-15.2-13.5-16.9-8.5-2.3-38.3 5.8-43.6 13.1-4.4 6.1 6.6 32.5 12.2 45q0 0.1 0 0.2c-3.7-5-8.6-11.8-13.1-18.2-10.4-14.5-16.8-23.4-18.6-25.5-3.4-4.2-23.9-53.8-29.2-68.2-11.5-30.6-28-85.7-32.5-100.6zm115.3 111.1c-4 0-7.8 0.3-11.7 0.8q-5.7 0.8-11.3 2-5.7 1.1-11.2 2.7c-3.7 1-7.4 2.4-11.1 3.5 2 0.4 4 0.3 5.9 0.3q2.9-0.2 5.8-0.5 5.8-0.7 11.4-1.9 5.7-1.2 11.2-2.8c3.7-1.1 7.4-2.4 11-4.1zm-67.4 5l18.1-5.6c6-1.7 11.9-3.5 17.9-5 6.1-1.6 12.1-2.9 18.2-3.7 6.1-0.8 12.3-1.2 18.5 0.3-5.6-3.2-12.4-3.8-18.8-3.6-6.4 0.2-12.7 1.3-18.9 2.8-6.2 1.7-12.2 3.7-18 6.1-5.9 2.5-11.6 5.3-17 8.7z"/>
					<path id="path15627" class="s1" d="m510 456.8c1.1 4.5 12.1 48.6 12.8 72.7 0 2.7 0.4 5.8 0.9 9.1 4.3-4.3 7.8-10 10.8-15.9 3.5-7.2 6.3-15 8.7-22.9 2.3-7.9 4.3-16 5.9-24.1 1.7-8.1 3.1-16.4 4.1-24.6-0.3 8.3-1 16.6-2 24.9-0.9 8.3-2.2 16.6-3.9 24.9-1.7 8.2-3.9 16.4-7 24.4-1.6 4-3.4 7.9-5.6 11.8-1.4 2.3-3 4.6-4.8 6.8q0.5-0.2 0.9-0.3c6.1-3.8 11.9-7.9 17.5-12.4 8.1-6.6 15.7-13.9 22.2-22 6.5-8.1 11.9-17.2 15.5-27.1 3.6-9.8 5.2-20.4 4.6-31 1.3 10.5 0.5 21.4-2.6 31.7-3 10.3-8 20.1-14.1 28.9-6.2 8.9-13.5 17-21.4 24.3-0.5 0.5-1 0.9-1.6 1.4q2.8-1 5.4-2.1c5.5-2.3 11-4.8 16.1-7.8 5.1-3.1 10-6.5 14.2-10.9-3.7 4.8-8.2 8.9-13 12.6-4.9 3.8-10.1 6.9-15.4 9.9-5.4 3-10.9 5.6-16.5 8q-2.9 1.3-5.8 2.5-4.1 3.1-8.5 5.9c2.1 8 4.6 16.4 6.9 24.3 4.7 15.7 7.7 26.3 8.3 33 8.9 0.5 17.9 1.7 26.4 3.5 0.4-0.6 0.8-1.4 1.2-2.1q1.3-2.5 2.5-5.3c1.6-3.6 3.1-7.4 4.5-11.1 2.8-7.6 5.5-15.3 8-23 5.2-15.4 10-30.9 14.6-46.5-3.2 15.9-6.7 31.8-10.5 47.7-1.9 7.9-3.9 15.8-6.1 23.7-1.1 4-2.2 7.9-3.5 11.9q-1 3-2.3 6-0.1 0.3-0.2 0.5 0.4 0.1 0.9 0.3c14.6 3.8 30.3 14.5 45.4 24.8 5.1 3.4 9.9 6.7 14.7 9.7q-1.4-3.1-2.7-6.4c-8-19.7-10.7-68.9-11.9-89.9-0.2-3.6-0.3-6.3-0.4-7.5-0.3-3.2-0.1-11.1 0.2-21 0.5-13.8 1-32.7-0.1-37.8-1.9-8.2-11.5-50.5-16.2-72-5.1 0.5-9.9 0.7-14.9 0.6-6.3-0.2-12.6-0.8-18.8-2-6.2-1.2-12.3-3-18-5.5-5.8-2.6-11-6-15.7-10.1 5.1 3.5 10.6 6.3 16.4 8.1 5.8 1.8 11.8 2.9 17.8 3.3 6 0.4 12.1 0.4 18.1-0.2 5.1-0.5 10.2-1.3 15.1-2.4 4.4-15.4 6.5-50 5.7-96.2q-1.4 0.5-2.8 0.9c-3.4 0.8-6.7 1.2-9.9 1.4-6.6 0.5-13 0.4-19.4 0-12.7-0.9-25.3-2.9-37.6-5.5 12.6 1.2 25.2 1.8 37.7 1.3 6.2-0.3 12.4-0.9 18.4-2.1 3-0.6 6-1.3 8.7-2.3 1.3-0.4 2.6-1 3.6-1.6 0.6-0.3 1-0.7 1.4-1 2.8-46.6-0.5-81.1-4.3-103.7q-1 0.6-2 1.2c-3 1.5-6.2 2.5-9.2 3.2-6.2 1.5-12.4 1.8-18.5 1.8-12.2-0.2-24.1-1.9-35.8-4.5 11.9 1.2 23.9 1.5 35.6 0.3 5.8-0.7 11.6-1.8 16.9-3.7 4.5-1.6 8.7-4 11.4-7.2l-0.1-0.4v-0.5c1.5-35-8.6-102.2-31-132.3-7.7-10.3-17.1-14.7-27.2-12.5-11.6 2.4-22.7 13.4-25.3 25-2.9 12.9-3.6 53.6-4.1 83.3-0.4 24.2-0.7 38.1-1.6 42.5-1.9 9.8-6.9 95-7 99.6 0 2.1-6.5 65.2-8.5 84.5l-0.4 3.8-1.9 19.5c4 13.1 8 30.5 10.1 51.9z"/>
					<path id="path15629 copy" fill-rule="evenodd" class="s3" d="m661.8 748.1c-7.2 11.4-28.4 29.2-33.9 33.7-6.4 7.9-47.7 56-114.2 56-4.2 0-8.4-0.2-12.5-0.6l-14.7 0.6c-7.3 1.5-52 10.7-90.6 10.7-19.8 0-35.2-2.5-45.6-7.3-39.5-18.3-66.5-55.4-94.9-105.5-19.9-35-24.5-52.3-26.9-61.6-0.3-1-0.6-2.2-0.9-3.1-5.5-4.7-8.5-14.4-8.9-29-2.6-3.8-6.2-9.6-8-14.9-1.9-5.7-0.9-27.5 2.8-64.9l0.3-3.6 2.5-2.6c10.3-10.9 24.2-24.3 32.6-26.1 12.7-2.8 14.3-13.5 14.5-14.7l0.1-1.3 7.4-33.5c2.2-10.9 31.2-48.2 49.4-49.7 7.3-0.6 31-0.4 46-0.2l1.3-0.4c1.5-25.4 5.8-55.7 17.5-65.4 19.3-16.2 53.4-25.1 74.5-19.4l1.7 0.6c10.3 4.8 20.9 12.1 27.3 16.8 3.6-35.1 7.1-69.3 7.2-71.7 0.3-6 4.9-90.2 7.3-102.1 0.6-3.2 1-23.5 1.3-39.8 0.5-33.7 1.2-72 4.4-86.3 3.9-17.4 19.4-32.6 36.7-36.3 16-3.4 31 3.1 42.3 18.2 25.5 34.2 35.2 103.7 33.9 140.5 6.5 32.5 8.5 72.4 5.9 115.2v0.4q-0.1 1.1-0.1 1.5v1.4c0.8 35.7 0.2 82.4-6.2 104.9 4.6 21.1 14.5 64.6 16.4 72.7 1.5 6.5 1.1 21.3 0.5 41.6-0.2 7.9-0.5 16.9-0.3 19.2 0.1 1.4 0.3 4 0.5 8 0.9 16.8 3.7 67.8 10.8 85.2 2.3 5.6 4.7 11.1 7 16.5l0.1 0.2c7.3 16.9 13.6 31.5 14.8 44.2 1.5 15.5-0.2 37.3-9.3 51.9zm-44.2 22.9c0.2-0.2 25-20.2 31.6-30.8 6.7-10.7 8.4-29.1 7.1-42.6-0.9-9.7-6.4-23-12.5-37.1q-2.7-1.4-5.3-3c4.1 4.9 6.9 10.9 8.9 17.1 2.1 6.7 3 13.9 2.6 21-0.3 3.6-0.9 7.2-2 10.6-1.1 3.4-2.6 6.8-4.5 9.8-1.9 3-4.3 5.7-6.8 8.1-2.7 2.4-5.6 4.4-8.7 6 2.6-2.4 5-4.8 7.1-7.4 2.2-2.6 4-5.4 5.5-8.4 3-5.9 4.7-12.4 5.1-19 0.6-6.6-0.1-13.3-1.5-19.9-1.4-6.2-3.4-12.5-6.4-18.3-6.2-3.7-12.5-8.1-19.1-12.6-14.6-9.9-29.6-20.1-42.8-23.6-22.5-5.9-53.8-8.5-69.7-0.3-16.4 8.4-29.4 34.9-22.2 57.7 7.4 23.7 25.2 33.2 45.9 42.3 21.2 9.3 63.5 16.6 68 16.1q-0.2 0.1-0.4 0.1l2.4 8.2q-0.7 0.2-2 0.2c-3.5 0-10.2-0.9-18.3-2.4q1.5 2.1 3 4.1c2.3 2.9 4.9 5.5 7.7 7.9 2.8 2.3 6 4.3 9.3 5.8 3.4 1.6 7 2.3 10.8 2.7-3.8 0-7.6-0.4-11.2-1.7-3.6-1.2-7-3-10.2-5.1-3.1-2.2-6.1-4.7-8.7-7.5-2-2.1-3.9-4.2-5.7-6.6-9.9-0.8-22.3-2.4-33.4-5.6q0.2 0.8 0.5 1.6c1.5 3.9 3.3 7.7 5.6 11.2 4.6 7.1 10.5 13.4 17.6 18.2l2.6 1.8 1.4 0.9 1.4 0.8 5.8 2.9c4 1.5 8 3.2 12.3 4.1l3.2 0.7 1.6 0.4 1.6 0.2 6.5 0.9c2.2 0.4 4.4 0.3 6.6 0.4h0.9c5.2-5.3 7.9-9 8.1-9.1l0.3-0.5zm-19.7-34.2q0 0 0 0 0 0 0 0zm-25.4-89.2l0.1 0.3-0.1 0.3c-0.2 4.9-2.4 47.5-15.2 56.8-2.7 2-6.3 2.7-10.3 2.7-6.4 0-13.6-1.9-19.7-3.9-11.2-3.8-27.4-11.8-28.9-16.9-1.8-6.1 1.8-46.2 11.7-55.7 5.9-5.7 22.6-2.2 32 0.5 9.8 2.7 28.7 9.5 30.4 15.9zm-329 25.5c2.5 9.1 7.6 25.1 24.8 55.3 27.8 49 52.2 82.7 88.2 99.4 31.1 14.4 112.7-1.6 126-4.3-2.7-1.1-5.2-2.4-7.7-3.8-5.3-3-10.5-6.5-15-10.8-9.1-8.4-16.2-19.1-20.5-30.8-3.7-10-5.7-20.5-6.4-31.1q-0.2 2.2-0.5 4.3c-1.2 7.6-3 15.2-5.7 22.4-2.9 7.1-6.7 13.9-11.5 19.7 4.3-6.3 7.4-13.2 9.5-20.4 1.9-7.2 3-14.7 3.5-22.1 0.4-7.5 0.1-15-0.6-22.4q-0.3-3-0.7-6c-7.8-4.4-18.4-12.6-26.6-19.1-6.7 8.3-23.4 25.5-45.2 23.8q-1.7-0.2-3.2-0.4-0.6 3.9-1.4 7.8c-1.2 5.9-2.8 11.7-4.9 17.3-2.1 5.7-4.8 11.1-8 16.2-3.4 5-7.4 9.4-12 13.2 4.4-4 8.1-8.7 11.1-13.8 2.9-5.2 5.1-10.6 6.9-16.2 1.7-5.7 3-11.5 3.8-17.3q0.5-3.8 0.8-7.6c-9.3-1.4-15.1-3.7-19.5-6.2-7.5-1.6-16.5-5-26.3-11.9-7.4-5.2-17.3-16.2-27.6-29.2-6.1-0.4-12.1-1.2-18-2.4-4.3-0.8-8.5-1.9-12.8-3.4q-0.2-0.1-0.5-0.2zm-15.4-107.9c-1 9.9-1.9 20.2-2.5 29.3 5.5 8.5 58.2 90.2 81.7 106.9 21.9 15.5 39.2 10.8 39.4 10.7l0.6-0.1c0.3-0.1 34.6-5.5 41.9-29.7-5.8-5-12.3-10.3-19.5-15.5-20-14.7-23-19.9-26.7-26.5-1-1.8-2-3.6-3.4-5.7-5.9-8.5-53.7-80.5-68.1-102.1-4.1 5.2-10.3 10-19.4 12-3.3 0.7-14.8 11-24 20.7zm50-48.3c-0.2 2-0.8 4.6-1.9 7.4 10.3 15.5 64.2 96.5 70.4 105.5 1.6 2.4 2.8 4.5 3.8 6.3 3.2 5.7 5.7 10.2 24.3 23.8 12.4 9.1 22.8 18.3 31.2 25.7 8.4 7.4 15 13.3 19.6 15.4 5.3 2.5 10.4 2.3 13.5 1.9l-19.5-19.9 1.1-1.5c1-1.3 24.6-31.9 40.8-27.3l0.4 0.2 0.3 0.2c3.3 2.6 7.7 7.3 11.3 11.5q0-2.6 0.2-5.2c-2.8-3.4-8.9-12-18.1-24.9-7.7-10.7-16.4-22.9-18.1-24.8-4.9-5.5-28.3-64.1-30.8-70.8-10.2-27.4-24.5-74.2-30.7-94.9-8.5-0.1-45.8-0.6-54.4 0.1-9.7 0.7-34.9 31.4-36.1 37.9v0.1zm114 129.1c-5 3.5-9.8 7.3-15.2 10.3 4.3-4.4 8.5-8.8 13.1-12.9 4.5-4.1 9.3-8 14.2-11.6 5-3.6 10.2-7 15.8-9.8 2.7-1.4 5.6-2.6 8.7-3.5q2.3-0.6 4.6-0.8c1.6-0.1 3.3 0.1 4.7 0.7-3.1-0.3-5.9 0.8-8.6 2.1-2.7 1.2-5.3 2.8-7.8 4.4-5.1 3.2-10 6.7-14.8 10.3zm-10-209.2c4.4 14.9 21 70 32.4 100.6 5.4 14.4 25.9 64 29.2 68.2 1.9 2.1 8.3 11 18.6 25.5 4.6 6.3 9.5 13.2 13.1 18.2q0.1-0.1 0.1-0.2c-5.7-12.5-16.7-38.9-12.2-45 5.2-7.3 35-15.4 43.6-13.2 6.7 1.8 11.3 11.5 13.5 17 4.3-0.5 8.8-0.8 13.5-0.9-0.8-6.5-4.5-19.1-7.9-30.4-5.4-18.2-11.5-38.9-11.9-52.4-0.7-24-12.5-70.7-12.6-71.2l-0.1-0.6c-4.3-44.3-17.2-71.1-19.9-76.4-5.6-4.2-16.3-11.7-26.2-16.4-16.2-4.1-45.6 3.8-60.8 16.5-7.6 6.4-11.5 38.8-12.4 60.7zm65.9 110.5l-18 5.6c5.3-3.4 11.1-6.2 16.9-8.7 5.8-2.4 11.9-4.4 18-6.1 6.2-1.5 12.6-2.6 19-2.8 6.4-0.2 13.1 0.4 18.7 3.6-6.2-1.5-12.3-1.1-18.4-0.3-6.1 0.8-12.2 2.1-18.2 3.7-6 1.4-12 3.2-18 5zm-81.1 145c2.1-1.6 4.3-3.2 6.9-4.4-1.3 2.5-2.9 4.7-4.6 6.8q-2.6 3.1-5.5 5.9-2.9 2.8-6.1 5.2c-2.1 1.6-4.4 3.2-6.9 4.4 1.3-2.5 2.9-4.7 4.6-6.8q2.6-3.1 5.5-5.9 2.8-2.8 6.1-5.2zm-133.2-46.4c0.6 6.9 2 12.8 3.4 13.9 1.3 0.8 2.3 1.8 3 3.1 1.8 1.7 4.2 3.2 6.5 4.6 3.5 2 7.3 3.7 11.3 5.2 5 1.9 10.2 3.5 15.5 4.8-6.5-8.1-13.1-17-19.4-25.8q-1.4-0.1-2.8-0.4-4.3-0.6-8.5-1.9-4.3-1.3-8.3-3.2-0.3-0.1-0.7-0.3zm243.8-2.9c5.1-13.4 14.4-24.6 24.8-29.9 3.9-2 8.6-3.5 13.8-4.5-2.2-5.3-6-12.4-10.3-13.5-1.8-0.5-4.5-0.4-7.8 0 0.4 2.5 0.1 5.3-1.2 7.8-1.8 3.4-5.2 5.7-8.8 6.5-3.6 0.8-7.3 0.4-10.6-0.8-2.6-1.1-5-2.8-6.5-5.1-2 1-3.5 2.1-4.2 3.1-2.1 2.9 3.6 19.7 10.8 36.4zm0.9-37.6c2.9 0.5 5.9 0.5 8.6-0.2 2.8-0.6 5.3-1.9 7-4.1 1.3-1.6 2.1-3.6 2.7-5.8-8 1.2-18.5 4.4-24.8 7.6 2 1.3 4.2 2.1 6.5 2.5zm-49.2 72.4c-1.6 1.7-3 3.4-4.1 4.8l18.9 19.4 0.7 0.3c0.8 0.3 18.9 6.8 38.1-6.2-2.8-4.4-5.2-9.4-7-15.2q-1.2-3.7-1.8-7.4c-3.7-4.5-9.9-11.8-14.2-15.3-2.4-0.5-5.2 0-8 1.2 1.3 2.9 1.7 6.3 0.9 9.6-0.7 3.4-2.7 6.6-5.6 8.7-2.9 2.1-6.5 3-9.9 2.8-3-0.1-5.7-1.1-8-2.7zm7.8-0.6c2.8-0.4 5.4-1.4 7.6-3 2.1-1.5 3.8-3.7 5-6.2 1.2-2.5 1.8-5.4 2.1-8.6-7.5 3.2-16 11.1-22 17.8 2.6 0.3 5 0.4 7.3 0zm62.7-277.9c4 13.1 8 30.5 10.1 51.9 1.2 4.5 12.1 48.6 12.8 72.7 0.1 2.7 0.4 5.8 1 9.1 4.3-4.3 7.8-10 10.7-15.9 3.6-7.2 6.3-15 8.7-22.9 2.4-7.9 4.3-16 6-24.1 1.6-8.2 3-16.4 4-24.6-0.3 8.3-1 16.6-1.9 24.9-1 8.3-2.2 16.6-4 24.9-1.7 8.2-3.9 16.4-7 24.4-1.5 4-3.4 7.9-5.6 11.8-1.4 2.3-2.9 4.6-4.8 6.8q0.5-0.2 1-0.3c6-3.8 11.9-7.9 17.5-12.4 8.1-6.6 15.6-13.9 22.1-22 6.5-8.1 12-17.2 15.5-27.1 3.7-9.8 5.2-20.4 4.7-31 1.2 10.5 0.4 21.4-2.7 31.7-2.9 10.3-7.9 20.1-14.1 28.9-6.1 8.9-13.4 17-21.4 24.3-0.5 0.5-1 0.9-1.5 1.3q2.7-0.9 5.4-2c5.5-2.3 10.9-4.8 16-7.8 5.1-3.1 10-6.5 14.2-10.9-3.6 4.8-8.2 8.9-13 12.6-4.8 3.8-10.1 6.9-15.4 9.9-5.3 3-10.8 5.6-16.4 8q-2.9 1.3-5.8 2.5-4.2 3.1-8.5 5.9c2 8 4.5 16.4 6.9 24.3 4.6 15.7 7.7 26.3 8.2 33 8.9 0.5 18 1.7 26.5 3.5 0.4-0.6 0.8-1.4 1.2-2.1q1.3-2.5 2.5-5.3c1.6-3.6 3-7.4 4.4-11.1 2.9-7.6 5.5-15.3 8.1-23 5.1-15.4 9.9-31 14.6-46.6-3.3 16-6.8 31.9-10.5 47.8-1.9 7.9-3.9 15.8-6.1 23.7-1.1 4-2.3 7.9-3.6 11.9q-1 2.9-2.2 6-0.1 0.3-0.3 0.5 0.5 0.1 0.9 0.3c14.6 3.8 30.3 14.5 45.5 24.8 5 3.4 9.9 6.7 14.6 9.7q-1.3-3.1-2.7-6.4c-8-19.7-10.7-68.9-11.8-89.9-0.2-3.6-0.4-6.3-0.5-7.5-0.3-3.2 0-11.1 0.3-21 0.4-13.8 1-32.7-0.2-37.8-1.9-8.2-11.5-50.5-16.2-72-5 0.5-9.9 0.7-14.9 0.6-6.3-0.2-12.6-0.8-18.8-2-6.2-1.2-12.2-3-18-5.5-5.7-2.6-11-6-15.6-10.1 5.1 3.5 10.6 6.3 16.4 8.1 5.8 1.8 11.7 2.9 17.8 3.3 6 0.4 12 0.3 18-0.2 5.1-0.5 10.3-1.3 15.2-2.4 4.4-15.4 6.5-50 5.7-96.2q-1.5 0.5-2.9 0.9c-3.3 0.8-6.6 1.2-9.9 1.4-6.5 0.5-12.9 0.4-19.3 0-12.8-0.9-25.3-2.9-37.7-5.5 12.6 1.2 25.2 1.8 37.7 1.3 6.3-0.3 12.5-0.9 18.5-2.1 3-0.6 5.9-1.3 8.6-2.3 1.4-0.4 2.6-1 3.7-1.6 0.5-0.3 1-0.7 1.3-1 2.8-46.6-0.4-81.1-4.2-103.7q-1.1 0.6-2.1 1.2c-3 1.5-6.1 2.5-9.2 3.2-6.2 1.5-12.4 1.8-18.5 1.8-12.1-0.2-24.1-1.9-35.8-4.5 11.9 1.2 23.9 1.5 35.6 0.3 5.8-0.7 11.6-1.8 16.9-3.7 4.6-1.6 8.8-4 11.4-7.2l-0.1-0.4v-0.5c1.6-35-8.6-102.2-30.9-132.3-7.7-10.3-17.1-14.7-27.3-12.5-11.6 2.4-22.7 13.4-25.3 25-2.9 12.9-3.6 53.6-4.1 83.3-0.4 24.2-0.7 38.1-1.5 42.5-2 9.8-6.9 95-7 99.6 0 2.1-6.5 65.2-8.5 84.5l-0.4 3.8h-0.1zm-14 149.5c3.9-0.5 7.7-0.9 11.7-0.8-3.6 1.6-7.3 2.9-11 4q-5.5 1.7-11.2 2.8-5.6 1.2-11.4 1.9-2.9 0.3-5.8 0.5c-1.9 0-3.9 0.2-5.9-0.2 3.7-1.2 7.4-2.6 11.1-3.5q5.5-1.6 11.2-2.8 5.6-1.2 11.3-1.9zm-67.2 89.5c3.6-2 7.2-3.9 11-5.5-2.8 3.1-5.9 5.8-9.2 8.3q-4.8 3.8-9.9 7.1-5.2 3.3-10.6 6.2c-3.6 1.9-7.3 3.7-11.3 4.9 6.2-5.5 12.8-10.2 19.6-14.7q5.1-3.3 10.4-6.3zm-75.6 62.1c-3.5 2.7-7.1 5.2-11 7.4 2.8-3.5 5.8-6.7 8.9-9.9q4.6-4.6 9.4-9c3.2-3 6.5-5.8 9.8-8.6l5-4.2q1.2-1.1 2.4-2.2c0.8-0.7 1.7-1.4 2.2-2.4-0.1 1.1-0.7 2.2-1.2 3.2-0.6 0.9-1.2 1.9-1.9 2.8q-2 2.7-4.2 5.2-4.4 4.9-9.3 9.3-4.8 4.4-10.1 8.4zm-118.1-77.9c1.5 4.6 6.1 11.3 7.8 13.6 1.5 1.6 3.3 3.2 5.2 4.7q3.1 2.6 6.6 4.7c2.4 1.4 4.8 2.7 7.4 3.8 0.3 0.1 0.5 0.2 0.8 0.3-11.3-15.8-21.5-31.1-27.9-40.8-0.3 7.1-0.3 12.2 0.1 13.7zm383.4 159h-0.3c-2.2 0-4.4 0.4-6.7 0.1l-6.6-0.3-1.7-0.1-1.6-0.3-3.4-0.5c-4.4-0.5-8.7-2-13-3.2l-6.3-2.6-1.6-0.6-1.5-0.8-3-1.7c-7.8-4.6-14.9-10.8-20.4-18.2-2.9-3.6-5.2-7.7-7.3-11.9-0.9-2.2-1.9-4.3-2.6-6.6q-0.1-0.5-0.2-0.9c-16.6-6.1-33.8-14.9-42.2-19.3-11 4.1-31.1 9.1-48.9 10.6-1 5.3-1.6 10.8-1.9 16.2-0.5 11.9 0.8 23.9 4.3 35.3 3.5 11.5 9.6 22.1 18 30.7 4.1 4.4 8.9 8.1 14 11.4 2.6 1.7 5.3 3.2 8 4.5q0.9-0.1 1-0.2h0.7l16.6-0.6h0.2c53.2 5 90.6-25 106.4-41zm-39.9-133c-1.3-2.5-12.1-8.5-27.4-12.7-7.9-2.2-14.9-3.4-20-3.4-3.8 0-6.6 0.7-7.9 1.9-8 7.7-12.3 45.6-10.6 51.5 1 2.4 14.6 10.7 30.1 15.2 10.6 3.1 18.6 3.4 22.3 0.6 1.2-0.8 2.2-2.1 3.2-3.7-3.2-1.9-5.9-4.9-7.7-8.4-0.5-1.2-1-2.4-1.4-3.6q-0.5-1.9-0.9-3.8-0.1-1.9-0.1-3.9c0.1-1.3 0.1-2.6 0.4-3.8 0.9-5.1 3.6-10 7.6-13.3 3.4-2.9 7.6-4.5 11.8-4.7 0.3-3.1 0.5-5.8 0.6-7.9zm-0.7 8.7c-3.7 1.5-6.9 3.5-9.4 6.3-3 3.3-5 7.3-5.8 11.6-0.8 4.3-0.5 8.9 1 13.1 1.1 3.1 2.8 6.1 5.2 8.7 5.1-9.2 7.9-27.2 9-39.7z"/>
				</g>
			</g>
		</g>
		<path id="Shape 1" class="s4" d="m590.8 123c-1.8 2.6-28.3 16.3-43.8 20q3.1-0.3 5.8-0.7c27.9-3.1 28.6-5.3 35.2-9.3 2.1-4.6 2.3-7.1 2.8-10z"/>
		<path id="Layer 1" class="s4" d="m554.7 153.2c-6 0-0.3-10.2-0.3-10.2 0 0 6.1 10.2 0.3 10.2z"/>
	</g>
</svg>