<svg version="1.2" xmlns="http://www.w3.org/2000/svg" viewBox="0 0 431 745" width="431" height="745"><defs><filter x="-50%" y="-50%" width="200%" height="200%" id="f1" ><feDropShadow dx="4.242640687119285" dy="4.242640687119286" stdDeviation="2.0833333333333335" flood-color="#000000" flood-opacity=".5"/></filter><filter x="-50%" y="-50%" width="200%" height="200%" id="f2" ><feDropShadow dx="4.242640687119285" dy="4.242640687119286" stdDeviation="2.0833333333333335" flood-color="#000000" flood-opacity=".5"/></filter></defs><style>.a{fill:#ffc6a6;stroke:#000}.b{fill:#ffc6a6;stroke:#000;stroke-width:1}.c{fill:#fff;stroke:#b3b3b3;stroke-width:.8}.d{stroke:#b3b3b3;stroke-width:1.9}.e{fill:none;stroke:#c87137;stroke-width:4}.f{fill:#936450;stroke:#000}.g{fill:#e34b46;stroke:#000}.h{fill:#5b7280;stroke:#000}.i{fill:#89604c;stroke:#000}.j{fill:#acb5c4;stroke:#000}.k{filter:url(#f1);fill:none;stroke:#000}.l{filter:url(#f2);fill:none;stroke:#000}.m{fill:none;stroke:#000}.n{fill:#a80;stroke:#000}.o{fill:#782121;stroke:#000}</style><path class="a" d="m175.2 268.9v99l57.6 1-12.1-65.7-13.1 2-1.1-41.4z"/><path class="b" d="m179.8 58.2c-44.5 4.7-103.5 21.2-62.9 100.2-22.9-13.1-26.5 4.2-22.9 32.9-6.5 48.4 11.4 84 77.2 94.4l38.7 2.8c52.4-5.9 64.5-28 80.1-48.6 17.4-3 39.2 6.8 49.7-17.2 4.4-13.4-1-24.4-9.7-30-17.4-9.4-19.7-22.4-52.2 13.6 47.2-48.8 39.6-110.7-7.9-130.9-26-11.1-52.8-21.1-90.1-17.2z"/><path class="c" d="m164.5 156.2c0 13.1-8.5 23.8-18.9 23.9-10.5 0-19.1-10.5-19.2-23.6-0.1-13.1 8.2-23.9 18.7-24.2 10.4-0.2 19.1 10.2 19.4 23.3"/><path class="c" d="m243.9 164.9c0 14.1-8 25.6-17.9 25.6-10 0.1-18.1-11.2-18.2-25.3-0.1-14.1 7.8-25.7 17.7-26 9.9-0.2 18.2 10.9 18.4 25"/><path class="d" d="m155.7 157.1c0 8.7-4.2 15.8-9.5 16.5-5.3 0.7-10.1-5.4-10.9-13.9-0.9-8.5 2.5-16.7 7.7-18.7 5.2-2 10.5 2.8 12.2 11l-9.8 5.1z"/><path class="d" d="m236 165.2c0 8.8-4.2 16.1-9.6 16.8-5.5 0.7-10.3-5.5-11.1-14.1-0.9-8.7 2.5-17 7.8-19 5.3-2.1 10.7 2.8 12.4 11.1l-9.9 5.2z"/><path class="e" d="m179 157.5c-0.6 12.5-1.5 24.8-11.4 33.6"/><path class="e" d="m149 203.2c2.7-22.2 15.3-16.1 29.3-6.4"/><path class="e" d="m224 221.8c-11.1 20.6-44.4 14.8-75.7 11.4"/><path class="e" d="m216.1 209.6c16.4 6.2 12 16.6 10 26.5"/><path class="f" d="m229.7 101.8l-1.4 10c11.3 0.9 18.8 11.2 26.4 21.4-1-14.1-8.8-24.9-25-31.4z"/><path class="f" d="m160.4 96.1v15c-7.6-6.2-19.4 0.2-30.7 5 7.7-9.9 15.6-19.4 30.7-20z"/><path class="f" d="m217.6 87.5l-67.2 0.7-35.7 25 1.4 44.3c-5.4-2.3-10.9-7-16.4-2.1l-3.6-27.2c-16.5 2.9-10.4 34.7-15 52.9-17.5-2.4-20.1-43.6-29.2-67.9 36.2-23.8 66.2-58.6 95-95.7l32.1 21.4c26.7-19.8 61.2-25.3 99.3-24.3 53.9 33.4 65 70.1 72.1 107.2 4.1 11.5 6.9 23.3-11.4 38.5l9.3 35.8c35.5 9.9 23.9 60.4 19.3 105 16.6-0.9 33.3-10.7 50-22.9-0.1 38.4-11.3 70.1-49.3 85.7l-30 1.4c-55.1-18.1-52.7-36.4-57.2-54.2-5.7-22.9 4-48.1 10-70.8 30.9-2.3 56.2-10.3 46.1-34.2-14.6-34.5-42.1-8.1-58.2-1.5l16.4-67.8-42.8-46.4z"/><path class="g" d="m329.8 171.9l14.6-5.1c9.2 11 6.7 19.6 6.1 28.6l-17.7 2.8c-3.1-5.4-7.8-11.4-23.5-8.9z"/><path class="a" d="m136.8 437l23.8 24.8-41.9 42.4c-9.5-7.9-23-19.2-16.7-29.8q-6.1-6.5 2-13.1l-8.6-5.6c11.3-14.9 23.5-26.3 41.4-18.7z"/><path class="a" d="m122.6 521.1l-50 170.7 44.3 27.8 17.1-13.5 19.3-175z"/><path class="a" d="m223.3 549.6l39.3 160.8 65.7 4.2-70.7-168.5z"/><path class="g" d="m181.8 352.2c22.2 15.5 37.3 6.6 53 0l44 208.6c-12.2 6.5-25.9 8.4-43.5-2.5-9.3 14.2-17.8 12.2-25.7-0.5-12.8 30.6-23.1 24.8-31.9-5.1-17.4 12-31.1 14.1-33.8-14.1-18.6 8.8-28.5 4.1-28.3-16.7-12.7 8.1-22.4 6.3-29.8-3l89.9-82.3z"/><path class="h" d="m175.2 304.7c-12.8 2.3-26.3-0.1-40.4 8.6l-4 11.1c-30.4 6.4-59.8 20.1-88.9 35.9l-0.5 18.7c9.6 20.4 18.7 41.6 34.8 55.5 1.5 12.2 0.5 25.8 22.8 26.3 3.2-16.2 24.1-19.2 42.9-23.8-5.7-11.8-9.8-25.5-25.8-25.7-3.8-12.7-10.6-23-21.2-30.3 20.5-4.3 38.3-11.3 56.1-18.2 5.5 20.5 9.1 41.4 22.2 60.6-13.8 8.1-23 19.4-28.8 32.8l23.3 35.9c15-29.9 35.9-48.1 16.1-149-18-9.9-9.4-23.5-8.6-38.4z"/><path class="i" d="m228.8 490.6l12.1-5.6-64.7-141.9-8 6.6z"/><path class="j" d="m174.7 304.2c-26.4 20.4-16.4 39.5-4.5 58.6l15.1-22.2c-13-3.7-8.5-23-10.6-36.4z"/><path class="a" d="m274.2 448.7l-18.2 2 7.6 39.4 44.5-10.1z"/><path class="h" d="m228.8 314.3l30.8 5.1-1.5 13.6c33.4 24.1 66.3 51.9 98.5 85.4l1 17.6c-11.3 12.5-19 28.5-36.4 34.9 0.7 16.6-8.3 18-16.7 20.2l-37.3-42.4c4.3-8.1 10.9-13.4 20.7-14.7l6.5 8.1c0.4-7.6 5.5-11.6 11.1-15.1-18.8-11.7-33.5-27.4-48.4-43-4.4 26.3 5.5 66.8 9.6 101.5l-20.3 0.5-19.6-139.4z"/><path class="j" d="m217.6 303.2c22.5-1 17.2 32.9 10.2 50-5.4-16.8-0.1-37.7-20.3-49.5z"/><path class="j" d="m116.1 410.3c-16.2 2.5-29.1 11.5-39.9 24.7 2.2 12.3 0.8 27.2 22.3 25.3 6.7-15.3 24.1-19.9 42.9-23.2-1.4-14.4-11.8-21.8-25.3-26.8z"/><path class="j" d="m287.9 434l33.8 36.9c-0.6 10.9-5.3 18.2-16.7 19.7l-37.8-41.4c4.9-8.4 11.7-13.6 20.7-15.2z"/><path class="i" d="m288.9 470.9l-32.9-70.5 0.8 15.7 19.4 57.8z"/><path class="k" d="m117.6 490.6c1.2 7.6-0.4 16.9 22.8 11.6 3.8 7.3-4 23.1 23.2 13.1 8.9 11.5 18.1 22.2 34.9 8.6 13.9 10.3 26.6 11.3 37.8 0 14.6 13.5 24.6 7.6 33.9-1.5"/><path class="l" d="m141.4 468.9c-3.2 15.7 5.5 20.5 19.7 20.2 1.8 10.2 2.9 21.3 25.7 10.6 9.4 9.4 21.1 10.9 35.9 1.5 21.2 8.6 32.8 3.2 41.9-5.6"/><path class="i" d="m228.3 476.5c-2.1 48.1 7.3 82.2 45.4 80.8 29.9-5.8 36.5-13.8 38.4-22.3 8.5-40-13.7-47.2-23.2-68.1z"/><path class="m" d="m228.3 488.6c17.3 30.4 35.3 43.8 54 37.9 19.4-5.3 18.1-25.7 12.1-49.5"/><path class="n" d="m264.1 504.2l3.1 16.7 8.5-1-3-11.1h8.6l2 8.6 6.6-0.5-2-13.7z"/><path class="o" d="m21.9 721.8l-6.5 13.6 99.3-0.8 30-17.8-4.3-19.3-27.1 21.4z"/><path class="g" d="m114 711.1c-34.5-46.6-65-52.7-90-2.2l-2.9 14.3h95l26.5-21.4-5.7-14.3c-4.3 10.9-13.1 22-22.9 23.6z"/><path class="o" d="m368.6 722.7l6.5 13.6-99.3-0.7-30-17.9 4.3-19.3 27.1 21.4z"/><path class="g" d="m276.5 712c34.5-46.6 65-52.7 90-2.1l2.9 14.2h-95l-26.5-21.4 8.6-15c4.2 10.9 10.2 22.7 20 24.3z"/></svg>