<svg version="1.2" xmlns="http://www.w3.org/2000/svg" viewBox="0 0 1086 666" width="1086" height="666">
	<title>bull-ai</title>
	<style>
		.s0 { fill: #000000 } 
		.s1 { fill: #ffffff } 
	</style>
	<g id="_Artboards_">
	</g>
	<g id="publicdomainvectors.org">
		<g id="&lt;desc&gt;">
		</g>
		<g id="&lt;Group&gt;">
			<path id="&lt;Compound Path&gt;" fill-rule="evenodd" class="s0" d="m1077.3 48c-5.5 17.5-12.3 31.2-45.5 35.5-22.7 3-48.1 5-62 5.9-4.5 0.4-7.8 0.6-9.4 0.7 1.5 1.7 3.1 3 4.6 3.7 9.6 4.4 15.8 13.5 17.5 21 0.1 0.6 0.2 1.3 0.3 2 0.3 4.4-0.3 11.4-0.6 18.3-0.2 7.1 0 14.1 2.4 18.1 5 8.8 29.7 71.7 36 79.2 5.6 6.7 9.4 11.4 10.6 15q0.2 0.7 0.3 1.3c0.7 3.8-4.7 35.1-5.6 41-0.9 6-11.6 11.6-19.1 14.1-7.5 2.5-11.6 2.5-11.6 2.5 0 0-7.1-4.1-13.3-5.8-3.6-3.1-5.7-7.6-8.4-11.7-3.6-6.2-11.1-10.4-18.2-8.7 13.9 0.8 16 13.5 23.3 19.8-1.3-0.2-2.5-0.2-3.4 0.1-1 0.4-1.7 0.9-2.1 1.7-1.2 1.7-0.9 4.5-0.1 6.9 0.8 2.5 2 4.7 2.7 5.1 1.1 0.7-10.5 6.6-18.2 8.3-9 5.3-19 11.3-13.6 18.4-1.2-1.2-2-2.7-2-4.5 0.5-5.2 5.5-8.4 9.2-11.5q1-0.8 2.2-1.6c-3.1 0.2-7.8 0-15.8 1.5l12.6-4c-3.5-4.3-9.2-13.8-13.6-17.7q-0.2-0.1-0.3-0.2c-0.9-0.8-1.9-1.3-2.6-1.4-5.1-0.6-18.3 18.1-34.4 19.7-10 1-33.3-16.1-56.7-5.3-16 12.5-23 32.1-30.1 49.2 6.6 15.4 10.6 33.8 13.8 45.9 2.3 8.9 12.5 26.3 20 40.7q0.1 0.3 0.3 0.6c5.3 10.3 9.1 18.8 7.4 21.2-4 5.6-4.5 61.8 5.2 113.1-3.1 10.9-21.3 14.8-21.7 37.9-14.7 19.7-28.4 35.7-28.4 35.7 0 0-15.3-5.2-24.1-17.4-11.2-15.5-2.7-39-1.4-51.1 2.6-2.6 20.1-7.5 20.1-7.5 7.2 4.8 16.7-4.1 5.2-12.3-7.8-5.5-16.1-3.1-11.7-7.8 4.4-4.7 11.3-16 11.6-19.4 0.3-3.5 1.3-19.6-2.8-46.7-0.3-1.5-0.8-3.3-1.5-5.1q-0.2-0.4-0.3-0.8c-8.3-19.6-40.1-51.2-40.1-51.2 8.3-14.2 33.4-39.4 37.5-54.5-1.9 2.7-4.1 5.1-6.6 7.1-19.4 15.7-32.6 33.8-32.6 33.8 0 0-14 20.8-18.7 25.7-11 11.2-27.6 21.9-50.7 15.6-17.5-4.7-55.1-24.4-72.7-31.3 0 0-15.4 42.4-15.8 45.3-0.1 0.2-0.1 0.5-0.1 0.7-0.3 3.1 0.1 8.5 0.1 8.5 0 0 0.2 3.9 0.3 8.6 0.1 4.9 0 10.8-0.5 14.3-1.1 7.1-13.2 26.3-15.7 38-1.2 5.8-2.6 14.1-2.9 21.8-0.4 7.8 0.2 14.9 2.9 18.4 5.4 6.9 13.3 17.5 15.8 22.5 2.1 4.3 15.8 16.2 21.4 30 0.9 2.3 1.7 4.6 2.1 7-52.3 7.2-72.4 0-73.6 0 0.5-2.2 0.8-4.6 0.8-7.1q0.1-2.4-0.1-4.9c-0.7-9.7-4.1-19.4-8.5-23.1-15.4 1.3-18.2 2.8-18.2 2.8 0 0 1.1-3.1 2.6-8 2.4-7.7 5.9-20 8.1-31.4 2.5-13.2 12.8-18.6 13.1-61.4 0.1-6.9-0.3-26.3 5.9-49.4 1.3-4.7 1.6-9.9 1.3-15.2-1.2-21.1-12.2-44.3-12.2-44.3 0 0-16.6-5-30.7 5.6-14.1 10.7-26.6 27.6-26.3 42 0.3 14.4-33.4-45.9-33.8-73.9-18.3 4.7-23.6 37.1-24.8 49.5-0.1 2.1-0.2 3.6-0.2 4.3 0 5.5 9.6 57.6 11.3 60.6 1.4 2.5 33.2 56.3 42 77.7 1.2 2.8 1.9 5.1 2.2 6.6-10.9 3.2-24.1 4.2-36.3 4.1q-5-0.1-9.7-0.3c-15.5-0.8-27.6-3.2-28.5-4.5 0 0 0.2-0.7 0.3-2q0.1-0.7 0.2-1.6 0.2-1.4 0.4-3c0.7-5.8 1.4-14 1-19.4-0.1-1.8-0.3-3.3-0.8-4.2-2.5-5.6-13.2-3.9-14.9 2-1.6 5.9 0.9-48-3.8-70.3-4.7-22.2-21-54.4-25.4-60.7-1.1-1.5-1-4.4-0.4-7.9 2-10.4 9.8-25.9 9.8-25.9 0 0-1.4 0.3-3.6 0.6-6.5 0.8-20.3 1.8-27.1-3.1-7-5.1-16.2-25.2-15.1-46.1 0.3-6.2 1.4-12.4 3.9-18.4q-1.2 0.3-2.5 0.8c-23 9-62.9 64.7-80 81.2-12.3 12-30.3 36.4-41.9 57.2q-0.6 0.9-1.1 1.9c-4.5 8.3-8 16-9.6 21.9-1.6 6.1-2.3 13-2.4 19.7-0.5 16.3 2.2 32.1 3.7 37.3 1.8 6.4 14.3 17.1 16.3 34 0.3 2.3 0.4 4.7 0.2 7.2-1.5 0.5-3.5 1.2-5.3 1.4-0.9-2.3-3-0.6-3.3 1.5-37.4 11.4-56.2-1.3-56.2-1.3q0.1-3.5 0.4-6.9c1.3-17.5 4.4-32.3 5.7-36.8-0.4-0.1-1-0.2-1.6-0.3-3.9-0.3-10.5 0.9-14.7 1.8-1.4 0.3-2.5-1.3-1.8-2.5 0.7-1.3 1.7-3 2.7-4.9 8.4-15.1 25.4-47.1 29.2-63.5 8.4-35.9 3.8-67.2 9.2-78.1 5.4-10.8 34.2-45.9 38-60.9 0.4-1.9 0.5-5.1 0.3-9.4-1.3-26.3-13.4-93.5-12.7-140.8 0.1-8.1 0.6-15.5 1.5-22.1 7.5-51.8 48.2-63.1 58.2-71.2 1.1-0.9 2.8-2 5.1-3.3h-0.1c-0.4-1.4-1.2-3.4-2.3-5.8-6.7-14.9-25.6-44.6-51.7-27.5-30.3 20-30 73.1-47.6 107.3-15.3 29.9-38.2 62.6-78.2 71.3q-1.3 0.2-2.6 0.5c-5 0.9-10.4 1.5-16 1.7-36 0.8-66.1-30.9-63.9-65.9 0.6-10.7 4.2-21.6 11.5-32q3.3-4.6 7.5-9.1c1.2-2.4 3-4.9 5.4-7.4q0 0 0 0c6.9-8.3 17-13.1 26.4-17.9 8.4-3.8 17.8-7.4 27.4-9.7q1.4-0.4 2.8-0.7c16.3-3.6 33.3-3.3 47.2 6.1 4.3 3.3 7.9 7.6 10.2 12.4-11.7-19.4-36.7-20.3-56.6-15.8-0.4 0-0.8 0.2-1.3 0.2q-1.3 0.3-2.7 0.7c-1.5 0.3-3.1 0.7-4.6 1.1q2.2-0.3 4.5-0.6 1.4-0.1 2.7-0.2c24.6-1.8 49.9 7.7 62.9 41.2-1.3-3-12.3-27.5-25.8-23.5-1.2-1.9-3.1-3.2-5-4.3-26.8-12.4-71.9-2.8-91.2 19.7 21.1-19.3 64-28.4 90.9-19 1.9 0.9 3.8 1.9 5.3 3.6q-1.4 0.4-2.9 1.3c11.9 9.3 15.7 29.4 15.7 29.4 0 0-21.9-33.2-43.2-17.1 0 0 30.4-2.9 26.3 16.6-12 6.5-24.7 7.4-37.1 5.8q-1.3-0.2-2.7-0.4c-12.8-2-25.2-6.3-35.9-9.5 10.8 6.8 23.3 14.2 35.8 18.3q1.4 0.4 2.7 0.8c10.7 3.1 21.3 3.6 30.9-0.7-2.3 1.4-5 2.8-7.6 3.5-7.6 2-15.4 1.6-23.2-0.2q-1.4-0.4-2.8-0.8c-14.3-4-28.3-13-39.6-22-7.6-2.2-14.2-3.4-19.2-2.4-3.8 7.8-5.9 16.2-6.4 24.6-2.2 42.5 36.8 85.5 95.3 50.1 78.4-47.6 56.7-145.3 95.9-170.9 39.3-25.7 98.5 6.4 117.9 23.7 17.6-5.7 35.2-9.4 47-7.7 30 4.4 92 40.7 177.2 39.5 81.3-27.6 127-15.1 145.2-18.5 18.1-3.4 46.2-33.5 63.7-37.2 22.2-4.7 44.9 4.1 73.5 9q3.5-0.9 7.1-1.6l0.2-0.1 0.1 0.1q0.2 0 0.3 0l8-2.9c15.9-3.7 55.8-4.8 61.4-4.1l1.8 0.8q4.2-1.8 8.2-3.6 0.2 0 0.4-0.1c6.8-2.9 13.3-5.7 19.2-8.1q0.2-0.1 0.3-0.1 3.3-1.4 6.3-2.5l3.7-1.4-2 3.4c-0.6 1-2.8 3.5-6.1 6.8q-0.1 0.1-0.2 0.2c-2.3 2.4-5.1 5.2-8.5 8.3-1.4 1.4-3 2.9-4.7 4.4l4.1 1.9c0.2 0.2 0.3 0.4 0.5 0.6l1.1 0.2q1.7 0.2 3.5 0.4 4.3 0.4 8.5 0.8 0 0 0.1 0 0.1 0 0.2 0c45.4 3.9 86 0.7 96-5.2 17.2-10 24.5-20.8 23.8-35-0.2-1.4-0.3-3 0.9-3.6 0.2-0.1 1-0.4 1.9 0.3 2.8 2.3 10.5 25 5.5 41zm-304 51c6.4 9.3 28.8 16.3 58 11 34.7-6.4 98.5-64 113.8-80.7-6.3 2.6-13.4 5.6-20.9 8.8-19.8 8.5-42.3 18.2-65.9 24.9-19.5 5.6-36.6 8.3-52.2 8h-5.6l5.1-2.6c1.7-0.8 6.9-1.6 16.1-3.1 11.3-1.7 25.1-3.9 32.9-6.6-1.9-6.6-5.8-10.3-11.4-10.5-33.4 6.8-59.4 20.9-69.7 37.5-2.9 4.8-3 9.2-0.2 13.3zm-726.2 26.7c18.6 12.9 42.9 18 65.1 14 1.4-0.4 3.1-0.6 4.1-1.8-0.6 0.5-1.3 0.7-2 0.8-22.9 2-46.4-3.3-67.2-13zm82.1-13.8q0 0 0 0 0 0 0 0 0 0 0 0zm61.3 448.4c-9.7-4.5-22.1-2.6-27.6 7.2 6.7-8.2 17.5-9.1 26.6-4.8 4.5 2 8.7 4.6 12.8 7.4 2.9 2.2 5.8 4.4 7.1 7.9 0.4 1.1 0.4 2.4 0.8 3.6 0-1.2 0.3-2.5 0.1-3.8-0.3-4.1-3.6-7.2-6.5-9.7-4.1-3.2-8.5-5.8-13.3-7.8zm130.8-492.8c-24.5-20.5-55.8-43-89.5-33-7.4 1.8-14.2 5.5-20.7 9.5 42.6-22.6 75.1-0.5 110.2 23.5zm-92.1 186.9c1.5 3.7 3 7.3 5 10.7-10.8-28.7-14.9-62.2 0-90.2-16.5 23.1-14.9 54.2-5 79.5zm64.7 71.2c-7.7 27.3-28.6 48.2-47 68.9-14.2 15.5-31.2 29.4-39.8 49.2-3 6.4-5.6 13-7.3 19.8 4.4-13.3 11-26 19.6-37 9-10.7 19.9-19.9 29.4-30.2 9.8-10.2 19-21 27.3-32.5 7.9-11.6 15.6-24.1 17.8-38.2zm40-141.9c0.9-21.9-16.3-38.8-27.5-55.7-3.9-5.9-8.5-14.1-2.1-19.8 9.5-9 20.5-16.5 29.6-25.9-10.1 8.5-21.4 15.4-31.3 24.2-7.4 6.4-3 16.3 1.5 23 11.6 17.1 28.4 32.5 29.8 54.2zm510.9 345.1c1.1 14.8 2.5 29.6 5.5 44.2l-2.8-44.3c-0.6-13-2.7-31.5-1.6-44.3-3.1 14.6-1.8 29.7-1.1 44.4zm-18.6 96c-5.6 9.6-13.1 18.6-20 27.3 5.2-2.6 9-7.2 12.6-11.7 3.4-4.7 6.7-9.8 7.4-15.6zm-26.7-34.1c8.5 6.7 10.8 18.6 12.7 28.6 0.3 2.6 0.8 5.4-0.4 7.3-2.3 4.7-5.2 9.4-8.2 13.8-1.5 2.2-2.9 4.6-5.2 6.1 1.4-0.4 2.4-1.4 3.4-2.3 5.3-5.5 10.4-11.6 13.2-18.7 0.8-10.9-5-30-15.5-34.8zm207.3-313.4c-1.2 4.4-5.5 5.4-9.2 4-5.7-1.9-7.5-8.6-8.5-13.9-1.2-7.3 2.7-10.5 9.8-10.4-16.8-6.6-17.3 15.3-9.1 24.2 4 4.7 13.6 5.9 16.7-0.5 0.4-1.1 0.5-2.3 0.3-3.4zm-44.8-150.4c4.3 18.2 12.5 35.1 20.3 51.9 8.2 16.6 16.5 33.3 27 48.6-7.7-14.2-17.4-35.1-24.6-49.8-7.8-16.8-16.5-33.2-22.7-50.7zm-68.2 2c9.7 0 19.8-1.6 29.3 0 10.9 1.2 13 12.6 13.6 21.8 4.4-30.6-22-26.6-42.9-21.8zm34.1 25.1c1 2.1 2 4.3 2.4 6.5-0.3-7-2.9-14.7-8.6-19.4-2.4-1.6-5.2-1.7-7.6-1.5-9.6 1.5-18 5.2-27.4 7.2 9.3 0.1 18.6-3.2 27.6-4.5 7.5-1.4 10.8 6.2 13.6 11.7zm-29.7-1c-0.3 8.8 7.3 16.4 16.2 15 2.7-0.3 5.4-1.1 7.6-2.7-11.3 2.3-19.6-1.2-23.8-12.3zm12.5-4.1q0-0.8 0.3-1.6l-2.5-0.7c-3.2 10.6 10.8 12 13.5 4.1l-2.8-0.8c-0.4 1.9-2.1 3.3-4.2 3.3-2.4 0-4.3-1.9-4.3-4.3zm-130.7-62.3c-0.9 9.9 14.8 12.5 22.2 13.5 24 2.2 48.2-5.2 68.9-17.1 4.3-2.3 8.3-5 12.4-7.7-7.4 6.4-15.6 11.8-24.4 16.2-17.5 8.7-37.6 13.4-57.1 10.6-7.8-1.3-23.9-5.1-22-15.5zm-42.7 28.1c0.9 7.5 3.3 15 8.1 20.9 15.1 17.1 40.6 14.7 61 11.8-14 1.7-28.7 2.5-42.2-1.7-13.9-4-22.9-15.7-24-29.8 4.9-4.1 12.5-5.3 18.8-6 21.5-1.8 42.8 6.9 58.6 21.2-18.6-18-46.7-28.3-72.2-20.9-2.9 1-5.8 2.3-8.1 4.5zm-48 101.1c-1.6-3.2-3-6.9-4-10.4-7.4-31-5-77.4 13.2-104.3-22.3 25.3-26.4 86.1-9.2 114.7zm-84.1 3c6.8 14.4 11.2 29.9 12.9 45.8 0.6 6.3 0.9 12.9-1.6 18.8 3.1-5.7 3.1-12.5 2.9-18.9-0.9-16-5-32-11.7-46.5-0.9-2.7-0.6-5.8 0.1-8.8 3-12.2 10.2-23.3 15.6-34.7 5.7-11.5 11.1-23.2 14.4-35.7-4.4 12.1-10.1 23.5-16.3 34.8q-4.6 8.4-9 16.9c-4 8.7-10 18.3-7.3 28.3zm-189.7-121.7c31.6 21.2 103 25.7 138 11.7-22.6 6.6-46.7 5.9-70 4.5-17.4-1.2-35.1-3.9-51.8-9.3-5.6-1.8-10.9-4.2-16.2-6.9zm106.7 99.1c-19.7 31.4-7.9 84.3 8.4 115.3 1.3 2.3 2.7 4.6 4.5 6.6-3-4.4-5-9.3-6.9-14.2-11.4-31.8-21.5-76-6-107.7zm-45.9 8.4c-8.3 30.2-8.7 65.6 10 92.1 2.6 3.7 5.8 7 9.2 10.1-24.6-27.7-24.7-67.6-19.2-102.2zm-42.6 0c-6.8 25.2-7.3 53.7 5.2 77.3q1.3 2.3 2.7 4.5-1-2.5-2.1-4.8c-9.7-24.5-9-51.3-5.8-77zm-18.2 135c-5.2-3.8-10.6-7.4-15.5-11.6-3.6-2.6-7.6-6.5-10.9-9.5-32.6-31.6-30.8-70.1-33-112-2.4 60.3 2 101.3 59.4 133.1zm-13.4 142.6c-4.7-16.4-11.8-31.9-18.3-47.6-2.2-5.5-4.7-11-6.2-16.6 0.6-4.9 2.8-9.8 4.3-14.6 5.4-15.5 11.6-32.6 16.6-48.2-8 19-17 40-23 59.6-0.5 1.5-0.9 3.3-0.3 4.8 3.8 11 8.6 21 13.2 31.5 4.1 9.1 10.3 22 13.7 31.1zm21.3 66.8c0.5-0.3 1.1-0.3 1.7-0.4 5.5-0.8 11-0.6 16.6-0.6l19 0.2c1.7 1.9 3.4 4.2 5.2 6.8 2 3 4 6.3 5.9 9.8 3.1 5.6 5.9 11.6 7.9 16.8-2-9.9-6.4-19.2-11.5-27.8-2.1-3.1-3.5-6-6.8-8.2-9.7-0.5-19.6 0.2-29.3 1.2-2.9 0.6-6.2 0.5-8.7 2.2zm116.3-152.9c-50.9 11.2-101-27.4-142-52.9-7.4-4.6-14.8-9.3-22.5-13.4-7.6-3.7-16-8.4-24.8-7 8.8-0.8 16.8 4.2 24.2 8.2 47.3 27.8 106.4 81.5 165.1 65.1zm25.9 44.3c-2.1-23.4-11-46.8-13-70.1-1.4 11.9 1.4 23.9 3.8 35.5 2.3 10.2 6.3 24.4 9.2 34.6zm-3.6 209.1c1.3-9.3 19.6-20.9 28-23.5 2.7-0.9 5.5 0.1 8.2 1.6 5.3 3.2 10 7.8 14.2 12.5 2.1 2.3 4.2 4.8 6 7.5-2.7-6-6.8-11.1-11.3-15.8-4.5-4.5-10.8-10.3-17.8-8.5-9.3 2.8-27.5 15.9-27.3 26.2zm33.3-166.4c0.7 4.3 2 8.4 2.5 12.5 1.1 8.3-1.4 16.3-4.6 24-1.6 3.8-3.5 7.7-5.2 11.6 1.3-1.7 2.6-3.4 3.8-5.2 9.5-14.1 12-27.6 3.5-42.9zm34.1-102.4c-20 9.3-51.3-2.8-67.7-15.5-10-7-14.8-19.1-11.9-30.9 2.8-11.6 9.9-23 8.3-35.4 0.4 12.7-7 23-10.4 34.9-3.7 12.6 1.9 26.1 12.3 33.5 17.1 13.1 49.3 24.8 69.4 13.4zm18.5 6.1c6.6-4.9 15.3-6.8 22.8-11.5 7.5-4.5 13.1-11.8 15.9-20.1-3.8 7.7-9.5 14.4-17 18.3-7.3 4.1-15.9 5.8-23.3 11.1-3.7 2.8-6.4 6.3-8.9 9.8-7.2 10.7-13.3 22.4-17.2 34.7 1.6-4 3.7-7.7 5.8-11.5 6.2-10.8 12.3-22.7 21.9-30.8zm84.7 1.2c-19.9 18.8-48.5 28-75.4 22.8-3.9-0.7-7.6-1.9-11.3-3.4 6.8 4.1 14.8 6.1 22.7 6.8 23.9 2.3 48.8-7.5 64-26.2zm82.3-118c-18.7 1.4-37.4 7.7-56 18.1-15.5 11.6-30.6 27.9-44.1 47.3 29.4-33.2 62.3-56.5 100.1-65.4zm18.6 30.5c-10.1 20.3-25.2 48.5-35.5 68.9-8.9 14.1-24.9 21.6-37.3 32.4-4.5 3.9-9.3 8-12.1 13.5 3.3-5.1 8.1-8.9 13-12.5 13.1-10.2 29.6-17.6 38.8-32.1q2.4-4.9 4.9-9.8 1.3-2.7 2.7-5.5c9.1-18 18.1-36.1 25.5-54.9zm85.3-11c-12.2-6.6-25.4-11.3-38.8-15-13-4.1-27.3-5.1-39.2-12.1-19.2-12.5-35.3-37.2-27.7-60.7 1.1-3.2 2.7-6.3 4.5-9.2-4.2 5.5-7 12.2-7.7 19.2-1.7 21.4 12.2 41.5 29.5 53 5.9 4 13.1 5.4 19.8 7.1l20.3 4.8c13.4 3.2 26.6 7.4 39.3 12.9zm25.1-25.7c-9.5-28.2-31.9-53.3-49.1-77.3-5.9-8.2-12-16.5-15.8-26 6.3 19.6 20.3 35.5 31.9 52.1 10.5 14.3 21.4 28.6 29.7 44.3 1.2 2.3 2.2 4.6 3.3 6.9zm127.9-251.5c-0.1 14.3-8 25.3-25.2 35.4-12.5 7.3-62.1 9.4-107.3 4.6l15.5 26.4c28.4-1.2 102.5 0.7 111.8-27.5-8.1 31.4-82.6 29.7-111.6 27.8l4.9 8.4c5.9-0.4 41.1-2.6 71.5-6.6 34.1-4.4 39-20 43.3-33.7 3.7-11.9-0.2-27.9-2.9-34.8z"/>
			<path id="&lt;Compound Path&gt;" fill-rule="evenodd" class="s1" d="m880 274.5c13.4 3.7 26.6 8.4 38.8 15-12.7-5.5-25.9-9.7-39.3-12.9l-20.3-4.8c-6.7-1.7-13.9-3.1-19.8-7.1-17.3-11.5-31.2-31.6-29.5-53 0.7-7 3.5-13.7 7.7-19.2-1.8 2.9-3.4 6-4.5 9.2-7.6 23.5 8.5 48.2 27.7 60.7 11.9 7 26.2 8 39.2 12.1zm126.8 2.8c0.2 1.1 0.1 2.3-0.3 3.4-3.1 6.4-12.7 5.2-16.7 0.5-8.2-8.9-7.7-30.8 9.1-24.2-7.1-0.1-11 3.1-9.8 10.4 1 5.3 2.8 12 8.5 13.9 3.7 1.4 8 0.4 9.2-4zm-200.6 374.8c6.9-8.7 14.4-17.7 20-27.3-0.7 5.8-4 10.9-7.4 15.6-3.6 4.5-7.4 9.1-12.6 11.7zm8.8-26.6c-2.8 7.1-7.9 13.2-13.2 18.7-1 0.9-2 1.9-3.4 2.3 2.3-1.5 3.7-3.9 5.2-6.1 3-4.4 5.9-9.1 8.2-13.8 1.2-1.9 0.7-4.7 0.4-7.3-1.9-10-4.2-21.9-12.7-28.6 10.5 4.8 16.3 23.9 15.5 34.8zm121.7-474.8c-0.6-9.2-2.7-20.6-13.6-21.8-9.5-1.6-19.6 0-29.3 0 20.9-4.8 47.3-8.8 42.9 21.8zm45.6 28.1c-7.8-16.8-16-33.7-20.3-51.9 6.2 17.5 14.9 33.9 22.7 50.7 7.2 14.7 16.9 35.6 24.6 49.8-10.6-15.3-18.8-32-27-48.6zm-68-36.5c-9 1.3-18.3 4.6-27.6 4.5 9.4-2 17.8-5.7 27.4-7.2 2.4-0.2 5.2-0.1 7.6 1.5 5.7 4.7 8.3 12.4 8.6 19.4-0.4-2.2-1.4-4.4-2.4-6.5-2.8-5.5-6.1-13.1-13.6-11.7zm-1.5-111l10 4.4q-4 1.8-8.2 3.6l-1.8-0.8c-5.6-0.7-45.5 0.4-61.4 4.1l-8 2.9q-0.1 0-0.3 0l-0.1-0.1-0.2 0.1q-3.6 0.7-7.1 1.6c-28.6-4.9-51.3-13.7-73.5-9-17.5 3.7-45.6 33.8-63.7 37.2-18.2 3.4-63.9-9.1-145.2 18.5-85.2 1.2-147.2-35.1-177.2-39.5-11.8-1.7-29.4 2-47 7.7-19.4-17.3-78.6-49.4-117.9-23.7-39.2 25.6-17.5 123.3-95.9 170.9-58.5 35.4-97.5-7.6-95.3-50.1 1.9 33.2 28.3 63.9 68.9 54.1-2.3-17.7-3.5-35.8-3.7-54.3q1.4 0.4 2.8 0.8c0.1 18 1.2 35.6 3.4 52.9 7.5-2.1 15.5-5.6 23.9-10.6 78.4-47.6 56.7-145.3 95.9-170.9 39.3-25.7 98.5 6.4 117.9 23.7 17.6-5.7 35.2-9.4 47-7.7 30 4.4 92 40.7 177.2 39.5 81.3-27.6 127-15.1 145.2-18.5 18.1-3.4 46.2-33.5 63.7-37.2 22.7-4.8 46 4.5 75.6 9.3l13.6-4.8c15.9-3.7 55.8-4.8 61.4-4.1zm-139.5 67.7c-2.8-4.1-2.7-8.5 0.2-13.3 10.3-16.6 36.3-30.7 69.7-37.5 5.6 0.2 9.5 3.9 11.4 10.5-7.8 2.7-21.6 4.9-32.9 6.6-9.2 1.5-14.5 2.3-16.1 3.1l-5.1 2.6h5.6c15.6 0.3 32.7-2.4 52.2-8 23.6-6.7 46.1-16.4 65.9-24.9 7.5-3.2 14.6-6.2 20.9-8.8-15.3 16.7-79.1 74.3-113.8 80.7-29.2 5.3-51.6-1.7-58-11zm28.7 3.1c19.5 2.8 39.6-1.9 57.1-10.6 8.8-4.4 17-9.8 24.4-16.2-4.1 2.7-8.1 5.4-12.4 7.7-20.7 11.9-44.9 19.3-68.9 17.1-7.4-1-23.1-3.6-22.2-13.5-1.9 10.4 14.2 14.2 22 15.5zm120 63.2c-2.2 1.6-4.9 2.4-7.6 2.7-8.9 1.4-16.5-6.2-16.2-15 4.2 11.1 12.5 14.6 23.8 12.3zm-11-18q-0.3 0.8-0.3 1.6c0 2.4 1.9 4.3 4.3 4.3 2.1 0 3.8-1.4 4.2-3.3l2.8 0.8c-2.7 7.9-16.7 6.5-13.5-4.1zm-863.9-21.7c20.8 9.8 44.3 15.1 67.2 13 0.7-0.1 1.5-0.2 2-0.8-1 1.2-2.7 1.5-4.1 1.9-22.2 4-46.5-1.1-65.1-14.1zm-14.1 1.6c19.3-22.5 64.4-32.1 91.2-19.6 1.9 1 3.8 2.4 5 4.2-1.4-1.6-3.4-2.7-5.3-3.6-26.9-9.4-69.8-0.3-90.9 19zm811.8 401.6c-0.7-14.8-2-29.9 1.1-44.5-1.1 12.8 1 31.3 1.6 44.3l2.8 44.3c-3-14.5-4.4-29.3-5.5-44.1zm-654.3 31.4c4.8 2 9.2 4.7 13.3 7.9 2.9 2.4 6.2 5.6 6.6 9.6 0.1 1.4-0.2 2.6-0.2 3.9-0.4-1.2-0.4-2.6-0.8-3.7-1.3-3.5-4.2-5.7-7.1-7.8-4-2.9-8.3-5.5-12.8-7.4-9.1-4.4-19.9-3.4-26.6 4.8 5.5-9.9 17.9-11.7 27.6-7.3zm769.9-470.2c1.6-0.1 4.9-0.3 9.4-0.6 6.9 4.8 11.3 12 12.7 18.2 0.5 2.1 0.4 5.4 0.3 9.2-0.1-0.8-0.2-1.4-0.3-2-1.7-7.5-7.9-16.7-17.5-21.1-1.5-0.7-3.1-2-4.6-3.7zm-713.5 304.4c18.4-20.6 39.3-41.6 47-68.9-2.2 14.1-9.9 26.7-17.8 38.2-8.3 11.5-17.5 22.3-27.3 32.5-9.5 10.4-20.4 19.6-29.4 30.2-8.6 11.1-15.2 23.7-19.6 37.1 1.7-6.9 4.3-13.5 7.3-19.9 8.6-19.8 25.6-33.6 39.8-49.2zm308 245.4q0.2 2.5 0.1 5-0.6-0.2-0.8-0.2 0.5-2.3 0.7-4.8zm-325.7-385.4c-9.9-25.4-11.5-56.5 5-79.5-14.9 27.9-10.8 61.5 0 90.1-2-3.4-3.5-7-5-10.6zm-136.5-164.1q-1.4 0.3-2.8 0.6c40.5-275.3 334.7-451.2 601.9-340 66.1 26.6 123.8 70.5 168.7 124.9 30 36.4 54.3 77.4 71.6 121.3q5.8 14.9 10.6 30.2-0.1 0.1-0.2 0.1c-38.4-122.3-130.9-227.4-251.1-275.6-266-110-558.4 64.8-598.7 338.5zm512.5 128.4c-2.7-10 3.3-19.6 7.3-28.2q4.4-8.6 9.1-17c6.1-11.3 11.8-22.7 16.2-34.7-3.3 12.4-8.7 24.2-14.4 35.7-5.4 11.3-12.6 22.4-15.6 34.6-0.7 3-1 6.1-0.1 8.8 6.8 14.5 10.8 30.5 11.8 46.6 0.1 6.3 0.1 13.2-3 18.9 2.5-6 2.2-12.6 1.6-18.8-1.7-15.9-6.1-31.4-12.9-45.9zm24.2 161.9c-20.1 11.4-52.3-0.3-69.4-13.3-10.3-7.5-15.9-21-12.3-33.6 3.4-11.9 10.8-22.2 10.4-34.9 1.6 12.4-5.5 23.9-8.3 35.4-2.9 11.9 1.9 23.9 11.9 30.9 16.4 12.8 47.7 24.8 67.7 15.5zm-63.8 59.7c-2.8-10.2-6.9-24.4-9.2-34.5-2.4-11.7-5.2-23.7-3.8-35.6 2 23.4 10.9 46.7 13 70.1zm82.3-53.6c-9.6 8.1-15.7 20.1-21.9 30.9-2 3.7-4.2 7.5-5.8 11.4 3.9-12.3 10-23.9 17.2-34.7 2.5-3.5 5.2-7 8.9-9.8 7.4-5.3 16-6.9 23.3-11.1 7.5-3.9 13.2-10.5 17-18.2-2.8 8.2-8.4 15.5-15.9 20-7.5 4.8-16.2 6.6-22.8 11.5zm-58.6 236.6c7-1.9 13.3 3.9 17.8 8.4 4.5 4.7 8.6 9.9 11.3 15.8-1.8-2.7-3.9-5.1-6-7.5-4.2-4.7-8.9-9.2-14.2-12.4-2.7-1.5-5.5-2.6-8.2-1.7-8.4 2.6-26.7 14.2-28 23.5-0.2-10.3 18.1-23.4 27.3-26.1zm6-140.2c8.5 15.2 6 28.8-3.5 42.8-1.2 1.8-2.5 3.6-3.8 5.2 1.7-3.9 3.6-7.7 5.2-11.6 3.2-7.6 5.8-15.7 4.7-24-0.6-4.1-1.9-8.2-2.6-12.4zm476.5-470.8c2.7 6.8 6.6 22.9 2.9 34.8-4.3 13.7-9.2 29.2-43.3 33.7-30.4 3.9-65.6 6.1-71.5 6.5l-4.9-8.4c29 2 103.5 3.6 111.6-27.8-9.3 28.3-83.4 26.3-111.8 27.5l-15.5-26.4c45.2 4.8 94.8 2.7 107.3-4.6 17.3-10.1 25.1-21 25.2-35.3zm-177 174.1c17.2 24 39.6 49.1 49.1 77.4-1.1-2.3-2.1-4.7-3.3-6.9-8.3-15.8-19.2-30-29.7-44.4-11.6-16.5-25.6-32.4-31.9-52 3.8 9.5 9.9 17.7 15.8 25.9zm-162.2 201.5c-15.2 18.7-40.1 28.5-64 26.3-7.9-0.8-15.9-2.8-22.7-6.9 3.7 1.5 7.4 2.8 11.3 3.4 26.9 5.2 55.5-3.9 75.4-22.8zm65.4-18.5c10.3-20.5 25.4-48.6 35.5-68.9-7.4 18.7-16.4 36.8-25.5 54.9q-1.4 2.7-2.7 5.5-2.5 4.8-4.9 9.7c-9.1 14.6-25.7 21.9-38.8 32.2-4.9 3.5-9.7 7.3-13 12.5 2.8-5.5 7.6-9.6 12.2-13.6 12.3-10.8 28.3-18.2 37.2-32.3zm-108.7-153.6c-17.2-28.6-13.1-89.5 9.2-114.7-18.2 26.8-20.6 73.3-13.2 104.3 1 3.4 2.4 7.1 4 10.4zm-167.1-19.6c-15.5 31.6-5.4 75.8 6 107.6 1.9 4.9 3.9 9.8 6.9 14.2-1.8-2-3.2-4.2-4.5-6.6-16.3-30.9-28.1-83.9-8.4-115.2zm17.5 199.9c-58.7 16.3-117.8-37.3-165.1-65.1-7.4-4.1-15.4-9-24.2-8.2 8.8-1.4 17.2 3.3 24.8 7 7.7 4.1 15.1 8.7 22.5 13.3 41 25.5 91.1 64.1 142 53zm-63.4-191.6c-5.5 34.7-5.4 74.5 19.2 102.3-3.4-3.1-6.6-6.4-9.2-10.1-18.7-26.5-18.3-62-10-92.2zm505.9-69.5c0.2 4.4 0.9 8.3 2.4 11 5 8.7 29.7 71.7 36 79.2 6.2 7.5 10.3 12.5 10.9 16.2 0.2 0.9 0 3-0.3 6-1.2-3.6-5-8.3-10.6-15-6.3-7.5-31-70.5-36-79.2-2.4-4.1-2.6-11.1-2.4-18.2zm-566.7-37.9c5.3 2.6 10.6 5.1 16.2 6.8 16.7 5.5 34.4 8.1 51.9 9.3 23.2 1.5 47.3 2.1 69.9-4.5-35 14-106.4 9.5-138-11.6zm-31.7 337.4c6.5 15.7 13.6 31.3 18.3 47.6-3.4-9.1-9.6-22-13.6-31.1-4.7-10.4-9.5-20.5-13.3-31.4-0.6-1.6-0.2-3.4 0.3-4.9 6.1-19.6 15-40.6 23-59.5-5 15.5-11.2 32.6-16.6 48.2-1.5 4.8-3.7 9.6-4.3 14.6 1.5 5.5 4 11 6.2 16.5zm39.6 114.4c2.5-1.6 5.8-1.6 8.7-2.2 9.7-1 19.6-1.7 29.3-1.1 3.3 2.2 4.7 5 6.8 8.1 5.1 8.7 9.5 18 11.5 27.9-2-5.3-4.8-11.2-7.9-16.9-1.9-3.5-3.9-6.8-5.9-9.8-1.8-2.6-3.5-4.9-5.2-6.8l-19-0.2c-5.5 0-11.1-0.1-16.6 0.6-0.6 0.1-1.2 0.2-1.7 0.4zm10.3-344.4c-3.2 25.7-3.8 52.6 5.8 77q1.1 2.4 2.1 4.8-1.4-2.2-2.7-4.5c-12.5-23.5-12-52.1-5.2-77.3zm-77.6 1.9c2.2 42 0.4 80.5 33 112.1 3.3 2.9 7.3 6.8 10.9 9.5 4.9 4.2 10.3 7.7 15.5 11.5-57.3-31.8-61.8-72.8-59.4-133.1zm-49.7-78.5c11.2 16.9 28.4 33.8 27.6 55.7-1.5-21.7-18.3-37.1-29.9-54.2-4.5-6.7-8.9-16.6-1.5-22.9 9.9-8.9 21.2-15.8 31.4-24.3-9.2 9.4-20.2 16.9-29.7 25.9-6.4 5.7-1.8 13.9 2.1 19.8zm68.6 261.2c2.2-0.3 3.6-0.5 3.6-0.5 0 0-7.7 15.5-9.8 25.8-1.9-4.7 2.7-17.1 6.2-25.3zm163.9 191c-2.2 11.5-5.7 23.7-8.1 31.5-2 0.4-2.6 0.8-2.6 0.8 0 0 2.7-7.9 5.6-18.3-31.6 0.7-62.8-2.1-93.1-8.1q4.7 0.3 9.7 0.3c27.4 4.9 55.4 7.1 83.8 6.5 1.7-6.2 3.4-13.2 4.7-19.9 2.5-13.2 12.8-18.5 13.1-61.3 0.1-6.9-0.3-26.3 6-49.5 0.6-2.5 1-5.2 1.2-8 0.3 5.4 0 10.6-1.2 15.2-6.3 23.2-5.9 42.6-6 49.5-0.3 42.8-10.6 48.1-13.1 61.3zm-451-424.4q0 0.7 0 1.3-1.3-0.3-2.7-0.8 0-0.3 0-0.5c0-2.8 0.1-5.5 0.1-8.3q1.4 0.3 2.7 0.4c0 2.6-0.1 5.3-0.1 7.9zm398.8 419.3q-1.1 0.3-2.2 0.6c-8.8-21.4-40.6-75.1-42-77.7-1.7-2.9-11.3-55.1-11.3-60.5 0-0.8 0.1-2.3 0.3-4.3 1.5 12.3 9.5 55 11 57.6 1.6 2.9 42.1 71.4 44.2 84.3zm118-75.1c-0.1-4.8-0.3-8.7-0.3-8.7 0 0-0.4-5.3-0.1-8.4 0.1 0.7 0.1 1.2 0.1 1.2 0 0 0.5 8.5 0.3 15.9zm-430.2-28.7c-3.8 16.4-20.8 48.4-29.2 63.5-0.3 0.1-0.6 0.1-0.8 0.2-1.5 0.3-2.6-1.2-1.9-2.5 6.5-11.5 27.6-49.9 31.9-68.4 3.1-13.2 4.4-25.8 5.1-37-44-55.3-75.2-121.8-87.9-195.8q1.2-0.2 2.5-0.5c12.4 72.9 42.7 138.4 85.6 193.1 1-17.6 0.7-31.4 3.9-37.9 5.4-10.8 34.2-45.9 38-60.9 0.1-0.6 0.2-1.3 0.3-2.2 0.2 4.3 0.1 7.6-0.3 9.4-3.8 15-32.6 50.1-38 60.9-5.4 10.9-0.8 42.2-9.2 78.1zm-13.7 69.5c-1.4 4.4-4.5 19.2-5.8 36.7-0.2-0.1-0.4-0.2-0.4-0.2 0.6-14.9 2.8-28.5 4.5-36.8 0.6 0 1.2 0.1 1.7 0.3zm251.9 37.2q-0.1 0.9-0.2 1.6c-76.3-20.4-146-61.1-201.3-116.9q0.5-0.9 1.1-1.9c54.9 55.9 124.4 96.7 200.4 117.2zm523.2-535.7c1.5 2.1 2.9 4.6 4.5 7.4q-1.8-0.2-3.5-0.4l-1.1-0.1c-0.2-0.2-0.3-0.5-0.5-0.7l-4.1-1.8c1.7-1.5 3.3-3 4.7-4.4zm-190.5 93.4c-4.8-5.9-7.2-13.5-8.1-20.9 2.3-2.3 5.2-3.5 8.1-4.6 25.5-7.4 53.6 2.9 72.2 21-15.8-14.3-37.1-23-58.6-21.2-6.3 0.6-13.9 1.8-18.8 5.9 1.1 14.1 10.1 25.9 24 29.8 13.6 4.3 28.2 3.4 42.2 1.7-20.4 2.9-45.9 5.4-61-11.7zm-333.1 438.8c0 0 1.4-10.1 1.8-18.8 0.4 5.3-0.3 13.5-1 19.3q-0.7-0.3-0.8-0.5zm-213.1-70.1c0.3 13.5 2.5 25.6 3.7 30 2.1 7.3 17.8 20.1 16.5 41.2q-0.1 0-0.2 0.1c-2-16.9-14.5-27.7-16.3-34.1-1.5-5.1-4.2-21-3.7-37.2zm-176-369.3c-7.3 10.5-10.8 21.4-11.5 32-1.1-17.4 5.5-36.2 23.3-52.5-5.4 6.2-9.3 13.2-11.8 20.5zm69-41.8q0 0.4-0.1 0.9-1.3 0.1-2.7 0.2 0.1-0.2 0.1-0.5 1.4-0.3 2.7-0.6zm229.1-25.8c-35.1-24-67.6-46.1-110.2-23.5 6.5-3.9 13.4-7.7 20.8-9.5 33.6-9.9 64.9 12.5 89.4 33zm651.8 234.2c0.7 2.4 1.9 4.4 2.6 4.8 0.4 0.2-0.8 1.1-2.7 2.2-0.8-2.5-1.1-5.2 0.1-7zm0.4-12.9c2.7 4.1 4.8 8.7 8.4 11.7 1.3 1.2 2.9 2.2 4.9 2.8-3.5-0.3-6.1-1.6-8.2-3.4-7.3-6.3-9.4-18.9-23.3-19.7 7.1-1.8 14.6 2.5 18.2 8.6zm-639.3 33.7q1.3-0.5 2.5-0.8c-2.5 5.9-3.6 12.1-3.9 18.3-0.4-5.7 0-11.7 1.4-17.5zm-65.1-240.9c0.6-0.5 1.5-1.2 2.6-1.9 1.1 2.4 1.9 4.5 2.3 5.8h0.1c-2.3 1.3-4 2.4-5 3.3-10.1 8.1-50.8 19.4-58.3 71.2-0.9 6.6-1.4 14.1-1.5 22.1-0.1-10.8 0.3-20.8 1.5-29.3 7.5-51.8 48.2-63.1 58.3-71.2zm535 410.1q0.1 0.4 0.3 0.7c-33.6 28.3-71.5 51.6-112.6 68.2-33.2 13.8-66.8 23.1-100.3 28.4 5 6.6 10.7 14.6 12.8 18.8 2.5 5 20.6 20.3 23.5 36.9q-1.1 0.1-2.1 0.3c-5.6-13.8-19.3-25.7-21.4-30-2.5-5.1-10.3-15.7-15.8-22.6-2.7-3.4-3.3-10.6-2.9-18.4 0.2 4.8 1.1 8.9 2.9 11.2q1 1.3 2.1 2.7c33.7-5.2 67.4-14.5 100.8-28.3 41.2-16.5 79.1-39.7 112.7-67.9zm140.3-457.7q0.1-0.1 0.2-0.2 2.5 8.3 4.6 16.7-0.1 0-0.2 0-0.3-1-0.6-2.1-1.8-7.2-4-14.4zm-8.2 268.5q0.2 0.1 0.3 0.2-2.1 5.7-4.3 11.4c-17.3 43.9-41.6 85.1-71.7 121.6q-6.8 8.2-14 16.1-0.2-0.3-0.3-0.6c39.3-43.1 70.1-93.9 90-148.7zm-121.3-32.4c-37.8 8.8-70.7 32.1-100.1 65.3 13.5-19.4 28.6-35.7 44.1-47.2 18.7-10.4 37.3-16.7 56-18.1z"/>
		</g>
	</g>
</svg>