<svg version="1.2" xmlns="http://www.w3.org/2000/svg" viewBox="0 0 1118 990" width="1118" height="990">
	<title>wooden-staircase-publicdomainvectors</title>
	<style>
		.s0 { fill: #fccc96 } 
		.s1 { fill: #dc9448 } 
		.s2 { fill: #f9b86f } 
		.s3 { fill: #e3a75e } 
		.s4 { fill: #fef7cf } 
		.s5 { fill: #fdfae9 } 
		.s6 { fill: #cb3727 } 
		.s7 { fill: #ea4824 } 
		.s8 { fill: #f0e8b8 } 
		.s9 { fill: #ab2e23 } 
		.s10 { fill: #9c5f2b } 
		.s11 { fill: #ba773f } 
	</style>
	<g id="_Artboards_">
	</g>
	<g id="publicdomainvectors.org">
		<g id="&lt;Group&gt;">
			<g id="&lt;Group&gt;">
				<path id="&lt;Path&gt;" class="s0" d="m818.7 93.5h30.7v244.1h-30.7z"/>
				<path id="&lt;Compound Path&gt;" class="s1" d="m834 322.6c21.4 0 38.6 17.3 38.6 38.6 0 21.4-17.2 38.6-38.6 38.6-21.3 0-38.6-17.2-38.6-38.6 0-21.3 17.3-38.6 38.6-38.6zm0-185.6c16.5 0 29.9 13.4 29.9 29.9 0 16.5-13.4 29.9-29.9 29.9-16.5 0-29.9-13.4-29.9-29.9 0-16.5 13.4-29.9 29.9-29.9z"/>
				<path id="&lt;Path&gt;" class="s0" d="m267.5 93.5h30.8v244.1h-30.8z"/>
				<path id="&lt;Compound Path&gt;" class="s1" d="m282.9 322.6c21.3 0 38.6 17.3 38.6 38.6 0 21.4-17.3 38.6-38.6 38.6-21.3 0-38.6-17.2-38.6-38.6 0-21.3 17.3-38.6 38.6-38.6zm0-185.6c16.5 0 29.9 13.4 29.9 29.9 0 16.5-13.4 29.9-29.9 29.9-16.5 0-29.9-13.4-29.9-29.9 0-16.5 13.4-29.9 29.9-29.9z"/>
				<path id="&lt;Path&gt;" class="s2" d="m213 348.5h691v46.8h-691z"/>
				<path id="&lt;Path&gt;" class="s3" d="m863.9 395.3h-610.9v98.4h610.9z"/>
				<path id="&lt;Path&gt;" class="s1" d="m863.9 395.3h-610.9v17h610.9z"/>
				<path id="&lt;Path&gt;" class="s0" d="m213 348.5h691v15.6h-691z"/>
				<path id="&lt;Path&gt;" class="s4" d="m365.8 348.5h421.6v46.8h-421.6z"/>
				<path id="&lt;Path&gt;" class="s5" d="m365.8 348.5h421.6v15.6h-421.6z"/>
				<path id="&lt;Path&gt;" class="s6" d="m406.5 348.5h340.2v46.8h-340.2z"/>
				<path id="&lt;Path&gt;" class="s7" d="m406.5 348.5h340.2v15.6h-340.2z"/>
				<path id="&lt;Path&gt;" class="s4" d="m384.9 395.3h383.4v98.4h-383.4z"/>
				<path id="&lt;Path&gt;" class="s8" d="m384.9 395.3h383.4v17h-383.4z"/>
				<path id="&lt;Path&gt;" class="s6" d="m423.7 395.3h305.8v98.4h-305.8z"/>
				<path id="&lt;Path&gt;" class="s9" d="m423.7 395.3h305.8v17h-305.8z"/>
			</g>
			<g id="&lt;Group&gt;">
				<g id="&lt;Group&gt;">
					<path id="&lt;Path&gt;" class="s0" d="m870.2 215.5q15.3 0 30.7 0 0 122.1 0 244.1-15.4 0-30.7 0 0-122 0-244.1z"/>
					<path id="&lt;Compound Path&gt;" class="s1" d="m885.5 444.7c21.4 0 38.6 17.3 38.6 38.6 0 21.3-17.2 38.6-38.6 38.6-21.3 0-38.6-17.3-38.6-38.6 0-21.3 17.3-38.6 38.6-38.6zm0-185.6c16.5 0 29.9 13.4 29.9 29.9 0 16.5-13.4 29.9-29.9 29.9-16.5 0-29.9-13.4-29.9-29.9 0-16.5 13.4-29.9 29.9-29.9z"/>
					<path id="&lt;Path&gt;" class="s0" d="m216 215.5q15.4 0 30.8 0 0 122.1 0 244.1-15.4 0-30.8 0 0-122 0-244.1z"/>
					<path id="&lt;Compound Path&gt;" class="s1" d="m231.4 444.7c21.3 0 38.6 17.3 38.6 38.6 0 21.3-17.3 38.6-38.6 38.6-21.3 0-38.6-17.3-38.6-38.6 0-21.3 17.3-38.6 38.6-38.6zm0-185.6c16.5 0 29.9 13.4 29.9 29.9 0 16.5-13.4 29.9-29.9 29.9-16.5 0-29.9-13.4-29.9-29.9 0-16.5 13.4-29.9 29.9-29.9z"/>
					<path id="&lt;Path&gt;" class="s2" d="m161.4 470.5q397.1 0 794.1 0 0 23.5 0 46.9-397 0-794.1 0 0-23.4 0-46.9z"/>
					<path id="&lt;Path&gt;" class="s3" d="m915.4 517.4q-356.9 0-713.9 0 0 49.2 0 98.3 357 0 713.9 0 0-49.1 0-98.3z"/>
					<path id="&lt;Path&gt;" class="s1" d="m915.4 517.4q-356.9 0-713.9 0 0 8.5 0 17 357 0 713.9 0 0-8.5 0-17z"/>
					<path id="&lt;Path&gt;" class="s0" d="m161.4 470.5q397.1 0 794.1 0 0 7.9 0 15.7-397 0-794.1 0 0-7.8 0-15.7z"/>
					<path id="&lt;Path&gt;" class="s4" d="m314.3 470.5q262.3 0 524.6 0 0 23.5 0 46.9-262.3 0-524.6 0 0-23.4 0-46.9z"/>
					<path id="&lt;Path&gt;" class="s5" d="m314.3 470.5q262.3 0 524.6 0 0 7.9 0 15.7-262.3 0-524.6 0 0-7.8 0-15.7z"/>
					<path id="&lt;Path&gt;" class="s6" d="m355 470.5q221.6 0 443.2 0 0 23.5 0 46.9-221.6 0-443.2 0 0-23.4 0-46.9z"/>
					<path id="&lt;Path&gt;" class="s7" d="m355 470.5q221.6 0 443.2 0 0 7.9 0 15.7-221.6 0-443.2 0 0-7.8 0-15.7z"/>
					<path id="&lt;Path&gt;" class="s4" d="m333.4 517.4q243.2 0 486.4 0 0 49.2 0 98.3-243.2 0-486.4 0 0-49.1 0-98.3z"/>
					<path id="&lt;Path&gt;" class="s8" d="m333.4 517.4q243.2 0 486.4 0 0 8.5 0 17-243.2 0-486.4 0 0-8.5 0-17z"/>
					<path id="&lt;Path&gt;" class="s6" d="m372.2 517.4q204.4 0 408.8 0 0 49.2 0 98.3-204.4 0-408.8 0 0-49.1 0-98.3z"/>
					<path id="&lt;Path&gt;" class="s9" d="m372.2 517.4q204.4 0 408.8 0 0 8.5 0 17-204.4 0-408.8 0 0-8.5 0-17z"/>
				</g>
				<g id="&lt;Group&gt;">
					<path id="&lt;Path&gt;" class="s0" d="m921.7 337.6q15.3 0 30.7 0 0 122 0 244.1-15.4 0-30.7 0 0-122.1 0-244.1z"/>
					<path id="&lt;Compound Path&gt;" class="s1" d="m937 566.7c21.4 0 38.7 17.3 38.7 38.7 0 21.3-17.3 38.6-38.7 38.6-21.3 0-38.6-17.3-38.6-38.6 0-21.4 17.3-38.7 38.6-38.7zm0-185.5c16.6 0 29.9 13.3 29.9 29.9 0 16.5-13.3 29.8-29.9 29.8-16.5 0-29.8-13.3-29.8-29.8 0-16.6 13.3-29.9 29.8-29.9z"/>
					<path id="&lt;Path&gt;" class="s0" d="m164.5 337.6q15.4 0 30.7 0 0 122 0 244.1-15.3 0-30.7 0 0-122.1 0-244.1z"/>
					<path id="&lt;Compound Path&gt;" class="s1" d="m179.9 566.7c21.3 0 38.6 17.3 38.6 38.7 0 21.3-17.3 38.6-38.6 38.6-21.3 0-38.6-17.3-38.6-38.6 0-21.4 17.3-38.7 38.6-38.7zm0-185.5c16.5 0 29.9 13.3 29.9 29.9 0 16.5-13.4 29.8-29.9 29.8-16.5 0-29.9-13.3-29.9-29.8 0-16.6 13.4-29.9 29.9-29.9z"/>
					<path id="&lt;Path&gt;" class="s2" d="m109.9 592.6q448.6 0 897.1 0 0 23.4 0 46.8-448.5 0-897.1 0 0-23.4 0-46.8z"/>
					<path id="&lt;Path&gt;" class="s3" d="m966.9 639.4q-408.4 0-816.9 0 0 49.2 0 98.4 408.5 0 816.9 0 0-49.2 0-98.4z"/>
					<path id="&lt;Path&gt;" class="s1" d="m966.9 639.4q-408.4 0-816.9 0 0 8.5 0 17 408.5 0 816.9 0 0-8.5 0-17z"/>
					<path id="&lt;Path&gt;" class="s0" d="m109.9 592.6q448.6 0 897.1 0 0 7.8 0 15.7-448.5 0-897.1 0 0-7.9 0-15.7z"/>
					<path id="&lt;Path&gt;" class="s4" d="m262.8 592.6q313.8 0 627.6 0 0 23.4 0 46.8-313.8 0-627.6 0 0-23.4 0-46.8z"/>
					<path id="&lt;Path&gt;" class="s5" d="m262.8 592.6q313.8 0 627.6 0 0 7.8 0 15.7-313.8 0-627.6 0 0-7.9 0-15.7z"/>
					<path id="&lt;Path&gt;" class="s6" d="m303.5 592.6q273.1 0 546.2 0 0 23.4 0 46.8-273.1 0-546.2 0 0-23.4 0-46.8z"/>
					<path id="&lt;Path&gt;" class="s7" d="m303.5 592.6q273.1 0 546.2 0 0 7.8 0 15.7-273.1 0-546.2 0 0-7.9 0-15.7z"/>
					<path id="&lt;Path&gt;" class="s4" d="m281.9 639.4q294.7 0 589.4 0 0 49.2 0 98.4-294.7 0-589.4 0 0-49.2 0-98.4z"/>
					<path id="&lt;Path&gt;" class="s8" d="m281.9 639.4q294.7 0 589.4 0 0 8.5 0 17-294.7 0-589.4 0 0-8.5 0-17z"/>
					<path id="&lt;Path&gt;" class="s6" d="m320.7 639.4q255.9 0 511.8 0 0 49.2 0 98.4-255.9 0-511.8 0 0-49.2 0-98.4z"/>
					<path id="&lt;Path&gt;" class="s9" d="m320.7 639.4q255.9 0 511.8 0 0 8.5 0 17-255.9 0-511.8 0 0-8.5 0-17z"/>
				</g>
				<g id="&lt;Group&gt;">
					<path id="&lt;Path&gt;" class="s0" d="m973.2 459.6q15.4 0 30.7 0 0 122.1 0 244.1-15.3 0-30.7 0 0-122 0-244.1z"/>
					<path id="&lt;Compound Path&gt;" class="s1" d="m988.6 688.8c21.3 0 38.6 17.3 38.6 38.6 0 21.3-17.3 38.6-38.6 38.6-21.4 0-38.7-17.3-38.7-38.6 0-21.3 17.3-38.6 38.7-38.6zm0-185.6c16.5 0 29.8 13.4 29.8 29.9 0 16.5-13.3 29.9-29.8 29.9-16.6 0-29.9-13.4-29.9-29.9 0-16.5 13.3-29.9 29.9-29.9z"/>
					<path id="&lt;Path&gt;" class="s0" d="m113 459.6q15.4 0 30.7 0 0 122.1 0 244.1-15.3 0-30.7 0 0-122 0-244.1z"/>
					<path id="&lt;Compound Path&gt;" class="s1" d="m128.4 688.8c21.3 0 38.6 17.3 38.6 38.6 0 21.3-17.3 38.6-38.6 38.6-21.3 0-38.6-17.3-38.6-38.6 0-21.3 17.3-38.6 38.6-38.6zm0-185.6c16.5 0 29.9 13.4 29.9 29.9 0 16.5-13.4 29.9-29.9 29.9-16.5 0-29.9-13.4-29.9-29.9 0-16.5 13.4-29.9 29.9-29.9z"/>
					<path id="&lt;Path&gt;" class="s2" d="m58.4 714.6q500.1 0 1000.1 0 0 23.5 0 46.9-500 0-1000.1 0 0-23.4 0-46.9z"/>
					<path id="&lt;Path&gt;" class="s3" d="m1018.4 761.5q-459.9 0-919.9 0 0 49.2 0 98.3 460 0 919.9 0 0-49.1 0-98.3z"/>
					<path id="&lt;Path&gt;" class="s1" d="m1018.4 761.5q-459.9 0-919.9 0 0 8.5 0 17 460 0 919.9 0 0-8.5 0-17z"/>
					<path id="&lt;Path&gt;" class="s0" d="m58.4 714.6q500.1 0 1000.1 0 0 7.9 0 15.7-500 0-1000.1 0 0-7.8 0-15.7z"/>
					<path id="&lt;Path&gt;" class="s4" d="m211.3 714.6q365.3 0 730.6 0 0 23.5 0 46.9-365.3 0-730.6 0 0-23.4 0-46.9z"/>
					<path id="&lt;Path&gt;" class="s5" d="m211.3 714.6q365.3 0 730.6 0 0 7.9 0 15.7-365.3 0-730.6 0 0-7.8 0-15.7z"/>
					<path id="&lt;Path&gt;" class="s6" d="m252 714.6q324.6 0 649.2 0 0 23.5 0 46.9-324.6 0-649.2 0 0-23.4 0-46.9z"/>
					<path id="&lt;Path&gt;" class="s7" d="m252 714.6q324.6 0 649.2 0 0 7.9 0 15.7-324.6 0-649.2 0 0-7.8 0-15.7z"/>
					<path id="&lt;Path&gt;" class="s4" d="m230.4 761.5q346.2 0 692.4 0 0 49.2 0 98.3-346.2 0-692.4 0 0-49.1 0-98.3z"/>
					<path id="&lt;Path&gt;" class="s8" d="m230.4 761.5q346.2 0 692.4 0 0 8.5 0 17-346.2 0-692.4 0 0-8.5 0-17z"/>
					<path id="&lt;Path&gt;" class="s6" d="m269.2 761.5q307.4 0 614.8 0 0 49.2 0 98.3-307.4 0-614.8 0 0-49.1 0-98.3z"/>
					<path id="&lt;Path&gt;" class="s9" d="m269.2 761.5q307.4 0 614.8 0 0 8.5 0 17-307.4 0-614.8 0 0-8.5 0-17z"/>
				</g>
			</g>
			<g id="&lt;Group&gt;">
				<path id="&lt;Path&gt;" class="s0" d="m1024.7 581.7h30.7v244.1h-30.7z"/>
				<path id="&lt;Compound Path&gt;" class="s1" d="m1040.1 810.9c21.3 0 38.6 17.2 38.6 38.6 0 21.3-17.3 38.6-38.6 38.6-21.4 0-38.7-17.3-38.7-38.6 0-21.4 17.3-38.6 38.7-38.6zm0-185.6c16.5 0 29.8 13.4 29.8 29.9 0 16.5-13.3 29.9-29.8 29.9-16.6 0-29.9-13.4-29.9-29.9 0-16.5 13.3-29.9 29.9-29.9z"/>
				<path id="&lt;Path&gt;" class="s0" d="m61.5 581.7h30.7v244.1h-30.7z"/>
				<path id="&lt;Compound Path&gt;" class="s1" d="m76.9 810.9c21.3 0 38.6 17.2 38.6 38.6 0 21.3-17.3 38.6-38.6 38.6-21.3 0-38.6-17.3-38.6-38.6 0-21.4 17.3-38.6 38.6-38.6zm0-185.6c16.5 0 29.9 13.4 29.9 29.9 0 16.5-13.4 29.9-29.9 29.9-16.5 0-29.9-13.4-29.9-29.9 0-16.5 13.4-29.9 29.9-29.9z"/>
				<path id="&lt;Path&gt;" class="s2" d="m6.9 836.7h1103.1v46.9h-1103.1z"/>
				<path id="&lt;Path&gt;" class="s3" d="m1069.9 883.6h-1022.9v98.3h1022.9z"/>
				<path id="&lt;Path&gt;" class="s1" d="m1069.9 883.6h-1022.9v16.9h1022.9z"/>
				<path id="&lt;Path&gt;" class="s0" d="m6.9 836.7h1103.1v15.7h-1103.1z"/>
				<path id="&lt;Path&gt;" class="s4" d="m159.8 836.7h833.6v46.9h-833.6z"/>
				<path id="&lt;Path&gt;" class="s5" d="m159.8 836.7h833.6v15.7h-833.6z"/>
				<path id="&lt;Path&gt;" class="s6" d="m200.5 836.7h752.3v46.9h-752.3z"/>
				<path id="&lt;Path&gt;" class="s7" d="m200.5 836.7h752.3v15.7h-752.3z"/>
				<path id="&lt;Path&gt;" class="s4" d="m178.9 883.6h795.4v98.3h-795.4z"/>
				<path id="&lt;Path&gt;" class="s8" d="m178.9 883.6h795.4v16.9h-795.4z"/>
				<path id="&lt;Path&gt;" class="s6" d="m217.7 883.6h717.8v98.3h-717.8z"/>
				<path id="&lt;Path&gt;" class="s9" d="m217.7 883.6h717.8v16.9h-717.8z"/>
			</g>
			<path id="&lt;Path&gt;" class="s10" d="m317.7 12.6v38.2l-254 597.8h-54.8v-38.2z"/>
			<path id="&lt;Path&gt;" class="s11" d="m262.9 12.6h54.8l-254 597.8h-54.8z"/>
			<path id="&lt;Path&gt;" class="s10" d="m799.5 12.6v38.2l254 597.8h54.8v-38.2z"/>
			<path id="&lt;Path&gt;" class="s11" d="m854.3 12.6h-54.8l254 597.8h54.8z"/>
			<path id="&lt;Path&gt;" class="s10" d="m317.7 12.6h20v38.2h-20l-5.4-12.5z"/>
			<path id="&lt;Path&gt;" class="s10" d="m799.5 12.6h-19.9v38.2h19.9l5.4-12.5z"/>
		</g>
	</g>
</svg>