<svg version="1.2" xmlns="http://www.w3.org/2000/svg" viewBox="0 0 1111 994" width="1111" height="994">
	<title>man-stumble-on-stone-ai</title>
	<style>
		.s0 { fill: #ff9966 } 
		.s1 { fill: #333333 } 
		.s2 { fill: #ffffff } 
		.s3 { fill: #f04a4a } 
		.s4 { fill: #ffe8e8 } 
		.s5 { fill: #945151 } 
		.s6 { fill: #1a1a1a } 
		.s7 { fill: #ff6666 } 
		.s8 { fill: #693434 } 
		.s9 { fill: #522424 } 
	</style>
	<g id="_Artboards_">
	</g>
	<g id="publicdomainvectors.org">
		<g id="&lt;desc&gt;">
		</g>
		<g id="&lt;Group&gt;">
			<g id="&lt;Group&gt;">
				<g id="&lt;Group&gt;">
					<g id="&lt;Group&gt;">
						<path id="&lt;Path&gt;" class="s0" d="m869.4 82.6c9.4 29.1-5 52.4 7.1 65.7 12 13.3-6.2 75.6-18.2 82.5-6.7 3.9-35.7-6.9-51.7-12.7l-61.6 55.3-16.9-60.2 16.6-12.7-27.2-134.3z"/>
						<path id="&lt;Path&gt;" class="s1" d="m869.4 82.6l3-18.9c2.1-13.9-3.2-27.9-14.2-36.8-10.9-8.8-25.7-11.2-38.9-6.2l-97 8.7c-11.9 1-21 10.9-21.2 22.8l-2.4 2.6c-7.4 8.1-10.2 19.4-7.4 30.1 10.6 41.4 28.7 80.6 53.4 115.6l14.1-21.2c8.7-13.1 15.6-27.2 20.7-42.1l30.2 1.5-6.5-27.3c-3.3-13.5 7.6-24.2 21.4-25.3z"/>
						<path id="&lt;Path&gt;" class="s0" d="m766.6 109.6c-9.3 2.3-13.3 18.4-8.9 35.9 4.3 17.6 15.3 29.9 24.6 27.6 9.3-2.3 13.3-18.3 8.9-35.9-4.3-17.5-15.4-29.9-24.6-27.6z"/>
						<path id="&lt;Path&gt;" class="s1" d="m856.7 103.6l-1 11.6h-7.3c-6.3 0-12.6 1.4-18.4 3.9l-2.7-5.7c6.7-4.3 14.1-7.2 22-8.5z"/>
						<path id="&lt;Path&gt;" class="s1" d="m840.9 144c4.7 0 8.5-5.1 8.5-11.4 0-6.3-3.8-11.4-8.5-11.4-4.6 0-8.4 5.1-8.4 11.4 0 6.3 3.8 11.4 8.4 11.4z"/>
						<path id="&lt;Path&gt;" class="s2" d="m865.8 185.3c-2.9-0.9-6.7 2.8-8.4 8.4-1.8 5.5-0.8 10.8 2.1 11.7 2.9 0.9 6.7-2.9 8.4-8.4 1.8-5.6 0.8-10.8-2.1-11.7z"/>
					</g>
					<path id="&lt;Path&gt;" class="s0" d="m817.3 433.8l39.1 27.7 31.3-1.2c57-2.3 96.1-35.2 120.1-64.6l22.4-23.2-145.4 1.7-21.1-18.5z"/>
					<path id="&lt;Path&gt;" class="s3" d="m684.2 340l132.5 89.8 55.5-62.4-106.4-109.5c-14.6-15-36.1-21-56.3-15.6-20.2 5.3-36 21.2-41.2 41.4-5.3 20.3 0.8 41.8 15.9 56.3 0.5 0.5 1.2 0.8 0 0z"/>
					<path id="&lt;Path&gt;" class="s4" d="m812.5 438.9l68.4-72.7-34-42-86.6 83.1z"/>
					<path id="&lt;Path&gt;" class="s0" d="m990.5 374.5l5.4-13.2c4.1-9.8 12.1-17.4 22-21 11.7-4.2 16.4-6.8 21.3-18.1 2.4-5.6 10.9 1.6 10.7 11.9-0.2 5.5-7.7 9.4-10.9 19.5 19.7 7.4 47.1 10.7 61.1 16.8 4.6 2.1 6 11.6-3.1 11.5-9.3 0-16-3.7-26.8-2.5 10 5.3 12.4 4.6 25.4 10.3 8.5 3.7 7.5 13.2-5.4 12.1 0.6 1.3 0.6 2.8 0.1 4.3-0.6 2.1-2.3 3.7-4.2 4.2-7.2 1.9-30.8-1.5-40.2-6.1l-0.6 1.5c4.2 4 13.5 8.4 18.9 13.4 11.4 10.5-1.4 18.4-16.6 6.2q-5.9-4.8-12-9.1l-14.2-5.1c-13.1-4.6-24.8-8.6-37-15.2z"/>
					<path id="&lt;Path&gt;" class="s0" d="m557.2 223.9l-47.5-6.8-27.2 15.4c-49.6 28.1-69.4 75.2-77.3 112.4l-9.3 30.8 128.5-68 27.2 6.8z"/>
					<path id="&lt;Path&gt;" class="s5" d="m43.5 646l5.2-4.8 10.5-4c4.7-1.8 7.4-6.7 6.3-11.7-1.9-9.3 0.9-18.9 7.5-25.7 15.5-15.8 34.8-27.3 56-33.3l1.1-8.7c1.1-8.4-4.6-16.2-13-17.7-7.8-1.4-13.7-7.8-14.5-15.6l-4.9-44.8-14.4-14.5-27 20.4 5.2 11.7-3.1 13.2c-4 17.4-13.5 32.9-27.1 44.4-19.2 16.2-24 43.8-11.4 65.6z"/>
					<path id="&lt;Path&gt;" class="s6" d="m583 568.5l-221.6 76.6c-11.1 3.9-22 3.2-32.6-2l-34.1-16.6-195.9-47-1.1-99.8c100.7 1.4 162.1 24.5 242.7 81.1l139.8-75.4 20.8-23.1c35.6-39.6 96.3-43.4 136.6-8.6v56.8z"/>
					<path id="&lt;Path&gt;" class="s5" d="m307.4 986.1v-7l4.2-10.4c1.9-4.6 0.1-10-4.2-12.6-8.1-4.9-13.3-13.5-13.7-23-1.1-22.1 3.6-44 13.7-63.7l-5.6-6.7c-5.5-6.6-15.1-7.7-21.9-2.5-6.3 4.7-15 4.7-21.3 0l-36.1-26.9-20.4 0.6-3.4 33.7 12.1 4.2 7.5 11.2c10 14.8 14.9 32.3 14.1 50.1-1.2 25.1 15.7 47.4 40.2 53z"/>
					<path id="&lt;Path&gt;" class="s1" d="m618 538.3l-94.8 214.4c-4.7 10.8-12.7 18.4-23.7 22.6l-35.3 13.6-167.8 111.5-73.9-67.1c69.6-72.9 128.3-102.1 224.6-122.6l40-153.7-2.8-31c-4.7-53 33.8-100 86.7-105.9l66.6 90.4z"/>
					<path id="&lt;Path&gt;" class="s7" d="m741.1 199.9l-27.3 19.9c-45.5 33.1-83.4 75.5-111.1 124.4-23.8 41.8-57.4 77.2-97.9 103.2l8.6 14.7c30.1 51.6 79 89.6 136.5 106l70.5-87.9c83-68.7 90.4-168.8 20.7-280.3z"/>
					<path id="&lt;Path&gt;" class="s3" d="m626.1 307.7c-8.4 11.7-16.3 23.9-23.4 36.5-7.5 13.1-15.9 25.6-25.2 37.3 35.9 2.8 72.1-6 103.1-25.7l20-12.6z"/>
					<path id="&lt;Path&gt;" class="s7" d="m718.5 246.5l-159-19.4-20.8 81 144.7 48.7c19.8 6.6 41.7 2.1 57.2-11.9 15.6-14 22.3-35.3 17.8-55.7-4.6-20.4-19.9-36.7-39.9-42.7-0.7-0.2-1.4-0.2 0 0z"/>
					<path id="&lt;Path&gt;" class="s4" d="m559.2 217.1l-27.6 96 49.4 21.8 39-113.5z"/>
					<path id="&lt;Path&gt;" class="s0" d="m430.3 355.8l1.2 14.2c0.8 10.6-2.8 21-10 28.7-8.4 9.1-11.5 13.6-10.6 25.9 0.4 6-10.4 3.5-15-5.7-2.4-5 2.6-11.9 0.8-22.4-20.9 2.5-46.8 12.1-62 13-5.1 0.3-10.6-7.5-2.6-11.6 8.3-4.2 16-4 25.1-10-11.4-0.2-13.2 1.5-27.3 2.5-9.3 0.5-12.8-8.4-0.8-13.3-1-0.9-1.8-2.2-2.1-3.8-0.3-2.1 0.4-4.3 1.9-5.6 5.6-5 28-12.8 38.6-13l-0.2-1.5c-5.5-1.7-15.9-1.4-22.9-3.3-15-4.2-7.2-17.1 11.9-13.1q7.4 1.5 14.9 2.5l14.9-2c13.7-1.8 25.9-3.6 39.8-3.3z"/>
				</g>
				<path id="&lt;Path&gt;" class="s8" d="m324 986.1h100.7l10.4-15.9-12.6-31.5-34.4-12.9-17.5-25.1-21.8 7.2-34.4 22.9-2 34.7z"/>
				<path id="&lt;Path&gt;" class="s9" d="m370.6 900.7l-14 29 23.3 17.6-14.1 20.8-41.8 18h100.7l10.4-15.9-12.6-31.5-34.4-12.9z"/>
				<path id="&lt;Compound Path&gt;" class="s5" d="m389.7 868.9l28.9-39.8 10.9 8.1zm-1.4 29.2l22.9 3.3-4.5 11.7zm6.3-12l53.9-16.1-0.2 11.1z"/>
			</g>
		</g>
	</g>
</svg>