<?xml version="1.0" encoding="UTF-8" standalone="no"?>
<!-- Created with Inkscape (http://www.inkscape.org/) -->

<svg
   xmlns:dc="http://purl.org/dc/elements/1.1/"
   xmlns:cc="http://creativecommons.org/ns#"
   xmlns:rdf="http://www.w3.org/1999/02/22-rdf-syntax-ns#"
   xmlns:svg="http://www.w3.org/2000/svg"
   xmlns="http://www.w3.org/2000/svg"
   xmlns:sodipodi="http://sodipodi.sourceforge.net/DTD/sodipodi-0.dtd"
   xmlns:inkscape="http://www.inkscape.org/namespaces/inkscape"
   width="221.93652"
   height="245.76482"
   viewBox="0 0 58.720704 65.025276"
   version="1.1"
   id="svg8"
   inkscape:version="0.92.2 (5c3e80d, 2017-08-06)"
   sodipodi:docname="Surdo filled.svg">
  <title
     id="title8933">Surdo filled</title>
  <defs
     id="defs2">
    <clipPath
       clipPathUnits="userSpaceOnUse"
       id="clipPath9130">
      <path
         style="opacity:0.5;vector-effect:none;fill:#ff0000;fill-opacity:1;stroke:none;stroke-width:0.56300002;stroke-linecap:butt;stroke-linejoin:miter;stroke-miterlimit:4;stroke-dasharray:none;stroke-dashoffset:0;stroke-opacity:1;marker:none"
         d="m 55.601277,617.70517 a 97.202881,90.652867 45 0 0 -132.8319,-4.63182 97.202881,90.652867 45 0 0 -19.827308,31.52458 c 8.450198,-6.97829 15.457361,-10.71317 17.377361,-8.79317 l 0.056,0.056 c 2.610794,2.61079 -5.173655,14.60064 -17.455064,26.88207 l -5.103726,5.10373 a 97.202881,90.652867 45 0 0 24.700327,72.70226 c 12.184085,-12.12147 24.016291,-19.7813 26.607429,-17.19016 l 0.08281,0.0828 c 2.593582,2.59358 -5.085069,14.44254 -17.22633,26.63872 a 97.202881,90.652867 45 0 0 71.6041652,25.42335 l 5.8119715,-5.81197 C 21.678377,757.41021 33.668284,749.6257 36.279078,752.23649 l 0.19975,0.19975 c 2.013464,2.01347 -2.19575,9.61998 -9.84246,18.62151 A 97.202881,90.652867 45 0 0 60.235511,750.53949 97.202881,90.652867 45 0 0 55.60124,617.70513 Z"
         id="path9132"
         inkscape:connector-curvature="0" />
    </clipPath>
  </defs>
  <sodipodi:namedview
     id="base"
     pagecolor="#ffffff"
     bordercolor="#666666"
     borderopacity="1.0"
     inkscape:pageopacity="0.0"
     inkscape:pageshadow="2"
     inkscape:zoom="0.5385886"
     inkscape:cx="-272.72594"
     inkscape:cy="-296.54339"
     inkscape:document-units="mm"
     inkscape:current-layer="layer1"
     showgrid="false"
     inkscape:snap-global="false"
     units="px"
     fit-margin-top="10"
     fit-margin-right="10"
     fit-margin-bottom="10"
     fit-margin-left="10"
     inkscape:window-width="1920"
     inkscape:window-height="1057"
     inkscape:window-x="-8"
     inkscape:window-y="-8"
     inkscape:window-maximized="1" />
  <metadata
     id="metadata5">
    <rdf:RDF>
      <cc:Work
         rdf:about="">
        <dc:format>image/svg+xml</dc:format>
        <dc:type
           rdf:resource="http://purl.org/dc/dcmitype/StillImage" />
        <dc:title>Surdo filled</dc:title>
        <dc:date>2017-05-11</dc:date>
        <dc:creator>
          <cc:Agent>
            <dc:title>m1981</dc:title>
          </cc:Agent>
        </dc:creator>
        <dc:rights>
          <cc:Agent>
            <dc:title>Public domain</dc:title>
          </cc:Agent>
        </dc:rights>
        <dc:publisher>
          <cc:Agent>
            <dc:title>Inkscape</dc:title>
          </cc:Agent>
        </dc:publisher>
        <dc:subject>
          <rdf:Bag>
            <rdf:li>percussion</rdf:li>
            <rdf:li>surdo</rdf:li>
            <rdf:li>music</rdf:li>
            <rdf:li>instrument</rdf:li>
            <rdf:li>brasil</rdf:li>
            <rdf:li>brazil</rdf:li>
            <rdf:li>drum</rdf:li>
            <rdf:li>icon</rdf:li>
          </rdf:Bag>
        </dc:subject>
      </cc:Work>
    </rdf:RDF>
  </metadata>
  <g
     inkscape:label="Calque 1"
     inkscape:groupmode="layer"
     id="layer1"
     transform="translate(-50.77061,-53.57665)">
    <path
       inkscape:connector-curvature="0"
       id="path9361"
       d="m 54.381693,95.076366 v 4.076753 c 6.4e-5,0.0064 -7.1e-5,0.02246 0,0.02946 0.02903,2.479521 1.082733,4.945181 3.217892,7.134441 v -2.22777 c 0,-0.33964 0.09007,-0.66096 0.23306,-0.94619 -1.219946,-1.15521 -2.113452,-2.42843 -2.693892,-3.785814 -0.128939,-0.265962 0.01926,-0.583263 0.305925,-0.655256 0.0052,-0.0013 0.01034,-0.0011 0.0155,-0.0021 -0.346056,-0.976281 -0.559332,-2.042038 -0.611333,-3.207554 -0.217477,0.0029 -0.435477,-0.127675 -0.467153,-0.415997 z m 51.515717,0.01394 c -0.0676,0.242919 -0.27072,0.345998 -0.46871,0.336931 -0.04,1.190431 -0.24806,2.279189 -0.59892,3.274218 0.27138,0.06548 0.44987,0.371018 0.31057,0.655257 -0.57695,1.347268 -1.48557,2.608848 -2.69389,3.756878 0.15421,0.29491 0.24753,0.62389 0.24753,0.97514 v 2.18436 c 2.10503,-2.17701 3.17528,-4.63099 3.20342,-7.091043 7e-5,-0.0064 -8e-5,-0.02193 0,-0.02894 z m -7.48378,10.820014 c -3.900543,2.01618 -9.277988,3.32802 -16.133382,3.55276 v 3.85867 c 6.911721,-0.25323 12.318878,-1.73517 16.191259,-3.87314 -0.0369,-0.15668 -0.05788,-0.32733 -0.05788,-0.49506 z m -36.562109,0.0145 v 3.02875 c 0,0.16702 -0.02135,0.33869 -0.05839,0.49506 3.880594,2.14328 9.286902,3.62464 16.220715,3.87315 v -3.85868 c -6.867592,-0.22191 -12.256903,-1.5209 -16.162325,-3.5383 z"
       style="opacity:1;vector-effect:none;fill:#ced2d9;fill-opacity:1;stroke:none;stroke-width:0.36700001;stroke-linecap:round;stroke-linejoin:miter;stroke-miterlimit:4;stroke-dasharray:none;stroke-dashoffset:0;stroke-opacity:1;marker:none" />
    <path
       style="opacity:1;vector-effect:none;fill:#677183;fill-opacity:1;stroke:none;stroke-width:1.38708663;stroke-linecap:round;stroke-linejoin:miter;stroke-miterlimit:4;stroke-dasharray:none;stroke-dashoffset:0;stroke-opacity:1;marker:none"
       d="m 111.39844,11.65625 c -2.78586,-0.178355 -5.29884,1.457122 -6.32227,3.908203 a 1.8875779,1.8875779 0 0 0 1.76367,2.613281 c 1.39753,-0.01651 2.77654,-0.05664 4.10743,-0.05664 1.35198,0 2.7439,0.03759 4.15625,0.05664 a 1.8875779,1.8875779 0 0 0 1.77148,-2.601562 c -0.89778,-2.195186 -3.00277,-3.76132 -5.47656,-3.919922 z"
       transform="matrix(0.26458333,0,0,0.26458333,50.77061,53.57665)"
       id="path8958" />
    <path
       style="opacity:1;vector-effect:none;fill:#677183;fill-opacity:1;stroke:none;stroke-width:1.38708663;stroke-linecap:round;stroke-linejoin:miter;stroke-miterlimit:4;stroke-dasharray:none;stroke-dashoffset:0;stroke-opacity:1;marker:none"
       d="m 187.94336,20.953125 c -1.83221,0.04503 -3.48478,0.927583 -4.625,2.248047 a 1.8875779,1.8875779 0 0 0 0.93359,3.05664 c 2.76063,0.748496 5.36269,1.580331 7.72461,2.429688 a 1.8875779,1.8875779 0 0 0 2.51563,-1.978516 c -0.24813,-2.291073 -1.71373,-4.394456 -3.98828,-5.294922 h -0.002 c -0.82718,-0.327134 -1.69005,-0.48267 -2.55468,-0.460937 z"
       transform="matrix(0.26458333,0,0,0.26458333,50.77061,53.57665)"
       id="path8956" />
    <path
       style="opacity:1;vector-effect:none;fill:#677183;fill-opacity:1;stroke:none;stroke-width:1.38708663;stroke-linecap:round;stroke-linejoin:miter;stroke-miterlimit:4;stroke-dasharray:none;stroke-dashoffset:0;stroke-opacity:1;marker:none"
       d="m 34.21875,21.007815 c -0.649602,-0.02308 -2.57234,0.329104 -1.939453,0.169922 -2.720398,0.690015 -4.610589,3.03553 -4.826172,5.69336 a 1.8875779,1.8875779 0 0 0 2.517578,1.929687 c 2.407731,-0.863685 5.00042,-1.664984 7.789063,-2.433593 a 1.8875779,1.8875779 0 0 0 0.958984,-3.015626 c -1.095969,-1.339353 -2.707215,-2.240355 -4.5,-2.34375 z"
       transform="matrix(0.26458333,0,0,0.26458333,50.77061,53.57665)"
       id="path8954" />
    <path
       style="opacity:1;vector-effect:none;fill:#505968;fill-opacity:1;stroke:none;stroke-width:1.38708663;stroke-linecap:round;stroke-linejoin:miter;stroke-miterlimit:4;stroke-dasharray:none;stroke-dashoffset:0;stroke-opacity:1;marker:none"
       d="m 33.845703,52.818362 c -3.528432,0 -6.398437,2.898154 -6.398437,6.398438 v 16.015625 c 0,3.500178 2.897119,6.34375 6.398437,6.34375 3.488722,0 6.400391,-2.82721 6.400391,-6.34375 V 59.216797 c 0,-3.516681 -2.884584,-6.398438 -6.400391,-6.398438 z"
       transform="matrix(0.26458333,0,0,0.26458333,50.77061,53.57665)"
       id="path8952" />
    <path
       style="opacity:1;vector-effect:none;fill:#505968;fill-opacity:1;stroke:none;stroke-width:1.38708663;stroke-linecap:round;stroke-linejoin:miter;stroke-miterlimit:4;stroke-dasharray:none;stroke-dashoffset:0;stroke-opacity:1;marker:none"
       d="m 188.1582,52.818362 c -3.52827,0 -6.40039,2.897053 -6.40039,6.398438 v 15.960937 c 0,3.514174 2.88746,6.398438 6.40039,6.398438 3.51305,0 6.45313,-2.85786 6.45313,-6.398438 v -15.96094 c 0,-3.527767 -2.92472,-6.398438 -6.45313,-6.398438 z"
       transform="matrix(0.26458333,0,0,0.26458333,50.77061,53.57665)"
       id="path8950" />
    <path
       style="opacity:1;vector-effect:none;fill:#505968;fill-opacity:1;stroke:none;stroke-width:1.38708663;stroke-linecap:round;stroke-linejoin:miter;stroke-miterlimit:4;stroke-dasharray:none;stroke-dashoffset:0;stroke-opacity:1;marker:none"
       d="m 110.94727,61.181644 c -3.50406,0 -6.24599,2.939461 -6.28907,6.376953 a 1.8875779,1.8875779 0 0 0 0,0.0098 c 0,0 0,0.002 0,0.002 0,0.0014 -2e-5,0.0024 0,0.0098 -7e-5,0.01204 0,0.03002 0,0.05664 V 85.13879 c 0,3.461284 2.79944,6.345703 6.28907,6.345703 3.5023,0 6.45509,-2.8171 6.45507,-6.345703 V 68.408203 c 0,-0.52291 0.0713,-1.081187 -0.0879,-1.939453 a 1.8875779,1.8875779 0 0 0 0,-0.002 c -0.52004,-2.791906 -2.86643,-4.860659 -5.70312,-5.164063 a 1.8875779,1.8875779 0 0 0 -0.66406,-0.121093 z"
       transform="matrix(0.26458333,0,0,0.26458333,50.77061,53.57665)"
       id="path8948" />
    <path
       style="opacity:1;vector-effect:none;fill:#505968;fill-opacity:1;stroke:none;stroke-width:1.38708663;stroke-linecap:round;stroke-linejoin:miter;stroke-miterlimit:4;stroke-dasharray:none;stroke-dashoffset:0;stroke-opacity:1;marker:none"
       d="m 186.3418,184.79102 a 1.8875779,1.8875779 0 0 0 -0.69532,0.15429 c -2.31922,1.00464 -3.88867,3.33176 -3.88867,5.96875 v 18.38086 c 0,0.83342 0.13685,1.68373 0.47657,2.49219 l -0.14649,-0.68945 a 1.8875779,1.8875779 0 0 0 0.1543,0.76562 c 0.99538,2.30054 3.31164,3.83203 5.91601,3.83203 3.51323,0 6.45313,-2.85808 6.45313,-6.39843 v -18.38086 c 0,-2.68994 -1.67159,-5.00685 -4.02539,-5.98243 a 1.8875779,1.8875779 0 0 0 -2.45508,1.00196 1.8875779,1.8875779 0 0 0 -1.78906,-1.14453 z"
       transform="matrix(0.26458333,0,0,0.26458333,50.77061,53.57665)"
       id="path8946" />
    <path
       style="opacity:1;vector-effect:none;fill:#505968;fill-opacity:1;stroke:none;stroke-width:1.38708663;stroke-linecap:round;stroke-linejoin:miter;stroke-miterlimit:4;stroke-dasharray:none;stroke-dashoffset:0;stroke-opacity:1;marker:none"
       d="m 32.085938,184.84762 c -0.607813,0.0759 -0.513432,0.0525 -0.732422,0.14648 -2.322756,0.97354 -3.90625,3.28866 -3.90625,5.92188 v 18.38281 c 0,3.51291 2.885221,6.39844 6.398437,6.39844 3.500452,0 6.400391,-2.86926 6.400391,-6.39844 v -18.38281 c 0,-2.61824 -1.582201,-4.87918 -3.830078,-5.85743 a 1.8875779,1.8875779 0 0 0 -2.50586,1.02735 1.8875779,1.8875779 0 0 0 -1.611328,-1.23047 1.8875779,1.8875779 0 0 0 -0.21289,-0.008 z"
       transform="matrix(0.26458333,0,0,0.26458333,50.77061,53.57665)"
       id="path8944" />
    <path
       style="opacity:1;vector-effect:none;fill:#505968;fill-opacity:1;stroke:none;stroke-width:1.38708663;stroke-linecap:round;stroke-linejoin:miter;stroke-miterlimit:4;stroke-dasharray:none;stroke-dashoffset:0;stroke-opacity:1;marker:none"
       d="m 109.18555,203.50582 a 1.8875779,1.8875779 0 0 0 -0.68946,0.15234 c -2.2688,0.97234 -3.8035,3.2483 -3.83789,5.83594 a 1.8875779,1.8875779 0 0 0 0.004,0.084 c -2e-5,-4e-5 -0.004,5e-5 -0.004,0 -3e-5,0.017 0,0.0328 0,0.0508 v 18.03906 0.0117 c -8e-5,0.0123 0,0.0302 0,0.0566 0,0.007 0.004,0.0126 0.004,0.0195 a 1.8875779,1.8875779 0 0 0 0.10937,0.55078 c 0.29738,3.20597 2.87702,5.83008 6.17579,5.83008 3.51405,0 6.45312,-2.85985 6.45312,-6.40039 v -0.0566 -18.05078 -0.10938 a 1.8875779,1.8875779 0 0 0 0,-0.0234 c -0.031,-2.59704 -1.65161,-4.79614 -3.875,-5.77539 a 1.8875779,1.8875779 0 0 0 -2.51367,1.0293 1.8875779,1.8875779 0 0 0 -1.82617,-1.24414 z"
       transform="matrix(0.26458333,0,0,0.26458333,50.77061,53.57665)"
       id="path8942" />
    <path
       style="opacity:1;vector-effect:none;fill:#9199a5;fill-opacity:1;stroke:none;stroke-width:1.38708663;stroke-linecap:round;stroke-linejoin:miter;stroke-miterlimit:4;stroke-dasharray:none;stroke-dashoffset:0;stroke-opacity:1;marker:none"
       d="m 108.36914,209.97848 c -0.002,0.0163 -0.0111,0.0475 -0.0137,0.0469 a 1.8875779,1.8875779 0 0 0 0.0137,-0.0469 z"
       transform="matrix(0.26458333,0,0,0.26458333,50.77061,53.57665)"
       id="path9353" />
    <path
       inkscape:connector-curvature="0"
       id="path9294"
       d="m 80.125341,58.804161 c -9.096332,0 -19.068385,1.403514 -23.399088,3.698483 -0.948399,0.50259 -1.600814,1.030412 -1.965772,1.514118 -0.364657,0.483733 -0.463478,0.909008 -0.364318,1.339453 0.03493,0.151614 0.102351,0.310351 0.201538,0.473874 3.351266,-2.913951 13.727182,-4.914661 25.516271,-4.920112 11.802348,0.0076 22.181218,2.014559 25.513168,4.933548 0.13231,-0.204915 0.21938,-0.403037 0.25632,-0.589111 0.0874,-0.44029 -0.0139,-0.859123 -0.42271,-1.353923 -0.40885,-0.494818 -1.14021,-1.027359 -2.18385,-1.529104 -2.01526,-1.067731 -5.544385,-1.990651 -9.683132,-2.606561 -4.138745,-0.615878 -8.920244,-0.960665 -13.468427,-0.960665 z m 25.772589,8.18348 c -0.7088,0.734852 -1.80069,1.399977 -3.23288,1.995229 0.0114,0.08806 0.0295,0.170997 0.0295,0.261998 v 2.839103 c 1.08153,-0.536821 1.90668,-1.111236 2.43137,-1.645377 0.6018,-0.612619 0.81044,-1.165569 0.77205,-1.645378 v -0.01498 -0.02894 z m -51.545177,0.05839 v 1.703255 0.02894 0.01498 c -0.03994,0.49127 0.210743,1.059804 0.844394,1.688785 0.529635,0.52573 1.338606,1.07574 2.402438,1.60197 v -2.83962 c 0,-0.08107 0.02056,-0.15436 0.02946,-0.23306 -1.454542,-0.586661 -2.564932,-1.235406 -3.276288,-1.965257 z m 44.060877,3.232878 c -3.975338,0.913291 -9.341792,1.509723 -16.132866,1.615924 v 3.69848 c 6.855674,-0.134019 12.255021,-0.89409 16.147852,-1.965772 -0.0049,-0.05445 -0.01498,-0.104597 -0.01498,-0.160194 z m -36.562109,0.01447 v 3.188954 c 0,0.05032 -0.01066,0.09643 -0.01447,0.145728 3.89903,1.074938 9.298678,1.833541 16.176791,1.965769 v -3.698481 c -6.79152,-0.1056 -12.184784,-0.68961 -16.162321,-1.60197 z"
       style="opacity:1;vector-effect:none;fill:#ced2d9;fill-opacity:1;stroke:none;stroke-width:0.36700001;stroke-linecap:round;stroke-linejoin:miter;stroke-miterlimit:4;stroke-dasharray:none;stroke-dashoffset:0;stroke-opacity:1;marker:none" />
    <path
       sodipodi:nodetypes="cccssccsccssccc"
       inkscape:connector-curvature="0"
       id="path9214"
       d="m 80.113972,60.909977 c -11.789089,0.0055 -22.165005,2.006161 -25.516271,4.920112 0.441048,0.727136 1.525678,1.551771 3.336746,2.292885 0.378909,-0.596482 1.039426,-1.004591 1.791107,-1.004591 1.165704,0 2.125967,0.959731 2.125967,2.12545 v 0.08785 c 3.912232,0.920178 9.33514,1.554826 16.220715,1.659845 0.213018,-0.942571 1.044217,-1.659845 2.053105,-1.659845 1.013622,0 1.880532,0.707517 2.096514,1.659845 6.872388,-0.10726 12.286167,-0.754933 16.191775,-1.674831 v -0.07287 c 0,-1.172469 0.974793,-2.12545 2.14044,-2.12545 0.75129,0 1.40622,0.40867 1.7911,1.004591 1.73789,-0.732346 2.81242,-1.55221 3.28197,-2.279449 -3.33195,-2.918989 -13.71082,-4.925978 -25.513168,-4.933548 z"
       style="opacity:1;vector-effect:none;fill:#ffffff;fill-opacity:1;stroke:none;stroke-width:0.36700001;stroke-linecap:round;stroke-linejoin:miter;stroke-miterlimit:4;stroke-dasharray:none;stroke-dashoffset:0;stroke-opacity:1;marker:none" />
    <path
       inkscape:connector-curvature="0"
       id="path8928"
       d="M 105.47229,74.118648 C 98.03331,78.413568 93.30267,107.8894 69.607725,105.62979 60.010198,104.71455 54.834682,96.388778 54.834682,79.849638 v 15.07321 c 0,3.49666 1.393795,6.138912 3.561575,8.137312 0.30071,-0.41603 0.780771,-0.68837 1.328858,-0.68837 0.916509,0 1.654653,0.75209 1.654653,1.6863 v 1.12875 c 5.167607,2.88026 12.28132,3.69041 17.086997,3.83349 0.03039,-0.90677 0.756376,-1.62898 1.659784,-1.62898 h 0.0067 c 0.902832,0 1.628533,0.72132 1.659785,1.62728 4.804193,-0.14495 11.927188,-0.96982 17.108372,-3.84974 v -1.10568 c 0,-0.9342 0.742938,-1.68629 1.665774,-1.68629 0.54583,0 1.02369,0.26728 1.32715,0.67555 2.16164,-1.98332 3.54532,-4.600712 3.54532,-8.047532 z"
       style="opacity:1;fill:#d38d5f;fill-opacity:1;stroke:none;stroke-width:0.93162829;stroke-linecap:butt;stroke-linejoin:miter;stroke-miterlimit:4;stroke-dasharray:none;stroke-opacity:1" />
    <path
       inkscape:connector-curvature="0"
       id="path8930"
       d="m 54.815875,70.755458 0.02651,9.82361 c 0.152104,16.05066 5.311143,24.149152 14.765345,25.050722 23.694946,2.25961 28.425585,-27.216222 35.86457,-31.511142 v -3.28623 c -0.71245,0.77673 -1.83619,1.45233 -3.23236,2.03861 v 0.57206 c 0,0.93421 -0.75056,1.68631 -1.68287,1.68631 -0.750146,0 -1.375415,-0.49034 -1.593945,-1.16725 -5.245982,1.42036 -12.206865,2.06126 -17.153697,2.17886 -0.01639,0.91988 -0.758948,1.65636 -1.682874,1.65636 -0.923952,0 -1.667468,-0.73643 -1.683729,-1.65636 -4.985492,-0.10772 -11.863288,-0.68869 -17.13317,-2.1797 -0.227155,0.65122 -0.839401,1.11849 -1.57,1.11849 -0.924552,0 -1.668339,-0.74378 -1.668339,-1.66834 v -0.31041 c 0,-0.0888 0.01244,-0.17406 0.02565,-0.2591 -1.361442,-0.59429 -2.490621,-1.28508 -3.281094,-2.08649 z"
       style="opacity:1;vector-effect:none;fill:#f4e3d7;fill-opacity:1;stroke:none;stroke-width:0.15610355;stroke-linecap:butt;stroke-linejoin:miter;stroke-miterlimit:4;stroke-dasharray:none;stroke-dashoffset:0;stroke-opacity:1" />
    <path
       sodipodi:nodetypes="cccccccccccccccccccccssccsccsscccccccccccccccccccccccccscccccsccssccsccssccccscccccccccccsccsccsccccccscccccscccccccssssscccsssssscssccccccccscccccccccsccccccccscccccccscccccccccccccsccccccccccsccccccccccccsccccccccsssccssccccsccssssscccsccccccccscccccccscsascsccscc"
       id="path4823"
       d="m 80.256275,56.226758 c -1.055635,-0.0674 -1.961647,0.66986 -2.184114,1.67448 -5.884961,0.12409 -11.88103,0.77923 -16.482792,1.92201 -0.33289,-0.62261 -0.949791,-1.04163 -1.630802,-1.12117 -0.249902,-0.0292 -0.501542,-0.007 -0.757157,0.0583 -1.0455,0.26447 -1.700238,1.26986 -1.572565,2.31518 -0.478095,0.19693 -0.935213,0.39725 -1.339592,0.61154 -1.025958,0.54371 -1.79914,1.13107 -2.286036,1.77643 -0.297732,0.3946 -0.489486,0.81762 -0.55331,1.25221 -7.8e-5,0.005 -7.8e-5,0.0106 0,0.0149 -4.65e-4,0.005 4.65e-4,0.0106 0,0.0149 -0.0208,0.0557 -0.03068,0.11512 -0.02914,0.17473 v 3.81491 0.0437 c -0.04989,0.78261 0.334845,1.53818 1.004696,2.24236 -0.04979,0.0781 -0.07514,0.16943 -0.07281,0.26209 l 0.02914,19.99194 c -0.580008,1.19692 -0.885113,2.44057 -0.931886,3.68387 v 0.0149 4.20806 c 0.02851,3.005502 1.431145,5.965592 4.149817,8.445232 v 1.32503 c 0,1.17241 0.953411,2.12588 2.125872,2.12588 0.668992,0 1.254961,-0.31536 1.645367,-0.80084 4.054253,2.23458 9.61725,3.73033 16.686637,3.97508 0.195031,0.96505 1.041735,1.70361 2.067618,1.70361 1.025901,0 1.908664,-0.73534 2.111322,-1.70361 7.04933,-0.24835 12.610125,-1.73191 16.657513,-3.96053 0.390488,0.4821 0.993184,0.78629 1.659917,0.78629 1.17246,0 2.14045,-0.95347 2.14045,-2.12588 v -1.36871 c 2.69176,-2.47198 4.10762,-5.41123 4.13523,-8.401552 v -4.20806 -0.0149 c -0.0455,-1.21768 -0.35817,-2.44933 -0.91731,-3.62564 -0.002,-0.004 0.002,-0.0106 0,-0.0149 l 0.0291,-20.0356 c 0.005,-0.0976 -0.0202,-0.19436 -0.0728,-0.27667 0.65328,-0.69749 1.00935,-1.45473 0.961,-2.22779 -4.3e-4,-0.0133 0.001,-0.0308 0,-0.0437 l 0.0149,-3.81491 c 0.005,-0.08 -0.01,-0.16034 -0.0437,-0.23299 -0.0659,-0.48024 -0.27178,-0.95442 -0.62611,-1.38326 -0.53469,-0.64711 -1.34828,-1.22511 -2.46077,-1.76185 -0.005,-0.004 -0.0245,0.004 -0.0291,0 -0.3137,-0.16561 -0.65361,-0.34058 -1.01927,-0.49507 0.0943,-0.93414 -0.44801,-1.84601 -1.33957,-2.19868 -0.27171,-0.10749 -0.53937,-0.15256 -0.81542,-0.14562 -0.741212,0.0187 -1.449002,0.42225 -1.820081,1.09205 -1.5053,-0.36548 -3.17591,-0.68016 -4.965231,-0.94644 -3.563486,-0.53029 -7.572549,-0.85856 -11.517572,-0.94644 -0.197081,-0.91735 -0.991844,-1.61309 -1.951141,-1.6745 z m -0.04369,0.93187 c 0.467965,0.03 0.851703,0.31838 1.019248,0.72805 -0.369161,-0.005 -0.739825,-0.0149 -1.106619,-0.0149 -0.361961,0 -0.728109,0.0106 -1.092057,0.0149 0.190379,-0.45595 0.653364,-0.76173 1.179428,-0.72805 z m -0.08736,1.64538 c 4.548183,0 9.32995,0.34511 13.468696,0.96099 4.138746,0.61591 7.667649,1.53866 9.682909,2.60639 1.04364,0.50175 1.77528,1.03406 2.18412,1.52888 0.40884,0.4948 0.50964,0.91386 0.42226,1.35415 -0.16801,0.84645 -1.3107,1.92976 -3.53827,2.86846 -0.38488,-0.59592 -1.03968,-1.00467 -1.79098,-1.00467 -1.165643,0 -2.140427,0.95339 -2.140427,2.12586 v 0.0728 c -3.905607,0.9199 -9.319176,1.56721 -16.191565,1.67447 -0.21598,-0.95233 -1.083121,-1.6599 -2.096743,-1.6599 -1.008888,0 -1.840057,0.71733 -2.053074,1.6599 -6.885575,-0.10502 -12.30846,-0.73972 -16.220691,-1.6599 v -0.0874 c 0,-1.16572 -0.960171,-2.12586 -2.125875,-2.12586 -0.75168,0 -1.412062,0.4082 -1.79097,1.00468 -2.218356,-0.90778 -3.348011,-1.94076 -3.538267,-2.76654 -0.09916,-0.43045 -6.38e-4,-0.85587 0.364018,-1.3396 0.364959,-0.48371 1.017306,-1.01172 1.965704,-1.51431 4.330702,-2.29497 14.302824,-3.69842 23.399155,-3.69842 z m 20.385065,0.81539 c 0.15539,-0.004 0.32587,0.0262 0.48049,0.0874 0.42415,0.16778 0.6957,0.55709 0.74261,0.99013 -0.63695,-0.22905 -1.33794,-0.45344 -2.082181,-0.65523 0.220514,-0.25537 0.524621,-0.41426 0.859081,-0.42226 z m -40.857507,0.0149 c 0.384819,-0.0261 0.73526,0.14315 0.975575,0.43683 -0.747113,0.20592 -1.444921,0.42142 -2.096752,0.65524 0.04014,-0.49487 0.388993,-0.93299 0.90277,-1.06293 0.07245,-0.0185 0.146498,-0.0243 0.218407,-0.0291 z m 20.472442,0.78628 c -9.188665,0 -19.132606,1.32248 -23.835975,3.81492 -0.490423,0.19001 0.007,1.11843 0.436822,0.81541 4.330703,-2.29498 14.302839,-3.69843 23.399153,-3.69843 9.096381,0 19.097551,1.40345 23.428245,3.69843 0.42988,0.30299 0.92723,-0.62536 0.43684,-0.81541 -4.703363,-2.49244 -14.676367,-3.81492 -23.865085,-3.81492 z m 25.772525,6.56694 v 1.76185 0.0291 0.0149 c 0.0384,0.47981 -0.16993,1.03273 -0.77173,1.64535 -0.52469,0.53414 -1.35011,1.10857 -2.43165,1.64539 v -2.83936 c 0,-0.091 -0.0177,-0.17403 -0.0291,-0.26209 1.4322,-0.59525 2.52369,-1.25999 3.23249,-1.99484 z m -51.545109,0.0583 c 0.711354,0.72985 1.821634,1.37905 3.276174,1.96571 -0.0089,0.0787 -0.02915,0.15191 -0.02915,0.23298 v 2.83933 c -1.06383,-0.52623 -1.872889,-1.07594 -2.402523,-1.60167 -0.633651,-0.62898 -0.884472,-1.19779 -0.844527,-1.68906 v -0.0149 -0.0291 -1.70359 z m 5.372925,1.00469 c 0.669825,0 1.193982,0.5242 1.193982,1.194 v 4.23717 c 0,0.66972 -0.524181,1.17941 -1.193982,1.17941 -0.669798,0 -1.193987,-0.5164 -1.193987,-1.17941 v -4.23717 c 0,-0.66308 0.524163,-1.194 1.193987,-1.194 z m 40.828384,0 c 0.66981,0 1.20853,0.53092 1.20853,1.194 v 4.22261 c 0,0.66309 -0.54546,1.19397 -1.20853,1.19397 -0.662999,0 -1.193995,-0.53091 -1.193995,-1.19397 v -4.22261 c 0,-0.66307 0.524244,-1.194 1.193995,-1.194 z m -20.428757,2.21324 c 0.590367,0 1.089297,0.42817 1.193972,0.99014 0.01522,0.0819 0.0149,0.28341 0.0149,0.42226 v 4.42682 c 0,0.663 -0.53874,1.17943 -1.208536,1.17943 -0.669795,0 -1.164865,-0.50968 -1.164865,-1.17943 v -4.63067 c 0,-0.0132 1.32e-4,-0.0214 0,-0.0149 0.0083,-0.6624 0.506818,-1.19398 1.164865,-1.19398 z m 18.288324,0.0149 v 3.18882 c 0,0.0556 0.01,0.10572 0.01489,0.16017 -3.892831,1.07168 -9.292222,1.83169 -16.147896,1.96571 v -3.69846 c 6.791073,-0.1062 12.158013,-0.70294 16.133351,-1.61623 z m -36.562083,0.0149 c 3.977537,0.91236 9.370934,1.49608 16.162454,1.60168 v 3.69844 c -6.878114,-0.13223 -12.277984,-0.89077 -16.177012,-1.96571 0.0038,-0.0493 0.01456,-0.0953 0.01456,-0.14562 v -3.18881 z m 43.143546,1.47064 -0.0149,23.20985 c 0.01,0.53848 0.77292,0.63533 0.91733,0.11642 v 4.06245 c -8e-5,0.007 7e-5,0.0227 0,0.0291 -0.0281,2.460052 -1.09834,4.914082 -3.20337,7.091092 v -2.18411 c 0,-0.35125 -0.0933,-0.68067 -0.24754,-0.97558 1.20832,-1.14803 2.1168,-2.40941 2.69375,-3.756672 0.17598,-0.3591 -0.15241,-0.75849 -0.53876,-0.65524 -0.14495,0.0356 -0.26402,0.1385 -0.32033,0.27665 -0.51544,1.203662 -1.3399,2.347272 -2.44621,3.407222 -0.24265,-0.18463 -0.525,-0.32471 -0.82996,-0.39315 V 75.535298 c 0.95678,-0.21066 1.68905,-1.05273 1.68905,-2.06762 v -0.36402 c 0.92121,-0.42441 1.68285,-0.87469 2.3006,-1.33958 z m -49.695888,0.0149 c 0.618414,0.46494 1.387076,0.91911 2.3006,1.33958 v 0.36403 c 0,1.00512 0.709096,1.83642 1.645366,2.05307 l 0.02914,26.486022 c -0.312151,0.0693 -0.599318,0.20229 -0.844528,0.39314 -1.115005,-1.06737 -1.927514,-2.22335 -2.446205,-3.436342 -0.087,-0.21225 -0.315547,-0.32962 -0.538746,-0.27665 -0.286662,0.072 -0.43472,0.38927 -0.30578,0.65523 0.58044,1.357392 1.473795,2.630572 2.693741,3.785782 -0.142987,0.28523 -0.232971,0.60683 -0.232971,0.94647 v 2.22779 c -2.135158,-2.18927 -3.188903,-4.65524 -3.217929,-7.134772 -7e-5,-0.007 6.3e-5,-0.0227 0,-0.0291 v -4.07703 c 0.06822,0.62093 1.000118,0.51899 0.931893,-0.10197 l -0.01456,-23.19529 z m 43.405629,2.73742 c 0.293968,0.51088 0.791867,0.88812 1.383279,1.01926 v 26.456902 c -0.952214,0.21509 -1.674483,1.08224 -1.674483,2.09675 v 0.77172 c -3.762388,2.05694 -9.180393,3.44162 -16.206144,3.66931 -0.190165,-0.7815 -0.81611,-1.404 -1.601673,-1.58713 V 78.156688 c 0.803318,-0.18504 1.460207,-0.80907 1.630797,-1.61624 6.973593,-0.13221 12.457705,-0.91313 16.468224,-2.02394 z m -37.144498,0.0149 c 4.015564,1.11027 9.516195,1.87924 16.497333,2.00938 0.166023,0.81315 0.807655,1.43794 1.616252,1.61625 v 28.786622 c -0.790561,0.1766 -1.401728,0.79987 -1.587128,1.58711 -7.04966,-0.22233 -12.464147,-1.59391 -16.235246,-3.65473 v -0.78634 c 0,-0.9994 -0.709103,-1.84554 -1.645367,-2.06762 l -0.02915,-26.485942 c 0.589063,-0.12901 1.08778,-0.49949 1.383278,-1.00471 z M 100.088,102.96851 v 1.12119 c -0.09598,0.53459 1.01326,0.53459 0.91733,0 v -1.12119 c 0.44088,0.18273 0.75715,0.61914 0.75715,1.12119 v 4.8633 c 0,0.66298 -0.54547,1.19396 -1.20853,1.19396 -0.49278,0 -0.923789,-0.29089 -1.106624,-0.71346 8.3e-5,-0.005 8.3e-5,-0.0106 0,-0.0149 -0.06007,-0.14296 -0.08737,-0.3002 -0.08737,-0.46595 v -4.86322 c 0,-0.49731 0.299281,-0.93546 0.728044,-1.12119 z m -40.828377,0.0149 c 0.0043,-0.001 0.0101,10e-4 0.01456,0 v 1.12118 c 0.04335,0.57627 0.888534,0.57627 0.931893,0 v -1.10662 c 0.41987,0.18272 0.713473,0.59679 0.713473,1.09205 v 4.86331 c 0,0.66972 -0.53092,1.19397 -1.193981,1.19397 -0.663062,0 -1.19398,-0.53098 -1.19398,-1.19397 v -4.86331 c 0,-0.4973 0.298303,-0.92649 0.728037,-1.10661 z m 39.153894,2.92671 v 3.04321 c 0,0.16773 0.02134,0.33838 0.05824,0.49506 -3.87238,2.13797 -9.279861,3.61992 -16.191583,3.87316 v -3.85858 c 6.855393,-0.22474 12.232792,-1.53667 16.133335,-3.55285 z m -36.562083,0.0149 c 3.905422,2.0174 9.294865,3.31638 16.162454,3.53827 v 3.8586 c -6.933813,-0.24851 -12.340098,-1.73003 -16.220693,-3.87331 0.03703,-0.15637 0.05821,-0.32803 0.05821,-0.49505 v -3.02865 z m 17.822374,1.99482 v 1.1212 c 0.04335,0.57626 0.888538,0.57626 0.931892,0 v -1.10663 c 0.422311,0.186 0.72227,0.59262 0.728043,1.0775 v 0.0291 4.77593 0.0149 c 0,0.66308 -0.545473,1.19398 -1.20855,1.19398 -0.663077,0 -1.164867,-0.52417 -1.164867,-1.19398 0,-0.0132 1.48e-4,-0.0213 0,-0.0149 v -4.77593 c 0,-0.0132 8.3e-5,-0.0329 0,-0.0291 0.0066,-0.49683 0.292827,-0.91179 0.713482,-1.09207 z"
       style="color:#000000;font-style:normal;font-variant:normal;font-weight:normal;font-stretch:normal;font-size:medium;line-height:normal;font-family:Sans;-inkscape-font-specification:Sans;text-indent:0;text-align:start;text-decoration:none;text-decoration-line:none;letter-spacing:normal;word-spacing:normal;text-transform:none;writing-mode:lr-tb;direction:ltr;baseline-shift:baseline;text-anchor:start;display:inline;overflow:visible;visibility:visible;fill:#000000;fill-opacity:1;stroke:none;stroke-width:0.93188882;marker:none;enable-background:accumulate"
       inkscape:connector-curvature="0" />
  </g>
</svg>
