<svg version="1.2" xmlns="http://www.w3.org/2000/svg" viewBox="0 0 365 521" width="365" height="521">
	<title>reel-black-threads-publicdomainvectors</title>
	<style>
		.s0 { fill: #292423 } 
		.s1 { fill: #d6a571 } 
		.s2 { fill: #ddb487 } 
		.s3 { fill: #fde8d1 } 
		.s4 { fill: #eec8a1 } 
		.s5 { fill: #85613a } 
		.s6 { fill: #694a28 } 
		.s7 { fill: #4d4441 } 
		.s8 { fill: #d5cac6 } 
	</style>
	<g id="_Artboards_">
	</g>
	<g id="Publicdomainvectors.org">
		<g id="&lt;Group&gt;">
			<g id="&lt;Group&gt;">
				<g id="&lt;Group&gt;">
					<path id="&lt;Path&gt;" class="s0" d="m302 192.2l1.1 0.5c13.3 5.6 24 14.5 31.5 25.6 7.5 11.1 11.7 24.4 12 38.8l1.1 64.5c0.1 7.5-1.7 14.4-5 20.5-3.4 6.1-8.4 11.3-14.8 15.1-6.4 3.8-13.4 5.8-20.3 5.9-7 0.1-14-1.7-20.5-5.3l-59.7-33.4 3.8-6.8 59.7 33.4c5.3 2.9 11 4.4 16.6 4.3 5.6-0.1 11.1-1.7 16.4-4.8 5.2-3.1 9.2-7.3 11.9-12.2 2.8-4.9 4.2-10.5 4.1-16.6l-1.1-64.5c-0.2-12.8-4-24.7-10.7-34.5-6.6-9.9-16.2-17.8-28-22.8l-1.2-0.5z"/>
					<path id="&lt;Path&gt;" class="s1" d="m324.7 103.7l-70.4 48.9c-37.9 26.2-127.4 24.8-163.2 0l-70.4-48.9 152-59z"/>
					<path id="&lt;Path&gt;" class="s2" d="m328.2 97.1q0 0.3 0 0.5c0 15.9-69.6 28.7-155.5 28.7-85.9 0-155.5-12.8-155.5-28.7q0-0.2 0-0.5l4.4-54.4h151.1 151.1l4.4 54.4z"/>
					<path id="&lt;Path&gt;" class="s3" d="m172.7 74.7c83.2 0 151.1-13.5 151.1-30 0-16.5-67.9-29.9-151.1-29.9-83.2 0-151.1 13.4-151.1 29.9 0 16.5 67.9 30 151.1 30z"/>
					<path id="&lt;Path&gt;" class="s4" d="m172.7 70.6c83.2 0 151.1-12.5 151.1-27.9 0-15.4-67.9-27.9-151.1-27.9-83.2 0-151.1 12.5-151.1 27.9 0 15.4 67.9 27.9 151.1 27.9z"/>
					<path id="&lt;Path&gt;" class="s5" d="m172.7 53c30.7 0 55.8-4.6 55.8-10.3 0-5.7-25.1-10.3-55.8-10.3-30.7 0-55.8 4.6-55.8 10.3 0 5.7 25.1 10.3 55.8 10.3z"/>
					<path id="&lt;Path&gt;" class="s6" d="m172.7 32.4q1.1 0 2.3 0c-4.3 5.8-7.7 12.8-9.9 20.5-27.2-0.7-48.2-5-48.2-10.2 0-5.7 25-10.3 55.8-10.3z"/>
					<path id="&lt;Path&gt;" class="s2" d="m16.3 461.6c-5.5 68 318.4 68.9 312.8 0l-4.4-54.9h-152-152z"/>
					<path id="&lt;Path&gt;" class="s3" d="m324.7 409.5l-70.4-50.8c-37.9-27.4-127.4-25.9-163.2 0l-70.4 50.8c-0.6 59.1 307.5 57.6 304 0z"/>
					<path id="&lt;Path&gt;" class="s1" d="m324.7 406.7l-70.4-48.8c-37.9-26.3-127.4-24.9-163.2 0l-70.4 48.8c-0.6 56.8 307.5 55.4 304 0z"/>
					<path id="&lt;Path&gt;" class="s7" d="m67.8 136.4c46.5 27 164.2 26.9 209.8 0v237.7c0 35.1-209.8 34.4-209.8 0z"/>
					<path id="&lt;Compound Path&gt;" fill-rule="evenodd" class="s8" d="m340 180c-9 6.1-29.3 18.3-73.8 43.6-94 53.6-260.2 145.6-261.6 143.2-1.4-2.5 162.5-98.5 256.5-152.1 44.5-25.3 65.4-36.6 75.2-41.2 1.8-0.9 3.9-0.2 4.9 1.5 0.9 1.7 0.4 3.9-1.2 5zm-17.7 5.7c-0.5-1-10.3 3.5-21.8 10.1-11.6 6.6-20.4 12.7-19.9 13.7 0.6 1 10.4-3.5 21.9-10.1 11.5-6.5 20.4-12.7 19.8-13.7z"/>
					<g id="&lt;Group&gt;">
						<path id="&lt;Compound Path&gt;" class="s0" d="m91.3 204.2c24.8 60.5 107.4 85.1 171.1 67.2-64.2 2.9-135.6-22.9-171.1-67.2zm-11.7 39c35.5 44.3 107 70.1 171.2 67.2-63.8 17.9-146.4-6.7-171.2-67.2z"/>
						<path id="&lt;Compound Path&gt;" class="s0" d="m245.6 191.9c-24.8 60.5-107.4 85.1-171.1 67.2 64.2 2.9 135.6-22.9 171.1-67.2zm11.7 39c-35.5 44.3-107 70.1-171.2 67.2 63.8 17.9 146.4-6.7 171.2-67.2z"/>
					</g>
					<path id="&lt;Path&gt;" class="s0" d="m301.2 200.4c-12.6-6.3-18.8-14.8-20.2-23.1-0.7-4.4 0-8.8 1.8-12.7 1.8-3.9 4.6-7.4 8.4-10.2 8.5-6.5 21.8-9.4 36.6-5l-2.2 7.5c-12.3-3.7-23-1.4-29.7 3.7-2.7 2-4.8 4.5-6 7.2-1.2 2.6-1.6 5.4-1.2 8.3 1 6 5.9 12.3 16 17.3z"/>
				</g>
			</g>
		</g>
	</g>
</svg>