<svg version="1.2" xmlns="http://www.w3.org/2000/svg" viewBox="0 0 109 102" width="109" height="102"><style>.a{fill:#003f9f;stroke:#000;stroke-width:1.1}.b{fill:#003659;stroke:#000;stroke-width:1.1}.c{fill:none;stroke:#000;stroke-linecap:round;stroke-width:1.1}.d{fill:none;stroke:#000;stroke-linecap:round;stroke-width:.7}.e{fill:none;stroke:#000;stroke-linejoin:round;stroke-width:.7}.f{fill:#003659;stroke:#000;stroke-width:1}.g{fill:none;stroke:#000;stroke-linecap:round}.h{fill:none;stroke:#000;stroke-width:.7}.i{fill:#003659;stroke:#000;stroke-linejoin:bevel;stroke-width:1.1}.j{fill:none;stroke:#000;stroke-width:1}.k{fill:#003659;stroke:#000}.l{fill:#003659;stroke:#000;stroke-width:.7}</style><path fill-rule="evenodd" class="a" d="m21.1 33.9c-3.4 2.6-5.1 4.3-6.1 5.5-5.8 6.6-4.2 9.7-6.3 14.6-0.7 3.6-1.8 5.7-2.9 8 0.1 2.9 0.2 5.9 0.3 8.1-1.2 7.4-1.2 5.2-1.8 7.5-0.5 2.8-0.2 5.3 2.3 6.8 11-3.4 10.7-0.2 12.8 1.5 2.9-0.4 3.3-2.5 3.2-4.9l-0.9-5.1c0.7-0.9 1.3-1.9 2.3-2.9 0.8-3 1.2-6.5 3.3-7.7 3.7 4.2 4.6 4.5 6.7 6.5 0.9 2.3 1.7 4.5 3.3 7.2 1.3 0.8 2.9 2 3.6 2.2-0.4 2.8 0.8 4.5 1.7 6.3 1.8 2.9 5.5 1.8 5.6 2.2-0.5-2.3 1.3-3 2.2-4.3 3.2-1.2 7.5-2.4 9.5-3.5 3.3-0.4 5.2-3.1 7.3-5.5 2.7-1.1 5.2-2 7.2-2.5 2.5-3.8 5.6-7.5 9.4-11l2.8-0.6c1.4-1.1 0.8-2.3 0.1-3.4-2.3-1.7-3.4-4.8-5.8-3.6 0-2 0.7-3.8-0.2-6.1l-4.7-6.5-1.5-5.3c1.8 0 2.8-0.7 3.9-1.4 4-2.4 5.1-4 6.5-5.8 4.4-0.2 5.6-1.7 7.9-2.9 1.9-1.6 3.8-3.1 4.7-6 0.5-3.4-0.6-4.7-1.7-6.1-2.1-2.8-4.7-4.5-7.5-5.3-2.4-0.6-3.6 0.5-5.3 0.9-1.2 1.6-2.6 2.3-4.1 2.2-1.9-0.4-3.9-0.1-5.8 0.4-1 0.3-2.1 1-3.1 1.9-5.2-2.2-13.8-1.5-15.1-1.6-2.5 0.4-4.1 1.3-5.3 2.4 0.6 2.4 0.4 3.3 0.3 4.4l-2 4.5c-1 2.4-2 4-2.9 5.3-1.5 1.8-2.4 2.5-3.6 3.6-4 1.1-6.2 0.9-8.3 0.6l-9.4 0.3z"/><path fill-rule="evenodd" class="b" d="m21.8 33.9c-1.1-0.2-1.8-1.4 0.6-3.1 0.6-1.1 1.3-2.2 0.5-4 0.5-0.8-0.1-1.3 1.7-2.5 4.5-2.8 9.2-5.3 13.6-8.7 1.4-0.3 2.3-2 4.3-0.7 0.9 0.1 1.6 0.6 2.2 1.1l2.7-0.2c1-0.1 2.7-0.1 2.5 1.3 0 1.8 0.6 3.2-1.1 6.2l-4.2 7.7c-1.9 3.5-4.8 3.8-7.1 3.8l-9.5-0.1c-2.1 0-3.9 0.4-6.2-0.8z"/><path class="c" d="m19.1 42.3c0.5 1.4 0.8 2.6 3.6 6.2 2.3 2.8 4.6 5.6 6.6 7.4 1.3 1.6 2.1 3.4 0.4 5.4l-2.5 4.2"/><path class="c" d="m65.2 26.2c3 2.2 7.1 6.2 9.2 11.5"/><path class="c" d="m54.6 13.9c2.6 1 4.5 2.8 6 5.1"/><path class="c" d="m69.7 15.2c2 0.4 3.3 1.8 4.7 3.2"/><path class="c" d="m21.6 76.1c-0.4 0.6-0.9 1-1.5 1.1"/><path class="c" d="m40.7 81.1c0.8 0.3 1.4 0.7 2.4 0.8"/><path class="d" d="m23.7 25.8l1.7-0.1 1.1 0.9"/><path class="d" d="m26.8 23.8l1.2 0.9-0.1 1.9"/><path class="e" d="m25.7 27c-0.8 1.2-0.5 1-0.7 1.4-0.2 1.2-0.2 2-0.2 2.8l-0.8 1.4c-0.1 0.8 0 1.2 0.2 1.7"/><path class="d" d="m28 22.8l1.5 1.3v1.7"/><path class="e" d="m26.5 27.6c-0.8 1.2-0.2 1.7-0.2 2.2-0.2 1.2-0.2 0.9-0.2 1.7-0.7 0.5-0.6 0.9-0.8 1.4-0.1 0.8 0.3 1.1 0.4 1.7"/><path class="e" d="m27.4 27.9c-0.8 1.1 0.1 1.8 0.2 2.2 0.4 1 0.3 1 0.3 1.8-0.3 0.3-0.5 0.7-0.8 1.1-0.1 0.8 0 1.2 0.2 1.8"/><path class="e" d="m28.7 27.9c-0.2 1.3 0.7 1.8 0.5 2.2 0.4 1.4 0.1 1.3-0.1 1.8l-0.1 1.2c-0.1 0.9 0.2 1 0.4 1.5"/><path class="e" d="m29.8 27.8c0 1.1 1.5 2.2 1.3 2.6-0.2 1.1-0.5 1.2-0.4 2.2l0.2 1.1c0.3 0.5 0.4 0.5 0.6 1"/><path class="e" d="m31.6 27.3c0.2 0.8 0.4 1 0.4 1.4 0.4 0.7 1.2 1.1 1.2 1.9l-0.7 1.9c-0.1 0.8 0.5 1.4 0.7 2"/><path class="e" d="m33.4 26.7c-0.2 1.3 1.4 2.7 1.4 3.6-0.2 1.2 0.1 1.7 0.1 2.5q0.2 0.5 0.6 1.2c-0.1 0.8 0.2 0.3 0.2 0.9"/><path class="d" d="m29.8 21.8l2.4 3.4"/><path class="e" d="m34.8 26c0.2 0.5 1 2.4 1.3 3.1 0.6 1 1 1.7 1 2.5 0.1 0.6 0.2 1.1 0.6 1.6 0.6 0.5 0.7 0.7 0.8 1.3"/><path class="d" d="m31.4 20.9l2.9 4"/><path class="e" d="m35.9 25.1c0.4 1.2 1.4 2.3 1.4 2.7 0.2 1.5 1.5 2.6 2 3.2l0.9 1.1c0.5 0.7 0.1 1.7 0.3 2.3"/><path class="d" d="m32.8 20c0 0.2 2.8 3.7 2.8 3.7"/><path class="e" d="m37.7 24.2c0.3 1.2 1.3 2.3 1.4 2.6 0.1 1.6 0.9 2.1 1.5 2.6l1.4 1.5c0.6 0.6 0.9 1.3 1.1 1.8"/><path class="d" d="m34.3 18.7l0.9 1.5 1.6 1.6"/><path class="e" d="m38.5 23.3c0.5 0.5 2 2.3 2.5 3.2 0.7 1.4 1.3 1.6 2 2.1l1.1 1c0.6 0.5-0.1 1.4 0.1 1.9"/><path class="d" d="m36.1 17.7l0.3 1.8 1.9 1.4"/><path class="e" d="m39.5 22.5c1 0.7 1.5 1.2 2.2 2.1 0.9 1.3 0.4 1.7 1.1 1.9l1.7 0.3c0.8 0.1 0.9 2.2 1.1 2.8"/><path class="d" d="m37.3 16.8l1.4 1.9 1.3 1.2"/><path class="e" d="m40.9 21.4c0.4 1.2 1.1 0.6 1.5 1.5 0.7 1.4 0.2 1.4 0.9 1.5l1.8 0.3c0.8 0.1 1.6 2.1 1.8 2.7"/><path class="d" d="m40.1 15.4l-0.6 2 1.3 1.4"/><path class="e" d="m42 20c0.4 1.2 1.7 1.3 1.9 2 0.3 1 1.7 0.5 2.3 1.1l0.7 0.6c0.7 0.5 0.4 2 0.6 2.5"/><path class="d" d="m42 14.9l-0.6 1.6"/><path class="e" d="m42.4 19.3c0.8 0.5 1.5 0.2 2 0.9 0.7 1.3 1.3 1 1.7 1l1.3-0.1c0.8 0 1.2 1.4 1.4 2"/><path class="d" d="m38.3 15.6l0.5 1.6"/><path class="e" d="m42.4 17.4c0.8 0.5 1.5 0.2 2 1 0.7 1.3 1.3 0.7 1.8 0.6l1.3-0.2c0.9-0.1 1.7 1.7 1.9 2.3"/><path class="e" d="m41.5 16.6c0.9 0.5 1.6-0.9 2.1-0.2 0.6 0.8 1.9 1.3 2.3 1.2l2-0.3c0.8-0.1 1.8 1.1 2 1.7"/><path class="e" d="m25.6 26.6c-0.8-0.3-2.2-0.5-1.7 1.8 0.4 1.5-0.8 2-1 2.4l-0.8 1.2c-0.4 0.7-0.3 1.3-0.1 1.9"/><path class="c" d="m28.2 24.9l-1.8 1.1c-0.7 0.8-0.7 1.4 1.1 1.6 1.7 0 6.2 0.2 14.5-7.7 1.2-1.6 0.2-2.9-1.5-3-1.3 0.2-1.8 0.5-2.5 0.7"/><path fill-rule="evenodd" class="f" d="m6.8 84.2l-1.6 5.5c-0.4 1.8-0.7 3.5 1.3 4.5l7.2 1.6c4.8 0 3.9-1.4 4.7-2.4 0.6-2.7 0.9-5.1 1.2-7.5-1.5-1.6-2.8-2.7-3.8-2.8-4.6-0.8-6.1 0.7-9 1.1z"/><path class="g" d="m6.9 92c0.3-0.5-0.1-1.2 1.6-1.2 2 1 4.2 0.1 6.3 0 1.6 0.3 2 1.8 0.4 2.4"/><path class="d" d="m9.2 83.9c-0.3 0.5-0.7 0.9-0.7 2.1 0 0.7 0.2 1.7-0.1 2.2-0.5 0.5-1.5 0.8-1.3 1.4l0.2 1.2"/><path class="d" d="m10.4 83.7c-0.3 0.5-0.4 0.8-0.4 2 0 0.8 0.3 1.7 0 2.2-0.3 0.9-0.9 1.2-0.7 1.8v0.8"/><path class="d" d="m12.2 83.5c-0.3 0.5-0.2 1.1-0.2 2.3 0 0.8 0.2 1.8-0.1 2.3-0.5 0.4-0.9 1.2-0.8 1.8v1.1"/><path class="d" d="m13.7 83.3c-0.3 0.5-0.3 1.6-0.3 2.7 0 0.8 0.4 1.8 0.1 2.3-0.5 0.4-0.6 0.7-0.5 1.3l0.2 1.2"/><path class="d" d="m7.6 84.2c-0.2 0.6-0.6 0.9-0.6 2.1 0 0.8-0.3 1.5-0.6 2-0.5 0.5-0.9 1.6-0.7 2.2 0.1 0.5 0.6 0.6 1.1 0.7"/><path class="d" d="m15.3 83.4c-0.2 0.5-0.1 1 0 2.2-0.1 0.7 0.1 1.1-0.2 1.6-0.4 0.5-0.7 1.2-0.5 1.8l0.2 1.8"/><path class="d" d="m16.9 83.8c-0.1 0.8 0.1 1.5-0.3 2.5 0 0.8 0.3 1 0 1.5-0.4 0.4 0 1.3-0.1 1.9l-0.7 1.2"/><path class="d" d="m18.8 85.4c-0.3 0.5-0.7 0.8-0.7 2 0 0.7-0.3 1-0.3 1.7 0 0.7-0.1 1.6-0.4 2.2l-1 0.7"/><path class="d" d="m19.2 86.7q-0.4 0.8-0.3 2.6c-0.1 0.8-0.3 1.9-0.3 2.9-0.2 0.7-0.6 1.1-1.2 1.1l-1.7 0.1"/><path class="h" d="m5.1 92c1.7 0.3 3.5 0.8 3.5 2.4"/><path class="h" d="m7.1 92.4l-0.1 1.7"/><path class="h" d="m9.8 93.2l-0.1 1.7"/><path class="h" d="m11.1 93.2l-0.1 1.7"/><path class="h" d="m12.7 93.7l-0.1 1.6"/><path class="h" d="m14 93.7l-0.1 1.7"/><path class="h" d="m15.2 93.4c-0.2 1 1 1.5 2.1 1.7"/><path fill-rule="evenodd" class="i" d="m89.3 10.2l4.6-4.5c0.4-1.5 3.2-2.2 4.2-1 2.3 2.1 4.5 4.3 5.6 7.1 2.1 3-0.2 3.2-1.2 4.1l-5 4.5c0.5-6-6.6-9.7-8.2-10.2z"/><path class="j" d="m97.5 4.4l-1.8 1.9-1 2.6c-2 1.9-2.4 1.4-3.6 2.1"/><path class="j" d="m99 5.8c-0.6 0.1-1.2 0.5-1.8 1.2l-1.6 2.6c-2 1.9-1.3 2.1-2.5 2.8"/><path class="j" d="m100.6 7.2c-0.7 0.3-1.2 0.2-2.2 0.9l-1.5 2.5c-2 1.9-1.8 1.5-3 2.2"/><path class="j" d="m101.6 8.5l-1.5 1.4-2.1 1.8c-2.1 1.9-1.9 1.5-3.1 2.2"/><path class="j" d="m102.7 9.7l-1.4 1.6-2.9 1.8c-2 1.9-0.9 1.8-2.1 2.5"/><path class="j" d="m103.6 11.8l-1.3 0.9-1.9 1.3c-2.7 1.8-2.3 2.4-3.4 2.8"/><path class="j" d="m104.2 13.2c-0.2 0.8-1 1.2-1.8 1.5l-2.2 1.4c-2 1.9-1.7 1.7-2.9 2.4"/><path fill-rule="evenodd" class="k" d="m48.2 89.9l2.5 5.4c1.1 2.4 2.7 2.2 4.2 2 5.1-1.6 10.4-4.6 15.9-8.4 4-2.6 7.8-5.2 11-8.2 3.5-2 6.3-4.9 8.8-8.1 1.8-2.1 1.5-4.1-0.9-5.8-1.1-1-1.6-1.2-3-3.9-0.7-0.9-2.2-0.3-3.2 0.5-3 2.6-6 5.8-9.1 10.6-2.3 0.6-4.9 1.6-7.3 2.4l-5.5 5.1-1.7 0.4c-3.8 1.9-8.9 3-9.9 3.6-1.1 1.3-2.2 2.8-1.8 4.4z"/><path fill-rule="evenodd" class="l" d="m48.6 88.9c1.5 1.9 3.3 3.4 3.4 6.9 1.3 1.7 1.6 1.2 1.8 1.3"/><path fill-rule="evenodd" class="l" d="m49.6 87.4c1.6 1.9 3.4 3.4 3.5 6.9 1 2.7 2 2.4 2.2 2.4"/><path fill-rule="evenodd" class="l" d="m50.5 86.1c1.5 1.8 3 3.9 3.9 7.3 0.6 2.1 2.4 3.2 2.6 3.3"/><path fill-rule="evenodd" class="l" d="m52.2 85c1.5 1.9 3.1 4 4 7.3 0.5 2.1 2.2 3.4 2.4 3.5"/><path fill-rule="evenodd" class="l" d="m54.1 84.7c1.5 1.9 3.1 4 4 7.3 0.5 2.1 2.8 2.6 2.9 2.7"/><path fill-rule="evenodd" class="l" d="m56 83.6c1.4 1.9 1.3 5.2 4 7.4 2 1.6 1.9 3.2 1.8 3.3"/><path fill-rule="evenodd" class="l" d="m57.2 83.5c1.5 1.9 2.6 5 3.7 5.9 1.7 1.2 2.7 3.5 2.8 3.6"/><path fill-rule="evenodd" class="l" d="m58.8 82.7c1.5 1.9 3 6 4.4 7.2 1.6 1.5 1.5 2.5 1.6 3.1"/><path fill-rule="evenodd" class="l" d="m60.1 82.2c1.5 1.9 1.3 3.6 3.9 5.9 1.5 1.3 2.1 1.9 2.3 3.5"/><path fill-rule="evenodd" class="l" d="m61.8 81.4c0.7 1.1 1.6 3.7 4 5.8 1.6 1.4 1.4 3.7 1.5 3.8"/><path fill-rule="evenodd" class="l" d="m63.1 80.2c1.5 1.8 1.6 4.4 4.4 6.4 1.1 0.8 1.6 2.9 1.7 3"/><path fill-rule="evenodd" class="l" d="m64.8 79c0.7 2 1.2 3.4 4.4 6.3 1.6 1.5 1.5 3 1.7 3.4"/><path fill-rule="evenodd" class="l" d="m65.7 78.1c1.5 1.9 2 3.4 4.5 5.8 1.7 1.7 2.4 3.1 2.6 3.2"/><path fill-rule="evenodd" class="l" d="m67.5 76.7c1.5 1.9 2 4.2 4.7 6.4 1.2 1 2.6 2.7 2.8 2.8"/><path fill-rule="evenodd" class="l" d="m68.9 75.9c1.5 1.8 1.6 3.5 4.4 5.6 1.2 0.9 2.5 3.5 2.7 3.6"/><path fill-rule="evenodd" class="l" d="m70.7 74.9c1.5 1.9 1.3 4.2 4.2 6.1 1.6 1.1 2.5 2.9 2.5 3.1"/><path fill-rule="evenodd" class="l" d="m72.4 74.5c1.5 1.9 2.1 3.1 4.5 5.7 1.7 1.7 1.6 2.9 1.7 3.1"/><path fill-rule="evenodd" class="l" d="m74.3 73.8c1.5 1.9 0.9 2.8 3.6 4.9 1.4 1 2.1 2.7 2.3 3.3"/><path fill-rule="evenodd" class="l" d="m75.5 72.3c1.5 1.9 0.9 2.9 3.8 4.7 1.4 0.9 3.3 2.9 2.9 3.3"/><path fill-rule="evenodd" class="l" d="m76.7 70.9c1.5 1.9 0.9 3.1 3.8 5 1.4 0.9 3.2 2.4 3.3 3.1"/><path fill-rule="evenodd" class="l" d="m78 69.4c1.5 1.9 0.5 3.1 3.6 4.7 2.1 1.1 4 3.4 3.8 3.7"/><path fill-rule="evenodd" class="l" d="m79.3 67.8c0.7 3.1 2.2 4.6 5 5.8 1.7 0.7 2.8 3 2.9 3.1"/><path fill-rule="evenodd" class="l" d="m80.5 66.8c1.5 1.9 2.2 4.9 5.7 5.6 1.5 0.3 1.5 3 1.7 3.1"/><path fill-rule="evenodd" class="l" d="m81.5 65.6c1.6 1.9 2.6 4.6 4.1 5 2.8 0.7 4.2 2.9 4 3.1"/><path fill-rule="evenodd" class="l" d="m82.4 64.6c1.6 1.9 3.5 4.6 5 4.6 2.9-0.1 3.3 2.5 3.4 2.8"/><path fill-rule="evenodd" class="l" d="m84.5 63c1.5 1.9 2.3 4.4 4.2 4.7 1.8 0.3 2.9 2.7 2.9 2.9"/></svg>