<svg version="1.2" xmlns="http://www.w3.org/2000/svg" viewBox="0 0 1200 1200" width="1200" height="1200">
	<title>splash-sea-wave-publicdomainvectors</title>
	<style>
		.s0 { fill: #70c6e1 } 
		.s1 { fill: #23a3c9 } 
		.s2 { fill: #248bb0 } 
		.s3 { fill: #e0f3fa } 
		.s4 { fill: #c9e4ec } 
		.s5 { fill: #fefefe } 
		.s6 { fill: #0a779a } 
	</style>
	<g id="_Artboards_">
	</g>
	<g id="publicdomainvectors.org">
		<g id="&lt;Group&gt;">
			<path id="&lt;Path&gt;" class="s0" d="m-1 1199.2h1200.2v-1200.2h-1200.2z"/>
			<path id="&lt;Path&gt;" class="s1" d="m-1 896.3c148.8-3.6 423-6.1 508.7-101.2 130.1-144.3 39.5-481.2-259.2-436.2 711-298 498.9 540.8 950.7 537.4v302.9h-1200.2z"/>
			<path id="&lt;Path&gt;" class="s2" d="m565.1 646.7c5.9-108.5-48.1-227.2-160.2-272.7l34-72.7c484.1-77.8 354.6 598.1 760.3 595-183.7 56.5-315.6-121.4-485.8-79.4 9.3-124.8-11.8-214.3-148.3-170.2z"/>
			<path id="&lt;Path&gt;" class="s3" d="m1044.6 854c-198.4-144.2-216.6-614.3-568.9-606.3-3.5-9.3-12.4-15.8-22.9-15.8-7.6 0-14.4 3.4-18.8 8.9-6.5-9.5-17.4-15.7-29.8-15.7-12.8 0-24.1 6.8-30.4 16.9-6.5-11-18.5-18.4-32.1-18.4-16 0-29.7 10.1-34.9 24.3-4.1-2.6-9-4.1-14.2-4.1-4.6 0-9 1.2-12.8 3.3-8.2-8.1-19.4-13.2-31.9-13.2-23.5 0-42.9 18.2-44.9 41.2-3.6-0.8-7.3-1.2-11.1-1.2-27 0-49 21.8-49.2 48.8q-0.8-0.1-1.6-0.1c-23.2 0-42 18.8-42 42 0 5.5 1 10.7 2.9 15.5-13.6 8.4-22.6 23.4-22.6 40.6 0 12.3 4.7 23.5 12.3 32-5.9 7.4-9.5 16.9-9.5 27.2 0 12.6 5.4 24 14 32-2.8 7.5-4.4 15.6-4.4 24 0 37.3 30.3 67.6 67.6 67.6q3.6 0 7.1-0.4-1 5.5-1 11.3c0 33.1 26.8 59.9 59.9 59.9 17.3 0 32.9-7.4 43.8-19.1 9.2 10.9 22.9 17.8 38.3 17.8 27.6 0 49.9-22.3 49.9-49.9q0-1.1-0.1-2.3c17-0.9 31.1-12.9 35.1-28.8q2.5 0.4 5.1 0.4c13 0 24-8.3 28-19.9 4.5 3.5 10.2 5.6 16.4 5.6 12.9 0 23.7-9 26.5-21 2.3 1 4.8 1.5 7.5 1.5 6.1 0 11.6-2.8 15.2-7.3 5.2 6.7 13.3 10.9 22.4 10.9 13.7 0 25.1-9.6 27.9-22.4 3.3 2.7 7.5 4.3 12 4.3 7.9 0 14.7-4.8 17.6-11.6 3.4 6.9 10.4 11.6 18.5 11.6 7.8 0 14.6-4.4 18-10.8q13 3.7 25.6 8.8-0.3 1.8-0.3 3.6c0 11.2 9.1 20.3 20.3 20.3 6 0 11.5-2.7 15.2-6.9 9.8 5.4 19.5 11.4 29 17.8q-0.2 1.5-0.2 3c0 10 8.1 18.1 18.2 18.1 3 0 5.9-0.7 8.4-2 21.5 16.5 42.4 35 62.8 54.2-6.3-0.4-12.8-0.3-19.5 0.4-3.3-6.3-9.9-10.6-17.5-10.6-5.1 0-9.9 2-13.4 5.3-6.4-6.8-15.5-11-25.5-11-19.5 0-35.3 15.8-35.3 35.3q0 0.7 0.1 1.4c-8.2 2.4-14.4 9.2-15.9 17.7-4.6-1.9-9.7-3-15-3-21.4 0-38.7 17.3-38.7 38.6 0 17.8 12 32.7 28.2 37.2-3.7 5.6-5.9 12.2-5.9 19.4 0 19 15.5 34.5 34.5 34.5 12.1 0 22.8-6.3 28.9-15.7 2.4 9.9 11.3 17.2 21.9 17.2 11.9 0 21.6-9.2 22.5-20.8q2.8 0.6 5.8 0.6c16.1 0 29.1-13 29.1-29.1 0-3.5-0.7-6.9-1.9-10.1 8.8-5.4 17.6-9 26.3-11 3.2 7.8 10.9 13.4 19.9 13.4 9 0 16.7-5.6 19.9-13.4 41.9 8.9 82.4 42.1 121 61 28.7 21.2 58 37.8 88.6 46.5z"/>
			<path id="&lt;Path&gt;" class="s4" d="m212.1 672.8c4.3 1 8.7 1.5 13.3 1.5 17.3 0 32.9-7.4 43.8-19.1 9.2 10.9 22.9 17.8 38.3 17.8 27.6 0 49.9-22.3 49.9-49.9q0-1.1-0.1-2.3c17-0.9 31.1-12.9 35.1-28.8q2.5 0.4 5.1 0.4c13 0 24-8.3 28-19.9 4.5 3.5 10.2 5.6 16.4 5.6 12.9 0 23.7-9 26.5-21 2.3 1 4.8 1.5 7.5 1.5 6.1 0 11.6-2.8 15.2-7.3 5.2 6.7 13.3 10.9 22.4 10.9 13.7 0 25.1-9.6 27.9-22.4 3.3 2.7 7.5 4.3 12 4.3 7.9 0 14.7-4.8 17.6-11.6 3.4 6.9 10.4 11.6 18.5 11.6 7.8 0 14.6-4.4 18-10.8q13 3.7 25.6 8.8-0.3 1.8-0.3 3.6c0 11.2 9.1 20.3 20.3 20.3 6 0 11.5-2.7 15.2-6.9 9.8 5.4 19.5 11.4 29 17.8q-0.2 1.5-0.2 3c0 10 8.1 18.1 18.2 18.1 3 0 5.9-0.7 8.4-2 21.5 16.5 42.4 35 62.8 54.2-6.3-0.4-12.8-0.3-19.5 0.4-3.3-6.3-9.9-10.6-17.5-10.6-5.1 0-9.9 2-13.4 5.3-6.4-6.8-15.5-11-25.5-11-19.5 0-35.3 15.8-35.3 35.3q0 0.7 0.1 1.4c-8.2 2.4-14.4 9.2-15.9 17.7-4.6-1.9-9.7-3-15-3-21.4 0-38.7 17.3-38.7 38.6 0 17.8 12 32.7 28.2 37.2-3.7 5.6-5.9 12.2-5.9 19.4 0 19 15.5 34.5 34.5 34.5 12.1 0 22.8-6.3 28.9-15.7 2.4 9.9 11.3 17.2 21.9 17.2 11.9 0 21.6-9.2 22.5-20.8q2.8 0.6 5.8 0.6c16.1 0 29.1-13 29.1-29.1 0-3.5-0.7-6.9-1.9-10.1 8.8-5.4 17.6-9 26.3-11 3.2 7.8 10.9 13.4 19.9 13.4 9 0 16.7-5.6 19.9-13.4 41.9 8.9 82.4 42.1 121 61 19.1 14.1 38.5 26.2 58.4 35.2-77.1-50.6-121-78.9-174.5-170.6-92.2-158.2-197.8-227.9-385.5-198.6-198.2 57.7-144.2 180.6-242.3 199.3z"/>
			<path id="&lt;Path&gt;" class="s5" d="m171.7 455.9c25.7 0 46.7-20.9 46.7-46.6 0-25.8-21-46.7-46.7-46.7-25.7 0-46.7 20.9-46.7 46.7 0 25.7 21 46.6 46.7 46.6z"/>
			<path id="&lt;Path&gt;" class="s5" d="m226.7 408.2c23.4 0 42.5-19.1 42.5-42.5 0-23.4-19.1-42.5-42.5-42.5-23.4 0-42.5 19.1-42.5 42.5 0 23.4 19.1 42.5 42.5 42.5z"/>
			<path id="&lt;Path&gt;" class="s5" d="m282.7 382.3c25.1 0 45.7-20.5 45.7-45.7 0-25.1-20.6-45.6-45.7-45.6-25.1 0-45.6 20.5-45.6 45.6 0 25.2 20.5 45.7 45.6 45.7z"/>
			<path id="&lt;Path&gt;" class="s5" d="m327.2 329.1c19.9 0 36.1-16.3 36.1-36.2 0-19.9-16.2-36.1-36.1-36.1-19.9 0-36.2 16.2-36.2 36.1 0 19.9 16.3 36.2 36.2 36.2z"/>
			<path id="&lt;Path&gt;" class="s5" d="m465.3 369.8c20.5 0 37.3-16.7 37.3-37.3 0-20.6-16.8-37.4-37.3-37.4-20.6 0-37.4 16.8-37.4 37.4 0 20.6 16.8 37.3 37.4 37.3z"/>
			<path id="&lt;Path&gt;" class="s5" d="m436.7 430c26.6 0 48.3-21.7 48.3-48.2 0-26.6-21.7-48.3-48.3-48.3-26.5 0-48.2 21.7-48.2 48.3 0 26.5 21.7 48.2 48.2 48.2z"/>
			<path id="&lt;Path&gt;" class="s5" d="m604.8 392.7c16.8 0 30.6-13.8 30.6-30.6 0-16.9-13.8-30.6-30.6-30.6-16.9 0-30.6 13.7-30.6 30.6 0 16.8 13.7 30.6 30.6 30.6z"/>
			<path id="&lt;Path&gt;" class="s5" d="m580.4 443.5c22.9 0 41.5-18.7 41.5-41.5 0-22.9-18.6-41.5-41.5-41.5-22.8 0-41.5 18.6-41.5 41.5 0 22.8 18.7 41.5 41.5 41.5z"/>
			<path id="&lt;Path&gt;" class="s5" d="m730.8 482.9c18.3 0 33.2-14.9 33.2-33.2 0-18.3-14.9-33.2-33.2-33.2-18.3 0-33.2 14.9-33.2 33.2 0 18.3 14.9 33.2 33.2 33.2z"/>
			<path id="&lt;Path&gt;" class="s3" d="m346.8 340.8c15 0 27.2-12.2 27.2-27.2 0-15-12.2-27.3-27.2-27.3-15 0-27.3 12.3-27.3 27.3 0 15 12.3 27.2 27.3 27.2z"/>
			<path id="&lt;Path&gt;" class="s3" d="m317.2 391.1c20.7 0 37.6-16.9 37.6-37.6 0-20.7-16.9-37.6-37.6-37.6-20.7 0-37.6 16.9-37.6 37.6 0 20.7 16.9 37.6 37.6 37.6z"/>
			<path id="&lt;Path&gt;" class="s3" d="m253.9 433.1c25.6 0 46.4-20.8 46.4-46.4 0-25.6-20.8-46.4-46.4-46.4-25.5 0-46.4 20.8-46.4 46.4 0 25.6 20.9 46.4 46.4 46.4z"/>
			<path id="&lt;Path&gt;" class="s3" d="m189.9 459.1c19.1 0 34.7-15.6 34.7-34.7 0-19.2-15.6-34.8-34.7-34.8-19.2 0-34.8 15.6-34.8 34.8 0 19.1 15.6 34.7 34.8 34.7z"/>
			<path id="&lt;Path&gt;" class="s3" d="m455.2 446.6c22.1 0 40.2-18.1 40.2-40.2 0-22.1-18.1-40.2-40.2-40.2-22.2 0-40.2 18.1-40.2 40.2 0 22.1 18 40.2 40.2 40.2z"/>
			<path id="&lt;Path&gt;" class="s3" d="m475.6 384.4c17.2 0 31.2-14 31.2-31.2 0-17.1-14-31.1-31.2-31.1-17.1 0-31.1 14-31.1 31.1 0 17.2 14 31.2 31.1 31.2z"/>
			<path id="&lt;Path&gt;" class="s3" d="m604.3 452.8c20.5 0 37.3-16.8 37.3-37.3 0-20.6-16.8-37.4-37.3-37.4-20.6 0-37.4 16.8-37.4 37.4 0 20.5 16.8 37.3 37.4 37.3z"/>
			<path id="&lt;Path&gt;" class="s3" d="m621.9 400.4c12.9 0 23.3-10.5 23.3-23.3 0-12.9-10.4-23.3-23.3-23.3-12.8 0-23.3 10.4-23.3 23.3 0 12.8 10.5 23.3 23.3 23.3z"/>
			<path id="&lt;Path&gt;" class="s3" d="m746.4 514c21.1 0 38.4-17.2 38.4-38.4 0-21.1-17.3-38.3-38.4-38.3-21.2 0-38.4 17.2-38.4 38.3 0 21.2 17.2 38.4 38.4 38.4z"/>
			<path id="&lt;Path&gt;" class="s2" d="m-1 1199.2h1200.2v-135.9h-1200.2z"/>
			<path id="&lt;Path&gt;" class="s6" d="m-1 1199.2h1200.2v-40.5h-1200.2z"/>
		</g>
	</g>
</svg>