<?xml version="1.0" encoding="UTF-8" standalone="no"?>
<!-- Created with Inkscape (http://www.inkscape.org/) -->
<svg xmlns:rdf="http://www.w3.org/1999/02/22-rdf-syntax-ns#" xmlns="http://www.w3.org/2000/svg" xmlns:cc="http://web.resource.org/cc/" xmlns:dc="http://purl.org/dc/elements/1.1/" xmlns:svg="http://www.w3.org/2000/svg" xmlns:inkscape="http://www.inkscape.org/namespaces/inkscape" xmlns:sodipodi="http://sodipodi.sourceforge.net/DTD/sodipodi-0.dtd" xmlns:ns1="http://sozi.baierouge.fr" xmlns:xlink="http://www.w3.org/1999/xlink" id="svg2" viewBox="0 0 292.41 432.07" version="1.1" inkscape:version="0.91 r13725">
  <g id="layer2" transform="translate(-196.02 -170.15)">
    <path id="path2913" style="fill:#000000" d="m343.12 170.19c-20.768 1.0454-32.73 3.3435-39.844 5.5312-2.8065 0.86311-4.7085 1.6822-6.2188 2.4375-0.8286-0.56084-1.6717-1.0847-2.5625-1.5625-2.2143-1.1876-4.6257-2.1647-6.9062-3-4.5612-1.6706-8.6562-2.75-8.6562-2.75a4.8564 4.8564 0 0 0 -4.3125 8.4688c-19.299 1.9071-33.076 13.564-42.062 27.438-11.383 17.574-16.586 38.676-20.281 48.969a4.8564 4.8564 0 0 0 7.2812 5.6875c5.4191-3.6596 10.344-8.5302 13.625-11.062-0.0727 1.1889-1.8571 5.5961-5.25 10.562-3.4467 5.0451-8.1958 10.918-12.938 16.875-4.7417 5.957-9.4707 11.993-13.062 17.625-3.5918 5.6324-6.5183 10.71-5.8125 16.594 0.41536 3.4624 0.76126 6.0229 1.125 7.9688s0.44714 3.01 1.5 4.8125c0.26321 0.45062 0.60284 1.0122 1.375 1.625s2.2153 1.2234 3.6562 1.0938c0.45884-0.0413 0.79583-0.14529 1.1562-0.25 1.4825 9.1572 5.0968 16.401 9.5 22.344 6.8814 9.2879 15.093 15.825 20.281 24 5.4093 8.5229 9.875 13.375 9.875 13.375a4.8564 4.8564 0 0 0 8.25 -4.5625s-1.1902-4.9068-2.1562-8.9062c2.3836 2.7071 4.8165 5.4846 7.2812 8.25-0.15921 2.3094-0.33766 4.6204-0.1875 6.3438 0.45589 5.2321 1.2493 9.8122 2.125 14.094l-1.875 0.5a4.8564 4.8564 0 0 0 -3.5938 4.6875s0.0534 1.9634 0.0625 2.75c-0.21281 0.0287-0.45461 0.0683-0.65625 0.0937-0.33215 0.0419-0.52697 0.0636-0.8125 0.0937-0.666-1.0332-1.4926-2.6316-3.4375-4.1875a4.8564 4.8564 0 0 0 -0.71875 -0.46875c-1.3161-0.71788-2.3076-1.2649-4-1.4375-0.42309-0.0432-0.91216-0.049-1.4688 0.0312-1.2925-0.92086-2.1153-1.5248-2.9688-2.0938a4.8564 4.8564 0 0 0 -0.71 -0.42c-2.6793-1.1908-5.6554-1.0119-8.0312 0.9375-0.50813 0.41692-0.95047 0.99498-1.3438 1.625l-1.75-0.53125c-2.3976-1.0747-5.0966-0.81986-7.0625 0.5-1.2056 0.80938-2.3302 2.0559-2.8125 3.8125-0.48235 1.7566-0.0555 3.9253 0.96875 5.4062 1.4394 2.0813 2.9997 2.746 4.4062 3.4688 1.4065 0.7227 2.7946 1.3397 4.0312 1.9688 1.2653 0.64363 2.1881 1.2454 2.8438 1.8125-0.96022-0.15776-1.7906-0.40509-2.8438-0.4375-1.0936-0.0337-2.2129-0.0312-3.6562 0.4375-1.4434 0.46868-3.7214 2.1068-4.2188 4.5938-0.43171 2.1586 0.3976 3.5911 0.96875 4.4375 0.57115 0.84638 1.1205 1.3466 1.6875 1.8438 1.1341 0.99431 2.3765 1.8194 3.6562 2.5938 2.5594 1.5487 4.8919 2.7596 6.8125 3.4375a4.8564 4.8564 0 0 0 0.59375 0.15625c1.0674 0.22874 1.9895 0.2927 3.4375 0.4375s3.1946 0.29522 5 0.40625 3.6443 0.18599 5.3125 0.1875c1.6682 0.002 2.959 0.0571 4.6875-0.375 1.8757-0.46892 3.2949-1.217 4.6875-1.9375 1.1413 4.3898 4.1888 7.4402 7.75 10.5 3.5959 3.0896 7.9667 5.9588 12.344 8.4062 4.3771 2.4475 8.7231 4.4498 12.5 5.6875 1.8884 0.61887 3.6125 1.0683 5.375 1.2188 1.7625 0.15049 4.1237 0.40769 6.375-2.0938 1.9893-2.2103 5.7694-7.0518 9.3125-11.625 1.0302-1.3297 1.0432-1.3683 1.9375-2.5312 3.2642 6.7853 7.8504 17.587 8.75 27.562 1.7225 19.102-6.8429 45.431-16.156 66.562-9.3134 21.132-19.094 37.125-19.094 37.125a4.8564 4.8564 0 0 0 2.5 7.0938s11.984 4.3899 24.625 8.7812c6.3204 2.1957 12.791 4.3966 18.062 6.0625 2.6358 0.83297 4.9679 1.5208 6.875 2.0312 1.9071 0.5105 2.9274 0.90625 4.9688 0.90625 2.5247 0 4.9598-1.2 6.4062-2.7188 1.2139-1.2746 1.824-2.6261 2.2812-3.875 4.7361 1.3667 11.78 3.4408 17.438 5.5625 4.1808 1.5678 8.0718 0.68733 12.312-0.4375 4.2407-1.1248 8.7422-2.8662 12.938-4.6875 6.677-2.8986 11.574-5.4943 13.719-6.6562 1.1554 0.36365 2.5262 0.78329 4.375 1.125 4.2745 0.79006 10.524 1.3472 18.812 0.59375 3.4471-0.31337 5.9448-2.1464 8.375-4.3438 2.4302-2.1973 4.7973-5.0069 7.2188-8.3125 4.8429-6.6112 9.9071-15.206 14.812-24.375 9.8109-18.338 18.962-38.867 23.312-48.906 0.14002-0.32316 0.28198-0.66955 0.34375-0.8125a4.8564 4.8564 0 0 0 0 -0.0312c0.44381-1.0307 0.51122-1.144 0.875-2 1.0496-2.4454 1.625-3.8438 1.625-3.8438a4.8564 4.8564 0 0 0 -2.5312 -6.2812s-4.3387-1.9452-9.75-4.3438c-0.0106-0.005-0.0206 0.005-0.0312 0-0.45559-0.20322-0.91208-0.40454-1.125-0.5-8.3008-3.7217-20.112-9.0783-30.75-14.125-8.9312-4.2372-16.366-8.0604-20.594-10.5 0.36158-0.81048 0.7289-1.5415 1.0938-2.5 1.2312-3.2343 2.5267-7.3554 3.8438-11.875 1.5192-5.2135 2.9925-10.79 4.3125-16.156a4.8564 4.8564 0 0 0 3.8438 0.5s1.8193-0.53463 3.8125-1.5312c0.99662-0.49831 2.081-1.0842 3.1875-2.0938s2.5312-2.7249 2.5312-5.3125c0-0.71226-0.10193-1.3099-0.1875-1.9375 1.0481 0.17179 2.041 0.41209 3.125 0.5 4.1815 0.33909 9.0089 0.24117 12.688-3.4375 2.0055-2.0055 2.8236-4.5645 3.0312-7.1875 2.7389-1.235 5.1269-2.5727 5.9062-6.1875 0.26466-1.2275-0.1534-2.6722-0.8125-3.9688 0.56303-0.92744 0.86668-1.6146 1.125-2.5312 0.30538-1.0836 0.58226-2.3154 0.40625-4s-1.4502-4.5151-4.0625-5.5c-2.496-0.94105-4.546-0.29295-6.4688 0.5625v-0.0312c0.2375-0.0924-0.99685 0.3196-2.25 0.65625-0.17293 0.0465-0.4102 0.10762-0.59375 0.15625-0.20499-0.38587-0.38492-0.76747-0.59375-1.1562-0.0112-0.0209-0.02-0.0416-0.0312-0.0625-0.3819-1.1522-0.98153-2.1942-1.75-3.1562-0.004-0.008 0.004-0.0235 0-0.0312-1.6721-3.0161-3.464-6.092-5.25-9.25-2.0272-3.5846-5.299-7.6982-9.2188-12.031l3.1562-8.375a4.8564 4.8564 0 0 0 6.9062 -1.4375c1.0673-1.737 2.4608-3.1113 4.1875-5.375s3.5303-5.3668 4.7188-9.75c1.9901-7.3396 2.5221-18.831 0.9375-38.875 0.88219 2.0947 1.789 4.4023 2.75 6.8125a4.8564 4.8564 0 0 0 9.34 -1.17c2.2854-17.277-9.3673-35.538-23.531-51.312-8.5462-9.5178-18.051-17.816-27-24.344a4.8564 4.8564 0 0 0 -1.25 -6.0312s-5.7382-4.6444-11.656-9.75c-2.959-2.5528-5.9794-5.204-8.25-7.4062-1.1353-1.1011-2.0857-2.1157-2.7188-2.8438-0.63305-0.72804-0.93596-1.4855-0.625-0.65625-0.74973-1.9993-1.4911-2.6215-2.5938-3.9375-1.1026-1.316-2.4968-2.8481-4.1875-4.5312-3.3813-3.3664-7.8801-7.3744-13-11.25-10.24-7.7512-22.716-15.368-35-14.75zm-48.562 9.375c-0.22884 0.14632-0.89876 0.61063-0.6875 0.4375 0.18922-0.19929 0.94072-0.53801 0.6875-0.4375z"/>
    <path id="path3721" style="fill:#ffccaa" d="m262.5 413.79s-10 1.7857-11.429 1.4286c-1.4286-0.35714-2.6009-3.7986-4.4949-5.3138-4.1669-2.2728-2.6479 0.67096-2.6479 0.67096s-4.6645-3.3802-6.1798-4.3903c-2.2728-1.0102-4.6726 0.75463-3.0014 2.6479 1.8724 2.1212 1.6811 2.4567 1.6811 2.4567l-9.2857-2.8571c-1.894-1.5152-4.746 0.43163-3.4452 2.3124 1.9336 2.7959 11.407 4.0907 13.088 10.188 1.0225 3.7082-1.0714 5.7143-3.9286 5-2.8571-0.71429-7.5-1.4286-7.8571 0.35714-0.35714 1.7857 7.8534 6.0281 10 6.7857 1.7678 0.37881 13.355 1.3852 16.212 0.67096 2.8571-0.71429 7.8683-4.2424 10.725-4.2424 2.8572 0 0.91978-15.357 0.56264-15.714z"/>
    <path id="path3668" style="fill:#ffeeaa" d="m296.4 184.14c-3.0305-4.5457-18.688-8.5863-18.688-8.5863l12.627 9.0914c-53.01-9.34-65.696 51.029-73.489 72.731 10.42-7.037 21.461-22.342 21.213-7.0711-0.2191 13.508-38.757 47.492-37.123 61.114 3.2674 27.236 3.5148-3.8231 8.5863-1.0102-4.0406 34.093 17.792 42.485 29.294 60.609 5.2118 8.2118 9.3439 12.627 9.3439 12.627s-7.3236-27.274-3.7881-24.244c3.5355 3.0304 25.001 28.789 28.537 30.81 3.5355 2.0203 53.286 5.5558 53.286 5.5558l107.58-25.254 14.142-37.376-1.0102 19.698c5.597-9.1091 13.983-6.7544 8.0812-63.135 7.1431-0.89766 9.8748 8.4981 13.132 16.668 3.8318-28.967-41.958-70.613-64.145-80.812-1.9581-6.5662 14.142 3.5355 14.142 3.5355s-23.234-18.688-24.749-22.728c-1.5152-4.0406-30.304-32.306-50.003-31.315-41.005 2.064-46.467 9.0914-46.972 9.0914z"/>
    <path id="path2850" style="fill:#a05a2c" d="m260.11 267.98s-20.023 12.264-27.274 21.213c-4.124 5.0898-8.5863 17.678-8.5863 17.678l10.607-4.0406s-2.2325-2.9836 0.50507 11.617c3.0305 16.162 11.617 29.8 12.627 30.305 1.0102 0.50508 7.0711-9.5964 7.0711-9.5964s-1.029 14.089 7.0711 23.739c8.1001 9.6495 45.457 22.728 45.457 22.728l74.246-5.0508c10.701-16.072 29.846-27.454 29.8-49.497 5.9428 5.3438 5.1589 12.033 4.5457 18.688 0 0 7.9312-22.805 5.0508-33.84-3.334-12.773-24.244-31.315-24.244-31.315l-14.142 6.0609-122.73-18.688z"/>
    <path id="path3727" style="fill:#ececec" d="m296.48 346.27c-24.635-30.227-34.906 29.183-33.84 41.416 3.2056 36.791 18.688 47.477 18.688 47.477l36.366-66.67c-8.2767-6.2218-11.974-10.887-21.213-22.223z"/>
    <path id="path3725" style="fill:#ececec" d="m343.96 369.5c3.5355-15.152 7.3975-26.747 14.647-32.325 26.608-20.473 77.184 24.401 87.378 42.426 9.0901 16.073 17.678 30.305 12.122 35.86-5.5558 5.5558-23.234-1.5152-23.234-1.5152l-49.497-7.0711-41.416-37.376z"/>
    <path id="path2920" style="fill:#939dac" d="m399.05 352.77c11.112 4.5457 34.345 32.83 34.345 32.83s-32.679-25.091-35.86-27.779c-9.7883-8.273-28.571-11.398-16.162 3.0304 4.6806 5.4427 21.213 19.698 21.213 19.698s-20.379-14.002-25.254-16.668c-28.551-12.872-20.548 15.818-13.637 28.789l-18.183-11.617c7.2186-29.485 22.449-45.217 53.538-28.284z"/>
    <path id="path2927" style="fill:#d38d5f" d="m261.78 418.44s-3.8826 2.8259-6.0714 6.4241c-4.1291 6.7879-15.448 8.0786-23.21 7.1071 1.0485 0.52217 1.9702 0.90677 2.5 1.0938 1.7678 0.37881 13.362 1.4018 16.219 0.6875 2.8571-0.71429 7.8616-4.25 10.719-4.25 1.3305 0 1.6052-3.3427 1.5-6.9375l-1.6562-4.125z"/>
    <path id="path2942" style="fill:#939dac" d="m283.22 337.78c-5.498 0.1578-9.8112 5.5694-13.062 12.812 5.5326-9.633 13.535-13.568 24.312-0.34375 9.1902 11.276 12.909 15.984 21.094 22.156l2.125-3.9062c-8.2767-6.2218-11.98-10.914-21.219-22.25-5.004-6.1398-9.406-8.5791-13.25-8.4688z"/>
    <path id="path2947" style="fill:#939dac" d="m302.54 372.02c-5.0508-10.607-9.5964-22.223-22.223-20.708-5.5163 0.66195-11.112 14.647-12.122 23.234-0.82829 7.0405 1.0102 25.759 1.0102 25.759 3.0305-9.0914 0.50129-34.013 8.0812-33.84 2.4629 0.0561 6.0609 16.668 6.0609 16.668s-5.0284-20.379 2.0203-22.728c7.0487-2.3496 19.193 22.223 19.193 22.223l-2.0203-10.607z"/>
    <path id="path2937" style="fill:#939dac" d="m374.12 331.94c-5.6626 0.12604-10.958 1.7313-15.531 5.25-1.3865 1.0668-2.6212 2.354-3.7812 3.8438 26.663-20.074 76.989 24.585 87.156 42.562 3.3222 5.8745 4.4238 10.77 6.9509 15.817-24.145-5.9781-60.603-14.859-63.839-15.183-5.0508-0.50508-17.903-12.213-22.449-16.759-3.692-3.692-12.36-4.9468-16.996-7.0793-1.3366 4.1152-0.50844 4.1445-1.6672 9.1106l41.406 37.375 49.5 7.0625s13.603 5.4526 20.688 3.0312c6.6187-2.5525 3.9646-10.296 2.0623-15.218-2.572-6.3194-7.0423-13.998-11.656-22.156-8.4419-14.927-44.56-48.264-71.844-47.656l0.0002-0.00035z"/>
    <path id="path3737" style="fill:#000000" d="m322.88 346.62c-0.70412 0.008-1.4062 0.046-2.0938 0.0937-8.6403 0.6004-16.112 4.433-19.906 12.781a2.5831 2.5831 0 0 0 -0.15625 1.6875l0.625 2.5312-1.7188 1.125a2.5831 2.5831 0 0 0 -1 1.25s-3.4522 9.4405-7.4375 18.781c-1.9926 4.6704-4.1362 9.3285-5.9688 12.688-0.9163 1.6795-1.7479 3.019-2.375 3.8125-0.24923 0.31534-0.41944 0.4598-0.53125 0.5625-5.0655-0.30221-13.938 0.375-13.938 0.375a2.5831 2.5831 0 0 0 -0.46875 0.0625l-9.2812 2.5a2.5831 2.5831 0 0 0 -1.875 1.875l175.31-5c-1.4594-2.8396-3.5758-5.3931-6.8125-6-1.7991-0.33734-12.91-2.707-24.094-5.4688-5.592-1.3809-11.232-2.8537-15.812-4.25-4.5801-1.3963-8.3071-2.9337-9.0625-3.4688-2.7497-1.9477-8.3352-6.8074-13.219-11.156-2.4418-2.1744-4.7253-4.232-6.5-5.8125-0.88733-0.79023-1.6282-1.4607-2.2188-1.9688-0.59054-0.50805-0.73459-0.71576-1.4688-1.1562-0.86247-0.51749-1.5621-0.73855-2.7188-1.1875s-2.5534-0.94608-3.9062-1.4375c-1.9141-0.69525-2.811-0.99379-3.7188-1.3125-0.06-0.85831-0.035-1.3193-0.3125-2.8125-0.22677-1.2201-0.53037-2.5351-1.0625-3.7812-0.53213-1.2462-1.2542-2.5733-2.7812-3.4062-1.9918-1.0865-4.1529-1.3626-5.875-1.5-1.7221-0.13735-3.0938-0.0625-3.0938-0.0625v0.0312c-2.2404-0.23969-4.4189-0.39768-6.5312-0.375z"/>
    <path id="path3717" style="fill:#ffffff" d="m329.56 349.55s4.7982-0.25254 7.5761 1.2627 3.0305 9.5964 3.0305 9.5964 10.102 3.5355 11.364 4.2932c1.2627 0.75761 17.173 15.657 23.234 19.951 6.0609 4.2932 45.962 12.879 50.003 13.637 4.0406 0.75761 7.0711 7.5761 7.0711 13.132 0 5.5558-11.112 50.508-14.9 52.528-3.7881 2.0203 66.631 32.7 66.631 32.7s-36.786 88.214-52.5 89.643c-15.714 1.4286-23.214-2.1428-23.214-2.1428s-28.214 15.714-36.786 12.5c-8.5714-3.2143-22.857-7.1429-22.857-7.1429s0 7.8571-5 7.8571-52.857-17.5-52.857-17.5 39.684-64.945 35.923-106.64c-1.5563-17.259-12.709-36.215-12.709-36.215s-12.5 16.429-15.714 20c-3.2143 3.5714-33.571-11.786-36.071-21.786s-2.5-27.857-2.5-27.857l9.2857-2.5s10-0.71428 14.286-0.35714c4.2857 0.35714 18.214-37.5 18.214-37.5l3.2143-2.1429-1.0714-4.2857c4.5541-10.019 14.195-12.407 26.348-11.028z"/>
    <path id="path3734" style="fill:#b7c4c8" d="m417.78 407.13c-6.0296 7.2397-11.285 30.515-11.712 35.77-0.45113 5.5577-1.25 22.5 1.6071 23.393 2.8572 0.89286 5.5357-1.25 5.5357-1.25-1.7857-7.8571-0.53572-36.786 1.6071-39.643 4.4832-2.6702 10.051-0.9961 13.929-0.89286 0 0 3.5714-9.4643 1.6071-11.964-1.9643-2.5-12.217-5.2346-12.574-5.4132z"/>
    <path id="path3719" style="fill:#ffccaa" d="m311.88 340.46s4.0406 14.9 2.0203 17.173c-2.0203 2.2728-3.9434 3.3696-3.9434 3.3696-0.86287 11.24 3.7328 17.15 8.5609 19.853 4.5186-5.6427 8.4365-10.985 14.738-17.519 0 0 1.3524-1.9157-1.678-4.4411s-2.2728-23.234-2.2728-23.234l-17.425 4.7982z"/>
    <path id="path2859" style="fill:#d38d5f" d="m329.31 335.66-17.438 4.8125s1.3826 5.0878 2.125 9.7812c1.3081-0.3204 3.0926-0.38243 5.2188 0.5625 4.5457 2.0203 11.604 10.1 10.594 12.625-0.29633 0.74082-0.66882 2.631-1.0625 4.8438 1.3833-1.5826 2.8406-3.2169 4.5-4.9375 0 0 1.3742-1.9121-1.6562-4.4375s-2.2812-23.25-2.2812-23.25z"/>
    <path id="path2891" style="fill:#ffccaa" d="m323.97 217.34c-0.10077-0.002-0.17187 0.009-0.25 0.0312-5 1.4286-57.004 32.17-57.719 34.312-13.571 17.857-16.411 51.862-12.125 59.719 4.2857 7.8571 38.465 31.795 48.406 33.094 17.071 2.2295 54.248-11.383 62.062-14.969 4.9075-2.2519 8.7258-7.1946 11.594-13.312 1.5278 1.101 3.3486 1.8057 5.4375 1.625 4.2993-0.37193 8.35-8.245 10.656-19.438 2.2799-11.064-3.6782-18.818-8.6562-14.594 0.33723-5.3576 0.18168-9.5819-0.375-11.438-2.1094-7.0312-52.683-54.9-59.031-55.031z"/>
    <path id="path2854" style="fill:#d38d5f" d="m304.44 227.72c-16.689 9.6117-37.981 22.601-38.438 23.969-5.5375 7.2862-9.291 17.273-11.5 27.062 6.9976-4.3591 30.999-19.336 34.906-22.375 4.5457-3.5355 16.156-15.656 16.156-15.656s5.5582 21.214 9.0938 24.75c3.5355 3.5355 41.438 21.688 41.438 21.688s-7.0828-17.156-5.0625-17.156 18.188 11.625 18.188 11.625-1.0059 27.756-3.5312 30.281c-2.5254 2.5254 6.5406-2.0035 2.5 4.5625-2.2156 3.6003-7.332 10.515-11.625 16.188 3.4861-1.3023 6.2277-2.4121 7.7812-3.125 4.9075-2.2519 8.7258-7.1946 11.594-13.312 1.5278 1.101 3.3486 1.8057 5.4375 1.625 4.2993-0.37193 8.35-8.245 10.656-19.438 2.2799-11.064-3.6782-18.818-8.6562-14.594 0.33723-5.3576 0.18168-9.5819-0.375-11.438-1.1108-3.7028-15.67-18.708-30.125-32.125l-48.438-12.531z"/>
    <path id="path3672" style="fill:#ffeeaa" d="m245.39 277.07c6.3134-4.0406 46.72-28.789 50.255-33.082 3.5355-4.2932 4.2932-7.8287 4.2932-7.8287s1.9358 14.662 10.607 20.961c8.4593 6.1453 30.446 20.538 39.901 21.213-2.5254-8.3338-7.3236-14.395-2.7779-13.89 4.5457 0.50507 15.814 7.9973 22.223 13.89 5.3043 4.8762-5.5448 29.123-11.617 30.81 13.549 1.8134 16.319-3.2184 18.435-9.0914l10.102-28.032 8.0812 4.7982-21.466-54.548-62.124-15.91-56.316 44.447-9.5964 26.264z"/>
    <path id="path3699" style="fill:#d38d5f" d="m292.77 272.08c-11.096 0.74194-11.879 14.609-13.304 16.228-2.242 2.547-5.4062 1.3884-5.4062 1.3884s2.1475 3.6011 7.651 5.6384l20.38 0.17s2.6052-9.5671 0.875-14-5.4284-9.8446-10.196-9.4152zm21.696 8.5089c-2.495 3.5615-2.6562 16.438-2.6562 16.438l1 2.6562-0.24572-0.64705s0.007 2.3991 2.2795 2.2728c2.2728-0.12627 12.098 2.1524 14.75 2.5312 5.7238 0.35552 11.975 1.8689 13.154-4.5633 0 0-0.50587-0.12246-3.0312-0.375-2.52-0.26-5.81-11.61-8.71-15.16-3.7912-6.4018-10.869-8.8466-16.531-3.1562z"/>
    <path id="path3695" style="fill:#ffffff" d="m299.18 299.17c6.5543 2.9637 3.4879-2.5237 3.8202-5.4259 0.37575-3.2823 0.61203-11.337-1.8649-13.933-3.7572-3.9384-11.767-2.9041-14.077-0.21294-3.7716 4.3941-4.8769 9.8763-4.5457 11.869 1.2688 7.6345 12.591 5.8591 16.668 7.7024z"/>
    <path id="path3697" style="fill:#ffffff" d="m315.47 284.77c-1.401 1.9133-2.9835 6.8713-4.5457 11.996-1.1541 3.7856 0.41869 4.7423 4.9245 5.5558 3.0572 0.55199 4.8984 1.626 14.395 1.5152 6.5765-0.0767 3.055-10.451 1.5152-14.773-1.7085-4.7958-12.046-10.088-16.289-4.2931z"/>
    <path id="path3703" style="fill:#000000" d="m295.47 291.02a6.4397 7.7655 0 1 1 -12.879 0 6.4397 7.7655 0 1 1 12.879 0z" transform="translate(7.6212 -.82397)"/>
    <path id="path3705" style="fill:#ffffff" d="m295.47 291.02a6.4397 7.7655 0 1 1 -12.879 0 6.4397 7.7655 0 1 1 12.879 0z" transform="matrix(.25490 0 0 .38498 220.96 176.67)"/>
    <path id="path3707" style="fill:#000000" d="m295.47 291.02a6.4397 7.7655 0 1 1 -12.879 0 6.4397 7.7655 0 1 1 12.879 0z" transform="translate(37.421 4.0406)"/>
    <path id="path3709" style="fill:#ffffff" d="m295.47 291.02a6.4397 7.7655 0 1 1 -12.879 0 6.4397 7.7655 0 1 1 12.879 0z" transform="matrix(.25490 0 0 .38498 250.76 181.53)"/>
    <path id="path3711" style="fill:#aa4400" d="m301.07 308.89c2.5254 2.2728 5.6821 2.6516 6.4397 2.5254 0.75761-0.12627 2.0203 1.1364 1.0102 1.7678-1.0102 0.63134-2.9379 1.6581-5.4296 1.0102-3.6846-0.95814-2.9972-5.6531-2.0203-5.3033z"/>
    <path id="path3713" style="fill:#aa4400" d="m302.33 321.14c1.0553 0.14979 2.5015-1.0875 3.9775-0.88388 1.476 0.20358 1.7899 2.1168 2.8032 3.266 0.24192 0.27435 0.50347 0.50236 0.79549 0.64837 1.5152 0.75761 5.4381 1.0718 6.566 0.88388 0.37882-0.0631 0.75762-3.0305 0.75762-3.0305 0.13205 0.17606 1.0072 3.4797 2.1466 4.2931 1.7291 1.2346-2.2759 0.34013-3.6618-0.0631-2.7511-0.80042-4.8047-1.5079-9.2679-0.83052-3.8306 0.58135-4.5776-0.12453-7.4627-1.4423-1.644-0.75092-7.0156-1.4786-7.1974-2.0203-0.29856-0.88982-3.355 2.4572-2.7148 1.5152 1.3936-2.0507 2.0329-3.1952 2.0834-5.2402l1.389 2.1466c0.98362 0.83788 2.0531 1.8308 3.6541 1.4611 1.1736-0.27101 0.90177-2.2498 3.0381-2.345 2.1364-0.0951 2.0383 1.4917 3.0936 1.6415z"/>
    <path id="path3715" style="fill:#aa4400" d="m297.22 330.17c-0.43365-0.81418-1.0952-1.6406-1.1364-0.69447-0.20404 4.6869 8.0988 6.2468 9.7858 5.619 2.1147-0.78696 4.7688-3.5321 2.8411-3.0936-1.2867 0.29269-4.5573 0.81949-6.5154 0.44401-2.4917-0.47782-4.5415-1.4607-4.9751-2.2749z"/>
    <path id="path3723" style="fill:#ffccaa" d="m425 400.22c-1.9643-1.25-6.6198 5.3138-7.6913 7.8138-1.0714 2.5 9.8341 9.329 11.263 10.043 1.4286 0.71428 6.4286 10 6.4286 10s6.0714-1.7857 6.0714-4.2857-2.1429-8.9286-2.1429-8.9286 10.536-6.0714 12.232-6.4286c1.3393-0.26786 7.5-0.26786 11.25-1.0714 4.1964-1.875 4.1071-4.2857 1.5178-4.2857l-3.5471-0.92087s3.7616-0.95196 5.0949-2.886c0.74884-1.0863 2.6682-7.2984-3.0656-4.6753-1.6072 0.625-12.679 3.3036-12.679 3.3036s3.6266-4.0661 3.2143-5.8036c-1.25-5.2679-5-4.2857-6.7857-1.4286-1.3393 1.7857-7.6786 8.3928-9.8214 9.4643-2.1429 1.0714-7.4107 0.80357-11.339 0.0893v-0.00002z"/>
    <path id="path3729" style="fill:#b7c4c8" d="m351.53 402.84c-4.0406 0-12.613 2.016-7.5625 3.5312 5.0508 1.5152 10.345 0.24571 13.375 3.7812 1.0781 1.2578 15.634 13.697 17.304 23.843 0.9794 5.9527 29.501 37.388 33.406 39.34 27.06 13.504 44.386 41.536 54.514 69.307 1.6466-3.8002 20.995-45.99 20.995-45.99s-61.991-27.272-67.259-32.538c-0.6015 0.94576-1.94 1.902-3.4101 2.7188-4.5457 2.5254-7.8311-1.3686-7.8311-1.3686s-29.032-44.198-32.062-46.219c-3.0305-2.0203-20.964-16.406-21.469-16.406z"/>
    <path id="path2915" style="fill:#b7c4c8" d="m303.29 408.9s0.005 20.706-4.793 26.767c-3.4363 4.3406-20.874 10.66-24.906 11.864 9.7651 6.5782 22.251 11.69 24.25 9.4688 3.1913-3.5459 15.449-19.643 15.625-19.875l-10.176-28.225z"/>
    <path id="path2922" style="fill:#d38d5f" d="m452.44 390.53c-1.9262 2.4492-9.1377 11.485-11 12.188-5.3755 2.0269-7.811 11.034-6.7812 12.5 2.0167 2.8707 3.2224 7.7386 3.9062 11.375 1.3224-0.73316 2.5-1.7084 2.5-2.8125 0-2.5-2.125-8.9062-2.125-8.9062s10.522-6.0804 12.219-6.4375c1.3393-0.26786 7.5-0.25893 11.25-1.0625 1.5467-0.69109 2.4971-1.4671 2.9688-2.1562-0.008-0.00054-0.0231 0-0.0312 0-1.4286 0-10.344-1.0625-10.344-1.0625l8.5-3.25c0.77865-0.43344 1.5116-0.96184 1.9688-1.625 0.30935-0.44875 0.81946-1.786 0.90625-3-3.4873 1.6706-15.417 7.2546-16.031 5.7188-0.32571-0.81426 1.0872-2.8878 2.6875-4.9062-1.344 0.33077-3.3125 0.8125-3.3125 0.8125s3.631-4.075 3.2188-5.8125c-0.14332-0.60399-0.29768-1.1162-0.5-1.5625z"/>
    <path id="path2955" style="fill:#b7c4c8" d="m370.5 524.59c-1.9055 0.13765-1.8444 4.8848-1.9375 7.0625-0.44661 10.443 4.3551 45.531 7.2188 65.312 11.228-1.2418 31.698-12.614 32-12.781l-29.938-51.125c-3.8176-6.5217-6.04-8.5629-7.3438-8.4688zm-23.344 12.062-4.5312 60.656c0.23719 0.0331 0.4375 0.0625 0.59375 0.0625 5 0 5-7.875 5-7.875s0.89753 0.2467 1.6875 0.46875l-0.25-35.469-2.5-17.844z"/>
  </g>
  <metadata>
    <rdf:RDF>
      <cc:Work>
        <dc:format>image/svg+xml</dc:format>
        <dc:type rdf:resource="http://purl.org/dc/dcmitype/StillImage"/>
        <cc:license rdf:resource="http://creativecommons.org/licenses/publicdomain/"/>
        <dc:publisher>
          <cc:Agent rdf:about="http://openclipart.org/">
            <dc:title>Openclipart</dc:title>
          </cc:Agent>
        </dc:publisher>
        <dc:title>little angel</dc:title>
        <dc:date>2011-01-10T19:25:50</dc:date>
        <dc:description/>
        <dc:source>https://openclipart.org/detail/104299/little-angel-by-tzunghaor</dc:source>
        <dc:creator>
          <cc:Agent>
            <dc:title>tzunghaor</dc:title>
          </cc:Agent>
        </dc:creator>
        <dc:subject>
          <rdf:Bag>
            <rdf:li>angel</rdf:li>
            <rdf:li>cartoon</rdf:li>
            <rdf:li>cute</rdf:li>
          </rdf:Bag>
        </dc:subject>
      </cc:Work>
      <cc:License rdf:about="http://creativecommons.org/licenses/publicdomain/">
        <cc:permits rdf:resource="http://creativecommons.org/ns#Reproduction"/>
        <cc:permits rdf:resource="http://creativecommons.org/ns#Distribution"/>
        <cc:permits rdf:resource="http://creativecommons.org/ns#DerivativeWorks"/>
      </cc:License>
    </rdf:RDF>
  </metadata>
</svg>
